<svg version="1.1" xmlns="http://www.w3.org/2000/svg" viewBox="0 0 1309.5 379.875" width="1309.5" height="379.875">
  <!-- svg-source:excalidraw -->
  
  <defs>
    <style>
      @font-face {
        font-family: "Virgil";
        src: url("https://excalidraw.com/Virgil.woff2");
      }
      @font-face {
        font-family: "Cascadia";
        src: url("https://excalidraw.com/Cascadia.woff2");
      }
    </style>
  </defs>
  <g stroke-linecap="round" transform="translate(17.999999999999886 10) rotate(0 88.75 44.4375)"><path d="M-0.28 0.05 C38.16 -1.66, 80.94 -1.22, 178.43 0.06 M178.46 1.91 C179.26 16.72, 178.18 35.76, 176.36 89.65 M178.45 87.83 C129.28 90.15, 77.09 89.68, -2 90.07 M-0.76 87.9 C0.98 57.3, 1.87 25, 0.7 -0.6" stroke="#f2aa74" stroke-width="2.5" fill="none" stroke-dasharray="8 10"></path></g><g stroke-opacity="0.8" fill-opacity="0.8" transform="translate(36.24999999999977 31.4375) rotate(0 64.5 23)"><text x="0" y="32" font-family="Virgil, Segoe UI Emoji" font-size="36px" fill="#f2aa74" text-anchor="start" style="white-space: pre;" direction="ltr">Shape 1</text></g><g stroke-linecap="round" transform="translate(231.99999999999966 10) rotate(0 88.75 44.4375)"><path d="M1.56 -1.2 C54.61 1.52, 105.41 1.96, 177.54 0.96 M177.96 -0.24 C177.04 35.93, 177.78 68.43, 177.55 89.82 M176.37 89.64 C131.49 91.17, 90.56 88.77, -1.89 88.12 M1.34 87.94 C0.5 65.93, 1.8 44.63, 0.14 0.61" stroke="#f2aa74" stroke-width="2.5" fill="none" stroke-dasharray="8 10"></path></g><g stroke-opacity="0.8" fill-opacity="0.8" transform="translate(250.24999999999966 31.4375) rotate(0 72.5 23)"><text x="0" y="32" font-family="Virgil, Segoe UI Emoji" font-size="36px" fill="#f2aa74" text-anchor="start" style="white-space: pre;" direction="ltr">Shape 2</text></g><g stroke-linecap="round" transform="translate(443.99999999999966 10) rotate(0 88.75 44.4375)"><path d="M-1.95 0.5 C42.63 0.9, 87.09 1.48, 176.22 0.46 M177.09 -1.88 C177.04 26.54, 175.95 52.6, 178.74 87.75 M178.58 87.67 C115.61 89.18, 56.53 90.38, -0.11 90.21 M2 89.32 C-0.17 66.98, -1.97 45.21, -1.07 1.37" stroke="#f2aa74" stroke-width="2.5" fill="none" stroke-dasharray="8 10"></path></g><g stroke-opacity="0.8" fill-opacity="0.8" transform="translate(462.24999999999966 31.4375) rotate(0 72 23)"><text x="0" y="32" font-family="Virgil, Segoe UI Emoji" font-size="36px" fill="#f2aa74" text-anchor="start" style="white-space: pre;" direction="ltr">Shape 3</text></g><g stroke-linecap="round" transform="translate(655.9999999999998 10) rotate(0 88.75 44.4375)"><path d="M1.91 1.54 C56.43 -0.39, 115.19 -1.99, 178.27 -0.41 M176.46 1.42 C178.76 17.17, 178.28 34.6, 178.69 89.96 M176.53 89.32 C134.85 89.54, 91.48 88.91, -0.6 90.87 M-1.66 90.22 C-1.14 61.59, 0.04 32.39, -1.17 -0.53" stroke="#f2aa74" stroke-width="2.5" fill="none" stroke-dasharray="8 10"></path></g><g stroke-opacity="0.8" fill-opacity="0.8" transform="translate(670.2499999999997 31.4375) rotate(0 71 23)"><text x="0" y="32" font-family="Virgil, Segoe UI Emoji" font-size="36px" fill="#f2aa74" text-anchor="start" style="white-space: pre;" direction="ltr">Shape 4</text></g><g stroke-linecap="round" transform="translate(869.9999999999998 10) rotate(0 88.75 44.4375)"><path d="M-0.24 -1.14 C67.65 -0.82, 131.87 -0.36, 178.45 -1.04 M178.26 -2 C179.24 34.06, 176.84 64.06, 176.74 87.9 M176.56 89.58 C119.69 92.06, 63.52 90.2, 0.61 87.22 M0.1 89.7 C-0.7 55.71, 0.06 24.46, 1.2 -1.41" stroke="#f2aa74" stroke-width="2.5" fill="none" stroke-dasharray="8 10"></path></g><g stroke-opacity="0.8" fill-opacity="0.8" transform="translate(884.2499999999997 31.4375) rotate(0 70.5 23)"><text x="0" y="32" font-family="Virgil, Segoe UI Emoji" font-size="36px" fill="#f2aa74" text-anchor="start" style="white-space: pre;" direction="ltr">Shape 5</text></g><g stroke-linecap="round" transform="translate(1079.9999999999998 10) rotate(0 88.75 44.4375)"><path d="M-1.88 0.05 C44.1 -0.68, 87.73 1.6, 176.37 0.76 M176.29 -1.89 C177.27 16.82, 178.48 35.47, 178.84 87.94 M177.95 89.01 C118.62 88.99, 59.87 89.57, 1.37 88.98 M-0.42 89.75 C1.72 57.12, 2.2 28.55, 1 -1.68" stroke="#f2aa74" stroke-width="2.5" fill="none" stroke-dasharray="8 10"></path></g><g stroke-opacity="0.8" fill-opacity="0.8" transform="translate(1096.2499999999995 31.4375) rotate(0 71 23)"><text x="0" y="32" font-family="Virgil, Segoe UI Emoji" font-size="36px" fill="#f2aa74" text-anchor="start" style="white-space: pre;" direction="ltr">Shape 6</text></g><g stroke-linecap="round" transform="translate(10 281) rotate(0 202.75 44.4375)"><path d="M0.79 0.69 C121.93 1.6, 244.01 1.84, 406.1 -0.67 M405.95 -0.11 C406.5 17.33, 405.87 35.94, 407.5 89.32 M406.25 88.28 C281.8 87.06, 157.03 86.35, -0.29 88.64 M1.68 89.24 C0.46 56.64, 1.37 28.87, 0.76 0.14" stroke="#f2aa74" stroke-width="2.5" fill="none" stroke-dasharray="8 10"></path></g><g stroke-opacity="0.8" fill-opacity="0.8" transform="translate(28.249999999999773 302.4375) rotate(0 181.5 23)"><text x="0" y="32" font-family="Virgil, Segoe UI Emoji" font-size="36px" fill="#f2aa74" text-anchor="start" style="white-space: pre;" direction="ltr">Geometric Primitive 1</text></g><g stroke-linecap="round" transform="translate(456 281) rotate(0 202.75 44.4375)"><path d="M-1.11 0.66 C147.36 -1.53, 292.46 -1.28, 404.96 0.25 M406.2 -0.6 C408.09 26.63, 406.23 52.97, 403.84 90.22 M405.96 88.22 C305.35 88.76, 206.28 89.66, -0.78 89.81 M1.9 89.98 C0.32 60.71, -0.1 34.03, 0.64 1.46" stroke="#f2aa74" stroke-width="2.5" fill="none" stroke-dasharray="8 10"></path></g><g stroke-opacity="0.8" fill-opacity="0.8" transform="translate(474.2499999999998 304.4375) rotate(0 189.5 23)"><text x="0" y="32" font-family="Virgil, Segoe UI Emoji" font-size="36px" fill="#f2aa74" text-anchor="start" style="white-space: pre;" direction="ltr">Geometric Primitive 2</text></g><g stroke-linecap="round" transform="translate(894 281) rotate(0 202.75 44.4375)"><path d="M-1.05 -0.42 C145.26 1.61, 291.53 2.11, 404.98 0.39 M405.64 0.61 C404.73 25.36, 405.31 49.4, 405.6 89.7 M405.99 89.54 C306.87 89.34, 210.02 88.95, -0.94 89.94 M0.34 90.64 C0.3 58.77, -0.66 25.73, 0.35 1.58" stroke="#f2aa74" stroke-width="2.5" fill="none" stroke-dasharray="8 10"></path></g><g stroke-opacity="0.8" fill-opacity="0.8" transform="translate(912.2499999999998 302.4375) rotate(0 188.5 23)"><text x="0" y="32" font-family="Virgil, Segoe UI Emoji" font-size="36px" fill="#f2aa74" text-anchor="start" style="white-space: pre;" direction="ltr">Geometric Primitive 3</text></g><g stroke-linecap="round"><g stroke-opacity="0.8" fill-opacity="0.8" transform="translate(190.75 268.4375) rotate(0 50.875687206638986 -78.31304485537112)"><path d="M0.27 -0.06 C17.48 -26.06, 85.78 -130.51, 102.8 -156.56 M-1.05 -1.14 C16.11 -26.93, 85.12 -129.64, 102.27 -155.32" stroke="#ffffff" stroke-width="2" fill="none"></path></g><g stroke-opacity="0.8" fill-opacity="0.8" transform="translate(190.75 268.4375) rotate(0 50.875687206638986 -78.31304485537112)"><path d="M95 -124.85 C96.19 -133.14, 98.41 -139.49, 102.72 -155.18 M94.57 -125.5 C97.77 -135.45, 99.5 -145.75, 102.06 -154.88" stroke="#ffffff" stroke-width="2" fill="none"></path></g><g stroke-opacity="0.8" fill-opacity="0.8" transform="translate(190.75 268.4375) rotate(0 50.875687206638986 -78.31304485537112)"><path d="M77.95 -136.28 C83.56 -141.61, 90.25 -144.96, 102.72 -155.18 M77.52 -136.93 C86.26 -143.21, 93.62 -149.74, 102.06 -154.88" stroke="#ffffff" stroke-width="2" fill="none"></path></g></g><g stroke-linecap="round"><g stroke-opacity="0.8" fill-opacity="0.8" transform="translate(652.75 270.4375) rotate(0 -50.75155009944925 -77.299762256993)"><path d="M0.8 -0.56 C-16.17 -26.61, -84.64 -130.5, -101.58 -156.36 M-0.24 1.76 C-17.36 -24.11, -85.52 -129, -102.31 -155.01" stroke="#ffffff" stroke-width="2" fill="none"></path></g><g stroke-opacity="0.8" fill-opacity="0.8" transform="translate(652.75 270.4375) rotate(0 -50.75155009944925 -77.299762256993)"><path d="M-79.3 -136.23 C-86.67 -140.6, -93.34 -148.29, -101.7 -156.66 M-78.31 -136.52 C-87.65 -143.67, -96.06 -149.61, -101.71 -155.71" stroke="#ffffff" stroke-width="2" fill="none"></path></g><g stroke-opacity="0.8" fill-opacity="0.8" transform="translate(652.75 270.4375) rotate(0 -50.75155009944925 -77.299762256993)"><path d="M-96.52 -125.07 C-98.33 -133.16, -99.45 -144.44, -101.7 -156.66 M-95.53 -125.36 C-98.48 -136.73, -100.57 -146.76, -101.71 -155.71" stroke="#ffffff" stroke-width="2" fill="none"></path></g></g><g stroke-linecap="round"><g stroke-opacity="0.8" fill-opacity="0.8" transform="translate(1102.75 272.4375) rotate(0 30.19054605896585 -82.03510204355234)"><path d="M0.42 -0.36 C10.49 -27.22, 51.25 -134.85, 61.2 -161.73 M-0.82 -1.59 C9.13 -28.79, 50.85 -136.68, 60.88 -163.71" stroke="#ffffff" stroke-width="2" fill="none"></path></g><g stroke-opacity="0.8" fill-opacity="0.8" transform="translate(1102.75 272.4375) rotate(0 30.19054605896585 -82.03510204355234)"><path d="M59.87 -131.72 C61.2 -144.58, 61.52 -157.38, 62.22 -164.79 M59.88 -133.98 C60.39 -144.34, 61.35 -156.54, 61.72 -163.53" stroke="#ffffff" stroke-width="2" fill="none"></path></g><g stroke-opacity="0.8" fill-opacity="0.8" transform="translate(1102.75 272.4375) rotate(0 30.19054605896585 -82.03510204355234)"><path d="M40.68 -139 C49.02 -149.26, 56.37 -159.39, 62.22 -164.79 M40.69 -141.26 C48.28 -149.02, 56.32 -158.53, 61.72 -163.53" stroke="#ffffff" stroke-width="2" fill="none"></path></g></g></svg>