<svg version="1.1" xmlns="http://www.w3.org/2000/svg" viewBox="0 0 1309.5 349.87499999999994" width="1309.5" height="349.87499999999994">
  <!-- svg-source:excalidraw -->
  
  <defs>
    <style>
      @font-face {
        font-family: "Virgil";
        src: url("https://excalidraw.com/Virgil.woff2");
      }
      @font-face {
        font-family: "Cascadia";
        src: url("https://excalidraw.com/Cascadia.woff2");
      }
    </style>
  </defs>
  <g stroke-linecap="round" transform="translate(10 10) rotate(0 202.75 44.4375)"><path d="M-0.39 -0.1 C125.19 -0.19, 251.13 -1.88, 404.9 -0.4 M405.83 1.29 C406.84 19.4, 407.73 35.96, 407.25 89.78 M405.52 89.01 C321.43 89.39, 235.54 88.23, 0.11 88.75 M0.03 87.23 C-0.38 67.53, 0.18 46.34, -1.65 -0.44" stroke="#f2aa74" stroke-width="2.5" fill="none" stroke-dasharray="8 10"></path></g><g stroke-opacity="0.8" fill-opacity="0.8" transform="translate(71.75 36.4375) rotate(0 141 18)"><text x="0" y="25" font-family="Virgil, Segoe UI Emoji" font-size="28px" fill="#f2aa74" text-anchor="start" style="white-space: pre;" direction="ltr">Geometric Primitive 1</text></g><g stroke-linecap="round" transform="translate(456 10) rotate(0 202.75 44.4375)"><path d="M0.04 -0.94 C117.53 -1.91, 235.21 -0.82, 405.95 0.18 M407.18 -0.58 C407.6 33.3, 404.03 63.01, 404.99 88.92 M405.14 88.81 C278.94 90.98, 151.37 91.51, 0.18 88.89 M0.5 87.09 C-1.63 69.07, -0.44 48.75, -1.67 1.06" stroke="#f2aa74" stroke-width="2.5" fill="none" stroke-dasharray="8 10"></path></g><g stroke-opacity="0.8" fill-opacity="0.8" transform="translate(511.75 36.4375) rotate(0 147 18)"><text x="0" y="25" font-family="Virgil, Segoe UI Emoji" font-size="28px" fill="#f2aa74" text-anchor="start" style="white-space: pre;" direction="ltr">Geometric Primitive 2</text></g><g stroke-linecap="round" transform="translate(894 10) rotate(0 202.75 44.4375)"><path d="M-1.05 0.69 C87.83 0.99, 175.48 1.24, 406.13 0.94 M403.68 -1.78 C405.76 24.14, 406.52 49.49, 407.47 88.23 M404.71 89.28 C286.22 88.63, 165.66 88.58, -0.54 89.16 M-0.47 87.48 C-0.94 71.19, -1.22 50.28, 1.86 0.58" stroke="#f2aa74" stroke-width="2.5" fill="none" stroke-dasharray="8 10"></path></g><g stroke-opacity="0.8" fill-opacity="0.8" transform="translate(949.75 36.4375) rotate(0 147 18)"><text x="0" y="25" font-family="Virgil, Segoe UI Emoji" font-size="28px" fill="#f2aa74" text-anchor="start" style="white-space: pre;" direction="ltr">Geometric Primitive 3</text></g><g stroke-linecap="round" transform="translate(364 251) rotate(0 106.75 44.43749999999997)"><path d="M1.13 0.69 C78.23 1.17, 153.95 1.23, 214.3 -1.59 M213.75 1.3 C215.24 18.11, 213.16 37.69, 213.27 87.46 M212.06 88.83 C140.87 89.35, 68.39 87.45, -0.39 88.46 M-1.95 87.76 C2.6 68.98, 2.33 47.23, 0.53 -0.9" stroke="#f2aa74" stroke-width="1.5" fill="none" stroke-dasharray="8 9"></path></g><g stroke-opacity="0.8" fill-opacity="0.8" transform="translate(382.2499999999998 272.4375) rotate(0 86 23)"><text x="0" y="32" font-family="Virgil, Segoe UI Emoji" font-size="36px" fill="#f2aa74" text-anchor="start" style="white-space: pre;" direction="ltr">Primitive 1</text></g><g stroke-linecap="round" transform="translate(636 251) rotate(0 106.75 44.43749999999997)"><path d="M-0.51 1.53 C73.24 -3.17, 143.33 -2.03, 213.54 0.22 M213.39 0.19 C214.15 31.03, 215.1 65.2, 213.53 87.23 M211.94 87.43 C149.66 88.93, 85.38 87.88, 0.93 87.16 M1.59 88.18 C-0.3 66.26, -2.56 44.5, 1.5 -0.53" stroke="#f2aa74" stroke-width="1.5" fill="none" stroke-dasharray="8 9"></path></g><g stroke-opacity="0.8" fill-opacity="0.8" transform="translate(652.2499999999998 272.4375) rotate(0 94 23)"><text x="0" y="32" font-family="Virgil, Segoe UI Emoji" font-size="36px" fill="#f2aa74" text-anchor="start" style="white-space: pre;" direction="ltr">Primitive 2</text></g><g stroke-linecap="round"><g stroke-opacity="0.8" fill-opacity="0.8" transform="translate(468.75 232.4375) rotate(0 -124.4404609383829 -59.49513051490297)"><path d="M-1.09 -1.07 C-42.65 -21.16, -207.18 -100.28, -248.31 -119.98 M0.54 0.99 C-41.3 -18.94, -207.91 -98.07, -249.42 -118.43" stroke="#ffffff" stroke-width="1" fill="none"></path></g><g stroke-opacity="0.8" fill-opacity="0.8" transform="translate(468.75 232.4375) rotate(0 -124.4404609383829 -59.49513051490297)"><path d="M-221.35 -115.95 C-231.1 -116.62, -241.4 -116.05, -250.06 -118.53 M-219.21 -115.28 C-228.79 -117.4, -238.07 -117.99, -249.17 -119.32" stroke="#ffffff" stroke-width="1" fill="none"></path></g><g stroke-opacity="0.8" fill-opacity="0.8" transform="translate(468.75 232.4375) rotate(0 -124.4404609383829 -59.49513051490297)"><path d="M-230.25 -97.46 C-236.64 -105.21, -243.49 -111.8, -250.06 -118.53 M-228.11 -96.79 C-234.91 -104.57, -241.44 -110.88, -249.17 -119.32" stroke="#ffffff" stroke-width="1" fill="none"></path></g></g><g stroke-linecap="round"><g stroke-opacity="0.8" fill-opacity="0.8" transform="translate(747.1624310945905 244.4375) rotate(0 164.13743545065225 -64.45398698504081)"><path d="M-0.31 0.02 C54.64 -21, 273.6 -105.82, 328.58 -127.22 M1.73 -1.01 C56.63 -22.28, 273.09 -107.89, 327.71 -128.93" stroke="#ffffff" stroke-width="1" fill="none"></path></g><g stroke-opacity="0.8" fill-opacity="0.8" transform="translate(747.1624310945905 244.4375) rotate(0 164.13743545065225 -64.45398698504081)"><path d="M305.24 -108.86 C311.38 -111.22, 314.15 -117.45, 327.9 -129.16 M305.21 -109.93 C310.26 -114.18, 315.7 -119.13, 326.89 -129.15" stroke="#ffffff" stroke-width="1" fill="none"></path></g><g stroke-opacity="0.8" fill-opacity="0.8" transform="translate(747.1624310945905 244.4375) rotate(0 164.13743545065225 -64.45398698504081)"><path d="M297.76 -127.98 C305.3 -126.32, 309.63 -128.55, 327.9 -129.16 M297.74 -129.04 C304.57 -128.92, 311.72 -129.49, 326.89 -129.15" stroke="#ffffff" stroke-width="1" fill="none"></path></g></g></svg>