<svg version="1.1" xmlns="http://www.w3.org/2000/svg" viewBox="0 0 1077 608.1875" width="1077" height="608.1875">
  <!-- svg-source:excalidraw -->
  
  <defs>
    <style>
      @font-face {
        font-family: "Virgil";
        src: url("https://excalidraw.com/Virgil.woff2");
      }
      @font-face {
        font-family: "Cascadia";
        src: url("https://excalidraw.com/Cascadia.woff2");
      }
    </style>
  </defs>
  <g stroke-opacity="0.8" fill-opacity="0.8" transform="translate(33.000000000000114 489.1875) rotate(0 173 18)"><text x="0" y="25" font-family="Virgil, Segoe UI Emoji" font-size="28px" fill="#f2aa74" text-anchor="start" style="white-space: pre;" direction="ltr">1d/2d sample array sizes</text></g><g stroke-opacity="0.8" fill-opacity="0.8" stroke-linecap="round" transform="translate(62.999999999999886 89.625) rotate(0 26.000000000000057 33.5)"><path d="M0 0 C0 0, 0 0, 0 0 M0 0 C0 0, 0 0, 0 0 M0.27 24.08 C5.84 17.67, 11.41 11.26, 21.26 -0.07 M0.27 24.08 C6.97 16.38, 13.66 8.67, 21.26 -0.07 M-0.12 48.92 C16.08 30.28, 32.28 11.64, 42.52 -0.14 M-0.12 48.92 C16.33 29.99, 32.78 11.07, 42.52 -0.14 M2.77 69.98 C15.16 55.72, 27.56 41.46, 58.53 5.83 M2.77 69.98 C18.78 51.56, 34.8 33.13, 58.53 5.83 M24.03 69.91 C35.62 56.58, 47.21 43.25, 58.8 29.91 M24.03 69.91 C37.91 53.94, 51.8 37.96, 58.8 29.91 M45.29 69.84 C50.09 64.31, 54.9 58.78, 58.41 54.75 M45.29 69.84 C49.3 65.22, 53.32 60.6, 58.41 54.75" stroke="#12b886" stroke-width="2" fill="none"></path><path d="M0 0 C11.4 0, 22.8 0, 52 0 M0 0 C17.18 0, 34.36 0, 52 0 M52 0 C52 18.68, 52 37.37, 52 67 M52 0 C52 18.81, 52 37.62, 52 67 M52 67 C34.05 67, 16.1 67, 0 67 M52 67 C38.61 67, 25.22 67, 0 67 M0 67 C0 46.06, 0 25.11, 0 0 M0 67 C0 51.49, 0 35.98, 0 0" stroke="#087f5b" stroke-width="4" fill="none"></path></g><g stroke-linecap="round"><g stroke-opacity="0.8" fill-opacity="0.8" transform="translate(51.000000000000114 203.1875) rotate(0 488 0)"><path d="M0 0 C217.03 0, 434.06 0, 976 0 M0 0 C259.71 0, 519.42 0, 976 0" stroke="#f2aa74" stroke-width="4" fill="none"></path></g><g stroke-opacity="0.8" fill-opacity="0.8" transform="translate(51.000000000000114 203.1875) rotate(0 488 0)"><path d="M0 -15 C0 -11.66, 0 -8.33, 0 0 M0 -15 C0 -11.01, 0 -7.02, 0 0" stroke="#f2aa74" stroke-width="4" fill="none"></path></g><g stroke-opacity="0.8" fill-opacity="0.8" transform="translate(51.000000000000114 203.1875) rotate(0 488 0)"><path d="M0 15 C0 11.66, 0 8.33, 0 0 M0 15 C0 11.01, 0 7.02, 0 0" stroke="#f2aa74" stroke-width="4" fill="none"></path></g><g stroke-opacity="0.8" fill-opacity="0.8" transform="translate(51.000000000000114 203.1875) rotate(0 488 0)"><path d="M976 15 C976 11.66, 976 8.33, 976 0 M976 15 C976 11.01, 976 7.02, 976 0" stroke="#f2aa74" stroke-width="4" fill="none"></path></g><g stroke-opacity="0.8" fill-opacity="0.8" transform="translate(51.000000000000114 203.1875) rotate(0 488 0)"><path d="M976 -15 C976 -11.66, 976 -8.33, 976 0 M976 -15 C976 -11.01, 976 -7.02, 976 0" stroke="#f2aa74" stroke-width="4" fill="none"></path></g></g><g stroke-opacity="0.8" fill-opacity="0.8" transform="translate(459 219.6875) rotate(0 80 18)"><text x="0" y="25" font-family="Virgil, Segoe UI Emoji" font-size="28px" fill="#f2aa74" text-anchor="start" style="white-space: pre;" direction="ltr">pixel sample</text></g><g stroke-opacity="0.8" fill-opacity="0.8" stroke-linecap="round" transform="translate(134.71428571428567 89.625) rotate(0 54.00000000000006 33.5)"><path d="M0 0 C0 0, 0 0, 0 0 M0 0 C0 0, 0 0, 0 0 M0.27 24.08 C6.7 16.69, 13.12 9.29, 21.26 -0.07 M0.27 24.08 C5.53 18.03, 10.79 11.98, 21.26 -0.07 M-0.12 48.92 C10.82 36.32, 21.77 23.73, 42.52 -0.14 M-0.12 48.92 C14.98 31.54, 30.09 14.17, 42.52 -0.14 M2.77 69.98 C24.31 45.2, 45.85 20.43, 63.78 -0.21 M2.77 69.98 C21.21 48.76, 39.66 27.54, 63.78 -0.21 M24.03 69.91 C38.2 53.61, 52.37 37.31, 85.04 -0.28 M24.03 69.91 C45.16 45.6, 66.3 21.28, 85.04 -0.28 M45.29 69.84 C66.65 45.27, 88.02 20.69, 106.3 -0.34 M45.29 69.84 C66.02 45.99, 86.75 22.14, 106.3 -0.34 M66.55 69.77 C83.11 50.72, 99.67 31.67, 119.03 9.4 M66.55 69.77 C79.83 54.5, 93.11 39.22, 119.03 9.4 M87.81 69.71 C97.82 58.19, 107.83 46.67, 118.64 34.23 M87.81 69.71 C99.82 55.89, 111.83 42.07, 118.64 34.23" stroke="#15aabf" stroke-width="2" fill="none"></path><path d="M0 0 C23.34 0, 46.68 0, 108 0 M0 0 C36.69 0, 73.37 0, 108 0 M108 0 C108 23.3, 108 46.6, 108 67 M108 0 C108 15.48, 108 30.95, 108 67 M108 67 C84.64 67, 61.28 67, 0 67 M108 67 C77.04 67, 46.07 67, 0 67 M0 67 C0 48.16, 0 29.32, 0 0 M0 67 C0 41.24, 0 15.47, 0 0" stroke="#0b7285" stroke-width="4" fill="none"></path></g><g stroke-linecap="round"><g stroke-opacity="0.8" fill-opacity="0.8" transform="translate(63.000000000000114 62.5) rotate(0 92.00000000000006 0)"><path d="M0 0 C53.41 0, 106.82 0, 184 0 M0 0 C50.25 0, 100.49 0, 184 0" stroke="#f2aa74" stroke-width="4" fill="none"></path></g><g stroke-opacity="0.8" fill-opacity="0.8" transform="translate(63.000000000000114 62.5) rotate(0 92.00000000000006 0)"><path d="M0 -15 C0 -10.65, 0 -6.29, 0 0 M0 -15 C0 -10.9, 0 -6.81, 0 0" stroke="#f2aa74" stroke-width="4" fill="none"></path></g><g stroke-opacity="0.8" fill-opacity="0.8" transform="translate(63.000000000000114 62.5) rotate(0 92.00000000000006 0)"><path d="M0 15 C0 10.65, 0 6.29, 0 0 M0 15 C0 10.9, 0 6.81, 0 0" stroke="#f2aa74" stroke-width="4" fill="none"></path></g><g stroke-opacity="0.8" fill-opacity="0.8" transform="translate(63.000000000000114 62.5) rotate(0 92.00000000000006 0)"><path d="M184 15 C184 10.65, 184 6.29, 184 0 M184 15 C184 10.9, 184 6.81, 184 0" stroke="#f2aa74" stroke-width="4" fill="none"></path></g><g stroke-opacity="0.8" fill-opacity="0.8" transform="translate(63.000000000000114 62.5) rotate(0 92.00000000000006 0)"><path d="M184 -15 C184 -10.65, 184 -6.29, 184 0 M184 -15 C184 -10.9, 184 -6.81, 184 0" stroke="#f2aa74" stroke-width="4" fill="none"></path></g></g><g stroke-opacity="0.8" fill-opacity="0.8" transform="translate(81 10) rotate(0 75.5 18)"><text x="0" y="25" font-family="Virgil, Segoe UI Emoji" font-size="28px" fill="#f2aa74" text-anchor="start" style="white-space: pre;" direction="ltr">dimension 0</text></g><g stroke-opacity="0.8" fill-opacity="0.8" stroke-linecap="round" transform="translate(363.57142857142844 89.625) rotate(0 26.000000000000057 33.5)"><path d="M0 0 C0 0, 0 0, 0 0 M0 0 C0 0, 0 0, 0 0 M0.27 24.08 C6.56 16.84, 12.86 9.59, 21.26 -0.07 M0.27 24.08 C7.41 15.87, 14.55 7.65, 21.26 -0.07 M-0.12 48.92 C16.29 30.04, 32.71 11.15, 42.52 -0.14 M-0.12 48.92 C11.79 35.21, 23.7 21.51, 42.52 -0.14 M2.77 69.98 C16.71 53.94, 30.66 37.89, 58.53 5.83 M2.77 69.98 C19.56 50.67, 36.34 31.35, 58.53 5.83 M24.03 69.91 C33.63 58.87, 43.23 47.83, 58.8 29.91 M24.03 69.91 C37.04 54.94, 50.05 39.97, 58.8 29.91 M45.29 69.84 C48.77 65.84, 52.25 61.84, 58.41 54.75 M45.29 69.84 C48.13 66.57, 50.97 63.3, 58.41 54.75" stroke="#40c057" stroke-width="2" fill="none"></path><path d="M0 0 C13.06 0, 26.13 0, 52 0 M0 0 C20.33 0, 40.65 0, 52 0 M52 0 C52 25.99, 52 51.97, 52 67 M52 0 C52 23.4, 52 46.81, 52 67 M52 67 C35.08 67, 18.17 67, 0 67 M52 67 C40.25 67, 28.51 67, 0 67 M0 67 C0 43.49, 0 19.97, 0 0 M0 67 C0 41.45, 0 15.89, 0 0" stroke="#087f5b" stroke-width="4" fill="none"></path></g><g stroke-opacity="0.8" fill-opacity="0.8" stroke-linecap="round" transform="translate(435.2857142857142 89.625) rotate(0 54.000000000000114 33.5)"><path d="M0 0 C0 0, 0 0, 0 0 M0 0 C0 0, 0 0, 0 0 M0.27 24.08 C6.79 16.58, 13.31 9.08, 21.26 -0.07 M0.27 24.08 C8.56 14.55, 16.85 5.01, 21.26 -0.07 M-0.12 48.92 C10.08 37.18, 20.28 25.44, 42.52 -0.14 M-0.12 48.92 C10.86 36.28, 21.84 23.65, 42.52 -0.14 M2.77 69.98 C15.71 55.09, 28.65 40.2, 63.78 -0.21 M2.77 69.98 C19.5 50.73, 36.24 31.48, 63.78 -0.21 M24.03 69.91 C47.95 42.39, 71.87 14.88, 85.04 -0.28 M24.03 69.91 C38.26 53.53, 52.5 37.16, 85.04 -0.28 M45.29 69.84 C67.02 44.85, 88.75 19.85, 106.3 -0.34 M45.29 69.84 C61.36 51.36, 77.43 32.87, 106.3 -0.34 M66.55 69.77 C77.63 57.02, 88.72 44.27, 119.03 9.4 M66.55 69.77 C80.62 53.59, 94.69 37.4, 119.03 9.4 M87.81 69.71 C94.27 62.27, 100.74 54.83, 118.64 34.23 M87.81 69.71 C95.84 60.47, 103.86 51.23, 118.64 34.23" stroke="#15aabf" stroke-width="2" fill="none"></path><path d="M0 0 C26.86 0, 53.73 0, 108 0 M0 0 C33.71 0, 67.41 0, 108 0 M108 0 C108 26.73, 108 53.45, 108 67 M108 0 C108 21.1, 108 42.2, 108 67 M108 67 C70.84 67, 33.68 67, 0 67 M108 67 C82.55 67, 57.1 67, 0 67 M0 67 C0 52.88, 0 38.75, 0 0 M0 67 C0 41.84, 0 16.68, 0 0" stroke="#0b7285" stroke-width="4" fill="none"></path></g><g stroke-linecap="round"><g stroke-opacity="0.8" fill-opacity="0.8" transform="translate(357.0000000000001 62.5) rotate(0 92.00000000000006 0)"><path d="M0 0 C64.17 0, 128.33 0, 184 0 M0 0 C50.27 0, 100.54 0, 184 0" stroke="#f2aa74" stroke-width="4" fill="none"></path></g><g stroke-opacity="0.8" fill-opacity="0.8" transform="translate(357.0000000000001 62.5) rotate(0 92.00000000000006 0)"><path d="M0 -15 C0 -9.77, 0 -4.54, 0 0 M0 -15 C0 -10.9, 0 -6.8, 0 0" stroke="#f2aa74" stroke-width="4" fill="none"></path></g><g stroke-opacity="0.8" fill-opacity="0.8" transform="translate(357.0000000000001 62.5) rotate(0 92.00000000000006 0)"><path d="M0 15 C0 9.77, 0 4.54, 0 0 M0 15 C0 10.9, 0 6.8, 0 0" stroke="#f2aa74" stroke-width="4" fill="none"></path></g><g stroke-opacity="0.8" fill-opacity="0.8" transform="translate(357.0000000000001 62.5) rotate(0 92.00000000000006 0)"><path d="M184 15 C184 9.77, 184 4.54, 184 0 M184 15 C184 10.9, 184 6.8, 184 0" stroke="#f2aa74" stroke-width="4" fill="none"></path></g><g stroke-opacity="0.8" fill-opacity="0.8" transform="translate(357.0000000000001 62.5) rotate(0 92.00000000000006 0)"><path d="M184 -15 C184 -9.77, 184 -4.54, 184 0 M184 -15 C184 -10.9, 184 -6.8, 184 0" stroke="#f2aa74" stroke-width="4" fill="none"></path></g></g><g stroke-opacity="0.8" fill-opacity="0.8" transform="translate(364.9999999999999 10) rotate(0 86.50000000000006 18)"><text x="0" y="25" font-family="Virgil, Segoe UI Emoji" font-size="28px" fill="#f2aa74" text-anchor="start" style="white-space: pre;" direction="ltr">dimension D-1</text></g><g stroke-opacity="0.8" fill-opacity="0.8" stroke-linecap="round" transform="translate(262.42857142857144 116.125) rotate(0 7 7)"><path d="M2.24 1.94 C2.24 1.94, 2.24 1.94, 2.24 1.94 M2.24 1.94 C2.24 1.94, 2.24 1.94, 2.24 1.94" stroke="#f2aa74" stroke-width="2" fill="none"></path><path d="M7 0 C8.42 -0.09, 10.35 0.67, 11.5 1.64 C12.65 2.6, 13.63 4.31, 13.89 5.78 C14.15 7.26, 13.81 9.2, 13.06 10.5 C12.31 11.8, 10.8 13.06, 9.39 13.58 C7.98 14.09, 6.02 14.09, 4.61 13.58 C3.2 13.06, 1.69 11.8, 0.94 10.5 C0.19 9.2, -0.15 7.26, 0.11 5.78 C0.37 4.31, 1.35 2.6, 2.5 1.64 C3.65 0.67, 6.25 0.25, 7 0 C7.75 -0.25, 7 0.02, 7 0.14 M7 0 C8.42 -0.09, 10.35 0.67, 11.5 1.64 C12.65 2.6, 13.63 4.31, 13.89 5.78 C14.15 7.26, 13.81 9.2, 13.06 10.5 C12.31 11.8, 10.8 13.06, 9.39 13.58 C7.98 14.09, 6.02 14.09, 4.61 13.58 C3.2 13.06, 1.69 11.8, 0.94 10.5 C0.19 9.2, -0.15 7.26, 0.11 5.78 C0.37 4.31, 1.35 2.6, 2.5 1.64 C3.65 0.67, 6.25 0.25, 7 0 C7.75 -0.25, 7 0.02, 7 0.14" stroke="#f2aa74" stroke-width="4" fill="none"></path></g><g stroke-opacity="0.8" fill-opacity="0.8" stroke-linecap="round" transform="translate(296.1428571428571 116.125) rotate(0 7 7)"><path d="M2.24 1.94 C2.24 1.94, 2.24 1.94, 2.24 1.94 M2.24 1.94 C2.24 1.94, 2.24 1.94, 2.24 1.94" stroke="#f2aa74" stroke-width="2" fill="none"></path><path d="M7 0 C8.42 -0.09, 10.35 0.67, 11.5 1.64 C12.65 2.6, 13.63 4.31, 13.89 5.78 C14.15 7.26, 13.81 9.2, 13.06 10.5 C12.31 11.8, 10.8 13.06, 9.39 13.58 C7.98 14.09, 6.02 14.09, 4.61 13.58 C3.2 13.06, 1.69 11.8, 0.94 10.5 C0.19 9.2, -0.15 7.26, 0.11 5.78 C0.37 4.31, 1.35 2.6, 2.5 1.64 C3.65 0.67, 6.25 0.25, 7 0 C7.75 -0.25, 7 0.02, 7 0.14 M7 0 C8.42 -0.09, 10.35 0.67, 11.5 1.64 C12.65 2.6, 13.63 4.31, 13.89 5.78 C14.15 7.26, 13.81 9.2, 13.06 10.5 C12.31 11.8, 10.8 13.06, 9.39 13.58 C7.98 14.09, 6.02 14.09, 4.61 13.58 C3.2 13.06, 1.69 11.8, 0.94 10.5 C0.19 9.2, -0.15 7.26, 0.11 5.78 C0.37 4.31, 1.35 2.6, 2.5 1.64 C3.65 0.67, 6.25 0.25, 7 0 C7.75 -0.25, 7 0.02, 7 0.14" stroke="#f2aa74" stroke-width="4" fill="none"></path></g><g stroke-opacity="0.8" fill-opacity="0.8" stroke-linecap="round" transform="translate(329.8571428571428 116.125) rotate(0 7 7)"><path d="M2.24 1.94 C2.24 1.94, 2.24 1.94, 2.24 1.94 M2.24 1.94 C2.24 1.94, 2.24 1.94, 2.24 1.94" stroke="#f2aa74" stroke-width="2" fill="none"></path><path d="M7 0 C8.42 -0.09, 10.35 0.67, 11.5 1.64 C12.65 2.6, 13.63 4.31, 13.89 5.78 C14.15 7.26, 13.81 9.2, 13.06 10.5 C12.31 11.8, 10.8 13.06, 9.39 13.58 C7.98 14.09, 6.02 14.09, 4.61 13.58 C3.2 13.06, 1.69 11.8, 0.94 10.5 C0.19 9.2, -0.15 7.26, 0.11 5.78 C0.37 4.31, 1.35 2.6, 2.5 1.64 C3.65 0.67, 6.25 0.25, 7 0 C7.75 -0.25, 7 0.02, 7 0.14 M7 0 C8.42 -0.09, 10.35 0.67, 11.5 1.64 C12.65 2.6, 13.63 4.31, 13.89 5.78 C14.15 7.26, 13.81 9.2, 13.06 10.5 C12.31 11.8, 10.8 13.06, 9.39 13.58 C7.98 14.09, 6.02 14.09, 4.61 13.58 C3.2 13.06, 1.69 11.8, 0.94 10.5 C0.19 9.2, -0.15 7.26, 0.11 5.78 C0.37 4.31, 1.35 2.6, 2.5 1.64 C3.65 0.67, 6.25 0.25, 7 0 C7.75 -0.25, 7 0.02, 7 0.14" stroke="#f2aa74" stroke-width="4" fill="none"></path></g><g stroke-opacity="0.8" fill-opacity="0.8" stroke-linecap="round" transform="translate(563 89.625) rotate(0 228.5 33.5)"><path d="M0 0 C0 0, 0 0, 0 0 M0 0 C0 0, 0 0, 0 0 M0.27 24.08 C7.23 16.08, 14.18 8.07, 21.26 -0.07 M0.27 24.08 C5.22 18.38, 10.18 12.68, 21.26 -0.07 M-0.12 48.92 C9.4 37.96, 18.92 27.01, 42.52 -0.14 M-0.12 48.92 C9.47 37.89, 19.06 26.86, 42.52 -0.14 M2.77 69.98 C17.83 52.66, 32.89 35.33, 63.78 -0.21 M2.77 69.98 C22.9 46.82, 43.04 23.65, 63.78 -0.21 M24.03 69.91 C39.81 51.75, 55.6 33.59, 85.04 -0.28 M24.03 69.91 C36.27 55.83, 48.52 41.74, 85.04 -0.28 M45.29 69.84 C65.12 47.03, 84.96 24.21, 106.3 -0.34 M45.29 69.84 C60.36 52.5, 75.43 35.17, 106.3 -0.34 M66.55 69.77 C88.01 45.09, 109.47 20.4, 126.91 0.34 M66.55 69.77 C81.99 52.01, 97.44 34.24, 126.91 0.34 M87.81 69.71 C102.16 53.19, 116.51 36.68, 148.17 0.27 M87.81 69.71 C106.3 48.43, 124.8 27.15, 148.17 0.27 M109.07 69.64 C125.49 50.75, 141.9 31.86, 169.43 0.2 M109.07 69.64 C132.35 42.86, 155.63 16.07, 169.43 0.2 M130.33 69.57 C148.74 48.39, 167.15 27.21, 190.69 0.13 M130.33 69.57 C148.69 48.44, 167.06 27.31, 190.69 0.13 M151.59 69.5 C173.61 44.17, 195.63 18.83, 211.95 0.06 M151.59 69.5 C170.41 47.84, 189.24 26.18, 211.95 0.06 M172.85 69.43 C196.69 42, 220.54 14.56, 233.21 0 M172.85 69.43 C185.71 54.63, 198.58 39.83, 233.21 0 M194.11 69.36 C211.56 49.28, 229.02 29.2, 254.47 -0.07 M194.11 69.36 C217.22 42.77, 240.33 16.19, 254.47 -0.07 M215.37 69.29 C228.95 53.67, 242.52 38.05, 275.73 -0.14 M215.37 69.29 C232.4 49.7, 249.43 30.11, 275.73 -0.14 M235.97 69.98 C254.2 49.01, 272.42 28.05, 296.99 -0.21 M235.97 69.98 C252.67 50.77, 269.36 31.57, 296.99 -0.21 M257.23 69.91 C273.09 51.67, 288.95 33.43, 318.25 -0.28 M257.23 69.91 C277.8 46.25, 298.36 22.59, 318.25 -0.28 M278.49 69.84 C299.56 45.6, 320.63 21.36, 339.51 -0.35 M278.49 69.84 C295.91 49.8, 313.33 29.77, 339.51 -0.35 M299.75 69.77 C312.65 54.94, 325.54 40.1, 360.11 0.34 M299.75 69.77 C316.66 50.32, 333.57 30.87, 360.11 0.34 M321.01 69.7 C343.92 43.35, 366.83 16.99, 381.37 0.27 M321.01 69.7 C335.9 52.58, 350.78 35.46, 381.37 0.27 M342.27 69.63 C363.3 45.44, 384.33 21.25, 402.63 0.2 M342.27 69.63 C365.82 42.54, 389.37 15.45, 402.63 0.2 M363.53 69.56 C378.64 52.18, 393.75 34.8, 423.89 0.13 M363.53 69.56 C376.3 54.88, 389.07 40.19, 423.89 0.13 M384.79 69.49 C407.41 43.47, 430.03 17.45, 445.15 0.06 M384.79 69.49 C398.23 54.04, 411.66 38.59, 445.15 0.06 M406.05 69.42 C417.61 56.13, 429.17 42.83, 462.48 4.52 M406.05 69.42 C426.45 45.96, 446.85 22.49, 462.48 4.52 M427.31 69.36 C439.55 55.28, 451.78 41.21, 462.09 29.36 M427.31 69.36 C438.07 56.99, 448.82 44.62, 462.09 29.36 M448.57 69.29 C453.94 63.12, 459.3 56.95, 462.35 53.44 M448.57 69.29 C452.77 64.46, 456.96 59.64, 462.35 53.44" stroke="#7950f2" stroke-width="2" fill="none"></path><path d="M0 0 C173.28 0, 346.56 0, 457 0 M0 0 C100.37 0, 200.75 0, 457 0 M457 0 C457 23.15, 457 46.29, 457 67 M457 0 C457 14.86, 457 29.72, 457 67 M457 67 C321.86 67, 186.72 67, 0 67 M457 67 C291.03 67, 125.06 67, 0 67 M0 67 C0 49.85, 0 32.71, 0 0 M0 67 C0 52.12, 0 37.24, 0 0" stroke="#862e9c" stroke-width="4" fill="none"></path></g><g stroke-linecap="round"><g stroke-opacity="0.8" fill-opacity="0.8" transform="translate(566 62.5) rotate(0 226.9999999999999 0)"><path d="M0 0 C107.96 0, 215.93 0, 454 0 M0 0 C139.12 0, 278.25 0, 454 0" stroke="#f2aa74" stroke-width="4" fill="none"></path></g><g stroke-opacity="0.8" fill-opacity="0.8" transform="translate(566 62.5) rotate(0 226.9999999999999 0)"><path d="M0 -15 C0 -11.43, 0 -7.87, 0 0 M0 -15 C0 -10.4, 0 -5.81, 0 0" stroke="#f2aa74" stroke-width="4" fill="none"></path></g><g stroke-opacity="0.8" fill-opacity="0.8" transform="translate(566 62.5) rotate(0 226.9999999999999 0)"><path d="M0 15 C0 11.43, 0 7.87, 0 0 M0 15 C0 10.4, 0 5.81, 0 0" stroke="#f2aa74" stroke-width="4" fill="none"></path></g><g stroke-opacity="0.8" fill-opacity="0.8" transform="translate(566 62.5) rotate(0 226.9999999999999 0)"><path d="M454 15 C454 11.43, 454 7.87, 454 0 M454 15 C454 10.4, 454 5.81, 454 0" stroke="#f2aa74" stroke-width="4" fill="none"></path></g><g stroke-opacity="0.8" fill-opacity="0.8" transform="translate(566 62.5) rotate(0 226.9999999999999 0)"><path d="M454 -15 C454 -11.43, 454 -7.87, 454 0 M454 -15 C454 -10.4, 454 -5.81, 454 0" stroke="#f2aa74" stroke-width="4" fill="none"></path></g></g><g stroke-opacity="0.8" fill-opacity="0.8" transform="translate(653.5 10) rotate(0 139.5 18)"><text x="0" y="25" font-family="Virgil, Segoe UI Emoji" font-size="28px" fill="#f2aa74" text-anchor="start" style="white-space: pre;" direction="ltr">1d/2d sample arrays</text></g><g stroke-opacity="0.8" fill-opacity="0.8" stroke-linecap="round" transform="translate(349.5 368.6875) rotate(0 111.5 33.5)"><path d="M0 0 C0 0, 0 0, 0 0 M0 0 C0 0, 0 0, 0 0 M0.27 24.08 C5.04 18.59, 9.81 13.1, 21.26 -0.07 M0.27 24.08 C5.38 18.2, 10.48 12.33, 21.26 -0.07 M-0.12 48.92 C15.95 30.43, 32.02 11.94, 42.52 -0.14 M-0.12 48.92 C10.93 36.2, 21.99 23.48, 42.52 -0.14 M2.77 69.98 C18.09 52.36, 33.41 34.73, 63.78 -0.21 M2.77 69.98 C20.67 49.39, 38.56 28.8, 63.78 -0.21 M24.03 69.91 C44.37 46.51, 64.71 23.11, 85.04 -0.28 M24.03 69.91 C43.72 47.26, 63.42 24.6, 85.04 -0.28 M45.29 69.84 C59.45 53.55, 73.61 37.26, 106.3 -0.34 M45.29 69.84 C64.83 47.37, 84.36 24.89, 106.3 -0.34 M66.55 69.77 C79.51 54.86, 92.47 39.95, 126.91 0.34 M66.55 69.77 C88.83 44.14, 111.12 18.5, 126.91 0.34 M87.81 69.71 C102.45 52.86, 117.1 36.01, 148.17 0.27 M87.81 69.71 C104.72 50.25, 121.63 30.8, 148.17 0.27 M109.07 69.64 C127.48 48.46, 145.89 27.28, 169.43 0.2 M109.07 69.64 C127.51 48.42, 145.96 27.2, 169.43 0.2 M130.33 69.57 C145.63 51.96, 160.93 34.36, 190.69 0.13 M130.33 69.57 C151.81 44.85, 173.3 20.14, 190.69 0.13 M151.59 69.5 C171.91 46.12, 192.23 22.75, 211.95 0.06 M151.59 69.5 C170.62 47.61, 189.65 25.71, 211.95 0.06 M172.85 69.43 C185.89 54.42, 198.94 39.41, 228.61 5.28 M172.85 69.43 C187.17 52.95, 201.49 36.48, 228.61 5.28 M194.11 69.36 C207.69 53.74, 221.27 38.11, 228.88 29.36 M194.11 69.36 C206.57 55.02, 219.04 40.68, 228.88 29.36 M215.37 69.29 C218.67 65.49, 221.97 61.7, 228.49 54.2 M215.37 69.29 C219.55 64.48, 223.73 59.67, 228.49 54.2 M0.03 67.03 C0.03 67.03, 0.03 67.03, 0.03 67.03 M0.03 67.03 C0.03 67.03, 0.03 67.03, 0.03 67.03 M24.11 66.76 C15.12 58.94, 6.13 51.12, -0.04 45.77 M24.11 66.76 C19.19 62.48, 14.26 58.2, -0.04 45.77 M48.95 67.15 C37.6 57.29, 26.26 47.43, -0.1 24.51 M48.95 67.15 C35.78 55.7, 22.61 44.25, -0.1 24.51 M73.03 66.89 C46.59 43.9, 20.16 20.92, -0.17 3.25 M73.03 66.89 C58.27 54.05, 43.5 41.22, -0.17 3.25 M97.87 67.28 C78.09 50.08, 58.3 32.88, 8.81 -10.14 M97.87 67.28 C76.65 48.83, 55.43 30.38, 8.81 -10.14 M121.95 67.01 C88.06 37.54, 54.16 8.08, 32.9 -10.41 M121.95 67.01 C92.8 41.67, 63.65 16.33, 32.9 -10.41 M146.03 66.74 C124.54 48.06, 103.05 29.38, 57.73 -10.02 M146.03 66.74 C124.18 47.74, 102.32 28.75, 57.73 -10.02 M170.87 67.13 C144.84 44.51, 118.82 21.88, 81.81 -10.28 M170.87 67.13 C151.01 49.87, 131.15 32.6, 81.81 -10.28 M194.95 66.87 C175.68 50.12, 156.42 33.37, 106.65 -9.89 M194.95 66.87 C173.84 48.52, 152.73 30.17, 106.65 -9.89 M219.79 67.26 C188.09 39.7, 156.4 12.15, 130.73 -10.16 M219.79 67.26 C196.86 47.32, 173.93 27.39, 130.73 -10.16 M231.79 56.49 C215.01 41.9, 198.22 27.31, 154.81 -10.42 M231.79 56.49 C206.21 34.25, 180.62 12.01, 154.81 -10.42 M231.72 35.23 C214.55 20.3, 197.37 5.37, 179.65 -10.03 M231.72 35.23 C219.96 25.01, 208.2 14.78, 179.65 -10.03 M231.66 13.97 C221.52 5.16, 211.38 -3.65, 203.73 -10.3 M231.66 13.97 C222.62 6.12, 213.59 -1.73, 203.73 -10.3" stroke="#ced4da" stroke-width="2" fill="none"></path><path d="M0 0 C54.01 0, 108.02 0, 223 0 M0 0 C76.95 0, 153.89 0, 223 0 M223 0 C223 17.03, 223 34.06, 223 67 M223 0 C223 25.61, 223 51.22, 223 67 M223 67 C146.24 67, 69.47 67, 0 67 M223 67 C170.38 67, 117.77 67, 0 67 M0 67 C0 47.78, 0 28.57, 0 0 M0 67 C0 44.17, 0 21.35, 0 0" stroke="#ffffff" stroke-width="4" fill="none"></path></g><g stroke-linecap="round"><g stroke-opacity="0.8" fill-opacity="0.8" transform="translate(49.000000000000114 237.1875) rotate(0 29.5 56.5)"><path d="M0 0 C21.52 41.22, 43.04 82.44, 59 113" stroke="#f2aa74" stroke-width="4.5" fill="none" stroke-dasharray="8 12"></path></g></g><g stroke-linecap="round"><g stroke-opacity="0.8" fill-opacity="0.8" transform="translate(1022 238.1875) rotate(0 -343.99999999999994 58.5)"><path d="M0 0 C-141.77 24.11, -283.55 48.22, -688 117" stroke="#f2aa74" stroke-width="4.5" fill="none" stroke-dasharray="8 12"></path></g></g><g stroke-opacity="0.8" fill-opacity="0.8" stroke-linecap="round" transform="translate(596.5 369.6875) rotate(0 111.5 33.5)"><path d="M0 0 C0 0, 0 0, 0 0 M0 0 C0 0, 0 0, 0 0 M0.27 24.08 C8.26 14.89, 16.25 5.7, 21.26 -0.07 M0.27 24.08 C7.14 16.18, 14.01 8.27, 21.26 -0.07 M-0.12 48.92 C10.26 36.98, 20.64 25.04, 42.52 -0.14 M-0.12 48.92 C10.43 36.78, 20.99 24.63, 42.52 -0.14 M2.77 69.98 C20.6 49.47, 38.43 28.96, 63.78 -0.21 M2.77 69.98 C16.37 54.33, 29.98 38.67, 63.78 -0.21 M24.03 69.91 C37.34 54.6, 50.65 39.28, 85.04 -0.28 M24.03 69.91 C38.61 53.13, 53.2 36.35, 85.04 -0.28 M45.29 69.84 C67 44.86, 88.72 19.88, 106.3 -0.34 M45.29 69.84 C61 51.77, 76.71 33.7, 106.3 -0.34 M66.55 69.77 C79.71 54.63, 92.87 39.49, 126.91 0.34 M66.55 69.77 C86.61 46.69, 106.67 23.61, 126.91 0.34 M87.81 69.71 C107.72 46.8, 127.62 23.9, 148.17 0.27 M87.81 69.71 C101.44 54.02, 115.08 38.34, 148.17 0.27 M109.07 69.64 C130.98 44.43, 152.89 19.22, 169.43 0.2 M109.07 69.64 C128.6 47.17, 148.13 24.71, 169.43 0.2 M130.33 69.57 C152.71 43.82, 175.09 18.08, 190.69 0.13 M130.33 69.57 C145.42 52.2, 160.52 34.84, 190.69 0.13 M151.59 69.5 C171 47.17, 190.4 24.84, 211.95 0.06 M151.59 69.5 C174.83 42.76, 198.08 16.02, 211.95 0.06 M172.85 69.43 C191.47 48.01, 210.08 26.59, 228.61 5.28 M172.85 69.43 C188.38 51.57, 203.91 33.7, 228.61 5.28 M194.11 69.36 C201.43 60.94, 208.74 52.52, 228.88 29.36 M194.11 69.36 C206.84 54.71, 219.57 40.07, 228.88 29.36 M215.37 69.29 C218.95 65.17, 222.53 61.06, 228.49 54.2 M215.37 69.29 C220.43 63.47, 225.5 57.64, 228.49 54.2 M0.03 67.03 C0.03 67.03, 0.03 67.03, 0.03 67.03 M0.03 67.03 C0.03 67.03, 0.03 67.03, 0.03 67.03 M24.11 66.76 C15.92 59.64, 7.73 52.52, -0.04 45.77 M24.11 66.76 C17.5 61.01, 10.89 55.26, -0.04 45.77 M48.95 67.15 C34.77 54.83, 20.59 42.5, -0.1 24.51 M48.95 67.15 C35.88 55.79, 22.82 44.43, -0.1 24.51 M73.03 66.89 C52.23 48.81, 31.43 30.72, -0.17 3.25 M73.03 66.89 C45.91 43.31, 18.79 19.73, -0.17 3.25 M97.87 67.28 C75.18 47.56, 52.5 27.84, 8.81 -10.14 M97.87 67.28 C65.22 38.9, 32.58 10.52, 8.81 -10.14 M121.95 67.01 C90.24 39.44, 58.53 11.88, 32.9 -10.41 M121.95 67.01 C92.53 41.44, 63.11 15.86, 32.9 -10.41 M146.03 66.74 C119.31 43.51, 92.59 20.28, 57.73 -10.02 M146.03 66.74 C115.26 39.99, 84.48 13.24, 57.73 -10.02 M170.87 67.13 C152.83 51.45, 134.8 35.78, 81.81 -10.28 M170.87 67.13 C141.07 41.23, 111.27 15.33, 81.81 -10.28 M194.95 66.87 C169.18 44.46, 143.41 22.06, 106.65 -9.89 M194.95 66.87 C164.56 40.45, 134.16 14.03, 106.65 -9.89 M219.79 67.26 C186.91 38.67, 154.03 10.09, 130.73 -10.16 M219.79 67.26 C184.97 36.99, 150.15 6.72, 130.73 -10.16 M231.79 56.49 C206.4 34.42, 181.01 12.34, 154.81 -10.42 M231.79 56.49 C203.92 32.26, 176.05 8.03, 154.81 -10.42 M231.72 35.23 C221.29 26.16, 210.86 17.09, 179.65 -10.03 M231.72 35.23 C219.55 24.65, 207.37 14.06, 179.65 -10.03 M231.66 13.97 C224.04 7.36, 216.43 0.74, 203.73 -10.3 M231.66 13.97 C220.84 4.57, 210.03 -4.83, 203.73 -10.3" stroke="#ced4da" stroke-width="2" fill="none"></path><path d="M0 0 C88.35 0, 176.7 0, 223 0 M0 0 C60.62 0, 121.25 0, 223 0 M223 0 C223 24.95, 223 49.91, 223 67 M223 0 C223 13.67, 223 27.34, 223 67 M223 67 C171.42 67, 119.84 67, 0 67 M223 67 C163.12 67, 103.24 67, 0 67 M0 67 C0 42.8, 0 18.61, 0 0 M0 67 C0 53.49, 0 39.97, 0 0" stroke="#ffffff" stroke-width="4" fill="none"></path></g><g stroke-opacity="0.8" fill-opacity="0.8" stroke-linecap="round" transform="translate(838.5 369.6875) rotate(0 111.5 33.5)"><path d="M0 0 C0 0, 0 0, 0 0 M0 0 C0 0, 0 0, 0 0 M0.27 24.08 C8.09 15.08, 15.91 6.08, 21.26 -0.07 M0.27 24.08 C7.45 15.81, 14.64 7.55, 21.26 -0.07 M-0.12 48.92 C11.79 35.21, 23.71 21.5, 42.52 -0.14 M-0.12 48.92 C10.15 37.1, 20.42 25.29, 42.52 -0.14 M2.77 69.98 C15.52 55.31, 28.28 40.64, 63.78 -0.21 M2.77 69.98 C16.25 54.47, 29.73 38.96, 63.78 -0.21 M24.03 69.91 C41.87 49.38, 59.72 28.86, 85.04 -0.28 M24.03 69.91 C36.49 55.58, 48.95 41.24, 85.04 -0.28 M45.29 69.84 C66.46 45.49, 87.63 21.13, 106.3 -0.34 M45.29 69.84 C59.37 53.64, 73.46 37.44, 106.3 -0.34 M66.55 69.77 C84.15 49.53, 101.74 29.28, 126.91 0.34 M66.55 69.77 C90.32 42.43, 114.09 15.08, 126.91 0.34 M87.81 69.71 C103.64 51.49, 119.47 33.28, 148.17 0.27 M87.81 69.71 C104.34 50.69, 120.88 31.67, 148.17 0.27 M109.07 69.64 C122.85 53.79, 136.62 37.94, 169.43 0.2 M109.07 69.64 C125.57 50.65, 142.07 31.67, 169.43 0.2 M130.33 69.57 C148.86 48.24, 167.4 26.92, 190.69 0.13 M130.33 69.57 C145.46 52.16, 160.6 34.75, 190.69 0.13 M151.59 69.5 C174.56 43.07, 197.53 16.65, 211.95 0.06 M151.59 69.5 C166.98 51.79, 182.37 34.09, 211.95 0.06 M172.85 69.43 C184.58 55.94, 196.3 42.45, 228.61 5.28 M172.85 69.43 C192.93 46.33, 213.01 23.22, 228.61 5.28 M194.11 69.36 C202.91 59.23, 211.72 49.1, 228.88 29.36 M194.11 69.36 C207.99 53.39, 221.88 37.41, 228.88 29.36 M215.37 69.29 C220.32 63.6, 225.27 57.9, 228.49 54.2 M215.37 69.29 C220.61 63.26, 225.85 57.23, 228.49 54.2 M0.03 67.03 C0.03 67.03, 0.03 67.03, 0.03 67.03 M0.03 67.03 C0.03 67.03, 0.03 67.03, 0.03 67.03 M24.11 66.76 C14.7 58.58, 5.28 50.39, -0.04 45.77 M24.11 66.76 C17.73 61.21, 11.34 55.66, -0.04 45.77 M48.95 67.15 C33.72 53.91, 18.49 40.68, -0.1 24.51 M48.95 67.15 C36.16 56.03, 23.36 44.91, -0.1 24.51 M73.03 66.89 C50.56 47.35, 28.09 27.82, -0.17 3.25 M73.03 66.89 C54.77 51.01, 36.5 35.13, -0.17 3.25 M97.87 67.28 C67.85 41.18, 37.82 15.08, 8.81 -10.14 M97.87 67.28 C76.37 48.59, 54.87 29.9, 8.81 -10.14 M121.95 67.01 C89.6 38.89, 57.25 10.76, 32.9 -10.41 M121.95 67.01 C91.04 40.14, 60.13 13.27, 32.9 -10.41 M146.03 66.74 C113.52 38.48, 81.01 10.22, 57.73 -10.02 M146.03 66.74 C118.52 42.83, 91.01 18.91, 57.73 -10.02 M170.87 67.13 C146.77 46.19, 122.68 25.24, 81.81 -10.28 M170.87 67.13 C139.85 40.17, 108.83 13.2, 81.81 -10.28 M194.95 66.87 C164.84 40.69, 134.73 14.52, 106.65 -9.89 M194.95 66.87 C170.75 45.83, 146.55 24.79, 106.65 -9.89 M219.79 67.26 C191.55 42.71, 163.31 18.16, 130.73 -10.16 M219.79 67.26 C189.26 40.72, 158.73 14.18, 130.73 -10.16 M231.79 56.49 C214.89 41.8, 197.99 27.11, 154.81 -10.42 M231.79 56.49 C202.52 31.05, 173.25 5.6, 154.81 -10.42 M231.72 35.23 C217.79 23.12, 203.86 11.01, 179.65 -10.03 M231.72 35.23 C220.35 25.35, 208.98 15.46, 179.65 -10.03 M231.66 13.97 C223.43 6.83, 215.21 -0.32, 203.73 -10.3 M231.66 13.97 C225.24 8.4, 218.83 2.82, 203.73 -10.3" stroke="#ced4da" stroke-width="2" fill="none"></path><path d="M0 0 C53.68 0, 107.35 0, 223 0 M0 0 C88.45 0, 176.89 0, 223 0 M223 0 C223 19.06, 223 38.12, 223 67 M223 0 C223 24.3, 223 48.6, 223 67 M223 67 C169.77 67, 116.55 67, 0 67 M223 67 C160.64 67, 98.27 67, 0 67 M0 67 C0 44.31, 0 21.62, 0 0 M0 67 C0 40.78, 0 14.57, 0 0" stroke="#ffffff" stroke-width="4" fill="none"></path></g><g stroke-opacity="0.8" fill-opacity="0.8" stroke-linecap="round" transform="translate(110.50000000000011 369.6875) rotate(0 111.49999999999994 33.5)"><path d="M0 0 C0 0, 0 0, 0 0 M0 0 C0 0, 0 0, 0 0 M0.27 24.08 C7.68 15.55, 15.09 7.03, 21.26 -0.07 M0.27 24.08 C7.26 16.04, 14.24 8, 21.26 -0.07 M-0.12 48.92 C15.46 31, 31.04 13.07, 42.52 -0.14 M-0.12 48.92 C12.81 34.04, 25.75 19.16, 42.52 -0.14 M2.77 69.98 C22.27 47.55, 41.77 25.12, 63.78 -0.21 M2.77 69.98 C26.67 42.48, 50.57 14.99, 63.78 -0.21 M24.03 69.91 C42.17 49.04, 60.31 28.17, 85.04 -0.28 M24.03 69.91 C36.75 55.28, 49.47 40.64, 85.04 -0.28 M45.29 69.84 C61.33 51.38, 77.38 32.92, 106.3 -0.34 M45.29 69.84 C65.76 46.29, 86.24 22.73, 106.3 -0.34 M66.55 69.77 C89.45 43.43, 112.35 17.08, 126.91 0.34 M66.55 69.77 C88.35 44.69, 110.16 19.61, 126.91 0.34 M87.81 69.71 C101.32 54.17, 114.82 38.63, 148.17 0.27 M87.81 69.71 C100.74 54.83, 113.66 39.96, 148.17 0.27 M109.07 69.64 C127.35 48.6, 145.64 27.57, 169.43 0.2 M109.07 69.64 C133.09 42, 157.11 14.37, 169.43 0.2 M130.33 69.57 C146.57 50.88, 162.82 32.19, 190.69 0.13 M130.33 69.57 C149.98 46.96, 169.63 24.35, 190.69 0.13 M151.59 69.5 C165.81 53.13, 180.04 36.77, 211.95 0.06 M151.59 69.5 C172.93 44.95, 194.27 20.4, 211.95 0.06 M172.85 69.43 C194.74 44.24, 216.64 19.05, 228.61 5.28 M172.85 69.43 C190.49 49.13, 208.14 28.84, 228.61 5.28 M194.11 69.36 C205.31 56.47, 216.52 43.58, 228.88 29.36 M194.11 69.36 C206.67 54.91, 219.22 40.47, 228.88 29.36 M215.37 69.29 C218.18 66.05, 221 62.81, 228.49 54.2 M215.37 69.29 C219.06 65.04, 222.76 60.79, 228.49 54.2 M0.03 67.03 C0.03 67.03, 0.03 67.03, 0.03 67.03 M0.03 67.03 C0.03 67.03, 0.03 67.03, 0.03 67.03 M24.11 66.76 C17.31 60.85, 10.51 54.93, -0.04 45.77 M24.11 66.76 C17.73 61.21, 11.34 55.65, -0.04 45.77 M48.95 67.15 C38.3 57.89, 27.65 48.64, -0.1 24.51 M48.95 67.15 C31.39 51.89, 13.83 36.62, -0.1 24.51 M73.03 66.89 C46.13 43.5, 19.22 20.11, -0.17 3.25 M73.03 66.89 C46.88 44.15, 20.72 21.41, -0.17 3.25 M97.87 67.28 C71.4 44.27, 44.93 21.26, 8.81 -10.14 M97.87 67.28 C79.54 51.34, 61.2 35.4, 8.81 -10.14 M121.95 67.01 C88.83 38.22, 55.72 9.43, 32.9 -10.41 M121.95 67.01 C86.33 36.05, 50.71 5.08, 32.9 -10.41 M146.03 66.74 C121.79 45.67, 97.55 24.6, 57.73 -10.02 M146.03 66.74 C126.31 49.6, 106.59 32.46, 57.73 -10.02 M170.87 67.13 C151.17 50.01, 131.47 32.88, 81.81 -10.28 M170.87 67.13 C145.81 45.35, 120.75 23.56, 81.81 -10.28 M194.95 66.87 C170.55 45.66, 146.15 24.44, 106.65 -9.89 M194.95 66.87 C165.3 41.09, 135.64 15.31, 106.65 -9.89 M219.79 67.26 C186.96 38.72, 154.14 10.19, 130.73 -10.16 M219.79 67.26 C198.52 48.77, 177.26 30.29, 130.73 -10.16 M231.79 56.49 C215.9 42.68, 200.01 28.87, 154.81 -10.42 M231.79 56.49 C203.52 31.92, 175.25 7.34, 154.81 -10.42 M231.72 35.23 C216.43 21.94, 201.14 8.64, 179.65 -10.03 M231.72 35.23 C213.1 19.04, 194.48 2.85, 179.65 -10.03 M231.66 13.97 C224.81 8.02, 217.96 2.07, 203.73 -10.3 M231.66 13.97 C222.16 5.72, 212.67 -2.53, 203.73 -10.3" stroke="#ced4da" stroke-width="2" fill="none"></path><path d="M0 0 C45.65 0, 91.3 0, 223 0 M0 0 C86.01 0, 172.01 0, 223 0 M223 0 C223 21.52, 223 43.03, 223 67 M223 0 C223 21.03, 223 42.05, 223 67 M223 67 C140.73 67, 58.45 67, 0 67 M223 67 C160.07 67, 97.13 67, 0 67 M0 67 C0 50.29, 0 33.58, 0 0 M0 67 C0 49.72, 0 32.44, 0 0" stroke="#ffffff" stroke-width="4" fill="none"></path></g><g stroke-opacity="0.8" fill-opacity="0.8" stroke-linecap="round" transform="translate(15.500000000000114 368.6875) rotate(0 40.49999999999994 33.5)"><path d="M0 0 C0 0, 0 0, 0 0 M0 0 C0 0, 0 0, 0 0 M0.27 24.08 C8.34 14.8, 16.41 5.52, 21.26 -0.07 M0.27 24.08 C8.21 14.94, 16.16 5.8, 21.26 -0.07 M-0.12 48.92 C11.58 35.46, 23.28 22, 42.52 -0.14 M-0.12 48.92 C11.98 35, 24.08 21.08, 42.52 -0.14 M2.77 69.98 C26.45 42.73, 50.14 15.48, 63.78 -0.21 M2.77 69.98 C26.47 42.72, 50.17 15.45, 63.78 -0.21 M24.03 69.91 C38.13 53.69, 52.23 37.47, 83.07 1.99 M24.03 69.91 C43.56 47.45, 63.09 24.98, 83.07 1.99 M45.29 69.84 C58.73 54.38, 72.17 38.92, 83.34 26.07 M45.29 69.84 C56.3 57.18, 67.31 44.51, 83.34 26.07 M66.55 69.77 C72.92 62.45, 79.29 55.12, 82.95 50.91 M66.55 69.77 C70.12 65.66, 73.7 61.55, 82.95 50.91 M0.03 67.03 C0.03 67.03, 0.03 67.03, 0.03 67.03 M0.03 67.03 C0.03 67.03, 0.03 67.03, 0.03 67.03 M24.11 66.76 C17.09 60.65, 10.06 54.55, -0.04 45.77 M24.11 66.76 C14.93 58.78, 5.75 50.8, -0.04 45.77 M48.95 67.15 C31.21 51.73, 13.46 36.3, -0.1 24.51 M48.95 67.15 C33.99 54.14, 19.02 41.13, -0.1 24.51 M73.03 66.89 C51.73 48.37, 30.42 29.85, -0.17 3.25 M73.03 66.89 C47.35 44.56, 21.66 22.23, -0.17 3.25 M88.06 58.75 C70.7 43.65, 53.33 28.56, 8.81 -10.14 M88.06 58.75 C59.42 33.85, 30.79 8.96, 8.81 -10.14 M87.99 37.49 C76.44 27.45, 64.89 17.41, 32.9 -10.41 M87.99 37.49 C73.58 24.96, 59.17 12.44, 32.9 -10.41 M87.92 16.23 C79.91 9.26, 71.89 2.29, 57.73 -10.02 M87.92 16.23 C76.09 5.95, 64.27 -4.33, 57.73 -10.02" stroke="#7950f2" stroke-width="2" fill="none"></path><path d="M0 0 C29.28 0, 58.56 0, 81 0 M0 0 C17.19 0, 34.38 0, 81 0 M81 0 C81 15.04, 81 30.08, 81 67 M81 0 C81 25.54, 81 51.07, 81 67 M81 67 C55.71 67, 30.42 67, 0 67 M81 67 C59.68 67, 38.35 67, 0 67 M0 67 C0 46.82, 0 26.65, 0 0 M0 67 C0 52.94, 0 38.89, 0 0" stroke="#862e9c" stroke-width="4" fill="none"></path></g><g stroke-linecap="round"><g stroke-opacity="0.8" fill-opacity="0.8" transform="translate(12.999999999999886 461.1875) rotate(0 41.00000000000006 0)"><path d="M0 0 C18.22 0, 36.44 0, 82 0 M0 0 C21.07 0, 42.14 0, 82 0" stroke="#f2aa74" stroke-width="4" fill="none"></path></g><g stroke-opacity="0.8" fill-opacity="0.8" transform="translate(12.999999999999886 461.1875) rotate(0 41.00000000000006 0)"><path d="M0 -15 C0 -11.67, 0 -8.33, 0 0 M0 -15 C0 -11.15, 0 -7.29, 0 0" stroke="#f2aa74" stroke-width="4" fill="none"></path></g><g stroke-opacity="0.8" fill-opacity="0.8" transform="translate(12.999999999999886 461.1875) rotate(0 41.00000000000006 0)"><path d="M0 15 C0 11.67, 0 8.33, 0 0 M0 15 C0 11.15, 0 7.29, 0 0" stroke="#f2aa74" stroke-width="4" fill="none"></path></g><g stroke-opacity="0.8" fill-opacity="0.8" transform="translate(12.999999999999886 461.1875) rotate(0 41.00000000000006 0)"><path d="M82 15 C82 11.67, 82 8.33, 82 0 M82 15 C82 11.15, 82 7.29, 82 0" stroke="#f2aa74" stroke-width="4" fill="none"></path></g><g stroke-opacity="0.8" fill-opacity="0.8" transform="translate(12.999999999999886 461.1875) rotate(0 41.00000000000006 0)"><path d="M82 -15 C82 -11.67, 82 -8.33, 82 0 M82 -15 C82 -11.15, 82 -7.29, 82 0" stroke="#f2aa74" stroke-width="4" fill="none"></path></g></g><g stroke-linecap="round"><g stroke-opacity="0.8" fill-opacity="0.8" transform="translate(9.999999999999886 549.1875) rotate(0 528.5000000000001 0)"><path d="M0 0 C372.8 0, 745.6 0, 1057 0 M0 0 C315.86 0, 631.72 0, 1057 0" stroke="#f2aa74" stroke-width="4" fill="none"></path></g><g stroke-opacity="0.8" fill-opacity="0.8" transform="translate(9.999999999999886 549.1875) rotate(0 528.5000000000001 0)"><path d="M0 -15 C0 -9.71, 0 -4.42, 0 0 M0 -15 C0 -10.52, 0 -6.04, 0 0" stroke="#f2aa74" stroke-width="4" fill="none"></path></g><g stroke-opacity="0.8" fill-opacity="0.8" transform="translate(9.999999999999886 549.1875) rotate(0 528.5000000000001 0)"><path d="M0 15 C0 9.71, 0 4.42, 0 0 M0 15 C0 10.52, 0 6.04, 0 0" stroke="#f2aa74" stroke-width="4" fill="none"></path></g><g stroke-opacity="0.8" fill-opacity="0.8" transform="translate(9.999999999999886 549.1875) rotate(0 528.5000000000001 0)"><path d="M1057 15 C1057 9.71, 1057 4.42, 1057 0 M1057 15 C1057 10.52, 1057 6.04, 1057 0" stroke="#f2aa74" stroke-width="4" fill="none"></path></g><g stroke-opacity="0.8" fill-opacity="0.8" transform="translate(9.999999999999886 549.1875) rotate(0 528.5000000000001 0)"><path d="M1057 -15 C1057 -9.71, 1057 -4.42, 1057 0 M1057 -15 C1057 -10.52, 1057 -6.04, 1057 0" stroke="#f2aa74" stroke-width="4" fill="none"></path></g></g><g stroke-opacity="0.8" fill-opacity="0.8" transform="translate(478 562.1875) rotate(0 60.5 18)"><text x="0" y="25" font-family="Virgil, Segoe UI Emoji" font-size="28px" fill="#f2aa74" text-anchor="start" style="white-space: pre;" direction="ltr">pool item</text></g></svg>