<svg version="1.1" xmlns="http://www.w3.org/2000/svg" viewBox="0 0 1464.5000000000002 390.875" width="1464.5000000000002" height="390.875">
  <!-- svg-source:excalidraw -->
  
  <defs>
    <style>
      @font-face {
        font-family: "Virgil";
        src: url("https://excalidraw.com/Virgil.woff2");
      }
      @font-face {
        font-family: "Cascadia";
        src: url("https://excalidraw.com/Cascadia.woff2");
      }
    </style>
  </defs>
  <g stroke-opacity="0.8" fill-opacity="0.8" stroke-linecap="round" transform="translate(10 10) rotate(0 139.75 47.4375)"><path d="M0 0 C94.8 0, 189.59 0, 279.5 0 M279.5 0 C279.5 30.02, 279.5 60.04, 279.5 94.87 M279.5 94.87 C202.01 94.87, 124.53 94.87, 0 94.87 M0 94.87 C0 72.57, 0 50.27, 0 0" stroke="#f2aa74" stroke-width="1.5" fill="none" stroke-dasharray="8 9"></path></g><g stroke-opacity="0.8" fill-opacity="0.8" transform="translate(50.75 34.4375) rotate(0 99 23)"><text x="0" y="32" font-family="Virgil, Segoe UI Emoji" font-size="36px" fill="#f2aa74" text-anchor="start" style="white-space: pre;" direction="ltr">Sphere Geo</text></g><g stroke-opacity="0.8" fill-opacity="0.8" stroke-linecap="round" transform="translate(1175.0000000000002 10) rotate(0 139.75 47.4375)"><path d="M0 0 C110.6 0, 221.21 0, 279.5 0 M279.5 0 C279.5 32.36, 279.5 64.72, 279.5 94.87 M279.5 94.87 C188.31 94.87, 97.12 94.87, 0 94.87 M0 94.87 C0 67.74, 0 40.61, 0 0" stroke="#f2aa74" stroke-width="1.5" fill="none" stroke-dasharray="8 9"></path></g><g stroke-opacity="0.8" fill-opacity="0.8" transform="translate(1238.7500000000002 34.4375) rotate(0 76 23)"><text x="0" y="32" font-family="Virgil, Segoe UI Emoji" font-size="36px" fill="#f2aa74" text-anchor="start" style="white-space: pre;" direction="ltr">Box Geo</text></g><g stroke-opacity="0.8" fill-opacity="0.8" stroke-linecap="round" transform="translate(321.0000000000001 10) rotate(0 409.75 47.4375)"><path d="M0 0 C223.86 0, 447.72 0, 819.5 0 M819.5 0 C819.5 24.88, 819.5 49.75, 819.5 94.87 M819.5 94.87 C586.69 94.87, 353.88 94.87, 0 94.87 M0 94.87 C0 61.07, 0 27.27, 0 0" stroke="#f2aa74" stroke-width="1.5" fill="none" stroke-dasharray="8 9"></path></g><g stroke-opacity="0.8" fill-opacity="0.8" transform="translate(622.2500000000001 34.4375) rotate(0 108.5 23)"><text x="0" y="32" font-family="Virgil, Segoe UI Emoji" font-size="36px" fill="#f2aa74" text-anchor="start" style="white-space: pre;" direction="ltr">Teapot Geo</text></g><g stroke-linecap="round" transform="translate(106.00000000000011 292) rotate(0 88.75 44.4375)"><path d="M0 0 C68.21 0, 136.42 0, 177.5 0 M177.5 0 C177.5 21.88, 177.5 43.77, 177.5 88.87 M177.5 88.87 C118.94 88.87, 60.38 88.87, 0 88.87 M0 88.87 C0 55.73, 0 22.58, 0 0" stroke="#f2aa74" stroke-width="1.5" fill="none" stroke-dasharray="8 9"></path></g><g stroke-opacity="0.8" fill-opacity="0.8" transform="translate(124.25 313.4375) rotate(0 64.5 23)"><text x="0" y="32" font-family="Virgil, Segoe UI Emoji" font-size="36px" fill="#f2aa74" text-anchor="start" style="white-space: pre;" direction="ltr">Shape 1</text></g><g stroke-linecap="round" transform="translate(319.9999999999999 292) rotate(0 88.75 44.4375)"><path d="M0 0 C54.71 0, 109.42 0, 177.5 0 M177.5 0 C177.5 34.47, 177.5 68.95, 177.5 88.87 M177.5 88.87 C138.82 88.87, 100.13 88.87, 0 88.87 M0 88.87 C0 61.98, 0 35.08, 0 0" stroke="#f2aa74" stroke-width="1.5" fill="none" stroke-dasharray="8 9"></path></g><g stroke-opacity="0.8" fill-opacity="0.8" transform="translate(338.2499999999999 313.4375) rotate(0 72.5 23)"><text x="0" y="32" font-family="Virgil, Segoe UI Emoji" font-size="36px" fill="#f2aa74" text-anchor="start" style="white-space: pre;" direction="ltr">Shape 2</text></g><g stroke-linecap="round" transform="translate(531.9999999999999 292) rotate(0 88.75 44.4375)"><path d="M0 0 C70.85 0, 141.71 0, 177.5 0 M177.5 0 C177.5 21.67, 177.5 43.33, 177.5 88.87 M177.5 88.87 C133.76 88.87, 90.02 88.87, 0 88.87 M0 88.87 C0 60.02, 0 31.16, 0 0" stroke="#f2aa74" stroke-width="1.5" fill="none" stroke-dasharray="8 9"></path></g><g stroke-opacity="0.8" fill-opacity="0.8" transform="translate(550.2499999999999 313.4375) rotate(0 72 23)"><text x="0" y="32" font-family="Virgil, Segoe UI Emoji" font-size="36px" fill="#f2aa74" text-anchor="start" style="white-space: pre;" direction="ltr">Shape 3</text></g><g stroke-linecap="round" transform="translate(744 292) rotate(0 88.75 44.4375)"><path d="M0 0 C41.65 0, 83.29 0, 177.5 0 M177.5 0 C177.5 31.6, 177.5 63.2, 177.5 88.87 M177.5 88.87 C135.28 88.87, 93.06 88.87, 0 88.87 M0 88.87 C0 59.73, 0 30.59, 0 0" stroke="#f2aa74" stroke-width="1.5" fill="none" stroke-dasharray="8 9"></path></g><g stroke-opacity="0.8" fill-opacity="0.8" transform="translate(758.2499999999999 313.4375) rotate(0 71 23)"><text x="0" y="32" font-family="Virgil, Segoe UI Emoji" font-size="36px" fill="#f2aa74" text-anchor="start" style="white-space: pre;" direction="ltr">Shape 4</text></g><g stroke-linecap="round" transform="translate(958 292) rotate(0 88.75 44.4375)"><path d="M0 0 C48.8 0, 97.59 0, 177.5 0 M177.5 0 C177.5 32.85, 177.5 65.7, 177.5 88.87 M177.5 88.87 C139.53 88.87, 101.56 88.87, 0 88.87 M0 88.87 C0 59.48, 0 30.09, 0 0" stroke="#f2aa74" stroke-width="1.5" fill="none" stroke-dasharray="8 9"></path></g><g stroke-opacity="0.8" fill-opacity="0.8" transform="translate(972.2499999999999 313.4375) rotate(0 70.5 23)"><text x="0" y="32" font-family="Virgil, Segoe UI Emoji" font-size="36px" fill="#f2aa74" text-anchor="start" style="white-space: pre;" direction="ltr">Shape 5</text></g><g stroke-linecap="round" transform="translate(1168 292) rotate(0 88.75 44.4375)"><path d="M0 0 C57.55 0, 115.1 0, 177.5 0 M177.5 0 C177.5 28.85, 177.5 57.69, 177.5 88.87 M177.5 88.87 C115.85 88.87, 54.2 88.87, 0 88.87 M0 88.87 C0 55.01, 0 21.15, 0 0" stroke="#f2aa74" stroke-width="1.5" fill="none" stroke-dasharray="8 9"></path></g><g stroke-opacity="0.8" fill-opacity="0.8" transform="translate(1184.25 313.4375) rotate(0 71 23)"><text x="0" y="32" font-family="Virgil, Segoe UI Emoji" font-size="36px" fill="#f2aa74" text-anchor="start" style="white-space: pre;" direction="ltr">Shape 6</text></g><g stroke-linecap="round"><g stroke-opacity="0.8" fill-opacity="0.8" transform="translate(190.7500000000001 280.4375) rotate(0 -23.465933906929592 -82.36562139715073)"><path d="M0.46 0.5 C-7.16 -26.63, -38.65 -136.19, -46.29 -163.41 M-0.76 -0.29 C-8.51 -27.71, -39.89 -137.85, -47.39 -165.23" stroke="#ffffff" stroke-width="1" fill="none"></path></g><g stroke-opacity="0.8" fill-opacity="0.8" transform="translate(190.7500000000001 280.4375) rotate(0 -23.465933906929592 -82.36562139715073)"><path d="M-29.08 -141.33 C-33.15 -145.78, -36.52 -154.07, -48.23 -166.48 M-29.44 -141.62 C-35.93 -148.63, -42.33 -157.16, -47.21 -165.79" stroke="#ffffff" stroke-width="1" fill="none"></path></g><g stroke-opacity="0.8" fill-opacity="0.8" transform="translate(190.7500000000001 280.4375) rotate(0 -23.465933906929592 -82.36562139715073)"><path d="M-48.84 -135.79 C-47.95 -141.7, -46.39 -151.37, -48.23 -166.48 M-49.2 -136.09 C-49.01 -144.82, -48.67 -155.23, -47.21 -165.79" stroke="#ffffff" stroke-width="1" fill="none"></path></g></g><g stroke-linecap="round"><g stroke-opacity="0.8" fill-opacity="0.8" transform="translate(406.7500000000001 280.4375) rotate(0 457.1396314058453 -82.25240844227369)"><path d="M-0.75 0.49 C151.86 -26.93, 762.48 -137.42, 915.03 -164.99 M1.05 -0.3 C153.66 -27.55, 762.46 -136.68, 914.63 -163.98" stroke="#ffffff" stroke-width="1" fill="none"></path></g><g stroke-opacity="0.8" fill-opacity="0.8" transform="translate(406.7500000000001 280.4375) rotate(0 457.1396314058453 -82.25240844227369)"><path d="M889.51 -147.18 C893.43 -151.5, 899.87 -155.83, 915.97 -164.59 M888.96 -148.37 C897.3 -154.19, 906.2 -158.77, 914.83 -164.05" stroke="#ffffff" stroke-width="1" fill="none"></path></g><g stroke-opacity="0.8" fill-opacity="0.8" transform="translate(406.7500000000001 280.4375) rotate(0 457.1396314058453 -82.25240844227369)"><path d="M885.88 -167.38 C890.61 -166.75, 897.93 -166.14, 915.97 -164.59 M885.34 -168.57 C894.96 -167.4, 905.12 -165.02, 914.83 -164.05" stroke="#ffffff" stroke-width="1" fill="none"></path></g></g><g stroke-linecap="round"><g stroke-opacity="0.8" fill-opacity="0.8" transform="translate(622.7500000000001 276.4375) rotate(0 -217.0746661992837 -76.84871831519536)"><path d="M0.55 -0.93 C-71.93 -26.3, -361.35 -127.77, -433.84 -153.2 M-0.62 1.2 C-73.33 -24.42, -362.25 -128.78, -434.7 -154.9" stroke="#ffffff" stroke-width="1" fill="none"></path></g><g stroke-opacity="0.8" fill-opacity="0.8" transform="translate(622.7500000000001 276.4375) rotate(0 -217.0746661992837 -76.84871831519536)"><path d="M-406.25 -154.71 C-414.94 -155.42, -426.97 -154.42, -435.84 -154.36 M-405.04 -154.6 C-415.08 -155.09, -425.22 -154.62, -433.7 -155.75" stroke="#ffffff" stroke-width="1" fill="none"></path></g><g stroke-opacity="0.8" fill-opacity="0.8" transform="translate(622.7500000000001 276.4375) rotate(0 -217.0746661992837 -76.84871831519536)"><path d="M-413.21 -135.41 C-419.06 -143.6, -428.4 -150.06, -435.84 -154.36 M-412.01 -135.3 C-419.53 -142.58, -427.21 -148.92, -433.7 -155.75" stroke="#ffffff" stroke-width="1" fill="none"></path></g></g><g stroke-linecap="round"><g stroke-opacity="0.8" fill-opacity="0.8" transform="translate(834.7500000000001 278.4375) rotate(0 -44.361037727640934 -76.74455015398559)"><path d="M0.83 0.61 C-14.04 -25.17, -73.53 -128.25, -88.4 -154.1 M-0.19 -0.11 C-15.32 -25.76, -74.7 -127.06, -89.55 -152.62" stroke="#ffffff" stroke-width="1" fill="none"></path></g><g stroke-opacity="0.8" fill-opacity="0.8" transform="translate(834.7500000000001 278.4375) rotate(0 -44.361037727640934 -76.74455015398559)"><path d="M-65.46 -134.11 C-75.23 -140.95, -84.38 -145.5, -87.6 -154.46 M-66.99 -132.7 C-72.34 -137.29, -76.25 -142.58, -89.3 -152.08" stroke="#ffffff" stroke-width="1" fill="none"></path></g><g stroke-opacity="0.8" fill-opacity="0.8" transform="translate(834.7500000000001 278.4375) rotate(0 -44.361037727640934 -76.74455015398559)"><path d="M-83.18 -123.76 C-86.48 -134.53, -89.11 -142.89, -87.6 -154.46 M-84.71 -122.35 C-86.1 -129.08, -86.09 -136.67, -89.3 -152.08" stroke="#ffffff" stroke-width="1" fill="none"></path></g></g><g stroke-linecap="round"><g stroke-opacity="0.8" fill-opacity="0.8" transform="translate(1028.75 278.4375) rotate(0 -125.0717734243162 -78.41368906237182)"><path d="M-0.77 -0.14 C-42.55 -26.43, -208.64 -130.52, -250.15 -156.68 M1.03 -1.27 C-40.97 -26.89, -209.25 -129.66, -251.17 -155.5" stroke="#ffffff" stroke-width="1" fill="none"></path></g><g stroke-opacity="0.8" fill-opacity="0.8" transform="translate(1028.75 278.4375) rotate(0 -125.0717734243162 -78.41368906237182)"><path d="M-222.02 -149.76 C-233.14 -151.48, -244 -152.07, -250.18 -153.89 M-221.41 -150.4 C-231.99 -152.68, -241.64 -154.06, -250.18 -156.09" stroke="#ffffff" stroke-width="1" fill="none"></path></g><g stroke-opacity="0.8" fill-opacity="0.8" transform="translate(1028.75 278.4375) rotate(0 -125.0717734243162 -78.41368906237182)"><path d="M-232.75 -132.27 C-240.31 -139.97, -247.46 -146.61, -250.18 -153.89 M-232.14 -132.91 C-238.79 -141.22, -244.69 -148.72, -250.18 -156.09" stroke="#ffffff" stroke-width="1" fill="none"></path></g></g><g stroke-linecap="round"><g stroke-opacity="0.8" fill-opacity="0.8" transform="translate(1254.75 274.4375) rotate(0 30.125320327486833 -75.39656388424333)"><path d="M1.15 -0.2 C11.26 -25.23, 50.19 -125.8, 59.96 -150.59 M0.29 -1.35 C10.3 -26.2, 49.22 -124.47, 58.99 -149.36" stroke="#ffffff" stroke-width="1" fill="none"></path></g><g stroke-opacity="0.8" fill-opacity="0.8" transform="translate(1254.75 274.4375) rotate(0 30.125320327486833 -75.39656388424333)"><path d="M57.85 -119.44 C57.5 -127.01, 60.47 -133.66, 60.06 -147.74 M58.73 -119.55 C58.73 -129.79, 59.04 -141.91, 59.64 -149.55" stroke="#ffffff" stroke-width="1" fill="none"></path></g><g stroke-opacity="0.8" fill-opacity="0.8" transform="translate(1254.75 274.4375) rotate(0 30.125320327486833 -75.39656388424333)"><path d="M38.76 -126.98 C42.99 -132.9, 50.58 -137.74, 60.06 -147.74 M39.65 -127.08 C46.65 -134.5, 54.02 -143.83, 59.64 -149.55" stroke="#ffffff" stroke-width="1" fill="none"></path></g></g></svg>