<svg version="1.1" xmlns="http://www.w3.org/2000/svg" viewBox="0 0 1164.6208493569861 322.4813909329308" width="1164.6208493569861" height="322.4813909329308">
  <!-- svg-source:excalidraw -->
  
  <defs>
    <style>
      @font-face {
        font-family: "Virgil";
        src: url("https://excalidraw.com/Virgil.woff2");
      }
      @font-face {
        font-family: "Cascadia";
        src: url("https://excalidraw.com/Cascadia.woff2");
      }
    </style>
  </defs>
  <g stroke-opacity="0.7" fill-opacity="0.7" transform="translate(58.94227792841457 67.85585831908472) rotate(0 73 61.5)"><path d="M0 0 C0 0, 0 0, 0 0 M0 0 C0 0, 0 0, 0 0 M-2.869862645659664 22.820588549315094 C3.003557390603879 15.853389531477514, 16.758514192141753 4.8786410528568, 24.84687588950422 -2.656715946814465 M2.1045780295691703 24.046422520368456 C7.136474019166457 17.505788354322092, 14.093864396560267 11.801477050913231, 22.362807000333333 0.8539348853915456 M0.19004250131539635 46.842393350460455 C10.745867069461049 39.21920638130944, 14.914967551739384 30.86606589731426, 39.80189958642774 1.0893800434051997 M-0.9651489388198442 48.596386582263634 C10.480503600152367 38.63109996733463, 20.816724447595988 26.178153973275528, 42.35004474278145 -1.3957776065588945 M0.46740041507393215 69.14660557577757 C22.71112723670402 44.532372004173695, 48.86388989158849 26.76212384752791, 65.51045569301922 0.5984231161443958 M-0.11086872758358624 71.51682035470752 C15.504691093778534 54.12249090957198, 30.004374883822422 40.54721130112889, 64.90173942492683 1.2554460281996498 M-2.1558151654900684 99.247771338837 C24.24063461699 64.56087407517688, 52.16570592137366 37.26986135615512, 86.28382350615368 -2.366647275471877 M-2.0522921681405677 96.40637639658317 C27.278557195376123 64.14780247686987, 52.49125808373819 36.24395062943247, 84.86420452333198 -0.7945670618953216 M3.256293114479405 125.08691093231818 C19.312819019385756 99.68851884622697, 42.44034842729524 75.00432259922547, 109.6129698227061 -3.347579178318618 M0.21276227405272152 122.80971269588252 C21.760171188753475 97.13911011800283, 41.50965949542382 70.37576121966102, 106.80640976455939 1.1918540215936915 M14.004136515705468 132.73442302578178 C36.4076438058852 103.04353010676067, 68.75249049855401 67.27015800092049, 126.26248991056099 0.8139014409519447 M11.593958789406898 135.04539686747876 C43.19407673323934 98.29609414483713, 75.49845852153358 65.47010225371442, 125.98892209618106 -0.5780664926730381 M33.50875127708211 133.7907912327983 C59.724320059078906 100.17968951621481, 85.32129893779295 73.89810578486538, 144.98878459558387 4.961961955242046 M31.53955529650345 134.73161272025487 C70.27232009269267 87.94787911575298, 109.7130823827979 45.80785829399191, 147.95708277375002 -0.3166797864807762 M51.34209376062673 132.86303620983438 C82.43117470821151 105.16307037865155, 107.93228542461836 74.67217592502662, 146.32799424695344 25.291498384805365 M54.94169858704728 133.38761235598997 C86.65830449180535 98.07833929767217, 115.50596275518578 61.860589838078965, 147.20394134613247 24.133922855736657 M78.34669326321432 133.68284741001497 C98.09849938624842 104.62747476624813, 115.48125200716052 81.57275831401377, 147.63978361823152 52.63659653541544 M76.13107713760087 131.67684792312156 C96.46772670133011 111.30619821072384, 119.57844887609818 85.92525246490194, 149.08904049657772 49.7153711850653 M97.54476658171987 129.6772267864651 C115.44059750156768 112.40913822652234, 129.61692139331052 91.56353595539473, 146.90749797730257 74.43678044042008 M96.66103567472672 131.10261532008712 C115.77297981310122 110.6132246248771, 138.94304580262911 86.68639716514556, 146.51357217265775 75.24426443016546 M120.88821801301839 131.21848879230978 C131.24977380739574 123.51960037982342, 142.69398471357735 107.10606268475334, 145.79417009205105 100.32688663316699 M118.93257517498733 134.3830541953242 C126.84604114407733 118.9724703478538, 138.01824996477427 109.77393305670519, 147.8513845719445 100.12704556969734" stroke="#f2aa74" stroke-width="2" fill="none"></path><path d="M-2.178702302277088 -0.13883321732282639 C48.88229696638883 2.9606654634326697, 89.53319339081646 3.2811284055560828, 147.598811917007 0.2500458434224129 M1.6089876033365726 -0.5593993403017521 C37.59905792213977 -2.5559326744824653, 71.97221921384336 -3.951658759191633, 144.14915696159008 1.9556929133832455 M147.83631687611344 0.8519268706440926 C148.51675111848863 30.095597766898578, 145.4806929310039 60.834454515203845, 149.40612082928422 123.85855037719011 M144.80742779746654 1.3472115062177181 C145.52782520618294 47.8187771813944, 147.5684888061509 91.07857756726445, 146.20566371455791 122.59316542372108 M146.63758330792191 123.78385669738054 C87.42300964407625 121.85480899490416, 37.61229797974228 124.71706576026976, -0.14412183314561844 126.09499222785234 M145.90162375941875 122.28049090132117 C108.72641576342286 123.68447890259326, 72.12497256845236 127.0697357890755, -0.4400962255895138 123.11509456858039 M-3.479248709976673 120.18552071601152 C-0.4572236384823918 90.22620451841503, -0.4708666648343205 52.42467182911932, -1.3890742734074593 3.995748348534107 M0.37070146575570107 121.13045349344611 C-3.2241121488437052 91.50711134951561, -2.549270387254655 57.68054883815347, -1.180090632289648 -0.15491125360131264" stroke="#ffffff" stroke-width="4" fill="none"></path></g><g transform="translate(121.01370649984312 14.981390932930793) rotate(0 11 18)"><text x="0" y="25" font-family="Virgil, Segoe UI Emoji" font-size="28px" fill="#ffffff" text-anchor="start" style="white-space: pre;" direction="ltr">0</text></g><g stroke-opacity="0.7" fill-opacity="0.7" transform="translate(220.08513507127168 67.85585831908472) rotate(0 73 61.5)"><path d="M-0.7913772538304329 -0.5714196488261223 C53.99280785210431 -4.28567488051951, 109.83148972317578 -0.21058089591562767, 146.71186786144975 2.5735400393605232 M0.08456984534859657 -1.7289951778948307 C55.70579373575749 0.01893283598124995, 113.53444941937927 1.135356562063098, 146.3600793220103 1.3889527581632137 M146.25412135571244 2.691961593925953 C145.48613536555322 23.036716788075864, 142.0239373465255 52.72846447490156, 143.4283183142543 121.35334736853838 M147.70337823405865 -0.22926375642418861 C148.7076083013043 46.32679434586316, 148.5962905475125 89.28229321353137, 144.39176383987072 123.83231439813972 M145.25554495304826 123.41042859107256 C101.26583766750994 122.56206000246108, 48.31646699085833 124.58275640405715, -3.582167573273182 120.18907053023577 M144.86161914840343 124.21791258081794 C98.13217637352648 123.82258892275394, 44.839901719987395 124.77199757315219, -0.8031103275716305 124.0613777898252 M-1.4680146649479866 124.4641082957387 C0.7616932580992581 75.61239348445088, 1.7852893064543607 29.848393822088838, 3.116689495742321 -2.2813510224223137 M0.5891998149454594 124.26426723226905 C-0.21154690679162735 96.13015511911362, -1.3617822020873427 69.73996619321406, -1.9407297037541866 -0.9635299183428288" stroke="#ffffff" stroke-width="4" fill="none"></path></g><g transform="translate(300.0137064998431 14.981390932930793) rotate(0 2.5 18)"><text x="0" y="25" font-family="Virgil, Segoe UI Emoji" font-size="28px" fill="#ffffff" text-anchor="start" style="white-space: pre;" direction="ltr">1</text></g><g stroke-opacity="0.7" fill-opacity="0.7" transform="translate(388.94227792841457 67.85585831908472) rotate(0 73 61.5)"><path d="M0 0 C0 0, 0 0, 0 0 M0 0 C0 0, 0 0, 0 0 M-1.0115714816190984 20.393367951451896 C7.438922057310357 17.515231118348076, 12.468166136529375 3.657567488681952, 18.56124472459581 -0.3586772406310317 M1.7088133135996078 24.087817953615545 C5.146480314556476 14.914396015286354, 12.946898760331619 9.208342337333738, 20.662443237656618 -1.4052532823592898 M2.5486335959284716 50.393121418216154 C13.221430961689881 33.94422224738538, 28.906317828569968 16.074873093272508, 41.9765445483809 -2.623661515456533 M-1.8949419464916772 50.55811325521104 C9.308134877266077 38.11577508624807, 20.63147632315204 24.448490188940173, 42.80595267619543 1.7360762197851187 M-1.8276239650139203 70.0247543550506 C9.986975358887934 58.978784921722784, 25.41077252371655 37.80363808939288, 66.22046528281052 1.4713319318859348 M1.204782324116529 71.30873697096852 C15.943839559891188 55.131010767836216, 31.87031809945149 39.733330287335896, 62.11248320238073 1.0683275053767929 M3.435477230697714 100.5230277192758 C26.72141786303832 71.80084384876034, 47.532223926916615 44.79416958453548, 83.18875888100968 -4.231167601728629 M-1.4688047841192855 97.92589048789605 C21.324209453630168 76.6885854929981, 43.427893698330124 49.869502855140524, 84.10095571465001 0.42218905097823267 M-2.7666928058306155 125.53355164732119 C31.288055491142288 82.99867000182655, 63.859017404710016 45.2937458231016, 104.72248979610336 0.2910566805747763 M0.5715856852193895 123.57459312211057 C23.376366498368867 96.83631808521932, 45.3746332967563 68.758353588127, 106.00513486144078 -1.148994416848062 M9.591374842374208 132.31568965249744 C46.806254024577335 93.77337384244228, 75.35827834951274 55.93115042689277, 125.20197595222606 0.7446186558939232 M11.71291284441817 133.07658631661025 C40.34140690407665 98.17732484657988, 71.6496923198959 66.53052238248983, 128.49257001220002 1.0104876586831821 M31.921439070456174 136.64326519212506 C63.73373794261808 95.21970418052112, 97.05920882756163 54.554250082405375, 150.76496583149333 3.006400540881046 M33.62291703393355 132.68604020840309 C60.23147031208855 107.33531266520049, 83.53697723045327 81.90637606843157, 146.00777234435577 0.5195829239116989 M55.55180389668268 131.78101376642064 C73.22946456734388 102.65284001634846, 98.44699194583089 79.88177400515079, 147.59457245933385 28.288388199539824 M52.905414967345415 131.9410057273932 C82.25593218608464 101.0754248833487, 109.41488224774002 72.02034422831261, 148.18514882864923 24.000311422528668 M77.34697127417871 132.1027146722592 C91.31477998801682 111.22187012315322, 104.3781310696193 96.83594222850896, 149.46305824555944 47.9261322813938 M75.84495254309127 132.15654635014306 C89.4515004568194 114.5759651131747, 107.22440201461609 95.81066728391758, 148.51778707020472 50.74122673374513 M93.11675565606927 129.16183470651572 C115.77307352296287 111.59243419077234, 127.39778162392221 96.50383411215591, 148.03199111430456 74.84499666354077 M94.9409194096086 131.3703818032152 C108.4340646294907 119.23350383036032, 119.98404829710536 105.6616955534136, 147.7826114384692 73.03866441434639 M116.86628399547936 132.44152816606524 C124.84198652717556 122.12395138814541, 135.1923845112366 115.04869023021338, 150.40825148970367 98.65003272307845 M117.28254896533491 133.96788806317213 C126.45322449767193 122.10580497898279, 138.96607247428193 107.83408531535571, 148.7213900528896 100.16161627111765" stroke="#f2aa74" stroke-width="2" fill="none"></path><path d="M0.178440161049366 -2.5149859860539436 C36.938479514047515 -0.054789231047033926, 77.29331409409644 4.453334405198694, 143.27533466368916 -2.320449061691761 M-0.4736226536333561 1.7608864642679691 C34.802718910202394 -0.2893595492094758, 70.4581154972315 0.5053972209244963, 146.05776217207315 0.23780814185738564 M149.5741761401296 1.0564601942896843 C142.79067956548187 31.757617799378934, 146.46622978787872 62.4488190446049, 149.13769204169515 126.53254466503859 M146.96066382154825 0.20332995429635048 C144.85860738012943 34.79528152476996, 147.66094800684604 69.83001645095646, 144.1402687095106 123.91087678447366 M148.61738068610433 122.58309894055128 C99.15613705702128 123.62460200987756, 47.82728631123901 120.2151994010061, 3.7795980647206306 119.9781821295619 M146.23839130625132 122.386744055897 C111.64436950273813 125.49987620733678, 75.50044764429332 126.90268809221685, 0.38884809240698814 121.0862685777247 M-0.5305692479014397 119.89183454960585 C-2.311528103761375 95.89190402533859, -1.372504370622337 69.24285698495805, -3.8797578141093254 0.21055512875318527 M-1.8793318010866642 121.77462974563241 C-3.235106964148581 75.68473788518457, -2.567310709990561 26.579865708574644, -0.6267975308001041 -0.14360925182700157" stroke="#ffffff" stroke-width="4" fill="none"></path></g><g stroke-opacity="0.9" fill-opacity="0.9" transform="translate(451.5137064998431 14.981390932930793) rotate(0 10.5 18)"><text x="0" y="25" font-family="Virgil, Segoe UI Emoji" font-size="28px" fill="#ffffff" text-anchor="start" style="white-space: pre;" direction="ltr">2</text></g><g stroke-opacity="0.7" fill-opacity="0.7" transform="translate(554.9422779284146 67.85585831908472) rotate(0 73 61.5)"><path d="M0.7776961848139763 -3.8274628445506096 C40.451315783336774 -1.977362161651254, 87.37938331887129 -2.6007316169887784, 142.89183454960587 -2.254455976188183 M-1.9398789070546627 0.10527756437659264 C42.57115300633014 2.0258533333987, 79.76971925199034 -0.9815747166424988, 144.77462974563244 -1.8475485779345036 M144.74640493839982 -0.28721850365400314 C144.2245147593692 40.31894367840141, 144.8346815474704 88.6229284312576, 144.4892588183284 126.0124195292592 M144.38706317916515 1.926721479743719 C147.38082295026632 25.84575814176351, 148.2581641015038 54.12749240510166, 144.30314425006512 122.07609489187598 M149.0057554766536 125.82261354476213 C117.88978127054872 126.22796109355986, 83.49846984520556 124.27626827396452, -3.6883489564061165 122.70752532035112 M144.6505325175822 122.85515620931983 C95.31058393530549 121.38988026119769, 43.77071851342917 122.0906812760979, 0.00610104575753212 121.50357976183295 M-1.1954729035496712 120.3274727538228 C2.746943148188293 99.46080366764218, 3.515267284922302 72.79830480851233, 1.4749780222773552 -1.335886649787426 M-0.27190741524100304 121.75715890154243 C-0.5414977293834091 75.24041452687234, -0.21503701027482758 26.423037675395605, 1.6399698592722416 -1.014923069626093" stroke="#ffffff" stroke-width="4" fill="none"></path></g><g transform="translate(609.5137064998431 14.981390932930793) rotate(0 10 18)"><text x="0" y="25" font-family="Virgil, Segoe UI Emoji" font-size="28px" fill="#ffffff" text-anchor="start" style="white-space: pre;" direction="ltr">3</text></g><g stroke-opacity="0.7" fill-opacity="0.7" transform="translate(721.1922779284148 67.85585831908469) rotate(0 73 61.500000000000014)"><path d="M2.537089131772518 3.829479791224003 C29.16823515333236 -0.5384207726269961, 66.1214255474508 -2.910059309080243, 146.05916645377877 0.023890353739261627 M1.9209501035511494 -1.8175514824688435 C49.19350826628507 0.13342570744454885, 97.19914824664595 2.768847102746368, 145.1830838210881 -1.360872257500887 M146.2687859758735 -1.43215861171484 C140.11589483890685 42.117870338074866, 142.04212550792846 92.31033245436848, 143.01549556106332 121.98622808605433 M145.97803907468918 -0.07582568004727364 C145.65428413819524 37.1292247498408, 145.76515676449986 74.62579053007067, 145.77782003954056 122.15112866088748 M148.0425589308143 119.36214933544397 C98.54996640942991 127.6775480157882, 52.66799247935414 126.0685895330459, 2.1542816385626793 120.32897505909204 M145.6811432130635 123.46403778716922 C90.98199181817475 124.4689353121072, 38.10991638153793 122.89647859461606, 1.223771620541811 123.67989517375827 M1.8210544809699059 123.12085089832544 C-0.0803186342492701 93.02089515496044, -3.173848097063601 61.15761085934936, -2.2258913293480873 1.9996410384774208 M0.8087049014866352 123.99429966136813 C1.3478484435752034 94.47561148609967, 2.9064673467352984 67.90053827054798, -1.8060878030955791 -1.6643432267010212" stroke="#ffffff" stroke-width="4" fill="none"></path></g><g stroke-opacity="0.9" fill-opacity="0.9" transform="translate(783.7637064998435 15.428571428571445) rotate(0 8 18)"><text x="0" y="25" font-family="Virgil, Segoe UI Emoji" font-size="28px" fill="#ffffff" text-anchor="start" style="white-space: pre;" direction="ltr">4</text></g><g stroke-opacity="0.7" fill-opacity="0.7" transform="translate(1008.6208493569861 67.85585831908469) rotate(0 73 61.500000000000014)"><path d="M0 0 C0 0, 0 0, 0 0 M0 0 C0 0, 0 0, 0 0 M-0.7170153854229238 22.910687436997055 C6.136606193702256 21.27094848065582, 8.115316857563458 17.162310700361616, 20.520569516623283 2.208358717539859 M-0.748835298959234 22.931641125767587 C8.452050419336128 15.150802192222622, 14.761903683473847 8.682289920261134, 22.56678817635205 -0.7707175152212855 M3.091160750016492 46.72137640104525 C9.980020064924465 33.57835697402844, 21.288234074721814 26.564143605496156, 41.63106024693303 0.503623294490481 M-0.08563446812339492 47.63940157056682 C17.031089135783112 29.40984158976748, 31.259100347369795 10.854209137749969, 43.71934202368908 -0.04673091430673537 M0.4158314002862582 75.85869275996832 C20.583813195781467 48.71619953653733, 45.52815912953664 24.24667107468919, 67.17986732245762 0.7671877371637592 M-1.638914128560721 71.2372697874382 C19.20095427001208 52.17314837652032, 36.27418804181599 31.47164292292704, 63.98580654607494 0.25945096859023664 M-2.154975008219637 99.80300293983683 C18.36167064048321 76.62956314368053, 39.3702042603567 52.76351794112539, 83.40307472757206 -2.9909381888153064 M0.5889000445602761 97.39567567901477 C28.198339664417542 63.58608584461584, 56.270548234050686 34.39660460280933, 86.57040537632213 -0.7731923743428695 M-0.5105564331451831 119.49239754583022 C24.1006631461392 96.79451891065074, 46.471240217307894 70.4138233935364, 105.18520394665134 -0.03418221782171571 M0.33289974203310635 121.96542957703849 C36.92274568456746 82.0504231302278, 69.62418952630567 43.12535753515458, 104.91564339724314 0.008537299081446292 M9.293053073732736 132.02559556000915 C37.92467887686608 100.48871870604015, 71.24759970302642 63.954860255825224, 123.15315493507995 -1.8947000040076958 M9.751284310518386 131.30562644013253 C55.98843922594007 84.39491114933627, 99.25925160563128 31.972227424592234, 126.17124771265998 0.46176656127345694 M29.78919443880811 131.06265090844414 C68.67638256762987 89.73805446953514, 105.74893988834796 41.23098218178154, 149.39438320622344 3.6124961380289875 M34.556471824847605 132.30935242092988 C54.82561622872876 103.07905682395112, 82.30128634366679 71.6603412049237, 149.28734473437567 0.7584215741978966 M53.130878711598335 135.3014045601018 C85.651453693359 99.45407262991111, 109.86560331232917 73.36824625958506, 150.2448338167605 23.054372541042014 M53.42039423297566 134.50513696495966 C73.85233165172127 109.25799920967104, 91.30232339138368 85.732273982283, 146.1773941675064 27.675063397170945 M75.2104398764784 135.5956162806071 C86.99820049052732 116.75456243651566, 99.63677120167236 99.58400492782991, 146.33272620775293 47.66833532330492 M76.46915016771504 134.80008456440936 C99.50584091020772 107.6086608418578, 121.5863291862108 79.66053194893595, 146.13697385155152 50.50634912502864 M97.56864941782331 130.52560833558505 C109.94170537307377 122.35238394087192, 116.90071895413755 110.0477078357788, 151.3787103345852 72.32847883066552 M95.56711951187825 134.67551846146648 C112.84670619427095 112.40951024293332, 132.2205263291716 91.0916219290044, 147.01893589033295 73.65628033018129 M115.14471632000806 134.6482654906607 C127.61648389839289 123.75349248855281, 135.79442405274946 108.77016270206312, 150.2518736526418 102.13545990897151 M116.44196339827778 134.06198064831855 C127.03435757563308 124.00648636813281, 134.60040036884885 114.52465235110422, 145.66441363767268 100.8530773350391" stroke="#f2aa74" stroke-width="2" fill="none"></path><path d="M-3.1809978261590004 2.0539334788918495 C58.184730846062315 -3.1132253051549204, 113.58270896896722 -2.771629893854261, 147.21126534789803 -3.010391615331173 M0.9723897464573383 -1.7745487578213215 C35.01703888066114 3.514497801885009, 67.7033391684294 1.2927529069036248, 147.33525817468765 -1.7526496537029743 M142.2716539129615 -2.9939674362540245 C144.3631879571453 50.35533844362945, 143.1807989362255 95.52359116189183, 146.2159419283271 122.73282227665186 M145.81859843805435 -0.43479667976498604 C145.90245912622663 33.51990517619998, 145.7508081014082 67.19544367156924, 146.1315896995366 122.96638632938266 M143.31057121604684 125.58316979557276 C87.91731099151076 121.31858032770455, 39.61049943640829 117.67334407396615, 2.9550774320960045 119.54272470623255 M145.56802444532516 123.10800028964877 C96.6773065235466 122.21303874142468, 46.014421395957484 124.35739034302533, -0.7800675146281719 124.36100138351321 M1.593713067471981 125.1234799399972 C-2.619764901138842 82.94141149688512, -3.3458398351445795 40.15690317340196, -3.327431656420231 -2.4534870609641075 M-0.1610460989177227 121.14375914260745 C0.4028657754138112 85.17913696374744, -2.8007948319241405 49.220263533666724, 0.4881039150059223 1.2640812508761883" stroke="#ffffff" stroke-width="4" fill="none"></path></g><g transform="translate(1063.1922779284148 10) rotate(0 15 18)"><text x="0" y="25" font-family="Virgil, Segoe UI Emoji" font-size="28px" fill="#ffffff" text-anchor="start" style="white-space: pre;" direction="ltr">n-1</text></g><g><g stroke-opacity="0.8" fill-opacity="0.8" transform="translate(926.513706499843 129.33622594943233) rotate(0 8.26570445261882 0.019632369652384796)"><path d="M-2.1658417783677577 -0.9484835900366306 C0.594266393159812 -0.9002691153436909, 15.178205693637258 0.5670375676204715, 18.69725068360558 0.987748329341406" stroke="#ffffff" stroke-width="4.5" fill="none" stroke-dasharray="3 6"></path></g></g><g><g stroke-opacity="0.8" fill-opacity="0.8" transform="translate(82.51370649984318 121.3147242662642) rotate(0 -34.30564032706539 53.46098476886752)"><path d="M-0.8380879245698452 -0.9422069109976292 C-12.559619387239215 1.979225242386262, -58.643498982571884 -3.7838321723044057, -68.06980076655745 14.84719750508666 C-77.49610255054301 33.478227182477724, -59.18501152752176 94.96411055351305, -57.39589862848324 110.84397115334878 M3.9024258457124237 -3.9220016156136994 C-8.22192322547237 -0.2893501101434235, -58.67636340010496 0.11120242173471695, -69.25998728886246 18.39357931986451 C-79.84361117761996 36.675956217994305, -61.62345599838431 90.0377242141466, -59.59931748683256 105.77225977316508" stroke="#ffffff" stroke-width="2" fill="none"></path></g><g stroke-opacity="0.8" fill-opacity="0.8" transform="translate(82.51370649984318 121.3147242662642) rotate(0 -34.30564032706539 53.46098476886752)"><path d="M-77.08927181008886 83.24386004171951 C-70.29996879886122 89.1674387744832, -62.730129019201556 98.88038354570685, -59.418801623831214 107.45348271116623 M-73.80722653139065 78.85150808281882 C-69.43132277651915 87.7156571959267, -62.81205724238126 98.81496073818812, -57.869669720033826 105.59961091488609" stroke="#ffffff" stroke-width="2" fill="none"></path></g><g stroke-opacity="0.8" fill-opacity="0.8" transform="translate(82.51370649984318 121.3147242662642) rotate(0 -34.30564032706539 53.46098476886752)"><path d="M-57.05888986609514 78.78249236312928 C-57.98044940081321 86.2845712706285, -58.036024375392344 97.69592493967185, -59.418801623831214 107.45348271116623 M-53.77684458739694 74.39014040422859 C-56.57241545012516 85.0818877595662, -57.120241036839474 97.7775177605784, -57.869669720033826 105.59961091488609" stroke="#ffffff" stroke-width="2" fill="none"></path></g></g><g><g stroke-opacity="0.8" fill-opacity="0.8" transform="translate(242.51370649984318 247.98139093293102) rotate(0 11.367339187810842 -46.4996605756383)"><path d="M0.8778657875955105 0.2594330228865145 C5.447849203728964 -14.848864576800032, 21.213771111683698 -78.076890137709, 24.824781088282645 -93.25875417416313 M-2.090102712661028 -2.068042860478163 C2.4765838704340952 -16.451101386729245, 19.663424745317943 -74.09967431219101, 23.39641519193846 -89.58893660431124" stroke="#ffffff" stroke-width="2" fill="none"></path></g><g stroke-opacity="0.8" fill-opacity="0.8" transform="translate(242.51370649984318 247.98139093293102) rotate(0 11.367339187810842 -46.4996605756383)"><path d="M-1.6711387826752078 -7.120034749274827 C-0.24821562063287894 -7.613744458916532, 0.6496004651314431 -6.897589953704934, 2.0179758969543835 -6.414702668003845 C3.386351328777324 -5.931815382302757, 5.913146123667087 -5.624752938456728, 6.539113808262435 -4.222711035068295 C7.165081492857784 -2.820669131679862, 5.9692732782927935 0.8165406484006337, 5.773782004526476 1.997548752326754 C5.578290730760158 3.1785568562528743, 5.876488379754295 1.7972517121904008, 5.366166165664529 2.8633375884884273 C4.855843951574763 3.9294234647864537, 3.897961401835495 7.646480612390844, 2.7118487199878807 8.394064010114914 C1.5257360381402663 9.141647407838983, -0.33377455726071825 8.393733067048347, -1.7505099254211571 7.348837974832841 C-3.167245293581596 6.303942882617335, -4.954047231525492 3.5210567539502864, -5.788563488974751 2.1246934568218783 C-6.62307974642401 0.7283301596934701, -7.69120265940988 0.5402896519638838, -6.757607470116714 -1.0293418079376075 C-5.824012280823547 -2.598973267839099, -1.9818848860851688 -6.254974923034198, -0.18699235321575292 -7.293095302587069 C1.607900179653663 -8.331215682139941, 4.317377179939026 -7.315166302407637, 4.01174772709978 -7.258064085254834 M-2.2338279132115226 -5.594247891233657 C-1.5535907712717854 -6.071657031361202, -0.026920911188255348 -7.898194146390286, 1.6830274256415008 -7.642819228404063 C3.3929757624712567 -7.38744431041784, 7.1564397648427445 -5.602481076871768, 8.025862107767015 -4.061998383316322 C8.895284450691285 -2.521515689760876, 6.971830145013885 -0.26664355237577064, 6.899561483187126 1.6000769329286135 C6.827292821360367 3.4667974182329977, 8.690689040786998 6.382949601143841, 7.59225013680646 7.138324528509984 C6.493811232825923 7.893699455876127, 2.371088441022512 6.278219684978663, 0.308928059303903 6.132326497125471 C-1.7532323224147062 5.98643330927228, -3.9059805985619187 7.436231437132094, -4.7807121535051955 6.262965401390832 C-5.655443708448472 5.08969936564957, -5.36029337736631 0.9450095569891537, -4.939461270355757 -0.9072697173221045 C-4.518629163345204 -2.7595489916333626, -2.981392275520792 -3.7482449505626407, -2.2557195114418773 -4.850710244476717 C-1.5300467473629626 -5.953175538390794, -0.8920974153680643 -7.193530683083404, -0.5854246858822698 -7.5220614808065625 C-0.2787519563964753 -7.850592278529721, 0.06127928923156606 -6.956855263364106, -0.41568313452711037 -6.821895030815669" stroke="none" stroke-width="0" fill="#ffffff"></path><path d="M6.120408201810072 -4.834241231848361 C7.29792531687412 -3.8613431119825274, 6.470600896191493 -1.7349770574216012, 6.987443770853827 -0.5044841464614329 C7.504286645516161 0.7260087644987354, 9.961227160413694 1.7018523263831007, 9.221465449784077 2.548716233912648 C8.48170373915446 3.3955801414421956, 4.214429733451306 3.5175637192226343, 2.548873507076124 4.576699298715851 C0.8833172807009428 5.635834878209067, 0.1508371299221959 8.820428801777272, -0.7718719084670111 8.903529710871949 C-1.694580946856218 8.986630619966625, -2.0777692826884695 6.6587378295811055, -2.9873807232591174 5.075304753283916 C-3.8969921638297653 3.491871676986727, -5.766028313473516 0.7788374792730615, -6.2295405518908975 -0.5970687469111884 C-6.693052790308279 -1.9729749730954382, -7.0188259057038795 -2.3291207759160915, -5.768454153763405 -3.1801326038215842 C-4.51808240182293 -4.031144431727077, -0.8070324110994822 -5.811289743924793, 1.2726899597519525 -5.703139714344144 C3.3524123306033875 -5.594989684763495, 5.950684385434628 -3.866785430875732, 6.709880071345204 -2.5312324263376866 C7.469075757255779 -1.1956794217996412, 6.106917873698275 2.2502156072740607, 5.827864075215406 2.3101783128841293 M-6.205003285205312 -6.28225868237948 C-6.155359094984016 -8.045730182755879, -5.185506725903626 -7.511873680585041, -3.2103205926047202 -7.649480111002512 C-1.235134459305814 -7.787086541419982, 3.8675711139819446 -8.434870192910962, 5.646113514588125 -7.107897264884302 C7.424655915194305 -5.780924336857642, 6.710117946308218 -0.8868124990340105, 7.460933811032362 0.3123574571574492 C8.211749675756506 1.511527413348909, 10.609819492981007 -0.9247096022175456, 10.151008702932991 0.08712247226445591 C9.692197912884975 1.0989545467464574, 6.598141852297446 4.9788732192225496, 4.708069070744271 6.383349904049458 C2.817996289191096 7.787826588876367, 0.30029991691699953 8.380120375265644, -1.189427986386059 8.51398258122591 C-2.6791558896891177 8.647844787186177, -2.94486531472593 8.24455573968995, -4.23029834907408 7.186523139811058 C-5.515731383422231 6.128490539932165, -8.467992458374503 3.822634050498414, -8.902026192474963 2.165786981952554 C-9.336059926575423 0.5089399134066939, -8.078604372966915 -1.618127871405, -6.834500753676841 -2.754559271464103 C-5.590397134386769 -3.8909906715232063, -1.743332618162412 -4.832927592718774, -1.4374044767345282 -4.652801418402064" stroke="#ffffff" stroke-width="2" fill="none"></path></g><g stroke-opacity="0.8" fill-opacity="0.8" transform="translate(242.51370649984318 247.98139093293102) rotate(0 11.367339187810842 -46.4996605756383)"><path d="M26.23542981897969 -57.56001905959435 C26.016781061368814 -67.00133215352942, 28.972187310207023 -70.5415201620767, 22.784930209865152 -86.58050626491524 M24.26152130146999 -60.0980677702684 C26.866631615502374 -70.26020919534652, 24.417242556473933 -83.86517504645195, 22.60153890331584 -91.06226470669128" stroke="#ffffff" stroke-width="2" fill="none"></path></g><g stroke-opacity="0.8" fill-opacity="0.8" transform="translate(242.51370649984318 247.98139093293102) rotate(0 11.367339187810842 -46.4996605756383)"><path d="M6.439692271099602 -62.96823293492234 C10.22425496617116 -71.4124590426869, 17.28365738235791 -73.83143148839581, 22.784930209865152 -86.58050626491524 M4.465783753589903 -65.50628164559639 C14.954827508572805 -73.18097498217612, 20.394491692320013 -84.63064416360281, 22.60153890331584 -91.06226470669128" stroke="#ffffff" stroke-width="2" fill="none"></path></g></g><g><g stroke-opacity="0.8" fill-opacity="0.8" transform="translate(317.51370649984324 161.31472426626416) rotate(0 139.17440613135693 43.86149517471597)"><path d="M2.038925071805715 0.9521411336958407 C6.5883223469886385 13.530233711418191, -5.424376825243307 63.339602017154355, 24.93799796526623 76.23311470324802 C55.30037275577577 89.12662738934169, 142.31785894392263 90.74685986811929, 184.21317381486296 78.31321725025785 C226.10848868580328 65.87957463239641, 261.37269397998847 14.033330246889012, 276.30988719090817 1.631258996079441" stroke="#ffffff" stroke-width="2.5" fill="none" stroke-dasharray="12 8"></path></g><g stroke-opacity="0.8" fill-opacity="0.8" transform="translate(317.51370649984324 161.31472426626416) rotate(0 139.17440613135693 43.86149517471597)"><path d="M265.7933633206257 31.472564273784464 C266.2260173736208 21.938893685834223, 266.9983517761913 18.98991304070721, 276.2593048043549 -0.031122317661766097" stroke="#ffffff" stroke-width="2.5" fill="none"></path></g><g stroke-opacity="0.8" fill-opacity="0.8" transform="translate(317.51370649984324 161.31472426626416) rotate(0 139.17440613135693 43.86149517471597)"><path d="M250.86388016158486 17.393127673204376 C254.59478749377658 10.679975163721325, 258.58848543766146 10.768941865076286, 276.2593048043549 -0.031122317661766097" stroke="#ffffff" stroke-width="2.5" fill="none"></path></g></g><g><g stroke-opacity="0.8" fill-opacity="0.8" transform="translate(657.5137064998432 164.64805759959754) rotate(0 66.64800125539506 37.89208318621917)"><path d="M0.686936517804861 1.5126509584486483 C5.326796880281627 14.189985852522987, 9.48618785697548 65.49626628797918, 30.44108194137609 76.53305883382761 C51.395976025776704 87.56985137967604, 110.90332037500215 81.55559950379867, 126.41630102420854 67.73340623353923 C141.92928167341492 53.91121296327979, 123.39920341860918 5.492664127631327, 123.51896583661437 -6.400100787729025" stroke="#ffffff" stroke-width="2.5" fill="none" stroke-dasharray="12 8"></path></g><g stroke-opacity="0.8" fill-opacity="0.8" transform="translate(657.5137064998432 164.64805759959754) rotate(0 66.64800125539506 37.89208318621917)"><path d="M140.97202683026285 17.658959819269107 C130.1441325152468 8.985792096881083, 125.85024312539807 -2.9136773684163835, 121.51882185414433 -3.350278598815203" stroke="#ffffff" stroke-width="2.5" fill="none"></path></g><g stroke-opacity="0.8" fill-opacity="0.8" transform="translate(657.5137064998432 164.64805759959754) rotate(0 66.64800125539506 37.89208318621917)"><path d="M120.80406648350035 21.45018361077173 C117.88798028590591 11.18838868619146, 121.51860095281957 -2.2007500637851685, 121.51882185414433 -3.350278598815203" stroke="#ffffff" stroke-width="2.5" fill="none"></path></g></g><g><g stroke-opacity="0.8" fill-opacity="0.8" transform="translate(839.18037316651 157.98139093293085) rotate(0 53.28451134786019 29.98060588811836)"><path d="M0.26150288209319106 0.6056215204298496 C15.827326582786085 4.05925544607971, 75.94874318068211 8.13763026901421, 93.62307933593775 17.929291724910378 C111.29741549119338 27.720953180806546, 104.47293780537113 52.44746973754633, 106.30751981362701 59.35559025580686" stroke="#ffffff" stroke-width="2.5" fill="none" stroke-dasharray="12 8"></path></g><g stroke-opacity="0.8" fill-opacity="0.8" transform="translate(839.18037316651 157.98139093293085) rotate(0 53.28451134786019 29.98060588811836)"><path d="M91.95956574427906 61.759905548630485 C95.50517132321028 60.94169248930347, 98.08316055711694 59.05000356931477, 103.85539285056294 60.73495618986588" stroke="#ffffff" stroke-width="2.5" fill="none"></path></g><g stroke-opacity="0.8" fill-opacity="0.8" transform="translate(839.18037316651 157.98139093293085) rotate(0 53.28451134786019 29.98060588811836)"><path d="M121.95323428389607 61.1435878257073 C116.24406485742304 60.571316194368116, 109.57957247543746 58.86954419688398, 103.85539285056294 60.73495618986588" stroke="#ffffff" stroke-width="2.5" fill="none"></path></g></g><g stroke-opacity="0.8" fill-opacity="0.8" transform="translate(35.84703983317672 240.4813909329308) rotate(0 33.5 36)"><text x="0" y="25" font-family="Virgil, Segoe UI Emoji" font-size="28px" fill="#ffffff" text-anchor="start" style="white-space: pre;" direction="ltr">used</text><text x="0" y="61" font-family="Virgil, Segoe UI Emoji" font-size="28px" fill="#ffffff" text-anchor="start" style="white-space: pre;" direction="ltr">slots</text></g><g stroke-opacity="0.8" fill-opacity="0.8" transform="translate(210.84703983317655 273.8147242662642) rotate(0 31.99999999999997 18)"><text x="0" y="25" font-family="Virgil, Segoe UI Emoji" font-size="28px" fill="#ffffff" text-anchor="start" style="white-space: pre;" direction="ltr">head</text></g><g stroke-opacity="0.8" fill-opacity="0.8" transform="translate(434.18037316651 248.81472426626416) rotate(0 32 18)"><text x="0" y="25" font-family="Virgil, Segoe UI Emoji" font-size="28px" fill="#ffffff" text-anchor="start" style="white-space: pre;" direction="ltr">next</text></g><g stroke-opacity="0.8" fill-opacity="0.8" transform="translate(927.5137064998432 228.8147242662644) rotate(0 21 18)"><text x="0" y="25" font-family="Virgil, Segoe UI Emoji" font-size="28px" fill="#ffffff" text-anchor="start" style="white-space: pre;" direction="ltr">null</text></g></svg>