<svg version="1.1" xmlns="http://www.w3.org/2000/svg" viewBox="0 0 1323.5 318.6166667010434" width="1323.5" height="318.6166667010434">
  <!-- svg-source:excalidraw -->
  
  <defs>
    <style>
      @font-face {
        font-family: "Virgil";
        src: url("https://excalidraw.com/Virgil.woff2");
      }
      @font-face {
        font-family: "Cascadia";
        src: url("https://excalidraw.com/Cascadia.woff2");
      }
    </style>
  </defs>
  <g stroke-opacity="0.7" fill-opacity="0.7" transform="translate(10 85.43659142404789) rotate(0 73 61.5)"><path d="M0 0 C0 0, 0 0, 0 0 M0 0 C0 0, 0 0, 0 0 M-2.869862645659664 22.820588549315094 C3.003557390603879 15.853389531477514, 16.758514192141753 4.8786410528568, 24.84687588950422 -2.656715946814465 M2.1045780295691703 24.046422520368456 C7.136474019166457 17.505788354322092, 14.093864396560267 11.801477050913231, 22.362807000333333 0.8539348853915456 M0.19004250131539635 46.842393350460455 C10.745867069461049 39.21920638130944, 14.914967551739384 30.86606589731426, 39.80189958642774 1.0893800434051997 M-0.9651489388198442 48.596386582263634 C10.480503600152367 38.63109996733463, 20.816724447595988 26.178153973275528, 42.35004474278145 -1.3957776065588945 M0.46740041507393215 69.14660557577757 C22.71112723670402 44.532372004173695, 48.86388989158849 26.76212384752791, 65.51045569301922 0.5984231161443958 M-0.11086872758358624 71.51682035470752 C15.504691093778534 54.12249090957198, 30.004374883822422 40.54721130112889, 64.90173942492683 1.2554460281996498 M-2.1558151654900684 99.247771338837 C24.24063461699 64.56087407517688, 52.16570592137366 37.26986135615512, 86.28382350615368 -2.366647275471877 M-2.0522921681405677 96.40637639658317 C27.278557195376123 64.14780247686987, 52.49125808373819 36.24395062943247, 84.86420452333198 -0.7945670618953216 M3.256293114479405 125.08691093231818 C19.312819019385756 99.68851884622697, 42.44034842729524 75.00432259922547, 109.6129698227061 -3.347579178318618 M0.21276227405272152 122.80971269588252 C21.760171188753475 97.13911011800283, 41.50965949542382 70.37576121966102, 106.80640976455939 1.1918540215936915 M14.004136515705468 132.73442302578178 C36.4076438058852 103.04353010676067, 68.75249049855401 67.27015800092049, 126.26248991056099 0.8139014409519447 M11.593958789406898 135.04539686747876 C43.19407673323934 98.29609414483713, 75.49845852153358 65.47010225371442, 125.98892209618106 -0.5780664926730381 M33.50875127708211 133.7907912327983 C59.724320059078906 100.17968951621481, 85.32129893779295 73.89810578486538, 144.98878459558387 4.961961955242046 M31.53955529650345 134.73161272025487 C70.27232009269267 87.94787911575298, 109.7130823827979 45.80785829399191, 147.95708277375002 -0.3166797864807762 M51.34209376062673 132.86303620983438 C82.43117470821151 105.16307037865155, 107.93228542461836 74.67217592502662, 146.32799424695344 25.291498384805365 M54.94169858704728 133.38761235598997 C86.65830449180535 98.07833929767217, 115.50596275518578 61.860589838078965, 147.20394134613247 24.133922855736657 M78.34669326321432 133.68284741001497 C98.09849938624842 104.62747476624813, 115.48125200716052 81.57275831401377, 147.63978361823152 52.63659653541544 M76.13107713760087 131.67684792312156 C96.46772670133011 111.30619821072384, 119.57844887609818 85.92525246490194, 149.08904049657772 49.7153711850653 M97.54476658171987 129.6772267864651 C115.44059750156768 112.40913822652234, 129.61692139331052 91.56353595539473, 146.90749797730257 74.43678044042008 M96.66103567472672 131.10261532008712 C115.77297981310122 110.6132246248771, 138.94304580262911 86.68639716514556, 146.51357217265775 75.24426443016546 M120.88821801301839 131.21848879230978 C131.24977380739574 123.51960037982342, 142.69398471357735 107.10606268475334, 145.79417009205105 100.32688663316699 M118.93257517498733 134.3830541953242 C126.84604114407733 118.9724703478538, 138.01824996477427 109.77393305670519, 147.8513845719445 100.12704556969734" stroke="#f2aa74" stroke-width="2" fill="none"></path><path d="M-2.178702302277088 -0.13883321732282639 C48.88229696638883 2.9606654634326697, 89.53319339081646 3.2811284055560828, 147.598811917007 0.2500458434224129 M1.6089876033365726 -0.5593993403017521 C37.59905792213977 -2.5559326744824653, 71.97221921384336 -3.951658759191633, 144.14915696159008 1.9556929133832455 M147.83631687611344 0.8519268706440926 C148.51675111848863 30.095597766898578, 145.4806929310039 60.834454515203845, 149.40612082928422 123.85855037719011 M144.80742779746654 1.3472115062177181 C145.52782520618294 47.8187771813944, 147.5684888061509 91.07857756726445, 146.20566371455791 122.59316542372108 M146.63758330792191 123.78385669738054 C87.42300964407625 121.85480899490416, 37.61229797974228 124.71706576026976, -0.14412183314561844 126.09499222785234 M145.90162375941875 122.28049090132117 C108.72641576342286 123.68447890259326, 72.12497256845236 127.0697357890755, -0.4400962255895138 123.11509456858039 M-3.479248709976673 120.18552071601152 C-0.4572236384823918 90.22620451841503, -0.4708666648343205 52.42467182911932, -1.3890742734074593 3.995748348534107 M0.37070146575570107 121.13045349344611 C-3.2241121488437052 91.50711134951561, -2.549270387254655 57.68054883815347, -1.180090632289648 -0.15491125360131264" stroke="#ffffff" stroke-width="4" fill="none"></path></g><g transform="translate(63.5 10) rotate(0 19.5 32)"><text x="0" y="45" font-family="Virgil, Segoe UI Emoji" font-size="50.666666666666664px" fill="#ffffff" text-anchor="start" style="white-space: pre;" direction="ltr">0</text></g><g stroke-opacity="0.7" fill-opacity="0.7" transform="translate(174 84.43659142404789) rotate(0 73 61.5)"><path d="M0 0 C0 0, 0 0, 0 0 M0 0 C0 0, 0 0, 0 0 M-1.6489880977012898 27.65589304798758 C8.05485794567301 12.870999544320373, 13.097392188032584 9.01417606391502, 19.296166880333686 3.0687023824244264 M1.2515813226065848 25.042380729406236 C8.686614773996885 13.657822998236297, 16.180436592504783 7.0821154137987286, 20.58951076334145 -1.9287209497601268 M-3.975839847698886 51.535524082043096 C13.73711374789259 35.07333290182598, 32.3261564432676 17.406263469716826, 42.54778328965955 3.6416187461792475 M1.5784188378601485 49.156534702190086 C9.367232816849764 39.54322432590555, 19.567199663237435 28.266385061168076, 43.938278809744645 0.250868773865605 M-0.2983735965380063 72.46929105589537 C11.302790649092184 55.75873804841329, 26.568571486900865 41.7406234731376, 62.55073484302838 -4.0867267919214 M-1.5231534594485154 71.12052850271014 C16.986992480036566 48.08701630944856, 38.62125624040486 26.407411944998863, 63.956118053657605 -0.8337665086121788 M0.03882189467533692 100.57330258311495 C23.375334085694647 73.23850367121791, 46.363069318074174 42.48596562815844, 84.13973833731518 -3.5018322787525165 M1.4029348492620812 99.66973343984947 C31.100806134541713 58.283901206275694, 64.77676941103007 19.39664715374178, 86.79012322164283 1.2269191012440217 M-1.504918519202846 120.64014145638129 C34.26128729353952 75.96103797991316, 79.28863818861971 28.137396454298568, 103.07919806939495 -3.0438832611891016 M-0.3403534514645514 123.36052625159999 C30.840185457997563 83.83983609374314, 60.2475254386104 49.29107962910891, 106.43504529026282 -0.9426847481282934 M14.644253922550561 135.84176884525505 C38.2201289109596 99.18688697656786, 67.08591895819902 68.50628201619409, 130.15714680715217 -0.20304320588338243 M10.582427078782203 131.3981933028349 C42.1141168488776 100.97235503268581, 68.58725110582981 70.42980529365195, 125.70223245708956 0.6263649219311489 M33.93081295882955 131.13023086330674 C76.8598807446703 75.80919888911903, 128.00631445611 24.805519893907046, 145.9034228764524 3.466417760066875 M32.170315608583834 134.16263715243718 C72.0752375047642 89.72708410325038, 111.77470528807484 45.752560728520805, 147.8128072276761 -0.6415643203629173 M51.70015245165151 136.71411066700296 C90.70937837602582 96.20693955276789, 123.54421208283156 53.14427432257678, 150.3776041464743 24.01095815691535 M51.99124017964524 131.80982865218596 C73.79876851391802 111.55939093555594, 94.41274134894118 90.55697885457049, 147.06060040088863 24.923154990555688 M76.31823919789144 130.1766602094687 C102.76550484727116 103.12312196511976, 123.41743614549404 74.4808475908888, 148.21279287077974 48.366226290435584 M75.17667051852891 133.5149387005187 C101.08602978716961 107.54530008472307, 123.37503674318194 80.4776043761718, 146.73093590997647 49.648871355773004 M96.08072749442434 131.046443943829 C108.98482557391901 119.42055872316814, 122.62312900435138 98.67576074630958, 148.41577181725313 72.32330869397538 M96.20573260179734 133.16798194587295 C112.81393199424944 114.14171977600704, 127.00661670458035 98.04006511558785, 147.77578695251157 75.61390275394933 M119.9629591381252 132.04733882320883 C131.17414834993212 118.35478025710611, 139.58777832125296 106.69961058456353, 147.42301125377895 102.11860440088245 M116.53020865601303 133.7488167866862 C128.29046671509448 123.01969896506343, 138.90207347548392 110.95645788589147, 148.7447829760659 97.36141091374489" stroke="#fab005" stroke-width="2" fill="none"></path><path d="M-0.7913772538304329 -0.5714196488261223 C53.99280785210431 -4.28567488051951, 109.83148972317578 -0.21058089591562767, 146.71186786144975 2.5735400393605232 M0.08456984534859657 -1.7289951778948307 C55.70579373575749 0.01893283598124995, 113.53444941937927 1.135356562063098, 146.3600793220103 1.3889527581632137 M146.25412135571244 2.691961593925953 C145.48613536555322 23.036716788075864, 142.0239373465255 52.72846447490156, 143.4283183142543 121.35334736853838 M147.70337823405865 -0.22926375642418861 C148.7076083013043 46.32679434586316, 148.5962905475125 89.28229321353137, 144.39176383987072 123.83231439813972 M145.25554495304826 123.41042859107256 C101.26583766750994 122.56206000246108, 48.31646699085833 124.58275640405715, -3.582167573273182 120.18907053023577 M144.86161914840343 124.21791258081794 C98.13217637352648 123.82258892275394, 44.839901719987395 124.77199757315219, -0.8031103275716305 124.0613777898252 M-1.4680146649479866 124.4641082957387 C0.7616932580992581 75.61239348445088, 1.7852893064543607 29.848393822088838, 3.116689495742321 -2.2813510224223137 M0.5891998149454594 124.26426723226905 C-0.21154690679162735 96.13015511911362, -1.3617822020873427 69.73996619321406, -1.9407297037541866 -0.9635299183428288" stroke="#ffffff" stroke-width="4" fill="none"></path></g><g transform="translate(242.5 11) rotate(0 4.5 32)"><text x="0" y="45" font-family="Virgil, Segoe UI Emoji" font-size="50.666666666666664px" fill="#ffffff" text-anchor="start" style="white-space: pre;" direction="ltr">1</text></g><g stroke-opacity="0.7" fill-opacity="0.7" transform="translate(340 84.43659142404789) rotate(0 73 61.5)"><path d="M0 0 C0 0, 0 0, 0 0 M0 0 C0 0, 0 0, 0 0 M-1.0115714816190984 20.393367951451896 C7.438922057310357 17.515231118348076, 12.468166136529375 3.657567488681952, 18.56124472459581 -0.3586772406310317 M1.7088133135996078 24.087817953615545 C5.146480314556476 14.914396015286354, 12.946898760331619 9.208342337333738, 20.662443237656618 -1.4052532823592898 M2.5486335959284716 50.393121418216154 C13.221430961689881 33.94422224738538, 28.906317828569968 16.074873093272508, 41.9765445483809 -2.623661515456533 M-1.8949419464916772 50.55811325521104 C9.308134877266077 38.11577508624807, 20.63147632315204 24.448490188940173, 42.80595267619543 1.7360762197851187 M-1.8276239650139203 70.0247543550506 C9.986975358887934 58.978784921722784, 25.41077252371655 37.80363808939288, 66.22046528281052 1.4713319318859348 M1.204782324116529 71.30873697096852 C15.943839559891188 55.131010767836216, 31.87031809945149 39.733330287335896, 62.11248320238073 1.0683275053767929 M3.435477230697714 100.5230277192758 C26.72141786303832 71.80084384876034, 47.532223926916615 44.79416958453548, 83.18875888100968 -4.231167601728629 M-1.4688047841192855 97.92589048789605 C21.324209453630168 76.6885854929981, 43.427893698330124 49.869502855140524, 84.10095571465001 0.42218905097823267 M-2.7666928058306155 125.53355164732119 C31.288055491142288 82.99867000182655, 63.859017404710016 45.2937458231016, 104.72248979610336 0.2910566805747763 M0.5715856852193895 123.57459312211057 C23.376366498368867 96.83631808521932, 45.3746332967563 68.758353588127, 106.00513486144078 -1.148994416848062 M9.591374842374208 132.31568965249744 C46.806254024577335 93.77337384244228, 75.35827834951274 55.93115042689277, 125.20197595222606 0.7446186558939232 M11.71291284441817 133.07658631661025 C40.34140690407665 98.17732484657988, 71.6496923198959 66.53052238248983, 128.49257001220002 1.0104876586831821 M31.921439070456174 136.64326519212506 C63.73373794261808 95.21970418052112, 97.05920882756163 54.554250082405375, 150.76496583149333 3.006400540881046 M33.62291703393355 132.68604020840309 C60.23147031208855 107.33531266520049, 83.53697723045327 81.90637606843157, 146.00777234435577 0.5195829239116989 M55.55180389668268 131.78101376642064 C73.22946456734388 102.65284001634846, 98.44699194583089 79.88177400515079, 147.59457245933385 28.288388199539824 M52.905414967345415 131.9410057273932 C82.25593218608464 101.0754248833487, 109.41488224774002 72.02034422831261, 148.18514882864923 24.000311422528668 M77.34697127417871 132.1027146722592 C91.31477998801682 111.22187012315322, 104.3781310696193 96.83594222850896, 149.46305824555944 47.9261322813938 M75.84495254309127 132.15654635014306 C89.4515004568194 114.5759651131747, 107.22440201461609 95.81066728391758, 148.51778707020472 50.74122673374513 M93.11675565606927 129.16183470651572 C115.77307352296287 111.59243419077234, 127.39778162392221 96.50383411215591, 148.03199111430456 74.84499666354077 M94.9409194096086 131.3703818032152 C108.4340646294907 119.23350383036032, 119.98404829710536 105.6616955534136, 147.7826114384692 73.03866441434639 M116.86628399547936 132.44152816606524 C124.84198652717556 122.12395138814541, 135.1923845112366 115.04869023021338, 150.40825148970367 98.65003272307845 M117.28254896533491 133.96788806317213 C126.45322449767193 122.10580497898279, 138.96607247428193 107.83408531535571, 148.7213900528896 100.16161627111765" stroke="#f2aa74" stroke-width="2" fill="none"></path><path d="M0.178440161049366 -2.5149859860539436 C36.938479514047515 -0.054789231047033926, 77.29331409409644 4.453334405198694, 143.27533466368916 -2.320449061691761 M-0.4736226536333561 1.7608864642679691 C34.802718910202394 -0.2893595492094758, 70.4581154972315 0.5053972209244963, 146.05776217207315 0.23780814185738564 M149.5741761401296 1.0564601942896843 C142.79067956548187 31.757617799378934, 146.46622978787872 62.4488190446049, 149.13769204169515 126.53254466503859 M146.96066382154825 0.20332995429635048 C144.85860738012943 34.79528152476996, 147.66094800684604 69.83001645095646, 144.1402687095106 123.91087678447366 M148.61738068610433 122.58309894055128 C99.15613705702128 123.62460200987756, 47.82728631123901 120.2151994010061, 3.7795980647206306 119.9781821295619 M146.23839130625132 122.386744055897 C111.64436950273813 125.49987620733678, 75.50044764429332 126.90268809221685, 0.38884809240698814 121.0862685777247 M-0.5305692479014397 119.89183454960585 C-2.311528103761375 95.89190402533859, -1.372504370622337 69.24285698495805, -3.8797578141093254 0.21055512875318527 M-1.8793318010866642 121.77462974563241 C-3.235106964148581 75.68473788518457, -2.567310709990561 26.579865708574644, -0.6267975308001041 -0.14360925182700157" stroke="#ffffff" stroke-width="4" fill="none"></path></g><g stroke-opacity="0.9" fill-opacity="0.9" transform="translate(394 11) rotate(0 19 32)"><text x="0" y="45" font-family="Virgil, Segoe UI Emoji" font-size="50.666666666666664px" fill="#ffffff" text-anchor="start" style="white-space: pre;" direction="ltr">2</text></g><g stroke-opacity="0.7" fill-opacity="0.7" transform="translate(506 84.43659142404789) rotate(0 73 61.5)"><path d="M0 0 C0 0, 0 0, 0 0 M0 0 C0 0, 0 0, 0 0 M-3.069820970092037 26.632309874235748 C4.687983041430003 21.530109483937878, 7.740108106751396 16.23342858612652, 23.946920616829658 3.6023167794733766 M-0.6596891766228463 22.10411242553508 C6.524784462081646 16.773540957458117, 12.658298568440227 6.055396805770602, 21.34978338544991 1.1910208476870778 M-2.003003591671664 50.3144387720608 C16.54960161767558 29.820245006477112, 34.06213007102588 7.0732744503447265, 46.13590732644849 -2.023001414877271 M-0.9126818310470171 49.236145884402916 C11.74081400116269 34.48624685047912, 26.298236660809703 19.61903346126492, 44.17694880123787 1.090028143334294 M-0.4487139152178159 71.3917680628076 C22.384605980989686 48.36870748728971, 44.951284268847914 19.239609490272088, 62.92657097698529 1.8992954420416126 M-0.7087083214709153 73.20178381944446 C18.6968322575616 51.42869347836598, 37.652827933867805 30.974473958825712, 63.687467641098095 -0.8578311686845055 M2.928146798163496 99.17571886004671 C16.048133390349708 75.95177327809846, 36.589595209487484 55.440200890573045, 88.58331586531506 -3.5709781966449725 M1.380958020686947 98.82624128954276 C29.711594665581273 61.23661279845089, 60.49573683173596 29.469499849193582, 84.62609088159309 1.2218325600681794 M-2.983399096671718 120.90418645645758 C27.69348675909334 86.73797024267105, 60.27670761769908 50.05819578041947, 105.0502337883128 -3.1786953778120264 M0.2569362299700799 123.13073878268978 C22.321674658357782 96.23797107726986, 43.359768873598625 70.61513582193014, 105.21022574928534 -0.2067472719701513 M13.570184660999658 129.44444452160087 C37.588295685836954 94.61637502380671, 74.4357577870652 65.39681201781059, 126.04504501386299 0.531292931888224 M12.4773279967891 132.16040641375866 C35.910857879211385 105.34510772945853, 63.68895869206432 76.69297302196017, 126.09887669174685 -0.9597839361392246 M34.963059310071614 134.6938516690471 C72.12452158542015 86.91863610876891, 113.57575415032954 38.26156977119865, 143.77727536783118 4.200029105358013 M32.8888287397255 133.50999049163244 C60.16250984983647 98.67027764268823, 90.96840198865321 65.92895539792293, 145.98582246453066 0.9769338857756935 M54.220306212561546 131.05630355526284 C79.41083274032776 104.08942572376755, 106.9629347781431 70.73446177558657, 146.73619021939606 25.31928416285102 M55.53202275048417 132.9253056180902 C78.07700262705823 106.650830689539, 100.75040179499675 77.54121331718318, 148.26255011650295 24.237877409340783 M78.13757966534445 135.56036463337313 C103.16555712177023 99.04910135232339, 127.75298134436704 66.56311504355105, 144.73457932211946 47.520018910140784 M73.6360360056276 133.54636644156943 C96.83363688518554 106.80990847470244, 121.42304446011784 80.20224819620675, 146.93703983091305 50.49123888564208 M94.19022146529531 130.42991185650294 C113.99754104445007 110.4270996899293, 135.41687304733125 92.62491137764505, 144.70891294388582 74.53863238057511 M95.4026507317183 131.60303136050766 C110.19452121897004 114.60054657016279, 127.47923232576846 94.80473636092339, 147.30892105533292 75.5301800433399 M119.28326090928914 130.3341346777773 C127.04872607101791 126.95594012842767, 136.48698006056534 114.51838363320378, 149.7753488525796 99.80683610750171 M117.63130540531876 132.7900025233424 C128.89085821029292 118.52568587618855, 140.48374079931384 107.39501942930819, 145.9004794873345 99.98770636109444" stroke="#f2aa74" stroke-width="2" fill="none"></path><path d="M0.7776961848139763 -3.8274628445506096 C40.451315783336774 -1.977362161651254, 87.37938331887129 -2.6007316169887784, 142.89183454960587 -2.254455976188183 M-1.9398789070546627 0.10527756437659264 C42.57115300633014 2.0258533333987, 79.76971925199034 -0.9815747166424988, 144.77462974563244 -1.8475485779345036 M144.74640493839982 -0.28721850365400314 C144.2245147593692 40.31894367840141, 144.8346815474704 88.6229284312576, 144.4892588183284 126.0124195292592 M144.38706317916515 1.926721479743719 C147.38082295026632 25.84575814176351, 148.2581641015038 54.12749240510166, 144.30314425006512 122.07609489187598 M149.0057554766536 125.82261354476213 C117.88978127054872 126.22796109355986, 83.49846984520556 124.27626827396452, -3.6883489564061165 122.70752532035112 M144.6505325175822 122.85515620931983 C95.31058393530549 121.38988026119769, 43.77071851342917 122.0906812760979, 0.00610104575753212 121.50357976183295 M-1.1954729035496712 120.3274727538228 C2.746943148188293 99.46080366764218, 3.515267284922302 72.79830480851233, 1.4749780222773552 -1.335886649787426 M-0.27190741524100304 121.75715890154243 C-0.5414977293834091 75.24041452687234, -0.21503701027482758 26.423037675395605, 1.6399698592722416 -1.014923069626093" stroke="#ffffff" stroke-width="4" fill="none"></path></g><g transform="translate(552 11) rotate(0 27 32)"><text x="0" y="45" font-family="Virgil, Segoe UI Emoji" font-size="50.666666666666664px" fill="#ffffff" text-anchor="start" style="white-space: pre;" direction="ltr">n-1</text></g><g><g stroke-opacity="0.9" fill-opacity="0.9" transform="translate(669 54.49999999999994) rotate(0 3.318438052013562 91.43659142404796)"><path d="M2.513782047480345 1.973213923722505 C3.430246721828985 32.34397029976051, 3.256430255000828 150.20047694245977, 4.1230940565467336 180.8999689243734" stroke="#ffffff" stroke-width="1.5" fill="none" stroke-dasharray="12 8"></path></g></g><g stroke-opacity="0.7" fill-opacity="0.7" transform="translate(695 84.43659142404789) rotate(0 130.5 61.5)"><path d="M0 0 C0 0, 0 0, 0 0 M0 0 C0 0, 0 0, 0 0 M-1.9243856368400838 21.941281279265045 C6.026108028215265 14.465013550094229, 14.93615339202906 10.623246944677557, 22.38447020789411 -1.4413729483098265 M0.8552091235480521 23.759959974973558 C8.258075132421911 16.20054283099848, 13.3275049811234 6.4846711140605855, 19.40124174421456 -0.8625432239681956 M-2.218774313107211 50.84594435677759 C11.053107558018057 37.74734093330818, 16.98092115413756 29.820492635197372, 40.51303211282544 0.16756178702702584 M-2.0892508160323686 47.07467165649764 C11.037179917165139 38.774626379596725, 17.64871309124927 25.60974508333911, 43.60529924984627 -1.0054670806647295 M-3.7561594413408628 73.6887765772119 C21.741970425516364 44.60906306220072, 45.303669232079024 16.83894935146767, 61.63780220867474 -0.2579196763665905 M-1.742760216612517 74.48275343919543 C13.290975081595864 59.216762471714354, 27.1833734017994 44.03219455619727, 65.26419455455024 1.327008079972721 M-0.07644228264705077 96.65619905413851 C22.32177987080253 72.70045754683925, 39.52879097398976 48.24162103757582, 85.14818479231701 3.2169971146343244 M-0.2390924096109046 97.37192038194999 C25.454099192027154 65.35033130958352, 49.64733203551115 35.48726999254873, 83.56017863488898 0.571771906381656 M-1.165600482169765 123.86110708023688 C39.53326897231837 77.3300207043161, 70.64047083274707 38.785859023251476, 106.11327166062725 -1.2775608868452295 M-0.24012836048402164 121.32589297275325 C22.99709406140981 89.02769814350651, 49.99471252438854 59.84828981575784, 105.14815871742499 -0.24444220300042474 M13.854902220814111 137.04577432506767 C44.87671438700279 95.72589816296208, 75.75207304999714 63.94087921770827, 123.37578308148994 0.5885553525425209 M11.249733621178748 134.9523013264784 C50.196047176906255 93.30462622660175, 85.33103912295462 47.85836694788523, 125.12463924973025 -0.3753475195132481 M36.48422706519857 130.9825594022014 C65.59945161395535 90.24144172996598, 104.27546915149857 53.17853843951974, 150.92630390976112 1.5766786254770295 M31.514688953958895 134.4083917520084 C57.909561326244095 104.65607599912687, 82.24636833960034 73.49509966741056, 147.2769580163483 0.001057694835139955 M56.872455413001 136.95035796810464 C86.55105806687287 94.61817763985331, 122.50767798499867 50.53685610400983, 166.71692941332526 -3.3424170346939377 M55.032821929561315 132.00247885112242 C82.02833203834459 99.84176222686389, 110.68443492704402 70.25668262616017, 169.7719319648511 0.6857476687050053 M74.9402415610964 132.85273447590242 C111.87303925468014 87.372764350993, 153.31638001518058 47.48598271977755, 188.0355013890574 -0.7573546748453737 M73.4707585245485 131.4370772722579 C108.95372806147833 94.49992712320176, 138.20826387376778 60.293039020661524, 189.4050933218012 -1.185169199466145 M99.28792730635976 129.78856587871974 C130.6202206313812 90.03179343969539, 160.9864492404841 50.475005974151514, 215.59954913383245 -2.811444841852264 M95.46778096548294 131.50454541385238 C130.2800558354847 92.63714703056762, 163.2975041209553 53.669650685146365, 210.569630563761 1.9892592387592032 M115.9455419456661 135.3020416296816 C143.20714991814506 101.53080384517605, 173.2345552706872 71.40706353328484, 234.30628944452553 -3.9526855825896234 M116.26082772892715 134.46208542434337 C159.1129294432352 88.69844741065118, 197.83179330962423 43.947131467039895, 234.88138841729312 0.6498288818185358 M137.1228022758904 132.632663681913 C187.9483550744569 83.03079432464654, 230.03778759215555 32.229285723901896, 253.98262661801152 -1.6837624439324657 M139.30949354144363 134.40674320216831 C168.66805185209407 94.34722836619112, 200.76125599728917 59.03638835785367, 254.80386785895996 0.4521793781493386 M161.95911259390766 131.9652464885389 C182.2626558916493 106.15268047588467, 212.21857887536322 74.51072347846299, 271.5745621612605 6.235047329471939 M161.92102937959487 133.65040839576474 C195.27525469130833 92.78717129873975, 227.47423842638972 58.185198191229716, 268.71263582541906 6.188889928416842 M184.6175056676024 134.43462658290713 C209.33753023476078 96.94209769368808, 235.13832603778206 66.66049983495235, 269.1456670232612 34.998198153421896 M180.21928344095286 131.84952398379295 C209.7778860147997 98.31373206296833, 242.86454755946252 63.83610907658459, 267.7687974453467 32.12680264373185 M205.6588788518306 132.3568242576971 C226.22606073071915 106.06142338560878, 246.136120295974 81.8381793745665, 269.58914760968935 57.59004079636412 M201.39393726006114 131.36124795424485 C215.95219113054947 116.71880445399725, 231.61415217920742 96.1735996401151, 268.5060620541061 55.96718723785358 M220.85563991447677 133.0073010462566 C241.67361990424192 119.2626619239337, 254.87572953089247 101.9942262142946, 271.26277627540105 79.27972055097811 M221.38915153449167 134.14671078578073 C239.17260208633073 111.18966869026174, 256.5399838288746 92.87835445166056, 268.34067368624085 78.46563919877403 M248.5659431524159 134.85212140171063 C250.68287682760487 125.171591233619, 255.26083370276928 118.61194229756994, 267.2358357882806 104.79582395061163 M245.15280224080698 135.1271771268381 C255.2207556277552 122.46252075936461, 264.4685041218044 113.88891252459592, 269.69335553932274 103.73172650515346 M0.22998977043796032 123.19992705727512 C0.22998977043796032 123.19992705727512, 0.22998977043796032 123.19992705727512, 0.22998977043796032 123.19992705727512 M0.22998977043796032 123.19992705727512 C0.22998977043796032 123.19992705727512, 0.22998977043796032 123.19992705727512, 0.22998977043796032 123.19992705727512 M26.255030581081755 121.12174766783194 C18.96019807235926 116.34451300464535, 6.487262639841319 105.14175839921815, -1.0663200309230518 97.9691685259786 M24.41199784475053 124.08853222329692 C17.15303211990198 114.80081368166677, 9.105976699525915 110.88882421971344, -0.07303200938837051 100.97525602658061 M51.778007924799134 126.00786836924554 C33.78009779589238 115.49040601248757, 24.17955146298303 100.138892219881, -2.131322616295428 78.16903298213126 M48.59602300474446 124.41379241006972 C35.67504526679267 113.56372263897664, 25.987555818290257 99.96085665093403, 2.0608359449044755 81.85494066267253 M76.7893100510867 125.74965642106318 C53.5091958562779 103.53858443612123, 30.140348634389944 79.92386584373239, 3.801347833000161 59.04395389580343 M71.56184142265037 122.6114931711235 C57.531279696730834 108.80733617880506, 39.62732769707423 92.71753032149041, 0.24646552639458363 61.32013173797343 M97.30023833704226 119.94579780540035 C78.08537424922199 103.07678361234755, 53.49101074586418 85.44304890818209, -2.8945293861612775 39.294370720120156 M97.12531990525358 124.45817693388626 C59.76442662183065 91.53478005291478, 22.309301785991977 60.73864121859185, 0.7989202116444609 37.79990640092083 M119.75178165976354 119.64029100437256 C86.9226307083957 90.44182843809648, 45.28905188723017 59.07587066326009, -0.6654874769047474 18.3160354082064 M123.1999815093393 123.69522987578603 C81.47296590846409 88.45570611600425, 43.86721633879847 56.43788478655533, -1.2440802727833962 17.063185549952205 M143.50048765568002 124.60426991312379 C103.13548316459075 80.23030637226111, 58.78413551720618 49.14733137063038, 4.235756598313067 1.418189500158698 M145.1578768010245 124.43570483727926 C97.88501731779934 86.1202535454671, 51.74692129441161 46.08815974311776, 1.7669687903418274 -1.4380890795234138 M174.85142978211223 123.17841704276006 C116.286238089218 82.16268226901596, 65.76655610285874 31.163944642935647, 25.59449372215924 0.19474470285523893 M170.73755091731726 122.13173452478449 C135.9366926538276 93.79694335842422, 103.54217565827031 62.36901862667061, 26.812548713374706 -3.072774335315337 M197.77053067548968 122.27449128842535 C160.2896686378107 86.87781402431128, 113.63911504677257 51.472954291177416, 47.87138494527115 1.2577376576868176 M195.63136692433454 122.7010592787582 C155.79652578621918 87.77442776282635, 117.4495700198408 52.11716729718209, 51.716479726640124 -4.17207088072027 M219.91752921291007 123.21774113223518 C169.5415328323518 82.14173944646961, 122.12981296562172 38.09596830560061, 71.32922790407827 -2.0279477402025776 M218.39347287886156 123.49444027662838 C173.1444812657183 80.20903803427333, 120.1707148647987 38.03654822688384, 73.14768739625504 -3.169800875281723 M247.1318517714712 123.02872755630501 C208.3167407284636 90.99645952428837, 165.975937817345 55.604307259523154, 96.1793460559011 -4.7278789797069365 M243.8006730876836 123.70248244582304 C191.70880789915356 79.36888744709282, 135.03314164202567 31.286538871187744, 99.64159185922747 -2.660706612581187 M262.14493558648866 120.42485181082637 C220.82951933807368 84.66201017760125, 188.7949546421483 58.247810555347996, 125.29391203716916 -0.33654716568226917 M262.4397514658038 119.48216223184616 C225.32447433554756 89.64285291571372, 185.46337463728122 53.24351092240585, 123.18743118167443 -2.2739227521621714 M260.80197127015924 99.13400124012357 C234.57967483591335 71.48322794937822, 193.59737781103684 40.06011496292641, 146.23891472498016 -4.934953816013078 M263.8042140551064 96.39547342433458 C220.2316571813802 59.86650518381157, 174.72596907478265 20.398954179453398, 146.13622842038112 -1.7055631165966787 M267.60389678537285 79.82020908006527 C227.99866871209656 49.294130741245624, 193.63809292144109 21.329255653242022, 169.7600304964319 0.09121205141616429 M264.7112829981688 78.46008695446946 C237.1666329107118 53.66286947971549, 213.1346536510251 33.3741995077377, 172.56166288213285 -2.3118977784566823 M263.8541789290044 58.1292272837765 C252.13433194187206 42.790855584417656, 237.33824263610387 24.07895693073986, 196.2684944879539 -2.666603168250589 M262.32367802155346 55.31992372068832 C237.16071403653623 34.38402383322153, 215.6441686143747 13.210376724456566, 195.6209413830466 -0.7025301472857279 M264.78597199792887 33.652120304382294 C253.3107621849248 29.4805511278781, 244.417301366415 21.231477010056654, 221.8740676568666 -2.7974044639072844 M264.15177510182286 36.3337483714287 C247.8705940224352 19.786474269554077, 234.1677984782555 8.334250795843388, 220.4627653101304 -3.772983766665263 M264.31211778902133 13.175265095007589 C262.25186463289083 8.837920388553488, 256.28786181404723 6.843607667692418, 249.0973601395995 -4.069120440409961 M265.67860646553953 14.950169305128028 C258.57271556807797 10.75169216447217, 255.1595811617443 4.168220291769596, 247.81465397950117 -1.5781745461388255" stroke="#f2aa74" stroke-width="2" fill="none"></path><path d="M2.7119265935777546 -0.8874142082126498 C49.884869213248116 5.435253060673778, 105.08489324872659 2.8324349085249594, 259.5426863809507 0.13979887245026826 M0.18330661496620773 0.04527823381394744 C61.90604395790267 -3.821572061300576, 122.0368878426421 -5.114457236944306, 261.1607720944517 1.1615472789530694 M262.53197699040174 -1.9386963173747063 C262.3425635989383 32.215373980067675, 258.607393472977 70.45398559831084, 259.61382012814283 122.711405582726 M261.257674369961 -1.8004876114428043 C263.86316786374897 28.396878422982994, 262.0157165345177 58.54483268372715, 260.81187799945474 122.16291167959571 M259.88397490357147 120.58258629979898 C172.03573757021096 119.91212645665712, 77.62184378625227 116.55450773797999, 1.6346473745138048 125.17048715587694 M260.09691518741687 123.71572539855202 C161.41069325124957 119.5784566835192, 57.13114209633837 118.04953264758494, 0.14432402140675188 122.10941972531957 M-3.019031710922718 119.3202820494771 C2.3319195161387323 81.50308643970638, -0.0029057611897589375 38.02677980698644, 0.7169709727168083 0.9058240130543709 M-0.6221214197576046 124.5769468806684 C0.6662017602100967 94.89320736210793, 0.45927624884992824 66.62172599174082, -0.49790283665060997 1.7321720384061337" stroke="#ffffff" stroke-width="4" fill="none"></path></g><g stroke-opacity="0.7" fill-opacity="0.7" transform="translate(1052.5 84.43659142404789) rotate(0 130.5 61.5)"><path d="M0 0 C0 0, 0 0, 0 0 M0 0 C0 0, 0 0, 0 0 M2.4139558525941585 22.023317759572624 C4.474092258855867 17.335206654607678, 13.500812217875772 13.711144865981526, 21.95328664621141 0.8969210660248521 M0.1268270055017684 24.026739762812017 C5.784050830409809 15.049366970620593, 14.127679006107574 9.345284850378324, 19.935151296013856 -0.5145683200866458 M-3.620298603549678 45.86692040846579 C14.304496765902678 33.69614030146459, 21.293348066483446 24.549597890177328, 39.959429670680095 -2.7759230110467428 M1.2808117661624365 47.36557678193681 C12.500258545069721 32.634955076358914, 23.224460463808345 17.98595328279252, 44.34726501311712 -1.5761082332254404 M-1.880322338808476 70.22155291805414 C19.00646038719454 51.268463678355666, 34.190693396486346 31.83046783505921, 61.02832446516831 3.641923524674631 M-0.7541799971649041 74.23852639491109 C14.214650568596323 55.77002364273061, 30.68824675924331 39.02873810994007, 64.33072501317938 -2.1812234332294693 M-3.204356458038248 101.11103874565825 C32.55284836276644 63.602252790999216, 60.73935467711535 30.756670040584183, 88.39166048280106 1.0320524700639737 M-1.1854079440237655 97.77475873874292 C34.96360715841831 60.599068918412925, 66.34411402297789 23.308347641579815, 84.79898344463811 -1.0812566935362327 M0.6389065498670163 125.22005052770754 C27.922760859903114 86.31910951075585, 58.09486317180603 54.82641248528145, 106.97643967670334 0.7057431219962851 M0.8689481320043626 121.55726187954923 C22.794371750686302 94.25620029655789, 50.63291008036498 63.640820504978684, 107.50533620593083 -0.9298945375832304 M14.760913101880433 135.0970142775127 C50.17374550414493 89.09560548168479, 83.5611680235267 55.56521046875022, 125.99891747100963 -2.091328142430662 M13.315378593205097 133.7007460103282 C48.299726653309676 88.7917316613985, 82.75441601563072 48.85555679548075, 126.76186391650452 2.0965423414148106 M31.409359593145993 130.05481595239422 C69.58335580985232 86.01914370875302, 114.76352755204945 41.21375581373141, 144.83883887682597 1.552073813212587 M34.466155030034926 132.62735001808784 C73.1500444618705 88.21479748967138, 109.69143429783225 45.519066815791746, 148.4386680327777 0.9052607595748441 M52.49848754193109 129.1472535525687 C77.67179428708818 104.93279071518162, 104.7202925807043 68.76069355867428, 168.35308431828685 -0.5089996339762024 M52.69462540607375 132.91809358273224 C95.32638536899545 90.82635501647152, 132.2023999181412 47.36477995167597, 170.4025166741974 -0.35974747631786386 M71.22873640136072 134.78716887491117 C115.5634711677589 78.28109388731218, 159.32291504811622 31.276758198124952, 188.74990574851728 -3.744519187122023 M77.17986686975905 133.8060089308239 C103.94905157307171 100.47003627988222, 130.7697270569888 68.96972255423708, 189.51608073920107 0.2884561102991938 M97.49585812455987 136.8170912162966 C142.75267929663127 84.08722502855707, 185.11999023425477 39.47862796842824, 212.18286762064218 -1.444768049349861 M96.44080031952834 132.12178453892534 C140.28141869004014 82.50793257379254, 184.45092981755133 31.18460831368742, 213.3568748762262 1.0594662459885313 M121.14091716465356 129.25923737360003 C162.013064270825 87.05631034682591, 202.04466643885678 38.381272653527915, 230.00084688778668 0.029658076215270057 M118.7111904038191 131.91876513359907 C159.11564917744917 88.79023753494133, 195.08631284157303 42.705797692256, 232.59225748371034 -1.9894660926873655 M139.20029047476677 135.0655116436964 C175.53366033325398 91.90230990420923, 209.3425643886724 56.397400315281615, 253.99803300307565 -2.0021490135516444 M140.31464552106885 134.09795169140753 C164.59089504886705 98.59825241567611, 195.05848506113773 62.83129285671221, 253.35443071009092 -1.328433679166011 M159.15566750802452 134.86750582346073 C185.57662567292175 105.93015220915996, 217.85097104654656 68.74621228465317, 273.10333762972914 9.755685780452126 M162.0396178197151 134.03300143891326 C197.30517146816993 91.63632195940671, 232.3970361684739 49.78379414615034, 271.0548501639005 7.217222765342825 M177.5279911885613 132.48120878999083 C204.77168193023144 106.8563982735791, 224.3071691899816 80.65661488847033, 269.87886687298595 35.288144217774885 M180.8583441692048 131.94993743290155 C204.45388459472542 107.02950039519587, 225.10626551977032 83.91134595049334, 268.0076971456903 32.05423793007495 M201.7516940274831 136.6381681797161 C228.84270070271162 103.01277046772498, 254.82604263007426 77.00753691786643, 270.7319872947718 55.60447941061335 M200.9260822759565 131.5333102394893 C223.84013456896497 109.59454589526763, 242.32206425265085 86.595133891761, 268.7669446626986 57.03158660691457 M225.48834394892444 134.26374786973435 C233.24128229891556 117.76620237598159, 247.5984060714212 102.98896496064833, 267.0502564061927 80.73311399539702 M222.0197565094172 134.07945541546184 C237.369997153036 116.16644696488888, 250.70988351902986 103.58179794317961, 270.386287921344 82.3103818619787 M242.5008804060103 136.20828965692056 C251.4112301379542 126.3875955874561, 258.3734930308216 116.6378528988669, 268.94836713138307 106.39628684922366 M246.53719401802437 133.10265518738163 C252.8039498811789 124.02069928835245, 262.8433976163801 110.95541990526883, 269.2910887910732 105.91352175205259 M0.22998977043796032 123.19992705727512 C0.22998977043796032 123.19992705727512, 0.22998977043796032 123.19992705727512, 0.22998977043796032 123.19992705727512 M0.22998977043796032 123.19992705727512 C0.22998977043796032 123.19992705727512, 0.22998977043796032 123.19992705727512, 0.22998977043796032 123.19992705727512 M25.278732979024298 122.26019875232653 C14.5086649254757 120.12758531341373, 11.243964553069617 112.64410381212531, 1.5973116616056728 98.13459858004717 M24.655685943836815 123.15676321734266 C15.029284511396579 116.45598802955617, 7.692922194944213 108.66288964221818, -1.7144063664330673 102.193667122021 M47.47593756044309 124.76931053879262 C36.225918069745134 108.29977938673558, 13.54035686631434 96.33332744688433, -3.7726964741512248 79.41154042496325 M50.68106046715777 123.25714056300522 C37.41984398205874 112.94287831726233, 22.612053478774587 100.77773550357679, -1.7765501938327262 79.38863767920972 M72.69920190978364 124.13956758093619 C48.97260315556978 102.95088979222827, 16.47453141271454 77.07085993819356, -0.5267301836385947 58.39001272642229 M72.11523477915243 123.46220488187456 C50.60058534652144 104.91301172749408, 33.751107307202 90.98249523860324, 0.6708846836015958 60.457269277658206 M93.44273756039374 122.52580820462272 C69.8817971731166 104.58577632374663, 41.213724939531964 76.1677679906648, -1.6674750137314298 38.43598228129932 M95.5599643584811 123.18057867950365 C71.13222637900819 99.0992218086478, 38.71369673855503 73.01935108395901, -0.9664620856925943 37.03103164392897 M121.14606854562112 119.26255823571773 C76.0815085690264 82.73824692953534, 27.958762962193347 41.08566271002866, -4.002304011304734 18.8451033864693 M123.831848433804 124.54354071144553 C75.42555909839925 84.46008906129578, 29.566001120159314 45.54714238396873, -1.6931071032778 18.089050754584488 M147.17990265814527 125.6458539131152 C103.2498550924556 85.28151666357013, 65.8841204557059 54.004000858968126, 1.3708510174348087 -2.439105074221223 M146.07320124311312 124.06184889628166 C116.10528766872903 92.552317050148, 83.2592080637222 61.07472843594501, 1.7154055199517937 -2.448714076841205 M167.3790985115367 122.27565509167115 C113.00620568202471 76.9471761976317, 66.0793667567705 31.215098412950866, 23.407691111404272 1.0459209498559332 M171.4100190952915 122.84315351855557 C139.01311310876005 98.13021254299451, 106.65845282464758 69.74568216396486, 26.18169576822576 -2.97528962003242 M195.25498889847495 126.55737301027956 C140.95102469502373 74.93381397459297, 92.18972065086297 33.46512897808333, 48.25491247749104 -5.484754556158435 M195.2893037283311 122.96852499684873 C164.80576616097167 98.67936848972502, 133.86716010831847 73.37990647856189, 52.58891004374399 -3.0882339601608635 M222.5283478523077 126.04428349480594 C184.30843619827016 94.7662288272175, 151.99374948795852 59.44254143547239, 78.87697290837457 -0.8288453533703404 M221.13702937089218 121.70986708671415 C161.86755901955644 75.22913262915054, 105.15539716553573 25.632591545449927, 74.53248758449843 -1.4799141786450463 M244.11526190638273 125.21934987111577 C203.69298037592728 87.77862334971397, 158.72959596291736 47.92401284750744, 97.70248101762539 -1.4801415869237715 M242.469014001635 123.18673979370483 C205.61027437401304 93.29556949901637, 169.03467519969175 59.48095545986534, 98.09154969937211 -0.7458049909414584 M263.3394534522657 116.99675073315055 C210.9017215738654 70.32238080805621, 155.57166935763723 24.937439098369893, 127.83651959792299 -2.126982017924739 M265.2282427074377 118.74288714144976 C231.08400934275735 89.73882856942677, 200.5207457195185 63.41166868229179, 124.16622312635702 -3.00796097846861 M266.6540232584033 95.53552576898461 C229.35212872886729 74.26283416110859, 200.11885347580912 50.145248679306924, 145.5936126826151 -2.3098408205077448 M263.6316102020595 96.63488299771076 C229.85298703838916 66.45147081789884, 192.6613948008099 36.3175676611765, 146.1356070941134 -3.697603385673503 M265.6834444439355 73.66523555823662 C242.1920742845162 52.332752177182385, 215.85006755771207 30.17746769975703, 169.4835968050495 0.36049533119273747 M263.33691479995286 76.332790871794 C242.17315140180958 57.59403884122502, 219.06517445481194 41.48271419144719, 171.96864458130153 -3.898297207003111 M267.8703439619872 58.43153439778159 C241.65352488444574 34.24214361337394, 212.09942291278912 9.151913789447512, 197.1974922579057 0.9847501760706621 M265.21463989955515 56.94073674026201 C244.03740145324022 36.76267137168155, 221.37035629314275 17.62111066995172, 198.33499357591342 -2.68912827387598 M260.1026612656834 37.55976408449456 C252.60313951456462 26.53473339998728, 242.99247314458592 12.362276565676929, 222.1404701547542 0.7175710689820818 M262.1001126493039 36.53550282967731 C247.67569687958195 21.77213330428665, 236.4545750913761 11.375210186475442, 220.26299413683205 -2.9272900517485567 M267.9636483081492 12.20495391525047 C254.20069838943942 3.969496578680822, 248.5615196079281 2.41605206480712, 246.64417578827445 -5.730943251179042 M263.1685039476367 13.791527616602352 C259.0090330939435 7.876972316001358, 250.19344115978936 1.7818043408658877, 245.47699175204937 -2.87155587203938" stroke="#f2aa74" stroke-width="2" fill="none"></path><path d="M-3.010503589799106 2.3675848073484302 C57.019129755224945 4.609106838308284, 113.30581592877682 5.374759414010569, 263.3688019755074 2.4491453160959122 M0.06806008733300567 -0.4710315484834611 C61.70609605973144 -3.830255283643854, 120.84888365722144 -4.573015709962404, 261.0428950247207 1.394211891115576 M261.01572520285845 -0.9287328198552132 C263.95612219076605 37.2815178969875, 259.1781277964637 77.05041576959194, 258.03891975432634 124.69546108692884 M260.4075318835676 0.9715516902506351 C262.9433994874731 40.665248562209314, 260.42630880925805 84.00766140706838, 260.906186606735 122.53369370475411 M260.585740015234 122.05463696067713 C193.84187132071654 125.40652470916979, 130.80675750863315 126.92522377600977, -1.8404624081069827 123.16046786783771 M261.96445408832597 124.54715038296376 C188.84767685601503 120.07010649908395, 116.26727821559254 122.04179601137623, -1.4086931481267035 123.09890277589531 M-0.37779276818037033 126.56528716534376 C3.8945379646494986 85.83770006801933, 0.448864737339318 40.48272497020662, -3.5607597157359123 -1.4322382882237434 M1.8927086852490902 121.94094565883279 C-1.3746760547533632 82.99238215107471, 0.02910881634801621 46.88320844434202, 1.3805525563657284 0.6524483300745487" stroke="#ffffff" stroke-width="4" fill="none"></path></g><g><g stroke-opacity="0.7" fill-opacity="0.7" transform="translate(993 144.3033261851608) rotate(0 12.207748686522223 1.633265238887077)"><path d="M-1.079464078694582 1.189457333832979 C3.4117263945440452 1.1114577022691567, 20.548510002344848 1.5929898547629517, 25.494961451739073 2.0842368967831137" stroke="#ffffff" stroke-width="4.5" fill="none" stroke-dasharray="3 6"></path></g></g><g stroke-opacity="0.9" fill-opacity="0.9" transform="translate(781 11) rotate(0 44.5 32)"><text x="0" y="45" font-family="Virgil, Segoe UI Emoji" font-size="50.666666666666664px" fill="#ffffff" text-anchor="start" style="white-space: pre;" direction="ltr">[0]</text></g><g stroke-opacity="0.9" fill-opacity="0.9" transform="translate(1131 11) rotate(0 52 32)"><text x="0" y="45" font-family="Virgil, Segoe UI Emoji" font-size="50.666666666666664px" fill="#ffffff" text-anchor="start" style="white-space: pre;" direction="ltr">[n-1]</text></g><g><g stroke-opacity="0.7" fill-opacity="0.7" transform="translate(81.03215454891324 82.06882201507682) rotate(0 1.9678454510867596 63.867769408971085)"><path d="M1.8135004989802832 0.2825862772762777 C2.3578401319682594 21.301010239869356, 1.912425406028827 106.28677441750963, 2.1221904031932355 127.45295254066586" stroke="#ffffff" stroke-width="4.5" fill="none" stroke-dasharray="12 8"></path></g></g><g><g stroke-opacity="0.7" fill-opacity="0.7" transform="translate(245.2488849766553 83.06329954937098) rotate(0 1.7511150233447665 62.87329187467695)"><path d="M0.27526853010058394 -1.3127835147082805 C0.594412087649107 19.799216243376335, 2.419972347468138 106.08518463447689, 3.2269615165889265 127.05936726406216" stroke="#ffffff" stroke-width="4.5" fill="none" stroke-dasharray="12 8"></path></g></g><g><g stroke-opacity="0.7" fill-opacity="0.7" transform="translate(412.5310847274959 82.12747237905853) rotate(0 0.46891527250409126 63.809119044989345)"><path d="M-0.09861153289675695 -0.07730445936322194 C-0.10724572663505845 20.741529599080483, 0.4309402751425905 106.45135474130512, 1.03644207790494 127.69554254934192" stroke="#ffffff" stroke-width="4.5" fill="none" stroke-dasharray="12 8"></path></g></g><g><g stroke-opacity="0.7" fill-opacity="0.7" transform="translate(577.8443146698177 83.05001819357267) rotate(0 1.1556853301823367 62.88657323047521)"><path d="M0.07809077575802803 0.719836615771055 C0.18459940428535154 21.59784425819913, 2.193038905411959 104.4476698073248, 2.2332798846066 125.05330984517931" stroke="#ffffff" stroke-width="4.5" fill="none" stroke-dasharray="12 8"></path></g></g><g stroke-opacity="0.7" fill-opacity="0.7" transform="translate(104.5 113.93659142404789) rotate(0 19 32)"><text x="0" y="45" font-family="Virgil, Segoe UI Emoji" font-size="50.666666666666664px" fill="#ffffff" text-anchor="start" style="white-space: pre;" direction="ltr">2</text></g><g stroke-opacity="0.7" fill-opacity="0.7" transform="translate(31.5 113.93659142404789) rotate(0 19.5 32)"><text x="0" y="45" font-family="Virgil, Segoe UI Emoji" font-size="50.666666666666664px" fill="#ffffff" text-anchor="start" style="white-space: pre;" direction="ltr">0</text></g><g stroke-opacity="0.7" fill-opacity="0.7" transform="translate(267 113.93659142404789) rotate(0 18.5 32)"><text x="0" y="45" font-family="Virgil, Segoe UI Emoji" font-size="50.666666666666664px" fill="#ffffff" text-anchor="start" style="white-space: pre;" direction="ltr">3</text></g><g stroke-opacity="0.7" fill-opacity="0.7" transform="translate(202 113.93659142404789) rotate(0 4.5 32)"><text x="0" y="45" font-family="Virgil, Segoe UI Emoji" font-size="50.666666666666664px" fill="#ffffff" text-anchor="start" style="white-space: pre;" direction="ltr">1</text></g><g stroke-opacity="0.7" fill-opacity="0.7" transform="translate(438 114.93659142404789) rotate(0 14.5 32)"><text x="0" y="45" font-family="Virgil, Segoe UI Emoji" font-size="50.666666666666664px" fill="#ffffff" text-anchor="start" style="white-space: pre;" direction="ltr">4</text></g><g stroke-opacity="0.7" fill-opacity="0.7" transform="translate(357 113.93659142404789) rotate(0 19 32)"><text x="0" y="45" font-family="Virgil, Segoe UI Emoji" font-size="50.666666666666664px" fill="#ffffff" text-anchor="start" style="white-space: pre;" direction="ltr">2</text></g><g stroke-opacity="0.7" fill-opacity="0.7" transform="translate(598 113.93659142404789) rotate(0 19.5 32)"><text x="0" y="45" font-family="Virgil, Segoe UI Emoji" font-size="50.666666666666664px" fill="#ffffff" text-anchor="start" style="white-space: pre;" direction="ltr">0</text></g><g stroke-opacity="0.7" fill-opacity="0.7" transform="translate(510 113.93659142404789) rotate(0 27 32)"><text x="0" y="45" font-family="Virgil, Segoe UI Emoji" font-size="50.666666666666664px" fill="#ffffff" text-anchor="start" style="white-space: pre;" direction="ltr">n-1</text></g><g><g stroke-opacity="0.8" fill-opacity="0.8" transform="translate(285.4427377238512 182.5) rotate(0 9.487191438087507 38.35053220339046)"><path d="M0.857852291315794 -2.612045895308256 C3.412824208043905 10.657596642101554, 12.927242846801338 65.50737538797034, 15.815682119893381 79.31311030208914 M-2.1209806783497336 2.1416753800213337 C1.269947862727336 14.620198532665519, 17.984079636250396 62.82270555001869, 21.09536355452473 75.13564139187186" stroke="#ffffff" stroke-width="2" fill="none"></path></g><g stroke-opacity="0.8" fill-opacity="0.8" transform="translate(285.4427377238512 182.5) rotate(0 9.487191438087507 38.35053220339046)"><path d="M-0.6748569286732469 48.21128870950193 C10.921710834021912 59.09768917354499, 17.945266518983573 63.51265964306191, 19.96989773677523 75.7751528057441 M4.543577505710861 51.25987086475939 C7.906379256432 55.2227104943982, 10.900559011046203 60.806642724729656, 20.24196860285337 76.90792926356046" stroke="#ffffff" stroke-width="2" fill="none"></path></g><g stroke-opacity="0.8" fill-opacity="0.8" transform="translate(285.4427377238512 182.5) rotate(0 9.487191438087507 38.35053220339046)"><path d="M18.953604941196723 42.22434566576918 C24.30801276941616 55.13098704953461, 25.102440594852773 61.44592471741623, 19.96989773677523 75.7751528057441 M24.17203937558083 45.27292782102664 C22.72447802100211 51.005584829889656, 20.8824702325817 58.06461885683223, 20.24196860285337 76.90792926356046" stroke="#ffffff" stroke-width="2" fill="none"></path></g></g><g><g stroke-opacity="0.8" fill-opacity="0.8" transform="translate(215.44497773496335 182.90450898153824) rotate(0 -15.078675409929275 34.117719352187294)"><path d="M-0.4371604926884176 -1.37414256259799 C-5.368168796922203 9.543481117566946, -22.78352283848045 55.46645045618476, -27.89712010145447 67.03244678649618 M-4.119000402241945 4.05158337906003 C-9.506694039727684 15.138152320862336, -26.136650895006635 58.51536721408627, -29.72019032717011 69.60958126697255" stroke="#ffffff" stroke-width="2" fill="none"></path></g><g stroke-opacity="0.8" fill-opacity="0.8" transform="translate(215.44497773496335 182.90450898153824) rotate(0 -15.078675409929275 34.117719352187294)"><path d="M-31.808693839322913 40.701787578989155 C-32.242225664427295 46.90933238950248, -30.783613950826545 60.54550923843283, -31.257223117652153 67.49975190821601 M-28.39398476676284 40.12342912622202 C-30.40158309652211 46.51257873392835, -27.675254872412875 51.73020921952701, -30.459001667353128 70.4473792924316" stroke="#ffffff" stroke-width="2" fill="none"></path></g><g stroke-opacity="0.8" fill-opacity="0.8" transform="translate(215.44497773496335 182.90450898153824) rotate(0 -15.078675409929275 34.117719352187294)"><path d="M-12.495886111157837 47.639759908190726 C-19.963846755616338 51.287116341406175, -25.464005039929226 62.423410502621806, -31.257223117652153 67.49975190821601 M-9.081177038597765 47.06140145542359 C-15.186984281575846 52.18991735983145, -16.529393153984415 55.945886455342915, -30.459001667353128 70.4473792924316" stroke="#ffffff" stroke-width="2" fill="none"></path></g></g><g stroke-opacity="0.8" fill-opacity="0.8" transform="translate(277 259.2297442837543) rotate(0 43.34615384615387 24.5)"><text x="0" y="34.000000000000014" font-family="Virgil, Segoe UI Emoji" font-size="37.69230769230767px" fill="#ffffff" text-anchor="start" style="white-space: pre;" direction="ltr">next</text></g><g stroke-opacity="0.8" fill-opacity="0.8" transform="translate(145.6538461538462 259.2297442837543) rotate(359.414666847241 38 24.5)"><text x="0" y="34" font-family="Virgil, Segoe UI Emoji" font-size="37.69230769230767px" fill="#ffffff" text-anchor="start" style="white-space: pre;" direction="ltr">prev</text></g><g><g stroke-opacity="0.7" fill-opacity="0.7" transform="translate(677 242.5) rotate(0 25.666310546625823 23.464505365639923)"><path d="M0.17267706319689768 2.494517577439546 C0.380457400530577 9.15918101146817, -5.543976744761069 33.03188697174191, 3.6579805843532087 39.780787313729526 C12.859937913467487 46.52968765571714, 46.61601295396686 42.46130093410611, 55.38442103788257 42.98791962936521 M-3.1781081731617453 1.3803733094036579 C-3.4115190386275454 7.357819743106762, -7.083449725260337 28.918311958263317, 2.320018223971129 36.27968931034207 C11.723486173202595 43.641066662420826, 44.12987066194415 44.10005603944262, 53.24269952222705 45.548637421876194" stroke="#ffffff" stroke-width="4" fill="none"></path></g><g stroke-opacity="0.7" fill-opacity="0.7" transform="translate(677 242.5) rotate(0 25.666310546625823 23.464505365639923)"><path d="M27.776157581579085 55.48362412495325 C39.40536569052376 49.27833754982595, 45.196036654073566 47.61966782001299, 51.72912735834718 47.90671477660537 M23.88645154736578 51.483646614530784 C35.927242193533 52.696572662065705, 45.87709456253303 47.040667290046215, 53.67346852242947 47.19904619276524" stroke="#ffffff" stroke-width="4" fill="none"></path></g><g stroke-opacity="0.7" fill-opacity="0.7" transform="translate(677 242.5) rotate(0 25.666310546625823 23.464505365639923)"><path d="M29.70430397900234 35.053199414342274 C40.55878438241869 36.73884178895264, 45.60496368987535 42.968722818467924, 51.72912735834718 47.90671477660537 M25.814597944789035 31.053221903919805 C37.2786864859362 39.766063257732476, 46.517438939238616 41.64489347881781, 53.67346852242947 47.19904619276524" stroke="#ffffff" stroke-width="4" fill="none"></path></g></g><g stroke-opacity="0.8" fill-opacity="0.8" transform="translate(744.6538461538462 259.2297442837543) rotate(0 113.5 24.5)"><text x="0" y="34" font-family="Virgil, Segoe UI Emoji" font-size="37.69230769230767px" fill="#ffffff" text-anchor="start" style="white-space: pre;" direction="ltr">aligned block</text></g><g><g stroke-opacity="0.7" fill-opacity="0.7" transform="translate(42 173.5) rotate(0 1.8058261699941625 42.724037096786944)"><path d="M2.519424689561128 -0.05081019476056081 C2.7421144190467293 14.871111905819319, 3.3283281490389998 73.85803276720713, 3.2045907239835856 87.99477801842178 M0.4425881646573542 -2.5467038248479366 C0.13595875084766723 11.637518935547414, 1.2384269154255092 68.60891834371358, 1.0431727762740253 83.46902413023199" stroke="#ffffff" stroke-width="2" fill="none"></path></g><g stroke-opacity="0.7" fill-opacity="0.7" transform="translate(42 173.5) rotate(0 1.8058261699941625 42.724037096786944)"><path d="M-9.417446080521849 55.526507710373025 C-4.568094130499438 63.62143851988279, -5.365795837253534 74.50199745104172, 2.2870857785862087 80.39355874163593 M-10.861640319154766 54.82641466081701 C-6.544579064224701 63.45538852509424, -2.3366018481876454 71.6838732947141, -0.4533920627612473 82.7876790585884" stroke="#ffffff" stroke-width="2" fill="none"></path></g><g stroke-opacity="0.7" fill-opacity="0.7" transform="translate(42 173.5) rotate(0 1.8058261699941625 42.724037096786944)"><path d="M11.103552523512509 55.433670869305246 C8.426210553247385 63.93194142117386, 0.10283397935698968 74.84654644799554, 2.2870857785862087 80.39355874163593 M9.659358284879591 54.73357781974923 C7.714065244257327 63.65733282345166, 5.657891138863112 71.9141565658415, -0.4533920627612473 82.7876790585884" stroke="#ffffff" stroke-width="2" fill="none"></path></g></g><g stroke-opacity="0.8" fill-opacity="0.8" transform="translate(19.0004957364053 259.2297442837543) rotate(359.414666847241 28.5 24.5)"><text x="0" y="34" font-family="Virgil, Segoe UI Emoji" font-size="37.69230769230767px" fill="#ffffff" text-anchor="start" style="white-space: pre;" direction="ltr">null</text></g></svg>