<svg version="1.1" xmlns="http://www.w3.org/2000/svg" viewBox="0 0 1131.3616071428576 371.4285714285712" width="1131.3616071428576" height="371.4285714285712">
  <!-- svg-source:excalidraw -->
  
  <defs>
    <style>
      @font-face {
        font-family: "Virgil";
        src: url("https://excalidraw.com/Virgil.woff2");
      }
      @font-face {
        font-family: "Cascadia";
        src: url("https://excalidraw.com/Cascadia.woff2");
      }
    </style>
  </defs>
  <g stroke-opacity="0.2" fill-opacity="0.2" transform="translate(10 68.78571428571382) rotate(0 73 20.071428571428555)"><path d="M-1.2221266999840736 -1.2779349312186241 C30.75320588983596 -1.033624377325177, 60.92607113346459 -0.17453476436436155, 144.140236876905 3.374285079538822 M0.25924866273999214 -1.8078008778393269 C43.863847445324076 -0.4762394718080758, 87.46300265491011 1.6809028097242118, 144.43803124502304 -1.793771494179964 M142.25793745368722 -1.1011730656027794 C144.0153743601857 16.886745213530947, 147.15936320791823 26.13379587791858, 147.14229657500985 43.94082944201568 M144.77601628378036 1.0820343606173992 C144.77622674797797 14.451501025019999, 146.12355719898963 31.417414680389395, 147.66798322275284 39.36100264372567 M143.30790974944833 42.25437276171783 C105.72968931458891 39.945042929298076, 72.7938257522881 41.05607040846983, -0.317229725420475 39.14678137110809 M144.53035180643204 38.75490542235116 C106.12605951093138 42.32140470529238, 69.9821927830577 44.1432274677817, 1.301640797406435 39.645788748881614 M2.5935616716742516 41.95831053065399 C1.853702443651855 33.624279944039856, 0.5042983470484613 24.48737002392963, 3.263366959989071 -2.013474367558956 M-1.1758648864924908 39.96892126383523 C0.6583914074248495 29.402757699814202, 1.9480970415419758 17.163265736134974, 1.2854151017963886 0.2723788134753704" stroke="#ffffff" stroke-width="4" fill="none"></path></g><g stroke-opacity="0.7" fill-opacity="0.7" transform="translate(174.60491071428567 68.78571428571382) rotate(0 73 20.071428571428555)"><path d="M-1.5245474800467491 0.5685906633734703 C34.084206330403696 -2.5757178270071743, 70.26044213548305 2.756762842014432, 149.14622721821073 -0.46594975143671036 M-0.30241452530026436 -1.8515507690608501 C29.502178318426022 1.0105620042234662, 60.055683973431606 1.1683096305280927, 145.27265001460913 -1.9111448042094707 M146.67858157306912 3.811113618314266 C144.06054030433833 10.780324741426316, 143.37531076446712 24.36015445584696, 148.06503162533048 41.28444346891979 M146.3320496194065 0.36717836931347847 C145.3341834349239 14.86274263520857, 146.68127093740344 25.685382859355613, 145.04482091590765 40.69328891964892 M145.63638744503263 40.201216311327016 C89.4416493330151 43.513856839633384, 33.92425649687648 37.82657737681905, 0.4848507419228554 36.37302050100902 M145.99731744453314 38.653222200593746 C95.94526807405057 35.93528697381059, 43.41141862422229 36.540780876970686, 0.9804859273135662 41.17905449601153 M-0.19580759853124619 36.3142684410725 C-1.5552398506924512 27.587180732749378, -3.4987854306027293 26.10303583448485, 2.400069333612919 -2.25319717079401 M-1.7627878077328205 40.61259007187823 C-1.4900308908256037 22.168747997044434, 0.09327029573598078 9.724101021087588, 0.7914370410144329 -0.5425931923091412" stroke="#ffffff" stroke-width="4" fill="none"></path></g><g stroke-opacity="0.2" fill-opacity="0.2" transform="translate(341.24107142857156 68.78571428571382) rotate(0 73 20.071428571428555)"><path d="M-3.995771311223507 0.12303593009710312 C33.99903072081507 3.804677585437894, 60.778111622482555 3.1898315943032505, 145.68397555500272 1.1840155348181725 M1.798874270170927 1.459895420819521 C48.30252478830517 -0.2946105917543176, 97.89981468021871 0.3275230208784339, 147.53009725734594 -0.6752906553447247 M149.52931819111112 3.718403123319149 C148.38495946627114 9.152955821236322, 147.52498627405618 19.51258023546209, 149.45403728634122 41.97670611845592 M145.1322214715183 -0.5373483411967754 C147.34339345062952 13.811443315260101, 145.48244262303095 25.62695936746893, 144.1896277777851 39.66531860562304 M143.66650638729337 40.07267817961315 C93.20920027829709 40.3219576735262, 49.021036320179704 36.91782030055562, 0.27003560215234756 43.031408638826406 M144.39578641578558 39.14893352719287 C95.88034221269191 40.63225209603349, 47.54032449275256 39.61814761052171, -1.4316835291683674 39.34722065659503 M-0.941384457051754 38.57373079763988 C0.5069437051830549 23.838993252095346, -2.9043142770709736 7.286651641609403, 0.31385526806116104 -1.8923554196953773 M-0.4603576548397541 38.21850037308673 C0.9832389409680454 28.036369262183328, 0.4737361724515049 19.68058168765688, -0.2157946713268757 -0.6245796196162701" stroke="#ffffff" stroke-width="4" fill="none"></path></g><g stroke-opacity="0.7" fill-opacity="0.7" transform="translate(510.11607142857156 68.78571428571382) rotate(0 73 20.071428571428555)"><path d="M0.12303593009710312 3.0673817172646523 C48.81192446388305 1.8317266725748782, 95.4261288546026 2.60088861219585, 147.1840155348182 1.6138812080025673 M1.459895420819521 -1.3881416209042072 C43.5740562785417 -4.107874572649598, 86.75442883670333 -1.0962591771036387, 145.3247093446553 -0.9552241452038288 M149.71840312331918 3.0371657386422157 C145.61839637238535 10.959018327428819, 145.85243496377024 21.017688848344328, 147.83384897559884 41.86675827311615 M145.46265165880325 1.6582220904529095 C145.42525533651138 10.265985206594419, 143.46785632585312 19.127055665265225, 145.52246146276596 40.880126317164695 M145.92982103675607 36.534122393599546 C99.70663367770615 39.82457307065169, 47.244211394339814 38.7094424077336, 2.8885514959692955 41.41211907672027 M145.00607638433578 38.45600541414956 C116.79894885085525 36.20664191985766, 84.60358965843918 36.36902178073565, -0.795636486262083 41.97402878584603 M-1.569126345217228 40.84504716204742 C-1.3832642516227698 24.414700466899976, -2.2173256358238196 14.418534985131437, -1.8923554196953773 -1.8884641155600548 M-1.9243567697703838 41.51722355665902 C-2.0845091029203364 27.009226281116028, -0.2926481648481317 11.930073457477338, -0.6245796196162701 -1.0828184969723225" stroke="#ffffff" stroke-width="4" fill="none"></path></g><g stroke-opacity="0.7" fill-opacity="0.7" transform="translate(676.7767857142867 68.78571428571382) rotate(0 73 20.071428571428555)"><path d="M-1.4196450486779213 0.31385526806116104 C44.47063815034927 0.08915549747645879, 94.67466494068505 2.6037321709841494, 145.07928469032052 -3.8487135395407677 M-0.16697843000292778 -0.2157946713268757 C53.20829520113768 -2.34551941908896, 106.93408229053024 0.4226000352948902, 145.16251521185043 1.7717912308871746 M149.38277628272775 1.9939435496926308 C147.145936084576 11.38740224404526, 143.74918396551166 15.064407386151796, 145.92616250365975 43.93307130145172 M146.21033911779526 1.2795550934970379 C147.01653886446465 9.99653544380728, 145.01192534574975 18.75869325383432, 144.15584914758804 41.137060363909995 M147.12912919372323 40.33816735552887 C111.97838673852385 40.29011408293883, 66.77371209338308 38.999987997657456, 0.7792277559638023 38.24586527155975 M145.73977534845474 38.838702400347984 C107.53178513310851 42.34003092790285, 70.84642751663924 39.69177617574373, -1.8294355385005474 39.45997818293313 M3.828935168683529 42.67238466548065 C-0.3741247640496925 29.77919057317608, -0.4888792024499611 12.920031209875418, -2.5160605683922768 3.240303136408329 M0.3013351447880268 41.89163120569924 C-1.6867615871397508 29.962304759690777, 0.7226797647508133 23.40213038277411, -1.7688027136027813 -1.8757883198559284" stroke="#ffffff" stroke-width="4" fill="none"></path></g><g stroke-opacity="0.2" fill-opacity="0.2" transform="translate(973.6875000000007 68.78571428571382) rotate(0 73 20.071428571428555)"><path d="M0.31385526806116104 -1.8923554196953773 C39.77415550909938 2.985018686130643, 83.9513518072665 0.11562557585537436, 142.15128646045926 2.748732827603817 M-0.2157946713268757 -0.6245796196162701 C28.417654116079216 -0.4878788431733847, 60.686246183514605 -0.5936962803453207, 147.7717912308872 -1.8654938451945782 M147.99394354969266 1.6490872129797935 C149.51502428002127 7.779436594753387, 144.89348492569692 18.980365505335573, 149.79021415859464 37.57050666319469 M147.27955509349707 1.403918195515871 C145.8903837151134 9.505265164401907, 145.1912218279445 18.367770122789896, 146.9942032210529 39.326540586671626 M146.19531021267179 43.96213302122692 C105.50625528432431 37.42261182735005, 63.45645969435573 41.74634921023885, -1.8969918712973595 38.4482377480183 M144.6958452574909 39.28928148480395 C106.80016028024258 39.83863508591691, 63.902655692398554 37.933493613100445, -0.6828789599239826 40.89258265229205 M2.529527522623539 38.96590170370678 C2.7092288430407647 30.822443497952577, -0.6022671763226385 21.569389039756974, 3.240303136408329 -3.327302433550358 M1.7487740628421307 39.21564459534625 C-0.7885728229316223 25.784483606235234, 1.3549242864815247 6.692849747251177, -1.8757883198559284 1.822012234479189" stroke="#ffffff" stroke-width="4" fill="none"></path></g><g stroke-opacity="0.7" fill-opacity="0.7" transform="translate(11.674107142856656 212.49999999999955) rotate(0 73 20.071428571428555)"><path d="M0 0 C0 0, 0 0, 0 0 M0 0 C0 0, 0 0, 0 0 M-1.6734994647838857 20.4676926040045 C9.603808670469963 19.211818143838148, 8.747727105563623 10.989715495758272, 24.555258227789665 0.6671354299574617 M-0.5004726385512139 23.64562168130195 C6.2954653195386285 19.98149652198775, 9.135121648621999 13.142026816661476, 23.218062976652647 0.9151677949517492 M1.9834604180226734 43.2579648604972 C12.047505268275572 34.686805801660014, 16.674975131574968 24.978140447269734, 39.67773473690801 -0.47207112346301017 M6.226138251907628 45.559684321133574 C19.46308925752022 28.07659574545553, 30.01130003546156 14.977333576338772, 42.75482168849163 1.5921687696455962 M29.026896399797266 46.753462896920475 C34.26673149220632 28.246800261673624, 48.15549899248435 16.725114341264835, 66.4804709506162 0.20492257946417425 M27.553882071168488 42.878805657155546 C38.777316629722314 28.32469115626394, 51.32409591967017 12.010852973172344, 64.49741002069194 -0.12922579399063494 M47.1353577111617 46.08664556469141 C63.20314590675176 31.120491760486857, 71.9395593327827 16.209795382313562, 83.78548835328922 0.4971888043640149 M46.379447698290676 41.55441426734744 C58.54816474236925 29.595949959737588, 69.83725787697945 15.12829063640584, 86.41958285606609 -1.1270676537694442 M69.03730680750049 46.24879470965777 C81.82774037080218 31.03382709194117, 90.31382019942926 16.062136187015593, 108.8132459293021 1.1803623168615118 M68.2392809870962 44.74441797411953 C75.34444441955839 33.688103912785266, 82.60339671655125 24.465451613594244, 105.85837632742656 -1.3301898175033315 M85.8278207311696 42.94362593699901 C99.88325408747762 31.51679663246202, 117.89646175194255 10.207574306598616, 128.2765811340393 -0.988650037195562 M87.00128612837852 43.29181460921376 C103.55694759207242 27.99017799496778, 117.07537524622083 9.336176876041705, 126.98304878859534 -1.088496962782024 M106.78223693755356 43.36554609256292 C117.92293160298169 34.762965110708336, 132.8998785340644 16.6266857332634, 144.09888698086638 0.7142019275950275 M109.0534714759597 42.127949495040426 C119.45765777420121 34.090214741792806, 126.6617339701393 24.63728929271174, 146.88825790137548 2.4379058223592125 M133.73038941102737 47.430814941974475 C136.8377627619304 37.10676751232323, 135.39438367381047 36.37643383145486, 146.20204602646203 25.64494704398696 M132.0531856626522 43.128677123787 C136.59260748370903 40.32700938358005, 139.45371116778176 35.03902487612484, 148.75699462088318 27.568548347236558" stroke="#f2aa74" stroke-width="2" fill="none"></path><path d="M2.850440762937069 1.6260677352547646 C47.50678719915451 -5.268866624906659, 87.48224832043054 -1.6420615578442814, 143.80736305564645 -0.7779408916831017 M0.2992398031055927 0.6045357100665569 C45.398804735019816 -0.9192643693834541, 89.53760382831099 0.08192545853555222, 144.26069908216598 -1.794604767113924 M147.50599624961617 -0.05503477901220322 C145.96998576549018 15.849850781394956, 148.83185486224616 30.44697419580602, 144.15337111800912 37.52009455966095 M146.82872562482956 -0.5853638537228107 C145.62939613027768 9.955568631605372, 145.01292805834012 17.08342662352535, 144.14960949495438 39.942788084170616 M143.2866356596351 39.332783387175596 C114.3245220448822 38.69641398394743, 83.03259733393789 40.650352229720745, 0.7960939630866051 36.39454929637054 M146.32991020753983 41.238485296389854 C96.04000997804107 38.139262995964685, 46.85208805054425 38.44722314859072, 0.44979386404156685 40.14246829333047 M-0.06374452263116837 43.13100521372894 C0.1633917661915939 21.7144971137334, 0.34729760611163785 12.521965148991764, 0.8153655752539635 -1.4883169159293175 M1.440610934048891 39.87325461687783 C-1.4479079421556427 31.603691529189874, 1.665596825262265 22.104403557468718, 0.1936008222401142 1.3052903525531292" stroke="#ffffff" stroke-width="4" fill="none"></path></g><g stroke-opacity="0.2" fill-opacity="0.2" transform="translate(174.60491071428567 212.49999999999955) rotate(0 73 20.071428571428555)"><path d="M0 0 C0 0, 0 0, 0 0 M0 0 C0 0, 0 0, 0 0 M-3.3477335421182897 27.514545594989418 C8.60776328621256 13.560508633696692, 13.61534791069138 12.837202029669697, 21.996304778659606 -2.574807527086186 M-0.16980446482084055 25.3290358201555 C9.115994122661071 15.095761091864262, 15.181210690225862 9.698754880855613, 22.244337143653894 -1.8045168878347155 M4.091724223531287 43.26012056678363 C17.069755064301425 26.315871729850855, 28.804712175657357 13.403160947822336, 42.18626757394128 0.9165053095995432 M6.393443684167664 45.560204945353945 C11.73453589658241 33.1421943548743, 21.508889821307292 23.442922772535923, 44.250507467049886 -0.15961444486389098 M28.91639160865671 40.576689751125606 C34.21100553234612 30.096060970408217, 46.52499655543609 20.903281781161862, 64.19243062557061 2.2103923040001163 M25.04173436889178 42.997069058246645 C38.16706888599004 27.513977873351482, 49.47067936557397 16.34772250520816, 63.8582822521158 0.5342572669057617 M49.57874362512979 46.76809871818243 C60.37494673458037 30.105544841892197, 71.12413749160223 17.12314705980581, 85.8138661991726 0.32418744049053316 M45.04651232778582 43.43114462743817 C59.908502898088955 28.026932421358985, 72.21584249215037 15.230069665486699, 84.18960974103913 -0.1593031197132575 M69.65929350958503 46.16889103255187 C77.81799619300448 31.230815734271452, 86.29314271098099 23.802434876840117, 107.82620906037224 -4.076337796554206 M68.15491677404678 44.3994898659638 C80.02297601421319 27.71379848717595, 93.64681938664285 12.103960543638184, 105.31565692600739 1.0615842780915514 M87.6832940856284 40.49791901816337 C101.46558273778287 34.63445706439366, 105.37330927091907 25.339385793141233, 125.57559744580402 3.827735157463671 M88.03148275784315 43.91331549619048 C100.43146948977918 31.129294610280184, 109.39558027967698 20.347280366023902, 125.47575052021756 0.11679017335546149 M109.43438358989445 41.136601239614734 C124.74885660735072 32.61950314313114, 130.6127657630039 14.623306337851663, 147.1968501500835 -1.5056567933036007 M108.19678699237195 45.1112422311535 C124.14968158070631 28.086114444732708, 138.59150843411854 12.271831641604479, 148.92055404484768 -0.5949526313317932 M134.82882178800816 45.860084181280925 C132.61115695984506 36.01298377649036, 139.9937200801399 33.33091367132366, 146.90140051113934 24.185276902647658 M130.52668396982068 45.36546245366533 C138.10598881199013 37.45192409992848, 143.23339347104027 32.297726816117844, 148.82500181438894 26.343786063970967" stroke="#f2aa74" stroke-width="2" fill="none"></path><path d="M1.6260677352547646 3.9156484827399254 C32.12489038668574 -1.7808508693426854, 71.60867550149563 -4.273458701297642, 145.22205910831693 0.01521756500005722 M0.6045357100665569 1.5432606227695942 C37.3033641409129 1.3896254912763832, 76.87439639866354 -2.176191030368209, 144.2053952328861 0.6332866437733173 M145.94496522098783 -0.5838176980614662 C149.2514574035417 17.089925859309723, 150.53462691152205 27.777120039239506, 143.37723741680387 36.77020368086437 M145.41463614627722 -0.09858305379748344 C146.50631891778008 9.96770193749772, 144.97601841977135 19.515115621419877, 145.79993094131353 38.6093252870653 M145.1899262443185 41.072596640459096 C109.80362850762906 40.405133413768205, 76.1059065155685 38.95819513747731, -3.7483078464865685 41.574799389711416 M147.09562815353277 39.20945632191638 C97.32165001966061 39.52979249844591, 49.14228782206773 41.074319909906784, -0.00038884952664375305 41.37270164223651 M2.98814807087183 41.03838619696239 C-3.144625594174224 25.518748454456862, 2.17417318626706 9.551135553259925, -1.4883169159293175 -2.545848824083805 M-0.26960252597928047 38.159325597009456 C0.8242956335682955 31.908091240030288, 0.8129236633915987 21.606979716303076, 1.3052903525531292 -0.3293919079005718" stroke="#ffffff" stroke-width="4" fill="none"></path></g><g stroke-opacity="0.7" fill-opacity="0.7" transform="translate(342.9151785714282 212.49999999999955) rotate(0 73 20.071428571428555)"><path d="M0 0 C0 0, 0 0, 0 0 M0 0 C0 0, 0 0, 0 0 M3.699119448866627 26.155273427902817 C4.054510023484702 17.188351924031586, 17.610013135349135 9.305546384453786, 18.75436182161596 1.5967130189924958 M1.5136096740327094 25.412932419865488 C4.349394974962925 18.882492987408956, 11.997243470902777 14.127821221874555, 19.52465246086743 0.2961603267281774 M4.093879929817717 43.31821871906348 C9.057006355327427 33.92097553964898, 17.980564718889426 25.18521867118741, 43.57484400700383 -3.1104943278850072 M6.3939643083880355 42.69125668689438 C16.813682300899345 28.12266203758088, 30.052681721915928 14.58716277018235, 42.4987242525404 -0.48716203231821 M22.73961846286184 41.56016908702973 C37.09164700851957 28.068857281253546, 52.82587024093195 14.476038834636114, 66.19790035010655 0.23946537846014593 M25.15999776998288 43.689703126676115 C32.54680305618102 32.6544283596401, 44.354852417912696 22.384828452936166, 64.5217653130122 -0.47491020313217547 M50.26019677862081 45.19327088321863 C54.14711558657554 35.33184377911796, 61.71836914497341 25.353069454439865, 85.64086483529911 1.3753519036529553 M46.92324268787655 43.082356567190274 C56.39688854715415 31.749477133629533, 68.44299002423526 20.598983508697334, 85.15737427509532 -1.197479693526219 M69.57938983247912 45.13849345347796 C79.9511593239031 27.227934687717404, 97.87464324794152 12.994155213711544, 102.56950894695652 1.752487513318421 M67.80998866589105 42.37478108084713 C75.80260740898817 31.759964703922826, 84.90867141548861 22.221511477096055, 107.70743102160228 -1.6110472613128408 M85.23758716679276 47.77923990298717 C101.49739556435271 29.4715491466795, 114.2390312853763 16.144180271160185, 130.39198264046325 -0.44253344669568406 M88.65298364481987 44.382630749388625 C96.88823296998751 33.051791721110035, 107.01950476350811 23.122494031117395, 126.68103765635504 0.5321386659182323 M107.20543873694626 47.73960457759405 C126.08212876829182 26.06855458057881, 135.3860525386931 11.68854204646842, 144.97699142918486 3.694026709012874 M111.18007972848503 43.63490714522506 C118.01947608947827 35.84307566802988, 126.01009569680645 27.69706183434593, 145.88769559115667 0.29462925013173447 M133.2580910273146 41.11553474292357 C133.0944247867325 38.395567127873605, 140.12368447451342 32.11980943695627, 145.44173036980004 28.447884313197775 M132.763469299699 45.2301210105439 C137.30633141008505 37.99937205776185, 144.62461615004213 32.31418330365403, 147.60023953112335 25.843610550643845" stroke="#f2aa74" stroke-width="2" fill="none"></path><path d="M3.9156484827399254 -3.7320896610617638 C51.78385570682587 -1.2923140407353642, 100.7751326940954 -1.96497033841908, 146.01521756500009 -1.4329198822379112 M1.5432606227695942 -1.2664782889187336 C43.89044600613416 -1.1479105976969004, 82.38855988681318 -2.677226903811097, 146.63328664377335 1.379581581801176 M145.41618230193856 2.535896874964237 C148.58032636022463 19.439726168688907, 144.4556460795392 28.618556988292482, 142.6273465380073 38.787593291274106 M145.90141694620254 1.2974101416766644 C145.61762301794656 7.8545106670420015, 144.48228363863595 15.974732988061636, 144.46646814420822 39.02664621653298 M146.92973949760201 39.598145888320005 C108.95169176124037 40.96073029244582, 68.21341300681233 35.80319545472304, 1.4319422468543053 41.42705504702667 M145.0665991790593 39.951829512736595 C110.16809903644028 41.85940676952044, 76.9754590317607 41.742085397488275, 1.2298444993793964 41.9666866857026 M0.8955290541052818 36.22582785891632 C1.092229330353439 33.36378794533331, 0.8281600115820765 22.292862838879206, -2.545848824083805 -2.668587349355221 M-1.9835315458476543 41.091607530734336 C0.5516708323306275 28.415104646155854, -0.38470156699951163 16.117885666606668, -0.3293919079005718 -0.07678626850247383" stroke="#ffffff" stroke-width="4" fill="none"></path></g><g stroke-opacity="0.2" fill-opacity="0.2" transform="translate(511.7901785714282 212.49999999999955) rotate(0 73 20.071428571428555)"><path d="M0 0 C0 0, 0 0, 0 0 M0 0 C0 0, 0 0, 0 0 M2.3398472817800258 20.728495990573524 C6.655871888970985 20.94242396931156, 11.998968382096662 9.067498207060419, 22.92588236769464 -2.9350072169512984 M1.597506273742697 23.185697020678877 C6.088936211503905 19.458421372255287, 12.3423670851506 9.445692780668038, 21.625329675430322 -1.9140155078679797 M4.151978082097571 39.774127419887265 C12.910373212382437 30.451889433039568, 22.319463138869644 23.93697941416568, 39.54784436951928 1.5900046553789622 M3.5250160499284675 43.689872585086306 C18.627865743317688 26.159276108801734, 34.8739260073935 8.925316930395162, 42.17117666508608 0.46324396024932923 M23.723097798765963 43.091192514873775 C39.14097966354506 30.094087892068433, 54.54853858878417 13.07071355595233, 64.22697342456658 -2.3741573614509335 M25.85263183841235 41.82882028562549 C40.50419262125126 27.37387848211006, 55.882098164952204 10.272497273396134, 63.51259784297426 -1.9978564043970337 M48.68536894365701 42.67884934570013 C59.51654256317826 28.32786702174602, 70.30444961487437 16.89145624658191, 86.69202929846153 -1.8648467830659854 M46.574454627628654 42.733900340901 C57.00106556476771 33.10399550251851, 67.49890148887869 20.044587435726225, 84.11919770128236 0.9811257810054315 M68.54899225340522 42.8169539769641 C79.74491587052172 31.345209883837185, 94.67773977380912 10.135778656269267, 108.39833425682914 -3.0209796250911936 M65.78527988077438 43.657014713948115 C78.37942822015667 28.860255276618922, 92.082621217878 15.913000359469585, 105.03479948219788 -0.20808585073077523 M92.51890805161656 44.419671232595135 C96.21324103328402 36.352706586995964, 104.85441514275827 28.64735406489351, 126.1217140363039 -2.578324822928785 M89.12229889801802 42.699217877133776 C95.6672708804196 35.19041706194117, 103.56674511772317 25.810530394257146, 127.09638614891782 1.8192231634296192 M113.80844207492558 45.31373217719103 C116.3460689289757 31.85588239258604, 126.15563187660491 23.4113929053595, 150.17667493150134 -2.3836329724265255 M109.70374464255659 43.46397429349328 C120.4938716816511 32.400404178558965, 130.82202256127252 20.774938793615842, 146.7772774726202 1.3016293760763489 M128.51354158895725 40.96959579512675 C137.08696412396276 36.40932669399632, 142.14549552697767 29.148047796333266, 149.70433778035016 28.770198977919264 M132.62812785657758 44.1633200958391 C137.42620329945612 39.345730811703625, 143.7497788446246 32.13992030180678, 147.10006401779623 25.871406737150593" stroke="#f2aa74" stroke-width="2" fill="none"></path><path d="M-3.7320896610617638 0.2999708876013756 C54.098824190720926 -5.051060336753727, 107.63027667775752 -2.8432058274000886, 144.56708011776212 -0.47563550621271133 M-1.2664782889187336 1.8265156038105488 C45.71916210167111 -3.9924614270776515, 90.17429635822775 -1.6198738654702907, 147.3795815818012 1.7825351245701313 M148.53589687496427 2.2780513986945152 C149.80802011658574 11.707603068516713, 143.366191150445 23.735810439022504, 144.64473614841702 36.20147737967113 M147.2974101416767 -0.7150511257350445 C145.5321278681021 11.855837356219322, 145.56494916574766 25.87892386673814, 144.8837890736759 39.5252325508211 M145.45528874546292 42.38588938223461 C113.51300683356823 41.617660939193165, 74.45925183817745 42.253509222960865, 1.2841979041695595 37.65988931166271 M145.8089723698795 39.0481235954378 C99.90858800746503 39.22988580832521, 53.582922120392325 40.00993644366304, 1.8238295428454876 38.21871983738879 M-3.917029283940792 41.222292036882436 C0.8020054908469324 28.979337756894502, -2.0880809215828773 13.639238396340165, -2.668587349355221 0.6200592741370201 M0.9487503878772259 41.272830364427364 C1.0456045745579259 25.40208887604196, 1.413516509410526 9.944727056846013, -0.07678626850247383 1.4500331170856953" stroke="#ffffff" stroke-width="4" fill="none"></path></g><g stroke-opacity="0.2" fill-opacity="0.2" transform="translate(678.4508928571433 212.49999999999955) rotate(0 73 20.071428571428555)"><path d="M0 0 C0 0, 0 0, 0 0 M0 0 C0 0, 0 0, 0 0 M-3.0869301555492665 24.754818668305038 C7.54819916638426 19.53700096283289, 6.14865881809204 15.40339759395026, 18.394162131750846 -1.6025164598435637 M-0.6297291254439141 24.305742883770822 C7.763337659389192 18.067788878556776, 9.91032708450202 10.730169832788643, 19.415153840834165 -1.3117272989660975 M0.607886782921355 42.94302488475867 C12.764989192106002 30.642234690136597, 27.71868972638177 15.284658203846195, 44.24834335278325 3.376425790446902 M4.523631948120396 43.87789420768448 C18.937692780347714 28.380463207993113, 33.75853588794713 8.95709632717908, 43.12158265765362 1.5109111879347807 M25.25412122661001 43.12307797489289 C43.53078289213803 27.739862208135385, 57.69564934371243 11.154529857099625, 61.6133506846555 3.442564390835024 M23.991748997361725 43.15319993091348 C36.80274286671849 31.969425209338034, 46.934733946237486 19.996235918906596, 61.9896516417094 -0.13393766036941912 M46.17094740613851 45.03681179012476 C58.896908425407375 27.981999275190148, 74.63101710769547 12.894507318998112, 83.4518306117426 -1.495653393054198 M46.22599840133938 42.403401131437406 C56.116217019646946 33.92408058246643, 62.57315306891974 24.973808429307773, 86.29780317581401 0.4459868983088029 M66.22745277689135 43.78488317630206 C83.27497530191013 29.865199996111038, 90.64260633707548 14.77923744616491, 103.62486711841953 0.9467822044042364 M67.06751351387537 42.356718131666526 C79.75341771280084 29.289077593593774, 94.30143180482469 14.399738453917426, 106.43776089277995 -1.8578356438430532 M89.15933938122453 42.68038273860424 C101.31871421534217 30.23590167015129, 113.7362520226232 18.930766133260448, 123.9859226600708 -3.3638469709419 M87.43888602576317 42.67646126334279 C98.87073844610073 31.249789787433826, 108.42002654551602 21.537802009956877, 128.3834706464292 -1.3249974644147144 M111.38256967452256 42.027092322879085 C117.91253993635253 30.86695628016212, 129.37410143428843 21.67190643251962, 144.09901525006194 -1.0941157336903728 M109.53281179082481 44.364288348876485 C116.66847147469075 36.827442973833115, 123.30219506511929 25.90192508980814, 147.7842775985648 2.2047088485585533 M128.36760264116043 44.350646694751575 C136.36957526742512 36.98480725549622, 141.6928426263884 32.78938282082541, 150.02665244507165 27.221379748912497 M131.56132694187278 44.61636638045509 C136.81648813989005 40.8175266215584, 139.716326441149 34.42601194699614, 147.12786020430298 27.62112560439293" stroke="#f2aa74" stroke-width="2" fill="none"></path><path d="M0.2999708876013756 -0.10528459399938583 C47.54251028932632 1.946484560891986, 99.48551203235986 1.2915055703371765, 145.52436449378732 0.5984796062111855 M1.8265156038105488 -0.26528846099972725 C46.47380976565183 0.05445353470742731, 97.05950801074506 3.2286398836225274, 147.78253512457016 0.752998124808073 M148.27805139869454 3.819066382944584 C144.03619056575536 9.36486322786658, 142.51016598575353 22.619987770542483, 142.05862023681405 41.80030839251617 M145.28494887426498 -0.23289035633206367 C144.11003544050138 10.667879206341285, 144.42689408975522 20.61968560373143, 145.38237540796402 38.786174972674644 M148.24303223937753 41.55208413409332 C105.95286317132414 35.99691008055846, 65.74548066332936 41.029415831214585, -2.482967831194401 40.802677557936704 M144.90526645258072 40.25978966536263 C94.65170834325255 39.86356795335451, 43.63367345780135 41.68778634572664, -1.9241373054683208 40.110984881541526 M1.0794348940253258 41.5446266393576 C0.635620100822832 23.612863055802862, -2.7255942985149364 7.390915451252024, 0.6200592741370201 2.881221868097782 M1.1299732215702534 41.08023556055764 C0.9898470570732434 29.94642113684009, 0.46685432693255735 17.062618157214338, 1.4500331170856953 -1.45140515640378" stroke="#ffffff" stroke-width="4" fill="none"></path></g><g stroke-opacity="0.7" fill-opacity="0.7" transform="translate(975.3616071428576 212.49999999999955) rotate(0 73 20.071428571428555)"><path d="M0 0 C0 0, 0 0, 0 0 M0 0 C0 0, 0 0, 0 0 M0.9393925221822474 27.376795446216224 C8.851903858078602 12.610041849388093, 17.881358729558656 2.931999231431064, 19.72665288885858 -0.941180112382817 M0.4903167376480315 26.039600195079206 C8.536420677294924 13.782905476713497, 15.52488362248964 4.922013234215282, 20.017442049736047 -0.25759539621179073 M3.7767842477927616 40.792551692424496 C15.262857024155752 32.70274066948217, 23.683075776244635 20.654727681722733, 46.03476448785119 3.711036654966975 M4.711653570718568 43.86963864400812 C21.690198270322643 26.247552958860556, 34.6887985365489 9.525235816871799, 44.16924988533907 1.4556587923645026 M25.286006686629122 46.26611855743054 C35.151617297961636 36.21346513566723, 43.75772185017067 21.768461628775942, 67.43007243694146 -1.5817310137183895 M25.316128642649716 44.28305762750629 C36.08543184830989 33.082162571097776, 46.072387765413424 18.663705905304855, 63.853570385737015 1.087755296614624 M48.52890985056314 42.24196661140142 C61.91821875758652 27.541650633557648, 77.32337062371732 8.64122748057175, 83.82102400175438 -4.16152413406391 M45.895499191875786 44.876061114178285 C57.6095325485137 30.91691716299165, 68.82887824238306 19.06996544176777, 85.76266429311738 0.7569802493510736 M67.19538197622931 46.695264418934926 C82.44002370066613 25.14675313258425, 96.54619515963203 10.632972061789339, 107.59262894791496 0.7780537783054129 M65.76721693159378 43.74039481705938 C79.4446929714429 31.952476943102713, 91.19522998634241 16.84227073416762, 104.78801109966767 -0.9300989666136488 M87.42005088723363 45.48548930396049 C94.69753281062394 38.367876460121025, 103.21921994774922 22.78697209332829, 123.20040051205768 -1.3034537120126473 M87.41612941197218 44.19195695851653 C98.340455759875 31.735386734698046, 110.99484029866824 20.74494356539199, 125.23925001858487 0.0010758617557300454 M108.09592982021061 40.634684831075916 C117.50644325135062 31.49782307321977, 128.9859199432304 20.84211586392573, 145.3885324887981 -2.8074847008658566 M110.43312584620801 43.424055751585016 C124.9139300175544 27.441674598980462, 135.9830053325733 14.13918441021352, 148.68735707104702 2.753925037048944 M131.74865354078526 43.05862248465617 C136.880325323299 36.247893793710546, 145.1485503495354 34.545721496928145, 148.47783321606488 24.168376363249465 M132.01437322648877 45.61357107907732 C138.669965623386 37.734988606794275, 142.7625770717083 30.570284421171234, 148.8775790715453 24.300566259207173" stroke="#f2aa74" stroke-width="2" fill="none"></path><path d="M-0.10528459399938583 -2.1926369443535805 C57.314176070317636 -0.20376118294894718, 114.75131404176356 -0.6946142541617157, 146.5984796062112 1.2090714201331139 M-0.26528846099972725 -1.7393009178340435 C53.27119777910413 -2.033426137790084, 111.51118667423728 -0.8841776569932702, 146.7529981248081 -0.02751738950610161 M149.8190663829446 -1.8466288819909096 C143.8862281467074 8.084300919595567, 145.15372687832055 18.972528999990637, 147.6574512496591 38.97212943541149 M145.76710964366796 -1.8503905050456524 C146.32074844104375 10.311455014800378, 145.4046065734061 23.072349149148362, 144.64331782981756 39.73782026501635 M147.40922699123624 40.938951105943715 C95.0581429872662 43.21221292445699, 52.89709957167507 39.297302846408286, 0.6598204150795937 42.3341134499226 M146.11693252250555 40.59265100689868 C109.01343714334072 39.77439066300431, 73.8514815285802 36.620408858156594, -0.03187226131558418 41.636931178293025 M1.401769496500492 40.958222718111074 C-0.702113181081202 24.655423803760513, -1.8823836145071053 14.879747386968546, 2.881221868097782 -0.5392050519585609 M0.9373784177005291 40.336457965097225 C0.9244348397052716 31.75183926626505, -0.4576417813503314 25.46963832255983, -1.45140515640378 -0.7783047668635845" stroke="#ffffff" stroke-width="4" fill="none"></path></g><g><g stroke-opacity="0.8" fill-opacity="0.8" transform="translate(297.5178571428571 86.14285714285677) rotate(0 124.78419561087668 -32.097512743765115)"><path d="M-1.7486057601869105 1.8513500176370146 C2.2279684348120625 -8.22139747288255, -14.03204091641873 -50.82802883021177, 24.57384421346446 -60.480257572765844 C63.17972934334765 -70.13248631531991, 192.6584320849252 -66.31054286534587, 229.88670501911224 -56.06202243768742 C267.1149779532993 -45.81350201002898, 244.14725165115226 -8.2822138959808, 247.94348181858658 1.0108649931848048" stroke="#ffffff" stroke-width="1.5" fill="none" stroke-dasharray="12 8"></path></g><g stroke-opacity="0.8" fill-opacity="0.8" transform="translate(297.5178571428571 86.14285714285677) rotate(0 124.78419561087668 -32.097512743765115)"><path d="M243.2091810050339 -25.615031162894102 C240.23040285135204 -16.630920482644356, 248.9441651664877 -11.982360211989963, 249.38757466599344 4.816702169924975" stroke="#ffffff" stroke-width="1.5" fill="none"></path></g><g stroke-opacity="0.8" fill-opacity="0.8" transform="translate(297.5178571428571 86.14285714285677) rotate(0 124.78419561087668 -32.097512743765115)"><path d="M263.6267473995725 -23.55518046188497 C254.00240443874748 -15.496596785216209, 256.06995791044096 -11.518547273810743, 249.38757466599344 4.816702169924975" stroke="#ffffff" stroke-width="1.5" fill="none"></path></g></g><g><g stroke-opacity="0.8" fill-opacity="0.8" transform="translate(632.2321428571427 81.85714285714255) rotate(0 52.983493601602504 -29.301590494279367)"><path d="M-0.5210223712027071 -0.6708803258836271 C3.228217399368684 -9.736962693326543, 3.473938584008348 -45.02489704542933, 20.735789271444084 -53.630363836991 C37.997639958879816 -62.23583062855268, 91.27091056019799 -61.409682026611954, 103.05008175341172 -52.30368107525369 C114.82925294662545 -43.19768012389543, 92.71508389282111 -7.947314406824955, 91.41081643072648 1.005641871158582" stroke="#ffffff" stroke-width="1.5" fill="none" stroke-dasharray="12 8"></path></g><g stroke-opacity="0.8" fill-opacity="0.8" transform="translate(632.2321428571427 81.85714285714255) rotate(0 52.983493601602504 -29.301590494279367)"><path d="M91.05287167422372 -27.937220878619442 C95.01003999675001 -21.60171989231124, 92.6812671298612 -16.830291324893217, 90.80663134870811 4.387547762159807" stroke="#ffffff" stroke-width="1.5" fill="none"></path></g><g stroke-opacity="0.8" fill-opacity="0.8" transform="translate(632.2321428571427 81.85714285714255) rotate(0 52.983493601602504 -29.301590494279367)"><path d="M110.19215704173924 -20.533994689541743 C109.56982774736656 -16.025437167201787, 102.70207038073704 -13.009723521999803, 90.80663134870811 4.387547762159807" stroke="#ffffff" stroke-width="1.5" fill="none"></path></g></g><g><g stroke-opacity="0.8" fill-opacity="0.8" transform="translate(132.23214285714278 235.5714285714282) rotate(0 125.40776818873456 36.42847505784121)"><path d="M1.3742292322218415 -2.1807314194738865 C4.174560090225372 9.094877173467758, -24.360167881669003 58.75523157314883, 15.570793433168138 69.5983838861542 C55.50175474800528 80.44153619915956, 203.93564842063049 73.71348368181361, 240.95999712124467 62.878182458558285 C277.9843458218589 52.04288123530296, 238.23747149056618 14.395844931510279, 237.71688563685328 4.586576546622223" stroke="#f2aa74" stroke-width="1.5" fill="none" stroke-dasharray="12 8"></path></g><g stroke-opacity="0.8" fill-opacity="0.8" transform="translate(132.23214285714278 235.5714285714282) rotate(0 125.40776818873456 36.42847505784121)"><path d="M5.347916709669814 30.84631230427122 C7.710406451649688 20.947334434051093, 4.458390735428717 14.973423102059238, 1.8040324620902535 0.8509775586426258" stroke="#f2aa74" stroke-width="1.5" fill="none"></path></g><g stroke-opacity="0.8" fill-opacity="0.8" transform="translate(132.23214285714278 235.5714285714282) rotate(0 125.40776818873456 36.42847505784121)"><path d="M-15.048114427705443 28.58314721328504 C-7.432214433398155 19.063399064952755, -5.4622573995573065 13.668923327779366, 1.8040324620902535 0.8509775586426258" stroke="#f2aa74" stroke-width="1.5" fill="none"></path></g><g stroke-opacity="0.8" fill-opacity="0.8" transform="translate(132.23214285714278 235.5714285714282) rotate(0 125.40776818873456 36.42847505784121)"><path d="M256.9187144761736 28.511771161663592 C255.50879372100326 21.09260767369386, 248.35793422041158 17.449032459581744, 238.1466888667217 7.618285524738735" stroke="#f2aa74" stroke-width="1.5" fill="none"></path></g><g stroke-opacity="0.8" fill-opacity="0.8" transform="translate(132.23214285714278 235.5714285714282) rotate(0 125.40776818873456 36.42847505784121)"><path d="M238.81053087852982 38.16649483351789 C241.90271462172603 28.09769484204609, 239.38807285698263 21.982231661877066, 238.1466888667217 7.618285524738735" stroke="#f2aa74" stroke-width="1.5" fill="none"></path></g></g><g><g stroke-opacity="0.8" fill-opacity="0.8" transform="translate(463.91906137703336 238.4285714285711) rotate(0 271.49601813638515 30.678432936819092)"><path d="M-0.3345685563981533 0.44121410474181166 C3.5551082694489176 10.11111670984399, -61.783069635836355 52.041714944974316, 25.393251200144537 60.107735023860435 C112.56957203612542 68.17375510274655, 437.8212185100043 59.159363924569995, 522.7233564594871 48.83733457805852 C607.62549440897 38.51530523154704, 533.2113669197693 6.726463842072652, 534.8060788970415 -1.8244410552084445" stroke="#f2aa74" stroke-width="1.5" fill="none" stroke-dasharray="12 8"></path></g><g stroke-opacity="0.8" fill-opacity="0.8" transform="translate(463.91906137703336 238.4285714285711) rotate(0 271.49601813638515 30.678432936819092)"><path d="M-0.37049409056638716 31.928172585899706 C-3.0863251825098725 16.2446209815064, 1.4700365893012026 8.780203246888941, -2.9409129209816456 -2.4076087050139905" stroke="#f2aa74" stroke-width="1.5" fill="none"></path></g><g stroke-opacity="0.8" fill-opacity="0.8" transform="translate(463.91906137703336 238.4285714285711) rotate(0 271.49601813638515 30.678432936819092)"><path d="M-19.493498082694053 24.482991546938404 C-14.957749603753356 11.625167633230744, -3.2608648035573875 6.940777904730059, -2.9409129209816456 -2.4076087050139905" stroke="#f2aa74" stroke-width="1.5" fill="none"></path></g><g stroke-opacity="0.8" fill-opacity="0.8" transform="translate(463.91906137703336 238.4285714285711) rotate(0 271.49601813638515 30.678432936819092)"><path d="M562.6108505081111 12.380085679991913 C549.7571073542709 3.083255055265999, 543.9177625114885 2.0720913135516508, 532.199734532458 -4.673263864964246" stroke="#f2aa74" stroke-width="1.5" fill="none"></path></g><g stroke-opacity="0.8" fill-opacity="0.8" transform="translate(463.91906137703336 238.4285714285711) rotate(0 271.49601813638515 30.678432936819092)"><path d="M548.0832937029683 26.873880754408635 C540.4379375322203 12.19978969631439, 540.0231773392134 5.7766479233153625, 532.199734532458 -4.673263864964246" stroke="#f2aa74" stroke-width="1.5" fill="none"></path></g></g><g><g stroke-opacity="0.8" fill-opacity="0.8" transform="translate(149.37499999999977 28.999999999999773) rotate(0 39.94034135835511 28.60563058054869)"><path d="M0.5990579523146153 -1.2735838212072847 C13.142761554923785 -0.26174417822844576, 60.428722175849266 -6.237563862438772, 73.92108078886349 3.8621878041752096 C87.41343940187771 13.96193947078919, 80.49765336375151 50.40647403026617, 81.55320963039995 59.32492617847661 M-2.520263372808695 4.206731151491404 C9.738757030871643 5.86254196743879, 57.63361228286504 -1.2005414376018182, 71.48512792725641 7.261605169070553 C85.3366435716478 15.723751775742926, 79.00712266833298 46.172608816375295, 80.58883049353958 54.97961079152564" stroke="#ffffff" stroke-width="1" fill="none"></path></g><g stroke-opacity="0.8" fill-opacity="0.8" transform="translate(149.37499999999977 28.999999999999773) rotate(0 39.94034135835511 28.60563058054869)"><path d="M-2.3871936202454505 -6.366512437064429 C-1.3298316550020959 -7.417571212197673, 0.7058862260380243 -9.523388817853093, 2.1150108133460668 -9.313209049467758 C3.5241354006541092 -9.103029281082424, 4.979873248309802 -6.597721185265748, 6.0675539036028034 -5.105433826752421 C7.155234558895805 -3.613146468239094, 8.649984115634846 -2.0202067223471065, 8.641094745104079 -0.3594848983878 C8.632205374573312 1.3012369255715066, 7.1036297023214665 3.8598030272685335, 6.0142176804182 4.858897117003419 C4.924805658514934 5.857991206738305, 3.3455232562065733 5.645003201102179, 2.1046226136844837 5.635079640021513 C0.8637219711623942 5.625156078940847, 0.21193433384229654 5.561750962578759, -1.4311861747143366 4.799355750519425 C-3.0743066832709696 4.03696053846009, -6.739501704406402 2.4535235634347563, -7.754100437655316 1.0607083676655087 C-8.76869917090423 -0.33210682810373915, -9.355337381193783 -1.7598494281881012, -7.518778574207815 -3.557535424096062 C-5.682219767221846 -5.355221420004023, 0.8461972759430392 -8.970415605350063, 3.265252404260496 -9.725407607782255 C5.684307532577953 -10.480399610214448, 7.3170932163742135 -8.319615219850693, 6.995552195696927 -8.08748743868922 M6.560968104718135 -6.097815066754463 C8.373713487038549 -5.171224582053791, 10.688929919058257 -1.6371729496306378, 10.131829653289888 -0.03181505074653601 C9.574729387521518 1.5735428481375657, 4.404897271322472 2.487045414986703, 3.218366510107916 3.534332326550146 C2.0318357488933594 4.581619238113589, 4.242753231458328 5.783444466232623, 3.012645086002548 6.251906418634123 C1.782536940546769 6.720368371035622, -2.9348016891171245 6.941821436364563, -4.162282362626758 6.3451040409591455 C-5.389763036136392 5.748386645553728, -4.115385521216366 4.048505628447835, -4.352238955055256 2.671602046201616 C-4.589092388894146 1.2946984639553971, -5.793013314065107 0.1649251742445732, -5.583402965660101 -1.9163174525181677 C-5.373792617255095 -3.9975600792809085, -4.37900181854785 -8.777644121483455, -3.094576864625223 -9.815853714374828 C-1.8101519107025965 -10.854063307266202, 1.029277602743017 -8.454699663280046, 2.1231467578756575 -8.145575009866405 C3.2170159130082983 -7.836450356452765, 2.8989017503338834 -8.779025960334998, 3.468638066170619 -7.961105793892984 C4.038374382007355 -7.143185627450971, 4.694402242396635 -3.351257861463025, 5.5415646528960725 -3.2380540112143263" stroke="none" stroke-width="0" fill="#ffffff"></path><path d="M1.2303896994204981 -7.941704003455909 C2.73754780941628 -8.44045244212264, 3.6481048319362426 -8.345872919546895, 4.604160394585151 -7.360213582280731 C5.560215957234059 -6.374554245014567, 6.751564734229492 -3.6260971809943205, 6.966723075313945 -2.027747979858925 C7.181881416398398 -0.4293987787235294, 6.096481184470298 1.0344684093302479, 5.895110441091866 2.2298816245316417 C5.693739697713434 3.4252948397330356, 6.733377077618409 4.738822821247683, 5.758498615043352 5.144731311349439 C4.783620152468294 5.550639801451195, 2.1692839411070217 5.298783477504775, 0.0458396656415192 4.665332565142174 C-2.0776046098239833 4.031881652779574, -5.811451843944378 2.438862068034383, -6.982167037749665 1.3440258371738363 C-8.152882231554953 0.24918960631328968, -7.136123377384196 -0.8912435016838458, -6.978451497190203 -1.9036848200211052 C-6.8207796169962105 -2.9161261383583645, -7.831071720973696 -3.9438040902953535, -6.036135756585708 -4.7306220728497195 C-4.241199792197719 -5.517440055404085, 2.288272422911583 -5.970939673403859, 3.791164289137731 -6.6245927153473 C5.2940561553638785 -7.278245757290741, 3.032219865159738 -8.809903892480968, 2.9812154407711806 -8.652540324510365 M-4.67297578033571 -8.333167592816302 C-3.8070915891150165 -9.198275257558716, -2.924252533711617 -7.114540731881547, -0.9097916920050216 -6.754031744836714 C1.1046691497015741 -6.393522757791882, 6.0423505842673215 -6.441380203825506, 7.413789269903865 -6.1701136705473045 C8.785227955540408 -5.898847137269103, 7.490407802849392 -6.2198728104892345, 7.318840421814237 -5.126432545167505 C7.147273040779082 -4.032992279845776, 7.132925630309204 -1.0209211395335553, 6.384384983692938 0.39052792138307035 C5.635844337076671 1.801976982299696, 4.410959932722985 2.0350349680914945, 2.827596542116635 3.34226182033225 C1.2442331515102845 4.649488672573005, -1.897166036666371 7.8855014284512865, -3.115795359945166 8.2338890348276 C-4.334424683223961 8.582276641203913, -3.80111865900496 6.995718905046308, -4.484179397556135 5.432587458590128 C-5.167240136107309 3.8694560121339485, -6.694965757570745 0.2662271773356435, -7.214159791252213 -1.1448996439094783 C-7.733353824933681 -2.5560264651546003, -8.232602343788955 -2.1557998111753727, -7.5993435996449445 -3.034173468880602 C-6.9660848555009345 -3.912547126585831, -3.781189847164356 -6.398656561700229, -3.4146073263881527 -6.415141590140855" stroke="#ffffff" stroke-width="1" fill="none"></path></g><g stroke-opacity="0.8" fill-opacity="0.8" transform="translate(149.37499999999977 28.999999999999773) rotate(0 39.94034135835511 28.60563058054869)"><path d="M68.40591071398715 26.30559635985468 C71.78875650891594 36.09848531536648, 78.12369968090108 41.340527641509965, 80.91746413722635 54.45422519566754 M71.08077527807812 28.692969594931345 C73.76394452802691 35.77904180886258, 75.54984741946006 40.6897376262348, 79.00459888964892 54.53585938560108" stroke="#ffffff" stroke-width="1" fill="none"></path></g><g stroke-opacity="0.8" fill-opacity="0.8" transform="translate(149.37499999999977 28.999999999999773) rotate(0 39.94034135835511 28.60563058054869)"><path d="M88.92698239784664 26.230634157780916 C87.13523993732915 36.13023060844269, 88.29677757004 41.39117106414875, 80.91746413722635 54.45422519566754 M91.60184696193761 28.61800739285758 C88.58530118801954 35.4582709428061, 84.67050047105585 40.389791076882574, 79.00459888964892 54.53585938560108" stroke="#ffffff" stroke-width="1" fill="none"></path></g></g><g><g stroke-opacity="0.8" fill-opacity="0.8" transform="translate(105.08928571428544 329.85714285714266) rotate(0 -23.023700387718122 -47.57458094528738)"><path d="M-2.4215934596955773 1.6621070347726343 C-9.056135728494025 -2.6420358502084165, -33.740599759668015 -7.7386179870437335, -41.05989591873108 -23.32160735843429 C-48.379192077794144 -38.904596729824846, -44.6574240198802 -80.2862922103986, -46.33737041407396 -91.8358291935707 M1.4593030200898651 0.09608275786042242 C-5.401582451299526 -2.5541257278337226, -35.03252523397396 -3.793188209441375, -43.09776674813448 -19.944413489976018 C-51.163008262295 -36.09563877051066, -45.45662937661719 -85.15473392772525, -46.93214606487324 -96.81126892534742" stroke="#f2aa74" stroke-width="1" fill="none"></path></g><g stroke-opacity="0.8" fill-opacity="0.8" transform="translate(105.08928571428544 329.85714285714266) rotate(0 -23.023700387718122 -47.57458094528738)"><path d="M3.0364193729111406 -2.2010666716398335 C4.245168712329888 -1.5812216943840296, 3.8010158719663365 -2.391490225220032, 4.102344949071594 -0.6717062805717671 C4.403674026176852 1.048077664076498, 5.678395503067274 6.582106227387396, 4.844393835542688 8.117636996249757 C4.010392168018101 9.65316776511212, 0.5903678762386468 8.32500193125046, -0.901665056075923 8.541478332602402 C-2.3936979883904925 8.757954733954344, -3.079760314611427 10.122076601941483, -4.1078037583447315 9.416495404361406 C-5.135847202078036 8.710914206781329, -6.071283447551943 6.04013393878919, -7.069925718475751 4.3079911471219425 C-8.06856798939956 2.5758483554546947, -10.29588212632102 0.6823165227104746, -10.09965738388758 -0.9763613456420788 C-9.90343264145414 -2.635039213994632, -7.3716672729617585 -4.55451043490051, -5.892577263875114 -5.644076062993377 C-4.413487254788469 -6.733641691086244, -2.849394797543554 -8.985563977925013, -1.2251173293677136 -7.51375511419928 C0.3991601388081272 -6.041946250473548, 3.3826837065898463 0.36142718268124874, 3.853087545179931 3.186777119361017 C4.3234913837700155 6.012127056040785, 1.807596072296771 9.371432155970158, 1.597305702172795 9.438344505879328 M-4.6413893207565255 -2.953742726860243 C-3.800147510659488 -3.854175054381247, -6.008203636075111 -4.3212037259493075, -4.579330281740686 -4.227511988942381 C-3.1504569274062604 -4.133820251935455, 2.639735095559071 -3.479463264076911, 3.9318508052500247 -2.3915923048186842 C5.223966514940979 -1.3037213455604575, 3.1461499000924746 0.7525199815289032, 3.1733639764050388 2.2997137666069793 C3.200578052717603 3.8469075516850557, 4.89606826891775 5.559148492253695, 4.09513526312541 6.891570405649771 C3.2942022573330707 8.223992319045847, 0.09606731111701294 9.43209279242462, -1.6322340583489994 10.294245246983435 C-3.3605354278150115 11.15639770154225, -5.653929112779146 12.974808441814073, -6.274672953670663 12.064485133002663 C-6.8954167945621805 11.154161824191252, -4.520324021143414 6.514922566914066, -5.356697103698103 4.832305394114976 C-6.193070186252792 3.149688221315886, -11.047567527227072 3.0332363548089454, -11.292911448998797 1.968782096208121 C-11.538255370770523 0.9043278376072965, -7.0071961635273405 -0.1741533841060019, -6.828760634328457 -1.5544201574899716 C-6.650325105129574 -2.9346869308739416, -9.97561881967574 -5.763052254596506, -10.2222982738055 -6.3128185440956965" stroke="none" stroke-width="0" fill="#f2aa74"></path><path d="M-0.7514625059350324 -8.272072544350412 C0.7899114672149923 -8.275981383678866, 2.0423723284281436 -4.450075740129476, 3.034558556334037 -2.9704781154791045 C4.026744784239931 -1.4908804908287332, 4.974136078524062 -1.197447769567094, 5.2016548615003275 0.6055132035518155 C5.4291736444765935 2.408474176670725, 5.221382373116968 6.288823599540925, 4.399671254191632 7.847287723234353 C3.577960135266296 9.405751846927782, 1.753986430674387 9.808213229621861, 0.27138814794831334 9.956297945712384 C-1.2112101347777604 10.104382661802907, -2.6672096451117184 9.583094639158947, -4.495918442164811 8.735796019777485 C-6.324627239217904 7.888497400396023, -9.89740884155922 6.7616435393091745, -10.700864634370241 4.87250622942361 C-11.504320427181263 2.983368919538046, -9.793403909005033 -0.8579017665333466, -9.316653199030942 -2.5990278395358977 C-8.83990248905685 -4.340153912538449, -9.951624361695092 -5.515852036176904, -7.8403603745257 -5.574250208591695 C-5.729096387356307 -5.6326483810064865, 1.6193087866305262 -3.307353608046637, 3.3509307239854174 -2.949416874024645 C5.0825526613403085 -2.591480140002653, 3.0267820590831422 -3.364885326010075, 2.549371249603648 -3.426629804459741 M-4.6571411668568565 -2.191417092309468 C-3.7152999565994294 -3.1760552766438863, -2.436851175155203 -8.690116123540351, -1.0066156580031773 -8.567330425957653 C0.4236198591488485 -8.444544728374956, 2.6372589579459804 -2.780677470249752, 3.9242719360552973 -1.4547029068132789 C5.211284914164614 -0.12872834337680605, 7.268463171868758 -1.519179590998487, 6.715462210652722 -0.6114830453388171 C6.162461249436687 0.2962135003208528, 1.8326624217661076 2.41341724033843, 0.6062661687590811 3.991476367144741 C-0.6201300842479454 5.569535493951052, 0.3950667688642786 8.239547723504762, -0.6429153073894358 8.856871715499047 C-1.6808973836431502 9.474195707493331, -3.940649163491715 7.894903624895385, -5.621626288763205 7.695420319110454 C-7.302603414034696 7.4959370133255225, -10.365585955880306 9.481707739781584, -10.728778059018378 7.659971880789456 C-11.09197016215645 5.838236021797328, -9.020616678583782 -1.0514033130457436, -7.800778907591636 -3.234994834842316 C-6.580941136599491 -5.4185863566388885, -3.680130397240408 -5.294689898084338, -3.4097514330655074 -5.441577249989979 C-3.139372468890607 -5.588464601895619, -5.746603563350888 -4.324991083198855, -6.1785051225422345 -4.116318946276159" stroke="#f2aa74" stroke-width="1" fill="none"></path></g><g stroke-opacity="0.8" fill-opacity="0.8" transform="translate(105.08928571428544 329.85714285714266) rotate(0 -23.023700387718122 -47.57458094528738)"><path d="M-34.36561004770022 -68.0689707121256 C-40.50973778055818 -72.7828292232723, -40.98886060726736 -86.8455176420754, -46.591698065336246 -95.0458832752491 M-35.53375197527033 -67.4479564486447 C-39.519494965902545 -76.36184312162865, -43.30100188711484 -88.37985328104386, -46.842652659799356 -96.87511260403046" stroke="#f2aa74" stroke-width="1" fill="none"></path></g><g stroke-opacity="0.8" fill-opacity="0.8" transform="translate(105.08928571428544 329.85714285714266) rotate(0 -23.023700387718122 -47.57458094528738)"><path d="M-54.886758106986065 -68.11881762485275 C-55.79170936381381 -72.46499580384346, -51.032546995077524 -86.51496016138921, -46.591698065336246 -95.0458832752491 M-56.05490003455617 -67.49780336137185 C-53.40716680195203 -76.62965438724953, -50.55484533770783 -88.63155063999533, -46.842652659799356 -96.87511260403046" stroke="#f2aa74" stroke-width="1" fill="none"></path></g></g><g stroke-opacity="0.8" fill-opacity="0.8" transform="translate(55.089285714285666 10) rotate(0 32 18)"><text x="0" y="25" font-family="Virgil, Segoe UI Emoji" font-size="28px" fill="#ffffff" text-anchor="start" style="white-space: pre;" direction="ltr">head</text></g><g stroke-opacity="0.8" fill-opacity="0.8" transform="translate(131.53983516483493 325.4285714285712) rotate(0 32 18)"><text x="0" y="25" font-family="Virgil, Segoe UI Emoji" font-size="28px" fill="#f2aa74" text-anchor="start" style="white-space: pre;" direction="ltr">head</text></g><g><g stroke-opacity="0.8" fill-opacity="0.8" transform="translate(800.8035714285711 83.28571428571416) rotate(0 41.98311417156037 22.52395188971839)"><path d="M0.19724874123930913 1.393988362699747 C12.447654355955986 1.1519877794597693, 61.58431421770233 -6.368397294020448, 75.32654159377735 1.2607017946029602 C89.06876896985237 8.889800883226368, 81.65612510467572 38.900642085962325, 82.65061299768945 47.16858289444019" stroke="#ffffff" stroke-width="2.5" fill="none" stroke-dasharray="12 8"></path></g><g stroke-opacity="0.8" fill-opacity="0.8" transform="translate(800.8035714285711 83.28571428571416) rotate(0 41.98311417156037 22.52395188971839)"><path d="M69.16112360005431 46.040217866260306 C71.44191686556182 46.47358827492042, 77.12035132014582 45.27982755069312, 85.11159664844831 47.31038867549171" stroke="#ffffff" stroke-width="2.5" fill="none"></path></g><g stroke-opacity="0.8" fill-opacity="0.8" transform="translate(800.8035714285711 83.28571428571416) rotate(0 41.98311417156037 22.52395188971839)"><path d="M99.12722031539548 47.46606766438772 C90.43836399580319 47.42101352941688, 85.1747767959723 45.70660844115181, 85.11159664844831 47.31038867549171" stroke="#ffffff" stroke-width="2.5" fill="none"></path></g></g><g><g stroke-opacity="0.8" fill-opacity="0.8" transform="translate(1092.2321428571436 236.99999999999994) rotate(0 2.8987452561522105 28.396991934414388)"><path d="M2.3173202954232694 -0.6320196233689783 C3.090728244008021 8.676399846055673, 3.655027948922892 47.45412246474905, 3.437903213181471 57.426003492197786" stroke="#f2aa74" stroke-width="1.5" fill="none" stroke-dasharray="12 8"></path></g><g stroke-opacity="0.8" fill-opacity="0.8" transform="translate(1092.2321428571436 236.99999999999994) rotate(0 2.8987452561522105 28.396991934414388)"><path d="M-12.239260668532388 58.04836511879181 C-7.402947286415095 55.203623942203144, -1.647242847290022 56.4685695945702, 5.301760976069545 57.70407586241404" stroke="#f2aa74" stroke-width="1.5" fill="none"></path></g><g stroke-opacity="0.8" fill-opacity="0.8" transform="translate(1092.2321428571436 236.99999999999994) rotate(0 2.8987452561522105 28.396991934414388)"><path d="M17.760739330533234 58.048128342829784 C14.885495889936632 55.70001666468975, 12.929640841795141 56.965023180787355, 5.301760976069545 57.70407586241404" stroke="#f2aa74" stroke-width="1.5" fill="none"></path></g></g><g transform="translate(75.3348214285719 160.4285714285709) rotate(0 2.5 17.999999999999986)"><text x="0" y="25" font-family="Virgil, Segoe UI Emoji" font-size="28px" fill="#f2aa74" text-anchor="start" style="white-space: pre;" direction="ltr">1</text></g><g stroke-opacity="0.9" fill-opacity="0.9" transform="translate(228.60491071428567 116.4285714285709) rotate(0 10.5 18)"><text x="0" y="25" font-family="Virgil, Segoe UI Emoji" font-size="28px" fill="#ffffff" text-anchor="start" style="white-space: pre;" direction="ltr">2</text></g><g transform="translate(394.1116071428579 160.4285714285709) rotate(0 10 17.999999999999986)"><text x="0" y="25" font-family="Virgil, Segoe UI Emoji" font-size="28px" fill="#f2aa74" text-anchor="start" style="white-space: pre;" direction="ltr">3</text></g><g transform="translate(566.2008928571445 116.4285714285709) rotate(0 8 18)"><text x="0" y="25" font-family="Virgil, Segoe UI Emoji" font-size="28px" fill="#ffffff" text-anchor="start" style="white-space: pre;" direction="ltr">4</text></g><g stroke-opacity="0.9" fill-opacity="0.9" transform="translate(1039.0401785714303 163.28571428571368) rotate(0 6.5 17.999999999999986)"><text x="0" y="25" font-family="Virgil, Segoe UI Emoji" font-size="28px" fill="#f2aa74" text-anchor="start" style="white-space: pre;" direction="ltr">n</text></g><g transform="translate(734.8750000000005 119.28571428571385) rotate(0 10 18)"><text x="0" y="25" font-family="Virgil, Segoe UI Emoji" font-size="28px" fill="#ffffff" text-anchor="start" style="white-space: pre;" direction="ltr">5</text></g></svg>