<svg version="1.1" xmlns="http://www.w3.org/2000/svg" viewBox="0 0 1350.944444444444 339.27777777777777" width="1350.944444444444" height="339.27777777777777">
  <!-- svg-source:excalidraw -->
  
  <defs>
    <style>
      @font-face {
        font-family: "Virgil";
        src: url("https://excalidraw.com/Virgil.woff2");
      }
      @font-face {
        font-family: "Cascadia";
        src: url("https://excalidraw.com/Cascadia.woff2");
      }
    </style>
  </defs>
  <g stroke-opacity="0.5" fill-opacity="0.5" transform="translate(257.444444444444 110.56347605132788) rotate(0 73 61.5)"><path d="M0 0 C0 0, 0 0, 0 0 M0 0 C0 0, 0 0, 0 0 M-2.869862645659664 22.820588549315094 C3.003557390603879 15.853389531477514, 16.758514192141753 4.8786410528568, 24.84687588950422 -2.656715946814465 M2.1045780295691703 24.046422520368456 C7.136474019166457 17.505788354322092, 14.093864396560267 11.801477050913231, 22.362807000333333 0.8539348853915456 M0.19004250131539635 46.842393350460455 C10.745867069461049 39.21920638130944, 14.914967551739384 30.86606589731426, 39.80189958642774 1.0893800434051997 M-0.9651489388198442 48.596386582263634 C10.480503600152367 38.63109996733463, 20.816724447595988 26.178153973275528, 42.35004474278145 -1.3957776065588945 M0.46740041507393215 69.14660557577757 C22.71112723670402 44.532372004173695, 48.86388989158849 26.76212384752791, 65.51045569301922 0.5984231161443958 M-0.11086872758358624 71.51682035470752 C15.504691093778534 54.12249090957198, 30.004374883822422 40.54721130112889, 64.90173942492683 1.2554460281996498 M-2.1558151654900684 99.247771338837 C24.24063461699 64.56087407517688, 52.16570592137366 37.26986135615512, 86.28382350615368 -2.366647275471877 M-2.0522921681405677 96.40637639658317 C27.278557195376123 64.14780247686987, 52.49125808373819 36.24395062943247, 84.86420452333198 -0.7945670618953216 M3.256293114479405 125.08691093231818 C19.312819019385756 99.68851884622697, 42.44034842729524 75.00432259922547, 109.6129698227061 -3.347579178318618 M0.21276227405272152 122.80971269588252 C21.760171188753475 97.13911011800283, 41.50965949542382 70.37576121966102, 106.80640976455939 1.1918540215936915 M14.004136515705468 132.73442302578178 C36.4076438058852 103.04353010676067, 68.75249049855401 67.27015800092049, 126.26248991056099 0.8139014409519447 M11.593958789406898 135.04539686747876 C43.19407673323934 98.29609414483713, 75.49845852153358 65.47010225371442, 125.98892209618106 -0.5780664926730381 M33.50875127708211 133.7907912327983 C59.724320059078906 100.17968951621481, 85.32129893779295 73.89810578486538, 144.98878459558387 4.961961955242046 M31.53955529650345 134.73161272025487 C70.27232009269267 87.94787911575298, 109.7130823827979 45.80785829399191, 147.95708277375002 -0.3166797864807762 M51.34209376062673 132.86303620983438 C82.43117470821151 105.16307037865155, 107.93228542461836 74.67217592502662, 146.32799424695344 25.291498384805365 M54.94169858704728 133.38761235598997 C86.65830449180535 98.07833929767217, 115.50596275518578 61.860589838078965, 147.20394134613247 24.133922855736657 M78.34669326321432 133.68284741001497 C98.09849938624842 104.62747476624813, 115.48125200716052 81.57275831401377, 147.63978361823152 52.63659653541544 M76.13107713760087 131.67684792312156 C96.46772670133011 111.30619821072384, 119.57844887609818 85.92525246490194, 149.08904049657772 49.7153711850653 M97.54476658171987 129.6772267864651 C115.44059750156768 112.40913822652234, 129.61692139331052 91.56353595539473, 146.90749797730257 74.43678044042008 M96.66103567472672 131.10261532008712 C115.77297981310122 110.6132246248771, 138.94304580262911 86.68639716514556, 146.51357217265775 75.24426443016546 M120.88821801301839 131.21848879230978 C131.24977380739574 123.51960037982342, 142.69398471357735 107.10606268475334, 145.79417009205105 100.32688663316699 M118.93257517498733 134.3830541953242 C126.84604114407733 118.9724703478538, 138.01824996477427 109.77393305670519, 147.8513845719445 100.12704556969734" stroke="#f2aa74" stroke-width="2" fill="none"></path><path d="M-2.178702302277088 -0.13883321732282639 C48.88229696638883 2.9606654634326697, 89.53319339081646 3.2811284055560828, 147.598811917007 0.2500458434224129 M1.6089876033365726 -0.5593993403017521 C37.59905792213977 -2.5559326744824653, 71.97221921384336 -3.951658759191633, 144.14915696159008 1.9556929133832455 M147.83631687611344 0.8519268706440926 C148.51675111848863 30.095597766898578, 145.4806929310039 60.834454515203845, 149.40612082928422 123.85855037719011 M144.80742779746654 1.3472115062177181 C145.52782520618294 47.8187771813944, 147.5684888061509 91.07857756726445, 146.20566371455791 122.59316542372108 M146.63758330792191 123.78385669738054 C87.42300964407625 121.85480899490416, 37.61229797974228 124.71706576026976, -0.14412183314561844 126.09499222785234 M145.90162375941875 122.28049090132117 C108.72641576342286 123.68447890259326, 72.12497256845236 127.0697357890755, -0.4400962255895138 123.11509456858039 M-3.479248709976673 120.18552071601152 C-0.4572236384823918 90.22620451841503, -0.4708666648343205 52.42467182911932, -1.3890742734074593 3.995748348534107 M0.37070146575570107 121.13045349344611 C-3.2241121488437052 91.50711134951561, -2.549270387254655 57.68054883815347, -1.180090632289648 -0.15491125360131264" stroke="#ffffff" stroke-width="4" fill="none"></path></g><g stroke-opacity="0.9" fill-opacity="0.9" transform="translate(321.3333333333329 56.08610201432458) rotate(0 8 17.5)"><text x="0" y="28" font-family="Cascadia, Segoe UI Emoji" font-size="28px" fill="#f2aa74" text-anchor="start" style="white-space: pre;" direction="ltr">1</text></g><g stroke-opacity="0.5" fill-opacity="0.5" transform="translate(421.444444444444 110.56347605132788) rotate(0 73 61.5)"><path d="M-0.7913772538304329 -0.5714196488261223 C53.99280785210431 -4.28567488051951, 109.83148972317578 -0.21058089591562767, 146.71186786144975 2.5735400393605232 M0.08456984534859657 -1.7289951778948307 C55.70579373575749 0.01893283598124995, 113.53444941937927 1.135356562063098, 146.3600793220103 1.3889527581632137 M146.25412135571244 2.691961593925953 C145.48613536555322 23.036716788075864, 142.0239373465255 52.72846447490156, 143.4283183142543 121.35334736853838 M147.70337823405865 -0.22926375642418861 C148.7076083013043 46.32679434586316, 148.5962905475125 89.28229321353137, 144.39176383987072 123.83231439813972 M145.25554495304826 123.41042859107256 C101.26583766750994 122.56206000246108, 48.31646699085833 124.58275640405715, -3.582167573273182 120.18907053023577 M144.86161914840343 124.21791258081794 C98.13217637352648 123.82258892275394, 44.839901719987395 124.77199757315219, -0.8031103275716305 124.0613777898252 M-1.4680146649479866 124.4641082957387 C0.7616932580992581 75.61239348445088, 1.7852893064543607 29.848393822088838, 3.116689495742321 -2.2813510224223137 M0.5891998149454594 124.26426723226905 C-0.21154690679162735 96.13015511911362, -1.3617822020873427 69.73996619321406, -1.9407297037541866 -0.9635299183428288" stroke="#ffffff" stroke-width="4" fill="none"></path></g><g stroke-opacity="0.9" fill-opacity="0.9" transform="translate(490.6666666666662 57.19721312543567) rotate(0 8 17.5)"><text x="0" y="28" font-family="Cascadia, Segoe UI Emoji" font-size="28px" fill="#ffffff" text-anchor="start" style="white-space: pre;" direction="ltr">2</text></g><g stroke-opacity="0.5" fill-opacity="0.5" transform="translate(586.3333333333329 110.56347605132788) rotate(0 73 61.5)"><path d="M0 0 C0 0, 0 0, 0 0 M0 0 C0 0, 0 0, 0 0 M-1.0115714816190984 20.393367951451896 C7.438922057310357 17.515231118348076, 12.468166136529375 3.657567488681952, 18.56124472459581 -0.3586772406310317 M1.7088133135996078 24.087817953615545 C5.146480314556476 14.914396015286354, 12.946898760331619 9.208342337333738, 20.662443237656618 -1.4052532823592898 M2.5486335959284716 50.393121418216154 C13.221430961689881 33.94422224738538, 28.906317828569968 16.074873093272508, 41.9765445483809 -2.623661515456533 M-1.8949419464916772 50.55811325521104 C9.308134877266077 38.11577508624807, 20.63147632315204 24.448490188940173, 42.80595267619543 1.7360762197851187 M-1.8276239650139203 70.0247543550506 C9.986975358887934 58.978784921722784, 25.41077252371655 37.80363808939288, 66.22046528281052 1.4713319318859348 M1.204782324116529 71.30873697096852 C15.943839559891188 55.131010767836216, 31.87031809945149 39.733330287335896, 62.11248320238073 1.0683275053767929 M3.435477230697714 100.5230277192758 C26.72141786303832 71.80084384876034, 47.532223926916615 44.79416958453548, 83.18875888100968 -4.231167601728629 M-1.4688047841192855 97.92589048789605 C21.324209453630168 76.6885854929981, 43.427893698330124 49.869502855140524, 84.10095571465001 0.42218905097823267 M-2.7666928058306155 125.53355164732119 C31.288055491142288 82.99867000182655, 63.859017404710016 45.2937458231016, 104.72248979610336 0.2910566805747763 M0.5715856852193895 123.57459312211057 C23.376366498368867 96.83631808521932, 45.3746332967563 68.758353588127, 106.00513486144078 -1.148994416848062 M9.591374842374208 132.31568965249744 C46.806254024577335 93.77337384244228, 75.35827834951274 55.93115042689277, 125.20197595222606 0.7446186558939232 M11.71291284441817 133.07658631661025 C40.34140690407665 98.17732484657988, 71.6496923198959 66.53052238248983, 128.49257001220002 1.0104876586831821 M31.921439070456174 136.64326519212506 C63.73373794261808 95.21970418052112, 97.05920882756163 54.554250082405375, 150.76496583149333 3.006400540881046 M33.62291703393355 132.68604020840309 C60.23147031208855 107.33531266520049, 83.53697723045327 81.90637606843157, 146.00777234435577 0.5195829239116989 M55.55180389668268 131.78101376642064 C73.22946456734388 102.65284001634846, 98.44699194583089 79.88177400515079, 147.59457245933385 28.288388199539824 M52.905414967345415 131.9410057273932 C82.25593218608464 101.0754248833487, 109.41488224774002 72.02034422831261, 148.18514882864923 24.000311422528668 M77.34697127417871 132.1027146722592 C91.31477998801682 111.22187012315322, 104.3781310696193 96.83594222850896, 149.46305824555944 47.9261322813938 M75.84495254309127 132.15654635014306 C89.4515004568194 114.5759651131747, 107.22440201461609 95.81066728391758, 148.51778707020472 50.74122673374513 M93.11675565606927 129.16183470651572 C115.77307352296287 111.59243419077234, 127.39778162392221 96.50383411215591, 148.03199111430456 74.84499666354077 M94.9409194096086 131.3703818032152 C108.4340646294907 119.23350383036032, 119.98404829710536 105.6616955534136, 147.7826114384692 73.03866441434639 M116.86628399547936 132.44152816606524 C124.84198652717556 122.12395138814541, 135.1923845112366 115.04869023021338, 150.40825148970367 98.65003272307845 M117.28254896533491 133.96788806317213 C126.45322449767193 122.10580497898279, 138.96607247428193 107.83408531535571, 148.7213900528896 100.16161627111765" stroke="#f2aa74" stroke-width="2" fill="none"></path><path d="M0.178440161049366 -2.5149859860539436 C36.938479514047515 -0.054789231047033926, 77.29331409409644 4.453334405198694, 143.27533466368916 -2.320449061691761 M-0.4736226536333561 1.7608864642679691 C34.802718910202394 -0.2893595492094758, 70.4581154972315 0.5053972209244963, 146.05776217207315 0.23780814185738564 M149.5741761401296 1.0564601942896843 C142.79067956548187 31.757617799378934, 146.46622978787872 62.4488190446049, 149.13769204169515 126.53254466503859 M146.96066382154825 0.20332995429635048 C144.85860738012943 34.79528152476996, 147.66094800684604 69.83001645095646, 144.1402687095106 123.91087678447366 M148.61738068610433 122.58309894055128 C99.15613705702128 123.62460200987756, 47.82728631123901 120.2151994010061, 3.7795980647206306 119.9781821295619 M146.23839130625132 122.386744055897 C111.64436950273813 125.49987620733678, 75.50044764429332 126.90268809221685, 0.38884809240698814 121.0862685777247 M-0.5305692479014397 119.89183454960585 C-2.311528103761375 95.89190402533859, -1.372504370622337 69.24285698495805, -3.8797578141093254 0.21055512875318527 M-1.8793318010866642 121.77462974563241 C-3.235106964148581 75.68473788518457, -2.567310709990561 26.579865708574644, -0.6267975308001041 -0.14360925182700157" stroke="#ffffff" stroke-width="4" fill="none"></path></g><g stroke-opacity="0.9" fill-opacity="0.9" transform="translate(652.444444444444 57.19721312543567) rotate(0 8 17.5)"><text x="0" y="28" font-family="Cascadia, Segoe UI Emoji" font-size="28px" fill="#f2aa74" text-anchor="start" style="white-space: pre;" direction="ltr">3</text></g><g stroke-opacity="0.5" fill-opacity="0.5" transform="translate(754.5555555555551 110.56347605132788) rotate(0 73 61.5)"><path d="M0.7776961848139763 -3.8274628445506096 C40.451315783336774 -1.977362161651254, 87.37938331887129 -2.6007316169887784, 142.89183454960587 -2.254455976188183 M-1.9398789070546627 0.10527756437659264 C42.57115300633014 2.0258533333987, 79.76971925199034 -0.9815747166424988, 144.77462974563244 -1.8475485779345036 M144.74640493839982 -0.28721850365400314 C144.2245147593692 40.31894367840141, 144.8346815474704 88.6229284312576, 144.4892588183284 126.0124195292592 M144.38706317916515 1.926721479743719 C147.38082295026632 25.84575814176351, 148.2581641015038 54.12749240510166, 144.30314425006512 122.07609489187598 M149.0057554766536 125.82261354476213 C117.88978127054872 126.22796109355986, 83.49846984520556 124.27626827396452, -3.6883489564061165 122.70752532035112 M144.6505325175822 122.85515620931983 C95.31058393530549 121.38988026119769, 43.77071851342917 122.0906812760979, 0.00610104575753212 121.50357976183295 M-1.1954729035496712 120.3274727538228 C2.746943148188293 99.46080366764218, 3.515267284922302 72.79830480851233, 1.4749780222773552 -1.335886649787426 M-0.27190741524100304 121.75715890154243 C-0.5414977293834091 75.24041452687234, -0.21503701027482758 26.423037675395605, 1.6399698592722416 -1.014923069626093" stroke="#ffffff" stroke-width="4" fill="none"></path></g><g stroke-opacity="0.9" fill-opacity="0.9" transform="translate(816.2777777777775 57.19721312543567) rotate(0 8 17.5)"><text x="0" y="28" font-family="Cascadia, Segoe UI Emoji" font-size="28px" fill="#ffffff" text-anchor="start" style="white-space: pre;" direction="ltr">4</text></g><g><g stroke-opacity="0.5" fill-opacity="0.5" transform="translate(328.47659899335724 108.19570664235681) rotate(0 1.9678454510867596 63.867769408971085)"><path d="M1.8135004989802832 0.2825862772762777 C2.3578401319682594 21.301010239869356, 1.912425406028827 106.28677441750963, 2.1221904031932355 127.45295254066586" stroke="#ffffff" stroke-width="4.5" fill="none" stroke-dasharray="12 8"></path></g></g><g><g stroke-opacity="0.5" fill-opacity="0.5" transform="translate(661.086640283051 108.25435700633852) rotate(0 0.46891527250409126 63.809119044989345)"><path d="M-0.09861153289675695 -0.07730445936322194 C-0.10724572663505845 20.741529599080483, 0.4309402751425905 106.45135474130512, 1.03644207790494 127.69554254934192" stroke="#ffffff" stroke-width="4.5" fill="none" stroke-dasharray="12 8"></path></g></g><g transform="translate(350.83333333333286 152.2301427179945) rotate(0 8 17.5)"><text x="0" y="28" font-family="Cascadia, Segoe UI Emoji" font-size="28px" fill="#f2aa74" text-anchor="start" style="white-space: pre;" direction="ltr">3</text></g><g transform="translate(278.944444444444 152.2301427179945) rotate(0 8 17.5)"><text x="0" y="28" font-family="Cascadia, Segoe UI Emoji" font-size="28px" fill="#f2aa74" text-anchor="start" style="white-space: pre;" direction="ltr">0</text></g><g transform="translate(490.6666666666662 152.2301427179945) rotate(0 8 17.5)"><text x="0" y="28" font-family="Cascadia, Segoe UI Emoji" font-size="28px" fill="#ffffff" text-anchor="start" style="white-space: pre;" direction="ltr">4</text></g><g transform="translate(685.444444444444 152.2301427179945) rotate(0 8 17.5)"><text x="0" y="28" font-family="Cascadia, Segoe UI Emoji" font-size="28px" fill="#f2aa74" text-anchor="start" style="white-space: pre;" direction="ltr">n</text></g><g transform="translate(609.9999999999995 152.2301427179945) rotate(0 8 17.5)"><text x="0" y="28" font-family="Cascadia, Segoe UI Emoji" font-size="28px" fill="#f2aa74" text-anchor="start" style="white-space: pre;" direction="ltr">2</text></g><g transform="translate(816.2777777777775 152.2301427179945) rotate(0 8 17.5)"><text x="0" y="28" font-family="Cascadia, Segoe UI Emoji" font-size="28px" fill="#ffffff" text-anchor="start" style="white-space: pre;" direction="ltr">5</text></g><g stroke-opacity="0.5" fill-opacity="0.5" transform="translate(919.944444444444 110.56347605132788) rotate(0 73 61.5)"><path d="M-2.7566272243857384 -1.1527483239769936 C56.654712152108566 -0.2208419787138698, 102.70262532010678 5.15615620739758, 143.8439494147897 -2.717798687517643 M1.578214656561613 1.999686885625124 C46.84503116123379 -0.30070160709321536, 96.01566770374777 -3.5020657666772608, 145.04757012054327 1.2572887428104877 M143.69789800792935 3.2347407564520836 C146.06143975999208 29.17851345110685, 148.76125813271852 60.30834419019521, 143.77855429798367 123.59451796859503 M144.15662182495 -1.707887839525938 C145.22754540789876 41.687160146795215, 147.48165729392323 84.90086123980582, 147.25843502208593 124.91695110872388 M146.28283248096707 119.606688760221 C95.3002693925053 118.54178587011992, 40.673518376797446 123.50400439314544, 2.2695938125252724 126.56292440742254 M146.3767945878208 123.25154869630933 C93.68426151610913 123.2801566361636, 45.48514809161425 122.05607976906002, 1.7164121977984905 123.9331999309361 M3.945685960352421 121.20699217170477 C-0.022721292637288393 95.02166429888457, -0.9752619286999105 71.29534368924797, 2.5536402240395546 2.767254613339901 M-0.6510375626385212 124.76581387594342 C-0.30602654714137323 78.60367262456566, -1.3882107426598669 36.98699112050235, 1.3246998898684978 0.5883838422596455" stroke="#ffffff" stroke-width="4" fill="none"></path></g><g stroke-opacity="0.9" fill-opacity="0.9" transform="translate(982.5555555555551 57.19721312543567) rotate(0 8 17.5)"><text x="0" y="28" font-family="Cascadia, Segoe UI Emoji" font-size="28px" fill="#ffffff" text-anchor="start" style="white-space: pre;" direction="ltr">5</text></g><g stroke-opacity="0.5" fill-opacity="0.5" transform="translate(1194.944444444444 110.56347605132788) rotate(0 73 61.5)"><path d="M0 0 C0 0, 0 0, 0 0 M0 0 C0 0, 0 0, 0 0 M-2.549378439579227 20.913700258075355 C4.242751639008011 16.022081165755107, 15.000951312812063 6.911894928182452, 22.23069503744867 -0.3226255202502486 M0.1598998198471282 24.48456102767503 C6.728163987286102 20.92497072435887, 10.854675254300641 14.452799940518732, 20.758367600196863 0.9596508978098157 M2.9172950293868 46.04917588517897 C15.642207087381507 31.15214508305635, 34.260101738004195 8.949890200206198, 46.05591173898034 0.5099959101854807 M1.6295140627770834 47.57413666755788 C10.799559637503005 37.94333103108744, 23.02050923758507 23.642280637569513, 44.130504720467854 -0.8121947060943597 M-2.24167260693401 75.48276023039965 C11.584119249010012 52.61463077591943, 33.05003238780995 40.44835228985154, 62.58795369685967 0.5045664983360538 M-0.037617383320032616 71.43245930070428 C21.82732857075709 47.15234164016651, 45.878489637247355 21.39084074312799, 65.03393380240877 -1.589758541199707 M-1.3283896408976688 95.90526893855795 C27.228506264451255 72.23633335675419, 42.778041464407394 44.332961641125245, 84.12589317671166 0.17842022857647066 M0.9253669157622681 98.98801547037229 C20.15427917123801 75.0627008162616, 40.614057114276456 50.54994614174442, 83.3406030882071 1.4405580253062737 M1.7058342511018338 122.88711683358332 C40.50129893623746 72.42913819472142, 90.53127887002056 26.980319551329515, 109.9453649441613 1.6973285852817313 M0.9837832601924958 120.76373464892885 C28.38451145774452 91.57628473447654, 60.22361178671227 58.60621683890905, 107.87167957005036 -1.1693651237639173 M13.071078298537614 133.08122211628643 C53.23032568061167 87.62904743245994, 90.76430161032287 49.53351768246489, 125.89250723584308 -2.6197898669503914 M11.736993106006267 131.45489343562213 C51.8517388886492 83.04542892970684, 96.27417198641929 32.735772977311015, 125.61648996113553 1.7503427246249927 M36.39492170905366 132.12371293148777 C75.9403115531888 86.03932984071852, 116.58859473769556 38.53588073086878, 146.60213884637255 3.185001776032337 M32.79951413741007 134.20482212371013 C69.69406758909747 90.31094028276073, 111.14992509274084 46.08838327087879, 145.57569778264065 -0.15158562693726196 M52.25273881341737 130.61037946690396 C88.53323264555023 93.14801469750532, 123.06106198829093 53.695298897890765, 144.7856931136784 24.873494065733595 M52.956315411733804 132.95635679934696 C78.93077952828887 100.55144011744352, 104.05528640121574 72.20319785623082, 145.6742373490569 27.792280021490498 M76.78735187725374 134.71480570691 C98.3300528786418 107.93856567314718, 122.42970851765955 80.8760269346767, 147.77500276007245 51.799792339176925 M74.40747017116496 131.44497109534512 C92.16335428403545 114.14118685265129, 112.69553114035406 92.70181569752191, 146.93009860925864 51.43152840536931 M96.11814566618776 129.25901313588088 C114.55208135128238 108.21339370129338, 140.23923592771985 86.16993521977722, 148.82245602218916 71.37656516096013 M96.80227040789103 132.6444198945171 C105.80167621497975 121.65223358757306, 117.34983258238269 108.87253753646314, 146.37948327644278 74.63915523773449 M114.59106744584443 129.46346073819163 C124.45916547742426 124.03666118727958, 140.77270800831525 110.84720840827069, 145.65700363666298 95.16491859568092 M119.11422686409952 130.89173932967546 C126.12759092732115 123.75435091849877, 129.30580018619833 115.83541815027857, 149.2578118138063 97.77643748162123" stroke="#f2aa74" stroke-width="2" fill="none"></path><path d="M3.685653306543827 -1.8292398229241371 C32.52251840792597 4.389264639690518, 69.35997097268702 -1.8762924110144374, 147.139554835856 -0.5485183969140053 M-1.1143439896404743 1.5012760646641254 C52.90680576078595 -4.619630947932601, 104.66734683811667 -1.6622541102021935, 144.58490420505407 -0.08911783620715141 M146.1710546985269 0.9813525900244713 C147.45508034612988 29.700532402284445, 142.36276157286022 52.16753783710301, 147.97686205059293 124.1080441698432 M144.5460982434452 -1.2916906587779522 C144.53285497415814 30.92353631909937, 144.9910798667744 65.87770448960364, 147.1469692103565 124.35075311735272 M147.47314462810758 121.16434337943792 C114.33205639459194 123.64944469742477, 86.89516890570522 124.08580720238388, 1.924070693552494 119.81644847244024 M144.50711954757574 124.1676810272038 C107.7684861097485 123.31086525671184, 68.99165610820056 124.30046102754771, -1.506133783608675 124.41613142564893 M1.7191203609108925 122.65894152969122 C-1.6600171407684687 101.47760602962225, 0.12704335842281544 75.58267037086188, 2.147440530359745 3.1018409952521324 M1.6016056649386883 122.10705225542188 C1.3201976714655757 84.12120379898697, 2.125476091913879 43.84329067580401, 1.876449715346098 -1.8957905285060406" stroke="#ffffff" stroke-width="4" fill="none"></path></g><g transform="translate(1259.944444444444 57.197213125435724) rotate(0 8 17.5)"><text x="0" y="28" font-family="Cascadia, Segoe UI Emoji" font-size="28px" fill="#f2aa74" text-anchor="start" style="white-space: pre;" direction="ltr">n</text></g><g><g stroke-opacity="0.5" fill-opacity="0.5" transform="translate(1268.3314844791257 110.38410127595463) rotate(0 -0.3870400346816041 62.790485886484404)"><path d="M-2.264844659715891 2.483430854231119 C-2.446376780420542 23.21309898669521, 0.48034241621692986 102.74210654074948, 1.4907645903527738 123.09754091873765" stroke="#ffffff" stroke-width="4.5" fill="none" stroke-dasharray="12 8"></path></g></g><g transform="translate(982.5555555555551 152.2301427179945) rotate(0 8 17.5)"><text x="0" y="28" font-family="Cascadia, Segoe UI Emoji" font-size="28px" fill="#ffffff" text-anchor="start" style="white-space: pre;" direction="ltr">0</text></g><g transform="translate(1290.944444444444 152.2301427179945) rotate(0 8 17.5)"><text x="0" y="28" font-family="Cascadia, Segoe UI Emoji" font-size="28px" fill="#f2aa74" text-anchor="start" style="white-space: pre;" direction="ltr">0</text></g><g transform="translate(1222.944444444444 152.2301427179945) rotate(0 8 17.5)"><text x="0" y="28" font-family="Cascadia, Segoe UI Emoji" font-size="28px" fill="#f2aa74" text-anchor="start" style="white-space: pre;" direction="ltr">4</text></g><g><g transform="translate(1119.9999999999995 169.92973989753375) rotate(0 11.604130455893028 -0.1995971795392535)"><path d="M-1.1052543677389621 -0.5335851274430752 C2.6475838825244784 -0.849416419160038, 19.679871822962703 -0.6289492254042118, 24.31351527952497 0.2699994002779138" stroke="#ffffff" stroke-width="4.5" fill="none" stroke-dasharray="3 6"></path></g></g><g stroke-opacity="0.9" fill-opacity="0.9" transform="translate(304.8333333333329 11.555555555555515) rotate(0 24.5 17.5)"><text x="0" y="28" font-family="Cascadia, Segoe UI Emoji" font-size="28px" fill="#ffffff" text-anchor="start" style="white-space: pre;" direction="ltr">[0]</text></g><g stroke-opacity="0.9" fill-opacity="0.9" transform="translate(474.1666666666662 11.555555555555515) rotate(0 24.5 17.5)"><text x="0" y="28" font-family="Cascadia, Segoe UI Emoji" font-size="28px" fill="#ffffff" text-anchor="start" style="white-space: pre;" direction="ltr">[1]</text></g><g stroke-opacity="0.9" fill-opacity="0.9" transform="translate(635.944444444444 11.555555555555515) rotate(0 24.5 17.5)"><text x="0" y="28" font-family="Cascadia, Segoe UI Emoji" font-size="28px" fill="#ffffff" text-anchor="start" style="white-space: pre;" direction="ltr">[2]</text></g><g stroke-opacity="0.9" fill-opacity="0.9" transform="translate(799.7777777777775 11.555555555555515) rotate(0 24.5 17.5)"><text x="0" y="28" font-family="Cascadia, Segoe UI Emoji" font-size="28px" fill="#ffffff" text-anchor="start" style="white-space: pre;" direction="ltr">[3]</text></g><g stroke-opacity="0.9" fill-opacity="0.9" transform="translate(966.0555555555551 11.555555555555515) rotate(0 24.5 17.5)"><text x="0" y="28" font-family="Cascadia, Segoe UI Emoji" font-size="28px" fill="#ffffff" text-anchor="start" style="white-space: pre;" direction="ltr">[4]</text></g><g transform="translate(1226.944444444444 11.555555555555515) rotate(0 41 17.5)"><text x="0" y="28" font-family="Cascadia, Segoe UI Emoji" font-size="28px" fill="#ffffff" text-anchor="start" style="white-space: pre;" direction="ltr">[n-1]</text></g><g transform="translate(10 10) rotate(0 131 17.5)"><text x="0" y="28" font-family="Cascadia, Segoe UI Emoji" font-size="28px" fill="#ffffff" text-anchor="start" style="white-space: pre;" direction="ltr">storage indices:</text></g><g transform="translate(56.7777777777776 53.16666666666674) rotate(0 106.5 17.5)"><text x="0" y="28" font-family="Cascadia, Segoe UI Emoji" font-size="28px" fill="#ffffff" text-anchor="start" style="white-space: pre;" direction="ltr">node indices:</text></g><g><g transform="translate(306.6666666666666 278.44444444444446) rotate(0 15.023145595639903 -33.625578037649404)"><path d="M-0.03545022830367106 2.3820295535027975 C4.681822172552328 -9.628575392315785, 23.259916742394275 -57.62559454813599, 28.14857713356603 -69.63318562880158 M-3.499218851476908 1.2068203581869605 C2.1315389905869773 -9.068052041778962, 28.44446213111272 -54.541802386691174, 33.54551004275668 -65.80472608670593" stroke="#f2aa74" stroke-width="2" fill="none"></path></g><g transform="translate(306.6666666666666 278.44444444444446) rotate(0 15.023145595639903 -33.625578037649404)"><path d="M-0.6623339497935583 -7.216053734193122 C0.47739673223295953 -7.746796730062943, 1.90625286108993 -6.557603405404761, 3.036353581631483 -5.311396135376857 C4.166454302173036 -4.0651888653489525, 5.624952228655632 -1.5128407700143807, 6.118270373455759 0.26118988597430226 C6.611588518255886 2.0352205419629854, 6.152122417316113 3.887681602312795, 5.996262450432242 5.332787800555241 C5.840402483548372 6.777893998797688, 6.576479925954663 8.13239848164624, 5.183110572152538 8.931827075428982 C3.7897412183504127 9.731255669211725, -0.5652128862685784 10.1884255117517, -2.36395367238051 10.129359363251695 C-4.1626944584924415 10.07029321475169, -4.808493705996447 10.213461854783096, -5.609334144519051 8.577430184428952 C-6.410174583041655 6.941398514074806, -7.122680994681268 2.285274093856028, -7.168996303516134 0.3131693411268232 C-7.215311612351 -1.6589354116023818, -6.878598912032985 -2.3777873288267783, -5.8872259975282475 -3.2551983319462785 C-4.89585308302351 -4.132609335065778, -2.818923609410292 -4.873786992394217, -1.2207588164877055 -4.951296677590178 C0.3774059764348807 -5.028806362786138, 3.477564520935981 -3.6484957532723965, 3.7017627600072696 -3.7202564431220386 M3.137256610310406 -5.4293021489702555 C4.515203111615513 -5.190576741473356, 6.700924602178831 -1.6288337183310377, 7.339217335948116 -0.22266717582189077 C7.977510069717401 1.1834993666872562, 7.545095472186672 1.5044434862022236, 6.967013012926117 3.0076971060846276 C6.388930553665562 4.510950725967032, 5.05827793496914 7.4362089828825235, 3.870722580384787 8.796854543472532 C2.6831672258004344 10.15750010406254, 1.2364425093642286 10.924938041621486, -0.15831911457999714 11.17157046962468 C-1.553080738524223 11.418202897627873, -3.6404759105817566 11.410652920320352, -4.497847163280566 10.276649111491693 C-5.355218415979376 9.142645302663034, -4.532130850732099 6.252320540779862, -5.302546630772855 4.36754761665273 C-6.07296241081361 2.482774692525598, -9.333430413627863 0.13224074115588147, -9.120341843525097 -1.0319884332711013 C-8.90725327342233 -2.196217607698084, -6.212095758415519 -2.2985926511468335, -4.024015210156259 -2.617827429909167 C-1.8359346618969985 -2.9370622086715006, 2.440147358954425 -2.541198070682859, 4.008141446030466 -2.947397105845104 C5.576135533106507 -3.3535961410073485, 5.670783515160639 -4.506934328540694, 5.38394931229999 -5.055021640882635" stroke="none" stroke-width="0" fill="#f2aa74"></path><path d="M-4.375216295228946 -2.3552007729653557 C-3.5483486483550286 -3.385634925736488, -2.889745116319204 -5.596444314014413, -1.3753592023190353 -5.842655537716252 C0.13902671168113345 -6.088866761418091, 3.2489514898798912 -5.3045304998423095, 4.711099188772067 -3.832468115176387 C6.173246887664243 -2.3604057305104647, 7.125515684458732 1.2049462423126551, 7.397526991034021 2.9897187702792833 C7.66953829760931 4.774491298245912, 7.2009938350901335 5.754281804544818, 6.343167028223799 6.876167052623384 C5.485340221357464 7.998052300701949, 3.4734027107829193 8.887241802387884, 2.25056614983601 9.721030258750677 C1.0277295888891005 10.55481871511347, 0.5189723303813694 12.742498846965443, -0.9938523374576582 11.878897790800142 C-2.5066770052966856 11.015296734634841, -5.534143226914196 6.3013599258744755, -6.826381857198156 4.5394239217588765 C-8.118620487482115 2.7774879176432776, -10.152359997852416 2.808666641070864, -8.747284119161417 1.30728176610655 C-7.342208240470418 -0.19410310885776427, -1.048783862601147 -4.080356673134207, 1.6040734149478404 -4.4688853280270076 C4.2569306924968275 -4.857413982919808, 7.289216722245076 -1.138587004641716, 7.169859546132506 -1.0238901632502517 M-1.9982871290439697 -2.3887827027625717 C-0.7932347082542517 -3.6143190725762286, -1.3070330254335993 -6.7850703221910535, -0.0416980109465005 -6.728054714843327 C1.2236370035405986 -6.6710391074956, 4.346804735224758 -3.558645890185609, 5.593722957878624 -2.046689058676214 C6.84064118053249 -0.5347322271668189, 7.157490803260287 1.111228111790837, 7.439811324976698 2.3436862742130424 C7.722131846693109 3.576144436635248, 7.848396269628974 3.610724354010731, 7.287646088177091 5.34805991585702 C6.726895906725208 7.085395477703308, 5.454380447974356 11.653252252250127, 4.075310236265395 12.767699645290772 C2.6962400245564337 13.882147038331418, 0.6769227827313498 13.0871458692359, -0.9867751820766757 12.034744274100898 C-2.650473146884701 10.982342678965896, -4.4738614351199 8.354171850421448, -5.906877552582758 6.45329007448076 C-7.339893670045615 4.552408298540072, -9.378105607228344 2.179605322922427, -9.584871886853822 0.6294536184567674 C-9.7916381664793 -0.9206980860088925, -8.502199494310041 -1.8096222898014156, -7.147475230335628 -2.8476201523131994 C-5.792750966361216 -3.885618014824983, -1.6865986423213133 -4.964937524687424, -1.4565263030073483 -5.598533556613935" stroke="#f2aa74" stroke-width="2" fill="none"></path></g><g transform="translate(306.6666666666666 278.44444444444446) rotate(0 15.023145595639903 -33.625578037649404)"><path d="M32.92939468326681 -38.72004272931322 C30.717849186595885 -45.83335464698587, 31.85796683434753 -50.190825417470904, 30.315244283825045 -65.9631754757464 M31.252418989713124 -36.01374625929698 C30.891796559365606 -44.6210082263992, 31.467186856824213 -51.30648889617429, 35.49102187186468 -66.0032232144475" stroke="#f2aa74" stroke-width="2" fill="none"></path></g><g transform="translate(306.6666666666666 278.44444444444446) rotate(0 15.023145595639903 -33.625578037649404)"><path d="M14.75986423783079 -48.25881444155233 C18.064155459307308 -52.55871745681526, 24.55451374724059 -54.10738013919387, 30.315244283825045 -65.9631754757464 M13.082888544277104 -45.55251797153609 C17.925225591660475 -51.42805912327202, 23.719605299228093 -55.373636926480295, 35.49102187186468 -66.0032232144475" stroke="#f2aa74" stroke-width="2" fill="none"></path></g></g><g transform="translate(206.66666666666646 268.88888888888886) rotate(0 33 17.5)"><text x="0" y="28" font-family="Cascadia, Segoe UI Emoji" font-size="28px" fill="#f2aa74" text-anchor="start" style="white-space: pre;" direction="ltr">head</text></g><g><g transform="translate(449.44444444444446 281.222222222222) rotate(0 12.664714883251236 -34.743527647472064)"><path d="M-1.7789543665945529 -1.5062298856675624 C2.152551413272249 -13.990729934446227, 17.301265758745014 -61.86722628212081, 22.021633385535644 -73.33484680412539 M2.4508033351600176 3.8477915091812616 C7.3718810360575 -8.39717513429345, 23.204342412424225 -57.2007431995482, 27.108384133097097 -70.30951126514205" stroke="#ffffff" stroke-width="2" fill="none"></path></g><g transform="translate(449.44444444444446 281.222222222222) rotate(0 12.664714883251236 -34.743527647472064)"><path d="M-1.3351064160296182 -8.26106624666171 C0.4647638748938594 -8.003758084661962, 2.89622776120247 -8.481901843792029, 4.06807528715725 -7.752445193197455 C5.239922813112031 -7.0229885426028815, 5.532898301278125 -5.948790267290275, 5.695978739699063 -3.884326343094266 C5.859059178120001 -1.819862418898257, 5.903824190372244 2.7699224254171737, 5.046557917682874 4.634338351978599 C4.189291644993503 6.498754278540024, 2.2439666042667166 7.185340293722745, 0.5523811035628394 7.302169216274287 C-1.1392043971410377 7.418998138825828, -3.3028418354249753 6.1040156353020265, -5.102955086540388 5.335311887287848 C-6.9030683376558 4.56660813927367, -9.82336189414125 4.196769081899402, -10.248298403129636 2.689946728189218 C-10.673234912118023 1.183124374479035, -8.423283869611787 -2.1835595841522704, -7.652574140470703 -3.7056222349732515 C-6.881864411329619 -5.227684885794233, -7.063832223191919 -5.380759719865234, -5.62404002828313 -6.4424291767366695 C-4.184247833374342 -7.504098633608105, -0.32989024873993333 -9.68470534741382, 0.9861790289820285 -10.075638976201862 C2.3022483067039903 -10.466572604989905, 2.5439251013792483 -9.029278967130423, 2.27237563804864 -8.78803094946492 M-2.726431425395833 -10.126886535643425 C-1.2073798520587162 -10.891863088296565, 0.6621555904575595 -9.48338138600229, 1.4650989489546802 -8.435522105899954 C2.268042307451801 -7.38766282579762, 1.5359734633680882 -5.462996094580478, 2.091228725586891 -3.83973085502942 C2.646483987805694 -2.216465615478362, 4.574852601811498 -0.5327459953554132, 4.796630522267498 1.304069331406396 C5.018408442723498 3.140884658168205, 4.952652093204593 6.541637968380221, 3.4218962483228896 7.1811611055414355 C1.8911404034411863 7.82068424270265, -2.439858168428347 5.991938619261467, -4.387904547022721 5.1412081543736825 C-6.335950925617095 4.290477689485898, -7.897934640255261 3.5807473182892027, -8.266382023243356 2.0767783162147255 C-8.634829406231452 0.5728093141402484, -6.326489605814788 -2.4563208123878475, -6.598588844951293 -3.8826058580731795 C-6.870688084087798 -5.3088909037585115, -10.722992026529175 -5.295653078371781, -9.898977458062387 -6.480931957897267 C-9.074962889595598 -7.666210837422754, -2.43532801437476 -10.994735404034925, -1.6545014341505653 -10.994279135226098 C-0.8736748539263701 -10.99382286641727, -4.923695867146418 -6.622235773967645, -5.214017976717216 -6.478194345044305" stroke="none" stroke-width="0" fill="#ffffff"></path><path d="M-5.8044829334341745 -5.924740630051821 C-4.837775827158154 -7.650947644093102, -4.346031045435803 -10.026891268841698, -3.145414614256544 -10.416899786409823 C-1.9447981830772854 -10.806908303977949, 0.05683342080443654 -9.255019678142553, 1.399215653641377 -8.264791735460571 C2.741597886478317 -7.27456379277859, 4.619629414505878 -5.894509374788335, 4.908878782765099 -4.475532130317934 C5.198128151024319 -3.0565548858475324, 3.486176238165944 -1.2971633698473253, 3.134711863196701 0.24907173136183358 C2.7832474882274583 1.7953068325709924, 3.7862413489524664 3.638110340951406, 2.800092532949642 4.801878476937021 C1.8139437169468176 5.965646612922636, -1.1867580366970303 7.361774547554664, -2.782181032820245 7.231680547275522 C-4.37760402894346 7.101586546996379, -5.532017624067974 5.7832548634660865, -6.772445443789647 4.021314475262166 C-8.01287326351132 2.2593740870582453, -10.310873191478834 -1.3756028518581604, -10.224747951150285 -3.3399617819480043 C-10.138622710821735 -5.304320712037848, -7.278611077092394 -6.880661935870288, -6.255694001818351 -7.764839105276897 C-5.232776926544307 -8.649016274683506, -4.342413806356825 -8.433692748967655, -4.0872454995060234 -8.645024798387656 M-1.022346597886307 -10.561456403316804 C0.6263506208496645 -11.313051480693103, 1.9545701191862026 -8.840011281877045, 2.9108508518187133 -7.585561771419434 C3.867131584451224 -6.331112260961824, 4.70011215272829 -4.406381096819717, 4.715337797908758 -3.0347593405711377 C4.730563443089225 -1.6631375843225584, 2.984914494848093 -1.0735134004070042, 3.0022047229015163 0.6441687660720403 C3.0194949509549396 2.361850932551085, 5.440257949517864 6.786115638141969, 4.819079166229296 7.271333658303129 C4.197900382940729 7.756551678464288, 1.6664682142373457 4.52009928662729, -0.7248679768298921 3.5554768870389957 C-3.11620416789713 2.5908544874507013, -8.65475254430119 2.737350472720428, -9.528937980174133 1.4835992607733628 C-10.403123416047077 0.22984804882629772, -6.176829404995497 -2.732608479997372, -5.969980592067559 -3.9670303846433947 C-5.763131779139621 -5.201452289289417, -8.375566979002459 -4.7064678193498075, -8.287845102606502 -5.922932167102774 C-8.200123226210545 -7.13939651485574, -5.8196175547848865 -11.119238689898577, -5.44364933369182 -11.265816471161195 C-5.067681112598753 -11.412394252423812, -5.953254934474878 -7.026875770769907, -6.032035776048103 -6.8023988546784855" stroke="#ffffff" stroke-width="2" fill="none"></path></g><g transform="translate(449.44444444444446 281.222222222222) rotate(0 12.664714883251236 -34.743527647472064)"><path d="M26.301387261090625 -43.80082473838927 C26.198978927115228 -44.67174111161796, 30.189248401624226 -53.54793161975138, 26.731466316398546 -72.50944112090596 M28.13805399039184 -42.06113463947774 C27.046828629117208 -47.63617141556368, 27.098669408974224 -56.82385185770761, 28.055877734687492 -69.84586889518627" stroke="#ffffff" stroke-width="2" fill="none"></path></g><g transform="translate(449.44444444444446 281.222222222222) rotate(0 12.664714883251236 -34.743527647472064)"><path d="M6.722528013834911 -49.94804142254715 C11.466811179690986 -49.07012050313634, 20.23474095292538 -56.446258698279145, 26.731466316398546 -72.50944112090596 M8.559194743136125 -48.208351323635625 C12.947585837143558 -52.06765400573648, 18.474621527107967 -59.536275687848416, 28.055877734687492 -69.84586889518627" stroke="#ffffff" stroke-width="2" fill="none"></path></g></g><g transform="translate(391.4444444444442 294.27777777777777) rotate(0 33.00000000000003 17.5)"><text x="0" y="28" font-family="Cascadia, Segoe UI Emoji" font-size="28px" fill="#ffffff" text-anchor="start" style="white-space: pre;" direction="ltr">head</text></g><g transform="translate(561.1111111111111 126.22222222222229) rotate(0 102.22222222222229 41.111111111111114)"><path d="M162.27351984288651 8.79158496310746 C174.8432792599271 11.343242201325378, 185.5358824119126 15.293071911205072, 192.58706518279584 20.302166157376863 C199.63824795367907 25.311260403548655, 204.09944520055672 32.70039450562405, 204.58061646818592 38.84615044013822 C205.06178773581513 44.99190637465239, 200.91173454682445 51.36196365233603, 195.4740927885711 57.176701764461896 C190.03645103031778 62.99143987658776, 182.492402077011 69.77066410483008, 171.95476591866594 73.73457911289341 C161.41712976032088 77.69849412095675, 146.9937158167456 79.66835282514003, 132.24827583850066 80.96019181284194 C117.5028358602557 82.25203080054385, 98.43354527384783 82.29639456022507, 83.48212604919621 81.48561303910486 C68.5307068245446 80.67483151798466, 54.3362660384474 79.7779132633408, 42.53976049059097 76.09550268612071 C30.743254942734545 72.41309210890061, 19.722587898097053 64.88206891714965, 12.70309276205765 59.39114957578427 C5.683597626018249 53.900230234418885, 1.118206693080341 48.47641591696872, 0.4227896743545614 43.14998663792843 C-0.27262734437121827 37.82355735888814, 2.914160200063182 32.70115463820016, 8.530590649702972 27.43257390154251 C14.147021099342762 22.163993164884864, 23.67622091361102 15.953554650736027, 34.121372372193306 11.538502217982543 C44.566523830775594 7.123449785229059, 57.21340722910267 2.4746723325867146, 71.20149940119668 0.9422593050216008 C85.1895915732907 -0.5901537225435127, 103.0670222319892 1.3430928553420916, 118.04992540475737 2.3440240525918625 C133.03282857752555 3.3449552498416333, 150.62264809689083 4.627277579887764, 161.09891843780576 6.947846488520227 C171.5751887787207 9.26841539715269, 175.9925442510229 13.381342619511098, 180.90754745024708 16.26743750438664 C185.82255064947125 19.15353238926218, 191.75238450316812 23.93864914642021, 190.58893763315075 24.264415797773466 M142.36246309032867 2.2890164996279623 C155.50376184104184 4.863037023890312, 169.44959402125178 12.088497008808048, 179.42196214125974 17.221111661140213 C189.3943302612677 22.35372631347238, 198.28448739969218 27.705768805292884, 202.19667181037647 33.084704413620955 C206.10885622106076 38.463640021949026, 205.34907197004827 43.801979637565495, 202.89506860536548 49.49472531110864 C200.4410652406827 55.18747098465178, 196.100405951752 63.0654519818394, 187.47265162227973 67.24117845487982 C178.84489729280745 71.41690492792023, 164.53267384072274 72.20921673725789, 151.12854262853173 74.5490841493511 C137.72441141634073 76.88895156144432, 122.14828218868942 80.2131345284509, 107.04786434913363 81.28038292743912 C91.94744650957784 82.34763132642735, 74.24531755240572 83.4185120752366, 60.526035591196965 80.95257454328049 C46.80675362998821 78.48663701132438, 33.74660077233219 71.37099936769934, 24.732172581881102 66.48475773570246 C15.717744391430015 61.598516103705585, 9.885349471016832 57.35685224417354, 6.43946644849045 51.635124751299244 C2.9935834259640663 45.91339725842495, 2.0905437450661806 37.63769893527911, 4.0568744467228015 32.154392778456675 C6.0232051483794224 26.671086621634238, 10.375978427816683 23.44799672221737, 18.237450658430177 18.735287810364632 C26.09892288904367 14.022578898511895, 38.438338975220994 6.865841673438629, 51.22570783040376 3.8781393073402555 C64.01307668558653 0.8904369412418816, 80.530776722535 0.6925980498303824, 94.9616637895268 0.8090736137743875 C109.3925508565186 0.9255491777183925, 129.6521035721129 4.112027183977486, 137.8110302323546 4.5769926910042855 C145.9699568925963 5.041958198031085, 143.18492886448104 4.10368105624865, 143.915223750977 3.5988666559351827 C144.64551863747295 3.0940522556217154, 142.7078828166895 0.8925911268859572, 142.1927995513303 1.5481062891234814" stroke="#ffffff" stroke-width="2" fill="none"></path></g><g><g transform="translate(705.5555555555558 202.88888888888897) rotate(0 9.504091031232804 56.25786842867731)"><path d="M0.7999491177499292 2.343862906843424 C-3.3767169186086528 16.52725147116515, -29.950419542717682 66.7501053251326, -22.90473487219874 84.92076187108952 C-15.8590502016798 103.09141841704646, 32.2082235502148 107.08491834509704, 43.07405714086358 111.367802182585 M-2.2103170032799246 1.1479346747696404 C-5.677296982865638 14.533636388861469, -24.900162528880184 63.199753608256565, -17.476425305820147 80.7718405321737 C-10.05268808276011 98.34392745609082, 32.16716489403886 101.11585941005083, 42.332106335080304 106.58045621827245" stroke="#ffffff" stroke-width="2" fill="none"></path></g><g transform="translate(705.5555555555558 202.88888888888897) rotate(0 9.504091031232804 56.25786842867731)"><path d="M15.744675135462572 105.97963404396215 C25.95157993690418 110.43567863724031, 36.92283743571415 108.57654516067205, 43.21505618653361 103.45273572072387 M14.197727801500847 109.28487637752333 C21.37093922150621 108.39377474258615, 27.526063904745023 109.71312031176521, 43.4881747085518 107.15691206097603" stroke="#ffffff" stroke-width="2" fill="none"></path></g><g transform="translate(705.5555555555558 202.88888888888897) rotate(0 9.504091031232804 56.25786842867731)"><path d="M21.487497202157734 86.27836512299875 C29.504239959397584 98.19408240901959, 38.3106050375907 103.76180758629651, 43.21505618653361 103.45273572072387 M19.94054986819601 89.58360745655993 C25.535088786705796 93.49220214845646, 30.28266747461319 99.64026117081194, 43.4881747085518 107.15691206097603" stroke="#ffffff" stroke-width="2" fill="none"></path></g></g><g transform="translate(777.7777777777778 296.6666666666667) rotate(0 78.5 15)"><text x="0" y="24" font-family="Cascadia, Segoe UI Emoji" font-size="24.42642642642644px" fill="#ffffff" text-anchor="start" style="white-space: pre;" direction="ltr">prev | next</text></g></svg>