<svg version="1.1" xmlns="http://www.w3.org/2000/svg" viewBox="0 0 1239.3098845598724 396.7777777777776" width="1239.3098845598724" height="396.7777777777776">
  <!-- svg-source:excalidraw -->
  
  <defs>
    <style>
      @font-face {
        font-family: "Virgil";
        src: url("https://excalidraw.com/Virgil.woff2");
      }
      @font-face {
        font-family: "Cascadia";
        src: url("https://excalidraw.com/Cascadia.woff2");
      }
    </style>
  </defs>
  <g stroke-opacity="0.4" fill-opacity="0.4" stroke-linecap="round" transform="translate(10 116.92316017316102) rotate(0 595.6666666666667 54.5)"><path d="M0 0 C0 0, 0 0, 0 0 M0 0 C0 0, 0 0, 0 0 M0.27 24.08 C5.26 18.34, 10.25 12.6, 21.26 -0.07 M0.27 24.08 C5.96 17.53, 11.66 10.98, 21.26 -0.07 M-0.12 48.92 C12.66 34.22, 25.44 19.51, 42.52 -0.14 M-0.12 48.92 C16.57 29.72, 33.26 10.51, 42.52 -0.14 M0.14 73 C22.68 47.08, 45.21 21.16, 63.78 -0.21 M0.14 73 C15.95 54.82, 31.75 36.64, 63.78 -0.21 M-0.25 97.84 C21.16 73.21, 42.57 48.59, 85.04 -0.28 M-0.25 97.84 C27.79 65.58, 55.83 33.33, 85.04 -0.28 M6.58 114.37 C39.33 76.7, 72.07 39.03, 106.3 -0.34 M6.58 114.37 C33.57 83.32, 60.56 52.27, 106.3 -0.34 M27.84 114.3 C48.53 90.5, 69.23 66.69, 126.91 0.34 M27.84 114.3 C59.2 78.22, 90.57 42.14, 126.91 0.34 M49.1 114.23 C78.49 80.42, 107.89 46.61, 148.17 0.27 M49.1 114.23 C75.51 83.86, 101.91 53.48, 148.17 0.27 M69.7 114.92 C107.04 71.97, 144.37 29.02, 169.43 0.2 M69.7 114.92 C102.72 76.94, 135.74 38.95, 169.43 0.2 M90.96 114.85 C120.86 80.45, 150.76 46.06, 190.69 0.13 M90.96 114.85 C119.35 82.19, 147.74 49.54, 190.69 0.13 M112.22 114.78 C132.48 91.48, 152.73 68.19, 211.95 0.06 M112.22 114.78 C143.99 78.24, 175.75 41.7, 211.95 0.06 M133.48 114.71 C171.7 70.75, 209.92 26.78, 233.21 0 M133.48 114.71 C172.77 69.52, 212.06 24.32, 233.21 0 M154.75 114.64 C185.19 79.62, 215.64 44.59, 254.47 -0.07 M154.75 114.64 C184.21 80.75, 213.67 46.85, 254.47 -0.07 M176.01 114.57 C205.64 80.49, 235.27 46.4, 275.73 -0.14 M176.01 114.57 C214.27 70.55, 252.54 26.53, 275.73 -0.14 M197.27 114.5 C231.78 74.8, 266.3 35.09, 296.99 -0.21 M197.27 114.5 C222.09 85.95, 246.91 57.4, 296.99 -0.21 M218.53 114.44 C258.05 68.97, 297.58 23.5, 318.25 -0.28 M218.53 114.44 C244.81 84.2, 271.1 53.96, 318.25 -0.28 M239.79 114.37 C274.21 74.77, 308.64 35.16, 339.51 -0.35 M239.79 114.37 C263.33 87.28, 286.87 60.2, 339.51 -0.35 M261.05 114.3 C294.77 75.5, 328.5 36.7, 360.11 0.34 M261.05 114.3 C297.05 72.88, 333.05 31.46, 360.11 0.34 M282.31 114.23 C319.65 71.27, 356.99 28.32, 381.37 0.27 M282.31 114.23 C310.5 81.8, 338.69 49.37, 381.37 0.27 M302.91 114.91 C342.16 69.76, 381.42 24.6, 402.63 0.2 M302.91 114.91 C326.19 88.13, 349.47 61.35, 402.63 0.2 M324.17 114.85 C351.13 83.83, 378.1 52.81, 423.89 0.13 M324.17 114.85 C353.31 81.32, 382.45 47.8, 423.89 0.13 M345.43 114.78 C377.82 77.51, 410.22 40.25, 445.15 0.06 M345.43 114.78 C379.76 75.29, 414.08 35.8, 445.15 0.06 M366.69 114.71 C397.54 79.22, 428.38 43.74, 466.41 -0.01 M366.69 114.71 C399.32 77.17, 431.96 39.63, 466.41 -0.01 M387.95 114.64 C418.64 79.34, 449.32 44.04, 487.67 -0.08 M387.95 114.64 C426.5 70.29, 465.05 25.95, 487.67 -0.08 M409.21 114.57 C442.34 76.46, 475.47 38.35, 508.93 -0.15 M409.21 114.57 C441.93 76.93, 474.65 39.29, 508.93 -0.15 M430.47 114.5 C452.46 89.21, 474.44 63.92, 530.19 -0.22 M430.47 114.5 C467.53 71.87, 504.59 29.24, 530.19 -0.22 M451.73 114.43 C474.89 87.79, 498.04 61.16, 551.45 -0.28 M451.73 114.43 C472.04 91.07, 492.36 67.7, 551.45 -0.28 M472.99 114.36 C507.51 74.65, 542.03 34.94, 572.71 -0.35 M472.99 114.36 C505.99 76.4, 538.99 38.44, 572.71 -0.35 M494.25 114.29 C519.72 85, 545.19 55.7, 593.32 0.33 M494.25 114.29 C527.25 76.34, 560.24 38.38, 593.32 0.33 M515.51 114.22 C542.5 83.18, 569.49 52.13, 614.58 0.26 M515.51 114.22 C536.93 89.59, 558.34 64.96, 614.58 0.26 M536.12 114.91 C566.97 79.42, 597.83 43.92, 635.84 0.19 M536.12 114.91 C562.61 84.43, 589.1 53.96, 635.84 0.19 M557.38 114.84 C596.43 69.91, 635.49 24.98, 657.1 0.13 M557.38 114.84 C597.21 69.01, 637.05 23.18, 657.1 0.13 M578.64 114.77 C603.2 86.51, 627.77 58.25, 678.36 0.06 M578.64 114.77 C600.7 89.39, 622.77 64.01, 678.36 0.06 M599.9 114.7 C619.93 91.66, 639.96 68.62, 699.62 -0.01 M599.9 114.7 C637.12 71.88, 674.35 29.05, 699.62 -0.01 M621.16 114.63 C659.03 71.06, 696.91 27.49, 720.88 -0.08 M621.16 114.63 C660.04 69.9, 698.92 25.17, 720.88 -0.08 M642.42 114.57 C662.54 91.42, 682.67 68.26, 742.14 -0.15 M642.42 114.57 C667.38 85.85, 692.35 57.13, 742.14 -0.15 M663.68 114.5 C701.21 71.32, 738.74 28.14, 763.4 -0.22 M663.68 114.5 C686.81 87.88, 709.95 61.26, 763.4 -0.22 M684.94 114.43 C704.97 91.38, 725 68.34, 784.66 -0.29 M684.94 114.43 C711.23 84.19, 737.51 53.94, 784.66 -0.29 M706.2 114.36 C741.83 73.37, 777.46 32.38, 805.92 -0.36 M706.2 114.36 C743.92 70.97, 781.63 27.58, 805.92 -0.36 M727.46 114.29 C748.18 90.45, 768.91 66.61, 826.52 0.33 M727.46 114.29 C753.86 83.92, 780.25 53.56, 826.52 0.33 M748.72 114.22 C788.2 68.8, 827.68 23.38, 847.78 0.26 M748.72 114.22 C781.37 76.66, 814.02 39.1, 847.78 0.26 M769.32 114.91 C803.48 75.61, 837.65 36.31, 869.04 0.19 M769.32 114.91 C792.51 88.23, 815.7 61.55, 869.04 0.19 M790.58 114.84 C813.59 88.37, 836.6 61.9, 890.3 0.12 M790.58 114.84 C826.22 73.84, 861.85 32.85, 890.3 0.12 M811.84 114.77 C843.9 77.89, 875.96 41.01, 911.56 0.05 M811.84 114.77 C847.33 73.95, 882.82 33.12, 911.56 0.05 M833.1 114.7 C866.93 75.79, 900.75 36.88, 932.82 -0.02 M833.1 114.7 C853.36 91.39, 873.63 68.08, 932.82 -0.02 M854.36 114.63 C891.37 72.06, 928.37 29.49, 954.08 -0.09 M854.36 114.63 C889.33 74.4, 924.3 34.18, 954.08 -0.09 M875.62 114.56 C901.95 84.28, 928.27 54, 975.34 -0.15 M875.62 114.56 C913.42 71.08, 951.22 27.6, 975.34 -0.15 M896.88 114.49 C928.92 77.64, 960.95 40.79, 996.6 -0.22 M896.88 114.49 C931.94 74.17, 966.99 33.84, 996.6 -0.22 M918.14 114.42 C948.03 80.04, 977.92 45.66, 1017.86 -0.29 M918.14 114.42 C944.78 83.78, 971.42 53.14, 1017.86 -0.29 M939.4 114.35 C969.97 79.19, 1000.53 44.03, 1039.12 -0.36 M939.4 114.35 C960.69 89.87, 981.97 65.39, 1039.12 -0.36 M960.66 114.29 C999.88 69.17, 1039.1 24.06, 1059.73 0.32 M960.66 114.29 C982.46 89.21, 1004.25 64.14, 1059.73 0.32 M981.92 114.22 C1008.29 83.89, 1034.65 53.56, 1080.99 0.26 M981.92 114.22 C1002.88 90.11, 1023.83 66.01, 1080.99 0.26 M1002.53 114.9 C1028.1 85.48, 1053.68 56.06, 1102.25 0.19 M1002.53 114.9 C1028.52 85.01, 1054.5 55.11, 1102.25 0.19 M1023.79 114.83 C1048.12 86.85, 1072.45 58.86, 1123.51 0.12 M1023.79 114.83 C1057.83 75.68, 1091.86 36.52, 1123.51 0.12 M1045.05 114.76 C1069.01 87.2, 1092.98 59.63, 1144.77 0.05 M1045.05 114.76 C1083.15 70.93, 1121.25 27.1, 1144.77 0.05 M1066.31 114.69 C1095.1 81.58, 1123.89 48.46, 1166.03 -0.02 M1066.31 114.69 C1088.12 89.6, 1109.94 64.5, 1166.03 -0.02 M1087.57 114.63 C1113.58 84.71, 1139.59 54.78, 1187.29 -0.09 M1087.57 114.63 C1112.29 86.18, 1137.02 57.74, 1187.29 -0.09 M1108.83 114.56 C1141.54 76.93, 1174.25 39.3, 1201.33 8.14 M1108.83 114.56 C1143.97 74.13, 1179.12 33.7, 1201.33 8.14 M1130.09 114.49 C1150.36 91.16, 1170.64 67.84, 1200.94 32.98 M1130.09 114.49 C1150.78 90.69, 1171.47 66.89, 1200.94 32.98 M1151.35 114.42 C1171.13 91.67, 1190.9 68.92, 1201.21 57.06 M1151.35 114.42 C1170.36 92.55, 1189.38 70.67, 1201.21 57.06 M1172.61 114.35 C1179.36 106.59, 1186.1 98.83, 1200.82 81.9 M1172.61 114.35 C1178.77 107.26, 1184.93 100.18, 1200.82 81.9" stroke="#f2aa74" stroke-width="2" fill="none"></path><path d="M0 0 C472.27 0, 944.55 0, 1191.33 0 M0 0 C450.24 0, 900.48 0, 1191.33 0 M1191.33 0 C1191.33 38.98, 1191.33 77.97, 1191.33 109 M1191.33 0 C1191.33 37.16, 1191.33 74.32, 1191.33 109 M1191.33 109 C849.82 109, 508.31 109, 0 109 M1191.33 109 C933.69 109, 676.04 109, 0 109 M0 109 C0 81.99, 0 54.98, 0 0 M0 109 C0 83.78, 0 58.57, 0 0" stroke="#f2aa74" stroke-width="4" fill="none"></path></g><g stroke-linecap="round" transform="translate(99.97040680736245 142.98549754656688) rotate(0 228.49999999999994 33.5)"><path d="M0 0 C0 0, 0 0, 0 0 M0 0 C0 0, 0 0, 0 0 M0.27 24.08 C7.23 16.08, 14.18 8.07, 21.26 -0.07 M0.27 24.08 C5.22 18.38, 10.18 12.68, 21.26 -0.07 M-0.12 48.92 C9.4 37.96, 18.92 27.01, 42.52 -0.14 M-0.12 48.92 C9.47 37.89, 19.06 26.86, 42.52 -0.14 M2.77 69.98 C17.83 52.66, 32.89 35.33, 63.78 -0.21 M2.77 69.98 C22.9 46.82, 43.04 23.65, 63.78 -0.21 M24.03 69.91 C39.81 51.75, 55.6 33.59, 85.04 -0.28 M24.03 69.91 C36.27 55.83, 48.52 41.74, 85.04 -0.28 M45.29 69.84 C65.12 47.03, 84.96 24.21, 106.3 -0.34 M45.29 69.84 C60.36 52.5, 75.43 35.17, 106.3 -0.34 M66.55 69.77 C88.01 45.09, 109.47 20.4, 126.91 0.34 M66.55 69.77 C81.99 52.01, 97.44 34.24, 126.91 0.34 M87.81 69.71 C102.16 53.19, 116.51 36.68, 148.17 0.27 M87.81 69.71 C106.3 48.43, 124.8 27.15, 148.17 0.27 M109.07 69.64 C125.49 50.75, 141.9 31.86, 169.43 0.2 M109.07 69.64 C132.35 42.86, 155.63 16.07, 169.43 0.2 M130.33 69.57 C148.74 48.39, 167.15 27.21, 190.69 0.13 M130.33 69.57 C148.69 48.44, 167.06 27.31, 190.69 0.13 M151.59 69.5 C173.61 44.17, 195.63 18.83, 211.95 0.06 M151.59 69.5 C170.41 47.84, 189.24 26.18, 211.95 0.06 M172.85 69.43 C196.69 42, 220.54 14.56, 233.21 0 M172.85 69.43 C185.71 54.63, 198.58 39.83, 233.21 0 M194.11 69.36 C211.56 49.28, 229.02 29.2, 254.47 -0.07 M194.11 69.36 C217.22 42.77, 240.33 16.19, 254.47 -0.07 M215.37 69.29 C228.95 53.67, 242.52 38.05, 275.73 -0.14 M215.37 69.29 C232.4 49.7, 249.43 30.11, 275.73 -0.14 M235.97 69.98 C254.2 49.01, 272.42 28.05, 296.99 -0.21 M235.97 69.98 C252.67 50.77, 269.36 31.57, 296.99 -0.21 M257.23 69.91 C273.09 51.67, 288.95 33.43, 318.25 -0.28 M257.23 69.91 C277.8 46.25, 298.36 22.59, 318.25 -0.28 M278.49 69.84 C299.56 45.6, 320.63 21.36, 339.51 -0.35 M278.49 69.84 C295.91 49.8, 313.33 29.77, 339.51 -0.35 M299.75 69.77 C312.65 54.94, 325.54 40.1, 360.11 0.34 M299.75 69.77 C316.66 50.32, 333.57 30.87, 360.11 0.34 M321.01 69.7 C343.92 43.35, 366.83 16.99, 381.37 0.27 M321.01 69.7 C335.9 52.58, 350.78 35.46, 381.37 0.27 M342.27 69.63 C363.3 45.44, 384.33 21.25, 402.63 0.2 M342.27 69.63 C365.82 42.54, 389.37 15.45, 402.63 0.2 M363.53 69.56 C378.64 52.18, 393.75 34.8, 423.89 0.13 M363.53 69.56 C376.3 54.88, 389.07 40.19, 423.89 0.13 M384.79 69.49 C407.41 43.47, 430.03 17.45, 445.15 0.06 M384.79 69.49 C398.23 54.04, 411.66 38.59, 445.15 0.06 M406.05 69.42 C417.61 56.13, 429.17 42.83, 462.48 4.52 M406.05 69.42 C426.45 45.96, 446.85 22.49, 462.48 4.52 M427.31 69.36 C439.55 55.28, 451.78 41.21, 462.09 29.36 M427.31 69.36 C438.07 56.99, 448.82 44.62, 462.09 29.36 M448.57 69.29 C453.94 63.12, 459.3 56.95, 462.35 53.44 M448.57 69.29 C452.77 64.46, 456.96 59.64, 462.35 53.44" stroke="#7950f2" stroke-width="2" fill="none"></path><path d="M0 0 C173.28 0, 346.56 0, 457 0 M0 0 C100.37 0, 200.75 0, 457 0 M457 0 C457 23.15, 457 46.29, 457 67 M457 0 C457 14.86, 457 29.72, 457 67 M457 67 C321.86 67, 186.72 67, 0 67 M457 67 C291.03 67, 125.06 67, 0 67 M0 67 C0 49.85, 0 32.71, 0 0 M0 67 C0 52.12, 0 37.24, 0 0" stroke="#862e9c" stroke-width="4" fill="none"></path></g><g stroke-linecap="round" transform="translate(31.499999999999773 144.1453823953832) rotate(0 26.000000000000057 33.5)"><path d="M0 0 C0 0, 0 0, 0 0 M0 0 C0 0, 0 0, 0 0 M0.27 24.08 C5.91 17.59, 11.56 11.09, 21.26 -0.07 M0.27 24.08 C6.3 17.15, 12.32 10.21, 21.26 -0.07 M-0.12 48.92 C16.09 30.26, 32.31 11.61, 42.52 -0.14 M-0.12 48.92 C10.82 36.33, 21.76 23.74, 42.52 -0.14 M2.77 69.98 C16.36 54.35, 29.95 38.71, 58.53 5.83 M2.77 69.98 C17.75 52.75, 32.73 35.51, 58.53 5.83 M24.03 69.91 C37.43 54.5, 50.83 39.08, 58.8 29.91 M24.03 69.91 C32.94 59.66, 41.86 49.4, 58.8 29.91 M45.29 69.84 C48.75 65.86, 52.21 61.88, 58.41 54.75 M45.29 69.84 C49.96 64.47, 54.64 59.09, 58.41 54.75" stroke="#40c057" stroke-width="2" fill="none"></path><path d="M0 0 C19.01 0, 38.02 0, 52 0 M0 0 C13.22 0, 26.44 0, 52 0 M52 0 C52 19.26, 52 38.52, 52 67 M52 0 C52 17.99, 52 35.97, 52 67 M52 67 C38.5 67, 24.99 67, 0 67 M52 67 C35.33 67, 18.66 67, 0 67 M0 67 C0 50.75, 0 34.5, 0 0 M0 67 C0 48.27, 0 29.53, 0 0" stroke="#087f5b" stroke-width="4" fill="none"></path></g><g stroke-linecap="round" transform="translate(577.4999999999995 144.1453823953832) rotate(0 54.00000000000006 33.5)"><path d="M0 0 C0 0, 0 0, 0 0 M0 0 C0 0, 0 0, 0 0 M0.27 24.08 C7.31 15.98, 14.36 7.87, 21.26 -0.07 M0.27 24.08 C7.32 15.97, 14.37 7.86, 21.26 -0.07 M-0.12 48.92 C10.56 36.63, 21.24 24.35, 42.52 -0.14 M-0.12 48.92 C9.51 37.84, 19.14 26.75, 42.52 -0.14 M2.77 69.98 C24.62 44.84, 46.48 19.69, 63.78 -0.21 M2.77 69.98 C26.85 42.27, 50.94 14.57, 63.78 -0.21 M24.03 69.91 C40.17 51.34, 56.32 32.77, 85.04 -0.28 M24.03 69.91 C38.74 52.98, 53.46 36.06, 85.04 -0.28 M45.29 69.84 C69.21 42.32, 93.13 14.8, 106.3 -0.34 M45.29 69.84 C65.61 46.46, 85.93 23.09, 106.3 -0.34 M66.55 69.77 C84.04 49.65, 101.53 29.53, 119.03 9.4 M66.55 69.77 C77.27 57.44, 87.98 45.11, 119.03 9.4 M87.81 69.71 C97.17 58.93, 106.54 48.15, 118.64 34.23 M87.81 69.71 C95.55 60.8, 103.29 51.89, 118.64 34.23" stroke="#15aabf" stroke-width="2" fill="none"></path><path d="M0 0 C37.44 0, 74.88 0, 108 0 M0 0 C36.38 0, 72.77 0, 108 0 M108 0 C108 20.7, 108 41.4, 108 67 M108 0 C108 18.73, 108 37.46, 108 67 M108 67 C72.36 67, 36.73 67, 0 67 M108 67 C69.98 67, 31.95 67, 0 67 M0 67 C0 45.04, 0 23.07, 0 0 M0 67 C0 42.81, 0 18.61, 0 0" stroke="#0b7285" stroke-width="4" fill="none"></path></g><g stroke-linecap="round"><g stroke-opacity="0.8" fill-opacity="0.8" transform="translate(1213.1432178932073 325.16666666666606) rotate(0 0 -37.22222222222217)"><path d="M0 0 C0 -12.41, 0 -62.04, 0 -74.44" stroke="#f2aa74" stroke-width="4.5" fill="none" stroke-dasharray="8 12"></path></g><g stroke-opacity="0.8" fill-opacity="0.8" transform="translate(1213.1432178932073 325.16666666666606) rotate(0 0 -37.22222222222217)"><path d="M10.26 -46.25 C6.71 -56, 3.17 -65.74, 0 -74.44" stroke="#f2aa74" stroke-width="4.5" fill="none"></path></g><g stroke-opacity="0.8" fill-opacity="0.8" transform="translate(1213.1432178932073 325.16666666666606) rotate(0 0 -37.22222222222217)"><path d="M-10.26 -46.25 C-6.71 -56, -3.17 -65.74, 0 -74.44" stroke="#f2aa74" stroke-width="4.5" fill="none"></path></g></g><g stroke-linecap="round"><g stroke-opacity="0.8" fill-opacity="0.8" transform="translate(706.346443132979 325.16666666666606) rotate(0 -1.601612619885799 -37.22222222222217)"><path d="M0 0 C-0.53 -12.41, -2.67 -62.04, -3.2 -74.44" stroke="#f2aa74" stroke-width="4.5" fill="none" stroke-dasharray="8 12"></path></g><g stroke-opacity="0.8" fill-opacity="0.8" transform="translate(706.346443132979 325.16666666666606) rotate(0 -1.601612619885799 -37.22222222222217)"><path d="M8.26 -46.72 C5.78 -52.71, 3.3 -58.71, -3.2 -74.44" stroke="#f2aa74" stroke-width="4.5" fill="none"></path></g><g stroke-opacity="0.8" fill-opacity="0.8" transform="translate(706.346443132979 325.16666666666606) rotate(0 -1.601612619885799 -37.22222222222217)"><path d="M-12.24 -45.84 C-10.29 -52.02, -8.33 -58.21, -3.2 -74.44" stroke="#f2aa74" stroke-width="4.5" fill="none"></path></g></g><g stroke-linecap="round"><g stroke-opacity="0.8" fill-opacity="0.8" transform="translate(591.332168691516 326.9999999999993) rotate(0 -0.6425721236065556 -37.583333333333144)"><path d="M0 0 C-0.21 -12.53, -1.07 -62.64, -1.29 -75.17" stroke="#f2aa74" stroke-width="4.5" fill="none" stroke-dasharray="8 12"></path></g><g stroke-opacity="0.8" fill-opacity="0.8" transform="translate(591.332168691516 326.9999999999993) rotate(0 -0.6425721236065556 -37.583333333333144)"><path d="M9.46 -47.16 C5.25 -58.11, 1.05 -69.07, -1.29 -75.17" stroke="#f2aa74" stroke-width="4.5" fill="none"></path></g><g stroke-opacity="0.8" fill-opacity="0.8" transform="translate(591.332168691516 326.9999999999993) rotate(0 -0.6425721236065556 -37.583333333333144)"><path d="M-11.06 -46.8 C-7.24 -57.9, -3.41 -68.99, -1.29 -75.17" stroke="#f2aa74" stroke-width="4.5" fill="none"></path></g></g><g stroke-linecap="round"><g stroke-opacity="0.8" fill-opacity="0.8" transform="translate(102.10597481746868 324.7777777777769) rotate(0 -0.033790885647420055 -38.694444444444116)"><path d="M0 0 C-0.01 -12.9, -0.06 -64.49, -0.07 -77.39" stroke="#f2aa74" stroke-width="4.5" fill="none" stroke-dasharray="8 12"></path></g><g stroke-opacity="0.8" fill-opacity="0.8" transform="translate(102.10597481746868 324.7777777777769) rotate(0 -0.033790885647420055 -38.694444444444116)"><path d="M10.22 -49.21 C7.09 -57.77, 3.97 -66.34, -0.07 -77.39" stroke="#f2aa74" stroke-width="4.5" fill="none"></path></g><g stroke-opacity="0.8" fill-opacity="0.8" transform="translate(102.10597481746868 324.7777777777769) rotate(0 -0.033790885647420055 -38.694444444444116)"><path d="M-10.3 -49.19 C-7.19 -57.76, -4.08 -66.33, -0.07 -77.39" stroke="#f2aa74" stroke-width="4.5" fill="none"></path></g></g><g stroke-linecap="round"><g stroke-opacity="0.8" fill-opacity="0.8" transform="translate(39.80988455987381 325.16666666666606) rotate(0 0 -37.22222222222217)"><path d="M0 0 C0 -12.41, 0 -62.04, 0 -74.44" stroke="#f2aa74" stroke-width="4.5" fill="none" stroke-dasharray="8 12"></path></g><g stroke-opacity="0.8" fill-opacity="0.8" transform="translate(39.80988455987381 325.16666666666606) rotate(0 0 -37.22222222222217)"><path d="M10.26 -46.25 C7.84 -52.92, 5.41 -59.58, 0 -74.44" stroke="#f2aa74" stroke-width="4.5" fill="none"></path></g><g stroke-opacity="0.8" fill-opacity="0.8" transform="translate(39.80988455987381 325.16666666666606) rotate(0 0 -37.22222222222217)"><path d="M-10.26 -46.25 C-7.84 -52.92, -5.41 -59.58, 0 -74.44" stroke="#f2aa74" stroke-width="4.5" fill="none"></path></g></g><g stroke-opacity="0.8" fill-opacity="0.8" transform="translate(28.809884559872444 339.6666666666665) rotate(0 12.5 23)"><text x="0" y="32" font-family="Virgil, Segoe UI Emoji" font-size="36px" fill="#f2aa74" text-anchor="start" style="white-space: pre;" direction="ltr">0</text></g><g stroke-opacity="0.8" fill-opacity="0.8" transform="translate(85.19877344876113 338.55555555555543) rotate(0 23 23)"><text x="0" y="32" font-family="Virgil, Segoe UI Emoji" font-size="36px" fill="#f2aa74" text-anchor="start" style="white-space: pre;" direction="ltr">64</text></g><g stroke-opacity="0.8" fill-opacity="0.8" transform="translate(558.5321067820942 340.7777777777776) rotate(0 33.5 23)"><text x="0" y="32" font-family="Virgil, Segoe UI Emoji" font-size="36px" fill="#f2aa74" text-anchor="start" style="white-space: pre;" direction="ltr">704</text></g><g stroke-opacity="0.8" fill-opacity="0.8" transform="translate(670.7543290043168 338.55555555555566) rotate(0 37.5 23)"><text x="0" y="32" font-family="Virgil, Segoe UI Emoji" font-size="36px" fill="#f2aa74" text-anchor="start" style="white-space: pre;" direction="ltr">804</text></g><g stroke-opacity="0.8" fill-opacity="0.8" transform="translate(1206.3098845598724 339.6666666666665) rotate(0 11.5 23)"><text x="0" y="32" font-family="Virgil, Segoe UI Emoji" font-size="36px" fill="#f2aa74" text-anchor="start" style="white-space: pre;" direction="ltr">C</text></g><g stroke-opacity="0.8" fill-opacity="0.8" transform="translate(34.49999999999977 47.277777777777374) rotate(0 23 23)"><text x="0" y="32" font-family="Virgil, Segoe UI Emoji" font-size="36px" fill="#f2aa74" text-anchor="start" style="white-space: pre;" direction="ltr">64</text></g><g stroke-linecap="round"><g stroke-opacity="0.4" fill-opacity="0.4" transform="translate(92.14321789320547 211.11111111111086) rotate(0 0 -100.55555555555543)"><path d="M0 0 C0 -33.52, 0 -167.59, 0 -201.11" stroke="#f2aa74" stroke-width="4.5" fill="none" stroke-dasharray="8 12"></path></g></g><g stroke-linecap="round"><g stroke-opacity="0.4" fill-opacity="0.4" transform="translate(565.476551226539 211.11111111111086) rotate(0 0 -100.55555555555543)"><path d="M0 0 C0 -33.52, 0 -167.59, 0 -201.11" stroke="#f2aa74" stroke-width="4.5" fill="none" stroke-dasharray="8 12"></path></g></g><g stroke-linecap="round"><g stroke-opacity="0.4" fill-opacity="0.4" transform="translate(699.9209956709833 211.11111111111086) rotate(0 0 -100.55555555555543)"><path d="M0 0 C0 -33.52, 0 -167.59, 0 -201.11" stroke="#f2aa74" stroke-width="4.5" fill="none" stroke-dasharray="8 12"></path></g></g><g stroke-linecap="round"><g stroke-opacity="0.4" fill-opacity="0.4" transform="translate(19.920995670983302 211.11111111111086) rotate(0 0 -100.55555555555543)"><path d="M0 0 C0 -33.52, 0 -167.59, 0 -201.11" stroke="#f2aa74" stroke-width="4.5" fill="none" stroke-dasharray="8 12"></path></g></g><g stroke-opacity="0.8" fill-opacity="0.8" transform="translate(236.47040680736245 47.277777777777374) rotate(0 92 23)"><text x="0" y="32" font-family="Virgil, Segoe UI Emoji" font-size="36px" fill="#f2aa74" text-anchor="start" style="white-space: pre;" direction="ltr">640 bytes</text></g><g stroke-opacity="0.8" fill-opacity="0.8" transform="translate(601.9999999999995 47.277777777777374) rotate(0 29.5 23)"><text x="0" y="32" font-family="Virgil, Segoe UI Emoji" font-size="36px" fill="#f2aa74" text-anchor="start" style="white-space: pre;" direction="ltr">100</text></g></svg>