<svg version="1.1" xmlns="http://www.w3.org/2000/svg" viewBox="0 0 517.7245884569551 349.7220402646026" width="517.7245884569551" height="349.7220402646026">
  <!-- svg-source:excalidraw -->
  
  <defs>
    <style>
      @font-face {
        font-family: "Virgil";
        src: url("https://excalidraw.com/Virgil.woff2");
      }
      @font-face {
        font-family: "Cascadia";
        src: url("https://excalidraw.com/Cascadia.woff2");
      }
    </style>
  </defs>
  <g><g transform="translate(61.76650462461964 11.094179226940469) rotate(0 0.7011192428846016 163.76684090536082)"><path d="M0.4736335233322918 -1.0941792269405184 C2.492729531934719 112.40384862334017, 2.0362026183763313 223.90566443574855, 0.921587992618066 328.39974526666737 M-0.25424818154419954 0.2419710799417883 C2.1970580544001597 69.59353116830762, 1.370913641857149 138.2755486237053, -0.47051376009120044 328.62786103766206" stroke="#ffffff" stroke-width="1" fill="none"></path></g></g><g transform="translate(474.76650462461964 28.27381994550319) rotate(0 16.47904191616766 16.47904191616766)"><path d="M2.699603992403697 8.971794914696329 C2.699603992403697 8.971794914696329, 2.699603992403697 8.971794914696329, 2.699603992403697 8.971794914696329 M2.699603992403697 8.971794914696329 C2.699603992403697 8.971794914696329, 2.699603992403697 8.971794914696329, 2.699603992403697 8.971794914696329 M2.8040307433683136 17.495824976945684 C6.664387253915885 11.99170654177879, 9.181206603882758 5.624790337590385, 12.140378722562717 5.687462993090011 M1.800042949417949 17.601023198925347 C3.3722151327226833 14.237518506843687, 6.6029264307749855 10.190151287245426, 12.428229319737556 4.723639219704054 M2.9917268418812366 21.77423660049667 C7.908090752018109 15.995815685354636, 9.865776905620333 12.095632644633229, 15.98700364782449 2.2784867623429914 M2.296135549537203 22.886963861645064 C5.048719753340954 17.53070274726366, 8.738632541835821 14.327919924114893, 18.355145605383182 2.858920077940466 M5.601064382778551 26.766419618058272 C12.731253114815686 17.376311275086692, 17.673379347486275 11.312083551095832, 23.321607418269068 1.696346350836631 M4.47124505760714 25.257774268876084 C11.653567014418025 16.26846636673306, 19.60894895676137 7.483583647671988, 24.01126723075673 2.2651549427612387 M6.663467559722038 30.309822239357064 C13.681633253801849 19.9444885654948, 21.22300768814705 9.373846657103584, 25.45873455645404 5.859984078802299 M5.957605969850691 27.665017559568415 C13.32296464381025 20.836843595697832, 21.169530156618485 13.353648751293385, 28.13464706426374 4.832648560762536 M10.93944228512744 32.16544066570957 C17.752115158151156 24.729291092226816, 25.06209498384695 15.232016831148393, 31.949333686766668 5.850251781888197 M9.349372880324223 31.92520140964795 C17.20479020852347 23.11264975114508, 22.764201257676607 15.356972749407815, 29.360858974432094 7.587412679701934 M13.589312183382019 33.55475173276399 C16.987185578300185 28.355037978632268, 22.137637650969403 25.211344133092847, 30.714257942632187 11.928948991633625 M15.102432157555624 31.369025066872283 C18.326450583063888 26.415285916813456, 22.385584923994898 21.234091466089808, 30.81354540132766 12.633867680728109 M17.64330538791101 33.380179972059615 C22.106459212741186 27.428324553889198, 25.79747488442844 23.759630640804787, 34.01129622742837 15.68393671346401 M19.410738741610754 33.15559641239006 C24.188108404867858 27.36548512366828, 29.801357634101336 20.037258452251468, 31.477698617468825 18.393706356375862 M8.291384495252668 30.092433478890385 C8.291384495252668 30.092433478890385, 8.291384495252668 30.092433478890385, 8.291384495252668 30.092433478890385 M8.291384495252668 30.092433478890385 C8.291384495252668 30.092433478890385, 8.291384495252668 30.092433478890385, 8.291384495252668 30.092433478890385 M15.88713409495265 31.560265437427184 C10.698710791570589 25.906592048345367, 7.986352978026385 23.71534446949664, 2.415908839622121 20.647723466072698 M17.04979374841512 32.30439772429617 C11.374230503795093 28.94001100229884, 7.208514810562393 23.608734170960634, 2.6229831623598745 18.332356340166648 M19.134469934055087 28.25807492259188 C17.192467597175202 25.74007698427709, 10.987179025398 22.505205509004163, 2.6150220812447156 14.382793715218021 M20.762566433535394 30.10420133649601 C12.870046776096768 25.353585282125906, 6.567238816528169 19.121622326673396, 3.928380456116029 15.504907128395452 M26.10142967527971 28.991175843363294 C17.27495571412552 21.896803848085685, 7.279410923663814 11.942713322115786, 0.8116837069774308 7.63608915284229 M23.807634872889672 29.22226967379231 C18.32977815890079 21.727552199274683, 10.4655575634982 16.725820637883004, 3.188632995859746 9.355212791077323 M30.538562635032765 26.52562044583518 C21.179445467026927 19.430649655898648, 17.143861752039363 14.042239779683502, 4.044466139563148 7.7565005739823 M29.53384550202482 27.824893019388206 C23.714684422670572 23.182248547943328, 17.31019492543567 16.321679367853257, 5.885336885974531 6.42830059785843 M30.53730127338387 23.978216177158238 C26.303692961825856 20.43149575924312, 18.949407988831567 15.920788842748129, 7.991196204739801 4.9129968877602765 M30.93659196265109 22.139077795043768 C21.679876028779987 14.355757713899152, 13.418055492051227 8.778803504496617, 9.101256696338943 4.642986869970376 M34.17723363807592 19.563088207369262 C27.03618342411151 11.889672538585511, 18.320135905258716 6.213805255262788, 10.578550933468096 1.5927154072889582 M31.71133754665199 18.292859082905167 C27.048534712788186 14.596140726627915, 21.938957150930094 10.165330625569343, 11.536171264554314 0.8837172701352731 M34.49441176006961 16.40799884958099 C28.582371361147352 9.539724340591958, 19.5439097673781 3.5101566882071413, 16.572815043268143 1.474816023614629 M33.62817359162885 14.225370045694518 C28.652323267922494 11.547048491007118, 24.747612207762145 7.691911061495053, 17.50388117728138 0.9681709765087803" stroke="#f2aa74" stroke-width="0.5" fill="none"></path><path d="M21.206089063590703 1.2093695990003965 C24.511626608712255 1.90832231211331, 27.624115396112558 3.9310994169013203, 29.41055429304646 6.578526589430954 C31.19699318998036 9.225953761960588, 32.25628330985406 13.395121082129357, 31.92472244519411 17.0939326341782 C31.593161580534154 20.79274418622704, 29.732311278888076 26.147362379599354, 27.421189105086732 28.771395901724 C25.110066931285388 31.395429423848643, 21.285445340098544 32.65199790688062, 18.057989402386056 32.83813376692606 C14.83053346467357 33.02426962697151, 11.054287414692045 31.718106053247425, 8.05645347881181 29.88821106199666 C5.058619542931574 28.058316070745896, 1.015163228706761 25.285739679575364, 0.07098578710464842 21.858763819421476 C-0.8731916544974639 18.431787959267588, 0.7204354171735761 12.568009137648874, 2.391388829199135 9.326355901073324 C4.062342241224695 6.084702664497774, 6.907017041301076 3.895865191338581, 10.096706259258003 2.408844399968178 C13.28639547721493 0.9218236085977749, 19.695876101784926 0.7494004322755599, 21.5295241369407 0.4042311528509064 C23.363172172096476 0.05906187342625291, 21.297858846971 -0.13647463724276437, 21.09859447019265 0.33782872342025705 M14.735421677880334 1.2048713381053275 C18.268501369132924 0.57322723856637, 22.349891780376513 1.9251438829318517, 25.37687834501507 3.547244743923006 C28.403864909653624 5.16934560491416, 31.986519777847477 7.905960885252833, 32.89734106571167 10.937476504052253 C33.80816235357587 13.968992122851672, 32.20727400847815 18.257936407328998, 30.841806072200246 21.736338456719523 C29.47633813592234 25.214740506110047, 27.28909223282954 29.867671787998976, 24.70453344804424 31.807888800395393 C22.119974663258944 33.748105812791806, 18.91125948822161 34.20511821642484, 15.33445336348846 33.377640531098024 C11.757647238755311 32.550162845771204, 5.875287696780415 29.466325827908502, 3.2436966996453442 26.84302268843447 C0.6121057025102736 24.219719548960438, -0.3562509117944111 20.956842333463822, -0.4550926193219631 17.637821694253837 C-0.553934326849515 14.318801055043854, 0.283870631192356 9.751231368418066, 2.6506464544800323 6.928898853174571 C5.017422277767709 4.106566337931076, 11.791656591070181 1.7085664765397606, 13.745562320404096 0.7038266027928657 C15.69946804973801 -0.3009132709540292, 14.489870077360523 0.6801681403903785, 14.37408083048352 0.9004596106932024" stroke="#ffffff" stroke-width="1" fill="none"></path></g><g><g transform="translate(174.76650462461964 109.59417922694047) rotate(89.99999999999994 0.14433769363108695 164.2578347959223)"><path d="M0.6242296069876492 -0.43218669918535346 C-1.0057903012196208 94.57730765791851, 0.7971500092271183 192.24937482343913, -0.41571907046119566 328.319162567622 M0.12306897051392494 -0.6530075223284333 C0.6302055801104041 87.47410913531898, 0.8968313496566267 174.6862584227912, 0.5436154976096242 329.16867711417297" stroke="#ffffff" stroke-width="1" fill="none"></path></g></g><g><g transform="translate(490.76650462461964 45.09417922694047) rotate(0 -212.09629770366934 112.26996614910112)"><path d="M-0.012250692029350507 0.6886150643898876 C-113.48964823036819 58.15721984965805, -227.9334537150595 119.59239760368739, -424.18034471530933 223.85131723381235" stroke="#ffffff" stroke-width="1.5" fill="none" stroke-dasharray="12 8"></path></g><g transform="translate(490.76650462461964 45.09417922694047) rotate(0 -212.09629770366934 112.26996614910112)"><path d="M-404.1336907993704 203.14433127791813 C-407.966288284433 205.90120166527424, -415.4386232042187 215.22317197675792, -424.5958393714996 223.5087682729925" stroke="#ffffff" stroke-width="1.5" fill="none"></path></g><g transform="translate(490.76650462461964 45.09417922694047) rotate(0 -212.09629770366934 112.26996614910112)"><path d="M-394.5003471592802 221.26389784827992 C-400.7854928702459 219.10755268102142, -410.83732911108405 223.5776825878261, -424.5958393714996 223.5087682729925" stroke="#ffffff" stroke-width="1.5" fill="none"></path></g></g><g transform="translate(239.76650462461964 78.59417922694047) rotate(0 10 23)"><text x="0" y="32" font-family="Virgil, Segoe UI Emoji" font-size="36px" fill="#ffffff" text-anchor="start" style="white-space: pre;" direction="ltr">d</text></g></svg>