<svg version="1.1" xmlns="http://www.w3.org/2000/svg" viewBox="0 0 1637.1892301368644 309.125" width="1637.1892301368644" height="309.125">
  <!-- svg-source:excalidraw -->
  
  <defs>
    <style>
      @font-face {
        font-family: "Virgil";
        src: url("https://excalidraw.com/Virgil.woff2");
      }
      @font-face {
        font-family: "Cascadia";
        src: url("https://excalidraw.com/Cascadia.woff2");
      }
    </style>
  </defs>
  <g stroke-linecap="round"><g transform="translate(36.2725634701975 268.75) rotate(0 163.28469872723508 -117.57585391922646)"><path d="M-2.01 3.06 C40.12 -94.65, 82.12 -184.5, 101.62 -241.93 M0.79 -1.32 C39.43 -85.53, 76.58 -173.12, 100.26 -239.86 M98.48 -241.61 C159.84 -205.75, 219.5 -170.93, 327.43 -110.57 M100.32 -239.39 C182.79 -190.53, 265.86 -147.03, 328.58 -113.39 M328.36 -112.5 C212.5 -68.76, 97.41 -26.37, -1.71 5.97 M327.91 -113.17 C206.39 -70.6, 85.6 -25.07, -0.5 6.78" stroke="#f2aa74" stroke-width="4" fill="none"></path></g></g><g stroke-linecap="round" transform="translate(10 254.125) rotate(0 22.5 22.5)"><path d="M27.7 1.6 C32.35 2.71, 39.03 6.04, 41.75 9.87 C44.47 13.7, 44.42 20, 44.02 24.61 C43.62 29.21, 42.71 34.26, 39.35 37.52 C36 40.78, 28.76 43.67, 23.88 44.16 C19 44.65, 14.01 43.21, 10.05 40.45 C6.09 37.68, 1.56 32.21, 0.11 27.59 C-1.35 22.97, -0.76 17.06, 1.31 12.74 C3.39 8.43, 7.17 3.35, 12.54 1.7 C17.92 0.04, 29.49 2.22, 33.58 2.82 C37.68 3.43, 37.32 5.07, 37.09 5.32 M25.83 -0.65 C30.29 0.23, 35.77 4.78, 38.94 8.94 C42.1 13.09, 44.52 19.53, 44.84 24.28 C45.16 29.02, 44.24 33.87, 40.87 37.41 C37.5 40.95, 29.77 44.62, 24.62 45.53 C19.47 46.44, 13.67 45.61, 9.96 42.87 C6.25 40.13, 3.88 33.67, 2.35 29.07 C0.81 24.48, -1 19.92, 0.74 15.28 C2.48 10.65, 8.39 3.85, 12.79 1.26 C17.18 -1.33, 24.98 -0.07, 27.11 -0.26 C29.25 -0.46, 25.52 -0.62, 25.6 0.11" stroke="none" stroke-width="0" fill="#d9480f"></path><path d="M12.02 1.84 C15.97 -0.24, 22.76 0.21, 27.69 1.47 C32.62 2.73, 38.63 5.6, 41.59 9.39 C44.55 13.19, 46.15 19.27, 45.46 24.22 C44.77 29.17, 40.78 35.73, 37.44 39.12 C34.1 42.51, 29.97 44.28, 25.43 44.59 C20.88 44.9, 14.29 43.83, 10.17 40.98 C6.05 38.13, 2.14 32.19, 0.71 27.46 C-0.71 22.74, -0.75 17.09, 1.63 12.62 C4.01 8.15, 12.62 2.56, 14.98 0.62 C17.34 -1.32, 15.79 0.36, 15.8 0.99 M14.84 0.28 C19.06 -1.5, 26.26 -0.19, 30.7 1.53 C35.15 3.25, 39.19 6.52, 41.5 10.6 C43.81 14.67, 45.34 21.11, 44.56 26 C43.79 30.89, 40.82 36.7, 36.85 39.92 C32.88 43.13, 25.64 45.37, 20.76 45.3 C15.89 45.22, 10.79 42.68, 7.6 39.46 C4.41 36.23, 2.53 30.68, 1.64 25.95 C0.75 21.21, -0.23 15.11, 2.24 11.04 C4.72 6.98, 14.05 3, 16.48 1.55 C18.91 0.1, 16.74 2.06, 16.81 2.33" stroke="#d9480f" stroke-width="1" fill="none"></path></g><g transform="translate(19 251.625) rotate(0 12.5 23)"><text x="12.5" y="32" font-family="Virgil, Segoe UI Emoji" font-size="36px" fill="#ffffff" text-anchor="middle" style="white-space: pre;" direction="ltr">A</text></g><g stroke-linecap="round" transform="translate(337.7725634701975 134.5) rotate(0 22.5 22.5)"><path d="M22.83 0.44 C27.41 0.24, 33.23 1.85, 36.85 4.81 C40.47 7.77, 43.68 13.25, 44.55 18.2 C45.43 23.16, 44.6 30.37, 42.08 34.54 C39.55 38.72, 34.03 41.69, 29.4 43.24 C24.78 44.78, 18.82 45.45, 14.33 43.82 C9.84 42.19, 4.77 37.73, 2.46 33.47 C0.15 29.21, -0.49 23.11, 0.46 18.26 C1.41 13.41, 4.25 7.39, 8.15 4.37 C12.04 1.34, 21.09 0.63, 23.85 0.1 C26.6 -0.42, 24.7 0.93, 24.68 1.2 M17.5 0.12 C22.01 -1.28, 30.28 -0.39, 34.51 2.21 C38.74 4.81, 41.24 11.2, 42.87 15.74 C44.5 20.28, 45.89 25.07, 44.28 29.45 C42.67 33.83, 37.27 39.36, 33.21 42.01 C29.14 44.66, 24.38 46.16, 19.9 45.35 C15.42 44.54, 9.67 40.98, 6.32 37.15 C2.97 33.31, -0.18 26.97, -0.17 22.34 C-0.17 17.71, 3.11 13.26, 6.37 9.34 C9.63 5.42, 17.12 0.36, 19.4 -1.17 C21.68 -2.7, 20.31 -0.52, 20.06 0.16" stroke="none" stroke-width="0" fill="#087f5b"></path><path d="M31.42 1.17 C35.68 3.06, 41.05 8.92, 43.17 13.32 C45.3 17.72, 45.44 22.89, 44.19 27.59 C42.95 32.29, 39.54 38.52, 35.7 41.52 C31.86 44.52, 25.95 45.95, 21.17 45.6 C16.39 45.26, 10.55 43.04, 7.01 39.44 C3.48 35.84, 0.36 28.98, -0.03 24 C-0.42 19.02, 1.87 13.55, 4.67 9.57 C7.48 5.59, 11.44 1.06, 16.82 0.12 C22.2 -0.82, 33.24 2.66, 36.93 3.93 C40.63 5.19, 39.37 7.23, 39 7.69 M16.24 -0.22 C20.74 -1.58, 28.28 -1.24, 32.83 1.12 C37.37 3.49, 41.73 9.26, 43.52 13.96 C45.31 18.66, 44.97 24.54, 43.57 29.31 C42.17 34.07, 38.97 39.81, 35.12 42.55 C31.27 45.29, 25.47 46.62, 20.47 45.74 C15.48 44.87, 8.62 40.97, 5.15 37.28 C1.69 33.58, -0.06 28.2, -0.3 23.59 C-0.55 18.97, 0.56 13.6, 3.7 9.6 C6.83 5.61, 16.28 1.26, 18.51 -0.4 C20.74 -2.06, 17.27 -0.99, 17.09 -0.38" stroke="#087f5b" stroke-width="1" fill="none"></path></g><g transform="translate(345.7725634701975 132) rotate(0 13.5 23)"><text x="13.5" y="32" font-family="Virgil, Segoe UI Emoji" font-size="36px" fill="#ffffff" text-anchor="middle" style="white-space: pre;" direction="ltr">B</text></g><g stroke-linecap="round" transform="translate(117.7725634701975 11.5) rotate(0 22.5 22.5)"><path d="M31.74 2.13 C35.94 3.76, 40.83 8.78, 42.81 13.01 C44.79 17.25, 44.74 22.86, 43.61 27.56 C42.48 32.25, 39.93 38.3, 36.02 41.2 C32.11 44.1, 25.18 45.35, 20.15 44.96 C15.11 44.57, 9.06 42.11, 5.82 38.85 C2.57 35.59, 0.89 30.39, 0.67 25.39 C0.44 20.4, 1.74 12.95, 4.47 8.87 C7.2 4.78, 11.77 1.72, 17.05 0.88 C22.33 0.04, 32.52 2.72, 36.15 3.82 C39.79 4.91, 39.05 6.96, 38.85 7.44 M31.45 2.99 C36.19 4.63, 41.23 8.15, 43.61 12.18 C45.98 16.21, 46.86 22.36, 45.71 27.16 C44.55 31.96, 40.8 37.89, 36.67 40.99 C32.54 44.09, 25.78 45.83, 20.95 45.76 C16.13 45.68, 11.28 43.91, 7.73 40.54 C4.18 37.16, 0.5 30.3, -0.35 25.51 C-1.21 20.72, -0.15 15.63, 2.59 11.81 C5.33 7.98, 11.2 4.41, 16.07 2.56 C20.93 0.72, 29.2 0.79, 31.78 0.73 C34.37 0.67, 31.95 1.88, 31.56 2.2" stroke="none" stroke-width="0" fill="#1864ab"></path><path d="M15.82 1.11 C20.37 -0.35, 27.99 -0.15, 32.4 1.85 C36.82 3.84, 40.31 8.7, 42.34 13.08 C44.37 17.45, 45.72 23.44, 44.58 28.1 C43.45 32.75, 39.52 38.24, 35.53 40.99 C31.55 43.74, 25.59 45.11, 20.67 44.61 C15.74 44.1, 9.41 41.44, 5.98 37.95 C2.56 34.46, 0.33 28.45, 0.12 23.65 C-0.1 18.86, 1.36 13.17, 4.66 9.19 C7.96 5.21, 16.61 1.06, 19.92 -0.25 C23.22 -1.55, 24.51 0.94, 24.51 1.35 M27.95 1.18 C32.49 1.92, 36.5 4.3, 39.33 8.22 C42.16 12.14, 44.83 19.65, 44.93 24.73 C45.04 29.8, 43.11 35.38, 39.95 38.69 C36.79 42.01, 30.85 43.95, 25.95 44.6 C21.06 45.25, 14.49 45.01, 10.59 42.6 C6.68 40.18, 4.27 34.67, 2.53 30.13 C0.79 25.59, -1.32 20.12, 0.14 15.33 C1.61 10.55, 6.75 3.92, 11.32 1.43 C15.89 -1.05, 25.11 0.51, 27.54 0.43 C29.98 0.35, 26.02 0.56, 25.92 0.96" stroke="#1864ab" stroke-width="1" fill="none"></path></g><g transform="translate(128.2725634701975 10) rotate(0 12 23)"><text x="12" y="32" font-family="Virgil, Segoe UI Emoji" font-size="36px" fill="#ffffff" text-anchor="middle" style="white-space: pre;" direction="ltr">C</text></g><g stroke-linecap="round"><g transform="translate(95.2725634701975 284.75) rotate(0 114.31645242984996 -41.69406864931159)"><path d="M-3.13 2.74 C86.72 -31.4, 171.41 -66.82, 231.77 -83.5 M-0.11 -0.95 C77.7 -27.33, 155.33 -56.39, 230.36 -86.13" stroke="#d9480f" stroke-width="4" fill="none"></path></g><g transform="translate(95.2725634701975 284.75) rotate(0 114.31645242984996 -41.69406864931159)"><path d="M204.01 -63.02 C217.43 -72.21, 224.25 -83.56, 232.5 -83.1 M207.67 -67.5 C214.9 -72.68, 223.19 -79.61, 230.79 -86.29" stroke="#d9480f" stroke-width="4" fill="none"></path></g><g transform="translate(95.2725634701975 284.75) rotate(0 114.31645242984996 -41.69406864931159)"><path d="M196.56 -82.14 C212.87 -84.2, 222.47 -88.4, 232.5 -83.1 M200.23 -86.62 C209.58 -85.35, 220.36 -85.87, 230.79 -86.29" stroke="#d9480f" stroke-width="4" fill="none"></path></g></g><g stroke-linecap="round"><g transform="translate(340.2725634701975 112.75) rotate(0 -71.07370741665363 -42.43070928752422)"><path d="M3.83 -1.69 C-25.45 -16.54, -58.81 -37.36, -145.97 -83.17 M-0.04 -1.78 C-50.5 -27.71, -100.04 -54.81, -142.51 -82.61" stroke="#087f5b" stroke-width="4" fill="none"></path></g><g transform="translate(340.2725634701975 112.75) rotate(0 -71.07370741665363 -42.43070928752422)"><path d="M-109.32 -78.15 C-115.83 -76.87, -126.43 -82.57, -146.48 -84.78 M-113.18 -78.24 C-124.39 -79.08, -133.91 -79.59, -143.01 -84.23" stroke="#087f5b" stroke-width="4" fill="none"></path></g><g transform="translate(340.2725634701975 112.75) rotate(0 -71.07370741665363 -42.43070928752422)"><path d="M-120.15 -60.72 C-124.47 -62.87, -132.88 -72.09, -146.48 -84.78 M-124.01 -60.81 C-131.19 -67.99, -136.85 -74.69, -143.01 -84.23" stroke="#087f5b" stroke-width="4" fill="none"></path></g></g><g stroke-linecap="round"><g transform="translate(94.2725634701975 53.75) rotate(0 -38.57763596624136 85.56881393864751)"><path d="M-2.76 2.86 C-9.97 38.72, -27.65 72.73, -71.21 169.92 M-0.74 1.22 C-25.19 53.73, -46.12 103.94, -76.42 168.65" stroke="#1864ab" stroke-width="4" fill="none"></path></g><g transform="translate(94.2725634701975 53.75) rotate(0 -38.57763596624136 85.56881393864751)"><path d="M-76.76 141.61 C-70.23 147.16, -72.6 152.25, -72.63 171.57 M-74.75 139.97 C-75.74 149.67, -74.67 158.34, -77.83 170.3" stroke="#1864ab" stroke-width="4" fill="none"></path></g><g transform="translate(94.2725634701975 53.75) rotate(0 -38.57763596624136 85.56881393864751)"><path d="M-58.11 150.15 C-55.61 154.26, -61.91 157.54, -72.63 171.57 M-56.09 148.51 C-62.64 155.95, -67.23 162.04, -77.83 170.3" stroke="#1864ab" stroke-width="4" fill="none"></path></g></g><g transform="translate(207.7725634701975 244.75) rotate(0 12.5 23)"><text x="12.5" y="32" font-family="Virgil, Segoe UI Emoji" font-size="36px" fill="#d9480f" text-anchor="middle" style="white-space: pre;" direction="ltr">a</text></g><g transform="translate(285.7725634701975 25.75) rotate(0 9.5 23)"><text x="9.5" y="32" font-family="Virgil, Segoe UI Emoji" font-size="36px" fill="#087f5b" text-anchor="middle" style="white-space: pre;" direction="ltr">b</text></g><g transform="translate(12.772563470197497 97.75) rotate(0 9.5 23)"><text x="9.5" y="32" font-family="Virgil, Segoe UI Emoji" font-size="36px" fill="#1864ab" text-anchor="middle" style="white-space: pre;" direction="ltr">c</text></g><g stroke-linecap="round"><g transform="translate(1387.7287038210752 45.84868421052579) rotate(0 34.44255153462291 84.08933830869046)"><path d="M-0.18 1.57 C19.06 46.41, 40.74 96.24, 69.07 165.79 M-0.95 0.83 C24.03 62.44, 50.86 125.87, 69.84 167.35" stroke="#1864ab" stroke-width="2" fill="none"></path></g></g><g stroke-linecap="round"><g transform="translate(1443.518177505286 180.58552631578914) rotate(0 20.967844785926218 7.129235302048869)"><path d="M0.95 1.13 C4.56 -0.02, 10.45 -1.64, 27.24 -7.43 M0.98 0.27 C4.67 -2.1, 11.2 -2.88, 25.78 -7.54 M27.42 -10.39 C30.43 -0.58, 34.12 4.88, 39.25 23.94 M26.58 -8.97 C31.72 3.63, 37.42 13.53, 40.99 24.64" stroke="#1864ab" stroke-width="2" fill="none"></path></g></g><g stroke-linecap="round"><g transform="translate(1280.689230136864 268.75) rotate(0 163.72167782470888 -116.00073370268149)"><path d="M0.2 2.24 C33.64 -82.4, 66.31 -157.91, 100.41 -237.89 M-0.52 -1.22 C22.85 -61.45, 48.58 -122.85, 102.42 -238.28 M97.87 -240.33 C165.61 -199.98, 233.66 -158.7, 328.74 -115.09 M100.11 -239.2 C176.61 -197.31, 253.26 -152.88, 327.68 -114.29 M326.68 -113.71 C214.25 -69.56, 95.44 -29.93, 0.49 8.33 M328.41 -112.43 C197.2 -62.53, 64.37 -12.71, -1.3 7.43" stroke="#f2aa74" stroke-width="4" fill="none"></path></g></g><g stroke-linecap="round" transform="translate(1254.4166666666665 254.125) rotate(0 22.5 22.5)"><path d="M17.27 0.13 C21.79 -1.26, 28.76 0.34, 33.24 2.65 C37.72 4.96, 42.31 9.49, 44.14 14 C45.97 18.51, 45.74 25.06, 44.22 29.7 C42.7 34.34, 39.04 39.15, 35.02 41.83 C31.01 44.5, 25 46.35, 20.13 45.73 C15.26 45.11, 9.11 41.88, 5.8 38.12 C2.49 34.36, 0.33 28.12, 0.25 23.16 C0.18 18.19, 1.41 12.16, 5.35 8.33 C9.3 4.49, 19.84 1.19, 23.91 0.15 C27.98 -0.9, 29.94 1.78, 29.76 2.07 M18.12 1.6 C22.73 0.58, 29.69 1.18, 33.82 3.26 C37.95 5.34, 41.28 9.78, 42.89 14.09 C44.5 18.41, 44.66 24.7, 43.47 29.16 C42.28 33.63, 39.97 38.52, 35.77 40.88 C31.56 43.24, 23.27 43.66, 18.24 43.31 C13.21 42.97, 8.54 41.92, 5.6 38.79 C2.66 35.66, 0.68 29.33, 0.59 24.55 C0.5 19.77, 2.19 14.19, 5.05 10.12 C7.9 6.05, 15.37 1.41, 17.72 0.14 C20.07 -1.14, 19.05 1.95, 19.15 2.45" stroke="none" stroke-width="0" fill="#d9480f"></path><path d="M29.75 0.84 C34.38 1.82, 39.19 5.99, 41.8 9.96 C44.41 13.94, 46.12 19.98, 45.39 24.7 C44.66 29.42, 41.17 34.98, 37.41 38.29 C33.65 41.61, 27.77 44.23, 22.85 44.56 C17.93 44.89, 11.46 43.07, 7.89 40.28 C4.32 37.5, 2.33 32.63, 1.43 27.87 C0.53 23.1, 0.56 16.23, 2.48 11.71 C4.4 7.19, 7.83 2.29, 12.97 0.75 C18.1 -0.79, 29.31 1.6, 33.3 2.46 C37.29 3.33, 36.9 5.5, 36.91 5.96 M14.91 0.35 C19.04 -1.46, 26.13 -0.74, 30.49 1.25 C34.85 3.25, 38.54 8.09, 41.07 12.32 C43.6 16.54, 46.62 21.86, 45.66 26.62 C44.71 31.37, 39.15 37.85, 35.35 40.84 C31.55 43.83, 27.61 44.86, 22.86 44.55 C18.12 44.24, 10.54 41.89, 6.88 38.99 C3.22 36.09, 1.69 31.9, 0.9 27.12 C0.12 22.34, -0.36 14.62, 2.18 10.32 C4.72 6.03, 13.69 2.9, 16.15 1.38 C18.61 -0.15, 16.79 0.77, 16.93 1.17" stroke="#d9480f" stroke-width="1" fill="none"></path></g><g transform="translate(1263.4166666666665 251.625) rotate(0 12.5 23)"><text x="12.5" y="32" font-family="Virgil, Segoe UI Emoji" font-size="36px" fill="#ffffff" text-anchor="middle" style="white-space: pre;" direction="ltr">A</text></g><g stroke-linecap="round" transform="translate(1582.1892301368644 134.5) rotate(0 22.5 22.5)"><path d="M30.66 1.52 C35.25 2.93, 40.52 7.24, 42.89 11.48 C45.26 15.72, 45.82 22.18, 44.88 26.96 C43.95 31.74, 40.95 37, 37.29 40.15 C33.63 43.31, 27.85 45.92, 22.94 45.91 C18.03 45.89, 11.57 43.38, 7.84 40.06 C4.11 36.73, 1.24 30.85, 0.57 25.95 C-0.1 21.06, 1.36 14.75, 3.8 10.67 C6.24 6.59, 10.39 2.81, 15.19 1.48 C19.99 0.16, 29.6 2.43, 32.61 2.72 C35.62 3, 33.56 2.99, 33.25 3.2 M17.61 1.43 C21.82 -0.18, 27.51 0.37, 31.65 2.27 C35.79 4.18, 40.15 8.64, 42.45 12.88 C44.76 17.13, 46.85 23.32, 45.45 27.76 C44.06 32.19, 38.3 36.44, 34.1 39.49 C29.89 42.54, 24.7 46.05, 20.21 46.05 C15.71 46.05, 10.4 42.88, 7.11 39.5 C3.81 36.12, 0.93 30.82, 0.43 25.76 C-0.06 20.7, 1.18 13.07, 4.13 9.15 C7.07 5.23, 15.96 3.5, 18.09 2.24 C20.23 0.98, 17.08 1.56, 16.94 1.59" stroke="none" stroke-width="0" fill="#087f5b"></path><path d="M26.34 -0.14 C30.92 0.21, 36.99 3.45, 40.04 7.03 C43.1 10.6, 44.79 16.45, 44.67 21.32 C44.55 26.18, 42.46 32.36, 39.32 36.22 C36.19 40.09, 30.34 43.42, 25.87 44.49 C21.4 45.56, 16.57 45.03, 12.5 42.64 C8.44 40.25, 3.49 34.88, 1.46 30.15 C-0.56 25.41, -1.16 18.8, 0.34 14.22 C1.84 9.65, 6.01 5.02, 10.47 2.7 C14.93 0.38, 23.89 0.49, 27.1 0.31 C30.32 0.14, 29.88 1.19, 29.76 1.65 M23.59 -0.25 C28.05 -0.03, 33.02 3.43, 36.75 6.73 C40.47 10.03, 45.38 14.74, 45.94 19.56 C46.5 24.37, 42.78 31.61, 40.11 35.61 C37.43 39.62, 34.41 42.41, 29.87 43.6 C25.33 44.79, 17.33 44.39, 12.86 42.76 C8.39 41.14, 5.28 38.17, 3.06 33.85 C0.83 29.54, -1.64 21.73, -0.5 16.86 C0.64 12, 5.6 7.54, 9.9 4.67 C14.19 1.79, 22.8 0.22, 25.26 -0.4 C27.73 -1.02, 24.86 0.3, 24.7 0.96" stroke="#087f5b" stroke-width="1" fill="none"></path></g><g transform="translate(1590.1892301368644 132) rotate(0 13.5 23)"><text x="13.5" y="32" font-family="Virgil, Segoe UI Emoji" font-size="36px" fill="#ffffff" text-anchor="middle" style="white-space: pre;" direction="ltr">B</text></g><g stroke-linecap="round" transform="translate(1362.1892301368644 11.5) rotate(0 22.5 22.5)"><path d="M18.53 0.76 C22.9 -0.44, 28.93 0.84, 33.11 3.1 C37.29 5.36, 41.73 9.8, 43.61 14.31 C45.49 18.82, 45.94 25.59, 44.4 30.17 C42.86 34.75, 38.49 39.43, 34.39 41.8 C30.29 44.16, 24.41 45.13, 19.79 44.35 C15.18 43.57, 9.93 40.58, 6.7 37.12 C3.47 33.66, 0.68 28.24, 0.41 23.6 C0.14 18.97, 1.78 13.32, 5.08 9.33 C8.39 5.35, 17.15 1.18, 20.24 -0.33 C23.32 -1.84, 23.55 -0.21, 23.58 0.27 M30 1.58 C34.17 2.78, 39 7.22, 41.64 11.29 C44.28 15.37, 46.87 21.5, 45.85 26.02 C44.83 30.54, 39.5 35.06, 35.52 38.41 C31.54 41.76, 26.51 45.76, 21.99 46.14 C17.47 46.52, 11.97 43.81, 8.42 40.71 C4.86 37.61, 1.53 32.54, 0.65 27.53 C-0.22 22.52, 0.53 14.78, 3.16 10.65 C5.78 6.52, 11.83 4.23, 16.39 2.77 C20.95 1.3, 28.21 2.09, 30.51 1.85 C32.82 1.61, 30.41 0.97, 30.22 1.34" stroke="none" stroke-width="0" fill="#1864ab"></path><path d="M21.01 -0.59 C25.44 -1.36, 31.24 0.45, 34.99 3.25 C38.75 6.04, 42.36 11.4, 43.52 16.16 C44.69 20.92, 43.74 27.3, 41.99 31.82 C40.23 36.34, 37.2 41.3, 32.99 43.3 C28.78 45.3, 21.7 45.28, 16.74 43.82 C11.78 42.35, 6.1 38.46, 3.25 34.51 C0.4 30.56, -0.81 24.8, -0.34 20.11 C0.13 15.43, 1.64 9.68, 6.05 6.4 C10.47 3.12, 22.27 1.13, 26.15 0.42 C30.03 -0.3, 29.51 1.81, 29.35 2.1 M15.16 1.48 C19.7 -0.05, 28.39 -0.33, 32.78 1.66 C37.17 3.66, 39.45 9.13, 41.52 13.44 C43.59 17.75, 46.3 23.05, 45.2 27.53 C44.11 32.01, 38.88 37.2, 34.94 40.31 C30.99 43.42, 26.41 46.52, 21.55 46.17 C16.68 45.81, 9.18 41.71, 5.75 38.18 C2.33 34.66, 1.05 29.8, 0.98 25.01 C0.92 20.23, 2.64 13.4, 5.36 9.45 C8.07 5.51, 15.32 2.49, 17.28 1.34 C19.24 0.19, 17.28 2.33, 17.11 2.55" stroke="#1864ab" stroke-width="1" fill="none"></path></g><g transform="translate(1372.6892301368644 10) rotate(0 12 23)"><text x="12" y="32" font-family="Virgil, Segoe UI Emoji" font-size="36px" fill="#ffffff" text-anchor="middle" style="white-space: pre;" direction="ltr">C</text></g><g transform="translate(1376.7550196105494 121.48026315789434) rotate(0 19.5 23)"><text x="19.5" y="32" font-family="Virgil, Segoe UI Emoji" font-size="36px" fill="#1864ab" text-anchor="middle" style="white-space: pre;" direction="ltr">Hc</text></g><g stroke-linecap="round" transform="translate(1458.7813354000236 186.90131578947353) rotate(0 6.052631578947285 6.052631578947398)"><path d="M12.11 6.05 C12.11 6.4, 12.07 6.76, 12.01 7.1 C11.95 7.45, 11.86 7.79, 11.74 8.12 C11.62 8.45, 11.47 8.78, 11.29 9.08 C11.12 9.38, 10.91 9.67, 10.69 9.94 C10.46 10.21, 10.21 10.46, 9.94 10.69 C9.67 10.91, 9.38 11.12, 9.08 11.29 C8.78 11.47, 8.45 11.62, 8.12 11.74 C7.79 11.86, 7.45 11.95, 7.1 12.01 C6.76 12.07, 6.4 12.11, 6.05 12.11 C5.7 12.11, 5.35 12.07, 5 12.01 C4.66 11.95, 4.31 11.86, 3.98 11.74 C3.65 11.62, 3.33 11.47, 3.03 11.29 C2.72 11.12, 2.43 10.91, 2.16 10.69 C1.89 10.46, 1.64 10.21, 1.42 9.94 C1.19 9.67, 0.99 9.38, 0.81 9.08 C0.64 8.78, 0.48 8.45, 0.37 8.12 C0.25 7.79, 0.15 7.45, 0.09 7.1 C0.03 6.76, 0 6.4, 0 6.05 C0 5.7, 0.03 5.35, 0.09 5 C0.15 4.66, 0.25 4.31, 0.37 3.98 C0.48 3.65, 0.64 3.33, 0.81 3.03 C0.99 2.72, 1.19 2.43, 1.42 2.16 C1.64 1.89, 1.89 1.64, 2.16 1.42 C2.43 1.19, 2.72 0.99, 3.03 0.81 C3.33 0.64, 3.65 0.48, 3.98 0.37 C4.31 0.25, 4.66 0.15, 5 0.09 C5.35 0.03, 5.7 0, 6.05 0 C6.4 0, 6.76 0.03, 7.1 0.09 C7.45 0.15, 7.79 0.25, 8.12 0.37 C8.45 0.48, 8.78 0.64, 9.08 0.81 C9.38 0.99, 9.67 1.19, 9.94 1.42 C10.21 1.64, 10.46 1.89, 10.69 2.16 C10.91 2.43, 11.12 2.72, 11.29 3.03 C11.47 3.33, 11.62 3.65, 11.74 3.98 C11.86 4.31, 11.95 4.66, 12.01 5 C12.07 5.35, 12.09 5.88, 12.11 6.05 C12.12 6.23, 12.12 5.88, 12.11 6.05" stroke="none" stroke-width="0" fill="#1864ab"></path><path d="M12.11 6.05 C12.11 6.4, 12.07 6.76, 12.01 7.1 C11.95 7.45, 11.86 7.79, 11.74 8.12 C11.62 8.45, 11.47 8.78, 11.29 9.08 C11.12 9.38, 10.91 9.67, 10.69 9.94 C10.46 10.21, 10.21 10.46, 9.94 10.69 C9.67 10.91, 9.38 11.12, 9.08 11.29 C8.78 11.47, 8.45 11.62, 8.12 11.74 C7.79 11.86, 7.45 11.95, 7.1 12.01 C6.76 12.07, 6.4 12.11, 6.05 12.11 C5.7 12.11, 5.35 12.07, 5 12.01 C4.66 11.95, 4.31 11.86, 3.98 11.74 C3.65 11.62, 3.33 11.47, 3.03 11.29 C2.72 11.12, 2.43 10.91, 2.16 10.69 C1.89 10.46, 1.64 10.21, 1.42 9.94 C1.19 9.67, 0.99 9.38, 0.81 9.08 C0.64 8.78, 0.48 8.45, 0.37 8.12 C0.25 7.79, 0.15 7.45, 0.09 7.1 C0.03 6.76, 0 6.4, 0 6.05 C0 5.7, 0.03 5.35, 0.09 5 C0.15 4.66, 0.25 4.31, 0.37 3.98 C0.48 3.65, 0.64 3.33, 0.81 3.03 C0.99 2.72, 1.19 2.43, 1.42 2.16 C1.64 1.89, 1.89 1.64, 2.16 1.42 C2.43 1.19, 2.72 0.99, 3.03 0.81 C3.33 0.64, 3.65 0.48, 3.98 0.37 C4.31 0.25, 4.66 0.15, 5 0.09 C5.35 0.03, 5.7 0, 6.05 0 C6.4 0, 6.76 0.03, 7.1 0.09 C7.45 0.15, 7.79 0.25, 8.12 0.37 C8.45 0.48, 8.78 0.64, 9.08 0.81 C9.38 0.99, 9.67 1.19, 9.94 1.42 C10.21 1.64, 10.46 1.89, 10.69 2.16 C10.91 2.43, 11.12 2.72, 11.29 3.03 C11.47 3.33, 11.62 3.65, 11.74 3.98 C11.86 4.31, 11.95 4.66, 12.01 5 C12.07 5.35, 12.09 5.88, 12.11 6.05 C12.12 6.23, 12.12 5.88, 12.11 6.05" stroke="#1864ab" stroke-width="2" fill="none"></path></g><g stroke-linecap="round"><g transform="translate(451.68902128139246 277.63439849624) rotate(0 65.80588378975574 -115.53586352226273)"><path d="M1.22 1.49 C28.13 -52.33, 57.93 -101.98, 130.71 -232.56 M0.52 0.05 C40.28 -71.13, 80.83 -141.48, 131.09 -231.21" stroke="#d9480f" stroke-width="2" fill="none"></path></g></g><g stroke-linecap="round"><g transform="translate(576.4070663941751 63.44266917293271) rotate(145.85645448101545 20.53651972840487 7.746453688430734)"><path d="M1.89 -0.68 C7 -2.38, 16.97 -5.93, 24.98 -8.33 M0.06 -0.81 C5.75 -2.3, 12.55 -4.31, 26.68 -8.35 M27.6 -6.59 C29.57 3.11, 35.55 13.4, 39.43 23.84 M26.22 -8 C31.03 4.08, 38 16.15, 41.01 23.6" stroke="#d9480f" stroke-width="2" fill="none"></path></g></g><g stroke-linecap="round"><g transform="translate(451.07811902575315 268.75) rotate(0 163.8452635925828 -115.94974524171619)"><path d="M-1.09 -1.67 C31.66 -80.32, 64.07 -163.18, 101.15 -240.69 M-1.29 -1.02 C27.14 -70.79, 56.98 -139.38, 101.11 -238.29 M103.93 -241.21 C161.21 -209.18, 221.52 -176.57, 328.26 -110.13 M101.68 -239.79 C151.73 -210.34, 203.97 -181.87, 327.86 -114.03 M326.94 -110.75 C221.7 -70.36, 110.66 -29.11, 0.91 9.31 M329.27 -111.93 C249.43 -81.37, 169.07 -53.04, -1.58 7" stroke="#f2aa74" stroke-width="4" fill="none"></path></g></g><g stroke-linecap="round" transform="translate(424.80555555555577 254.125) rotate(0 22.5 22.5)"><path d="M22.84 -0.75 C27.37 -0.8, 33.62 2.22, 37.14 5.48 C40.66 8.74, 43.31 14.13, 43.95 18.81 C44.59 23.48, 43.28 29.37, 40.98 33.52 C38.68 37.68, 34.6 42.11, 30.15 43.73 C25.69 45.35, 19 45.16, 14.26 43.25 C9.52 41.35, 4.01 36.51, 1.73 32.32 C-0.56 28.12, -0.69 22.63, 0.57 18.08 C1.83 13.52, 4.63 7.87, 9.29 4.98 C13.95 2.09, 24.52 0.96, 28.51 0.74 C32.5 0.52, 33.36 3.17, 33.22 3.67 M31.75 3.07 C36.42 5.17, 42.1 10.23, 44.19 14.39 C46.28 18.55, 45.5 23.56, 44.29 28.01 C43.08 32.45, 40.86 38.41, 36.91 41.04 C32.95 43.66, 25.46 44.02, 20.55 43.74 C15.63 43.46, 10.82 42.31, 7.41 39.35 C3.99 36.39, 0.57 30.99, 0.06 25.98 C-0.46 20.98, 1.52 13.39, 4.29 9.33 C7.07 5.28, 12.01 2.78, 16.69 1.64 C21.36 0.51, 29.88 2.2, 32.35 2.53 C34.83 2.87, 31.56 3.39, 31.54 3.67" stroke="none" stroke-width="0" fill="#d9480f"></path><path d="M24.66 0.19 C29.08 0.46, 34.82 3.47, 38.31 6.97 C41.8 10.47, 45.38 16.49, 45.62 21.21 C45.86 25.92, 42.76 31.44, 39.77 35.26 C36.78 39.09, 32.24 42.8, 27.69 44.17 C23.14 45.55, 16.76 45.56, 12.47 43.52 C8.17 41.47, 3.9 36.62, 1.93 31.9 C-0.04 27.17, -0.87 19.71, 0.64 15.17 C2.16 10.63, 6.76 7.07, 11 4.64 C15.24 2.21, 23.25 1.18, 26.08 0.58 C28.91 -0.03, 28.09 0.67, 28 1.02 M32.91 2.86 C37.2 4.79, 40.26 8.86, 42.27 13 C44.28 17.14, 46.15 23.03, 44.96 27.69 C43.76 32.35, 39.39 38.02, 35.12 40.96 C30.84 43.9, 24.08 45.56, 19.3 45.32 C14.52 45.08, 9.73 42.83, 6.42 39.53 C3.12 36.22, -0.36 30.6, -0.55 25.49 C-0.74 20.38, 2.48 12.93, 5.29 8.86 C8.11 4.78, 11.67 2.02, 16.34 1.04 C21.02 0.06, 30.88 2.53, 33.36 2.99 C35.84 3.44, 31.43 3.32, 31.21 3.78" stroke="#d9480f" stroke-width="1" fill="none"></path></g><g transform="translate(433.80555555555577 251.625) rotate(0 12.5 23)"><text x="12.5" y="32" font-family="Virgil, Segoe UI Emoji" font-size="36px" fill="#ffffff" text-anchor="middle" style="white-space: pre;" direction="ltr">A</text></g><g stroke-linecap="round" transform="translate(752.5781190257532 134.5) rotate(0 22.5 22.5)"><path d="M13.46 1.42 C17.52 -0.56, 23.85 -0.87, 28.42 0.47 C32.99 1.82, 38.02 5.37, 40.86 9.5 C43.71 13.63, 46 20.34, 45.5 25.26 C45.01 30.17, 41.72 35.81, 37.9 38.97 C34.08 42.13, 27.42 43.96, 22.59 44.23 C17.75 44.5, 12.46 43.39, 8.89 40.61 C5.32 37.84, 2.16 32.34, 1.18 27.6 C0.2 22.86, 0.28 16.5, 3.04 12.18 C5.79 7.86, 14.89 3.45, 17.73 1.66 C20.57 -0.13, 19.99 1.36, 20.08 1.45 M15.37 3.1 C19.55 0.9, 24.87 -0.43, 29.48 0.83 C34.09 2.1, 40.48 6.77, 43.03 10.7 C45.57 14.63, 45.51 19.54, 44.73 24.44 C43.95 29.34, 41.92 36.44, 38.35 40.11 C34.77 43.78, 28.17 46.48, 23.27 46.45 C18.36 46.42, 12.7 43, 8.92 39.93 C5.13 36.87, 1.55 32.64, 0.56 28.06 C-0.42 23.47, 0.81 16.61, 3.02 12.4 C5.23 8.2, 11.76 4.53, 13.83 2.82 C15.9 1.11, 15.07 2.06, 15.44 2.13" stroke="none" stroke-width="0" fill="#087f5b"></path><path d="M19.37 0.09 C24.06 -0.72, 31.55 1.21, 35.53 3.77 C39.51 6.32, 41.99 10.85, 43.25 15.42 C44.52 19.99, 44.88 26.53, 43.11 31.21 C41.34 35.89, 36.91 41.23, 32.62 43.5 C28.33 45.77, 22.11 46.25, 17.37 44.83 C12.63 43.42, 6.9 38.8, 4.16 35.01 C1.42 31.22, 0.73 26.73, 0.94 22.1 C1.16 17.47, 1.59 10.92, 5.45 7.22 C9.31 3.52, 20.35 0.83, 24.1 -0.13 C27.85 -1.09, 27.77 1.14, 27.94 1.44 M11.32 2.33 C15.26 -0.3, 23.28 -1.43, 28.1 -0.38 C32.93 0.67, 37.6 4.59, 40.25 8.62 C42.9 12.66, 44.2 18.79, 44.02 23.85 C43.84 28.91, 42.35 35.26, 39.16 38.97 C35.97 42.68, 29.49 45.76, 24.89 46.1 C20.28 46.44, 15.6 43.74, 11.53 41 C7.45 38.26, 1.92 34.05, 0.46 29.67 C-0.99 25.28, 1 19.03, 2.79 14.71 C4.58 10.38, 9.5 5.43, 11.2 3.72 C12.91 2.01, 12.48 4.25, 13.01 4.44" stroke="#087f5b" stroke-width="1" fill="none"></path></g><g transform="translate(760.5781190257532 132) rotate(0 13.5 23)"><text x="13.5" y="32" font-family="Virgil, Segoe UI Emoji" font-size="36px" fill="#ffffff" text-anchor="middle" style="white-space: pre;" direction="ltr">B</text></g><g stroke-linecap="round" transform="translate(532.5781190257532 11.5) rotate(0 22.5 22.5)"><path d="M13.23 1.08 C17.34 -1.01, 24 -1.36, 28.84 0.2 C33.68 1.75, 39.58 6.19, 42.27 10.41 C44.96 14.63, 45.91 20.84, 44.97 25.52 C44.03 30.19, 40.25 35.18, 36.65 38.47 C33.05 41.76, 27.93 44.91, 23.37 45.24 C18.81 45.57, 13.03 43.45, 9.3 40.45 C5.57 37.45, 1.95 31.83, 0.99 27.24 C0.04 22.64, 1.11 17.09, 3.57 12.87 C6.02 8.65, 13.33 4.02, 15.75 1.94 C18.16 -0.14, 18.09 0.2, 18.04 0.39 M29.79 0.93 C34.24 1.92, 40.71 7, 43.2 10.97 C45.68 14.94, 45.54 19.86, 44.69 24.76 C43.84 29.65, 41.73 36.7, 38.11 40.32 C34.48 43.94, 27.85 46.56, 22.94 46.46 C18.04 46.36, 12.41 42.85, 8.67 39.73 C4.93 36.61, 1.41 32.34, 0.5 27.74 C-0.42 23.14, 0.9 16.29, 3.17 12.12 C5.44 7.95, 9.5 4.51, 14.13 2.7 C18.76 0.89, 28.19 1.53, 30.96 1.27 C33.72 1.01, 31.17 0.75, 30.73 1.17" stroke="none" stroke-width="0" fill="#1864ab"></path><path d="M23.7 0.07 C28.24 -0.21, 33.06 1.84, 36.57 4.98 C40.07 8.12, 43.84 13.89, 44.7 18.91 C45.56 23.94, 44.23 30.88, 41.74 35.1 C39.25 39.33, 34.38 43.03, 29.76 44.26 C25.14 45.5, 18.36 44.21, 14.01 42.53 C9.66 40.85, 6.03 38.25, 3.65 34.19 C1.28 30.14, -0.99 23.14, -0.25 18.23 C0.5 13.32, 4.04 7.71, 8.12 4.71 C12.21 1.71, 20.95 0.97, 24.24 0.23 C27.53 -0.52, 27.92 -0.19, 27.85 0.24 M28.01 -0.4 C32.67 0.3, 37.53 4.53, 40.19 8.55 C42.86 12.58, 44.18 18.7, 44.02 23.76 C43.86 28.82, 42.39 35.18, 39.22 38.9 C36.05 42.62, 29.58 45.73, 24.98 46.09 C20.38 46.45, 15.68 43.77, 11.6 41.05 C7.52 38.32, 1.96 34.13, 0.49 29.75 C-0.99 25.38, 0.98 19.12, 2.76 14.79 C4.53 10.46, 6.92 5.9, 11.12 3.76 C15.32 1.62, 25.09 2.39, 27.96 1.97 C30.84 1.55, 28.55 1.13, 28.37 1.24" stroke="#1864ab" stroke-width="1" fill="none"></path></g><g transform="translate(543.0781190257532 10) rotate(0 12 23)"><text x="12" y="32" font-family="Virgil, Segoe UI Emoji" font-size="36px" fill="#ffffff" text-anchor="middle" style="white-space: pre;" direction="ltr">C</text></g><g transform="translate(542.1439084994382 122.48026315789457) rotate(0 22.5 23)"><text x="22.5" y="32" font-family="Virgil, Segoe UI Emoji" font-size="36px" fill="#d9480f" text-anchor="middle" style="white-space: pre;" direction="ltr">Ha</text></g><g stroke-linecap="round" transform="translate(586.3130814317698 60.829887218045315) rotate(0 6.052631578947398 6.052631578947398)"><path d="M12.11 6.05 C12.11 6.4, 12.07 6.76, 12.01 7.1 C11.95 7.45, 11.86 7.79, 11.74 8.12 C11.62 8.45, 11.47 8.78, 11.29 9.08 C11.12 9.38, 10.91 9.67, 10.69 9.94 C10.46 10.21, 10.21 10.46, 9.94 10.69 C9.67 10.91, 9.38 11.12, 9.08 11.29 C8.78 11.47, 8.45 11.62, 8.12 11.74 C7.79 11.86, 7.45 11.95, 7.1 12.01 C6.76 12.07, 6.4 12.11, 6.05 12.11 C5.7 12.11, 5.35 12.07, 5 12.01 C4.66 11.95, 4.31 11.86, 3.98 11.74 C3.65 11.62, 3.33 11.47, 3.03 11.29 C2.72 11.12, 2.43 10.91, 2.16 10.69 C1.89 10.46, 1.64 10.21, 1.42 9.94 C1.19 9.67, 0.99 9.38, 0.81 9.08 C0.64 8.78, 0.48 8.45, 0.37 8.12 C0.25 7.79, 0.15 7.45, 0.09 7.1 C0.03 6.76, 0 6.4, 0 6.05 C0 5.7, 0.03 5.35, 0.09 5 C0.15 4.66, 0.25 4.31, 0.37 3.98 C0.48 3.65, 0.64 3.33, 0.81 3.03 C0.99 2.72, 1.19 2.43, 1.42 2.16 C1.64 1.89, 1.89 1.64, 2.16 1.42 C2.43 1.19, 2.72 0.99, 3.03 0.81 C3.33 0.64, 3.65 0.48, 3.98 0.37 C4.31 0.25, 4.66 0.15, 5 0.09 C5.35 0.03, 5.7 0, 6.05 0 C6.4 0, 6.76 0.03, 7.1 0.09 C7.45 0.15, 7.79 0.25, 8.12 0.37 C8.45 0.48, 8.78 0.64, 9.08 0.81 C9.38 0.99, 9.67 1.19, 9.94 1.42 C10.21 1.64, 10.46 1.89, 10.69 2.16 C10.91 2.43, 11.12 2.72, 11.29 3.03 C11.47 3.33, 11.62 3.65, 11.74 3.98 C11.86 4.31, 11.95 4.66, 12.01 5 C12.07 5.35, 12.09 5.88, 12.11 6.05 C12.12 6.23, 12.12 5.88, 12.11 6.05" stroke="none" stroke-width="0" fill="#d9480f"></path><path d="M12.11 6.05 C12.11 6.4, 12.07 6.76, 12.01 7.1 C11.95 7.45, 11.86 7.79, 11.74 8.12 C11.62 8.45, 11.47 8.78, 11.29 9.08 C11.12 9.38, 10.91 9.67, 10.69 9.94 C10.46 10.21, 10.21 10.46, 9.94 10.69 C9.67 10.91, 9.38 11.12, 9.08 11.29 C8.78 11.47, 8.45 11.62, 8.12 11.74 C7.79 11.86, 7.45 11.95, 7.1 12.01 C6.76 12.07, 6.4 12.11, 6.05 12.11 C5.7 12.11, 5.35 12.07, 5 12.01 C4.66 11.95, 4.31 11.86, 3.98 11.74 C3.65 11.62, 3.33 11.47, 3.03 11.29 C2.72 11.12, 2.43 10.91, 2.16 10.69 C1.89 10.46, 1.64 10.21, 1.42 9.94 C1.19 9.67, 0.99 9.38, 0.81 9.08 C0.64 8.78, 0.48 8.45, 0.37 8.12 C0.25 7.79, 0.15 7.45, 0.09 7.1 C0.03 6.76, 0 6.4, 0 6.05 C0 5.7, 0.03 5.35, 0.09 5 C0.15 4.66, 0.25 4.31, 0.37 3.98 C0.48 3.65, 0.64 3.33, 0.81 3.03 C0.99 2.72, 1.19 2.43, 1.42 2.16 C1.64 1.89, 1.89 1.64, 2.16 1.42 C2.43 1.19, 2.72 0.99, 3.03 0.81 C3.33 0.64, 3.65 0.48, 3.98 0.37 C4.31 0.25, 4.66 0.15, 5 0.09 C5.35 0.03, 5.7 0, 6.05 0 C6.4 0, 6.76 0.03, 7.1 0.09 C7.45 0.15, 7.79 0.25, 8.12 0.37 C8.45 0.48, 8.78 0.64, 9.08 0.81 C9.38 0.99, 9.67 1.19, 9.94 1.42 C10.21 1.64, 10.46 1.89, 10.69 2.16 C10.91 2.43, 11.12 2.72, 11.29 3.03 C11.47 3.33, 11.62 3.65, 11.74 3.98 C11.86 4.31, 11.95 4.66, 12.01 5 C12.07 5.35, 12.09 5.88, 12.11 6.05 C12.12 6.23, 12.12 5.88, 12.11 6.05" stroke="#d9480f" stroke-width="2" fill="none"></path></g><g stroke-linecap="round"><g transform="translate(1188.6374339798044 156.920112781954) rotate(0 -117.99604887139856 -44.47152636768192)"><path d="M1.17 0.58 C-74.45 -29.34, -152.6 -58.49, -236.93 -89.52 M-0.63 -0.49 C-90.67 -35.42, -180.18 -68.45, -237.16 -88.6" stroke="#087f5b" stroke-width="2" fill="none"></path></g></g><g stroke-linecap="round"><g transform="translate(946.9269076640152 84.51409774436024) rotate(138.43445731768477 21.04325663092493 7.378574595737405)"><path d="M0.72 1.5 C8.87 -4.92, 16.25 -6.5, 23.9 -6.8 M-0.61 0.05 C9.49 -2.38, 20.2 -7.3, 25.03 -9.38 M23.8 -8.97 C30.8 -3.34, 33.87 5.03, 42.69 24.13 M25.82 -7.96 C31 0.95, 34.4 7.85, 40.1 23.67" stroke="#087f5b" stroke-width="2" fill="none"></path></g></g><g stroke-linecap="round"><g transform="translate(865.8836745813086 268.75) rotate(0 163.41588444772538 -115.67193707955391)"><path d="M2.41 0.13 C17.5 -57.65, 42.79 -113.68, 103.59 -236.05 M0.09 -1.08 C27.31 -53.97, 47.89 -109.9, 99.47 -240.27 M100.12 -236.23 C159.97 -198.82, 223.74 -164.25, 328.72 -114.2 M101.74 -237.52 C188.69 -189.71, 274.28 -142.88, 327.97 -111.9 M329.03 -113.76 C249.13 -81.61, 166.4 -52.38, -2.2 8.93 M327.94 -113.51 C248.35 -83.69, 171.24 -56.4, -0.15 7.07" stroke="#f2aa74" stroke-width="4" fill="none"></path></g></g><g stroke-linecap="round" transform="translate(839.6111111111112 254.125) rotate(0 22.5 22.5)"><path d="M25.55 -0.59 C30.17 -0.29, 35.64 2.96, 38.76 6.61 C41.87 10.26, 43.9 16.36, 44.23 21.33 C44.55 26.3, 43.48 32.56, 40.69 36.42 C37.9 40.28, 32.11 43.6, 27.5 44.5 C22.9 45.4, 17.41 44.1, 13.06 41.81 C8.72 39.51, 3.55 35.02, 1.43 30.73 C-0.7 26.44, -1.14 20.65, 0.31 16.06 C1.75 11.47, 5.79 5.94, 10.11 3.18 C14.43 0.42, 23.39 -0.24, 26.21 -0.5 C29.04 -0.77, 27.24 1.18, 27.06 1.6 M12.55 2.91 C16.35 0.85, 22.84 0.57, 27.36 1.48 C31.88 2.4, 36.61 4.66, 39.66 8.39 C42.71 12.12, 45.63 19.01, 45.65 23.85 C45.66 28.69, 43.08 33.85, 39.72 37.45 C36.37 41.05, 30.54 44.87, 25.5 45.44 C20.47 46.02, 13.4 43.57, 9.5 40.9 C5.6 38.22, 3.64 33.65, 2.09 29.39 C0.53 25.14, -1.65 20.01, 0.17 15.38 C1.98 10.75, 10.98 3.76, 12.97 1.6 C14.96 -0.56, 12.18 1.79, 12.13 2.42" stroke="none" stroke-width="0" fill="#d9480f"></path><path d="M11.36 3.25 C15.57 0.85, 23.78 -0.98, 28.5 -0.12 C33.23 0.73, 36.95 4.51, 39.7 8.37 C42.46 12.23, 45.03 18.12, 45.02 23.03 C45.01 27.93, 43.11 34.28, 39.66 37.79 C36.21 41.29, 29.39 43.62, 24.32 44.08 C19.26 44.54, 13.21 43.03, 9.27 40.56 C5.33 38.09, 2.11 33.78, 0.69 29.25 C-0.72 24.73, -1.92 18.3, 0.8 13.41 C3.52 8.53, 13.66 2.13, 17.03 -0.07 C20.39 -2.27, 20.9 -0.34, 21 0.22 M18.34 1.09 C22.8 0.36, 30.6 2.04, 34.88 4.1 C39.16 6.16, 42.78 9.16, 44.02 13.46 C45.26 17.76, 43.81 25.29, 42.31 29.89 C40.82 34.49, 38.9 38.53, 35.04 41.05 C31.17 43.56, 23.97 45.69, 19.13 44.98 C14.3 44.26, 9.02 40.38, 6.05 36.75 C3.09 33.12, 1.41 27.93, 1.34 23.18 C1.28 18.43, 2.98 11.94, 5.69 8.23 C8.4 4.52, 15.65 2.27, 17.61 0.93 C19.57 -0.4, 17.23 -0.04, 17.44 0.23" stroke="#d9480f" stroke-width="1" fill="none"></path></g><g transform="translate(848.6111111111112 251.625) rotate(0 12.5 23)"><text x="12.5" y="32" font-family="Virgil, Segoe UI Emoji" font-size="36px" fill="#ffffff" text-anchor="middle" style="white-space: pre;" direction="ltr">A</text></g><g stroke-linecap="round" transform="translate(1167.3836745813082 134.5) rotate(0 22.5 22.5)"><path d="M13.28 1.7 C17.11 -0.27, 23.23 -0.27, 27.87 1.19 C32.51 2.66, 38.34 6.53, 41.11 10.48 C43.88 14.43, 44.9 20.36, 44.49 24.89 C44.09 29.43, 42.15 34.52, 38.68 37.71 C35.21 40.9, 28.67 43.58, 23.68 44.06 C18.7 44.54, 12.59 43.35, 8.79 40.58 C4.98 37.8, 1.91 32.18, 0.85 27.42 C-0.21 22.65, -0.09 16.26, 2.44 11.96 C4.97 7.67, 13.37 3.6, 16.03 1.65 C18.68 -0.3, 18.44 -0.09, 18.37 0.25 M14.22 2.72 C18.14 0.64, 24.14 -0.51, 28.8 0.89 C33.45 2.29, 39.41 7.03, 42.15 11.12 C44.89 15.21, 46.01 20.68, 45.23 25.45 C44.44 30.23, 41.26 36.66, 37.43 39.79 C33.61 42.92, 26.89 44.17, 22.27 44.23 C17.65 44.3, 13.59 42.77, 9.73 40.16 C5.87 37.54, 0.1 33.4, -0.9 28.54 C-1.91 23.68, 1.21 15.58, 3.69 11 C6.18 6.41, 12.31 2.4, 14 1.04 C15.69 -0.33, 13.65 2.16, 13.83 2.81" stroke="none" stroke-width="0" fill="#087f5b"></path><path d="M19.98 -0.44 C24.49 -1.66, 29.4 0.15, 33.38 2.65 C37.36 5.15, 42.05 9.93, 43.85 14.58 C45.66 19.23, 46.1 26.08, 44.19 30.56 C42.29 35.04, 36.94 39.26, 32.44 41.46 C27.93 43.67, 21.8 44.55, 17.17 43.78 C12.54 43, 7.71 40.46, 4.68 36.79 C1.65 33.12, -1.28 26.77, -0.99 21.75 C-0.7 16.73, 2.77 10.36, 6.44 6.69 C10.11 3.03, 18.36 0.77, 21.01 -0.23 C23.67 -1.23, 22.51 0.12, 22.37 0.7 M14.84 3.13 C18.99 0.73, 25.13 -1.31, 29.29 -0.17 C33.44 0.98, 37.02 5.92, 39.79 9.98 C42.55 14.04, 46.14 19.33, 45.89 24.18 C45.65 29.02, 41.85 35.64, 38.3 39.03 C34.74 42.42, 29.18 44.18, 24.55 44.51 C19.93 44.84, 14.41 43.81, 10.53 41.02 C6.65 38.23, 2.74 32.46, 1.26 27.8 C-0.23 23.14, -0.24 17.49, 1.63 13.08 C3.51 8.66, 10.48 3.09, 12.5 1.29 C14.52 -0.52, 13.55 2, 13.76 2.24" stroke="#087f5b" stroke-width="1" fill="none"></path></g><g transform="translate(1175.3836745813082 132) rotate(0 13.5 23)"><text x="13.5" y="32" font-family="Virgil, Segoe UI Emoji" font-size="36px" fill="#ffffff" text-anchor="middle" style="white-space: pre;" direction="ltr">B</text></g><g stroke-linecap="round" transform="translate(947.3836745813086 11.5) rotate(0 22.5 22.5)"><path d="M13.91 1.77 C18.09 0.06, 25.44 0.37, 30.04 1.95 C34.63 3.53, 38.97 7.35, 41.5 11.24 C44.02 15.14, 45.97 20.74, 45.16 25.33 C44.34 29.91, 40.45 35.49, 36.61 38.74 C32.77 41.98, 26.82 44.72, 22.11 44.8 C17.4 44.88, 11.92 42.38, 8.33 39.22 C4.75 36.05, 1.48 30.34, 0.58 25.82 C-0.31 21.29, 0.24 16.39, 2.98 12.09 C5.71 7.8, 14.25 1.89, 17.02 0.06 C19.78 -1.77, 19.54 0.57, 19.57 1.1 M23.66 -0.1 C28.3 -0.11, 35.24 3.67, 38.84 7.06 C42.45 10.44, 44.97 15.42, 45.31 20.22 C45.64 25.01, 43.84 31.97, 40.86 35.83 C37.88 39.7, 31.88 42.24, 27.44 43.41 C23 44.58, 18.66 44.5, 14.22 42.85 C9.78 41.19, 2.88 37.98, 0.81 33.48 C-1.25 28.99, 0.39 20.87, 1.83 15.89 C3.26 10.91, 5.75 6.11, 9.42 3.58 C13.1 1.06, 21.39 1.08, 23.89 0.76 C26.38 0.44, 24.61 1.27, 24.4 1.68" stroke="none" stroke-width="0" fill="#1864ab"></path><path d="M30.58 1.21 C34.75 2.75, 40.21 7.28, 42.63 11.67 C45.06 16.06, 46.38 22.87, 45.13 27.55 C43.87 32.23, 39.23 36.99, 35.09 39.76 C30.95 42.53, 25.01 44.28, 20.3 44.17 C15.59 44.06, 10.35 42.32, 6.82 39.11 C3.3 35.9, -0.45 29.88, -0.84 24.9 C-1.22 19.92, 1.61 13.25, 4.53 9.21 C7.46 5.16, 11.97 1.76, 16.71 0.63 C21.45 -0.51, 30.38 1.87, 32.99 2.41 C35.6 2.95, 32.82 3.56, 32.39 3.86 M28.12 -0.47 C32.17 0.08, 36.11 5.09, 39.09 9 C42.07 12.9, 45.98 18.11, 45.99 22.97 C46 27.84, 42.52 34.6, 39.15 38.17 C35.77 41.75, 30.36 43.81, 25.76 44.4 C21.15 44.99, 15.55 44.28, 11.52 41.71 C7.49 39.14, 3.3 33.55, 1.57 28.97 C-0.16 24.38, -0.51 18.7, 1.13 14.17 C2.77 9.64, 6.97 4.08, 11.41 1.8 C15.85 -0.47, 25.18 0.86, 27.77 0.53 C30.36 0.19, 27.01 -0.54, 26.95 -0.21" stroke="#1864ab" stroke-width="1" fill="none"></path></g><g transform="translate(957.8836745813086 10) rotate(0 12 23)"><text x="12" y="32" font-family="Virgil, Segoe UI Emoji" font-size="36px" fill="#ffffff" text-anchor="middle" style="white-space: pre;" direction="ltr">C</text></g><g transform="translate(1024.3066069121369 109.76597744360924) rotate(0 19.5 23)"><text x="19.5" y="32" font-family="Virgil, Segoe UI Emoji" font-size="36px" fill="#087f5b" text-anchor="middle" style="white-space: pre;" direction="ltr">Hb</text></g><g stroke-linecap="round" transform="translate(959.2340337253439 83.17903998891006) rotate(138.43445731768477 6.052631578947398 6.052631578947398)"><path d="M12.11 6.05 C12.11 6.4, 12.07 6.76, 12.01 7.1 C11.95 7.45, 11.86 7.79, 11.74 8.12 C11.62 8.45, 11.47 8.78, 11.29 9.08 C11.12 9.38, 10.91 9.67, 10.69 9.94 C10.46 10.21, 10.21 10.46, 9.94 10.69 C9.67 10.91, 9.38 11.12, 9.08 11.29 C8.78 11.47, 8.45 11.62, 8.12 11.74 C7.79 11.86, 7.45 11.95, 7.1 12.01 C6.76 12.07, 6.4 12.11, 6.05 12.11 C5.7 12.11, 5.35 12.07, 5 12.01 C4.66 11.95, 4.31 11.86, 3.98 11.74 C3.65 11.62, 3.33 11.47, 3.03 11.29 C2.72 11.12, 2.43 10.91, 2.16 10.69 C1.89 10.46, 1.64 10.21, 1.42 9.94 C1.19 9.67, 0.99 9.38, 0.81 9.08 C0.64 8.78, 0.48 8.45, 0.37 8.12 C0.25 7.79, 0.15 7.45, 0.09 7.1 C0.03 6.76, 0 6.4, 0 6.05 C0 5.7, 0.03 5.35, 0.09 5 C0.15 4.66, 0.25 4.31, 0.37 3.98 C0.48 3.65, 0.64 3.33, 0.81 3.03 C0.99 2.72, 1.19 2.43, 1.42 2.16 C1.64 1.89, 1.89 1.64, 2.16 1.42 C2.43 1.19, 2.72 0.99, 3.03 0.81 C3.33 0.64, 3.65 0.48, 3.98 0.37 C4.31 0.25, 4.66 0.15, 5 0.09 C5.35 0.03, 5.7 0, 6.05 0 C6.4 0, 6.76 0.03, 7.1 0.09 C7.45 0.15, 7.79 0.25, 8.12 0.37 C8.45 0.48, 8.78 0.64, 9.08 0.81 C9.38 0.99, 9.67 1.19, 9.94 1.42 C10.21 1.64, 10.46 1.89, 10.69 2.16 C10.91 2.43, 11.12 2.72, 11.29 3.03 C11.47 3.33, 11.62 3.65, 11.74 3.98 C11.86 4.31, 11.95 4.66, 12.01 5 C12.07 5.35, 12.09 5.88, 12.11 6.05 C12.12 6.23, 12.12 5.88, 12.11 6.05" stroke="none" stroke-width="0" fill="#087f5b"></path><path d="M12.11 6.05 C12.11 6.4, 12.07 6.76, 12.01 7.1 C11.95 7.45, 11.86 7.79, 11.74 8.12 C11.62 8.45, 11.47 8.78, 11.29 9.08 C11.12 9.38, 10.91 9.67, 10.69 9.94 C10.46 10.21, 10.21 10.46, 9.94 10.69 C9.67 10.91, 9.38 11.12, 9.08 11.29 C8.78 11.47, 8.45 11.62, 8.12 11.74 C7.79 11.86, 7.45 11.95, 7.1 12.01 C6.76 12.07, 6.4 12.11, 6.05 12.11 C5.7 12.11, 5.35 12.07, 5 12.01 C4.66 11.95, 4.31 11.86, 3.98 11.74 C3.65 11.62, 3.33 11.47, 3.03 11.29 C2.72 11.12, 2.43 10.91, 2.16 10.69 C1.89 10.46, 1.64 10.21, 1.42 9.94 C1.19 9.67, 0.99 9.38, 0.81 9.08 C0.64 8.78, 0.48 8.45, 0.37 8.12 C0.25 7.79, 0.15 7.45, 0.09 7.1 C0.03 6.76, 0 6.4, 0 6.05 C0 5.7, 0.03 5.35, 0.09 5 C0.15 4.66, 0.25 4.31, 0.37 3.98 C0.48 3.65, 0.64 3.33, 0.81 3.03 C0.99 2.72, 1.19 2.43, 1.42 2.16 C1.64 1.89, 1.89 1.64, 2.16 1.42 C2.43 1.19, 2.72 0.99, 3.03 0.81 C3.33 0.64, 3.65 0.48, 3.98 0.37 C4.31 0.25, 4.66 0.15, 5 0.09 C5.35 0.03, 5.7 0, 6.05 0 C6.4 0, 6.76 0.03, 7.1 0.09 C7.45 0.15, 7.79 0.25, 8.12 0.37 C8.45 0.48, 8.78 0.64, 9.08 0.81 C9.38 0.99, 9.67 1.19, 9.94 1.42 C10.21 1.64, 10.46 1.89, 10.69 2.16 C10.91 2.43, 11.12 2.72, 11.29 3.03 C11.47 3.33, 11.62 3.65, 11.74 3.98 C11.86 4.31, 11.95 4.66, 12.01 5 C12.07 5.35, 12.09 5.88, 12.11 6.05 C12.12 6.23, 12.12 5.88, 12.11 6.05" stroke="#087f5b" stroke-width="2" fill="none"></path></g></svg>