<svg version="1.1" xmlns="http://www.w3.org/2000/svg" viewBox="0 0 809.8551433905959 557" width="809.8551433905959" height="557">
  <!-- svg-source:excalidraw -->
  
  <defs>
    <style>
      @font-face {
        font-family: "Virgil";
        src: url("https://excalidraw.com/Virgil.woff2");
      }
      @font-face {
        font-family: "Cascadia";
        src: url("https://excalidraw.com/Cascadia.woff2");
      }
    </style>
  </defs>
  <g stroke-linecap="round"><g transform="translate(78.10514339059591 424) rotate(0 299.88168891072274 -111.09459050297733)"><path d="M-1.26 -1.55 C152.83 -55.01, 306.48 -111.37, 601.02 -220.64" stroke="#d9480f" stroke-width="4.5" fill="none" stroke-dasharray="8 12"></path></g></g><g stroke-linecap="round"><g transform="translate(164.1051433905959 49) rotate(0 278.73237155079846 161.2071285903454)"><path d="M1.08 -1.23 C180.02 101.78, 360.2 208.65, 556.38 323.64" stroke="#087f5b" stroke-width="4.5" fill="none" stroke-dasharray="8 12"></path></g></g><g stroke-linecap="round"><g transform="translate(353.1051433905959 11) rotate(0 -98.26824124455455 245.52688410878181)"><path d="M-0.46 -0.77 C-77.58 193.99, -154.4 385.76, -196.07 491.83" stroke="#1864ab" stroke-width="4.5" fill="none" stroke-dasharray="8 12"></path></g></g><g stroke-linecap="round" transform="translate(177.71886165549722 355.5625) rotate(0 22.5 22.5)"><path d="M13.44 2.78 C17.39 0.77, 23.45 -0.08, 28.07 1.27 C32.68 2.62, 38.25 6.86, 41.13 10.86 C44.01 14.86, 45.98 20.51, 45.35 25.28 C44.73 30.05, 40.95 36.09, 37.39 39.48 C33.83 42.87, 28.57 45.43, 23.99 45.61 C19.41 45.8, 13.87 43.51, 9.89 40.59 C5.91 37.67, 1.41 32.82, 0.09 28.12 C-1.22 23.41, -0.61 16.91, 2 12.33 C4.6 7.76, 13 2.74, 15.71 0.65 C18.42 -1.44, 18.05 -0.47, 18.27 -0.21 M14.67 1.29 C18.64 -0.24, 24.15 0.84, 28.88 2.3 C33.6 3.76, 40.13 6.25, 43 10.03 C45.87 13.81, 47.01 19.87, 46.12 24.97 C45.22 30.06, 41.5 37.13, 37.64 40.6 C33.78 44.08, 27.6 46.11, 22.95 45.84 C18.31 45.57, 13.61 41.94, 9.77 38.98 C5.93 36.01, 1.2 32.75, -0.08 28.06 C-1.36 23.38, -0.09 15.37, 2.1 10.89 C4.29 6.4, 10.77 2.78, 13.03 1.18 C15.29 -0.43, 15.49 1.06, 15.66 1.25" stroke="none" stroke-width="0" fill="#d9480f"></path><path d="M20.08 -0.13 C24.58 -0.82, 31.09 0.61, 35.13 3.54 C39.16 6.48, 42.98 12.74, 44.31 17.49 C45.64 22.23, 45.3 27.81, 43.09 32.01 C40.88 36.22, 35.42 40.64, 31.05 42.73 C26.67 44.82, 21.49 45.89, 16.87 44.52 C12.25 43.16, 6.26 38.46, 3.34 34.52 C0.41 30.59, -1.2 25.74, -0.69 20.94 C-0.19 16.14, 2.21 9.23, 6.38 5.71 C10.54 2.19, 20.95 0.53, 24.28 -0.17 C27.62 -0.87, 26.45 1.14, 26.39 1.51 M29.99 2.04 C34.53 3.28, 39.18 7.23, 41.53 10.79 C43.87 14.35, 44.69 18.91, 44.04 23.4 C43.39 27.9, 40.78 34.32, 37.65 37.77 C34.53 41.22, 30.04 43.38, 25.3 44.11 C20.56 44.83, 13.3 44.57, 9.21 42.11 C5.13 39.65, 1.78 34.46, 0.8 29.36 C-0.18 24.26, 1.14 16.14, 3.33 11.51 C5.52 6.88, 9.85 3.39, 13.96 1.59 C18.07 -0.22, 25.39 0.75, 27.99 0.67 C30.6 0.6, 29.7 0.7, 29.57 1.12" stroke="#d9480f" stroke-width="1" fill="none"></path></g><g transform="translate(186.71886165549722 353.0625) rotate(0 12.5 23)"><text x="12.5" y="32" font-family="Virgil, Segoe UI Emoji" font-size="36px" fill="#ffffff" text-anchor="middle" style="white-space: pre;" direction="ltr">A</text></g><g stroke-linecap="round" transform="translate(505.4914251256946 234.9375) rotate(0 22.5 22.5)"><path d="M19.56 0.46 C24.08 -0.28, 30.95 2.06, 35.14 4.77 C39.32 7.49, 43.48 12.13, 44.68 16.76 C45.88 21.38, 44.42 28.07, 42.35 32.52 C40.28 36.97, 36.38 41.51, 32.26 43.47 C28.14 45.42, 22.38 45.53, 17.61 44.26 C12.84 43, 6.62 39.84, 3.64 35.89 C0.66 31.94, -0.66 25.47, -0.28 20.57 C0.1 15.67, 2.25 10.07, 5.9 6.49 C9.55 2.92, 18.47 0.22, 21.64 -0.9 C24.81 -2.03, 24.89 -0.85, 24.92 -0.28 M11.25 3.83 C15.3 1.37, 23.47 -0.79, 28.52 -0.12 C33.56 0.55, 38.78 3.76, 41.55 7.88 C44.31 11.99, 45.55 19.49, 45.12 24.58 C44.69 29.66, 42.03 35.21, 38.99 38.37 C35.94 41.54, 31.68 42.87, 26.85 43.56 C22.03 44.26, 14.44 45.07, 10.06 42.56 C5.67 40.05, 2.14 33.32, 0.55 28.5 C-1.04 23.69, -1.6 18.12, 0.52 13.68 C2.64 9.24, 11.48 3.87, 13.26 1.88 C15.03 -0.12, 11.07 1.47, 11.18 1.7" stroke="none" stroke-width="0" fill="#087f5b"></path><path d="M19.32 -0.65 C23.99 -1.36, 30.71 1.39, 34.9 4.12 C39.09 6.85, 43.2 11.22, 44.48 15.72 C45.76 20.23, 44.47 26.58, 42.58 31.14 C40.69 35.7, 37.46 40.94, 33.16 43.06 C28.85 45.18, 21.68 44.93, 16.75 43.87 C11.82 42.82, 6.45 40.61, 3.58 36.72 C0.7 32.84, -1.01 25.53, -0.5 20.54 C0.01 15.55, 2.89 10.09, 6.65 6.78 C10.4 3.47, 19.05 1.77, 22.04 0.68 C25.04 -0.4, 24.5 0.01, 24.62 0.29 M17.37 1.75 C21.35 -0.08, 27.18 -0.82, 31.35 0.96 C35.51 2.73, 40.05 7.95, 42.36 12.41 C44.67 16.87, 46.43 22.72, 45.2 27.71 C43.98 32.7, 39.13 39.27, 35 42.34 C30.87 45.41, 24.98 47.01, 20.41 46.11 C15.84 45.21, 10.84 40.66, 7.58 36.94 C4.33 33.23, 1.52 28.42, 0.87 23.8 C0.22 19.19, 0.81 13.15, 3.68 9.28 C6.55 5.41, 15.96 1.91, 18.07 0.58 C20.18 -0.74, 16.64 0.83, 16.34 1.34" stroke="#087f5b" stroke-width="1" fill="none"></path></g><g transform="translate(518.4914251256946 235.4375) rotate(0 13.5 23)"><text x="13.5" y="32" font-family="Virgil, Segoe UI Emoji" font-size="36px" fill="#ffffff" text-anchor="middle" style="white-space: pre;" direction="ltr">B</text></g><g stroke-linecap="round" transform="translate(285.4914251256946 111.9375) rotate(0 22.5 22.5)"><path d="M32.16 3.05 C36.63 4.76, 41.62 9.15, 43.51 13.52 C45.4 17.9, 44.91 24.59, 43.53 29.29 C42.15 34, 39 39.16, 35.24 41.75 C31.49 44.35, 25.89 45.41, 20.99 44.87 C16.09 44.33, 9.39 42, 5.84 38.53 C2.3 35.05, 0.07 28.91, -0.29 24.01 C-0.65 19.11, 0.97 13.16, 3.68 9.12 C6.4 5.09, 10.82 0.85, 16.02 -0.21 C21.22 -1.27, 31.56 1.75, 34.88 2.77 C38.19 3.78, 36.32 5.38, 35.93 5.89 M21.47 -0.47 C26.32 -1.57, 32.58 0.07, 36.37 3.08 C40.17 6.09, 43.17 12.68, 44.24 17.58 C45.32 22.47, 44.59 28.46, 42.82 32.44 C41.04 36.43, 37.97 39.34, 33.6 41.48 C29.22 43.63, 21.53 46.41, 16.56 45.3 C11.59 44.18, 6.7 38.91, 3.77 34.78 C0.83 30.66, -1.7 25.33, -1.05 20.56 C-0.41 15.78, 4.26 9.77, 7.63 6.14 C11 2.51, 16.92 -0.07, 19.16 -1.22 C21.4 -2.38, 20.8 -1.25, 21.07 -0.8" stroke="none" stroke-width="0" fill="#1864ab"></path><path d="M20.44 0.46 C25.16 -0.18, 31.89 0.99, 35.76 3.63 C39.63 6.26, 42.38 11.48, 43.68 16.27 C44.97 21.06, 45.57 28.02, 43.55 32.37 C41.54 36.72, 36.2 40.24, 31.59 42.37 C26.98 44.49, 20.58 46.35, 15.91 45.11 C11.24 43.86, 6.12 39.01, 3.56 34.89 C0.99 30.77, 0.06 24.98, 0.53 20.38 C1 15.79, 2.86 10.75, 6.38 7.31 C9.89 3.88, 18.88 0.9, 21.64 -0.22 C24.4 -1.35, 23.03 -0.02, 22.93 0.57 M30.54 0.59 C34.68 1.84, 39.5 7.24, 41.98 11.61 C44.46 15.99, 46.46 21.82, 45.42 26.85 C44.38 31.89, 39.74 38.6, 35.72 41.83 C31.7 45.05, 25.87 46.89, 21.29 46.18 C16.7 45.47, 11.6 41.14, 8.21 37.56 C4.82 33.98, 1.79 29.28, 0.95 24.68 C0.11 20.09, 0.47 13.98, 3.18 10.01 C5.89 6.03, 12.63 2.15, 17.22 0.82 C21.82 -0.51, 28.61 1.66, 30.74 2.03 C32.87 2.4, 30.27 2.72, 30.02 3.04" stroke="#1864ab" stroke-width="1" fill="none"></path></g><g transform="translate(295.9914251256946 109.4375) rotate(0 12 23)"><text x="12" y="32" font-family="Virgil, Segoe UI Emoji" font-size="36px" fill="#ffffff" text-anchor="middle" style="white-space: pre;" direction="ltr">C</text></g><g stroke-linecap="round"><g transform="translate(188.1051433905959 486) rotate(0 14.114550659433007 18.98953589051962)"><path d="M-0.5 -0.35 C6.56 9.24, 16.99 23.48, 28.88 38.33 M-0.65 0.62 C5.89 9.92, 13.03 18.89, 27.02 37.18" stroke="#1864ab" stroke-width="4" fill="none"></path></g></g><g stroke-linecap="round"><g transform="translate(198.1051433905959 500) rotate(0 -5.360805913805962 13.945648949593306)"><path d="M1.78 3.58 C-2.38 1.84, -7.33 14.72, -12.5 28.5 M0.13 -0.61 C-0.7 4.71, -4.42 11, -9.43 24.95" stroke="#1864ab" stroke-width="2" fill="none"></path></g></g><g transform="translate(222.6051433905959 501) rotate(0 13.5 23)"><text x="13.5" y="32" font-family="Virgil, Segoe UI Emoji" font-size="36px" fill="#1864ab" text-anchor="middle" style="white-space: pre;" direction="ltr">2</text></g><g stroke-linecap="round"><g transform="translate(11.355143390595913 349.5) rotate(0 13.047730721533298 19.17681970074773)"><path d="M-1.36 1.87 C7.82 12.14, 19.46 24.66, 27.45 38.15 M-0.56 0.08 C9.03 10.66, 16.4 22.35, 27.4 38.28" stroke="#d9480f" stroke-width="4" fill="none"></path></g></g><g stroke-linecap="round"><g transform="translate(21.355143390595913 363.5) rotate(0 -2.9806817322969437 11.012100294232368)"><path d="M3.75 -2.94 C-4.47 8.02, -7.68 12.1, -9.71 24.96 M0.16 1.93 C-2.76 5.28, -4.28 9.61, -9.45 24.13" stroke="#d9480f" stroke-width="2" fill="none"></path></g></g><g transform="translate(45.35514339059591 364.5) rotate(0 13 23)"><text x="13" y="32" font-family="Virgil, Segoe UI Emoji" font-size="36px" fill="#d9480f" text-anchor="middle" style="white-space: pre;" direction="ltr">0</text></g><g stroke-linecap="round"><g transform="translate(745.3551433905959 352.5) rotate(0 12.682500252500176 19.619686383754015)"><path d="M-1.74 1.39 C6.52 11.93, 15.31 23.51, 26.42 37.04 M-0.59 0.69 C7.23 9.72, 14.31 18.44, 27.11 38.55" stroke="#087f5b" stroke-width="4" fill="none"></path></g></g><g stroke-linecap="round"><g transform="translate(755.3551433905959 366.5) rotate(0 -4.570149257779121 10.16098989918828)"><path d="M2.78 -3.29 C-0.35 2.31, -2.38 7.11, -11.92 22.94 M1.38 0.91 C-2.91 7.33, -6.87 10.64, -8.9 23.61" stroke="#087f5b" stroke-width="2" fill="none"></path></g></g><g transform="translate(788.8551433905959 367.5) rotate(0 5.5 23)"><text x="5.5" y="32" font-family="Virgil, Segoe UI Emoji" font-size="36px" fill="#087f5b" text-anchor="middle" style="white-space: pre;" direction="ltr">1</text></g><g transform="translate(639.1051433905959 156) rotate(0 12 23)"><text x="12" y="32" font-family="Virgil, Segoe UI Emoji" font-size="36px" fill="#d9480f" text-anchor="middle" style="white-space: pre;" direction="ltr">+</text></g><g transform="translate(673.1051433905959 215) rotate(0 8 23)"><text x="8" y="32" font-family="Virgil, Segoe UI Emoji" font-size="36px" fill="#d9480f" text-anchor="middle" style="white-space: pre;" direction="ltr">-</text></g><g transform="translate(364.1051433905959 10) rotate(0 12 23)"><text x="12" y="32" font-family="Virgil, Segoe UI Emoji" font-size="36px" fill="#1864ab" text-anchor="middle" style="white-space: pre;" direction="ltr">+</text></g><g transform="translate(151.1051433905959 55) rotate(0 12 23)"><text x="12" y="32" font-family="Virgil, Segoe UI Emoji" font-size="36px" fill="#087f5b" text-anchor="middle" style="white-space: pre;" direction="ltr">+</text></g><g transform="translate(196.1051433905959 15) rotate(0 8 23)"><text x="8" y="32" font-family="Virgil, Segoe UI Emoji" font-size="36px" fill="#087f5b" text-anchor="middle" style="white-space: pre;" direction="ltr">-</text></g></svg>