<svg version="1.1" xmlns="http://www.w3.org/2000/svg" viewBox="0 0 392.7725634701975 310.125" width="392.7725634701975" height="310.125">
  <!-- svg-source:excalidraw -->
  
  <defs>
    <style>
      @font-face {
        font-family: "Virgil";
        src: url("https://excalidraw.com/Virgil.woff2");
      }
      @font-face {
        font-family: "Cascadia";
        src: url("https://excalidraw.com/Cascadia.woff2");
      }
    </style>
  </defs>
  <g stroke-linecap="round"><g transform="translate(36.2725634701975 269.75) rotate(0 164.19222904725743 -115.77215737991884)"><path d="M-2.75 -1.1 C43.59 -93.18, 78.05 -189.46, 102.25 -241.84 M-1.08 -1.54 C35.47 -89.86, 70.4 -176.33, 100.8 -239.65 M99.11 -239.68 C155.19 -211.18, 200.48 -180.06, 331.13 -115.34 M101.54 -238.38 C161.18 -208.03, 225.82 -170.88, 326.74 -113.47 M329.24 -112.12 C240.8 -82.5, 151.77 -46.43, 0.57 10.3 M326.82 -112.21 C226.58 -74.29, 124.66 -36.57, -1.51 8.02" stroke="#f2aa74" stroke-width="4" fill="none"></path></g></g><g stroke-linecap="round" transform="translate(10 255.125) rotate(0 22.5 22.5)"><path d="M29.39 1.23 C33.93 2.28, 39.68 6.69, 42.36 10.74 C45.04 14.79, 46.38 20.69, 45.48 25.54 C44.59 30.4, 40.73 36.55, 36.99 39.85 C33.24 43.16, 27.95 45.2, 23.03 45.37 C18.11 45.55, 11.29 44.1, 7.46 40.89 C3.64 37.67, 0.86 31.04, 0.07 26.07 C-0.71 21.09, 0.24 15.03, 2.76 11.04 C5.27 7.04, 9.97 3.52, 15.16 2.09 C20.36 0.67, 30.46 1.89, 33.93 2.48 C37.41 3.06, 36.44 5.31, 36.03 5.6 M17.51 1.28 C22.04 -0.25, 28.14 0.23, 32.31 2.23 C36.48 4.24, 40.82 8.84, 42.55 13.29 C44.28 17.73, 44.27 24.09, 42.69 28.9 C41.1 33.72, 36.69 39.61, 33.04 42.19 C29.4 44.76, 25.17 44.97, 20.84 44.32 C16.51 43.68, 10.68 41.74, 7.06 38.3 C3.44 34.86, -0.66 28.55, -0.87 23.67 C-1.07 18.78, 2.53 12.64, 5.84 9.01 C9.16 5.39, 16.93 3.41, 19.02 1.94 C21.11 0.46, 18.73 -0.17, 18.39 0.18" stroke="none" stroke-width="0" fill="#d9480f"></path><path d="M33.07 2.72 C37 4.76, 40.24 9.81, 42.22 14.18 C44.19 18.54, 46.25 24.55, 44.93 28.89 C43.61 33.24, 38.34 37.7, 34.31 40.26 C30.27 42.83, 25.57 44.51, 20.74 44.29 C15.91 44.07, 8.79 42.4, 5.32 38.94 C1.85 35.48, 0.21 28.37, -0.08 23.54 C-0.37 18.71, 0.81 13.86, 3.57 9.95 C6.33 6.03, 11.43 1.04, 16.46 0.05 C21.48 -0.95, 30.75 3.35, 33.73 3.97 C36.7 4.59, 34.41 3.44, 34.3 3.79 M15.54 1.99 C19.87 0.05, 26.21 -1.49, 30.42 0.15 C34.62 1.8, 38.18 7.76, 40.78 11.88 C43.38 15.99, 46.69 20.34, 46.03 24.86 C45.36 29.38, 40.54 35.69, 36.81 39.02 C33.07 42.36, 28.23 44.62, 23.6 44.87 C18.98 45.11, 12.86 43.66, 9.04 40.48 C5.22 37.31, 1.73 30.46, 0.68 25.83 C-0.37 21.19, 0.3 16.51, 2.75 12.68 C5.19 8.84, 13.36 4.52, 15.36 2.82 C17.36 1.11, 14.75 2.52, 14.76 2.42" stroke="#d9480f" stroke-width="1" fill="none"></path></g><g transform="translate(19 253.625) rotate(0 12.5 23)"><text x="12.5" y="32" font-family="Virgil, Segoe UI Emoji" font-size="36px" fill="#ffffff" text-anchor="middle" style="white-space: pre;" direction="ltr">A</text></g><g stroke-linecap="round" transform="translate(337.7725634701975 135.5) rotate(0 22.5 22.5)"><path d="M32.36 1.86 C36.84 3.41, 41.59 7.88, 43.53 12.32 C45.47 16.75, 45.3 23.66, 44 28.47 C42.69 33.27, 39.73 38.27, 35.72 41.16 C31.7 44.05, 24.77 46.36, 19.89 45.81 C15.01 45.26, 9.73 41.44, 6.43 37.83 C3.13 34.22, 0.36 28.7, 0.07 24.13 C-0.22 19.56, 1.83 14.31, 4.68 10.4 C7.54 6.48, 12.15 1.65, 17.21 0.64 C22.27 -0.37, 31.75 3.46, 35.03 4.33 C38.31 5.2, 37.18 5.81, 36.89 5.87 M31.65 1.9 C35.8 3.39, 40.38 8.22, 42.26 12.61 C44.13 16.99, 44.34 23.33, 42.91 28.19 C41.47 33.05, 37.22 39.08, 33.67 41.78 C30.11 44.48, 25.92 44.9, 21.57 44.41 C17.22 43.92, 11.3 42.18, 7.57 38.84 C3.84 35.51, -0.46 29.28, -0.83 24.41 C-1.19 19.53, 2.21 13.33, 5.4 9.61 C8.58 5.89, 13.72 3.45, 18.3 2.1 C22.88 0.75, 30.78 1.21, 32.88 1.52 C34.97 1.84, 30.89 3.66, 30.89 3.98" stroke="none" stroke-width="0" fill="#087f5b"></path><path d="M12.05 2.85 C16.11 0.59, 24.41 -0.13, 29.1 0.82 C33.8 1.78, 37.47 4.75, 40.22 8.58 C42.98 12.42, 46.08 18.71, 45.63 23.83 C45.18 28.94, 41.08 35.82, 37.54 39.26 C34 42.71, 29.18 44.09, 24.39 44.5 C19.61 44.91, 12.9 44.52, 8.84 41.74 C4.79 38.95, 1.23 32.43, 0.06 27.79 C-1.1 23.15, -1.34 18.6, 1.87 13.89 C5.08 9.18, 15.02 1.5, 19.34 -0.48 C23.65 -2.46, 27.7 1.56, 27.74 1.99 M16.72 -0.16 C20.68 -1.66, 25.95 0.92, 30.49 2.83 C35.03 4.74, 41.72 7.23, 43.96 11.31 C46.2 15.39, 45.16 22.45, 43.93 27.31 C42.7 32.17, 40.27 37.45, 36.58 40.47 C32.9 43.5, 26.7 45.9, 21.81 45.46 C16.92 45.02, 10.88 41.07, 7.26 37.85 C3.63 34.62, 0.49 30.53, 0.06 26.12 C-0.38 21.71, 1.96 15.5, 4.66 11.38 C7.36 7.27, 14.33 3.33, 16.28 1.43 C18.24 -0.47, 16.17 -0.28, 16.4 -0.02" stroke="#087f5b" stroke-width="1" fill="none"></path></g><g transform="translate(350.7725634701975 136) rotate(0 13.5 23)"><text x="13.5" y="32" font-family="Virgil, Segoe UI Emoji" font-size="36px" fill="#ffffff" text-anchor="middle" style="white-space: pre;" direction="ltr">B</text></g><g stroke-linecap="round" transform="translate(117.7725634701975 12.5) rotate(0 22.5 22.5)"><path d="M23.47 -0.43 C27.9 -0.59, 33.27 2.53, 36.82 5.8 C40.37 9.07, 44.1 14.35, 44.79 19.18 C45.48 24.02, 43.49 30.85, 40.97 34.81 C38.44 38.77, 34.05 41.59, 29.64 42.95 C25.24 44.31, 18.89 44.44, 14.56 42.98 C10.23 41.51, 5.9 38.28, 3.67 34.15 C1.44 30.02, 0.4 22.92, 1.17 18.18 C1.94 13.44, 4.33 8.78, 8.29 5.71 C12.25 2.63, 21.69 0.66, 24.93 -0.25 C28.17 -1.16, 27.56 -0.17, 27.76 0.24 M27.48 0 C31.89 0.88, 37.01 4.86, 39.68 9.03 C42.36 13.21, 43.48 20.22, 43.51 25.03 C43.55 29.85, 42.84 34.48, 39.88 37.91 C36.92 41.35, 30.96 45.07, 25.77 45.63 C20.58 46.2, 12.74 44.13, 8.75 41.31 C4.77 38.49, 2.78 33.19, 1.87 28.71 C0.96 24.24, 1.39 19.03, 3.32 14.47 C5.25 9.91, 9.5 3.44, 13.45 1.37 C17.39 -0.7, 24.29 2.22, 26.99 2.05 C29.68 1.87, 29.49 0.12, 29.61 0.33" stroke="none" stroke-width="0" fill="#1864ab"></path><path d="M27.7 0.5 C32.29 0.83, 36.36 3.79, 39.36 7.44 C42.36 11.08, 45.85 17.26, 45.71 22.39 C45.57 27.52, 41.83 34.55, 38.52 38.21 C35.21 41.87, 30.57 43.61, 25.82 44.33 C21.08 45.05, 14.27 45.05, 10.05 42.52 C5.83 39.99, 1.94 33.72, 0.48 29.17 C-0.97 24.62, -0.42 19.71, 1.31 15.21 C3.04 10.72, 6.1 4.36, 10.87 2.18 C15.64 0, 26.52 2.11, 29.94 2.15 C33.37 2.19, 31.68 2.11, 31.42 2.42 M25.25 1.27 C29.93 1.73, 37.73 3.31, 40.95 6.75 C44.16 10.18, 44.62 16.89, 44.56 21.88 C44.49 26.88, 43.44 32.84, 40.56 36.72 C37.68 40.59, 32.09 44.41, 27.27 45.14 C22.45 45.87, 15.97 43.39, 11.65 41.11 C7.33 38.83, 2.9 35.58, 1.33 31.44 C-0.25 27.3, 0.56 20.91, 2.21 16.27 C3.87 11.63, 7.23 6.49, 11.26 3.6 C15.3 0.72, 23.76 -0.56, 26.39 -1.05 C29.03 -1.54, 27.02 0.09, 27.1 0.66" stroke="#1864ab" stroke-width="1" fill="none"></path></g><g transform="translate(128.2725634701975 10) rotate(0 12 23)"><text x="12" y="32" font-family="Virgil, Segoe UI Emoji" font-size="36px" fill="#ffffff" text-anchor="middle" style="white-space: pre;" direction="ltr">C</text></g><g stroke-linecap="round" transform="translate(141.0225634701975 126.125) rotate(0 22.5 22.5)"><path d="M30.01 1.78 C34.4 3.1, 39.38 7.47, 41.68 11.53 C43.98 15.59, 44.38 21.58, 43.79 26.13 C43.2 30.67, 41.43 35.73, 38.15 38.8 C34.87 41.88, 29.07 44.4, 24.12 44.57 C19.18 44.75, 12.57 42.89, 8.48 39.84 C4.4 36.8, 0.74 30.85, -0.38 26.29 C-1.51 21.73, -0.73 16.59, 1.73 12.47 C4.2 8.34, 9.55 3.37, 14.41 1.55 C19.26 -0.27, 27.57 1.13, 30.85 1.57 C34.14 2, 34.19 3.82, 34.11 4.17 M19.67 -0.59 C24.41 -1.09, 31.49 1.75, 35.77 4.45 C40.05 7.15, 44.06 10.78, 45.33 15.6 C46.6 20.42, 45.68 28.96, 43.4 33.37 C41.12 37.77, 36.22 40.09, 31.65 42.01 C27.08 43.94, 20.41 45.93, 15.96 44.94 C11.52 43.96, 7.36 40.21, 4.97 36.11 C2.57 32.01, 1.2 25.13, 1.59 20.34 C1.97 15.56, 3.85 10.99, 7.27 7.4 C10.69 3.81, 19.9 -0.14, 22.09 -1.19 C24.28 -2.25, 20.69 0.29, 20.41 1.08" stroke="none" stroke-width="0" fill="#a61e4d"></path><path d="M17.09 1 C21.71 -0.37, 28.23 -0.05, 32.6 2.08 C36.97 4.2, 41.44 9.43, 43.32 13.77 C45.2 18.1, 45.17 23.63, 43.87 28.09 C42.57 32.56, 39.51 37.89, 35.5 40.57 C31.5 43.24, 24.7 44.46, 19.84 44.14 C14.97 43.82, 9.55 41.95, 6.29 38.65 C3.03 35.34, 0.75 29.25, 0.27 24.29 C-0.21 19.34, -0.3 12.84, 3.41 8.92 C7.11 5, 18.2 1.97, 22.51 0.77 C26.81 -0.43, 29.19 1.46, 29.22 1.7 M12.22 1.59 C16.06 -0.59, 23.52 0.42, 28.18 1.44 C32.84 2.47, 37.19 4.26, 40.19 7.73 C43.2 11.2, 46.46 17.38, 46.21 22.25 C45.96 27.13, 42.29 33.14, 38.67 37 C35.05 40.86, 29.32 44.66, 24.48 45.41 C19.65 46.17, 13.69 44.16, 9.65 41.55 C5.62 38.93, 1.35 34.34, 0.26 29.72 C-0.84 25.11, 1.04 18.33, 3.08 13.86 C5.11 9.38, 11.09 4.71, 12.49 2.86 C13.89 1.01, 11.25 2.27, 11.48 2.78" stroke="#a61e4d" stroke-width="1" fill="none"></path></g><g transform="translate(155.0225634701975 126.625) rotate(0 12.5 23)"><text x="12.5" y="32" font-family="Virgil, Segoe UI Emoji" font-size="36px" fill="#ffffff" text-anchor="middle" style="white-space: pre;" direction="ltr">P</text></g></svg>