<svg version="1.1" xmlns="http://www.w3.org/2000/svg" viewBox="0 0 392.7725634701975 311.125" width="392.7725634701975" height="311.125">
  <!-- svg-source:excalidraw -->
  
  <defs>
    <style>
      @font-face {
        font-family: "Virgil";
        src: url("https://excalidraw.com/Virgil.woff2");
      }
      @font-face {
        font-family: "Cascadia";
        src: url("https://excalidraw.com/Cascadia.woff2");
      }
    </style>
  </defs>
  <g stroke-linecap="round"><g transform="translate(143.5225634701976 35.875) rotate(0 -46.227011565657506 122.16495410352945)" fill-rule="evenodd"><path d="M0 0 C0 0, 0 0, 0 0 M0 0 C0 0, 0 0, 0 0 M-8.59 13.08 C-5.65 10.9, -1.97 10.22, 0.59 3.34 M-7.48 12.77 C-2.93 9.72, -1.65 6.29, 0.66 4.99 M-17.61 31.41 C-8.25 20.41, -1.05 13.79, -0.34 8.86 M-12.2 29.13 C-9.83 21.44, -3.2 17.63, 1.68 9.01 M-19.11 39.36 C-15.71 32.88, -8.6 29.85, -0.27 16.05 M-22.34 42.62 C-14.19 36.46, -5.67 26.33, 4 14.48 M-30.52 60.1 C-20.56 42.54, -9.83 39.93, 6.63 22.64 M-26.38 56.14 C-14.48 44.17, -4.3 29.98, 5.06 18.98 M-38.45 67.31 C-25.01 61.34, -18.84 46.59, 2.59 22.63 M-34.22 71.89 C-22.61 59.15, -15.78 46.75, 6.38 24.61 M-40.82 81.08 C-27.18 65.84, -11.78 53.31, 6.41 32.63 M-41.28 85.88 C-24.77 64.37, -8.32 43.98, 7.07 28.19 M-51.59 100.93 C-32.57 79.7, -15.7 59.54, 5.98 31.48 M-48.04 99.67 C-34.81 85.62, -22.35 70.67, 5.57 35.64 M-53.69 114.28 C-38.84 96.03, -30.04 86.7, 10.76 35.64 M-55.68 111.57 C-34.1 87.4, -13.23 58.23, 9.41 40.14 M-62.46 128.51 C-42.93 100.74, -18.64 78.86, 8.28 46.78 M-64.26 127.46 C-38.37 100.47, -20.48 78.39, 8.96 44.41 M-70.46 139.39 C-50.2 118.32, -36.17 99.14, 8.67 47.22 M-68.36 139.99 C-49.03 116.4, -26.84 91.05, 11.18 46.95 M-75.71 151.37 C-52.04 127.83, -19.87 94.2, 9.12 51.47 M-75.95 155.63 C-46.22 120.96, -17.47 87.37, 13.35 52.33 M-85.79 165.84 C-57.34 137.64, -23.25 106.09, 14.41 61.69 M-83.35 169.61 C-58.48 139.49, -29.16 108.91, 12.85 57.38 M-86.74 181.58 C-52.42 139.37, -8.5 93.4, 17.38 63.23 M-90.8 185.2 C-61.13 149.9, -34.27 116.96, 12.89 65.48 M-98.5 194.81 C-59.26 158.25, -26.97 116.37, 12.13 67.35 M-96.69 196.48 C-58.94 153, -17.49 109.59, 16.92 68.05 M-103.75 207.67 C-70.09 179.84, -42.48 139.09, 19.84 69.74 M-105.15 211.54 C-71.24 175.8, -35.08 134.81, 15.75 73.8 M-108.77 225.24 C-59.72 175.33, -14.02 116.14, 17.27 73.51 M-113.66 224.28 C-78.03 179.94, -38.83 139.55, 17.28 78.47 M-120.09 239.99 C-71.89 182.43, -21.61 127.84, 18.57 80 M-116.83 241.46 C-80.29 190.16, -40.71 146.31, 17.66 82.12 M-119.34 245.04 C-73.77 201.91, -36.78 158.25, 16.84 89.68 M-114.56 243.74 C-67.22 183.91, -16.89 123.92, 19.23 86.59 M-94.67 219.26 C-49.59 175.62, -9.68 127.26, 18.87 94.26 M-91.39 222.86 C-52.46 173.22, -15.47 127.13, 21.19 93.56 M-70.41 202.2 C-34.93 165.52, -7.6 135.48, 21.07 98.08 M-70.67 202.84 C-44.67 173.71, -18.94 144.94, 20.61 95.42 M-43.68 181.72 C-26.63 165.39, -10.87 143.69, 26.59 102.14 M-46.06 179.82 C-23.16 158.49, -3.82 134.02, 22.35 100.77 M-23.11 160.67 C-7.83 149.17, -0.91 132.46, 27.48 105.85 M-21.62 160.42 C-10.49 145.52, 3.21 127.95, 24.89 105.09 M-0.79 136.55 C6.8 132.88, 17.55 118.2, 24.88 110.76 M2.22 140.06 C5.74 133.85, 10.66 126.29, 26.05 112.9" stroke="#1864ab" stroke-width="0.5" fill="none"></path><path d="M-3.17 2.56 C4.26 24.28, 11.27 53.33, 22.5 111.23 M28.74 111.7 C-24.06 157.57, -76.03 209.51, -117.23 244.33 M-121.2 242.5 C-78.97 155.76, -38.16 69.27, 1.1 2.83 M0 0 C0 0, 0 0, 0 0" stroke="#1864ab" stroke-width="1.5" fill="none" stroke-dasharray="8 9"></path></g></g><g stroke-linecap="round"><g transform="translate(170.5225634701976 149.875) rotate(0 85.23034318061343 -52.48236225465098)" fill-rule="evenodd"><path d="M-25.26 -114.71 C-25.26 -114.71, -25.26 -114.71, -25.26 -114.71 M-25.26 -114.71 C-25.26 -114.71, -25.26 -114.71, -25.26 -114.71 M-24.26 -109.39 C-22.78 -110.36, -23.32 -111.79, -21.08 -113.16 M-24.1 -110.07 C-23.95 -110.79, -23.3 -111.07, -21.67 -113.15 M-24.02 -104.6 C-21.4 -107.31, -20.99 -106.52, -17.41 -111.31 M-23.06 -104.93 C-21.18 -105.86, -20.24 -107.84, -17.18 -111.03 M-22.77 -98.32 C-21.62 -104.52, -18.45 -106.93, -12.7 -108.97 M-22.86 -100.57 C-19.6 -101.24, -17.46 -103.26, -14.62 -109.03 M-19.64 -92.49 C-17.15 -97.32, -15.26 -102.8, -9.03 -108.14 M-20.49 -93.71 C-18.69 -98.62, -14.07 -100.94, -9.22 -108.24 M-20.05 -87.04 C-19.97 -93.34, -13.67 -96.21, -10.55 -105.58 M-20.48 -91.58 C-16.66 -94.03, -13.84 -98.05, -8.2 -104.8 M-17.81 -86.58 C-17.07 -87.87, -8.15 -101.05, -5.3 -103.26 M-19.34 -86.67 C-14.09 -89.8, -12.48 -95.26, -5.83 -101.03 M-19.2 -80.14 C-9.96 -87.21, -13.19 -92.97, 3.33 -101.97 M-19.12 -80.94 C-12.25 -84.67, -6.05 -90.72, 1.05 -101.91 M-17.04 -77.88 C-12.98 -81.12, -7.85 -87.73, 0.26 -99.15 M-17.9 -75.66 C-12.07 -80.56, -9.19 -87.44, 3.52 -99.1 M-13.44 -71.84 C-7.21 -85.35, -1.43 -94.25, 10.73 -99.64 M-13.93 -69.92 C-8.8 -78.65, -6.68 -80.64, 6.76 -96.69 M-12.37 -67.71 C-6.51 -77.83, 4.95 -92.37, 7.01 -94.4 M-15.43 -67.48 C-6.33 -77.46, 2.45 -85.26, 11.59 -92.66 M-10.79 -61.36 C-6.49 -69.32, 2.48 -77.41, 10.51 -91.12 M-12.99 -60.04 C-6.65 -66.13, -1.41 -74.37, 15.32 -92.19 M-10.47 -59.07 C-3.03 -64.55, 7.64 -81.2, 19.33 -89.13 M-12.68 -58.17 C-5.91 -66.34, 5.08 -74.04, 18.08 -89.32 M-14.52 -49.06 C-3.11 -67.99, 9.75 -77.73, 22.42 -85.93 M-9.77 -53.65 C-2.05 -59.34, 6.23 -69.68, 19.71 -88.31 M-7.88 -44.95 C3.23 -58.4, 18.84 -75.19, 25.72 -87.21 M-10.48 -45.63 C-0.31 -61, 12 -72.37, 24.67 -84.29 M-9.82 -41.31 C-2.73 -49.9, 10.95 -63.9, 26.33 -81.31 M-9.76 -42.97 C-0.09 -51.85, 8.35 -62.2, 26.94 -84.59 M-6.44 -41.11 C1.97 -49.57, 9.24 -58.17, 28.04 -86.26 M-9.01 -38.4 C7.57 -55.04, 20.72 -71.37, 32.3 -82.42 M-3.15 -35.24 C4.24 -47.22, 14.57 -58.9, 31.48 -84.25 M-5.84 -30.84 C5.49 -48.92, 19.52 -62.9, 35.26 -82.19 M-5.2 -30.03 C9.56 -42.76, 21.77 -53.22, 36.95 -80.41 M-3.83 -27.63 C9.26 -44.98, 24.18 -64.97, 40.58 -76.93 M-6.18 -18.71 C6.21 -36.61, 20.04 -47.33, 39.26 -73.5 M-6.26 -22.75 C12.02 -42.51, 27.61 -58.71, 40.93 -77.88 M-0.48 -16.96 C7.9 -33.16, 19.73 -49.66, 41.85 -70.51 M-1.87 -19.11 C12.61 -37.29, 29.57 -56.47, 45.72 -75.67 M-3.86 -10.36 C19.05 -38.22, 33.48 -55.43, 48.39 -69.56 M-2.63 -14.78 C14.01 -29.93, 32.37 -53.15, 47.44 -74.09 M-1.86 -5.9 C13.62 -24.87, 25.79 -39.59, 52.87 -74.46 M-1.46 -9.24 C15.54 -26.37, 33.75 -44.09, 54.53 -71.35 M-2.38 -3.53 C12.4 -20.12, 23.4 -36.04, 58.42 -65.42 M-1.97 -1.65 C19.23 -23.97, 37.93 -44.68, 56.96 -69.58 M0.51 -0.35 C26.65 -26.26, 42.76 -50.22, 56.24 -65.85 M0.4 2.18 C18.89 -15.52, 35.03 -33.84, 59.83 -64.32 M7.4 4.34 C20.85 -16.12, 35.5 -27.83, 63.62 -60.83 M5.96 2 C20.36 -18.17, 37.12 -35.12, 64.26 -65.77 M9.13 -1.36 C29.02 -25.95, 54.42 -42.81, 67.58 -60.08 M13.18 1.95 C31.68 -22.71, 51.48 -46.47, 65.68 -60.56 M15.5 -0.08 C30.78 -21.6, 55.72 -39.36, 70.98 -56.53 M18.09 1.72 C34.03 -17.06, 52.5 -37.77, 70.73 -60.95 M23.46 -0.86 C40.87 -13.86, 54.96 -36.54, 71.31 -61.01 M21.25 2.09 C40.33 -20.57, 62.66 -43.16, 74.81 -58.4 M28.67 5.34 C45.12 -16.31, 60.51 -35.99, 79.62 -57.02 M26.02 2.68 C37.44 -8.6, 45.46 -23.08, 75.74 -57.01 M29.59 1.39 C47.86 -18.91, 66.67 -39.94, 78.58 -55.25 M33.44 2.93 C51.54 -19.9, 65.94 -38.77, 82.57 -54.82 M36.4 -0.51 C53.36 -17.07, 68.34 -39.19, 86.05 -52.55 M37.9 2.91 C46.2 -9.01, 55.64 -19.04, 85.92 -53.51 M38.4 1.15 C54.75 -10.24, 65.42 -21.6, 89.24 -46.44 M41.27 4.46 C61.23 -17.26, 80 -38.65, 86.88 -51.67 M44.92 4.74 C58.24 -9.52, 75.94 -25.32, 95.53 -45.86 M48.55 4.07 C60.76 -16.12, 76.43 -33.27, 90.55 -50.33 M49.46 1.18 C59.76 -7.65, 72.69 -15.94, 95.31 -41.93 M50.81 5.76 C64.2 -12.31, 76.87 -27.1, 95.69 -46.41 M57.2 2.48 C74.38 -16.81, 87.47 -30.82, 100.11 -46.45 M55.39 2.93 C65.73 -10.43, 78.96 -23.44, 99.54 -42.02 M64.47 6.23 C70.96 -7.58, 79.6 -16.62, 102.15 -42.87 M60.15 4.05 C73.24 -8.14, 85.32 -25.96, 104.19 -42.15 M70.3 8.09 C81.23 -9.02, 95.48 -26.88, 104.51 -40.82 M67.78 6.41 C82.06 -9.1, 93.53 -27.4, 105.39 -39.98 M71.86 6.3 C86.54 -10.7, 99.62 -21.75, 107.26 -38.1 M71.97 5.91 C87.25 -9.83, 99.85 -24.31, 109.56 -37.59 M76.02 6.19 C86.27 -5.72, 98.87 -15.32, 113.62 -35.2 M75.73 6.78 C91.15 -9.78, 102.84 -23.81, 114.61 -35.24 M79.47 7.89 C90.18 -8.84, 102.77 -21.73, 113.51 -34.26 M82.24 6.56 C91.57 -2.54, 98.49 -11.86, 116.26 -33.1 M85.59 5.9 C100.69 -8.61, 108.58 -12.42, 121.67 -29.6 M86.51 4.93 C94.4 -3.19, 102.85 -10.44, 120.94 -32.48 M95.92 5.02 C97.32 -3.08, 108.26 -12.24, 124.54 -26.46 M93.58 4.86 C99.87 -3.54, 104.71 -10.19, 123.37 -29.38 M95 3.88 C104.16 1.55, 114.84 -6.36, 123.05 -27.76 M98.08 5.42 C105.11 -2.84, 112.69 -9.39, 128.14 -27.95 M102.55 6.68 C110.81 -0.07, 113.51 -9.19, 130.77 -24.58 M103.22 6.76 C114.6 -4.77, 123.42 -19.08, 130.61 -25.78 M104.96 3.73 C117.42 -2.69, 123.27 -8.5, 133.49 -27.19 M106.97 7.88 C114.07 0.29, 122.71 -7.28, 135.21 -23.59 M114.79 7.88 C117.73 -3.57, 126.82 -11.41, 135.32 -23.5 M112.35 8.35 C116.42 0.88, 122.36 -4.97, 136.3 -22.53 M118.28 11.09 C122.95 -3.59, 129.64 -11.64, 145.53 -21.87 M117.67 6.1 C126.87 -3.31, 134.4 -10.81, 139.8 -21.67 M118.83 4.87 C126.75 0.3, 138.34 -8.43, 141.43 -13.81 M122.77 7.11 C130.34 -0.17, 136.47 -7.04, 144.76 -15.47 M124.52 8.83 C132.28 -2.22, 141.28 -10.92, 146.44 -12.54 M127.31 7.22 C131.82 4.98, 135.94 -1.28, 148.21 -15.09 M136.25 10.4 C140.66 0.36, 141.59 0.99, 149.71 -11.92 M133.6 9.11 C137.4 5.29, 139.36 0.03, 151.54 -14.07 M140.64 12.34 C139.39 4.67, 148.89 3.02, 152.22 -8.97 M138.3 7.04 C142.68 -0.49, 152.43 -6.13, 157.31 -13.65 M141.44 8.74 C145.88 0.46, 155.5 -3.38, 161.59 -6.67 M142.57 8.09 C146.76 1.96, 152.47 -5.61, 158.87 -8.19 M144.4 8.5 C154.32 3.02, 158.8 -3.72, 162.98 -8.64 M147.71 8.96 C152.47 7.33, 153.09 1.97, 161.97 -6.74 M153.47 7.13 C156.49 6.36, 162.26 3, 165.2 -1.69 M154.04 8.89 C157.11 3, 163.72 0, 165.59 -6.27 M158.21 7.47 C158.91 6.92, 163.49 -0.34, 168.37 -2.88 M159.06 11.35 C161.06 6.29, 168.56 -0.44, 168.45 -5.22 M161.79 7.53 C167.27 8.78, 166.2 4.22, 170.19 -1.63 M164.02 10.44 C167.14 7.21, 168.75 2.32, 173.18 -1.69 M167.07 11.81 C168.01 8.05, 172.1 3.71, 175.07 -2.19 M168.21 11.14 C168.78 9.57, 173.33 5.81, 177.1 -0.69 M173.22 10.67 C172.87 10.16, 177.9 7.15, 181.78 1.92 M173.65 10.02 C176.23 8.37, 178.5 4.65, 180.55 3.79 M179.33 12.1 C177.91 10.87, 179.49 8.94, 182.95 4.22 M178.56 10.99 C179.87 9.11, 181.34 6.82, 182.86 4.49 M183.87 11.53 C183.93 9.34, 184.92 9.69, 187.86 5.96 M183.1 10.72 C184.76 9.72, 185.37 9.13, 187.49 6.37 M189.21 12.06 C189.6 10.92, 189.81 8.64, 190.71 7.98 M188.76 11.43 C189.74 10.61, 190.03 9.41, 190.92 8.26 M193.32 11.8 C193.42 11.66, 193.61 11.34, 194.02 11.01 M193.39 11.85 C193.72 11.5, 193.86 11.25, 194.07 11.08" stroke="#087f5b" stroke-width="0.5" fill="none"></path><path d="M1.29 -0.06 C47.86 3.4, 84.56 0.25, 198.36 8.08 M195.82 12.2 C134.69 -24.77, 75.46 -57.67, -27.9 -114.19 M-23.64 -117.17 C-14.98 -79.25, -3.6 -35.06, -2.7 -1.57 M0 0 C0 0, 0 0, 0 0" stroke="#087f5b" stroke-width="1.5" fill="none" stroke-dasharray="8 9"></path></g></g><g stroke-linecap="round"><g transform="translate(176.5225634701976 152.875) rotate(0 24.196038570865596 62.077149370294364)" fill-rule="evenodd"><path d="M-144.28 126.33 C-144.28 126.33, -144.28 126.33, -144.28 126.33 M-144.28 126.33 C-144.28 126.33, -144.28 126.33, -144.28 126.33 M-134.57 123.09 C-131.21 113.33, -126.96 111.48, -120.4 104.15 M-134.96 121.64 C-132.48 120.96, -130.99 116.4, -121.53 107.84 M-131.88 120.88 C-120.88 110.71, -110.38 102.44, -97.71 88.5 M-128.17 121.22 C-120.32 112.19, -111.82 101.54, -98.88 88.34 M-122.01 117.18 C-107.75 101.56, -94.53 84.43, -75.08 69.61 M-122.22 116.56 C-110.43 108.28, -102.03 99.05, -76.83 68.06 M-109.92 117.66 C-88.01 87.4, -70.81 63.71, -55.8 48.73 M-111.21 113.11 C-100.02 98.44, -85.02 84.3, -55.47 49.8 M-107.05 113.7 C-77.43 77.31, -53.37 42.52, -33.07 28.25 M-106.18 113.63 C-89.18 94.51, -74.56 77.28, -32.06 29.9 M-94.07 109.06 C-62.15 70.88, -27.24 28.69, -9.54 7.25 M-96.67 107.64 C-79.05 86.97, -60.98 69.82, -11.27 8.5 M-91.04 102.46 C-61.81 70.47, -30.43 37.61, -1.93 3.55 M-91.6 104.73 C-55.94 67.59, -21.56 28.09, 3.38 2.35 M-85 102.52 C-60.93 78.62, -42.28 61, 7.09 2.56 M-81.58 104.25 C-51.96 70.61, -20.89 32.7, 6.94 0.41 M-76.04 102.29 C-39.15 62.89, -4.2 23.99, 14.14 4.57 M-75.81 100.61 C-54.26 76.48, -34.39 51.74, 11.55 1.85 M-63.53 97.22 C-46.38 71.72, -17.93 45.04, 14.61 -0.16 M-66.98 96 C-41.72 67.1, -14.61 38.77, 19.04 1.99 M-60.23 91.73 C-36.07 66.5, -14.94 43.87, 18.89 -1.44 M-60.17 93.65 C-41.2 74.27, -21.65 51.58, 22.59 0.91 M-51.84 90.1 C-32.13 68.53, -9.79 43.05, 30.33 5.34 M-51.15 91.58 C-24.06 61.58, 0.55 31.96, 25.79 0.72 M-43.16 87.09 C-19.45 64.22, -2.12 38.01, 35 5.21 M-43.27 87.85 C-16.52 58.49, 13.26 25.65, 33.73 2.34 M-36.89 86.59 C-11.97 54.63, 16.43 32.67, 35.57 2.12 M-37.03 86.06 C-10.7 57.38, 13.4 29.34, 36.11 2.71 M-28.52 80.44 C-7.41 63.48, 12.88 33.39, 43.79 1.95 M-27.7 84.83 C-2.57 56.63, 20.09 30.34, 40.93 4.58 M-20.41 78.87 C4.22 58.28, 20.73 32.39, 50.94 2.23 M-18.18 79.11 C-2.6 60.26, 15.06 42.34, 50.3 0.96 M-13.37 77.58 C3.53 60.36, 15.73 42.75, 54.45 5.96 M-13.31 77.86 C12.24 50.22, 36.57 18.61, 52.17 3.69 M-4.82 72.13 C10.09 60.32, 19.96 44.76, 58.27 4.5 M-4.77 77.32 C11.83 58.89, 25.97 42, 58.05 1.11 M0.44 68.81 C15.78 60.86, 32.1 45.1, 67.45 -0.58 M3.39 74.55 C16.46 56.01, 35.59 34.65, 62.8 2.62 M11.32 71.3 C25.94 49.15, 43.58 29.6, 66.64 0.22 M13.06 68.86 C24.76 49.63, 41.84 34.39, 68.38 3.15 M20.34 63.21 C39.66 46.81, 53.02 31.46, 76.53 7.29 M19.28 67.15 C36.87 44.42, 57.01 21.52, 73.58 4.93 M28.07 63.06 C46.14 41.94, 58.51 23.25, 75.73 2.46 M27.88 65.56 C46.39 42.66, 62.21 21.29, 77.09 2.72 M37.01 58.82 C43.32 51.32, 58.8 31.13, 86.61 6.97 M34.64 62.8 C52.36 37.87, 74.02 18.24, 84.6 4.56 M40.73 58.61 C61.21 40.68, 76.45 19.72, 89.12 0.01 M43.64 57.61 C60.6 37.37, 80.17 15.07, 87.94 5.05 M53.02 53.46 C64.82 37.47, 78.46 19.36, 93.27 5.66 M49.74 54.25 C59.92 42.46, 70.09 30.73, 94.71 3.07 M53.81 55.86 C69.31 41.98, 76.12 26.77, 101.64 2.69 M57.65 51.8 C67.15 39.82, 80.16 26.74, 100.12 2.28 M61.56 50.68 C78.93 39.64, 90.27 27.49, 103.94 2.3 M63.63 49.87 C79.02 35.05, 89.67 20.55, 106.74 3.65 M71.15 49.75 C88.12 34.2, 102.35 16.69, 109.4 7.07 M74.62 45.85 C80.62 36.36, 88.83 29.37, 110.2 3.17 M83.04 46.55 C95.18 28.58, 104.7 13.38, 117.35 0.8 M78.66 44.42 C92.6 32.64, 103.65 20.06, 114.94 4.37 M92.43 42.98 C95.37 31.08, 104.88 24.21, 119.72 2.2 M87.28 43.05 C99.74 29.66, 106.21 21.87, 122.07 2.83 M99.12 39.86 C103.83 27.37, 108.62 19.78, 125.47 7.87 M94.6 37.26 C107.07 28.91, 117.54 16.21, 126.94 3.92 M99.97 35.96 C110.86 27.42, 122.84 11.86, 130.53 6.88 M103.08 34.35 C112.06 24.79, 123.13 11.31, 130.39 4.03 M114.74 34.44 C119.96 27.55, 121.04 21.89, 139.5 6.68 M110.58 34.66 C118.37 22.66, 129.27 10.98, 137.71 3.35 M119.3 29.65 C123.17 23.4, 127.86 21.33, 143.65 7.68 M120.83 29.07 C125.06 20.2, 135.37 13.54, 141.82 3.13 M130.72 25.84 C135.93 21.32, 141 12.01, 145.25 2.17 M125.78 28.49 C133.7 20.31, 139.99 10.01, 144.95 3.38 M137.21 27.71 C143.09 17.04, 150.78 10.75, 152.18 4.15 M136.74 25.14 C139.2 20.29, 142.73 14.3, 150.41 3.39 M146.5 23.36 C148.95 11.81, 157.74 7.81, 156.41 7.01 M142.08 22.26 C146.55 15.08, 151.96 10.47, 158.39 6.29 M148.01 22.47 C153.26 14.64, 157.41 10.47, 158.82 6.51 M150.36 19.37 C153.41 13.84, 158.01 12.32, 163.45 4.79 M157.77 13.39 C162.78 12.64, 164.75 8.13, 168.48 7.09 M157.77 16.65 C161.52 14.95, 161.85 11.06, 166.66 6.04 M165.49 14.32 C167.31 11.68, 171.62 9.16, 174.35 3.74 M165.7 13.71 C167.13 11.17, 169.01 8.79, 172.41 5.46 M173.58 9.4 C174.39 10.29, 176.21 8.43, 177.16 6.08 M173.3 10.29 C174.22 9.34, 174.99 7.99, 177.65 6.05 M181.68 8.26 C181.77 7.14, 181.87 7.3, 182.86 6.37 M181.16 7.86 C181.8 7.13, 182.19 6.8, 182.51 6.43" stroke="#d9480f" stroke-width="0.5" fill="none"></path><path d="M-1.5 -3.42 C66.51 3.06, 133.46 -2.9, 189.46 8.35 M190.64 5.08 C69.09 53.27, -50.18 97.38, -142.22 127.58 M-142.25 125.41 C-107.67 88.19, -71.22 59.02, -3.73 0.85 M0 0 C0 0, 0 0, 0 0" stroke="#d9480f" stroke-width="1.5" fill="none" stroke-dasharray="8 9"></path></g></g><g stroke-linecap="round"><g transform="translate(36.2725634701975 269.75) rotate(0 164.19222904725743 -115.77215737991884)"><path d="M-2.75 -1.1 C43.59 -93.18, 78.05 -189.46, 102.25 -241.84 M-1.08 -1.54 C35.47 -89.86, 70.4 -176.33, 100.8 -239.65 M99.11 -239.68 C155.19 -211.18, 200.48 -180.06, 331.13 -115.34 M101.54 -238.38 C161.18 -208.03, 225.82 -170.88, 326.74 -113.47 M329.24 -112.12 C240.8 -82.5, 151.77 -46.43, 0.57 10.3 M326.82 -112.21 C226.58 -74.29, 124.66 -36.57, -1.51 8.02" stroke="#f2aa74" stroke-width="4" fill="none"></path></g></g><g stroke-linecap="round" transform="translate(10 256.125) rotate(0 22.5 22.5)"><path d="M29.39 1.23 C33.93 2.28, 39.68 6.69, 42.36 10.74 C45.04 14.79, 46.38 20.69, 45.48 25.54 C44.59 30.4, 40.73 36.55, 36.99 39.85 C33.24 43.16, 27.95 45.2, 23.03 45.37 C18.11 45.55, 11.29 44.1, 7.46 40.89 C3.64 37.67, 0.86 31.04, 0.07 26.07 C-0.71 21.09, 0.24 15.03, 2.76 11.04 C5.27 7.04, 9.97 3.52, 15.16 2.09 C20.36 0.67, 30.46 1.89, 33.93 2.48 C37.41 3.06, 36.44 5.31, 36.03 5.6 M17.51 1.28 C22.04 -0.25, 28.14 0.23, 32.31 2.23 C36.48 4.24, 40.82 8.84, 42.55 13.29 C44.28 17.73, 44.27 24.09, 42.69 28.9 C41.1 33.72, 36.69 39.61, 33.04 42.19 C29.4 44.76, 25.17 44.97, 20.84 44.32 C16.51 43.68, 10.68 41.74, 7.06 38.3 C3.44 34.86, -0.66 28.55, -0.87 23.67 C-1.07 18.78, 2.53 12.64, 5.84 9.01 C9.16 5.39, 16.93 3.41, 19.02 1.94 C21.11 0.46, 18.73 -0.17, 18.39 0.18" stroke="none" stroke-width="0" fill="#d9480f"></path><path d="M33.07 2.72 C37 4.76, 40.24 9.81, 42.22 14.18 C44.19 18.54, 46.25 24.55, 44.93 28.89 C43.61 33.24, 38.34 37.7, 34.31 40.26 C30.27 42.83, 25.57 44.51, 20.74 44.29 C15.91 44.07, 8.79 42.4, 5.32 38.94 C1.85 35.48, 0.21 28.37, -0.08 23.54 C-0.37 18.71, 0.81 13.86, 3.57 9.95 C6.33 6.03, 11.43 1.04, 16.46 0.05 C21.48 -0.95, 30.75 3.35, 33.73 3.97 C36.7 4.59, 34.41 3.44, 34.3 3.79 M15.54 1.99 C19.87 0.05, 26.21 -1.49, 30.42 0.15 C34.62 1.8, 38.18 7.76, 40.78 11.88 C43.38 15.99, 46.69 20.34, 46.03 24.86 C45.36 29.38, 40.54 35.69, 36.81 39.02 C33.07 42.36, 28.23 44.62, 23.6 44.87 C18.98 45.11, 12.86 43.66, 9.04 40.48 C5.22 37.31, 1.73 30.46, 0.68 25.83 C-0.37 21.19, 0.3 16.51, 2.75 12.68 C5.19 8.84, 13.36 4.52, 15.36 2.82 C17.36 1.11, 14.75 2.52, 14.76 2.42" stroke="#d9480f" stroke-width="1" fill="none"></path></g><g transform="translate(19 253.625) rotate(0 12.5 23)"><text x="12.5" y="32" font-family="Virgil, Segoe UI Emoji" font-size="36px" fill="#ffffff" text-anchor="middle" style="white-space: pre;" direction="ltr">A</text></g><g stroke-linecap="round" transform="translate(337.7725634701975 135.5) rotate(0 22.5 22.5)"><path d="M32.36 1.86 C36.84 3.41, 41.59 7.88, 43.53 12.32 C45.47 16.75, 45.3 23.66, 44 28.47 C42.69 33.27, 39.73 38.27, 35.72 41.16 C31.7 44.05, 24.77 46.36, 19.89 45.81 C15.01 45.26, 9.73 41.44, 6.43 37.83 C3.13 34.22, 0.36 28.7, 0.07 24.13 C-0.22 19.56, 1.83 14.31, 4.68 10.4 C7.54 6.48, 12.15 1.65, 17.21 0.64 C22.27 -0.37, 31.75 3.46, 35.03 4.33 C38.31 5.2, 37.18 5.81, 36.89 5.87 M31.65 1.9 C35.8 3.39, 40.38 8.22, 42.26 12.61 C44.13 16.99, 44.34 23.33, 42.91 28.19 C41.47 33.05, 37.22 39.08, 33.67 41.78 C30.11 44.48, 25.92 44.9, 21.57 44.41 C17.22 43.92, 11.3 42.18, 7.57 38.84 C3.84 35.51, -0.46 29.28, -0.83 24.41 C-1.19 19.53, 2.21 13.33, 5.4 9.61 C8.58 5.89, 13.72 3.45, 18.3 2.1 C22.88 0.75, 30.78 1.21, 32.88 1.52 C34.97 1.84, 30.89 3.66, 30.89 3.98" stroke="none" stroke-width="0" fill="#087f5b"></path><path d="M12.05 2.85 C16.11 0.59, 24.41 -0.13, 29.1 0.82 C33.8 1.78, 37.47 4.75, 40.22 8.58 C42.98 12.42, 46.08 18.71, 45.63 23.83 C45.18 28.94, 41.08 35.82, 37.54 39.26 C34 42.71, 29.18 44.09, 24.39 44.5 C19.61 44.91, 12.9 44.52, 8.84 41.74 C4.79 38.95, 1.23 32.43, 0.06 27.79 C-1.1 23.15, -1.34 18.6, 1.87 13.89 C5.08 9.18, 15.02 1.5, 19.34 -0.48 C23.65 -2.46, 27.7 1.56, 27.74 1.99 M16.72 -0.16 C20.68 -1.66, 25.95 0.92, 30.49 2.83 C35.03 4.74, 41.72 7.23, 43.96 11.31 C46.2 15.39, 45.16 22.45, 43.93 27.31 C42.7 32.17, 40.27 37.45, 36.58 40.47 C32.9 43.5, 26.7 45.9, 21.81 45.46 C16.92 45.02, 10.88 41.07, 7.26 37.85 C3.63 34.62, 0.49 30.53, 0.06 26.12 C-0.38 21.71, 1.96 15.5, 4.66 11.38 C7.36 7.27, 14.33 3.33, 16.28 1.43 C18.24 -0.47, 16.17 -0.28, 16.4 -0.02" stroke="#087f5b" stroke-width="1" fill="none"></path></g><g transform="translate(350.7725634701975 136) rotate(0 13.5 23)"><text x="13.5" y="32" font-family="Virgil, Segoe UI Emoji" font-size="36px" fill="#ffffff" text-anchor="middle" style="white-space: pre;" direction="ltr">B</text></g><g stroke-linecap="round" transform="translate(117.7725634701975 12.5) rotate(0 22.5 22.5)"><path d="M23.47 -0.43 C27.9 -0.59, 33.27 2.53, 36.82 5.8 C40.37 9.07, 44.1 14.35, 44.79 19.18 C45.48 24.02, 43.49 30.85, 40.97 34.81 C38.44 38.77, 34.05 41.59, 29.64 42.95 C25.24 44.31, 18.89 44.44, 14.56 42.98 C10.23 41.51, 5.9 38.28, 3.67 34.15 C1.44 30.02, 0.4 22.92, 1.17 18.18 C1.94 13.44, 4.33 8.78, 8.29 5.71 C12.25 2.63, 21.69 0.66, 24.93 -0.25 C28.17 -1.16, 27.56 -0.17, 27.76 0.24 M27.48 0 C31.89 0.88, 37.01 4.86, 39.68 9.03 C42.36 13.21, 43.48 20.22, 43.51 25.03 C43.55 29.85, 42.84 34.48, 39.88 37.91 C36.92 41.35, 30.96 45.07, 25.77 45.63 C20.58 46.2, 12.74 44.13, 8.75 41.31 C4.77 38.49, 2.78 33.19, 1.87 28.71 C0.96 24.24, 1.39 19.03, 3.32 14.47 C5.25 9.91, 9.5 3.44, 13.45 1.37 C17.39 -0.7, 24.29 2.22, 26.99 2.05 C29.68 1.87, 29.49 0.12, 29.61 0.33" stroke="none" stroke-width="0" fill="#1864ab"></path><path d="M27.7 0.5 C32.29 0.83, 36.36 3.79, 39.36 7.44 C42.36 11.08, 45.85 17.26, 45.71 22.39 C45.57 27.52, 41.83 34.55, 38.52 38.21 C35.21 41.87, 30.57 43.61, 25.82 44.33 C21.08 45.05, 14.27 45.05, 10.05 42.52 C5.83 39.99, 1.94 33.72, 0.48 29.17 C-0.97 24.62, -0.42 19.71, 1.31 15.21 C3.04 10.72, 6.1 4.36, 10.87 2.18 C15.64 0, 26.52 2.11, 29.94 2.15 C33.37 2.19, 31.68 2.11, 31.42 2.42 M25.25 1.27 C29.93 1.73, 37.73 3.31, 40.95 6.75 C44.16 10.18, 44.62 16.89, 44.56 21.88 C44.49 26.88, 43.44 32.84, 40.56 36.72 C37.68 40.59, 32.09 44.41, 27.27 45.14 C22.45 45.87, 15.97 43.39, 11.65 41.11 C7.33 38.83, 2.9 35.58, 1.33 31.44 C-0.25 27.3, 0.56 20.91, 2.21 16.27 C3.87 11.63, 7.23 6.49, 11.26 3.6 C15.3 0.72, 23.76 -0.56, 26.39 -1.05 C29.03 -1.54, 27.02 0.09, 27.1 0.66" stroke="#1864ab" stroke-width="1" fill="none"></path></g><g transform="translate(128.2725634701975 10) rotate(0 12 23)"><text x="12" y="32" font-family="Virgil, Segoe UI Emoji" font-size="36px" fill="#ffffff" text-anchor="middle" style="white-space: pre;" direction="ltr">C</text></g><g stroke-linecap="round" transform="translate(141.0225634701975 126.125) rotate(0 22.5 22.5)"><path d="M30.01 1.78 C34.4 3.1, 39.38 7.47, 41.68 11.53 C43.98 15.59, 44.38 21.58, 43.79 26.13 C43.2 30.67, 41.43 35.73, 38.15 38.8 C34.87 41.88, 29.07 44.4, 24.12 44.57 C19.18 44.75, 12.57 42.89, 8.48 39.84 C4.4 36.8, 0.74 30.85, -0.38 26.29 C-1.51 21.73, -0.73 16.59, 1.73 12.47 C4.2 8.34, 9.55 3.37, 14.41 1.55 C19.26 -0.27, 27.57 1.13, 30.85 1.57 C34.14 2, 34.19 3.82, 34.11 4.17 M19.67 -0.59 C24.41 -1.09, 31.49 1.75, 35.77 4.45 C40.05 7.15, 44.06 10.78, 45.33 15.6 C46.6 20.42, 45.68 28.96, 43.4 33.37 C41.12 37.77, 36.22 40.09, 31.65 42.01 C27.08 43.94, 20.41 45.93, 15.96 44.94 C11.52 43.96, 7.36 40.21, 4.97 36.11 C2.57 32.01, 1.2 25.13, 1.59 20.34 C1.97 15.56, 3.85 10.99, 7.27 7.4 C10.69 3.81, 19.9 -0.14, 22.09 -1.19 C24.28 -2.25, 20.69 0.29, 20.41 1.08" stroke="none" stroke-width="0" fill="#a61e4d"></path><path d="M17.09 1 C21.71 -0.37, 28.23 -0.05, 32.6 2.08 C36.97 4.2, 41.44 9.43, 43.32 13.77 C45.2 18.1, 45.17 23.63, 43.87 28.09 C42.57 32.56, 39.51 37.89, 35.5 40.57 C31.5 43.24, 24.7 44.46, 19.84 44.14 C14.97 43.82, 9.55 41.95, 6.29 38.65 C3.03 35.34, 0.75 29.25, 0.27 24.29 C-0.21 19.34, -0.3 12.84, 3.41 8.92 C7.11 5, 18.2 1.97, 22.51 0.77 C26.81 -0.43, 29.19 1.46, 29.22 1.7 M12.22 1.59 C16.06 -0.59, 23.52 0.42, 28.18 1.44 C32.84 2.47, 37.19 4.26, 40.19 7.73 C43.2 11.2, 46.46 17.38, 46.21 22.25 C45.96 27.13, 42.29 33.14, 38.67 37 C35.05 40.86, 29.32 44.66, 24.48 45.41 C19.65 46.17, 13.69 44.16, 9.65 41.55 C5.62 38.93, 1.35 34.34, 0.26 29.72 C-0.84 25.11, 1.04 18.33, 3.08 13.86 C5.11 9.38, 11.09 4.71, 12.49 2.86 C13.89 1.01, 11.25 2.27, 11.48 2.78" stroke="#a61e4d" stroke-width="1" fill="none"></path></g><g transform="translate(155.0225634701975 126.625) rotate(0 12.5 23)"><text x="12.5" y="32" font-family="Virgil, Segoe UI Emoji" font-size="36px" fill="#ffffff" text-anchor="middle" style="white-space: pre;" direction="ltr">P</text></g></svg>