<svg version="1.1" xmlns="http://www.w3.org/2000/svg" viewBox="0 0 1291.0961422465639 509.9085403581297" width="1291.0961422465639" height="509.9085403581297">
  <!-- svg-source:excalidraw -->
  
  <defs>
    <style>
      @font-face {
        font-family: "Virgil";
        src: url("https://excalidraw.com/Virgil.woff2");
      }
      @font-face {
        font-family: "Cascadia";
        src: url("https://excalidraw.com/Cascadia.woff2");
      }
    </style>
  </defs>
  <g stroke-linecap="round" transform="translate(36.239643670618534 16.5) rotate(0 27.500000000000007 27.5)"><path d="M27.5 0 C33.1 -0.35, 40.66 2.65, 45.18 6.43 C49.69 10.22, 53.56 16.92, 54.58 22.72 C55.61 28.53, 54.26 36.15, 51.32 41.25 C48.37 46.35, 42.44 51.33, 36.91 53.34 C31.37 55.36, 23.63 55.36, 18.09 53.34 C12.56 51.33, 6.63 46.35, 3.68 41.25 C0.74 36.15, -0.61 28.53, 0.42 22.72 C1.44 16.92, 5.31 10.22, 9.82 6.43 C14.34 2.65, 24.55 0.98, 27.5 0 C30.45 -0.98, 27.5 0.09, 27.5 0.55" stroke="#f2aa74" stroke-width="4.5" fill="none" stroke-dasharray="1.5 10"></path></g><g stroke-linecap="round" transform="translate(56.239643670618534 186.5) rotate(0 135.5 135.5)"><path d="M27.07 54.01 C27.07 54.01, 27.07 54.01, 27.07 54.01 M27.07 54.01 C27.07 54.01, 27.07 54.01, 27.07 54.01 M16.98 64.48 C27.52 53.75, 38.14 42.88, 51.21 29.21 M21.43 66.88 C31.52 58.17, 40.18 45.73, 52.68 30.36 M10.32 80.53 C29.21 62.49, 45.26 41.62, 64.86 26.6 M15.39 79.23 C26.35 65.78, 38.42 50.7, 64.69 23.58 M10.02 95.23 C28.52 66.5, 51.34 43.65, 75.85 15.66 M9.43 92.24 C24.72 75.67, 39.75 57.84, 72.42 18.06 M3.61 104.64 C35.24 68.23, 63 42.14, 80.12 19.67 M6.77 99.89 C22.33 82.86, 40.43 60.41, 79.82 16.23 M5.91 113.17 C35.28 75.42, 59.35 44.47, 87.76 14.71 M6.58 110.88 C24.12 89.39, 40.46 67, 90.27 13.07 M1.78 121.22 C38.46 75.38, 73.82 40.49, 95.2 9.39 M2.37 118.67 C32.01 87.1, 57.9 58.22, 98.44 10.28 M2.42 121.44 C32.42 92.72, 60.01 59.64, 109.5 8.11 M1.9 124.16 C41.87 77.99, 83.61 31.2, 106.1 5.81 M1.65 130.55 C32.24 100.77, 60.71 72.1, 115.24 8.77 M-0.94 133.79 C29.67 102.05, 57.03 70.03, 112.75 6.11 M-3.87 141 C21.25 110.26, 48.62 85.09, 118.73 1.54 M-2.24 141.68 C42.62 88.76, 87.27 39.37, 115.37 7.09 M0.25 149.77 C21.53 119.53, 47.34 89.74, 122.94 6.61 M-1.57 144.73 C34.15 108.16, 67.25 72.86, 123.05 6.39 M2.5 151.14 C42.93 94.87, 93.91 38.79, 130.51 3.46 M1.99 149.81 C28.1 114.9, 60.28 81.45, 127.55 2.93 M1.66 159.01 C30.46 118.74, 64.83 87.36, 134.53 7.23 M1.7 154.91 C33.88 123.17, 67.33 87.18, 133.84 4.06 M0.45 163.24 C40.29 115.05, 82.71 68.88, 137.85 7.4 M4 161.69 C34.57 127.91, 62.95 92.94, 138.53 5.12 M1.14 167.07 C50.05 117.79, 85.18 73.19, 143.02 2.95 M5.29 167 C58.25 106.43, 110.73 45.7, 144.43 4.83 M2.79 172.13 C60.81 109.22, 110.39 49.76, 152.3 6.21 M6.79 171.59 C52.25 118.14, 96.48 68.65, 148.23 4.39 M5.04 178.28 C34.98 142.23, 68.08 99.83, 154.42 3.3 M7.19 174.92 C53.8 127.32, 95.44 74.5, 154.88 4.96 M4.9 183.49 C56.44 124.67, 108.3 60.95, 155.45 3.55 M6.11 180.45 C43.24 141.27, 75.81 103.44, 159.51 6.72 M7.77 182.96 C40.18 145.17, 71.47 111.44, 160.03 5.93 M7.93 183 C53.02 139.44, 91.94 94.36, 163.32 8.81 M9.36 190.58 C46.87 139.21, 86.46 94.95, 169.01 11.98 M10.22 189.12 C42.81 148.74, 76.35 107.03, 167.17 7.13 M12.18 192.26 C61.12 133.32, 107.39 82.94, 170.42 11.47 M13.15 192.57 C76.9 121.67, 139.06 50.24, 172.16 8.7 M12.84 195.1 C55.21 144.64, 102.02 91.47, 173.89 12 M16.62 195.21 C66.75 140.26, 116.82 82.91, 176.88 9.62 M20.32 199.55 C68.97 145.47, 115.28 88.28, 177.9 14 M18.22 197.95 C54.28 157.23, 92.06 113.67, 181.29 12.44 M18.56 200.06 C60.3 161.05, 98.19 115.55, 184.05 13.8 M18.45 203.14 C56.41 160.04, 95.89 117.82, 184.03 11.05 M23.78 203.92 C66.67 152.04, 108.52 105.39, 188.15 15.69 M21.75 205.95 C78.37 140.38, 135.6 73.58, 189.41 14.59 M21.31 211.83 C78.72 144.03, 129.59 86.07, 196.6 12.28 M22.23 209.7 C66.24 157.46, 111.39 104.91, 194.35 13.35 M28.65 211.16 C66.08 168.09, 114.43 118.65, 196.97 17.21 M24.19 214.06 C90.19 136.92, 158.32 57.64, 197.36 16.89 M26.89 214.54 C62.81 171.23, 99.87 130.25, 201.18 18.54 M27.93 217.26 C67.76 171.78, 107.5 125.35, 199.74 18.8 M29.37 220.79 C81.63 164.48, 130.34 101.11, 204.78 22.64 M30.83 220.57 C70.34 173.73, 110.11 127.43, 202.89 20.11 M32.74 227.9 C87.05 168.52, 134.45 105.92, 206.21 25.79 M32.55 223.99 C89.28 162.36, 142.12 101.69, 208.11 21.92 M35.69 224.87 C89.43 167.31, 142.67 102.91, 212.08 24.59 M34.13 229.22 C100.44 156.04, 165.81 82.03, 212.19 24.92 M36.49 228.36 C88.44 175.17, 135.89 119.16, 217.24 25.94 M38.45 231.2 C106.77 151.99, 176.21 71.59, 215.58 28.72 M43.97 230.69 C93.86 172.89, 154.84 105.7, 216.2 26.98 M42.14 234.01 C99.44 161.83, 162.88 89.91, 217.69 29.43 M42.52 238.19 C108.99 166.91, 173.27 93.38, 223.57 34.81 M44.16 234.37 C103.04 170.14, 159.98 104.65, 221.36 31.73 M45.63 239.51 C90.94 188.95, 131.68 138.06, 224.5 37.85 M45.75 239.06 C113.8 161.11, 182.64 81.58, 223.9 34.71 M49.03 243.14 C93.42 186.26, 141.22 134.14, 229 36.35 M50.32 241.47 C105.22 179.99, 159 117.93, 227.02 39.09 M53.5 245.09 C118.38 167.01, 186.2 92.73, 230.57 42.87 M54.58 241.31 C102.29 187.18, 150.7 128.38, 229.85 40.16 M59.31 244.17 C130.51 168.01, 199.76 86.71, 231.03 41.42 M55.23 246.24 C99.41 196.78, 140.49 147.9, 231.39 45.38 M60.89 250.01 C92.82 201.95, 131.36 161.51, 233.7 48.41 M59.13 246.9 C116.19 181.18, 174.78 114.38, 236.01 45.89 M60.18 247.96 C120.01 186.41, 173.79 124.09, 236.69 46.39 M61.66 250.01 C103.46 205.43, 143.39 160.05, 236.99 49.84 M64.33 254.92 C115.2 197.02, 162.47 138.96, 241.96 54.02 M66.19 254.04 C105.77 205.08, 147.91 157.39, 241.04 53.31 M70.1 256.08 C118.64 202.26, 165.43 148.19, 246.03 56.45 M68.22 257.23 C111.06 206.17, 153.6 156.34, 242.95 54.59 M74.9 260 C129.52 200.38, 182.44 133.39, 249.63 55.62 M72.33 257.7 C137.28 189.31, 199.17 116.1, 247.57 55.85 M75.43 259.45 C114.13 214.13, 153.45 173.38, 247.09 58.91 M78.11 260.47 C120.55 209.74, 165 156.94, 249.48 60.02 M84.12 261.68 C114.71 215.51, 156.78 175.52, 252.76 68.27 M80.16 258.85 C126.17 205.83, 175.71 151.46, 249.4 64.79 M82.56 262.5 C151.14 187.83, 217.85 109.76, 250.08 70.77 M85.06 261.37 C141.01 195.49, 199.61 129.62, 254.16 68.05 M90.96 262.92 C152.52 194.28, 208.38 121.45, 251.26 71.9 M87.72 262.35 C133.01 217.2, 175.43 166.76, 255.99 74.29 M96.34 266.83 C156.84 187.07, 219.2 116.94, 253.29 78.29 M92.48 263.86 C154.76 196.17, 210.25 131.63, 255.55 75.65 M97.03 265.67 C140.31 210.21, 189.68 151.68, 258.75 80.08 M99.41 265.84 C147.6 205.66, 202.36 141.54, 260.15 81.94 M102.02 268.74 C148.39 209.52, 193.34 157.83, 257.56 85.66 M102.83 268.76 C138.39 220.55, 177.48 178.43, 261.89 85.42 M103.37 267.86 C166.18 202.37, 223.63 134.75, 260.9 90.68 M106.3 269.82 C141.33 222.95, 180.33 179.28, 261.18 87.5 M108.27 268.85 C156.45 217.09, 201.19 165.1, 263.1 93.25 M108.09 269.99 C159.01 213.62, 206.88 156.28, 264.84 93.03 M113.86 272.85 C171.68 203.91, 233.48 140.03, 262.95 96.08 M112.38 270.54 C164.3 210.54, 219.4 150.06, 267.3 97.59 M116.71 270 C161.17 220.73, 209.42 171.74, 264.73 101.75 M118.33 272.28 C157.17 231.71, 190.97 188.18, 267.74 101.4 M124.17 273.11 C161.77 230.34, 201.36 178.36, 271.21 103.44 M124.24 270.47 C159.23 230.92, 193.24 191.95, 269.58 105.61 M132.58 273.7 C176.66 221.8, 211.98 170.62, 271.02 113.67 M129.1 270.76 C158.75 238, 188.07 204.39, 267.81 112.32 M137.69 269.46 C173.37 229.26, 205.35 184.7, 265.73 120.37 M132.82 271.11 C182 218.54, 230.15 160.83, 269.12 117.03 M135.64 273.63 C173.97 237.19, 200.97 199.01, 268.81 118.98 M141.16 272.13 C185.55 222.29, 231.57 170.8, 268.68 122.96 M148.96 273.75 C187.72 222.37, 233.21 167.18, 266.35 129.47 M144.66 270.6 C190.85 217.88, 236.61 163.82, 271.68 128.84 M150.75 269.44 C188.32 228.28, 228.02 177.38, 272.75 133.32 M150.95 271.21 C188.25 226.83, 226.04 182.15, 270.75 133.51 M152.54 267.84 C193.33 225.99, 239.95 179.88, 270.72 138.67 M154.75 271.05 C182.31 242.13, 206.33 215.35, 271.07 137.27 M163.13 265.88 C203.88 224.12, 237.26 185.67, 275 143.89 M163.66 268.37 C199.85 222.69, 240.35 178.11, 270.18 143.47 M172.08 270.28 C199.22 232.14, 223.75 199.17, 272.04 146.15 M169.34 264.99 C194.64 241.07, 217.93 210.63, 273.18 149.36 M175.95 267.52 C207.81 229.92, 231.78 202.9, 269.68 161.19 M177.4 262.66 C200.73 244.89, 220.53 220.34, 270.12 156.3 M186.56 259.11 C209.34 233.27, 239.4 194.41, 267.07 166.2 M187.21 260.65 C206.21 239.04, 227.54 216.65, 269.53 167.01 M189.95 259.33 C219.76 232.12, 240.53 203.14, 265.24 175.9 M190.51 259.93 C220.22 226.68, 246.6 196.95, 264.6 176.03 M203.89 256.98 C220.16 234.01, 242.98 204.34, 256.6 192.85 M200.57 259.27 C216.36 237.36, 232.68 220.4, 258.3 190.36 M213.38 243.33 C224.89 236.89, 236.72 222.41, 243.82 207.59 M215.33 245.54 C225.42 235, 235.53 225.49, 245.91 212.03 M30.32 224.25 C30.32 224.25, 30.32 224.25, 30.32 224.25 M30.32 224.25 C30.32 224.25, 30.32 224.25, 30.32 224.25 M65.55 250.92 C53.29 238.13, 36.69 230.3, 24.09 214.58 M69.85 252.7 C55.85 241.64, 41.31 227.67, 23.42 212.88 M80.13 259.58 C58.79 242.09, 48.32 230.27, 16.58 207.06 M79.01 253.84 C57.64 237.38, 34.04 218.55, 20.77 203.78 M84.88 256.68 C65.71 234.18, 35.19 214.02, 11.06 196.67 M89.72 260.16 C74.14 245.96, 60.31 233.46, 13.41 193.07 M95.36 259.77 C79.31 245, 64.48 231.17, 10 188.48 M99.87 260.69 C71.08 237.65, 40.49 214.1, 8.98 184.08 M108.99 264.78 C75.69 233.25, 32.5 200.93, 13.52 181 M112.38 266.77 C73.17 233.52, 33.47 203.4, 8.52 178.85 M119.74 265.99 C76.9 229.37, 35.37 195.47, 4.74 173.57 M117.5 270.36 C85.72 243.39, 58.74 217.37, 7.51 171.87 M123.26 269.41 C80.04 226.01, 36.83 191.63, 5.21 165.68 M125.57 267.79 C92.1 242.07, 64.88 216.03, 6.87 167.87 M132 266.16 C92.97 232.55, 58.99 206.59, 5.81 157.67 M129.77 267.57 C98.2 241.28, 65.01 212.64, 7.53 160.78 M132.56 272.12 C96.84 234.83, 59.35 194.05, 7.51 154.43 M135.08 268.32 C86.4 228.27, 39.57 184.25, 2.8 151.87 M141.34 267.72 C88.22 219, 31.63 168.23, 3.91 151.04 M141.59 269.02 C91.42 225.95, 40.33 179.66, 4.5 145.77 M147.87 272.32 C102.45 232.15, 58.78 189.34, 2.67 142.7 M147.39 269.71 C119.44 246.43, 92.7 220.6, 0.08 138.73 M157.96 271.08 C119.83 238.98, 83.9 214.53, 3.76 136.7 M155.69 269.04 C104.86 228.44, 53.65 183.04, -0.99 133.41 M157.52 269.58 C121.49 236.8, 89.36 199.81, 0.56 127.29 M160.48 268.13 C102.79 218.63, 43.74 168.87, 2.42 129.78 M167.48 267.15 C116.75 229.38, 73.32 194.61, 3.39 128.59 M165.94 267.81 C113.85 229.36, 66.44 185.16, 1.5 126.35 M166.48 264.22 C134.12 237.41, 93.68 207.13, 4.04 121.78 M168.75 265.92 C128.35 231.23, 85.98 195.79, 4.06 121.01 M172.67 261.23 C124.71 222.03, 81.9 182.78, 3.58 113.69 M172.66 265.55 C125.36 221.49, 77.26 182.45, 5.73 115.55 M178.31 260.07 C127.03 216.74, 78.8 174.37, 4.31 111.14 M178.76 261.31 C123.67 211.91, 67.32 166.3, 6.33 113.42 M180.66 262.23 C114.57 204.8, 52.94 152.54, 8.75 109.09 M181.22 260.1 C118.58 204.27, 58.25 151.92, 5.09 106.49 M186.13 256.72 C146.1 220.63, 102.64 188.87, 5.32 106.31 M185.11 260.52 C143.25 224.64, 100.49 187.13, 6.08 102.7 M192.75 258.78 C141.38 209.39, 85.67 170.04, 7.87 101.18 M191.74 256.77 C122.43 197.81, 57.49 138.15, 6.93 100.04 M194.73 257.35 C142.54 212.61, 85.73 162.77, 8.4 94 M196.14 255.22 C125.45 196.5, 53.38 136.34, 8.4 94.61 M197.71 253.04 C131.85 195.71, 58.35 132.03, 13.33 92.63 M198.88 253.99 C151.63 208.84, 99.06 162.68, 10.25 91.5 M205.16 254.26 C149.31 199.96, 93.97 157.73, 14.73 86.75 M202.06 251.52 C151.05 205.35, 96.84 159.51, 11.89 87.49 M205.52 247.2 C128.19 187.06, 55.48 121.61, 11.33 84.96 M205.73 250.89 C165.56 211.58, 121.49 173.65, 13.28 83.88 M212.32 245.57 C152.84 200.22, 93.8 153.8, 13.92 77.47 M208.78 246.54 C134.03 183.93, 54.88 116.54, 17.04 80.45 M210.08 245.67 C148.26 194.6, 88.92 139.88, 15.78 74.1 M212.85 246.09 C164.81 203.04, 116.7 160.73, 17.94 76.5 M215.04 245.01 C158.53 194.4, 102.99 144.66, 21.97 71.77 M215.01 242.32 C148.41 186.09, 82.48 131.48, 18.92 72.6 M217.28 238.34 C159.67 186.33, 96.46 132.71, 20.63 67.25 M220.31 240.11 C143.96 172.33, 65.63 104.68, 21.3 69.04 M224.49 239 C140.78 165.48, 63.82 96.94, 24.73 63.34 M221.18 238.06 C174.56 194.58, 126.08 152.8, 24.71 64.37 M223.73 236.65 C145.9 164.35, 64.03 95.01, 24.44 62.21 M225.83 236.07 C157.9 175.87, 91.55 119.94, 23.84 60.25 M228.53 234.74 C176.6 193.08, 129.28 149.95, 27.88 58.29 M228.77 233.22 C189.95 198.46, 151.53 165.67, 26.61 56.14 M230.72 230.54 C160.65 169.19, 96.81 110.47, 29.5 53.35 M232.19 228.76 C188.85 190.35, 145.26 152.62, 28.56 53.6 M239.25 230.8 C172.47 168.77, 103.45 106.64, 28.69 52.93 M236.97 227.04 C184.57 183.45, 134.42 141.29, 31.14 48.42 M236.74 224.95 C168.79 167, 95.19 101.85, 34.44 48.74 M236.69 225.04 C158.16 151, 74.33 81.02, 33.67 46.1 M238.71 220.34 C171.64 163.57, 109.96 108.79, 35.96 42.07 M239.01 221.41 C172.03 158.7, 107.24 102.78, 37.94 43.48 M244.86 216.15 C190.43 170.04, 139.24 127.24, 41.8 41.41 M241.59 217.19 C181.77 159.83, 120.13 105.19, 40.18 43.66 M245.23 212.04 C170.46 150.3, 104.05 92.3, 45.79 38.15 M244.44 213.82 C171.33 146.69, 94.6 81.37, 43.69 39.86 M245.81 211.6 C191.63 161.23, 137 114.59, 49 36.71 M246.77 209.03 C206.03 180.39, 167.95 144.66, 45.99 38.15 M251.22 207.23 C191.88 157.06, 137.77 110.63, 50.71 36.56 M248.3 205.63 C200.69 169, 156.76 129.55, 48.33 34.86 M253.06 203.15 C208.12 158.7, 161.93 118.59, 50.78 30.22 M250.01 204.89 C179.06 143.14, 107.26 79.67, 51.53 29.26 M250.07 200.69 C204.39 160.31, 155.12 120.2, 57.12 26.48 M251.87 199.92 C200.33 150.76, 146.58 103.99, 53.51 29.56 M256.07 195.59 C177.68 129.58, 105.17 62.92, 54.94 22.88 M254 197.12 C194.62 139.73, 130.04 82.27, 56.49 24.09 M255.74 194.33 C188 132.71, 122.04 75.13, 60.06 22.8 M256.79 193.04 C206.67 150.84, 160.14 108.96, 59.46 22.52 M260.52 189.67 C179.7 118.96, 105.77 53.09, 65.22 17.19 M259.1 190.12 C205.68 141.8, 153.13 96.58, 64.79 20.5 M257.09 182.73 C187.35 124.07, 109.51 58.87, 69.4 15.92 M260.75 185.52 C220.05 150.24, 177.84 116.14, 68.95 16.76 M262.54 182.49 C197.59 131.16, 143.46 81.68, 73.68 15.4 M259.63 181.92 C219.71 150.14, 180.24 114.23, 70.75 18.01 M264.5 174.89 C225.32 143.71, 185.76 110.71, 77.11 15.79 M262.46 178.22 C191.88 111.83, 120.66 49.29, 76.84 16.1 M264.77 169.46 C226.35 139.46, 187.88 108.76, 78.58 12.92 M263.48 172.49 C225.24 140.02, 187.78 107.16, 80.38 14.4 M264.19 167.33 C218.76 133.07, 173.82 94.88, 87.05 11.26 M264.58 167.72 C207.58 115.87, 148.49 64.34, 83.85 9.92 M263.08 164.74 C201.05 106.46, 131.18 44.21, 85.17 10.62 M265.76 164.43 C201.27 112.66, 139.69 57.9, 89.18 8.38 M269.46 163.45 C230.48 132.97, 197.15 99.13, 92.8 5.74 M266.16 159.57 C216.59 112.16, 161.42 64.83, 90.83 9.35 M265.76 154.37 C217.09 110.05, 166.06 67.86, 97.02 6.34 M267.66 155.78 C204.4 96.32, 137.12 40.5, 95.94 7.84 M267.25 152.01 C219.37 111.7, 165.04 67.7, 102.66 3.16 M268.74 150.34 C202.29 97.22, 138.62 39.35, 100.56 2.83 M271.57 146.68 C224.95 110.31, 183.11 77.05, 101.99 1.57 M271.23 147.21 C222.97 105.1, 174.7 65.81, 106.48 2.76 M270.24 146.5 C226.13 107.2, 184.82 64.98, 107.43 2.37 M274.8 142.98 C222 101.87, 171.36 57, 108.9 1.07 M272.73 136.09 C213.42 82.93, 146.73 28.59, 117.02 5.04 M272.73 139.46 C232.1 99.22, 187.46 62.92, 116.84 2.36 M275.38 129.73 C215.39 90.33, 166.51 38.54, 118.79 1.65 M272.38 132.9 C238.24 106.05, 203.5 77.54, 123.32 1.1 M273.16 128.24 C237.21 96.78, 209.13 75.86, 127.97 0.88 M269.75 127.2 C244.79 101.1, 215.85 75.97, 128.79 0.66 M271.92 119.12 C233.89 84.86, 191.1 53.3, 134.89 4.61 M269.97 119.26 C222.91 79.65, 175.24 35.08, 136.01 1.96 M271.9 114.19 C235.87 86.15, 203.48 60.44, 138.46 4.27 M271.08 116.46 C220.85 70.4, 170.01 28.74, 139.5 3.7 M266.96 111.76 C226.72 73.41, 185.43 37.73, 146.94 0.73 M270.89 109.53 C234.3 78.5, 196.11 43.85, 145.95 0.31 M272.05 103.62 C246.45 75.74, 213.95 53.81, 152.92 -0.45 M270.11 105.98 C229.39 69.06, 182.98 32.28, 148.76 -0.44 M271.46 98.84 C238.18 66.19, 208.38 36.7, 158.44 -2.18 M268.21 100.25 C243.82 72.97, 215.09 49.52, 156.82 -0.22 M266.59 87.58 C237.77 65.43, 209.25 37.62, 163.77 3.61 M262.75 87.88 C238.09 62.5, 207.96 37.32, 166.9 3.67 M261.7 76.67 C243.15 64.59, 228.73 46.86, 176.83 6.06 M258.88 79.5 C226.84 48.94, 192.5 20.94, 172.73 6.79 M255.41 70.14 C236.25 54.28, 224.29 44.55, 182.89 5.96 M256.35 71.71 C239.17 55.75, 223.4 41.09, 182.3 6.5 M254.43 62.37 C236.64 44.14, 222.5 35.28, 197.1 14.73 M250.9 62.6 C239.96 50.65, 228.9 38.85, 193.98 11.31" stroke="#0b7285" stroke-width="0.5" fill="none"></path><path d="M213.89 26.91 C226.37 33.11, 237.1 44.47, 246.07 56.68 C255.04 68.88, 263.52 85.23, 267.74 100.14 C271.96 115.06, 272.94 131.15, 271.37 146.15 C269.81 161.15, 264.35 176.43, 258.36 190.14 C252.37 203.84, 245.34 217.37, 235.43 228.38 C225.53 239.38, 212.37 249.24, 198.93 256.15 C185.49 263.07, 169.53 267.73, 154.8 269.89 C140.08 272.05, 125.19 271.72, 110.58 269.12 C95.97 266.52, 80.48 261.75, 67.14 254.3 C53.8 246.85, 40.43 236.41, 30.53 224.43 C20.64 212.46, 13.06 196.44, 7.77 182.46 C2.48 168.48, -1.33 155.42, -1.21 140.53 C-1.09 125.64, 3.79 107.52, 8.5 93.11 C13.21 78.69, 18.09 65.95, 27.06 54.03 C36.03 42.1, 49.42 29.97, 62.34 21.53 C75.26 13.09, 90.43 6.63, 104.56 3.39 C118.68 0.15, 132.62 0.62, 147.09 2.11 C161.56 3.6, 175.24 4.04, 191.38 12.32 C207.52 20.6, 232.73 39.47, 243.95 51.8 C255.17 64.13, 260.73 84.91, 258.69 86.29 M38.81 40.24 C47.11 28.5, 58.74 24.44, 71.84 17.94 C84.93 11.44, 102.09 3.64, 117.38 1.24 C132.66 -1.16, 148.96 0.59, 163.54 3.53 C178.12 6.47, 192.23 11.71, 204.85 18.87 C217.48 26.03, 230.22 35.36, 239.29 46.49 C248.36 57.61, 253.73 71.63, 259.28 85.62 C264.82 99.61, 271.94 115.18, 272.54 130.42 C273.13 145.66, 268.18 162.31, 262.86 177.03 C257.55 191.75, 249.58 207.06, 240.64 218.74 C231.71 230.41, 221.49 239.37, 209.23 247.08 C196.97 254.78, 181.66 261.21, 167.09 264.96 C152.52 268.72, 136.32 270.55, 121.8 269.61 C107.29 268.68, 93.11 265.25, 80 259.36 C66.9 253.47, 53.91 244.74, 43.18 234.27 C32.44 223.79, 22.74 210.44, 15.57 196.5 C8.39 182.55, 2.62 166.08, 0.12 150.58 C-2.37 135.08, -2.35 117.81, 0.59 103.48 C3.53 89.16, 11.62 74.99, 17.78 64.62 C23.94 54.24, 34.61 44.55, 37.56 41.21 C40.51 37.88, 34.51 42.46, 35.5 44.62" stroke="#15aabf" stroke-width="1" fill="none"></path></g><g stroke-linecap="round"><g stroke-opacity="0.6" fill-opacity="0.6" transform="translate(11.239643670618534 209.5) rotate(0 189.31494488567117 30.24224040657282)" fill-rule="evenodd"><path d="M0 0 C0 0, 0 0, 0 0 M0 0 C0 0, 0 0, 0 0 M3.45 2.95 C3.84 0.22, 6.81 -1.6, 7.15 -4.04 M3.69 1.34 C4.71 -0.14, 7.01 -1.73, 7.87 -3.58 M5.8 1.75 C10.3 0.2, 10.02 1.68, 14.73 -10.15 M6.15 3.71 C9.33 0.02, 14.66 -2.85, 16.14 -7.5 M9.98 3.6 C14.54 5.33, 19.12 -1.25, 23.83 -9.31 M9.85 8.35 C16.7 -2.25, 21.61 -8.69, 26.02 -11.51 M17.1 7.07 C15.62 3.46, 21.31 -3.38, 31.22 -16.37 M14.82 8.83 C18.68 1.27, 27.24 -7.04, 35.11 -16.57 M19.49 9.3 C19.44 1.04, 24.34 -5.21, 41.39 -15.96 M18.14 12.15 C23.88 5.27, 28.2 -4.16, 44.19 -17.1 M19.84 13.74 C31.87 0.95, 34.11 -6.32, 47.96 -25.5 M19.62 12.64 C28.92 5.91, 35.67 -3.44, 52.62 -22.8 M19.96 11.66 C30.07 8.48, 43.67 -6.67, 62.82 -25.28 M24.97 13.64 C29.26 6.77, 36.73 -2.49, 58.16 -24.45 M23.36 16.46 C37.8 3.62, 51.42 -3.32, 65.91 -31.99 M26.71 17.39 C38.53 4.45, 49.8 -10.08, 69.17 -27.85 M32.15 21.88 C37.84 5.9, 52.51 -2.16, 73.57 -35.74 M31.53 18.89 C47.82 1.97, 62.9 -17.78, 75.29 -35.14 M33.61 20.25 C52.03 -4.35, 76.97 -27.12, 85.05 -37.75 M33.19 23.77 C50.73 2.22, 72.14 -20.75, 84.36 -38.96 M37.18 24.78 C51.35 5.7, 69.55 -13.01, 94.82 -43.44 M35.84 26.16 C49.46 8.89, 59.84 -4.81, 93.09 -39.82 M36.93 23.75 C66.97 -1.28, 90.42 -24.41, 106.39 -47.84 M38.97 26.61 C60.53 3.2, 81.84 -19.25, 103.26 -43.95 M40.59 26.82 C60.25 14.57, 69.71 -7.58, 114.07 -45.13 M44.72 29.9 C57.15 13.83, 69.48 -3.48, 109.85 -49.2 M48.02 35.23 C77.31 -0.74, 106.73 -29.39, 122.66 -52.9 M46.79 30.96 C61.39 13.88, 78.75 -5.8, 119.1 -49.66 M48.25 32.09 C72.17 11.07, 93.09 -16.42, 129.25 -57.65 M49.8 32.73 C73.99 5.18, 97.35 -20.9, 128.7 -57.55 M53.94 32.59 C74.72 8.47, 104.58 -22.95, 136.95 -56.26 M54.18 36.04 C87.34 -2.4, 116.35 -36.86, 135.89 -61.05 M58.42 34.28 C82.29 1.73, 116.27 -28.76, 143.3 -65 M55.52 37.48 C89.36 2.53, 116.91 -32.16, 144.24 -61.72 M62.16 43.33 C88.42 6.88, 121.15 -26.59, 150.73 -69.31 M61.49 39.27 C83.22 17.6, 103.36 -11.01, 152.48 -68.59 M61.76 40.73 C88.11 17.41, 112.79 -10.76, 162.91 -72.78 M63.15 43.15 C93.37 6.08, 128.87 -32.13, 161.23 -71.59 M68.5 48.6 C106.37 -1.75, 146.55 -44.89, 174.52 -74.62 M67.89 44.24 C105.41 2.43, 141.84 -41.06, 169.19 -75.35 M73.27 48.39 C96.71 19.83, 125.22 -13.89, 175.76 -77.71 M70.76 44.93 C107.4 10.52, 137.45 -29.76, 175.91 -75.63 M73.15 47.17 C96.2 19.57, 130.76 -9.83, 180.64 -73.55 M75.36 48.75 C95.69 25.11, 118.51 -3.2, 180.59 -72.65 M76.34 51.85 C102.67 23.11, 131 -12.87, 182.06 -73.84 M77.23 50.22 C110.14 13.98, 145.97 -24.38, 183.43 -71.06 M80.7 55.44 C110.21 21.34, 143.39 -17.48, 190.99 -72.41 M80.69 52.76 C119.64 10.29, 157.19 -32.63, 187.26 -70.19 M86.73 59.3 C127.11 5.42, 163.73 -42.66, 194.15 -71.73 M82.25 54.57 C104.08 28.24, 128.18 2.07, 193.53 -67.02 M84.1 59.41 C121.44 15.66, 160.38 -23.12, 197.79 -66.16 M87.48 58.45 C117.94 27.68, 143.99 -5.42, 196.55 -67.74 M88.59 60.58 C117.47 29.7, 136.27 1.31, 198.14 -64.73 M90.34 61.74 C116.01 29.84, 141.9 2.37, 200.18 -62.91 M96.66 62.74 C121.15 31.33, 149.96 -3.77, 203.75 -61.34 M94.14 62.16 C128.89 23.61, 164.53 -17.28, 202.71 -62.09 M98.42 67.15 C136.52 22.91, 173.48 -24.21, 205.94 -57.56 M98.82 63.68 C124.42 31.64, 151.95 0.67, 205.54 -60.95 M104.76 69.93 C133.64 23.75, 173.73 -21.37, 206.57 -61.86 M102.56 65.68 C126.32 37.09, 151.98 3.8, 207.44 -56.89 M101.12 72.08 C128.95 36.14, 156.46 4.46, 212.43 -56.35 M105.82 68.53 C142.21 23.89, 182.84 -26.22, 213.22 -56.17 M105.16 73.39 C149.64 27.39, 194.97 -24.96, 217.7 -55.03 M107.46 71.23 C135.83 42.51, 160.18 16.09, 214.63 -52.54 M113.95 74.07 C131.53 45.25, 157.77 24.45, 222.26 -54.56 M110.28 72.59 C141.45 42.68, 169 8.13, 219.01 -50.38 M116.95 72.88 C151.28 25.79, 190.64 -16.71, 219.58 -49.51 M116.37 76.99 C136.45 51.36, 163.11 24.96, 223.59 -48.3 M114.54 77.46 C158.16 25.78, 201.66 -17.18, 223.05 -47.07 M115.97 76.38 C144.48 46.83, 168.18 17.68, 228.14 -46.26 M122.97 78.54 C147.83 47.99, 180.49 14.52, 232.42 -45.35 M122.93 80.05 C161.52 34.7, 208.22 -16.82, 231.84 -44.22 M120.91 84.21 C156.61 37.83, 193.4 -0.99, 236.2 -40.09 M123.46 84.59 C164.65 36.15, 205.84 -12.06, 234.02 -45.25 M126.42 86.14 C151.06 53.33, 180.13 23.97, 239.43 -39.96 M127.63 83.69 C161.64 44.29, 195.71 3.96, 236.32 -43.17 M127.46 85.89 C157.94 52.63, 191.23 21.6, 242.1 -41.25 M130.13 86.1 C153.58 59.66, 179.62 33.34, 239.5 -37.64 M134.88 93.08 C171.66 45.9, 203.86 11.29, 245.55 -38.15 M133.75 89.4 C164.71 60.65, 193.47 27.37, 244.17 -36.83 M136.94 95.71 C165.73 58.85, 192.84 30.08, 246.88 -37.51 M138.18 89.98 C165.09 55.96, 197.34 21.33, 247.62 -36.51 M144.29 90.36 C170.78 59.35, 205.81 14.19, 250.74 -34.08 M139.41 92.84 C178.45 54.09, 214.38 11.43, 249.95 -31.69 M144.49 92.5 C182.54 47.46, 231.22 -8.55, 255.69 -33.25 M142.61 97.5 C174.3 58.91, 208.07 23.69, 254.86 -31.76 M146.98 94.64 C189.31 43.89, 239.32 0.25, 260.69 -29.3 M149.51 99.85 C170.72 70.22, 194.76 42.41, 258.43 -27.06 M153.62 100.71 C172.94 71.89, 191.62 48, 259.41 -28.18 M151.25 102.09 C193.87 51.09, 236.74 3.84, 261.89 -28.09 M155.66 100.18 C195.43 50.02, 242.41 5.8, 268.1 -22.72 M155.78 102.48 C188.06 68, 218.42 31.23, 265.81 -25.06 M160.23 102.42 C193.15 67.61, 230.03 25.89, 271.93 -23.42 M156.73 105.38 C196.43 59.71, 235.78 16.78, 270.81 -23.05 M163.39 110.87 C189.15 81.62, 208.3 52.69, 271.44 -20.65 M160.77 106.96 C186.79 78.4, 208.07 51.3, 270.45 -20.62 M160.58 109.34 C198.67 73.98, 231.51 35.14, 276.9 -15.45 M164.5 109.19 C201.22 69.89, 234.74 30.17, 275.91 -16.96 M167.64 108.23 C201.22 67.43, 236.95 24.76, 280.14 -18.75 M169.82 109.68 C194.21 83.23, 220.35 55.34, 278.2 -15.48 M167.31 114.8 C196.44 78.97, 229.27 44.53, 280.94 -18.13 M172.82 115.54 C204.74 75.98, 234.17 42.18, 284.91 -14.97 M178.22 115.4 C209.91 74.59, 248.64 31.61, 285.42 -12.07 M175.11 117.26 C220.62 67.96, 262.4 17.8, 285.05 -12.19 M177.42 117.76 C203.15 86.76, 231.03 59.37, 292.45 -8.69 M176.75 118.61 C201.68 90.59, 223.01 67.08, 289.74 -9.04 M185.34 117.16 C226.88 69.46, 272.97 19.27, 297.46 -9.02 M179.6 122.48 C215.08 76.7, 252 36.03, 294.45 -8.13 M188.32 122.79 C215.66 89.49, 238.74 59.82, 294.81 -5.74 M184.18 124.79 C217.72 84.77, 251.49 47.57, 295.74 -7.95 M191.58 123.89 C227.4 72.46, 274.19 23, 300.23 -1.41 M189.09 124.33 C232.27 79.94, 272.91 33.64, 300.04 -5.47 M190.41 123.34 C219.84 99.42, 239.85 74.73, 305.17 0.75 M192.47 127.89 C228.4 80.53, 264.9 38.87, 304.45 -3.29 M195.88 131.61 C233.62 84.45, 271.25 46.47, 304.67 -2.4 M196.17 127.95 C234.87 88.74, 268.92 46.86, 306.88 -1.22 M196.53 128.75 C223.21 100.87, 248.37 73.62, 307.67 3.4 M197.81 132.19 C236.5 86.27, 274.62 39.99, 310.85 0.55 M201.57 137.96 C230.23 107.93, 254.79 80.64, 311.49 7.47 M200.28 132.7 C243.79 88.68, 281.9 45.52, 314.25 2.84 M205.84 135.74 C237.11 105.93, 262.39 74.59, 320.18 7.5 M203.17 135.85 C247.92 87.29, 284.78 45.29, 318.11 4.35 M208.35 142.21 C253.07 88.08, 289.33 44.88, 324.38 10.27 M207.63 140.13 C237.47 101.51, 269.36 66.31, 320.82 6.07 M215.8 131.81 C248.54 97.54, 275.95 63.59, 327.61 8.92 M218.26 134.48 C258.94 88.1, 299.59 42.62, 326.83 8.09 M226.08 129.41 C267.81 86, 297.63 43.76, 328.8 12.71 M229.03 126.1 C258.62 94.08, 289.1 58.48, 327.49 11.05 M242.33 124.94 C254.45 102.37, 276.57 79.33, 332.59 16.2 M239.67 122.64 C261.04 94.73, 282.75 71.83, 333.8 12.94 M249.43 117.92 C270.7 88.61, 299.76 63.51, 337.19 16.11 M250.58 116.39 C270.03 91.92, 290.45 65.91, 334.58 17.53 M261.83 113.74 C280.72 88.38, 304.89 56.26, 336.75 20.47 M260.95 112.14 C278.22 91.47, 293.49 69.16, 341.24 19.23 M267.23 103.89 C299.59 76.36, 324.99 42.62, 343.77 22.44 M270.92 103.08 C291.98 75.97, 314.39 50.07, 340.59 20.46 M282.34 102.18 C292.85 79.84, 307.53 65.55, 343.5 25.5 M279.67 98.66 C304.04 72.34, 325.41 44.2, 347.57 24.52 M288.67 93.07 C316.16 67.5, 338.8 40.09, 353.73 28.27 M291.54 92.47 C310.35 65.39, 335.45 38.64, 351.47 23.97 M304.9 83.08 C317.71 72.32, 327.03 54.63, 355.2 25.69 M302.86 85.34 C317.89 68.16, 332.7 48.06, 352.65 25.52 M312 84.11 C327.83 66.18, 333.38 52.13, 354.02 30.81 M309.39 80.27 C323.57 69.87, 331.66 54.73, 355.37 27.38 M320.95 73.15 C334.34 60.26, 345.17 47.99, 360.02 28.04 M320.42 73.76 C337.21 59.64, 351.45 43.61, 360.52 32.15 M329.84 71.54 C342.86 64.37, 349.04 53.78, 366.59 29.89 M330.25 70.67 C339.41 60.54, 345.36 51.59, 363.84 31.19 M340.29 60.48 C352.17 53.59, 360.65 44.56, 369.07 38.21 M341 63.41 C345.11 56.71, 351.64 51.18, 368.64 33.51 M349.18 57.25 C362.08 50.55, 367.21 46.36, 371.15 33.97 M352.7 59.76 C357.58 50.51, 365.47 45.25, 370.64 39.11 M364.22 55.22 C366.14 47.82, 368.09 47.96, 371.55 42.12 M361.52 50.94 C367.68 47.36, 370.44 44.96, 374.64 39.81 M372.64 46.37 C372.46 46.92, 376.31 43.54, 376.46 39.8 M372.93 46.8 C373.55 45.38, 375.85 43.85, 377.49 40.55" stroke="#ced4da" stroke-width="0.5" fill="none"></path><path d="M-0.27 3.02 C58.16 41.66, 125.34 83.97, 205.78 135.29 M-0.8 -0.92 C56.36 41, 115.11 79.04, 204.46 135.63 M203.52 139.42 C263.48 107.61, 322.53 71.95, 379.87 37.25 M206.25 136.45 C244.43 114.67, 281.55 91.28, 377.88 42.93 M377.01 42.55 C333.6 14.2, 284.48 -11.23, 176.68 -76.87 M376.45 41.3 C330.08 11.21, 285.89 -16.12, 177.97 -77.25 M179.42 -78.93 C126.89 -55.82, 73.52 -34.17, -1.24 1.16 M176.98 -75.17 C140.23 -58.88, 102.57 -41.25, 1.68 -0.88 M0 0 C0 0, 0 0, 0 0 M0 0 C0 0, 0 0, 0 0" stroke="#1864ab" stroke-width="1" fill="none"></path></g></g><g stroke-linecap="round"><g transform="translate(200.15406336581196 221.5656506447831) rotate(0 39.50990396951396 -81.38524086171583)"><path d="M2.85 3.62 C17.59 -39.53, 40.37 -89.35, 77.25 -166.39 M1.77 -1.58 C28 -53.84, 50.07 -106.24, 75.85 -163.19" stroke="#ced4da" stroke-width="1" fill="none"></path></g><g transform="translate(200.15406336581196 221.5656506447831) rotate(0 39.50990396951396 -81.38524086171583)"><path d="M76.56 -129.65 C72.98 -137.08, 76.32 -152.38, 76.01 -166.51 M75.48 -134.84 C76.42 -144.03, 73.89 -152.71, 74.61 -163.31" stroke="#ced4da" stroke-width="1" fill="none"></path></g><g transform="translate(200.15406336581196 221.5656506447831) rotate(0 39.50990396951396 -81.38524086171583)"><path d="M57.83 -138.02 C59.17 -143.58, 67.37 -156.7, 76.01 -166.51 M56.75 -143.21 C63.79 -149.49, 67.41 -155.43, 74.61 -163.31" stroke="#ced4da" stroke-width="1" fill="none"></path></g></g><g stroke-linecap="round"><g transform="translate(66.23964367061853 49.5) rotate(0 66.77402959085634 87.52879273015157)"><path d="M0 0 C36.87 48.33, 73.74 96.66, 133.55 175.06 M0 0 C36.46 47.79, 72.92 95.59, 133.55 175.06" stroke="#f2aa74" stroke-width="4" fill="none"></path></g><g transform="translate(66.23964367061853 49.5) rotate(0 66.77402959085634 87.52879273015157)"><path d="M25.26 16.19 C18.28 11.72, 11.31 7.25, 0 0 M25.26 16.19 C18.36 11.77, 11.47 7.35, 0 0" stroke="#f2aa74" stroke-width="4" fill="none"></path></g><g transform="translate(66.23964367061853 49.5) rotate(0 66.77402959085634 87.52879273015157)"><path d="M8.94 28.64 C6.47 20.73, 4 12.82, 0 0 M8.94 28.64 C6.5 20.82, 4.06 13, 0 0" stroke="#f2aa74" stroke-width="4" fill="none"></path></g></g><g stroke-linecap="round"><g transform="translate(574.2663286245654 116.95084223006972) rotate(180 -182.57348785780752 55.03682288819863)"><path d="M0 0 C-125.44 37.81, -250.87 75.62, -365.15 110.07 M0 0 C-133.8 40.33, -267.6 80.67, -365.15 110.07" stroke="#a61e4d" stroke-width="4" fill="none"></path></g><g transform="translate(574.2663286245654 116.95084223006972) rotate(180 -182.57348785780752 55.03682288819863)"><path d="M-341.12 92.11 C-349.37 98.28, -357.63 104.45, -365.15 110.07 M-341.12 92.11 C-349.92 98.69, -358.73 105.28, -365.15 110.07" stroke="#a61e4d" stroke-width="4" fill="none"></path></g><g transform="translate(574.2663286245654 116.95084223006972) rotate(180 -182.57348785780752 55.03682288819863)"><path d="M-335.19 111.76 C-345.48 111.18, -355.77 110.6, -365.15 110.07 M-335.19 111.76 C-346.17 111.14, -357.15 110.52, -365.15 110.07" stroke="#a61e4d" stroke-width="4" fill="none"></path></g></g><g stroke-linecap="round"><g stroke-opacity="0.6" fill-opacity="0.6" transform="translate(539.2396436706185 114.5) rotate(0 32 4.5)" fill-rule="evenodd"><path d="M0 0 C0 0, 0 0, 0 0 M0 0 C0 0, 0 0, 0 0 M3.41 8.27 C13.31 -3.12, 23.21 -14.5, 45.4 -40.03 M3.41 8.27 C18.16 -8.69, 32.9 -25.65, 45.4 -40.03 M6.17 17.29 C15.9 6.09, 25.64 -5.1, 48.81 -31.77 M6.17 17.29 C17.4 4.37, 28.63 -8.55, 48.81 -31.77 M9.58 25.56 C23.13 9.97, 36.68 -5.62, 52.23 -23.5 M9.58 25.56 C22.23 11.01, 34.87 -3.53, 52.23 -23.5 M13 33.82 C25.3 19.67, 37.61 5.51, 55.64 -15.23 M13 33.82 C24.99 20.03, 36.99 6.23, 55.64 -15.23 M16.41 42.09 C27.08 29.82, 37.75 17.55, 59.71 -7.72 M16.41 42.09 C29.37 27.19, 42.33 12.28, 59.71 -7.72 M19.82 50.36 C33.86 34.21, 47.9 18.06, 63.12 0.55 M19.82 50.36 C31.78 36.61, 43.73 22.86, 63.12 0.55 M18.89 49.91 C18.89 49.91, 18.89 49.91, 18.89 49.91 M18.89 49.91 C18.89 49.91, 18.89 49.91, 18.89 49.91 M24.9 44.52 C20.69 40.87, 16.49 37.22, 12.82 34.03 M24.9 44.52 C20.15 40.4, 15.4 36.27, 12.82 34.03 M30.14 38.49 C24.19 33.31, 18.24 28.14, 6.75 18.15 M30.14 38.49 C21.94 31.36, 13.74 24.22, 6.75 18.15 M36.15 33.11 C28.56 26.51, 20.98 19.92, 0.68 2.27 M36.15 33.11 C25.93 24.22, 15.71 15.34, 0.68 2.27 M41.4 27.07 C30.63 17.71, 19.87 8.36, 4.42 -5.08 M41.4 27.07 C31.81 18.73, 22.21 10.39, 4.42 -5.08 M47.4 21.69 C39.43 14.76, 31.45 7.83, 10.42 -10.46 M47.4 21.69 C35.39 11.24, 23.37 0.8, 10.42 -10.46 M52.65 15.65 C42.2 6.57, 31.75 -2.52, 16.42 -15.84 M52.65 15.65 C40.13 4.76, 27.61 -6.12, 16.42 -15.84 M58.65 10.27 C48.21 1.19, 37.78 -7.88, 22.42 -21.22 M58.65 10.27 C44.99 -1.61, 31.32 -13.49, 22.42 -21.22 M64.65 4.89 C50.72 -7.23, 36.78 -19.34, 27.67 -27.26 M64.65 4.89 C54.93 -3.57, 45.2 -12.03, 27.67 -27.26 M57.07 -12.31 C52.23 -16.51, 47.39 -20.72, 33.68 -32.64 M57.07 -12.31 C51.73 -16.95, 46.38 -21.6, 33.68 -32.64 M49.49 -29.5 C47.26 -31.43, 45.04 -33.37, 39.68 -38.02 M49.49 -29.5 C46.8 -31.84, 44.11 -34.18, 39.68 -38.02" stroke="#15aabf" stroke-width="1" fill="none"></path><path d="M0 0 C5.74 15.11, 11.48 30.21, 19 50 M0 0 C4.58 12.06, 9.17 24.13, 19 50 M19 50 C36.06 32.94, 53.11 15.89, 64 5 M19 50 C30.45 38.55, 41.9 27.1, 64 5 M64 5 C59.12 -6.22, 54.24 -17.45, 44 -41 M64 5 C59.68 -4.94, 55.36 -14.88, 44 -41 M44 -41 C27.07 -25.22, 10.13 -9.44, 0 0 M44 -41 C29.83 -27.79, 15.65 -14.59, 0 0 M0 0 C0 0, 0 0, 0 0 M0 0 C0 0, 0 0, 0 0" stroke="#a61e4d" stroke-width="2" fill="none"></path></g></g><g stroke-opacity="0.6" fill-opacity="0.6" transform="translate(212.23964367061853 10) rotate(0 102 18)"><text x="0" y="25" font-family="Virgil, Segoe UI Emoji" font-size="28px" fill="#ced4da" text-anchor="start" style="white-space: pre;" direction="ltr">surface normal</text></g><g stroke-linecap="round"><g stroke-opacity="0.6" fill-opacity="0.6" transform="translate(523.2396436706186 437.5) rotate(0 183.54184501722966 -1.3564719370420448)"><path d="M1.56 -1.79 C115.02 -0.59, 236.6 2.57, 367.06 -1.96 M-0.62 -0.99 C135.77 -2.57, 273.07 -4.07, 367.7 -2.36" stroke="#1864ab" stroke-width="4" fill="none"></path></g></g><g stroke-linecap="round"><g stroke-opacity="0.6" fill-opacity="0.6" transform="translate(567.2396436706186 434.5) rotate(0 158.95341495258202 -56.87118172753452)" fill-rule="evenodd"><path d="M39.97 -65.96 C39.97 -65.96, 39.97 -65.96, 39.97 -65.96 M39.97 -65.96 C39.97 -65.96, 39.97 -65.96, 39.97 -65.96 M13.6 -33.16 C27.12 -45.59, 36.78 -58.21, 61.59 -90.38 M19.01 -33.47 C34.98 -55.79, 53.86 -77.2, 63.62 -86.56 M13.66 -25.15 C32.52 -49.25, 59.04 -77.74, 82.33 -94.45 M12.85 -22.78 C35.43 -49.76, 57.36 -73, 80.79 -99.49 M4.14 -12.31 C31.05 -36.66, 47.67 -57.41, 88.5 -100.53 M7.78 -10.27 C23.79 -33.47, 45.17 -53.41, 87.94 -103.07 M5.34 0.36 C34.29 -36.02, 68.25 -70.17, 100.42 -104.27 M0.65 2.63 C28.49 -32.17, 56.88 -61.83, 95.81 -105.82 M6.38 0.59 C45.96 -40.25, 81.47 -84.15, 101.3 -111.65 M7.17 1.16 C41 -38.18, 75.31 -77.77, 105.43 -108.03 M12.19 2.9 C46.21 -38.12, 79.21 -69.62, 112.17 -107.58 M11.21 2.85 C46.89 -32.64, 78.08 -69.21, 109.43 -110.77 M16.7 2.84 C43.73 -37.8, 76.41 -72.51, 115.66 -111.12 M16.51 3.44 C49.51 -35.1, 80.19 -67.3, 118.2 -111.47 M20.79 4.03 C50.8 -23.02, 74.17 -50.31, 119.13 -114.46 M22.82 3.52 C50.69 -29.13, 76.03 -59.57, 121.39 -111.29 M26.71 4.48 C56.73 -21.26, 81.37 -49.41, 125 -113.69 M26.85 2.47 C66.26 -42.78, 107.87 -89.37, 128.59 -110.26 M34.45 3.51 C53.89 -27.98, 77.98 -53.84, 136.59 -110.32 M32.93 1.04 C59.56 -28.25, 89.63 -61.58, 133.59 -113.14 M39.54 0.33 C69.06 -33.68, 109.36 -72.1, 142.46 -115.73 M37.21 3.5 C72.15 -39.08, 108.31 -79.47, 137.07 -114.31 M46.79 0.49 C73.06 -36.03, 107.71 -69.73, 149.53 -116.48 M43.77 3.76 C66.48 -21.61, 92.26 -49.79, 146.09 -115.38 M50.7 -1.14 C83.44 -32.44, 109.99 -63.26, 152.89 -111.23 M51.39 3.97 C80.47 -36.02, 113.9 -71.47, 150.28 -114.57 M53.87 5.97 C84.93 -32.99, 110.12 -66.29, 154.07 -110.59 M54.4 4.46 C78.49 -29.36, 107.61 -59.99, 154.48 -114.86 M64.08 -1.86 C91.12 -35.1, 118.46 -70.77, 158.91 -113.52 M62.05 1.53 C88.44 -26.93, 115.31 -59.8, 163.02 -112.82 M64.76 -0.15 C90.4 -24.27, 117.82 -56.9, 167.93 -110.69 M63.38 1.39 C98.91 -31.93, 125.39 -69.83, 168.42 -114.28 M67.3 2.64 C106.57 -40.69, 148.06 -83.03, 169.46 -112.6 M69.96 2.75 C106.05 -37.72, 139.93 -74.79, 170.92 -110.89 M76.9 3.66 C107.99 -35.44, 139.93 -66.35, 172.63 -107.95 M76.04 2.94 C104.65 -32.84, 136.63 -69.21, 173.81 -110.84 M82.3 4.17 C99.93 -19.64, 121.53 -41.75, 182.53 -113.57 M82.7 4.11 C113.64 -34.66, 143.63 -67.25, 181.03 -109.18 M84.14 0.53 C106.41 -18.26, 129.49 -42.27, 180.62 -111.44 M88.56 3.73 C109.01 -20.03, 128.03 -42.71, 183.9 -109.16 M89.45 2.45 C113.55 -24.99, 136.36 -52.94, 185.13 -112.67 M90.68 4.57 C132.22 -41.87, 166.81 -84.01, 187.91 -110.66 M100 -0.02 C137.38 -35.89, 172.59 -79.04, 191.47 -110.56 M95.25 1.29 C135.06 -40.2, 170.36 -83.24, 195.5 -107.57 M102.12 2.04 C124.63 -28.89, 154.18 -61.04, 198.02 -109.51 M101.78 2.52 C135.04 -30.95, 164.64 -67.96, 198.27 -105.1 M104.39 2.9 C126.35 -22.96, 154.78 -45.99, 204.48 -104.35 M107.23 1.08 C145.17 -40.87, 183.67 -85.28, 201.61 -103.49 M110.08 5.17 C136.69 -27.89, 165.64 -55.72, 207 -102.81 M112.71 4.52 C143.94 -31.36, 174.81 -71.79, 206.31 -104.83 M119.59 6.07 C140.66 -26.07, 161.87 -46.3, 207.26 -98.74 M116.42 1.03 C139.58 -24.79, 161 -49.64, 207.94 -102.69 M118.82 4.41 C143.45 -24.72, 169.64 -45.06, 212.21 -99.93 M124.32 2.08 C147.84 -25.87, 172 -49.98, 211.01 -98.26 M124.93 -0.88 C156.86 -30.78, 193.28 -70.06, 217.83 -99.78 M130.26 4.49 C154.3 -25, 179.21 -55.41, 215.07 -96.47 M136.16 3.71 C157.13 -27.66, 180.79 -54.86, 216.85 -97.11 M132.23 4.64 C157.64 -26.27, 179.32 -53.93, 220.85 -94.11 M136.12 5.31 C163.02 -24.32, 187.58 -58.86, 222.56 -91.89 M138.97 1 C167.01 -30.79, 197.21 -63.41, 224.38 -91.95 M144.33 6.91 C164.83 -21.72, 187.98 -46.32, 228.49 -88.97 M142.93 4.08 C164.33 -18.12, 183.44 -43.17, 227.11 -90.89 M149.22 1.56 C173.86 -29.28, 200.75 -54.18, 232.22 -93.86 M151.59 2.28 C178.69 -34.09, 213.99 -71.53, 230.07 -88.05 M158.61 6.7 C180.39 -28.17, 206.38 -58.25, 235.09 -84.47 M156.36 3.73 C181.8 -30.95, 210.5 -62.88, 235.91 -88.94 M156.04 7.11 C178.38 -17.07, 188.69 -31.46, 233.96 -86.86 M159.31 2.99 C186.64 -25.42, 208.62 -55.05, 239.14 -87.53 M162.61 1.42 C190.85 -26.79, 215.41 -51.79, 244.97 -82.98 M165.28 3.09 C187.92 -24.05, 212.54 -46.74, 240.15 -82.41 M170.71 0.62 C192.3 -24.12, 212.26 -42.48, 246.63 -77.68 M170.11 1.73 C187.56 -19.86, 205.41 -39.28, 242.76 -80.17 M172.37 3.03 C207.68 -28.74, 233.59 -62.19, 246.18 -81.47 M175.27 1.86 C201.14 -22.48, 224.96 -52.31, 246.91 -78.52 M177.78 4.6 C192.93 -16.68, 215.23 -31.81, 250.77 -76.99 M180.81 5.55 C205.84 -20.17, 226.65 -50.28, 250.23 -77.12 M187.61 5.86 C206.93 -18.51, 222.24 -39.18, 255.13 -75.3 M184.05 4.66 C202.29 -19.09, 225.3 -40.13, 254.07 -74.27 M190.82 2.44 C205.05 -15.92, 225.67 -32.64, 257.34 -71.59 M191.71 2.92 C211.75 -21.59, 232.92 -43.8, 257.67 -71.03 M194.41 7.6 C212.44 -8.09, 225.91 -25.3, 263.25 -69.22 M196.12 2.07 C211.46 -16.51, 232.1 -36.64, 260.95 -67.53 M203.79 3.16 C218.56 -19.42, 244.73 -36.78, 264.28 -61.66 M201.91 4.49 C221.22 -17.09, 239.8 -42.15, 260.66 -65.4 M209.25 5.84 C221.12 -12.28, 237.94 -22.65, 263.06 -62.56 M206.85 3.09 C227.47 -19.47, 247.35 -42.91, 266.41 -62.17 M215 1.41 C228.24 -18.47, 241.33 -31.24, 268.62 -56.22 M213.31 3.13 C231.93 -18.99, 251.12 -40.36, 266.26 -58.06 M217.64 3.04 C226.8 -7.18, 241.39 -26.89, 268.08 -53.82 M217.05 4.17 C230.19 -9.43, 241.83 -25.14, 268.76 -56.66 M226.52 2.21 C235.56 -7.28, 250.01 -27.12, 274.42 -49.21 M222 2.63 C241.29 -13.99, 259.46 -36.1, 273.05 -53.09 M229.48 7.27 C239.8 -11.78, 255.94 -33.95, 274.23 -50.1 M228.36 1.94 C237.93 -7.2, 250.44 -19.94, 271.11 -45.54 M230.71 1.93 C246.34 -16.31, 265.47 -27.54, 272.11 -47.16 M232.82 2.69 C250.25 -12.28, 265.3 -31.91, 274.39 -44.7 M239.03 0.24 C255.75 -12.07, 262.32 -28.61, 280.43 -39.4 M239.22 5.22 C246.13 -6.14, 256.06 -15.77, 278.06 -39.63 M246.39 0.85 C258.1 -11.9, 262.9 -22.07, 277.13 -35.75 M243.47 3.5 C254.04 -8.28, 266.47 -21.1, 277.09 -35.62 M248.26 2.03 C252.67 -5.85, 260.9 -14.18, 282.03 -32.06 M248.24 3.76 C263.21 -10.56, 273.66 -24.59, 281.02 -31.59 M258.03 -0.63 C264.21 -10.67, 275.05 -18.83, 279.35 -24.78 M255.77 1.88 C262.71 -4.24, 269.08 -10.83, 282.81 -30.17 M262.82 2.59 C264.29 -6.58, 272.38 -7.5, 286.07 -28.06 M262.1 3.76 C270.84 -6.8, 279.04 -17.78, 285.57 -23.12 M268.51 1.75 C270.7 -1.24, 282.95 -11.8, 285.66 -19.17 M264.4 3.15 C272.85 -3.3, 277.4 -9.06, 286.7 -21.21 M274.82 4.26 C278.43 -4.92, 284.97 -5.84, 289.93 -20.03 M270.43 2.35 C275.94 -5.29, 284.73 -12.92, 290.06 -16.02 M279.74 2.88 C282.19 -6.69, 284.92 -9.06, 287.31 -10.21 M277.44 3.77 C281.1 -3.76, 288.55 -10.23, 292.7 -13.41 M281.51 1.97 C286.66 -1.19, 290.86 -8.38, 293.27 -11.99 M283.82 3.46 C285.65 -2.53, 289.22 -6.24, 293.5 -7.92 M287.59 2.37 C290.82 -0.29, 292.53 -2.28, 293.37 -6.79 M287.5 1.89 C290.69 -0.94, 292.27 -1.52, 294.25 -6.63 M294.09 2.79 C294.49 0.63, 295.07 -1.33, 296.9 -3.27 M293.91 1.53 C294.95 1.34, 295.66 -0.52, 297.52 -3.23 M299.35 1.37 C301.12 -0.01, 300.27 -1.55, 302.57 -2.38 M298.57 2.21 C299.5 1.51, 300.32 -0.37, 302.35 -2.33 M304.02 2.5 C305.3 1.92, 304.7 0.54, 306.38 -1.71 M304.06 1.75 C304.98 1.64, 305.56 0.9, 306.57 -0.59 M310.02 1.6 C310.56 1.32, 310.74 0.69, 311.05 0.04 M309.61 1.52 C310.12 1.23, 310.77 0.62, 311.08 0.31 M314.64 1.84 C315.11 1.66, 315.09 1.44, 315.58 1.33 M314.85 1.96 C314.89 1.9, 315.16 1.57, 315.4 1.26" stroke="#f2aa74" stroke-width="0.5" fill="none"></path><path d="M-2.14 0.92 C0.18 -4.43, 7.53 -23.36, 14.34 -34.76 C21.15 -46.15, 30.17 -58.16, 38.7 -67.45 C47.23 -76.73, 55.53 -83.44, 65.53 -90.46 C75.54 -97.48, 85.58 -105.36, 98.72 -109.57 C111.86 -113.78, 128.6 -115.36, 144.35 -115.72 C160.11 -116.08, 176.23 -117.94, 193.25 -111.74 C210.27 -105.53, 233.01 -88.51, 246.49 -78.48 C259.97 -68.45, 266.56 -63, 274.14 -51.56 C281.72 -40.12, 288.19 -19.2, 291.97 -9.83 C295.74 -0.47, 345.32 3.18, 296.78 4.62 C248.25 6.05, 49.89 -0.38, 0.75 -1.2 M1.9 -1.04 C3.75 -7.01, 6.03 -28.41, 11.75 -39.09 C17.46 -49.77, 28.33 -56.77, 36.19 -65.12 C44.04 -73.47, 48.76 -81.79, 58.85 -89.19 C68.94 -96.59, 81.98 -104.61, 96.73 -109.5 C111.47 -114.4, 130.88 -118.95, 147.34 -118.57 C163.79 -118.19, 178.02 -113.9, 195.44 -107.22 C212.87 -100.54, 239.23 -88.41, 251.89 -78.46 C264.54 -68.52, 264.37 -58.67, 271.35 -47.57 C278.33 -36.48, 289.23 -19.78, 293.76 -11.9 C298.29 -4.02, 347.83 -1.79, 298.5 -0.28 C249.18 1.23, 46.99 -2.49, -2.18 -2.85" stroke="#364fc7" stroke-width="1" fill="none"></path></g></g><g stroke-linecap="round"><g stroke-opacity="0.6" fill-opacity="0.6" transform="translate(714.2396436706186 435.5) rotate(0 1.9066927397251447 -107.47998412027954)"><path d="M2.38 0.99 C2.2 -35.23, -0.09 -179.84, -0.59 -215.95 M0.22 -0.94 C0.83 -36.89, 3.65 -177.51, 4.4 -212.84" stroke="#ced4da" stroke-width="4" fill="none"></path></g><g stroke-opacity="0.6" fill-opacity="0.6" transform="translate(714.2396436706186 435.5) rotate(0 1.9066927397251447 -107.47998412027954)"><path d="M15.5 -188.14 C9.37 -197.07, 6.69 -200.91, 8.39 -210.13 M15.99 -184.86 C10.83 -196.56, 5.6 -207.68, 3.35 -212.98" stroke="#ced4da" stroke-width="4" fill="none"></path></g><g stroke-opacity="0.6" fill-opacity="0.6" transform="translate(714.2396436706186 435.5) rotate(0 1.9066927397251447 -107.47998412027954)"><path d="M-5.02 -188.57 C-4.63 -197.7, -0.78 -201.41, 8.39 -210.13 M-4.53 -185.29 C-1.69 -196.96, 1.06 -207.92, 3.35 -212.98" stroke="#ced4da" stroke-width="4" fill="none"></path></g></g><g stroke-linecap="round"><g transform="translate(577.2129587166719 257.9508422300696) rotate(0 66.02668495394676 86.54915776993033)"><path d="M0 0 C28.12 36.87, 56.25 73.73, 132.05 173.1 M0 0 C29.8 39.06, 59.59 78.12, 132.05 173.1" stroke="#f2aa74" stroke-width="4" fill="none"></path></g><g transform="translate(577.2129587166719 257.9508422300696) rotate(0 66.02668495394676 86.54915776993033)"><path d="M25.26 16.19 C19.88 12.74, 14.5 9.29, 0 0 M25.26 16.19 C19.56 12.54, 13.86 8.88, 0 0" stroke="#f2aa74" stroke-width="4" fill="none"></path></g><g transform="translate(577.2129587166719 257.9508422300696) rotate(0 66.02668495394676 86.54915776993033)"><path d="M8.94 28.64 C7.04 22.54, 5.13 16.44, 0 0 M8.94 28.64 C6.92 22.18, 4.91 15.71, 0 0" stroke="#f2aa74" stroke-width="4" fill="none"></path></g></g><g stroke-linecap="round"><g stroke-opacity="0.6" fill-opacity="0.6" transform="translate(247.23964367061853 344.5) rotate(0 127.25180961966515 76.59261722476958)"><path d="M1.62 -2.22 C8.92 19.75, 22.52 104.4, 45.2 130.28 C67.88 156.16, 112 151.3, 137.68 153.08 C163.36 154.87, 179.66 147.94, 199.29 140.99 C218.92 134.04, 246.36 116.69, 255.46 111.38 M-0.95 2.74 C7.04 25.19, 27.31 107.57, 50.08 132.98 C72.86 158.38, 110.89 153.47, 135.7 155.15 C160.51 156.83, 179.43 150.06, 198.95 143.04 C218.46 136.03, 243.08 119.19, 252.77 113.06" stroke="#15aabf" stroke-width="1" fill="none"></path></g><g stroke-opacity="0.6" fill-opacity="0.6" transform="translate(247.23964367061853 344.5) rotate(0 127.25180961966515 76.59261722476958)"><path d="M231.44 132.94 C238.77 127.92, 244.84 117.59, 251.33 115.14 M236.23 138.85 C240.06 128.69, 248.66 121.99, 252.05 112.74" stroke="#15aabf" stroke-width="1" fill="none"></path></g><g stroke-opacity="0.6" fill-opacity="0.6" transform="translate(247.23964367061853 344.5) rotate(0 127.25180961966515 76.59261722476958)"><path d="M220.34 115.68 C231.36 116.57, 241.3 112.27, 251.33 115.14 M225.13 121.59 C232.82 117.53, 245.3 116.86, 252.05 112.74" stroke="#15aabf" stroke-width="1" fill="none"></path></g></g><g stroke-linecap="round"><g stroke-opacity="0.6" fill-opacity="0.6" transform="translate(583.2396436706185 74.5) rotate(0 25.5 23)"><path d="M0 0 C14.76 7.23, 29.51 14.47, 51 25 M0 0 C16.53 8.1, 33.06 16.2, 51 25 M51 25 C43.42 30.49, 35.83 35.98, 22 46 M51 25 C41.11 32.16, 31.21 39.33, 22 46" stroke="#a61e4d" stroke-width="2" fill="none"></path></g></g><g stroke-linecap="round"><g stroke-opacity="0.6" fill-opacity="0.6" transform="translate(538.2396436706185 115.5) rotate(0 47 17.5)"><path d="M0 0 C35.41 -5.65, 70.82 -11.3, 94 -15 M0 0 C21.12 -3.37, 42.23 -6.74, 94 -15 M94 -15 C72.13 5.02, 50.27 25.04, 23 50 M94 -15 C71.21 5.86, 48.43 26.72, 23 50" stroke="#a61e4d" stroke-width="2" fill="none"></path></g></g><g stroke-linecap="round" transform="translate(624.2396436706185 90.5) rotate(0 9 9)"><path d="M9 0 C10.83 -0.11, 13.31 0.87, 14.79 2.11 C16.26 3.35, 17.53 5.54, 17.86 7.44 C18.2 9.34, 17.76 11.83, 16.79 13.5 C15.83 15.17, 13.89 16.8, 12.08 17.46 C10.27 18.12, 7.73 18.12, 5.92 17.46 C4.11 16.8, 2.17 15.17, 1.21 13.5 C0.24 11.83, -0.2 9.34, 0.14 7.44 C0.47 5.54, 1.74 3.35, 3.21 2.11 C4.69 0.87, 8.04 0.32, 9 0 C9.96 -0.32, 9 0.03, 9 0.18 M9 0 C10.83 -0.11, 13.31 0.87, 14.79 2.11 C16.26 3.35, 17.53 5.54, 17.86 7.44 C18.2 9.34, 17.76 11.83, 16.79 13.5 C15.83 15.17, 13.89 16.8, 12.08 17.46 C10.27 18.12, 7.73 18.12, 5.92 17.46 C4.11 16.8, 2.17 15.17, 1.21 13.5 C0.24 11.83, -0.2 9.34, 0.14 7.44 C0.47 5.54, 1.74 3.35, 3.21 2.11 C4.69 0.87, 8.04 0.32, 9 0 C9.96 -0.32, 9 0.03, 9 0.18" stroke="none" stroke-width="0" fill="#e64980"></path><path d="M9 0 C10.83 -0.11, 13.31 0.87, 14.79 2.11 C16.26 3.35, 17.53 5.54, 17.86 7.44 C18.2 9.34, 17.76 11.83, 16.79 13.5 C15.83 15.17, 13.89 16.8, 12.08 17.46 C10.27 18.12, 7.73 18.12, 5.92 17.46 C4.11 16.8, 2.17 15.17, 1.21 13.5 C0.24 11.83, -0.2 9.34, 0.14 7.44 C0.47 5.54, 1.74 3.35, 3.21 2.11 C4.69 0.87, 8.04 0.32, 9 0 C9.96 -0.32, 9 0.03, 9 0.18 M9 0 C10.83 -0.11, 13.31 0.87, 14.79 2.11 C16.26 3.35, 17.53 5.54, 17.86 7.44 C18.2 9.34, 17.76 11.83, 16.79 13.5 C15.83 15.17, 13.89 16.8, 12.08 17.46 C10.27 18.12, 7.73 18.12, 5.92 17.46 C4.11 16.8, 2.17 15.17, 1.21 13.5 C0.24 11.83, -0.2 9.34, 0.14 7.44 C0.47 5.54, 1.74 3.35, 3.21 2.11 C4.69 0.87, 8.04 0.32, 9 0 C9.96 -0.32, 9 0.03, 9 0.18" stroke="#a61e4d" stroke-width="2" fill="none"></path></g><g transform="translate(651.2396436706185 62) rotate(0 7 18)"><text x="0" y="25" font-family="Virgil, Segoe UI Emoji" font-size="28px" fill="#a61e4d" text-anchor="start" style="white-space: pre;" direction="ltr">c</text></g><g transform="translate(345.23964367061853 126) rotate(343.967660646064 57.5 18)"><text x="0" y="25" font-family="Virgil, Segoe UI Emoji" font-size="28px" fill="#a61e4d" text-anchor="start" style="white-space: pre;" direction="ltr">view ray</text></g><g transform="translate(92.7396436706186 103.5) rotate(53.13010235415594 57.49999999999999 18)"><text x="0" y="25" font-family="Virgil, Segoe UI Emoji" font-size="28px" fill="#f2aa74" text-anchor="start" style="white-space: pre;" direction="ltr">light ray</text></g><g stroke-linecap="round"><g transform="translate(932.7663286245653 316.4508422300697) rotate(180 -108.02668495394687 58.049157769930275)"><path d="M0 0 C-78.72 42.3, -157.44 84.6, -216.05 116.1 M0 0 C-52.09 27.99, -104.18 55.98, -216.05 116.1" stroke="#a61e4d" stroke-width="4" fill="none"></path></g><g transform="translate(932.7663286245653 316.4508422300697) rotate(180 -108.02668495394687 58.049157769930275)"><path d="M-196.08 93.72 C-203.36 101.87, -210.63 110.03, -216.05 116.1 M-196.08 93.72 C-200.89 99.11, -205.71 104.51, -216.05 116.1" stroke="#a61e4d" stroke-width="4" fill="none"></path></g><g transform="translate(932.7663286245653 316.4508422300697) rotate(180 -108.02668495394687 58.049157769930275)"><path d="M-186.36 111.79 C-197.18 113.36, -208 114.93, -216.05 116.1 M-186.36 111.79 C-193.52 112.83, -200.68 113.87, -216.05 116.1" stroke="#a61e4d" stroke-width="4" fill="none"></path></g></g><g transform="translate(627.2396436706185 257) rotate(0 3.5 18)"><text x="0" y="25" font-family="Virgil, Segoe UI Emoji" font-size="28px" fill="#f2aa74" text-anchor="start" style="white-space: pre;" direction="ltr">l</text></g><g transform="translate(893.2396436706184 273) rotate(0 7.5 18)"><text x="0" y="25" font-family="Virgil, Segoe UI Emoji" font-size="28px" fill="#a61e4d" text-anchor="start" style="white-space: pre;" direction="ltr">v</text></g><g transform="translate(736.2396436706185 186) rotate(0 6.5 18)"><text x="0" y="25" font-family="Virgil, Segoe UI Emoji" font-size="28px" fill="#ced4da" text-anchor="start" style="white-space: pre;" direction="ltr">n</text></g><g stroke-linecap="round"><g stroke-opacity="0.6" fill-opacity="0.6" transform="translate(1033.7305642046258 149.75965490414336) rotate(0 112.35154316929663 -2.0977880463637177)"><path d="M-3.07 0.65 C86.43 -3.57, 169.51 0.38, 226.56 -4.85 M-0.07 -1.09 C68.26 -1.84, 138.99 -3.4, 227.77 -2.79" stroke="#1864ab" stroke-width="4" fill="none"></path></g></g><g stroke-linecap="round"><g stroke-opacity="0.6" fill-opacity="0.6" transform="translate(1060.7877750557186 191.42300082862744) rotate(0 97.08048755902598 -78.82806863415226)" fill-rule="evenodd"><path d="M9.16 -66.24 C9.16 -66.24, 9.16 -66.24, 9.16 -66.24 M9.16 -66.24 C9.16 -66.24, 9.16 -66.24, 9.16 -66.24 M7.63 -53.67 C20.09 -71.92, 27.08 -79.35, 37.75 -100.67 M5.14 -55.06 C14.44 -66.35, 24.47 -74.78, 40.15 -95.26 M-3.39 -41.43 C19.51 -69.08, 38.69 -87.93, 52.36 -103.35 M1.64 -42.71 C13.94 -57.93, 27.4 -76.5, 50.65 -101.87 M8.39 -40.2 C28.17 -67.3, 48.45 -95.09, 59.94 -110.65 M5.85 -44.06 C26.5 -68.3, 51.59 -94.23, 63.24 -110.17 M11.27 -46.9 C29.68 -61.79, 43.55 -81.68, 69.04 -106.61 M9.3 -44.04 C28.08 -61.43, 41.01 -79.13, 68.17 -111.28 M18.63 -41.94 C33.25 -66.89, 60.59 -93.96, 76.46 -109.01 M18.24 -42.78 C31.83 -63.11, 43.76 -79.21, 74.99 -109.14 M18.28 -40.35 C40.79 -67.03, 62.59 -96.88, 81.87 -114.45 M21.35 -43.15 C37.96 -62.07, 52.14 -80.72, 81.49 -110 M25.39 -45.58 C48.11 -67.84, 72.02 -93, 85.4 -108.97 M25.1 -44.88 C49.08 -69.27, 71.28 -93.8, 85.74 -113.35 M29.04 -47.2 C45.9 -54.87, 55.67 -72.74, 90.86 -114.48 M30.66 -42.68 C55.46 -70.74, 80.85 -98.21, 91.59 -110.81 M37.22 -46.71 C55.73 -63.83, 74.4 -84.6, 93.38 -109.07 M37.23 -44.38 C52.76 -62.01, 67.44 -75.83, 94.78 -110.73 M39.32 -47.23 C62.59 -62.74, 75.73 -86.1, 102.51 -109.94 M42.94 -45.04 C55.32 -56.71, 67.27 -70.66, 100.37 -113.56 M51.1 -47.31 C62.14 -63.87, 77.26 -73.44, 108.69 -111.73 M48.22 -45.1 C64.59 -63.81, 76.29 -78.02, 107.54 -110.51 M53.24 -46.62 C75.29 -69.8, 96.85 -94.46, 115.61 -114.95 M52.69 -44.48 C70.42 -59.52, 84.83 -79.75, 112.44 -112.39 M59.67 -47 C74.89 -69.89, 97.69 -87.5, 115.34 -113.01 M57.84 -43.96 C71.49 -59.91, 88.08 -76.48, 117.58 -109.01 M67.33 -45.92 C81.72 -60.8, 94.36 -81.92, 122.7 -106.98 M63.23 -43.06 C81.4 -67.59, 100.84 -86.97, 120.64 -108.27 M69.96 -46.01 C81.5 -60.22, 103.76 -81.18, 121.73 -111.32 M70.62 -41.92 C84.53 -61.95, 101.15 -78.54, 123.29 -106.34 M78.47 -40.05 C91.62 -58.04, 103.18 -80.72, 128.04 -109.14 M74.7 -42.65 C95.26 -68.26, 115.15 -92.71, 127.93 -107.22 M83.39 -40.7 C94.69 -58.13, 106.32 -77.1, 135.95 -106.7 M79.96 -43.5 C90.2 -59.45, 102.68 -70.19, 131.2 -105.68 M83.93 -42.29 C97.53 -62.47, 114.76 -73.34, 135.56 -98.66 M84.05 -44.93 C97 -57, 107.36 -70.03, 135.4 -100.83 M90.41 -42.54 C107.42 -69.41, 130.28 -88.64, 136.47 -103.83 M90.69 -43.78 C107.84 -59.52, 123.57 -80.36, 138.64 -100.28 M97.34 -44.32 C110.66 -64.84, 133.89 -83.69, 143.58 -96.91 M97.02 -43.38 C106.38 -57.17, 120.91 -69.61, 144.95 -100.25 M101.84 -45.4 C111.78 -52.32, 120.48 -62.37, 149.45 -101.01 M102.49 -43.67 C113.04 -56.32, 123.41 -73.6, 147.08 -98.45 M108.72 -40.19 C120.61 -60.74, 143.18 -82.1, 146.8 -91.62 M108.2 -43.32 C119.6 -55.65, 130.48 -67.76, 149.31 -94.45 M108.89 -41.5 C121.39 -58.46, 137.1 -67.54, 150.15 -95.14 M109.83 -41.87 C125.84 -57.86, 136.6 -74.47, 151.53 -92.55 M116.46 -42.31 C130.99 -53.04, 142.88 -66.94, 158.98 -91.38 M116.97 -45.87 C125.08 -54.07, 135.69 -65.94, 154.72 -88.68 M123.14 -45.46 C131.9 -62.4, 149.69 -74.14, 158.81 -82.78 M122.01 -42.92 C129 -51.67, 137.34 -60.84, 160.42 -88.01 M127.31 -41.48 C140.61 -57.26, 154.11 -76.93, 160.9 -82.19 M127.52 -43.94 C135.06 -56.59, 146.75 -66.91, 160.83 -85.06 M136.52 -46.26 C137.95 -48.33, 143.93 -62.52, 160.75 -83.09 M131.12 -45.15 C138.59 -49.44, 143.61 -60.33, 163.67 -78.32 M139.78 -46.11 C150.04 -57.39, 160.97 -68.54, 165.75 -75.89 M136.2 -41.54 C145.62 -53.97, 154.52 -64.72, 166.19 -74.94 M145.38 -47.25 C154.62 -50.15, 160.26 -61.64, 167.65 -71.87 M144.08 -44.71 C149.56 -51.09, 157.58 -60.22, 170.03 -71.04 M146.67 -45.27 C154.99 -51.58, 160.48 -57.33, 173.01 -65.48 M150.16 -44.73 C155.93 -49.71, 162.81 -59.44, 170.06 -66.34 M150.4 -42.17 C161.95 -47.72, 165.53 -51.82, 175.54 -67.3 M154.63 -43.56 C157.4 -48.74, 162.94 -56.83, 173.04 -65.55 M155.22 -44.1 C160.75 -51.13, 169.71 -49.14, 174.6 -61.82 M159.36 -45.12 C164.04 -46.77, 167.14 -52.36, 174.56 -60.5 M164.66 -46.79 C170.05 -46.46, 172.75 -56.18, 179.81 -57.19 M163.42 -45.3 C168.86 -45.55, 169.38 -48.64, 174.57 -56.38 M167.04 -43.1 C172.08 -44.66, 172.98 -49.44, 176.38 -51.71 M170.65 -43.08 C171.21 -44.52, 174.2 -48.6, 177.57 -53.26 M174.64 -44.09 C175.81 -44.04, 177.03 -45.98, 178.83 -48.33 M174.56 -43.9 C176.75 -45.31, 178.83 -47.15, 179.82 -48.96 M179.88 -43.65 C181 -44.9, 181.67 -45.94, 183.35 -47.14 M180.55 -43.18 C180.49 -44.02, 181.67 -45.36, 182.9 -46.6 M185.54 -44.22 C186.42 -44.71, 186.54 -44.73, 186.74 -45.06 M185.94 -43.74 C186.16 -44.35, 186.62 -44.75, 186.96 -45.45 M190.79 -43.5 C190.79 -43.5, 190.79 -43.5, 190.79 -43.5 M190.79 -43.5 C190.79 -43.5, 190.79 -43.5, 190.79 -43.5" stroke="#f2aa74" stroke-width="0.5" fill="none"></path><path d="M-2.51 -43.62 C-1.11 -47.7, 5.71 -61.73, 10.04 -68.28 C14.38 -74.84, 18.71 -77.53, 23.49 -82.96 C28.27 -88.38, 32.74 -96.21, 38.7 -100.82 C44.66 -105.44, 50.65 -108.26, 59.24 -110.65 C67.82 -113.03, 80.67 -114.75, 90.21 -115.12 C99.75 -115.49, 106.07 -116.83, 116.49 -112.85 C126.9 -108.88, 144.47 -97.99, 152.69 -91.27 C160.92 -84.56, 161.56 -79.2, 165.83 -72.57 C170.11 -65.95, 175.3 -56.23, 178.34 -51.51 C181.38 -46.8, 214.16 -45.12, 184.06 -44.28 C153.96 -43.43, 28.7 -46.69, -2.28 -46.42 M1.32 -45.8 C2.27 -49.61, 4.95 -58.76, 8.24 -65.71 C11.53 -72.66, 15.89 -81.84, 21.06 -87.48 C26.22 -93.12, 33.43 -95.85, 39.22 -99.55 C45.02 -103.25, 48.13 -106.68, 55.82 -109.7 C63.52 -112.71, 75.18 -117.94, 85.38 -117.64 C95.59 -117.34, 106.22 -112.35, 117.03 -107.9 C127.84 -103.44, 141.47 -96.41, 150.23 -90.9 C158.99 -85.4, 164.74 -82.49, 169.59 -74.88 C174.44 -67.27, 178.01 -50.63, 179.32 -45.26 C180.63 -39.89, 207.03 -43.56, 177.44 -42.68 C147.86 -41.81, 31.75 -39.83, 1.79 -40.02" stroke="#364fc7" stroke-width="1" fill="none"></path></g></g><g stroke-linecap="round"><g stroke-opacity="0.6" fill-opacity="0.6" transform="translate(1150.682865409709 146.69313600389148) rotate(0 1.0043386475477973 -66.39639853774491)"><path d="M0.53 0.8 C0.36 -21.05, -1.14 -111.37, -0.72 -133.59 M-2.62 -1.23 C-1.94 -22.47, 3.81 -109.21, 4.63 -130.59" stroke="#ced4da" stroke-width="4" fill="none"></path></g><g stroke-opacity="0.6" fill-opacity="0.6" transform="translate(1150.682865409709 146.69313600389148) rotate(0 1.0043386475477973 -66.39639853774491)"><path d="M14.5 -104.67 C9.5 -108.18, 8.26 -123.31, 4.78 -130.53 M12.69 -101.94 C12.03 -112.75, 8.86 -122.14, 2.9 -128.92" stroke="#ced4da" stroke-width="4" fill="none"></path></g><g stroke-opacity="0.6" fill-opacity="0.6" transform="translate(1150.682865409709 146.69313600389148) rotate(0 1.0043386475477973 -66.39639853774491)"><path d="M-5.99 -105.77 C-4.6 -109.01, 0.56 -123.81, 4.78 -130.53 M-7.8 -103.05 C-1.66 -113.23, 1.96 -122.25, 2.9 -128.92" stroke="#ced4da" stroke-width="4" fill="none"></path></g></g><g stroke-linecap="round"><g transform="translate(1067.5771325994497 37.494122954458476) rotate(0 40.67340100112392 53.31554359788436)"><path d="M0 0 C17.1 22.42, 34.21 44.84, 81.35 106.63 M0 0 C24.06 31.53, 48.11 63.07, 81.35 106.63" stroke="#f2aa74" stroke-width="4" fill="none"></path></g><g transform="translate(1067.5771325994497 37.494122954458476) rotate(0 40.67340100112392 53.31554359788436)"><path d="M25.26 16.19 C19.95 12.79, 14.64 9.38, 0 0 M25.26 16.19 C17.79 11.4, 10.32 6.61, 0 0" stroke="#f2aa74" stroke-width="4" fill="none"></path></g><g transform="translate(1067.5771325994497 37.494122954458476) rotate(0 40.67340100112392 53.31554359788436)"><path d="M8.94 28.64 C7.06 22.62, 5.18 16.59, 0 0 M8.94 28.64 C6.3 20.17, 3.65 11.7, 0 0" stroke="#f2aa74" stroke-width="4" fill="none"></path></g></g><g stroke-linecap="round"><g stroke-opacity="0.6" fill-opacity="0.6" transform="translate(1032.8942179760054 316.2548274520716) rotate(0 113.18788939791682 -1.5204874892571638)"><path d="M2.88 2.09 C60.14 -1.77, 120.33 -2.47, 224.33 -5.13 M-0.94 -0.86 C69.26 -2.59, 139.93 -3.9, 227.31 -1.32" stroke="#1864ab" stroke-width="4" fill="none"></path></g></g><g stroke-linecap="round"><g stroke-opacity="0.6" fill-opacity="0.6" transform="translate(1057.9514288270984 313.7598507739858) rotate(0 102.83134606368424 -56.65866399895589)" fill-rule="evenodd"><path d="M16.61 -31.93 C16.61 -31.93, 16.61 -31.93, 16.61 -31.93 M16.61 -31.93 C16.61 -31.93, 16.61 -31.93, 16.61 -31.93 M9.04 -21.61 C18.73 -24.65, 22.64 -35.53, 31.55 -49 M11.9 -20.06 C18.63 -26.58, 23.56 -33, 33.74 -43.96 M8.43 -6.97 C23.59 -29.42, 32.64 -43.18, 49.01 -62.12 M5.7 -8.39 C20.43 -23.97, 30.28 -34.98, 50.93 -59.78 M2.72 2.43 C23.66 -18.17, 45.98 -44.21, 57.79 -61.1 M2.14 3.79 C17.8 -13.98, 29.7 -30.66, 59.89 -66.61 M8.23 -1.2 C26.45 -17.19, 47.99 -48.48, 66.04 -62.02 M9.27 4.15 C24.54 -19.34, 44.5 -38.49, 66.98 -64.12 M9.51 0.05 C38.87 -21.31, 58.45 -50.04, 78.22 -66.66 M12.99 2.39 C38.76 -24.52, 60.48 -50.39, 73.88 -68.73 M15.34 2.16 C40.54 -22.28, 56.68 -46, 80.35 -65.62 M19.5 2.15 C34.66 -18.9, 53.69 -38.1, 81.26 -69.2 M21.93 4.66 C36.78 -12.17, 51.43 -24.97, 86.23 -66.69 M24.76 2.19 C38.43 -14.41, 48.86 -29.98, 85.34 -71.26 M31.34 4.99 C48.76 -22.06, 69.54 -40.94, 89.33 -65.53 M27.43 2.31 C47.03 -18.05, 68.15 -41.52, 92.14 -68.8 M32.55 4.65 C54.1 -24.26, 75.74 -52.24, 97.75 -69.23 M36.22 1.16 C49.09 -14.5, 62.08 -28.12, 94.89 -67.64 M35.96 3.51 C52.46 -19.57, 72.56 -35.9, 101.42 -67.24 M38.77 2.18 C60.51 -21.25, 84.27 -46.72, 99.48 -65.01 M46.34 6.03 C70.2 -21.49, 85.11 -48.71, 105.07 -68.7 M44.99 3.45 C69.44 -23.49, 88.92 -49.88, 103.92 -63.11 M49.37 -0.46 C71.13 -26.64, 99.07 -48.79, 108.75 -62.37 M52.01 3.54 C69.88 -21.81, 94.1 -44.59, 109.2 -65.5 M56.61 0.45 C65.1 -13.93, 83.58 -23.55, 112.8 -66.44 M55.48 3.42 C80.43 -24.63, 103.09 -53.18, 114.61 -67.25 M60.06 0.54 C73.13 -11.08, 92.4 -34.58, 123.78 -64.94 M62.49 4.32 C80.05 -16.44, 98.78 -40.48, 122.08 -67.76 M68.41 5.94 C80.07 -16.49, 100.67 -38.64, 131.94 -71.88 M66.26 2.36 C84.37 -14.91, 99.07 -35.78, 131.97 -75.22 M72.93 3.6 C90.17 -23.85, 115.65 -46.49, 142.66 -83.09 M70.33 2.66 C98.44 -30.85, 125.72 -62.61, 144.96 -78.86 M77.14 -0.13 C90.11 -18.09, 104.76 -31.91, 155.27 -85.82 M76.68 1.49 C94.85 -19.31, 114.08 -41.47, 155.18 -86.93 M85.24 3.41 C104.45 -27.58, 133.88 -58.23, 164.84 -95.74 M80.48 0.88 C114.19 -32.02, 143.54 -67.32, 166.45 -96.06 M88.57 3.51 C115.76 -27.18, 148.74 -62.33, 178.01 -104.64 M86.94 2.48 C123.72 -41.76, 160.81 -80.3, 178.36 -103.34 M94.63 0.3 C122.57 -33.82, 150.4 -70.12, 193.24 -113.52 M94.7 1.47 C115.39 -25.87, 140.41 -52.73, 193.05 -115.79 M97.54 -0.98 C132.31 -34, 161.97 -69.93, 201.67 -117.87 M96.7 4.43 C124.62 -29.8, 151.81 -60.76, 202.32 -116.01 M107.11 0.24 C139.69 -42.15, 176.03 -80.09, 212.84 -119.78 M103.56 3.15 C127.23 -25.42, 152.95 -54, 207.78 -118.65 M111.26 2.16 C143.28 -42.43, 186.1 -89.36, 213.73 -116.84 M108.45 4.61 C134.21 -25.86, 159.16 -54.58, 210.27 -115.7 M113.08 -1.2 C131.27 -21.26, 151.45 -41.42, 203.45 -104.87 M114.45 0.78 C150.44 -36.39, 182.54 -74.28, 206.9 -103.62 M117.29 6.31 C144.64 -28.79, 178.95 -62.49, 194.53 -89.06 M119.46 2.52 C141.5 -24.05, 166.95 -54.45, 198.75 -86.8 M126.63 5.93 C150.05 -29.43, 170.51 -51.65, 193.82 -70.78 M122.9 2.2 C139.55 -14.56, 154.18 -31.18, 190.08 -72.81 M131.59 6.5 C141.16 -9.32, 156.69 -26.36, 177.8 -56.53 M129.85 3.81 C142.45 -17.65, 161.16 -34.72, 182.1 -57.65 M132.23 2.97 C148.73 -9.88, 156.16 -24.73, 172.9 -39.45 M135.24 1.15 C146.58 -10.15, 154.4 -19.93, 171.6 -39.7 M142.49 -0.62 C152.47 -6.52, 162.31 -20.2, 167.74 -28.89 M138.53 4.34 C152.02 -9.15, 163 -22.52, 169.59 -29.64 M144.72 3.12 C147.71 -5.89, 156.15 -10.15, 169.95 -19.75 M144.62 1.82 C152.17 -8.08, 161.57 -18, 168.49 -24.14 M150.68 -0.8 C157.15 -1.16, 161.85 -8.82, 169.58 -18.87 M151.22 2.14 C154.42 -3.38, 158.34 -7.9, 167.93 -16.69 M156.01 0.46 C161.24 -3.86, 164.95 -5.37, 169.68 -14.21 M157.7 3.86 C162.87 -2.29, 165.54 -10.62, 171.68 -15.09 M161.27 5.53 C164.04 -2.03, 171.03 -8.19, 176.26 -10.26 M160.58 1.55 C163.11 -0.72, 168.84 -5.18, 172.43 -9.35 M166.38 2.76 C168.6 -3.46, 175.41 -7.3, 178.92 -10.19 M166.05 3.05 C169.74 0.32, 171.76 -3.38, 177.21 -9.86 M174.06 3.83 C174.6 0.03, 176.18 -5.19, 177.28 -6.71 M172.96 1.5 C174.48 -0.52, 175.93 -2.16, 179.7 -4.68 M176.82 1.41 C178.34 0.06, 178.41 -1.9, 183.13 -2.01 M177.27 3.14 C178.99 1.46, 178.88 0.5, 181.86 -2.7 M182.38 2.34 C182.65 1.47, 184.09 -0.13, 185.97 -1.43 M181.54 3.83 C183.16 2.21, 183.93 0.91, 185.7 -1.22 M187.62 2.47 C189.32 1.16, 189.08 1.52, 190.34 0.07 M188.11 2.56 C188.72 1.78, 189.29 1.29, 190.49 0.05" stroke="#f2aa74" stroke-width="0.5" fill="none"></path><path d="M2.35 1.71 C4.19 -2.13, 5.02 -14.68, 8.5 -21.69 C11.98 -28.7, 18.49 -34.47, 23.22 -40.33 C27.95 -46.2, 30.85 -52.55, 36.87 -56.9 C42.9 -61.25, 50.35 -63.87, 59.34 -66.45 C68.33 -69.03, 81.22 -72.05, 90.81 -72.38 C100.4 -72.7, 97.2 -60.75, 116.87 -68.4 C136.54 -76.04, 200.58 -124.77, 208.84 -118.23 C217.1 -111.69, 171.1 -47.76, 166.42 -29.17 C161.73 -10.58, 178.62 -11.93, 180.74 -6.68 C182.86 -1.42, 209.36 0.97, 179.15 2.37 C148.95 3.76, 29.54 2.04, -0.51 1.69 M0.19 0.17 C1.81 -4.7, 2.45 -20.23, 5.86 -26.43 C9.27 -32.64, 15.54 -32.16, 20.64 -37.05 C25.73 -41.94, 30.52 -51.01, 36.41 -55.75 C42.3 -60.49, 47.66 -63.6, 55.98 -65.48 C64.29 -67.36, 76.04 -65.95, 86.32 -67.03 C96.59 -68.1, 97.6 -63.34, 117.63 -71.92 C137.65 -80.49, 197.64 -125.13, 206.45 -118.46 C215.26 -111.79, 174.4 -50.18, 170.49 -31.88 C166.58 -13.59, 181.69 -14.89, 183.02 -8.69 C184.36 -2.49, 209.71 3.59, 178.52 5.31 C147.33 7.03, 25.83 2.75, -4.12 1.61" stroke="#364fc7" stroke-width="1" fill="none"></path></g></g><g stroke-linecap="round"><g stroke-opacity="0.6" fill-opacity="0.6" transform="translate(1149.8465191810888 313.1883085518198) rotate(0 0.4218401652577768 -67.30389060317458)"><path d="M1.71 -0.74 C1.77 -23.44, 1.75 -111.59, 1.72 -133.87 M-0.8 -3.61 C-1.19 -24.73, -0.37 -109.56, -0.25 -131.01" stroke="#ced4da" stroke-width="4" fill="none"></path></g><g stroke-opacity="0.6" fill-opacity="0.6" transform="translate(1149.8465191810888 313.1883085518198) rotate(0 0.4218401652577768 -67.30389060317458)"><path d="M8.74 -102.05 C3.79 -112, -0.44 -126.15, 0.04 -130.89 M9.35 -102.7 C7.31 -113.65, 3.73 -122.2, -1.5 -132.85" stroke="#ced4da" stroke-width="4" fill="none"></path></g><g stroke-opacity="0.6" fill-opacity="0.6" transform="translate(1149.8465191810888 313.1883085518198) rotate(0 0.4218401652577768 -67.30389060317458)"><path d="M-11.78 -102.2 C-9.58 -112.35, -6.67 -126.45, 0.04 -130.89 M-11.17 -102.85 C-5.96 -113.54, -2.29 -122.04, -1.5 -132.85" stroke="#ced4da" stroke-width="4" fill="none"></path></g></g><g stroke-linecap="round"><g transform="translate(1066.74078637083 203.98929550238677) rotate(0 40.67340100112392 53.31554359788436)"><path d="M0 0 C31.24 40.95, 62.48 81.91, 81.35 106.63 M0 0 C19.94 26.14, 39.88 52.28, 81.35 106.63" stroke="#f2aa74" stroke-width="4" fill="none"></path></g><g transform="translate(1066.74078637083 203.98929550238677) rotate(0 40.67340100112392 53.31554359788436)"><path d="M25.26 16.19 C15.56 9.97, 5.86 3.75, 0 0 M25.26 16.19 C19.07 12.22, 12.87 8.25, 0 0" stroke="#f2aa74" stroke-width="4" fill="none"></path></g><g transform="translate(1066.74078637083 203.98929550238677) rotate(0 40.67340100112392 53.31554359788436)"><path d="M8.94 28.64 C5.51 17.64, 2.07 6.64, 0 0 M8.94 28.64 C6.75 21.62, 4.56 14.6, 0 0" stroke="#f2aa74" stroke-width="4" fill="none"></path></g></g><g stroke-linecap="round"><g stroke-opacity="0.6" fill-opacity="0.6" transform="translate(1031.9404448977446 496.2548274520716) rotate(0 113.1416624761776 -1.8355767945956813)"><path d="M1.31 1.37 C78.73 -4.18, 150.88 -2.11, 225.67 -5.04 M-1.03 0.15 C61.13 -4.65, 119.37 -3.36, 227.32 -3.04" stroke="#1864ab" stroke-width="4" fill="none"></path></g></g><g stroke-linecap="round"><g stroke-opacity="0.6" fill-opacity="0.6" transform="translate(1058.9976557488376 493.7598507739858) rotate(0 87.15046351928373 -34.554287804828846)" fill-rule="evenodd"><path d="M-47.8 -3.13 C-47.8 -3.13, -47.8 -3.13, -47.8 -3.13 M-47.8 -3.13 C-47.8 -3.13, -47.8 -3.13, -47.8 -3.13 M-41.89 0.61 C-39.74 -2.34, -35.78 -4.64, -35.15 -14.04 M-43.78 1.24 C-42.86 -2.48, -39.6 -9.69, -32.37 -12.12 M-39.15 4.33 C-37.12 -9.28, -28.56 -13.93, -17.32 -25.08 M-41.22 2 C-34.12 -5.72, -29.8 -13.26, -19.16 -23.38 M-32.07 0.08 C-25.89 -2.93, -20.99 -13.82, -9.38 -29.95 M-35.64 -0.98 C-23.51 -10.75, -16.08 -21.46, -9.16 -28.37 M-27.75 -2.18 C-17.66 -8.5, -5.92 -25.66, 3.25 -34.13 M-32.33 1.69 C-24.61 -5.62, -14 -14.5, -0.99 -33.89 M-21.32 1.21 C-13.2 -13.17, -8.36 -22.52, 9.38 -38.25 M-24.58 2.33 C-9.22 -15, 1.42 -29.06, 9.03 -39.4 M-20.48 -2.53 C-7.3 -8.26, 2.9 -23.04, 23.45 -45.63 M-18.89 0.44 C-4.78 -16.31, 5.91 -30.51, 18.25 -46.06 M-15.38 2.81 C-6.1 -11.89, 7.54 -27.7, 28.4 -49.6 M-13.14 2.59 C5.79 -20.59, 22.63 -38.31, 32.19 -49.62 M-12.31 3.98 C0.34 -13.61, 10.65 -20.09, 43.27 -56.94 M-6.71 2.24 C1.69 -10.31, 12.15 -24.94, 39.75 -57.51 M-1.45 2.51 C16.37 -27.07, 43.01 -47.14, 47.46 -64.17 M-4.58 -1.56 C17.92 -25.33, 39.12 -49.3, 49.11 -62.74 M0.71 4.95 C22.72 -18.79, 41.02 -43.32, 63.66 -64.28 M-0.1 0.38 C23.65 -24.57, 44.79 -49.16, 58.25 -64.26 M7.6 2.1 C26.66 -25.32, 48.69 -39.72, 67.41 -64.48 M4.78 1.08 C27.4 -22.43, 48.56 -43.84, 64.18 -66.36 M13.48 -1.2 C24.63 -16.52, 44.38 -36.16, 74.62 -66.23 M10.15 1.45 C32.54 -21.74, 51.19 -40.86, 70.06 -68.28 M14.45 4.93 C35.73 -14.84, 49.29 -38.3, 77.9 -68.96 M18.68 -0.25 C34.96 -18.36, 50.72 -39.12, 77.18 -69.58 M24.55 -1.38 C31.74 -10.47, 47.56 -31.07, 80.86 -68.06 M23.44 1.12 C39.84 -17.61, 56.07 -34.78, 82.81 -69.78 M26.81 4.04 C50.13 -24.63, 70.53 -52.86, 91.56 -69.18 M26.49 1.79 C42.92 -16.53, 61.73 -36.75, 89.39 -68.21 M30.74 5.12 C57.7 -24.17, 79.33 -53.47, 96.9 -73.65 M32.03 1.12 C55.31 -27.29, 79.99 -53.83, 94.45 -71.14 M39.32 -0.68 C54.23 -14.55, 69.15 -29.48, 97.38 -70.3 M37.04 1.82 C52.22 -14.89, 66.34 -33.13, 101.05 -69.19 M41.85 0.11 C60.31 -15.03, 73.95 -33.59, 106.16 -69.7 M43.71 2.75 C67.3 -24.17, 91.76 -52.6, 104.45 -69.15 M48.24 -0.99 C68.77 -24.08, 85.33 -40.61, 109.23 -68.89 M49.38 3.3 C70.17 -21.75, 89.23 -42.84, 107.85 -68.42 M51.28 -0.45 C70.41 -23.41, 91.14 -37.47, 113.69 -71.12 M52.42 -0.16 C74.72 -18.09, 90.42 -41.07, 114.41 -68.32 M59.47 3.77 C77.57 -18.11, 101.38 -47.74, 122.65 -65.12 M60.73 2.48 C76.55 -20.52, 95.51 -40.29, 117.67 -67 M64.07 2.02 C89.22 -22.51, 109.89 -48.25, 121.51 -63.1 M66.33 3.31 C84.37 -19.4, 104.39 -40.33, 123.53 -67.06 M72.54 -1.39 C79.96 -16.41, 91.25 -29.28, 125.52 -64.76 M70.51 0.44 C85.01 -14.66, 99.69 -29.42, 125.33 -61.17 M75.56 1.7 C96.67 -14.29, 111.22 -36.4, 126.63 -64.02 M74.44 2.15 C95.26 -22.14, 116.46 -46.95, 130.5 -60.48 M79.91 1.68 C90.98 -16.22, 106.57 -30.89, 135.23 -62.28 M79.66 3.8 C89.1 -11.09, 102.85 -25.08, 133.72 -57.42 M86.7 5.19 C101.09 -15.43, 112.02 -29.55, 138.93 -55.63 M85.95 0.15 C101.86 -18.6, 121.58 -40.25, 135.48 -58.66 M93.68 5.21 C109.1 -18.23, 121.19 -36.79, 138.21 -58.45 M89.28 1.77 C107.41 -14.62, 120.36 -33.08, 141.3 -54.15 M96.07 -0.56 C112.48 -18.28, 127.54 -34.58, 142.65 -55.54 M98.24 -0.1 C109.25 -11.24, 118.74 -24.27, 145.55 -55.08 M101.57 4.12 C117.97 -21.64, 140.31 -36.08, 151.17 -50.46 M100.69 2.6 C115.77 -12.21, 125.25 -23.21, 147.39 -51.69 M107.87 -0.24 C121.56 -19.92, 137.37 -38.02, 148.3 -49.73 M108.88 2.82 C122.7 -15.67, 140.41 -35.82, 150.61 -51.17 M109.62 0.91 C125.09 -20.03, 141.91 -33.44, 155.77 -46.34 M110.06 2.61 C125.64 -11.41, 138.16 -25.11, 154.86 -46.8 M115.28 2.62 C132.57 -9.17, 143.44 -26.54, 159.38 -47.05 M118.97 1.9 C127.95 -12.08, 137.49 -24.14, 158.12 -46.8 M125.45 -1.53 C128.04 -6.62, 140.18 -15.53, 165.3 -44.04 M123.73 2.94 C131.99 -7.9, 140.91 -19.78, 160.69 -43.7 M127.07 -1.43 C134.71 -7.3, 142.2 -14.84, 166.96 -42.26 M127.76 2.66 C142.18 -9.97, 152.72 -26.67, 167.67 -43.27 M134.34 0.06 C143.77 -7.86, 155.33 -23.15, 172.66 -42.85 M134.24 1.53 C147.27 -11.19, 160.39 -28.24, 168.13 -41.55 M139.66 0.84 C154.57 -11.82, 166.06 -23.61, 169.78 -35.46 M136.73 3.72 C151.47 -11.97, 163.26 -27.12, 171.07 -38.82 M147.18 1.33 C152.65 -9.51, 167.26 -17.11, 177.06 -38.44 M144.32 1.15 C156.57 -13.6, 168.33 -27.29, 177.24 -37.42 M147.76 2.24 C158.81 -10.91, 173.26 -24.41, 176.85 -35.13 M148.21 1.73 C156.86 -6.09, 162.61 -13.13, 179 -35.64 M151.83 -0.96 C166.88 -10.21, 168.99 -17.77, 182.68 -29.35 M154.22 2.12 C161.08 -7.14, 169.39 -15.88, 183.61 -32.83 M159.69 -0.03 C162.96 -7.11, 172.58 -13.7, 190.17 -32.64 M160.69 4.17 C164.42 -3.1, 173.94 -9.32, 187.65 -30.33 M163.75 4.07 C168.08 -7.9, 175.56 -9.47, 193.29 -28.02 M164.36 3.31 C172.01 -2.78, 175.15 -9.81, 189.01 -28.75 M173.41 3.62 C175.53 -5.27, 184.12 -18.77, 191.31 -29.23 M168.88 1.34 C177.46 -6.01, 186.25 -15.73, 193.37 -24.95 M174.66 4.07 C177.33 0, 180.23 0.58, 182.06 -4.41 M175.26 2.6 C176.42 0.92, 179 -1.43, 180.75 -4.79 M184.77 -3.27 C191.15 -11.36, 195.96 -22.52, 197.83 -25.37 M179.91 -4.06 C185.35 -11.22, 189.87 -16.02, 197.05 -24.37 M180.31 1.93 C181.16 0.86, 181.71 -0.07, 185.94 -2.39 M181.09 2.06 C181.9 1.11, 183.28 0, 184.8 -2.23 M188.79 -5.18 C188.05 -9.94, 195.23 -11.63, 204.94 -18.19 M186.68 -2.93 C190.99 -8.14, 195.38 -16.15, 201.78 -21.64 M184.67 4.95 C187.11 2.43, 186.73 0.75, 190.2 -0.31 M184.37 3.42 C186.68 2.47, 187.4 -0.4, 189.73 -0.94 M190.22 -2.2 C192.06 -8.33, 198.84 -10.06, 205.1 -21.53 M190.37 -3.32 C195.11 -7.58, 199.07 -13.19, 204.51 -18.12 M198.66 -0.85 C202.97 -6.99, 204.83 -7.52, 209.24 -18.79 M196.92 -4.36 C199.69 -8.8, 204.03 -12.63, 209.93 -17.61 M199.79 -0.63 C202.79 -8.61, 211.51 -11.87, 212.95 -16.11 M200.46 -3.97 C204.71 -6.39, 208.41 -11.82, 212.9 -14.22 M208.17 -4.06 C210.59 -7.04, 209.7 -8.88, 216.43 -13.13 M207.73 -4.06 C209.02 -6.98, 213 -10.42, 214.93 -12.27 M212.18 -4.54 C212.65 -3.82, 214.05 -7.02, 216.6 -10.62 M212.95 -4.01 C213.45 -5.07, 215.18 -7.01, 218.39 -10.95 M218.23 -5.12 C219.27 -5.19, 220.05 -6.45, 221.69 -8.12 M218.95 -4.63 C219.34 -5.71, 220.61 -6.98, 222.09 -8.86" stroke="#f2aa74" stroke-width="0.5" fill="none"></path><path d="M1.07 1.12 C-6.68 0.11, -48.34 1.66, -46.33 -5.89 C-44.33 -13.43, -0.95 -35.67, 13.1 -44.16 C27.15 -52.65, 30.48 -52.95, 37.98 -56.82 C45.47 -60.7, 49.21 -64.8, 58.09 -67.41 C66.98 -70.03, 81.2 -72.9, 91.27 -72.53 C101.34 -72.16, 108.51 -69.3, 118.53 -65.19 C128.54 -61.07, 134.12 -57.52, 151.38 -47.85 C168.64 -38.18, 217.65 -14.49, 222.07 -7.16 C226.49 0.17, 185.02 -5.62, 177.92 -3.87 C170.82 -2.11, 209.14 2.72, 179.49 3.37 C149.84 4.03, 29.9 0.26, 0.01 0.06 M-1.79 -0.74 C-9.8 -1.53, -51.19 3.03, -47.8 -3.73 C-44.41 -10.49, 4.24 -32.67, 18.56 -41.32 C32.88 -49.97, 30.75 -51.36, 38.11 -55.64 C45.46 -59.91, 54.54 -65.03, 62.69 -66.97 C70.85 -68.91, 77.44 -67.27, 87.02 -67.27 C96.61 -67.27, 108.63 -70.11, 120.18 -66.97 C131.73 -63.83, 139.93 -57.94, 156.3 -48.43 C172.67 -38.91, 214.67 -17.22, 218.4 -9.88 C222.13 -2.53, 185.23 -5.71, 178.67 -4.36 C172.11 -3.01, 209.37 -2.36, 179.04 -1.78 C148.7 -1.21, 26.4 -1.44, -3.32 -0.91" stroke="#364fc7" stroke-width="1" fill="none"></path></g></g><g stroke-linecap="round"><g stroke-opacity="0.6" fill-opacity="0.6" transform="translate(1148.892746102828 493.1883085518198) rotate(0 0.8682049904499536 -66.77735523967925)"><path d="M1.12 1.43 C0.85 -21.25, -1.41 -112.53, -1.48 -134.98 M-1.71 -0.27 C-1.18 -22.79, 3.39 -111, 3.45 -132.73" stroke="#ced4da" stroke-width="4" fill="none"></path></g><g stroke-opacity="0.6" fill-opacity="0.6" transform="translate(1148.892746102828 493.1883085518198) rotate(0 0.8682049904499536 -66.77735523967925)"><path d="M14.88 -108.11 C6.12 -113.6, 5.68 -125.35, 1.96 -133.99 M14.68 -105.94 C10.02 -114.39, 6.97 -126.68, 4.21 -134.32" stroke="#ced4da" stroke-width="4" fill="none"></path></g><g stroke-opacity="0.6" fill-opacity="0.6" transform="translate(1148.892746102828 493.1883085518198) rotate(0 0.8682049904499536 -66.77735523967925)"><path d="M-5.63 -108.74 C-8.1 -114.2, -2.26 -125.75, 1.96 -133.99 M-5.83 -106.57 C-2.92 -114.82, 1.62 -126.88, 4.21 -134.32" stroke="#ced4da" stroke-width="4" fill="none"></path></g></g><g stroke-linecap="round"><g transform="translate(1065.787013292569 383.98929550238677) rotate(0 40.67340100112392 53.31554359788436)"><path d="M0 0 C27.51 36.06, 55.02 72.12, 81.35 106.63 M0 0 C19.49 25.55, 38.98 51.09, 81.35 106.63" stroke="#f2aa74" stroke-width="4" fill="none"></path></g><g transform="translate(1065.787013292569 383.98929550238677) rotate(0 40.67340100112392 53.31554359788436)"><path d="M25.26 16.19 C16.71 10.71, 8.17 5.24, 0 0 M25.26 16.19 C19.21 12.31, 13.16 8.43, 0 0" stroke="#f2aa74" stroke-width="4" fill="none"></path></g><g transform="translate(1065.787013292569 383.98929550238677) rotate(0 40.67340100112392 53.31554359788436)"><path d="M8.94 28.64 C5.92 18.95, 2.89 9.27, 0 0 M8.94 28.64 C6.8 21.78, 4.66 14.92, 0 0" stroke="#f2aa74" stroke-width="4" fill="none"></path></g></g><g transform="translate(710.2396436706185 446.5) rotate(0 7 18)"><text x="0" y="25" font-family="Virgil, Segoe UI Emoji" font-size="28px" fill="#15aabf" text-anchor="start" style="white-space: pre;" direction="ltr">p</text></g></svg>