<svg version="1.1" xmlns="http://www.w3.org/2000/svg" viewBox="0 0 994.9999999999999 328.26935289338235" width="994.9999999999999" height="328.26935289338235">
  <!-- svg-source:excalidraw -->
  
  <defs>
    <style>
      @font-face {
        font-family: "Virgil";
        src: url("https://excalidraw.com/Virgil.woff2");
      }
      @font-face {
        font-family: "Cascadia";
        src: url("https://excalidraw.com/Cascadia.woff2");
      }
    </style>
  </defs>
  <g transform="translate(10 63.5) rotate(0 27.5 27.5)"><path d="M27.500000000000007 0 C33.09760876768696 -0.3511037030961983, 40.66295706507389 2.646331961868201, 45.17665926637984 6.433777814228105 C49.6903614676858 10.221223666588008, 53.55903998488703 16.92197141653077, 54.582213207835736 22.72467511415942 C55.60538643078444 28.527378811788072, 54.261808481802056 36.14718800709116, 51.31569860407208 41.25000000000001 C48.36958872634211 46.352811992908855, 42.44242936571057 51.32628922634375, 36.905553941455906 53.341547071612496 C31.368678517201246 55.356804916881245, 23.63132148279878 55.356804916881245, 18.094446058544115 53.341547071612496 C12.557570634289451 51.32628922634375, 6.6304112736579075 46.352811992908855, 3.6843013959279354 41.25000000000001 C0.7381915181979628 36.14718800709116, -0.6053864307844268 28.52737881178807, 0.4177867921642786 22.724675114159417 C1.440960015112984 16.921971416530766, 5.309638532314213 10.221223666588012, 9.823340733620167 6.433777814228108 C14.33704293492612 2.646331961868205, 24.55389012227003 0.9806296357046845, 27.500000000000004 0 C30.446109877729977 -0.9806296357046845, 27.500000000000007 0.0916666666666674, 27.500000000000007 0.5500000000000007" stroke="#f2aa74" stroke-width="4.5" fill="none" stroke-dasharray="3 6"></path></g><g><g transform="translate(10.999999999999972 266.5) rotate(0 185.50000000000003 2)"><path d="M0 0 C105.63165779281408 1.1388857983052731, 211.26331558562816 2.2777715966105463, 371 4 M0 0 C96.1042017294094 1.0361639000475407, 192.2084034588188 2.0723278000950813, 371 4" stroke="#1864ab" stroke-width="4" fill="none"></path></g></g><g stroke-opacity="0.3" fill-opacity="0.3" transform="translate(142 124.5) rotate(323.52313126229 143 46.5)"><path d="M143 0 C159.87967905899734 -0.7191449737037713, 179.8167299954609 1.197611079796888, 196.3042496599916 3.351301577773711 C212.7917693245223 5.504992075750534, 229.09470599275735 8.92519925487099, 241.9251179871843 12.922142987860937 C254.75552998161126 16.919086720850885, 265.9628185908499 22.068894484641167, 273.2867216265533 27.3329639757134 C280.61062466225667 32.59703346678563, 285.1068241802964 38.73413820733083, 285.8685362014047 44.506559934294344 C286.630248222513 50.27898166125786, 283.76726744338436 56.51876880651704, 277.8569937532029 61.9674943374945 C271.9467200630215 67.41621986847196, 262.13723477176654 72.85927399888043, 250.40689406031595 77.19891312015912 C238.67655334886538 81.53855224143781, 223.33452240715005 85.40030063032262, 207.47494948449952 88.00532906516663 C191.615376561849 90.61035750001065, 172.95223104499462 92.33415999818324, 155.24945652441278 92.82908372922319 C137.54668200383094 93.32400746026313, 118.25256509535822 92.66139172226558, 101.25830236100842 90.97487145140633 C84.26403962665862 89.28835118054708, 67.12004399052945 86.33482796630237, 53.28388011831396 82.70996210406771 C39.447716246098466 79.08509624183306, 26.925011758644317 74.26639230436868, 18.241319127715457 69.2256762779984 C9.557626496786597 64.18496025162813, 3.4612608701278162 58.19565323001716, 1.1817243327407994 52.46566594584605 C-1.0978122046462175 46.73567866167494, 0.11090338404119393 40.439079268661295, 4.564099903393355 34.84575257297177 C9.017296422745517 29.252425877282242, 17.35686654035129 23.556138563636488, 27.900903448853768 18.905705771708885 C38.444940357356245 14.255272979781282, 52.71328266009173 9.980372010521613, 67.82832135440823 6.943155821406158 C82.94336004872473 3.905939632290704, 106.06252250715414 1.8396012739171859, 118.59113561475277 0.6824086370161595 C131.1197487223514 -0.47478399988486686, 138.9318559357921 -0.04126522716397337, 142.99999999999997 0 C147.06814406420784 0.04126522716397337, 143 0.15499999999999992, 143 0.9299999999999997 M143 0 C159.87967905899734 -0.7191449737037713, 179.8167299954609 1.197611079796888, 196.3042496599916 3.351301577773711 C212.7917693245223 5.504992075750534, 229.09470599275735 8.92519925487099, 241.9251179871843 12.922142987860937 C254.75552998161126 16.919086720850885, 265.9628185908499 22.068894484641167, 273.2867216265533 27.3329639757134 C280.61062466225667 32.59703346678563, 285.1068241802964 38.73413820733083, 285.8685362014047 44.506559934294344 C286.630248222513 50.27898166125786, 283.76726744338436 56.51876880651704, 277.8569937532029 61.9674943374945 C271.9467200630215 67.41621986847196, 262.13723477176654 72.85927399888043, 250.40689406031595 77.19891312015912 C238.67655334886538 81.53855224143781, 223.33452240715005 85.40030063032262, 207.47494948449952 88.00532906516663 C191.615376561849 90.61035750001065, 172.95223104499462 92.33415999818324, 155.24945652441278 92.82908372922319 C137.54668200383094 93.32400746026313, 118.25256509535822 92.66139172226558, 101.25830236100842 90.97487145140633 C84.26403962665862 89.28835118054708, 67.12004399052945 86.33482796630237, 53.28388011831396 82.70996210406771 C39.447716246098466 79.08509624183306, 26.925011758644317 74.26639230436868, 18.241319127715457 69.2256762779984 C9.557626496786597 64.18496025162813, 3.4612608701278162 58.19565323001716, 1.1817243327407994 52.46566594584605 C-1.0978122046462175 46.73567866167494, 0.11090338404119393 40.439079268661295, 4.564099903393355 34.84575257297177 C9.017296422745517 29.252425877282242, 17.35686654035129 23.556138563636488, 27.900903448853768 18.905705771708885 C38.444940357356245 14.255272979781282, 52.71328266009173 9.980372010521613, 67.82832135440823 6.943155821406158 C82.94336004872473 3.905939632290704, 106.06252250715414 1.8396012739171859, 118.59113561475277 0.6824086370161595 C131.1197487223514 -0.47478399988486686, 138.9318559357921 -0.04126522716397337, 142.99999999999997 0 C147.06814406420784 0.04126522716397337, 143 0.15499999999999992, 143 0.9299999999999997" stroke="none" stroke-width="0" fill="#f2aa74"></path><path d="M143 0 C159.87967905899734 -0.7191449737037713, 179.8167299954609 1.197611079796888, 196.3042496599916 3.351301577773711 C212.7917693245223 5.504992075750534, 229.09470599275735 8.92519925487099, 241.9251179871843 12.922142987860937 C254.75552998161126 16.919086720850885, 265.9628185908499 22.068894484641167, 273.2867216265533 27.3329639757134 C280.61062466225667 32.59703346678563, 285.1068241802964 38.73413820733083, 285.8685362014047 44.506559934294344 C286.630248222513 50.27898166125786, 283.76726744338436 56.51876880651704, 277.8569937532029 61.9674943374945 C271.9467200630215 67.41621986847196, 262.13723477176654 72.85927399888043, 250.40689406031595 77.19891312015912 C238.67655334886538 81.53855224143781, 223.33452240715005 85.40030063032262, 207.47494948449952 88.00532906516663 C191.615376561849 90.61035750001065, 172.95223104499462 92.33415999818324, 155.24945652441278 92.82908372922319 C137.54668200383094 93.32400746026313, 118.25256509535822 92.66139172226558, 101.25830236100842 90.97487145140633 C84.26403962665862 89.28835118054708, 67.12004399052945 86.33482796630237, 53.28388011831396 82.70996210406771 C39.447716246098466 79.08509624183306, 26.925011758644317 74.26639230436868, 18.241319127715457 69.2256762779984 C9.557626496786597 64.18496025162813, 3.4612608701278162 58.19565323001716, 1.1817243327407994 52.46566594584605 C-1.0978122046462175 46.73567866167494, 0.11090338404119393 40.439079268661295, 4.564099903393355 34.84575257297177 C9.017296422745517 29.252425877282242, 17.35686654035129 23.556138563636488, 27.900903448853768 18.905705771708885 C38.444940357356245 14.255272979781282, 52.71328266009173 9.980372010521613, 67.82832135440823 6.943155821406158 C82.94336004872473 3.905939632290704, 106.06252250715414 1.8396012739171859, 118.59113561475277 0.6824086370161595 C131.1197487223514 -0.47478399988486686, 138.9318559357921 -0.04126522716397337, 142.99999999999997 0 C147.06814406420784 0.04126522716397337, 143 0.15499999999999992, 143 0.9299999999999997 M143 0 C159.87967905899734 -0.7191449737037713, 179.8167299954609 1.197611079796888, 196.3042496599916 3.351301577773711 C212.7917693245223 5.504992075750534, 229.09470599275735 8.92519925487099, 241.9251179871843 12.922142987860937 C254.75552998161126 16.919086720850885, 265.9628185908499 22.068894484641167, 273.2867216265533 27.3329639757134 C280.61062466225667 32.59703346678563, 285.1068241802964 38.73413820733083, 285.8685362014047 44.506559934294344 C286.630248222513 50.27898166125786, 283.76726744338436 56.51876880651704, 277.8569937532029 61.9674943374945 C271.9467200630215 67.41621986847196, 262.13723477176654 72.85927399888043, 250.40689406031595 77.19891312015912 C238.67655334886538 81.53855224143781, 223.33452240715005 85.40030063032262, 207.47494948449952 88.00532906516663 C191.615376561849 90.61035750001065, 172.95223104499462 92.33415999818324, 155.24945652441278 92.82908372922319 C137.54668200383094 93.32400746026313, 118.25256509535822 92.66139172226558, 101.25830236100842 90.97487145140633 C84.26403962665862 89.28835118054708, 67.12004399052945 86.33482796630237, 53.28388011831396 82.70996210406771 C39.447716246098466 79.08509624183306, 26.925011758644317 74.26639230436868, 18.241319127715457 69.2256762779984 C9.557626496786597 64.18496025162813, 3.4612608701278162 58.19565323001716, 1.1817243327407994 52.46566594584605 C-1.0978122046462175 46.73567866167494, 0.11090338404119393 40.439079268661295, 4.564099903393355 34.84575257297177 C9.017296422745517 29.252425877282242, 17.35686654035129 23.556138563636488, 27.900903448853768 18.905705771708885 C38.444940357356245 14.255272979781282, 52.71328266009173 9.980372010521613, 67.82832135440823 6.943155821406158 C82.94336004872473 3.905939632290704, 106.06252250715414 1.8396012739171859, 118.59113561475277 0.6824086370161595 C131.1197487223514 -0.47478399988486686, 138.9318559357921 -0.04126522716397337, 142.99999999999997 0 C147.06814406420784 0.04126522716397337, 143 0.15499999999999992, 143 0.9299999999999997" stroke="#f2aa74" stroke-width="1" fill="none"></path></g><g><g transform="translate(40 96.5) rotate(0 63.52668495394676 80.54915776993033)"><path d="M0 0 C35.07707155158596 44.47624762041507, 70.15414310317192 88.95249524083015, 127.05336990789351 161.09831553986066 M0 0 C34.6870178715896 43.98167600170799, 69.3740357431792 87.96335200341598, 127.05336990789351 161.09831553986066" stroke="#f2aa74" stroke-width="4" fill="none"></path></g><g transform="translate(40 96.5) rotate(0 63.52668495394676 80.54915776993033)"><path d="M101.53955901593653 145.31714150972408 C108.58344750830472 149.67403004423858, 115.62733600067288 154.03091857875307, 127.05336990789351 161.09831553986066 M101.53955901593653 145.31714150972408 C108.50512014212502 149.62558186053766, 115.47068126831351 153.93402221135125, 127.05336990789351 161.09831553986066" stroke="#f2aa74" stroke-width="4" fill="none"></path></g><g transform="translate(40 96.5) rotate(0 63.52668495394676 80.54915776993033)"><path d="M117.65259998420018 132.6092733509456 C120.24797765495728 140.4745678490071, 122.84335532571437 148.33986234706856, 127.05336990789351 161.09831553986066 M117.65259998420018 132.6092733509456 C120.21911730354594 140.3871065266241, 122.7856346228917 148.1649397023026, 127.05336990789351 161.09831553986066" stroke="#f2aa74" stroke-width="4" fill="none"></path></g></g><g transform="translate(115 198.5) rotate(0 59.5 59.5)"><path d="M96.98362053130035 10.977276128537724 C104.57190971958066 16.0611680358183, 108.95372115154477 27.17244768584694, 112.87841642041505 36.158683086003634 C116.80311168928533 45.14491848616033, 121.16293860851819 55.42408265047129, 120.53179214452203 64.89468852947789 C119.90064568052587 74.36529440848449, 114.82507325263887 85.00769132976178, 109.09153763643806 92.98231836004322 C103.35800202023725 100.95694539032466, 95.21581979130465 108.36875705520522, 86.13057844731718 112.74245071116655 C77.0453371033297 117.11614436712789, 64.12574169617011 120.04164780657223, 54.58008957251317 119.22448029581125 C45.03443744885622 118.40731278505027, 36.85906733863204 113.1934188320316, 28.856665705375484 107.83944564660067 C20.85426407211893 102.48547246116973, 11.3299430542471 95.34414248985499, 6.565679772973851 87.10064118322563 C1.8014164917006035 78.85713987659628, -0.26879607196057853 67.7572889239203, 0.27108601773599617 58.37843780682452 C0.8109681074325709 48.99958668972874, 4.608076052580301 39.247941495448146, 9.8049723111533 30.827534480650936 C15.001868569726298 22.407127465853723, 23.06591639860995 12.723529603234436, 31.452463569173993 7.8559957180412425 C39.839010739738036 2.9884618328480483, 50.63681780650999 1.5917105730294192, 60.124255334537565 1.6223311694917726 C69.61169286256514 1.652951765954126, 79.07685933220095 1.7571307801284446, 88.37708873733945 8.039719296815363 C97.67731814247794 14.322307813502281, 111.32578552443749 28.030539870473007, 115.92563176536851 39.317862269613286 C120.52547800629952 50.605184668753566, 116.67824986681026 75.14760709225209, 115.97616618292557 75.76365369165705" stroke="#ffffff" stroke-width="1.5" fill="none" stroke-dasharray="12 8"></path></g><g><g transform="translate(246.1746524958889 293.14604088078147) rotate(0 141.7576906212131 -32.2839204629779)"><path d="M-1.4418913282454013 0.8636942662298677 C18.08040529664887 4.744839232894768, 82.58513618690436 23.14603487021223, 118.21127268606621 22.148417273807468 C153.83740918522807 21.150799677402706, 190.3406976872106 9.92264751558298, 212.31492766672568 -5.122011312198697 C234.28915764624077 -20.166670139980372, 237.94959507916568 -54.02467875515625, 250.05665256315666 -68.1195356928826 C262.1637100471477 -82.21439263060893, 279.1965135587672 -86.25608324244823, 284.9572725706716 -89.69115293855673 M2.970843451470137 -1.135754085034132 C21.967059607868723 3.2217627929975494, 80.82523873649701 25.4028729238758, 115.63990882152515 25.12331201260084 C150.4545789065533 24.843751101325882, 189.15705274814562 13.504460576621634, 211.85886396163897 -2.8131195526838884 C234.56067517513233 -19.130699681989412, 240.234531142654 -58.542624776911794, 251.85077610248524 -72.78216876323229 C263.46702106231646 -87.02171274955279, 275.55743073060313 -85.3566148850839, 281.5563337206264 -88.25038347060686" stroke="#ffffff" stroke-width="1" fill="none"></path></g><g transform="translate(246.1746524958889 293.14604088078147) rotate(0 141.7576906212131 -32.2839204629779)"><path d="M258.4180893952154 -71.63474696256935 C263.8537987355441 -72.87096569981948, 271.7169843943555 -79.1609553427356, 285.16562684619623 -88.06191908980614 M258.4957546906673 -70.65327020489394 C264.49490770424023 -75.73256006777011, 272.13150590512856 -84.10187002535142, 281.6269737965782 -86.38327720056182" stroke="#ffffff" stroke-width="1" fill="none"></path></g><g transform="translate(246.1746524958889 293.14604088078147) rotate(0 141.7576906212131 -32.2839204629779)"><path d="M252.87586551229566 -91.39338448688851 C260.02684390774186 -85.88458163532587, 269.7659719845528 -85.48663029340051, 285.16562684619623 -88.06191908980614 M252.95353080774754 -90.4119077292131 C260.77554718869385 -88.9656274745198, 270.2638197958478 -90.73351457742102, 281.6269737965782 -86.38327720056182" stroke="#ffffff" stroke-width="1" fill="none"></path></g></g><g><g transform="translate(542 166.5) rotate(0 203.5 19.5)"><path d="M0 0 C6.911546466127039 9.038176148012282, 13.823092932254077 18.076352296024563, 26 34 M0 0 C7.492352315410972 9.79769148938358, 14.984704630821945 19.59538297876716, 26 34 M26 34 C31.46940963175148 29.006191205792128, 36.93881926350296 24.012382411584255, 49 13 M26 34 C31.18830788526684 29.262849322147666, 36.37661577053368 24.525698644295332, 49 13 M49 13 C54.579376151040194 20.439168201386927, 60.158752302080394 27.878336402773858, 67 37 M49 13 C54.31827208213508 20.091029442846775, 59.63654416427016 27.18205888569355, 67 37 M67 37 C75.09928200952709 23.231220583803953, 83.19856401905417 9.462441167607903, 97 -14 M67 37 C74.04008190520108 25.031860761158168, 81.08016381040215 13.063721522316335, 97 -14 M97 -14 C99.83826669435948 -10.387660570815205, 102.67653338871897 -6.77532114163041, 108 0 M97 -14 C100.29343500453979 -9.808355448767543, 103.58687000907958 -5.616710897535086, 108 0 M108 0 C114.55417412370443 0.27309058848768475, 121.10834824740887 0.5461811769753695, 132 1 M108 0 C114.21460613161325 0.2589419221505523, 120.4292122632265 0.5178838443011046, 132 1 M132 1 C133.67516923807563 7.142287206277253, 135.35033847615122 13.284574412554505, 138 23 M132 1 C134.3364153597504 9.566856319084764, 136.67283071950078 18.133712638169527, 138 23 M138 23 C144.85621060095727 18.948602826707067, 151.71242120191454 14.89720565341413, 160 10 M138 23 C143.88473548330367 19.52265630532056, 149.76947096660734 16.045312610641123, 160 10 M160 10 C168.04912526030094 19.58229197654873, 176.09825052060188 29.164583953097463, 181 35 M160 10 C167.64897679369898 19.10592475440353, 175.29795358739793 28.211849508807067, 181 35 M181 35 C194.676917235367 26.012311531044542, 208.353834470734 17.024623062089084, 216 12 M181 35 C189.35710248816758 29.508189793489873, 197.71420497633517 24.016379586979745, 216 12 M216 12 C219.7528199756518 15.7528199756518, 223.5056399513036 19.5056399513036, 233 29 M216 12 C221.64503308590503 17.645033085905016, 227.29006617181003 23.290066171810032, 233 29 M233 29 C238.3804504038766 26.181668836064638, 243.76090080775322 23.363337672129273, 254 18 M233 29 C240.57350005786867 25.032928541116416, 248.1470001157373 21.06585708223283, 254 18 M254 18 C257.67440628875045 25.34881257750094, 261.34881257750095 32.69762515500188, 267 44 M254 18 C258.0352415425703 26.070483085140587, 262.0704830851406 34.140966170281175, 267 44 M267 44 C283.168410266377 40.05648530088365, 299.3368205327541 36.1129706017673, 308 34 M267 44 C276.4427215894684 41.696897173300385, 285.88544317893684 39.39379434660077, 308 34 M308 34 C310.40526957064867 39.71251523029059, 312.81053914129734 45.42503046058118, 316 53 M308 34 C309.8093485161662 38.29720272589475, 311.6186970323324 42.5944054517895, 316 53 M316 53 C324.12663791608065 44.873362083919346, 332.2532758321613 36.74672416783869, 351 18 M316 53 C324.90289476979524 44.09710523020476, 333.8057895395905 35.19421046040952, 351 18 M351 18 C353.71815220098944 20.718152200989426, 356.4363044019789 23.436304401978852, 362 29 M351 18 C354.471997907944 21.471997907944022, 357.94399581588806 24.943995815888048, 362 29 M362 29 C369.4217754956335 25.28911225218326, 376.84355099126697 21.578224504366517, 384 18 M362 29 C367.4732496444136 26.263375177793204, 372.94649928882717 23.526750355586408, 384 18 M384 18 C391.7032574823126 24.363560528866948, 399.4065149646252 30.727121057733896, 407 37 M384 18 C391.46258734259754 24.16474606562406, 398.9251746851951 30.329492131248116, 407 37" stroke="#1864ab" stroke-width="2" fill="none"></path></g></g><g><g transform="translate(517.4733150460532 10.049157769930275) rotate(0 28.026684953946756 48.5)"><path d="M0 0 C17.645117377712044 30.534763359464705, 35.29023475542409 61.06952671892941, 56.05336990789351 97 M0 0 C13.080841370712735 22.63631276842207, 26.16168274142547 45.27262553684414, 56.05336990789351 97" stroke="#f2aa74" stroke-width="4" fill="none"></path></g><g transform="translate(517.4733150460532 10.049157769930275) rotate(0 28.026684953946756 48.5)"><path d="M33.06452632246826 77.72532566799502 C40.30121600070237 83.79282690055709, 47.53790567893647 89.86032813311915, 56.05336990789351 97 M33.06452632246826 77.72532566799502 C38.42929594704578 82.22334171633256, 43.7940655716233 86.7213577646701, 56.05336990789351 97" stroke="#f2aa74" stroke-width="4" fill="none"></path></g><g transform="translate(517.4733150460532 10.049157769930275) rotate(0 28.026684953946756 48.5)"><path d="M50.832415866903105 67.45779901730636 C52.47592716744211 76.75742908044343, 54.119438467981105 86.0570591435805, 56.05336990789351 97 M50.832415866903105 67.45779901730636 C52.05079884238162 74.35188665969645, 53.26918181786014 81.24597430208655, 56.05336990789351 97" stroke="#f2aa74" stroke-width="4" fill="none"></path></g></g><g><g transform="translate(563.9733150460532 10) rotate(0 28.026684953946756 48.5)"><path d="M0 0 C16.3012218718448 28.209160736761987, 32.6024437436896 56.418321473523974, 56.05336990789351 97 M0 0 C13.071882807241703 22.620810031332077, 26.143765614483407 45.241620062664154, 56.05336990789351 97" stroke="#f2aa74" stroke-width="4" fill="none"></path></g><g transform="translate(563.9733150460532 10) rotate(0 28.026684953946756 48.5)"><path d="M33.064526322468254 77.72532566799501 C39.75005192920579 83.33071109459573, 46.435577535943324 88.93609652119643, 56.05336990789351 97 M33.064526322468254 77.72532566799501 C38.42562182335394 82.22026119871745, 43.78671732423963 86.7151967294399, 56.05336990789351 97" stroke="#f2aa74" stroke-width="4" fill="none"></path></g><g transform="translate(563.9733150460532 10) rotate(0 28.026684953946756 48.5)"><path d="M50.83241586690311 67.45779901730634 C52.3507533075376 76.04914639914689, 53.869090748172084 84.64049378098744, 56.05336990789351 97 M50.83241586690311 67.45779901730634 C52.04996441889857 74.3471651651099, 53.267512970894025 81.23653131291346, 56.05336990789351 97" stroke="#f2aa74" stroke-width="4" fill="none"></path></g></g><g><g transform="translate(611.9733150460532 10) rotate(0 28.026684953946756 48.5)"><path d="M0 0 C12.786388831921158 22.12676452342421, 25.572777663842317 44.25352904684842, 56.05336990789351 97 M0 0 C15.402078524881203 26.65319889541716, 30.804157049762406 53.30639779083432, 56.05336990789351 97" stroke="#f2aa74" stroke-width="4" fill="none"></path></g><g transform="translate(611.9733150460532 10) rotate(0 28.026684953946756 48.5)"><path d="M33.064526322468254 77.72532566799501 C38.30853383463872 82.12209041242762, 43.5525413468092 86.51885515686023, 56.05336990789351 97 M33.064526322468254 77.72532566799501 C39.38129148182881 83.02152905578183, 45.698056641189375 88.31773244356863, 56.05336990789351 97" stroke="#f2aa74" stroke-width="4" fill="none"></path></g><g transform="translate(611.9733150460532 10) rotate(0 28.026684953946756 48.5)"><path d="M50.83241586690311 67.45779901730634 C52.023372780847595 74.19669927140669, 53.21432969479207 80.93559952550704, 56.05336990789351 97 M50.83241586690311 67.45779901730634 C52.2670047996696 75.57526456988492, 53.70159373243608 83.6927301224635, 56.05336990789351 97" stroke="#f2aa74" stroke-width="4" fill="none"></path></g></g><g><g transform="translate(664 162.5) rotate(0 63 -62.5)"><path d="M0 0 C34.972660534456374 -34.69509973656387, 69.94532106891275 -69.39019947312774, 126 -125 M0 0 C49.964966441318396 -49.56841908860952, 99.92993288263679 -99.13683817721903, 126 -125" stroke="#f2aa74" stroke-width="1" fill="none"></path></g><g transform="translate(664 162.5) rotate(0 63 -62.5)"><path d="M113.21322998818235 -97.86149391243356 C116.76233607513049 -105.39407931570926, 120.31144216207862 -112.92666471898497, 126 -125 M113.21322998818235 -97.86149391243356 C118.28378978606588 -108.62319665793176, 123.35434958394941 -119.38489940342994, 126 -125" stroke="#f2aa74" stroke-width="1" fill="none"></path></g><g transform="translate(664 162.5) rotate(0 63 -62.5)"><path d="M98.76047042851627 -112.42987554857696 C106.32109599059395 -115.9188493209221, 113.8817215526716 -119.40782309326724, 126 -125 M98.76047042851627 -112.42987554857696 C109.5622337691233 -117.41452512300988, 120.3639971097303 -122.3991746974428, 126 -125" stroke="#f2aa74" stroke-width="1" fill="none"></path></g></g><g><g transform="translate(692 176.5) rotate(0 15 -73)"><path d="M0 0 C8.689948724582791 -42.29108379296959, 17.379897449165583 -84.58216758593917, 30 -146 M0 0 C9.788435144349934 -47.63705103583634, 19.57687028869987 -95.27410207167269, 30 -146" stroke="#f2aa74" stroke-width="1" fill="none"></path></g><g transform="translate(692 176.5) rotate(0 15 -73)"><path d="M34.37654101052705 -116.32095202363837 C33.10881044477659 -124.91793219393888, 31.84107987902613 -133.5149123642394, 30 -146 M34.37654101052705 -116.32095202363837 C32.94855808258932 -126.00466656572723, 31.5205751546516 -135.6883811078161, 30 -146" stroke="#f2aa74" stroke-width="1" fill="none"></path></g><g transform="translate(692 176.5) rotate(0 15 -73)"><path d="M14.275300614698953 -120.45134388579483 C18.830194993623774 -127.85189427294289, 23.385089372548595 -135.25244466009093, 30 -146 M14.275300614698953 -120.45134388579483 C19.40597395127957 -128.7873893324347, 24.53664728786019 -137.1234347790746, 30 -146" stroke="#f2aa74" stroke-width="1" fill="none"></path></g></g><g><g transform="translate(771 177.5) rotate(0 38.5 -12)"><path d="M0 0 C22.843917642347517 -7.120182122290135, 45.68783528469503 -14.24036424458027, 77 -24 M0 0 C26.753840427286928 -8.338859353959561, 53.507680854573856 -16.677718707919123, 77 -24" stroke="#f2aa74" stroke-width="1" fill="none"></path></g><g transform="translate(771 177.5) rotate(0 38.5 -12)"><path d="M53.13949131690796 -5.815497659157963 C60.21828995666215 -11.210371345408237, 67.29708859641633 -16.605245031658512, 77 -24 M53.13949131690796 -5.815497659157963 C61.429884067834436 -12.133747969242553, 69.72027681876091 -18.451998279327142, 77 -24" stroke="#f2aa74" stroke-width="1" fill="none"></path></g><g transform="translate(771 177.5) rotate(0 38.5 -12)"><path d="M47.03301712031608 -25.40710237322356 C55.92344944360358 -24.98965132480446, 64.81388176689109 -24.57220027638536, 77 -24 M47.03301712031608 -25.40710237322356 C57.44511943265768 -24.918201173767976, 67.85722174499926 -24.429299974312393, 77 -24" stroke="#f2aa74" stroke-width="1" fill="none"></path></g></g><g><g transform="translate(740 184.5) rotate(0 14.5 -47)"><path d="M0 0 C10.106667466275395 -32.759542821720245, 20.21333493255079 -65.51908564344049, 29 -94 M0 0 C9.18440005350858 -29.77012431137264, 18.36880010701716 -59.54024862274528, 29 -94" stroke="#f2aa74" stroke-width="1" fill="none"></path></g><g transform="translate(740 184.5) rotate(0 14.5 -47)"><path d="M30.49396786366116 -64.03722209102855 C29.97331143596029 -74.47942321833327, 29.452655008259423 -84.921624345638, 29 -94 M30.49396786366116 -64.03722209102855 C30.020823086869793 -73.52653723000866, 29.547678310078425 -83.01585236898876, 29 -94" stroke="#f2aa74" stroke-width="1" fill="none"></path></g><g transform="translate(740 184.5) rotate(0 14.5 -47)"><path d="M10.884743388479556 -70.08687645039308 C17.198014927751416 -78.42073809852536, 23.511286467023275 -86.75459974665765, 29 -94 M10.884743388479556 -70.08687645039308 C16.621907657175075 -77.66024518172298, 22.359071925870595 -85.23361391305288, 29 -94" stroke="#f2aa74" stroke-width="1" fill="none"></path></g></g><g><g transform="translate(835 198.5) rotate(0 74.99999999999994 -35.5)"><path d="M0 0 C42.792151188477845 -20.254951562546193, 85.58430237695569 -40.509903125092386, 149.9999999999999 -71 M0 0 C30.409126812592127 -14.393653357960286, 60.818253625184255 -28.78730671592057, 149.9999999999999 -71" stroke="#f2aa74" stroke-width="1" fill="none"></path></g><g transform="translate(835 198.5) rotate(0 74.99999999999994 -35.5)"><path d="M128.90923545811523 -49.66506032258864 C134.92603002449468 -55.751513417740924, 140.94282459087412 -61.8379665128932, 149.9999999999999 -71 M128.90923545811523 -49.66506032258864 C133.18491368163984 -53.99023956385135, 137.46059190516448 -58.31541880511405, 149.9999999999999 -71" stroke="#f2aa74" stroke-width="1" fill="none"></path></g><g transform="translate(835 198.5) rotate(0 74.99999999999994 -35.5)"><path d="M120.12970214350861 -68.21337014218007 C128.6511308229742 -69.00834271672778, 137.17255950243984 -69.8033152912755, 149.9999999999999 -71 M120.12970214350861 -68.21337014218007 C126.18523331316156 -68.77829668035474, 132.2407644828145 -69.34322321852943, 149.9999999999999 -71" stroke="#f2aa74" stroke-width="1" fill="none"></path></g></g><g><g transform="translate(875 190.5) rotate(0 12 -56)"><path d="M0 0 C6.318094052374363 -29.48443891108036, 12.636188104748726 -58.96887782216072, 24 -112 M0 0 C7.624582372605801 -35.581384405493736, 15.249164745211601 -71.16276881098747, 24 -112" stroke="#f2aa74" stroke-width="1" fill="none"></path></g><g transform="translate(875 190.5) rotate(0 12 -56)"><path d="M28.126055498596287 -82.28509353838542 C27.039855219202632 -90.1076591126349, 25.953654939808974 -97.93022468688439, 24 -112 M28.126055498596287 -82.28509353838542 C26.815245080971682 -91.72524987217112, 25.50443466334708 -101.16540620595681, 24 -112" stroke="#f2aa74" stroke-width="1" fill="none"></path></g><g transform="translate(875 190.5) rotate(0 12 -56)"><path d="M8.060368190179856 -86.58488367590323 C12.2565387291241 -93.27551264622316, 16.452709268068347 -99.9661416165431, 24 -112 M8.060368190179856 -86.58488367590323 C13.124244678637414 -94.65903567267132, 18.18812116709497 -102.73318766943942, 24 -112" stroke="#f2aa74" stroke-width="1" fill="none"></path></g></g><g transform="translate(666 224) rotate(0 95 18)"><text x="0" y="25" font-family="Virgil, Segoe UI Emoji" font-size="28px" fill="#1864ab" text-anchor="start" style="white-space: pre;" direction="ltr">microgeometry</text></g></svg>