<svg version="1.1" xmlns="http://www.w3.org/2000/svg" viewBox="0 0 529 356.5" width="529" height="356.5">
  <!-- svg-source:excalidraw -->
  
  <defs>
    <style>
      @font-face {
        font-family: "Virgil";
        src: url("https://excalidraw.com/Virgil.woff2");
      }
      @font-face {
        font-family: "Cascadia";
        src: url("https://excalidraw.com/Cascadia.woff2");
      }
    </style>
  </defs>
  <g><g stroke-opacity="0.2" fill-opacity="0.2" transform="translate(14 256) rotate(0 249.00000000000006 -156.00000000000006)" fill-rule="evenodd"><path d="M-4.317748959052295 -244.90572669680762 C-4.317748959052295 -244.90572669680762, -4.317748959052295 -244.90572669680762, -4.317748959052295 -244.90572669680762 M-4.317748959052295 -244.90572669680762 C-4.317748959052295 -244.90572669680762, -4.317748959052295 -244.90572669680762, -4.317748959052295 -244.90572669680762 M-3.52854454919418 -233.6195778231014 C-0.5217343801806469 -237.07851724804544, 2.4850757888328863 -240.53745667298946, 6.312340885663431 -244.940221526443 M-3.52854454919418 -233.6195778231014 C-1.473921824984091 -235.98315089379105, 0.5807008992259979 -238.3467239644807, 6.312340885663431 -244.940221526443 M-3.3953991683265627 -221.5787193691724 C1.7869710946659403 -227.5403543942406, 6.969341357658443 -233.5019894193088, 16.942430730379158 -244.97471635607832 M-3.3953991683265627 -221.5787193691724 C4.174931954902071 -230.28738912553655, 11.745263078130705 -238.99605888190072, 16.942430730379158 -244.97471635607832 M-3.2622537874589597 -209.53786091524339 C5.763898555194542 -219.9212614089959, 14.790050897848044 -230.3046619027484, 27.572520575094885 -245.0092111857137 M-3.2622537874589597 -209.53786091524339 C6.068435920464802 -220.2715915728211, 15.399125628388564 -231.00532223039886, 27.572520575094885 -245.0092111857137 M-3.1291084065913424 -197.49700246131437 C7.320281432497836 -209.5176504069388, 17.769671271587015 -221.5382983525632, 38.202610419810625 -245.04370601534902 M-3.1291084065913424 -197.49700246131437 C10.677446750707329 -213.37962732682504, 24.484001908006 -229.26225219233575, 38.202610419810625 -245.04370601534902 M-2.995963025723725 -185.45614400738538 C10.309127094739292 -200.76189933719442, 23.61421721520231 -216.06765466700347, 48.83270026452635 -245.0782008449844 M-2.995963025723725 -185.45614400738538 C17.25476230391716 -208.75193864991454, 37.50548763355805 -232.04773329244367, 48.83270026452635 -245.0782008449844 M-2.20675861586561 -174.16999513367915 C16.779625351641965 -196.01133141726734, 35.76600931914954 -217.85266770085553, 59.46279010924209 -245.11269567461972 M-2.20675861586561 -174.16999513367915 C15.869412363654678 -194.96425115204454, 33.94558334317497 -215.75850717040993, 59.46279010924209 -245.11269567461972 M-2.0736132349980068 -162.12913667975013 C18.51867480105369 -185.8178542688192, 39.11096283710539 -209.50657185788822, 70.09287995395779 -245.14719050425506 M-2.0736132349980068 -162.12913667975013 C16.993758539919924 -184.06363877835332, 36.061130314837854 -205.99814087695648, 70.09287995395779 -245.14719050425506 M-1.9404678541303895 -150.0882782258211 C25.959210292288606 -182.18318653709596, 53.8588884387076 -214.2780948483708, 80.72296979867352 -245.1816853338904 M-1.9404678541303895 -150.0882782258211 C17.553089569186596 -172.51305082995356, 37.04664699250358 -194.93782343408603, 80.72296979867352 -245.1816853338904 M-1.8073224732627722 -138.04741977189212 C23.889738022867064 -167.60850632508692, 49.5867985189969 -197.16959287828175, 91.35305964338926 -245.21618016352576 M-1.8073224732627722 -138.04741977189212 C31.24224326137788 -176.06659606539677, 64.29180899601853 -214.08577235890138, 91.35305964338926 -245.21618016352576 M-1.018118063404657 -126.7612708981859 C36.951352927451644 -170.44015076496157, 74.92082391830795 -214.11903063173725, 101.983149488105 -245.25067499316108 M-1.018118063404657 -126.7612708981859 C28.765675737417098 -161.0236063338362, 58.54946953823885 -195.2859417694865, 101.983149488105 -245.25067499316108 M-0.8849726825370468 -114.72041244425688 C37.112256308215656 -158.43122423716105, 75.10948529896837 -202.1420360300652, 112.6132393328207 -245.28516982279646 M-0.8849726825370468 -114.72041244425688 C37.100337229810116 -158.41751290592012, 75.08564714215728 -202.11461336758336, 112.6132393328207 -245.28516982279646 M-0.7518273016694437 -102.67955399032788 C41.09872757044977 -150.8231101398831, 82.94928244256897 -198.96666628943836, 123.24332917753642 -245.31966465243178 M-0.7518273016694437 -102.67955399032788 C39.02131721317754 -148.43332289604342, 78.79446172802452 -194.18709180175898, 123.24332917753642 -245.31966465243178 M-0.6186819208018335 -90.63869553639887 C50.23930026279262 -149.1441114954149, 101.09728244638707 -207.64952745443094, 133.87341902225216 -245.35415948206713 M-0.6186819208018335 -90.63869553639887 C42.002709312575675 -139.66899748308285, 84.62410054595318 -188.69929942976682, 133.87341902225216 -245.35415948206713 M-0.4855365399342233 -78.59783708246987 C41.53565974777409 -126.93769372548229, 83.55685603548241 -175.2775503684947, 144.50350886696788 -245.38865431170248 M-0.4855365399342233 -78.59783708246987 C48.64877836462638 -135.12040065912475, 97.78309326918699 -191.6429642357797, 144.50350886696788 -245.38865431170248 M0.30366786992389905 -67.31168820876363 C51.59512789714529 -126.31576338431839, 102.88658792436668 -185.31983855987312, 155.13359871168362 -245.42314914133783 M0.30366786992389905 -67.31168820876363 C39.78690241464007 -112.7319538439023, 79.27013695935624 -158.15221947904098, 155.13359871168362 -245.42314914133783 M5.685285482715571 -61.3085063966168 C66.60747180502102 -131.39146484062888, 127.52965812732648 -201.47442328464098, 165.76368855639933 -245.45764397097315 M5.685285482715571 -61.3085063966168 C52.49128151498022 -115.15264550064597, 99.29727754724487 -168.99678460467516, 165.76368855639933 -245.45764397097315 M16.315375327431298 -61.34300122625214 C68.96234372594122 -121.90641040786083, 121.60931212445114 -182.46981958946952, 176.39377840111507 -245.49213880060853 M16.315375327431298 -61.34300122625214 C71.25096437056959 -124.53916729355508, 126.18655341370787 -187.73533336085802, 176.39377840111507 -245.49213880060853 M26.945465172147024 -61.37749605588749 C70.83635879528225 -111.86819344464033, 114.72725241841749 -162.35889083339316, 187.02386824583078 -245.52663363024385 M26.945465172147024 -61.37749605588749 C70.29460033544287 -111.24497162809638, 113.6437354987387 -161.11244720030527, 187.02386824583078 -245.52663363024385 M37.57555501686275 -61.41199088552284 C88.0097067594007 -119.42984569512893, 138.44385850193868 -177.44770050473505, 197.65395809054652 -245.56112845987923 M37.57555501686275 -61.41199088552284 C72.1889061807968 -101.23009653255914, 106.80225734473088 -141.04820217959548, 197.65395809054652 -245.56112845987923 M48.20564486157847 -61.44648571515818 C103.3402026700069 -124.87153916407466, 158.47476047843534 -188.29659261299113, 208.28404793526227 -245.59562328951455 M48.20564486157847 -61.44648571515818 C96.90557769050088 -117.46934987533581, 145.6055105194233 -173.49221403551343, 208.28404793526227 -245.59562328951455 M58.835734706294204 -61.48098054479354 C97.7784774796911 -106.2794815218436, 136.721220253088 -151.07798249889368, 218.91413777997798 -245.6301181191499 M58.835734706294204 -61.48098054479354 C114.79825875820259 -125.85850020245483, 170.76078281011098 -190.23601986011613, 218.91413777997798 -245.6301181191499 M69.46582455100993 -61.51547537442888 C113.39884925218648 -112.05463902432263, 157.33187395336302 -162.59380267421636, 229.5442276246937 -245.66461294878525 M69.46582455100993 -61.51547537442888 C127.64223294338004 -128.43977763459864, 185.81864133575013 -195.36407989476842, 229.5442276246937 -245.66461294878525 M80.09591439572566 -61.54997020406422 C124.3361106842116 -112.44249434359463, 168.57630697269758 -163.33501848312503, 240.17431746940943 -245.6991077784206 M80.09591439572566 -61.54997020406422 C121.6113925684471 -109.30806470463638, 163.12687074116855 -157.06615920520852, 240.17431746940943 -245.6991077784206 M90.7260042404414 -61.58446503369957 C131.83208093047017 -108.87159700271266, 172.93815762049897 -156.15872897172574, 250.80440731412517 -245.73360260805595 M90.7260042404414 -61.58446503369957 C148.3179302748061 -127.83639725464188, 205.90985630917078 -194.0883294755842, 250.80440731412517 -245.73360260805595 M101.35609408515711 -61.61895986333492 C163.23511558444045 -132.8026312658601, 225.1141370837238 -203.98630266838524, 261.4344971588409 -245.76809743769127 M101.35609408515711 -61.61895986333492 C149.7265856610059 -117.26284521394136, 198.09707723685472 -172.9067305645478, 261.4344971588409 -245.76809743769127 M111.98618392987285 -61.653454692970264 C174.95257481495452 -134.0880014838972, 237.9189657000362 -206.5225482748241, 272.0645870035566 -245.80259226732662 M111.98618392987285 -61.653454692970264 C167.25705929774162 -125.23532355561639, 222.52793466561036 -188.81719241826252, 272.0645870035566 -245.80259226732662 M122.61627377458856 -61.687949522605614 C179.51305580593487 -127.14021004400641, 236.40983783728115 -192.5924705654072, 282.69467684827237 -245.837087096962 M122.61627377458856 -61.687949522605614 C166.69825936601273 -112.39847307455173, 210.7802449574369 -163.10899662649783, 282.69467684827237 -245.837087096962 M133.2463636193043 -61.722444352240956 C180.5345415077101 -116.12127023011008, 227.82271939611587 -170.5200961079792, 293.3247666929881 -245.87158192659734 M133.2463636193043 -61.722444352240956 C183.2793544426492 -119.27881631419562, 233.3123452659941 -176.8351882761503, 293.3247666929881 -245.87158192659734 M143.87645346402002 -61.756939181876305 C203.7395912325414 -130.62160162790207, 263.60272900106276 -199.48626407392786, 303.9548565377038 -245.90607675623266 M143.87645346402002 -61.756939181876305 C178.59970075320643 -101.70146585947893, 213.32294804239288 -141.64599253708155, 303.9548565377038 -245.90607675623266 M153.85048427974522 -61.03672443128887 C199.4378205223852 -113.47895581418324, 245.0251567650252 -165.92118719707761, 314.5849463824195 -245.940571585868 M153.85048427974522 -61.03672443128887 C217.31856995415362 -134.04840505792464, 280.786655628562 -207.0600856845604, 314.5849463824195 -245.940571585868 M164.48057412446096 -61.07121926092422 C203.45678308564686 -105.9082186831169, 242.4329920468328 -150.74521810530956, 325.2150362271353 -245.97506641550336 M164.48057412446096 -61.07121926092422 C197.48603917207166 -99.03966351733283, 230.49150421968235 -137.00810777374144, 325.2150362271353 -245.97506641550336 M175.1106639691767 -61.10571409055956 C237.47791975330477 -132.85103478969228, 299.84517553743285 -204.596355488825, 335.845126071851 -246.00956124513874 M175.1106639691767 -61.10571409055956 C217.8789716292756 -110.30502405304567, 260.6472792893745 -159.50433401553178, 335.845126071851 -246.00956124513874 M185.7407538138924 -61.14020892019491 C245.32951973060293 -129.68924265606674, 304.91828564731344 -198.23827639193857, 346.47521591656675 -246.04405607477403 M185.7407538138924 -61.14020892019491 C243.5809840207345 -127.67778241653633, 301.42121422757657 -194.21535591287775, 346.47521591656675 -246.04405607477403 M196.37084365860815 -61.17470374983027 C252.30587401115247 -125.52059552434551, 308.2409043636968 -189.86648729886076, 357.10530576128247 -246.07855090440938 M196.37084365860815 -61.17470374983027 C251.1343021561587 -124.17285627557133, 305.89776065370927 -187.17100880131238, 357.10530576128247 -246.07855090440938 M207.00093350332386 -61.20919857946559 C267.7220077271854 -131.06080401911794, 328.443081951047 -200.9124094587703, 367.7353956059981 -246.11304573404476 M207.00093350332386 -61.20919857946559 C245.6177975584092 -105.63281897438438, 284.2346616134945 -150.05643936930315, 367.7353956059981 -246.11304573404476 M217.6310233480396 -61.243693409100956 C251.76219734087815 -100.50711767182578, 285.8933713337167 -139.7705419345506, 378.3654854507139 -246.1475405636801 M217.6310233480396 -61.243693409100956 C277.72502406190677 -130.37393329385054, 337.8190247757739 -199.50417317860013, 378.3654854507139 -246.1475405636801 M228.26111319275532 -61.27818823873629 C275.2098423588837 -115.28652303062594, 322.15857152501206 -169.2948578225156, 388.9955752954296 -246.1820353933154 M228.26111319275532 -61.27818823873629 C267.9608998878318 -106.94756862616521, 307.6606865829082 -152.61694901359414, 388.9955752954296 -246.1820353933154 M238.89120303747106 -61.312683068371655 C293.41462800044644 -124.03470859926387, 347.9380529634218 -186.75673413015608, 399.6256651401454 -246.21653022295078 M238.89120303747106 -61.312683068371655 C280.8948836068124 -109.63239018234489, 322.89856417615374 -157.95209729631813, 399.6256651401454 -246.21653022295078 M249.5212928821868 -61.347177898006976 C305.7917801607925 -126.0789687222467, 362.06226743939817 -190.81075954648642, 409.5996959558706 -245.49631547236336 M249.5212928821868 -61.347177898006976 C284.9187996241124 -102.06735134831088, 320.316306366038 -142.78752479861478, 409.5996959558706 -245.49631547236336 M260.1513827269025 -61.38167272764234 C323.5637794861982 -134.32929058570002, 386.97617624549383 -207.2769084437577, 420.2297858005862 -245.5308103019987 M260.1513827269025 -61.38167272764234 C298.480715774369 -105.47452653530001, 336.81004882183555 -149.56738034295768, 420.2297858005862 -245.5308103019987 M270.7814725716182 -61.416167557277674 C303.3218906241143 -98.84963644263337, 335.8623086766104 -136.28310532798906, 430.85987564530205 -245.56530513163403 M270.7814725716182 -61.416167557277674 C309.89671395526005 -106.41310548584303, 349.0119553389019 -151.4100434144084, 430.85987564530205 -245.56530513163403 M281.41156241633394 -61.45066238691304 C339.0408513848199 -127.74557574686953, 396.6701403533059 -194.04048910682604, 441.48996549001777 -245.5997999612694 M281.41156241633394 -61.45066238691304 C327.0700790939279 -113.97477749339072, 372.72859577152195 -166.4988925998684, 441.48996549001777 -245.5997999612694 M292.04165226104965 -61.48515721654836 C340.69903198315876 -117.45906962701883, 389.3564117052679 -173.43298203748932, 452.1200553347335 -245.63429479090473 M292.04165226104965 -61.48515721654836 C330.2968246499248 -105.49269894550378, 368.5519970387999 -149.5002406744592, 452.1200553347335 -245.63429479090473 M302.6717421057654 -61.51965204618372 C353.4347511666963 -119.91581392535244, 404.1977602276271 -178.31197580452115, 462.7501451794492 -245.6687896205401 M302.6717421057654 -61.51965204618372 C353.30538417126485 -119.766994220871, 403.9390262367642 -178.01433639555825, 462.7501451794492 -245.6687896205401 M312.6457729214907 -60.79943729559628 C364.0052740961373 -119.88178485754014, 415.364775270784 -178.96413241948403, 473.3802350241649 -245.7032844501754 M312.6457729214907 -60.79943729559628 C371.7875551626212 -128.83427513253736, 430.9293374037517 -196.86911296947844, 473.3802350241649 -245.7032844501754 M323.2758627662064 -60.83393212523163 C365.5663809462731 -109.48360816458612, 407.8568991263398 -158.1332842039406, 484.0103248688807 -245.73777927981078 M323.2758627662064 -60.83393212523163 C386.1119253343301 -133.11855333776384, 448.94798790245386 -205.40317455029606, 484.0103248688807 -245.73777927981078 M333.9059526109221 -60.868426954866976 C386.1978741126575 -121.02340140334438, 438.48979561439285 -181.17837585182178, 494.64041471359633 -245.77227410944613 M333.9059526109221 -60.868426954866976 C371.6501270521327 -104.28813278867437, 409.39430149334333 -147.7078386224818, 494.64041471359633 -245.77227410944613 M344.5360424556378 -60.902921784502325 C392.8441390699779 -116.47502994261936, 441.152235684318 -172.0471381007364, 503.95838650033113 -244.29734977863592 M344.5360424556378 -60.902921784502325 C393.6348904294175 -117.38468532448579, 442.73373840319726 -173.86644886446925, 503.95838650033113 -244.29734977863592 M355.1661323003535 -60.937416614137675 C385.8565995203991 -96.24276050693004, 416.54706674044456 -131.54810439972238, 504.09153188119876 -232.2564913247069 M355.1661323003535 -60.937416614137675 C397.430461131409 -109.5569652537839, 439.6947899624644 -158.17651389343013, 504.09153188119876 -232.2564913247069 M365.79622214506924 -60.971911443772996 C400.57673568626626 -100.98231540848857, 435.3572492274633 -140.99271937320418, 504.2246772620663 -220.21563287077788 M365.79622214506924 -60.971911443772996 C394.44451189359484 -93.92799889139036, 423.09280164212043 -126.88408633900772, 504.2246772620663 -220.21563287077788 M376.426311989785 -61.00640627340837 C408.99189718714655 -98.46882664711727, 441.5574823845081 -135.93124702082616, 503.7017636139434 -207.42006483662612 M376.426311989785 -61.00640627340837 C427.29550959640255 -119.52472410074381, 478.16470720302016 -178.04304192807928, 503.7017636139434 -207.42006483662612 M387.0564018345007 -61.040901103043694 C414.1007075797153 -92.15181602756418, 441.1450133249299 -123.26273095208467, 503.83490899481103 -195.3792063826971 M387.0564018345007 -61.040901103043694 C430.0285530497895 -110.47470625143578, 473.0007042650782 -159.90851139982783, 503.83490899481103 -195.3792063826971 M397.68649167921643 -61.07539593267907 C437.8779740330125 -107.31040747186671, 478.0694563868085 -153.54541901105432, 503.96805437567866 -183.33834792876812 M397.68649167921643 -61.07539593267907 C430.41172184354946 -98.72146683276374, 463.1369520078824 -136.3675377328484, 503.96805437567866 -183.33834792876812 M408.3165815239322 -61.10989076231439 C434.8656831657687 -91.65113853118255, 461.4147848076052 -122.19238630005071, 504.1011997565462 -171.2974894748391 M408.3165815239322 -61.10989076231439 C428.6047481718716 -84.44875671453889, 448.89291481981104 -107.78762266676338, 504.1011997565462 -171.2974894748391 M418.9466713686479 -61.14438559194977 C443.3220289726017 -89.18502689425262, 467.69738657655546 -117.22566819655545, 504.2343451374138 -159.2566310209101 M418.9466713686479 -61.14438559194977 C450.8918397817937 -97.89309809778717, 482.8370081949394 -134.64181060362455, 504.2343451374138 -159.2566310209101 M429.5767612133636 -61.17888042158509 C454.0818240722112 -89.36873055136829, 478.58688693105876 -117.55858068115148, 503.71143148929093 -146.46106298675832 M429.5767612133636 -61.17888042158509 C451.8039404090652 -86.74832514996027, 474.0311196047668 -112.31776987833544, 503.71143148929093 -146.46106298675832 M440.20685105807934 -61.21337525122047 C459.3622774162526 -83.24917256051158, 478.51770377442585 -105.2849698698027, 503.84457687015856 -134.42020453282933 M440.20685105807934 -61.21337525122047 C453.335882213226 -76.31659790952153, 466.46491336837266 -91.41982056782261, 503.84457687015856 -134.42020453282933 M450.83694090279505 -61.24787008085582 C463.78253772711474 -76.14007568017381, 476.72813455143444 -91.03228127949181, 503.9777222510262 -122.37934607890031 M450.83694090279505 -61.24787008085582 C468.58681406144535 -81.6667633947473, 486.3366872200957 -102.0856567086388, 503.9777222510262 -122.37934607890031 M461.46703074751076 -61.28236491049111 C476.621349480095 -78.71541441341357, 491.77566821267925 -96.14846391633603, 504.1108676318937 -110.3384876249713 M461.46703074751076 -61.28236491049111 C472.1483894342805 -73.5698624899467, 482.8297481210502 -85.85736006940229, 504.1108676318937 -110.3384876249713 M471.441061563236 -60.56215015990372 C483.82872984441354 -74.81253238970415, 496.216398125591 -89.06291461950457, 504.24401301276134 -98.29762917104236 M471.441061563236 -60.56215015990372 C483.1523840656727 -74.03448557348342, 494.8637065681094 -87.50682098706312, 504.24401301276134 -98.29762917104236 M482.0711514079518 -60.59664498953907 C490.511485952847 -70.30613919636264, 498.9518204977422 -80.01563340318621, 503.72109936463846 -85.50206113689052 M482.0711514079518 -60.59664498953907 C490.6230026302324 -70.43442445890508, 499.174853852513 -80.2722039282711, 503.72109936463846 -85.50206113689052 M492.7012412526675 -60.63113981917442 C494.96853946676015 -63.239368054415245, 497.23583768085285 -65.84759628965607, 503.8542447455061 -73.4612026829615 M492.7012412526675 -60.63113981917442 C496.62806503140155 -65.14843383495426, 500.55488881013554 -69.6657278507341, 503.8542447455061 -73.4612026829615" stroke="#15aabf" stroke-width="1" fill="none"></path><path d="M7.105427357601002e-15 -66.72874493927131 C121.94782020412387 -66.55171534399459, 243.89564040824771 -66.37468574871788, 502 -66.00000000000009 M502 -66.00000000000009 C502 -121.20976702496417, 502 -176.41953404992825, 502 -246.00000000000003 M502 -246.00000000000003 C300.6166439499706 -245.70996620242113, 99.23328789994116 -245.41993240484226, -3.999999999999986 -245.27125506072878 M-3.999999999999986 -245.27125506072878 C-3.1332203008234374 -206.58199925740303, -2.266440601646889 -167.89274345407728, 7.105427357601002e-15 -66.72874493927131 M7.105427357601002e-15 -66.72874493927131 C7.105427357601002e-15 -66.72874493927131, 7.105427357601002e-15 -66.72874493927131, 7.105427357601002e-15 -66.72874493927131" stroke="#15aabf" stroke-width="2.5" fill="none" stroke-dasharray="12 8"></path></g></g><g><g stroke-opacity="0.2" fill-opacity="0.2" transform="translate(512.0000000000001 437.5) rotate(180 -249.00000000000006 -168.5)" fill-rule="evenodd"><path d="M-502.20792097082256 -245.76081428396688 C-502.20792097082256 -245.76081428396688, -502.20792097082256 -245.76081428396688, -502.20792097082256 -245.76081428396688 M-502.20792097082256 -245.76081428396688 C-502.20792097082256 -245.76081428396688, -502.20792097082256 -245.76081428396688, -502.20792097082256 -245.76081428396688 M-502.074775589955 -233.7199558300379 C-499.55684576843163 -236.61650274831797, -497.0389159469083 -239.51304966659805, -491.57783112610684 -245.79530911360223 M-502.074775589955 -233.7199558300379 C-498.9396468127051 -237.32650892795556, -495.80451803545526 -240.93306202587326, -491.57783112610684 -245.79530911360223 M-501.94163020908735 -221.6790973761089 C-497.19305479154883 -227.14170851575156, -492.44447937401026 -232.60431965539422, -480.94774128139113 -245.8298039432376 M-501.94163020908735 -221.6790973761089 C-497.6779305111577 -226.58392280648494, -493.4142308132281 -231.48874823686094, -480.94774128139113 -245.8298039432376 M-501.8084848282198 -209.63823892217985 C-495.18173549722036 -217.2614419951345, -488.554986166221 -224.88464506808918, -470.3176514366754 -245.86429877287293 M-501.8084848282198 -209.63823892217985 C-490.9306952801183 -222.15170435871468, -480.0529057320168 -234.66516979524954, -470.3176514366754 -245.86429877287293 M-501.67533944735214 -197.59738046825086 C-486.1933162481483 -215.4074108364777, -470.71129304894447 -233.21744120470458, -459.6875615919597 -245.89879360250828 M-501.67533944735214 -197.59738046825086 C-490.7172136195373 -210.20326222292167, -479.75908779172244 -222.80914397759247, -459.6875615919597 -245.89879360250828 M-502.1982530954751 -184.8018124340991 C-482.1232947423029 -207.8954102998659, -462.0483363891307 -230.98900816563264, -449.057471747244 -245.93328843214363 M-502.1982530954751 -184.8018124340991 C-488.2429569499584 -200.85554423331465, -474.28766080444166 -216.90927603253016, -449.057471747244 -245.93328843214363 M-502.06510771460745 -172.76095398017006 C-488.7902530689883 -188.03192737494138, -475.5153984233691 -203.30290076971272, -438.4273819025282 -245.96778326177895 M-502.06510771460745 -172.76095398017006 C-479.98645884980783 -198.15953410836156, -457.90780998500816 -223.55811423655308, -438.4273819025282 -245.96778326177895 M-501.9319623337398 -160.72009552624107 C-478.18330685053604 -188.03979850809475, -454.4346513673322 -215.3595014899484, -427.7972920578125 -246.00227809141433 M-501.9319623337398 -160.72009552624107 C-479.64275906328544 -186.360890790699, -457.35355579283106 -212.00168605515694, -427.7972920578125 -246.00227809141433 M-501.79881695287224 -148.67923707231208 C-480.305498241247 -173.40447188449792, -458.81217952962174 -198.1297066966838, -417.16720221309674 -246.03677292104967 M-501.79881695287224 -148.67923707231208 C-484.3036368896787 -168.80513949565272, -466.80845682648527 -188.93104191899334, -417.16720221309674 -246.03677292104967 M-502.3217306009951 -135.88366903816026 C-480.67418111906574 -160.78632605592537, -459.02663163713635 -185.68898307369048, -406.53711236838103 -246.07126775068497 M-502.3217306009951 -135.88366903816026 C-468.736123373415 -174.51949053010205, -435.15051614583484 -213.1553120220438, -406.53711236838103 -246.07126775068497 M-502.1885852201275 -123.84281058423127 C-467.929284236795 -163.25362808893266, -433.66998325346253 -202.66444559363407, -395.9070225236654 -246.10576258032035 M-502.1885852201275 -123.84281058423127 C-467.466712115101 -163.7857564437906, -432.74483901007454 -203.72870230334996, -395.9070225236654 -246.10576258032035 M-502.0554398392599 -111.80195213030228 C-467.9609220901882 -151.02320820827038, -433.86640434111644 -190.2444642862385, -385.2769326789496 -246.14025740995572 M-502.0554398392599 -111.80195213030228 C-461.85622007281614 -158.04586454455352, -421.65700030637237 -204.2897769588048, -385.2769326789496 -246.14025740995572 M-501.9222944583923 -99.76109367637329 C-458.5660193669671 -149.636782796332, -415.209744275542 -199.51247191629068, -374.6468428342339 -246.17475223959107 M-501.9222944583923 -99.76109367637329 C-459.42869009236637 -148.6443936479983, -416.9350857263404 -197.52769361962334, -374.6468428342339 -246.17475223959107 M-500.4770310195437 -89.2296543828898 C-456.3669998785536 -139.97244064901966, -412.25696873756357 -190.71522691514951, -364.67281201850864 -245.4545374890036 M-500.4770310195437 -89.2296543828898 C-466.0144380565164 -128.87433255847347, -431.5518450934891 -168.51901073405713, -364.67281201850864 -245.4545374890036 M-489.8469411748279 -89.26414921252515 C-442.9733236867029 -143.18607790302642, -396.09970619857785 -197.10800659352768, -354.0427221737929 -245.48903231863898 M-489.8469411748279 -89.26414921252515 C-436.08600444896075 -151.10903236457045, -382.32506772309364 -212.95391551661572, -354.0427221737929 -245.48903231863898 M-479.2168513301122 -89.29864404216053 C-432.97405359970116 -142.4948976127368, -386.7312558692901 -195.69115118331308, -343.4126323290772 -245.52352714827433 M-479.2168513301122 -89.29864404216053 C-439.53863889749624 -134.94320607964582, -399.8604264648803 -180.58776811713108, -343.4126323290772 -245.52352714827433 M-468.58676148539644 -89.33313887179582 C-430.35528879464783 -133.31341721676583, -392.12381610389923 -177.29369556173583, -332.78254248436144 -245.55802197790965 M-468.58676148539644 -89.33313887179582 C-438.5810709131446 -123.85073734296368, -408.5753803408927 -158.36833581413154, -332.78254248436144 -245.55802197790965 M-457.9566716406808 -89.3676337014312 C-408.46760638883876 -146.2982908700493, -358.97854113699674 -203.22894803866743, -322.1524526396458 -245.592516807545 M-457.9566716406808 -89.3676337014312 C-415.4478474572756 -138.26844207013295, -372.9390232738704 -187.1692504388347, -322.1524526396458 -245.592516807545 M-447.326581795965 -89.40212853106655 C-419.51821300935006 -121.39199743953924, -391.7098442227351 -153.38186634801193, -311.52236279493 -245.62701163718037 M-447.326581795965 -89.40212853106655 C-412.29182227316085 -129.7050090406859, -377.2570627503567 -170.00788955030524, -311.52236279493 -245.62701163718037 M-436.6964919512493 -89.4366233607019 C-405.2938145603464 -125.5612713333501, -373.8911371694435 -161.6859193059983, -300.8922729502143 -245.6615064668157 M-436.6964919512493 -89.4366233607019 C-408.1115824162861 -122.31980021299412, -379.52667288132295 -155.20297706528635, -300.8922729502143 -245.6615064668157 M-426.0664021065336 -89.47111819033722 C-388.1352991932858 -133.1058606327863, -350.204196280038 -176.74060307523536, -290.2621831054986 -245.69600129645104 M-426.0664021065336 -89.47111819033722 C-385.80478138611215 -135.78681469062482, -345.5431606656907 -182.10251119091242, -290.2621831054986 -245.69600129645104 M-415.4363122618179 -89.50561301997257 C-363.14313847484846 -149.66202805782, -310.84996468787904 -209.81844309566745, -279.6320932607828 -245.73049612608636 M-415.4363122618179 -89.50561301997257 C-372.0606284576287 -139.4036293099198, -328.6849446534395 -189.30164559986707, -279.6320932607828 -245.73049612608636 M-404.8062224171021 -89.54010784960792 C-353.3478513561071 -148.73619220523244, -301.8894802951121 -207.93227656085696, -269.0020034160671 -245.76499095572174 M-404.8062224171021 -89.54010784960792 C-368.6090028120806 -131.18024571246565, -332.411783207059 -172.8203835753234, -269.0020034160671 -245.76499095572174 M-394.17613257238634 -89.57460267924327 C-356.2370929408695 -133.218475271646, -318.2980533093527 -176.8623478640488, -258.37191357135134 -245.79948578535706 M-394.17613257238634 -89.57460267924327 C-364.9520990683148 -123.19300755389546, -335.72806556424325 -156.81141242854767, -258.37191357135134 -245.79948578535706 M-383.5460427276707 -89.60909750887862 C-344.60443085443507 -134.40629753411145, -305.66281898119945 -179.20349755934427, -247.7418237266357 -245.83398061499244 M-383.5460427276707 -89.60909750887862 C-351.0960728141277 -126.93851771269077, -318.64610290058465 -164.26793791650292, -247.7418237266357 -245.83398061499244 M-372.91595288295497 -89.64359233851397 C-321.71980921276474 -148.5380185882487, -270.5236655425745 -207.43244483798338, -237.11173388191995 -245.8684754446278 M-372.91595288295497 -89.64359233851397 C-330.28268613761134 -138.68755549898333, -287.64941939226776 -187.7315186594527, -237.11173388191995 -245.8684754446278 M-362.2858630382392 -89.67808716814929 C-322.17832499123824 -135.81653182883386, -282.0707869442372 -181.95497648951843, -226.4816440372042 -245.9029702742631 M-362.2858630382392 -89.67808716814929 C-331.7209531585014 -124.83899386335696, -301.1560432787636 -159.99990055856463, -226.4816440372042 -245.9029702742631 M-351.6557731935235 -89.71258199778467 C-304.1056291925821 -144.41276541527725, -256.55548519164074 -199.11294883276986, -215.8515541924885 -245.9374651038985 M-351.6557731935235 -89.71258199778467 C-314.67541035869573 -132.25362309054054, -277.6950475238679 -174.7946641832964, -215.8515541924885 -245.9374651038985 M-341.0256833488078 -89.74707682742 C-312.97176601686823 -122.01941702487318, -284.9178486849287 -154.29175722232634, -205.22146434777275 -245.9719599335338 M-341.0256833488078 -89.74707682742 C-289.84113731442926 -148.62816152331843, -238.65659128005078 -207.50924621921683, -205.22146434777275 -245.9719599335338 M-330.39559350409206 -89.78157165705534 C-292.4980114736294 -133.37775273496624, -254.6004294431667 -176.97393381287714, -195.24743353204755 -245.25174518294637 M-330.39559350409206 -89.78157165705534 C-278.0080232208157 -150.0465774420067, -225.62045293753926 -210.31158322695805, -195.24743353204755 -245.25174518294637 M-319.7655036593763 -89.8160664866907 C-274.9293632948424 -141.39414586377714, -230.09322293030857 -192.9722252408636, -184.6173436873318 -245.28624001258174 M-319.7655036593763 -89.8160664866907 C-267.4531254383364 -149.9945736987714, -215.1407472172965 -210.1730809108521, -184.6173436873318 -245.28624001258174 M-309.1354138146606 -89.85056131632604 C-274.1611526835032 -130.08384638750724, -239.18689155234577 -170.31713145868844, -173.98725384261607 -245.32073484221706 M-309.1354138146606 -89.85056131632604 C-255.36753595829782 -151.70342932560385, -201.59965810193506 -213.55629733488166, -173.98725384261607 -245.32073484221706 M-298.5053239699448 -89.8850561459614 C-259.10616830619824 -135.2086000927182, -219.70701264245162 -180.53214403947499, -163.35716399790033 -245.35522967185244 M-298.5053239699448 -89.8850561459614 C-259.4688288043787 -134.79140691306435, -220.43233363881257 -179.69775768016729, -163.35716399790033 -245.35522967185244 M-287.8752341252291 -89.91955097559674 C-235.76375444684294 -149.86695085115184, -183.65227476845678 -209.81435072670695, -152.72707415318462 -245.38972450148776 M-287.8752341252291 -89.91955097559674 C-249.8295723851134 -133.68607827324294, -211.7839106449977 -177.45260557088915, -152.72707415318462 -245.38972450148776 M-277.2451442805134 -89.95404580523207 C-248.06448700650643 -123.52255203519363, -218.88382973249946 -157.0910582651552, -142.0969843084689 -245.4242193311231 M-277.2451442805134 -89.95404580523207 C-242.63636547449738 -129.76689155617294, -208.0275866684814 -169.57973730711376, -142.0969843084689 -245.4242193311231 M-266.6150544357977 -89.98854063486743 C-216.53705753678366 -147.59668616440484, -166.45906063776962 -205.20483169394225, -131.46689446375316 -245.45871416075846 M-266.6150544357977 -89.98854063486743 C-231.77108122613998 -130.07194659731286, -196.9271080164823 -170.15535255975828, -131.46689446375316 -245.45871416075846 M-255.98496459108193 -90.02303546450277 C-209.4492691837096 -143.55622926920373, -162.91357377633727 -197.08942307390467, -120.83680461903742 -245.4932089903938 M-255.98496459108193 -90.02303546450277 C-228.51063916505228 -121.6286314443162, -201.0363137390226 -153.23422742412964, -120.83680461903742 -245.4932089903938 M-245.35487474636622 -90.0575302941381 C-200.38602473790456 -141.7882746529326, -155.41717472944293 -193.51901901172715, -110.20671477432172 -245.52770382002916 M-245.35487474636622 -90.0575302941381 C-193.10824920179968 -150.16039770451363, -140.86162365723317 -210.26326511488918, -110.20671477432172 -245.52770382002916 M-234.72478490165048 -90.09202512377347 C-204.2421626064437 -125.1582707814301, -173.75954031123695 -160.22451643908676, -99.57662492960598 -245.5621986496645 M-234.72478490165048 -90.09202512377347 C-182.61171160192555 -150.04125825096975, -130.49863830220065 -209.99049137816604, -99.57662492960598 -245.5621986496645 M-224.09469505693477 -90.1265199534088 C-196.97823682945594 -121.32043681402868, -169.86177860197708 -152.51435367464856, -88.94653508489026 -245.59669347929986 M-224.09469505693477 -90.1265199534088 C-174.32613302246813 -147.3787013906782, -124.55757098800149 -204.6308828279476, -88.94653508489026 -245.59669347929986 M-213.46460521221906 -90.16101478304417 C-170.52445706876668 -139.55800460866166, -127.5843089253143 -188.95499443427917, -78.31644524017455 -245.6311883089352 M-213.46460521221906 -90.16101478304417 C-159.57296249256632 -152.15625798097483, -105.68131977291355 -214.15150117890545, -78.31644524017455 -245.6311883089352 M-202.83451536750331 -90.1955096126795 C-160.6549966021323 -138.71749543214807, -118.47547783676126 -187.2394812516166, -67.6863553954588 -245.66568313857056 M-202.83451536750331 -90.1955096126795 C-156.36013141083885 -143.65817266148525, -109.88574745417438 -197.12083571029098, -67.6863553954588 -245.66568313857056 M-192.20442552278757 -90.23000444231484 C-139.71414034542963 -150.61317019636869, -87.22385516807167 -210.99633595042252, -57.05626555074308 -245.70017796820588 M-192.20442552278757 -90.23000444231484 C-140.96329755953695 -149.1761792016074, -89.72216959628634 -208.12235396089994, -57.05626555074308 -245.70017796820588 M-182.23039470706235 -89.50978969172743 C-153.12457201442146 -122.99220858351785, -124.01874932178058 -156.47462747530827, -46.42617570602734 -245.73467279784126 M-182.23039470706235 -89.50978969172743 C-142.1473019850486 -135.6201132228424, -102.06420926303488 -181.7304367539574, -46.42617570602734 -245.73467279784126 M-171.60030486234663 -89.54428452136275 C-128.89713373051774 -138.66866347957097, -86.19396259868886 -187.79304243777915, -35.79608586131164 -245.76916762747658 M-171.60030486234663 -89.54428452136275 C-143.92805317182305 -121.37756862280926, -116.25580148129947 -153.21085272425577, -35.79608586131164 -245.76916762747658 M-160.9702150176309 -89.57877935099812 C-125.30394331684582 -130.608131518942, -89.63767161606076 -171.6374836868859, -25.82205504558641 -245.04895287688913 M-160.9702150176309 -89.57877935099812 C-127.9406837937658 -127.5749085762524, -94.91115256990071 -165.5710378015067, -25.82205504558641 -245.04895287688913 M-150.34012517291518 -89.61327418063347 C-112.20490149065 -133.4828307070178, -74.06967780838481 -177.3523872334021, -15.19196520087067 -245.0834477065245 M-150.34012517291518 -89.61327418063347 C-111.11464412781814 -134.73702833295965, -71.8891630827211 -179.86078248528582, -15.19196520087067 -245.0834477065245 M-139.71003532819944 -89.6477690102688 C-109.0565027958187 -124.91062440524104, -78.40297026343796 -160.17347980021327, -4.561875356154957 -245.11794253615983 M-139.71003532819944 -89.6477690102688 C-105.30927019921485 -129.22132239888285, -70.90850507023026 -168.7948757874969, -4.561875356154957 -245.11794253615983 M-129.07994548348373 -89.68226383990415 C-77.0011567723601 -149.59205705951894, -24.92236806123647 -209.50185027913372, 5.412155459570258 -244.39772778557239 M-129.07994548348373 -89.68226383990415 C-75.71022613692838 -151.07710287843332, -22.340506790373055 -212.47194191696246, 5.412155459570258 -244.39772778557239 M-118.449855638768 -89.7167586695395 C-84.11328141697152 -129.21646886649347, -49.77670719517505 -168.71617906344744, 4.889241811447377 -231.60215975142063 M-118.449855638768 -89.7167586695395 C-90.18590863227024 -122.23071036918336, -61.92196162577247 -154.7446620688272, 4.889241811447377 -231.60215975142063 M-107.81976579405227 -89.75125349917485 C-81.49727463297914 -120.03181573022765, -55.17478347190602 -150.31237796128045, 4.366328163324468 -218.80659171726887 M-107.81976579405227 -89.75125349917485 C-82.87030233048273 -118.45232804478012, -57.9208388669132 -147.15340259038538, 4.366328163324468 -218.80659171726887 M-97.18967594933653 -89.78574832881019 C-76.5107941176957 -113.57408068458633, -55.83191228605486 -137.36241304036247, 4.499473544192085 -206.76573326333983 M-97.18967594933653 -89.78574832881019 C-65.41890166256258 -126.33384334126455, -33.648127375788626 -162.8819383537189, 4.499473544192085 -206.76573326333983 M-86.55958610462082 -89.82024315844554 C-55.88611857521097 -125.1060311441981, -25.212651045801117 -160.39181912995065, 3.9765598960691904 -193.97016522918807 M-86.55958610462082 -89.82024315844554 C-67.86834400346959 -111.32205756332914, -49.17710190231836 -132.82387196821276, 3.9765598960691904 -193.97016522918807 M-75.9294962599051 -89.85473798808088 C-44.51022444965944 -125.99847565647715, -13.090952639413786 -162.1422133248734, 3.4536462479462813 -181.1745971950363 M-75.9294962599051 -89.85473798808088 C-52.973695023245384 -116.2623664931792, -30.01789378658568 -142.6699949982775, 3.4536462479462813 -181.1745971950363 M-65.29940641518937 -89.88923281771623 C-43.014594542750956 -115.52497635663305, -20.729782670312552 -141.16071989554985, 3.5867916288138986 -169.1337387411073 M-65.29940641518937 -89.88923281771623 C-42.62742135532635 -115.97036815956938, -19.955436295463322 -142.05150350142253, 3.5867916288138986 -169.1337387411073 M-54.66931657047364 -89.92372764735157 C-39.706311734414676 -107.13669568784898, -24.74330689835571 -124.3496637283464, 3.0638779806910037 -156.3381707069555 M-54.66931657047364 -89.92372764735157 C-32.45146226219477 -115.48244531983478, -10.233607953915893 -141.041162992318, 3.0638779806910037 -156.3381707069555 M-44.039226725757906 -89.95822247698692 C-29.04515032246298 -107.20693426679543, -14.051073919168054 -124.45564605660394, 2.540964332568109 -143.54260267280372 M-44.039226725757906 -89.95822247698692 C-29.54530487949011 -106.63157226566379, -15.051383033222315 -123.30492205434066, 2.540964332568109 -143.54260267280372 M-33.40913688104219 -89.99271730662227 C-26.09899722165362 -98.40207102315622, -18.78885756226505 -106.81142473969018, 2.018050684445214 -130.74703463865194 M-33.40913688104219 -89.99271730662227 C-24.004169568265844 -100.81189457418644, -14.599202255489502 -111.63107184175061, 2.018050684445214 -130.74703463865194 M-22.779047036326453 -90.02721213625762 C-13.392406869723494 -100.82530643386941, -4.0057667031205355 -111.62340073148121, 2.151196065312817 -118.70617618472295 M-22.779047036326453 -90.02721213625762 C-17.445408120338826 -96.1628618407343, -12.111769204351196 -102.29851154521097, 2.151196065312817 -118.70617618472295 M-12.148957191610727 -90.06170696589297 C-8.573594506688785 -94.17469124298405, -4.998231821766842 -98.28767552007514, 1.6282824171899222 -105.91060815057116 M-12.148957191610727 -90.06170696589297 C-8.873060447863583 -93.83019508521785, -5.597163704116442 -97.59868320454275, 1.6282824171899222 -105.91060815057116 M-1.518867346895 -90.0962017955283 C-0.8909917755194068 -90.81849001650463, -0.26311620414381354 -91.54077823748094, 1.1053687690670273 -93.11504011641938 M-1.518867346895 -90.0962017955283 C-0.8904417627245583 -90.81912273384738, -0.26201617855411663 -91.54204367216647, 1.1053687690670273 -93.11504011641938 M-502.3278602490791 -91.28500456638147 C-502.3278602490791 -91.28500456638147, -502.3278602490791 -91.28500456638147, -502.3278602490791 -91.28500456638147 M-502.3278602490791 -91.28500456638147 C-502.3278602490791 -91.28500456638147, -502.3278602490791 -91.28500456638147, -502.3278602490791 -91.28500456638147 M-489.5322922149273 -90.7620909182586 C-494.29750346559223 -94.90442586135433, -499.0627147162572 -99.04676080445005, -502.3623550787144 -101.91509441109724 M-489.5322922149273 -90.7620909182586 C-493.7709571319128 -94.44670611664102, -498.00962204889834 -98.13132131502347, -502.3623550787144 -101.91509441109724 M-477.49143376099823 -90.8952362991262 C-482.7949247857092 -95.50549071103485, -488.09841581042025 -100.11574512294351, -501.64214032812697 -111.88912522682242 M-477.49143376099823 -90.8952362991262 C-484.4290550104556 -96.92601844327152, -491.366676259913 -102.95680058741684, -501.64214032812697 -111.88912522682242 M-465.45057530706924 -91.02838167999383 C-477.8985366325924 -101.84922937312041, -490.3464979581156 -112.67007706624699, -501.67663515776235 -122.51921507153818 M-465.45057530706924 -91.02838167999383 C-478.8503793367579 -102.6766536123386, -492.25018336644655 -114.32492554468337, -501.67663515776235 -122.51921507153818 M-453.40971685314025 -91.1615270608614 C-463.9310380523882 -100.30757204367235, -474.4523592516361 -109.4536170264833, -501.71112998739767 -133.1493049162539 M-453.40971685314025 -91.1615270608614 C-471.81026011212816 -107.15687528451336, -490.21080337111607 -123.15222350816532, -501.71112998739767 -133.1493049162539 M-441.36885839921126 -91.294672441729 C-455.61276901273504 -103.67671503270503, -469.8566796262588 -116.05875762368105, -501.74562481703305 -143.77939476096958 M-441.36885839921126 -91.294672441729 C-464.4279352370145 -111.33962212311668, -487.48701207481776 -131.38457180450436, -501.74562481703305 -143.77939476096958 M-428.5732903650595 -90.77175879360612 C-450.8773710827272 -110.1604003606573, -473.18145180039494 -129.5490419277085, -501.78011964666837 -154.40948460568535 M-428.5732903650595 -90.77175879360612 C-457.8059115447954 -116.18328869675628, -487.03853272453125 -141.59481859990643, -501.78011964666837 -154.40948460568535 M-416.53243191113046 -90.90490417447376 C-436.80472758886634 -108.52734195221876, -457.07702326660217 -126.14977972996377, -501.8146144763037 -165.03957445040106 M-416.53243191113046 -90.90490417447376 C-444.7564581737779 -115.43967589237008, -472.9804844364254 -139.9744476102664, -501.8146144763037 -165.03957445040106 M-404.49157345720147 -91.03804955534136 C-438.49164133942946 -120.5938576502136, -472.49170922165746 -150.14966574508583, -501.84910930593907 -175.66966429511683 M-404.49157345720147 -91.03804955534136 C-429.0419489772497 -112.37936540332745, -453.59232449729797 -133.72068125131352, -501.84910930593907 -175.66966429511683 M-392.4507150032724 -91.17119493620896 C-419.5651618803974 -114.74142400971631, -446.6796087575224 -138.31165308322366, -501.8836041355744 -186.29975413983252 M-392.4507150032724 -91.17119493620896 C-427.69991818087686 -121.81285977709007, -462.94912135848125 -152.45452461797117, -501.8836041355744 -186.29975413983252 M-380.40985654934343 -91.30434031707657 C-408.3523233940015 -115.59435616700739, -436.29479023865946 -139.88437201693824, -501.91809896520977 -196.92984398454823 M-380.40985654934343 -91.30434031707657 C-415.64080722505093 -121.9301385001267, -450.87175790075844 -152.55593668317684, -501.91809896520977 -196.92984398454823 M-368.36899809541444 -91.4374856979442 C-405.0060554499962 -123.28559376889456, -441.6431128045779 -155.13370183984495, -501.9525937948451 -207.559933829264 M-368.36899809541444 -91.4374856979442 C-395.23926346374276 -114.79545102423465, -422.1095288320711 -138.1534163505251, -501.9525937948451 -207.559933829264 M-355.5734300612627 -90.9145720498213 C-389.9393212759324 -120.78838551596886, -424.3052124906021 -150.66219898211642, -501.9870886244804 -218.19002367397968 M-355.5734300612627 -90.9145720498213 C-400.04209958182435 -129.57059671237818, -444.51076910238595 -168.22662137493506, -501.9870886244804 -218.19002367397968 M-343.5325716073337 -91.04771743068889 C-380.73153789380956 -123.38428548399528, -417.9305041802854 -155.7208535373017, -502.0215834541158 -228.82011351869545 M-343.5325716073337 -91.04771743068889 C-399.7090205554226 -139.88115947887297, -455.8854695035116 -188.71460152705703, -502.0215834541158 -228.82011351869545 M-331.4917131534047 -91.18086281155652 C-375.95928624884294 -129.83593436629465, -420.42685934428124 -168.4910059210328, -502.05607828375116 -239.45020336341116 M-331.4917131534047 -91.18086281155652 C-386.95478414715654 -139.39417486498485, -442.4178551409084 -187.60748691841314, -502.05607828375116 -239.45020336341116 M-319.45085469947566 -91.31400819242411 C-383.66770788697664 -147.1368670126104, -447.88456107447763 -202.9597258327967, -499.8264443727182 -248.1121161211554 M-319.45085469947566 -91.31400819242411 C-375.1890648046177 -139.76649502643846, -430.9272749097597 -188.21898186045283, -499.8264443727182 -248.1121161211554 M-307.40999624554667 -91.44715357329174 C-346.10549211073845 -125.08463494212559, -384.8009879759302 -158.72211631095945, -487.78558591878914 -248.24526150202297 M-307.40999624554667 -91.44715357329174 C-348.287574632957 -126.98149033951074, -389.16515302036726 -162.51582710572973, -487.78558591878914 -248.24526150202297 M-295.3691377916176 -91.58029895415933 C-362.9133977207116 -150.2956283261327, -430.4576576498055 -209.01095769810604, -475.74472746486015 -248.37840688289057 M-295.3691377916176 -91.58029895415933 C-355.3371391843442 -143.70968725820154, -415.30514057707074 -195.83907556224375, -475.74472746486015 -248.37840688289057 M-282.57356975746586 -91.05738530603644 C-320.9987755394252 -124.45990709015305, -359.42398132138453 -157.86242887426968, -463.70386901093116 -248.51155226375818 M-282.57356975746586 -91.05738530603644 C-340.7185070660679 -141.6020081795601, -398.86344437466994 -192.14663105308375, -463.70386901093116 -248.51155226375818 M-270.53271130353687 -91.19053068690407 C-331.08581864096465 -143.8285438288925, -391.6389259783925 -196.4665569708809, -450.9083009767794 -247.9886386156353 M-270.53271130353687 -91.19053068690407 C-312.5695671834401 -127.73261200279597, -354.6064230633433 -164.2746933186879, -450.9083009767794 -247.9886386156353 M-258.4918528496079 -91.32367606777166 C-326.8347103939588 -150.7332157555396, -395.1775679383097 -210.14275544330752, -438.86744252285035 -248.12178399650293 M-258.4918528496079 -91.32367606777166 C-323.7695854477847 -148.06874329008082, -389.0473180459616 -204.81381051238995, -438.86744252285035 -248.12178399650293 M-246.45099439567883 -91.45682144863929 C-317.65789064863765 -153.35603200239234, -388.8647869015965 -215.2552425561454, -426.82658406892136 -248.2549293773705 M-246.45099439567883 -91.45682144863929 C-311.32465410567687 -147.85063346814346, -376.19831381567496 -204.24444548764762, -426.82658406892136 -248.2549293773705 M-234.41013594174984 -91.58996682950688 C-279.41317003766403 -130.71050753057654, -324.41620413357816 -169.8310482316462, -414.7857256149923 -248.38807475823813 M-234.41013594174984 -91.58996682950688 C-296.36483109534004 -145.44636167197012, -358.3195262489303 -199.30275651443336, -414.7857256149923 -248.38807475823813 M-221.61456790759806 -91.06705318138398 C-260.58692174030676 -124.94520350963906, -299.5592755730155 -158.82335383789413, -401.99015758084056 -247.86516111011522 M-221.61456790759806 -91.06705318138398 C-258.0115945584924 -122.70650574495019, -294.40862120938675 -154.3459583085164, -401.99015758084056 -247.86516111011522 M-209.57370945366907 -91.20019856225161 C-275.96021856392883 -148.90911050171655, -342.3467276741886 -206.61802244118147, -389.94929912691157 -247.99830649098286 M-209.57370945366907 -91.20019856225161 C-263.7869413679653 -138.32704207950474, -318.0001732822615 -185.45388559675786, -389.94929912691157 -247.99830649098286 M-197.53285099974005 -91.33334394311922 C-264.87811009254415 -149.87568452729147, -332.22336918534825 -208.4180251114637, -377.9084406729826 -248.1314518718505 M-197.53285099974005 -91.33334394311922 C-267.79932844125767 -152.41506089609356, -338.06580588277535 -213.49677784906794, -377.9084406729826 -248.1314518718505 M-185.49199254581106 -91.46648932398683 C-237.44158531084508 -136.6255813495847, -289.3911780758791 -181.7846733751826, -365.86758221905353 -248.26459725271803 M-185.49199254581106 -91.46648932398683 C-241.15277126815477 -139.85166608384384, -296.8135499904985 -188.23684284370086, -365.86758221905353 -248.26459725271803 M-173.45113409188204 -91.59963470485442 C-236.5503976538734 -146.4509876852642, -299.6496612158648 -201.302340665674, -353.82672376512454 -248.39774263358566 M-173.45113409188204 -91.59963470485442 C-226.43215866793568 -137.65533672473344, -279.41318324398935 -183.71103874461244, -353.82672376512454 -248.39774263358566 M-161.41027563795302 -91.73278008572204 C-228.26944289678158 -149.85256748525862, -295.1286101556102 -207.97235488479518, -341.0311557309728 -247.87482898546278 M-161.41027563795302 -91.73278008572204 C-212.35363970537907 -136.0171708492792, -263.2970037728051 -180.30156161283637, -341.0311557309728 -247.87482898546278 M-148.61470760380126 -91.20986643759915 C-209.57666029727477 -144.2032834254159, -270.53861299074833 -197.19670041323263, -328.99029727704374 -248.00797436633042 M-148.61470760380126 -91.20986643759915 C-189.3201771888831 -126.59459130449258, -230.02564677396492 -161.97931617138602, -328.99029727704374 -248.00797436633042 M-136.57384914987225 -91.34301181846676 C-207.44531477269004 -152.95063697398086, -278.3167803955078 -214.55826212949498, -316.94943882311475 -248.14111974719796 M-136.57384914987225 -91.34301181846676 C-205.53993284696253 -151.2943137354712, -274.5060165440528 -211.24561565247564, -316.94943882311475 -248.14111974719796 M-124.53299069594324 -91.47615719933437 C-167.77224688761055 -129.0634691597889, -211.01150307927787 -166.65078112024344, -304.90858036918576 -248.2742651280656 M-124.53299069594324 -91.47615719933437 C-167.35268612362765 -128.69875055195052, -210.17238155131204 -165.9213439045667, -304.90858036918576 -248.2742651280656 M-112.49213224201422 -91.60930258020198 C-172.06516015305058 -143.3953456748218, -231.63818806408696 -195.18138876944164, -292.11301233503394 -247.7513514799427 M-112.49213224201422 -91.60930258020198 C-148.79176417642375 -123.16409120839458, -185.0913961108333 -154.71887983658718, -292.11301233503394 -247.7513514799427 M-100.45127378808522 -91.74244796106959 C-148.29106806525442 -133.32894666606938, -196.13086234242363 -174.9154453710692, -280.07215388110495 -247.88449686081034 M-100.45127378808522 -91.74244796106959 C-158.20240639649757 -141.94474163142868, -215.9535390049099 -192.14703530178775, -280.07215388110495 -247.88449686081034 M-87.65570575393345 -91.2195343129467 C-156.09714986247872 -150.7147739934956, -224.53859397102394 -210.2100136740445, -268.03129542717596 -248.01764224167792 M-87.65570575393345 -91.2195343129467 C-156.34002570047534 -150.92590273840207, -225.02434564701724 -210.63227116385747, -268.03129542717596 -248.01764224167792 M-75.61484730000444 -91.35267969381431 C-136.66940887771284 -144.4266003565004, -197.72397045542124 -197.50052101918644, -255.99043697324694 -248.15078762254555 M-75.61484730000444 -91.35267969381431 C-113.72774763105349 -124.48371849130692, -151.84064796210254 -157.61475728879952, -255.99043697324694 -248.15078762254555 M-63.57398884607543 -91.48582507468191 C-124.28631641976088 -144.26224625644107, -184.99864399344634 -197.03866743820026, -243.94957851931792 -248.28393300341315 M-63.57398884607543 -91.48582507468191 C-135.18233394966705 -153.73400979020164, -206.79067905325866 -215.98219450572137, -243.94957851931792 -248.28393300341315 M-51.53313039214643 -91.61897045554953 C-102.93910856023678 -136.30550552154094, -154.3450867283271 -180.99204058753236, -231.15401048516617 -247.76101935529024 M-51.53313039214643 -91.61897045554953 C-119.898757851631 -151.04830372856432, -188.26438531111557 -210.4776370015791, -231.15401048516617 -247.76101935529024 M-39.49227193821743 -91.75211583641713 C-77.72030805022939 -124.98324064134894, -115.94834416224136 -158.21436544628074, -219.11315203123715 -247.89416473615788 M-39.49227193821743 -91.75211583641713 C-105.93619056724523 -149.51093310917153, -172.38010919627305 -207.26975038192595, -219.11315203123715 -247.89416473615788 M-27.451413484288416 -91.88526121728475 C-72.15175527596892 -130.74267551264504, -116.85209706764942 -169.60008980800532, -207.07229357730816 -248.02731011702548 M-27.451413484288416 -91.88526121728475 C-71.27145761224165 -129.9774444282363, -115.09150174019487 -168.06962763918787, -207.07229357730816 -248.02731011702548 M-14.655845450136638 -91.36234756916184 C-55.645093228971724 -126.9937570563664, -96.63434100780681 -162.62516654357097, -195.03143512337917 -248.1604554978931 M-14.655845450136638 -91.36234756916184 C-61.43592264514744 -132.02764826880406, -108.21599984015825 -172.69294896844625, -195.03143512337917 -248.1604554978931 M-2.6149869962076266 -91.49549295002946 C-52.05896126304959 -134.47648404512196, -101.50293552989154 -177.45747514021446, -182.23586708922736 -247.63754184977017 M-2.6149869962076266 -91.49549295002946 C-66.64406101410967 -147.1551178284452, -130.67313503201171 -202.814742706861, -182.23586708922736 -247.63754184977017 M4.142904396161967 -96.22105153383063 C-32.17309264707085 -127.79006613408622, -68.48908969030367 -159.3590807343418, -170.1950086352984 -247.7706872306378 M4.142904396161967 -96.22105153383063 C-42.18629802768533 -136.49441277448446, -88.51550045153263 -176.7677740151383, -170.1950086352984 -247.7706872306378 M4.108409566526625 -106.85114137854634 C-48.39541571743331 -152.492020382513, -100.89924100139325 -198.13289938647966, -158.15415018136937 -247.90383261150544 M4.108409566526625 -106.85114137854634 C-30.598045981197366 -137.02100290279122, -65.30450152892135 -167.19086442703608, -158.15415018136937 -247.90383261150544 M4.828624317114048 -116.82517219427157 C-54.62146009112178 -168.5043421324062, -114.07154449935761 -220.18351207054084, -146.11329172744036 -248.036977992373 M4.828624317114048 -116.82517219427157 C-29.91263182101563 -147.02528541022428, -64.65388795914531 -177.22539862617697, -146.11329172744036 -248.036977992373 M4.794129487478706 -127.45526203898729 C-31.294897158802677 -158.8269742832961, -67.38392380508407 -190.19868652760493, -133.3177236932886 -247.51406434425013 M4.794129487478706 -127.45526203898729 C-30.093476416152576 -157.78259516517306, -64.98108231978387 -188.1099282913588, -133.3177236932886 -247.51406434425013 M4.759634657843364 -138.08535188370303 C-24.36972285295397 -163.40711604894665, -53.499080363751304 -188.72888021419024, -121.27686523935958 -247.64720972511773 M4.759634657843364 -138.08535188370303 C-24.770180748972646 -163.75522878700946, -54.299996155788655 -189.4251056903159, -121.27686523935958 -247.64720972511773 M5.4798494084307805 -148.05938269942823 C-24.961347261785274 -174.5215112481025, -55.40254393200133 -200.9836397967768, -109.23600678543058 -247.78035510598534 M5.4798494084307805 -148.05938269942823 C-23.154336515076075 -172.95070077089682, -51.78852243858293 -197.8420188423654, -109.23600678543058 -247.78035510598534 M5.445354578795445 -158.689472544144 C-33.216566727893905 -192.29776799454365, -71.87848803458326 -225.9060634449433, -97.19514833150156 -247.91350048685297 M5.445354578795445 -158.689472544144 C-15.129565245650028 -176.57497747916662, -35.7044850700955 -194.46048241418922, -97.19514833150156 -247.91350048685297 M6.165569329382862 -168.6635033598692 C-14.110090782756277 -186.2888657958212, -34.385750894895416 -203.91422823177322, -85.15428987757255 -248.04664586772057 M6.165569329382862 -168.6635033598692 C-23.288251131401257 -194.26731886444904, -52.742071592185376 -219.8711343690289, -85.15428987757255 -248.04664586772057 M6.131074499747513 -179.2935932045849 C-17.140493346688913 -199.52325850168262, -40.41206119312534 -219.75292379878033, -72.35872184342078 -247.52373221959766 M6.131074499747513 -179.2935932045849 C-16.755274349630774 -199.1883927363851, -39.64162319900906 -219.08319226818531, -72.35872184342078 -247.52373221959766 M6.851289250334943 -189.26762402031014 C-15.11027890879485 -208.3585239626888, -37.071847067924644 -227.44942390506742, -60.31786338949178 -247.6568776004653 M6.851289250334943 -189.26762402031014 C-15.289743715014996 -208.51453033864072, -37.430776680364936 -227.7614366569713, -60.31786338949178 -247.6568776004653 M6.816794420699608 -199.89771386502588 C-7.833510561732027 -212.63302969121668, -22.48381554416366 -225.36834551740748, -48.27700493556276 -247.7900229813329 M6.816794420699608 -199.89771386502588 C-10.330764483498342 -214.8038594063677, -27.478323387696292 -229.7100049477095, -48.27700493556276 -247.7900229813329 M6.782299591064259 -210.5278037097416 C-5.485757784219164 -221.19226328484402, -17.753815159502587 -231.85672285994644, -36.23614648163375 -247.9231683622005 M6.782299591064259 -210.5278037097416 C-4.82302411925815 -220.61615769918907, -16.42834782958056 -230.70451168863653, -36.23614648163375 -247.9231683622005 M7.5025143416516755 -220.50183452546682 C-3.9359736934144856 -230.44516047501943, -15.374461728480647 -240.38848642457202, -23.440578447481982 -247.40025471407762 M7.5025143416516755 -220.50183452546682 C-1.8925307169811099 -228.66882259612217, -11.287575775613895 -236.83581066677752, -23.440578447481982 -247.40025471407762 M7.468019512016326 -231.13192437018253 C1.5982678191105784 -236.23442167109982, -4.2714838737951695 -241.33691897201714, -11.399719993552978 -247.5334000949452 M7.468019512016326 -231.13192437018253 C2.1384439751973545 -235.76485370252905, -3.191131561621617 -240.39778303487557, -11.399719993552978 -247.5334000949452 M8.188234262603771 -241.10595518590776 C5.910349912749972 -243.0860898415148, 3.6324655628961713 -245.06622449712185, 0.641138460376041 -247.66654547581282 M8.188234262603771 -241.10595518590776 C5.520039794959537 -243.4253812505455, 2.851845327315303 -245.74480731518327, 0.641138460376041 -247.66654547581282" stroke="#12b886" stroke-width="1" fill="none"></path><path d="M0 -91.62753036437249 C-109.3372051652521 -91.4908522444585, -218.6744103305042 -91.3541741245445, -502 -90.99999999999994 M-502 -90.99999999999994 C-502 -144.84305526036763, -501.99999999999994 -198.68611052073533, -501.99999999999994 -245.99999999999994 M-501.99999999999994 -245.99999999999994 C-354.4350303377955 -245.81699308462302, -206.87006067559116 -245.63398616924613, 3.999999999999986 -245.3724696356276 M3.999999999999986 -245.3724696356276 C2.8120288468897243 -199.7113314378924, 1.6240576937794624 -154.05019324015723, 0 -91.62753036437249 M0 -91.62753036437249 C0 -91.62753036437249, 0 -91.62753036437249, 0 -91.62753036437249" stroke="#12b886" stroke-width="2.5" fill="none" stroke-dasharray="12 8"></path></g></g><g><g stroke-opacity="0.8" fill-opacity="0.8" transform="translate(267 189) rotate(0 9 26.5)" fill-rule="evenodd"><path d="M0 0 L19 40 L-1 53 L0 0" stroke="none" stroke-width="0" fill="#15aabf" fill-rule="evenodd"></path><path d="M0 0 C4.144361693970859 8.724971987307072, 8.288723387941719 17.449943974614143, 19 40 M0 0 C4.2098831253126265 8.862911842763424, 8.419766250625253 17.725823685526848, 19 40 M19 40 C11.985982667654753 44.55911126602441, 4.971965335309504 49.11822253204882, -1 53 M19 40 C13.961128044873476 43.27526677083224, 8.92225608974695 46.55053354166448, -1 53 M-1 53 C-0.6150645082816482 32.59841893892735, -0.23012901656329632 12.196837877854705, 0 0 M-1 53 C-0.7913681948557496 41.94251432735473, -0.5827363897114992 30.88502865470946, 0 0 M0 0 C0 0, 0 0, 0 0 M0 0 C0 0, 0 0, 0 0" stroke="#15aabf" stroke-width="2" fill="none"></path></g></g><g><g stroke-opacity="0.8" fill-opacity="0.8" transform="translate(268.5 159.15517241379303) rotate(0 22 -11.827586206896513)" fill-rule="evenodd"><path d="M0 25.344827586206932 L0 -49 L44.000000000000014 -8.034482758620669 L0 25.344827586206932" stroke="none" stroke-width="0" fill="#7950f2" fill-rule="evenodd"></path><path d="M0 25.344827586206932 C0 9.717593766055257, 0 -5.909640054096418, 0 -49 M0 25.344827586206932 C0 7.3911586938490395, 0 -10.562510198508853, 0 -49 M0 -49 C16.452796424180274 -33.68187919128043, 32.90559284836055 -18.36375838256086, 44.000000000000014 -8.034482758620669 M0 -49 C17.015706800669438 -33.15779022006638, 34.031413601338876 -17.315580440132763, 44.000000000000014 -8.034482758620669 M44.000000000000014 -8.034482758620669 C27.902766048163183 4.177211963462446, 11.805532096326353 16.38890668554556, 0 25.344827586206932 M44.000000000000014 -8.034482758620669 C33.758333159238106 -0.2649423966633613, 23.516666318476204 7.5045979652939465, 0 25.344827586206932 M0 25.344827586206932 C0 25.344827586206932, 0 25.344827586206932, 0 25.344827586206932 M0 25.344827586206932 C0 25.344827586206932, 0 25.344827586206932, 0 25.344827586206932" stroke="#7950f2" stroke-width="2" fill="none"></path></g></g><g><g stroke-opacity="0.8" fill-opacity="0.8" transform="translate(266 187) rotate(0 -14.5 -24.5)" fill-rule="evenodd"><path d="M0 0 L0 -49 L-29 -22 L0 0" stroke="none" stroke-width="0" fill="#7950f2" fill-rule="evenodd"></path><path d="M0 0 C0 -17.521509552560747, 0 -35.043019105121495, 0 -49 M0 0 C0 -13.647985532321037, 0 -27.295971064642075, 0 -49 M0 -49 C-6.2343300534412265 -43.195623743347824, -12.468660106882453 -37.39124748669565, -29 -22 M0 -49 C-6.1637835936620835 -43.26130493003875, -12.327567187324167 -37.5226098600775, -29 -22 M-29 -22 C-22.712489329464734 -17.23016431890428, -16.42497865892947 -12.46032863780856, 0 0 M-29 -22 C-17.715107224695384 -13.43904686011374, -6.430214449390768 -4.878093720227479, 0 0 M0 0 C0 0, 0 0, 0 0 M0 0 C0 0, 0 0, 0 0" stroke="#7950f2" stroke-width="2" fill="none"></path></g></g><g><g transform="translate(9.999999999999972 189) rotate(0 254.50000000000003 1)"><path d="M0 0 C84.83333333333333 0.3333333333333333, 424.1666666666667 1.6666666666666667, 509 2 M0 0 C84.83333333333333 0.3333333333333333, 424.1666666666667 1.6666666666666667, 509 2" stroke="#ffffff" stroke-width="4" fill="none"></path></g></g><g><g transform="translate(265.75 189) rotate(0 0.5 -54.5)"><path d="M0 0 C0.16666666666666666 -18.166666666666668, 0.8333333333333334 -90.83333333333333, 1 -109 M0 0 C0.16666666666666666 -18.166666666666668, 0.8333333333333334 -90.83333333333333, 1 -109" stroke="#ffffff" stroke-width="4" fill="none"></path></g><g transform="translate(265.75 189) rotate(0 0.5 -54.5)"><path d="M11.00155240675168 -80.71627765913757 C8.28970173201972 -88.38521028025957, 5.577851057287762 -96.05414290138157, 1 -109 M11.00155240675168 -80.71627765913757 C7.121982834456135 -91.6874413467659, 3.24241326216059 -102.6586050343942, 1 -109" stroke="#ffffff" stroke-width="4" fill="none"></path></g><g transform="translate(265.75 189) rotate(0 0.5 -54.5)"><path d="M-9.518792632765356 -80.90453770537168 C-6.666695904334093 -88.52242493747383, -3.8145991759028304 -96.14031216957598, 1 -109 M-9.518792632765356 -80.90453770537168 C-5.43858726306547 -91.80267593481655, -1.3583818933655838 -102.70081416426142, 1 -109" stroke="#ffffff" stroke-width="4" fill="none"></path></g></g><g transform="translate(283 39) rotate(0 6.5 18)"><text x="0" y="25" font-family="Virgil, Segoe UI Emoji" font-size="28px" fill="#ffffff" text-anchor="start" style="white-space: pre;" direction="ltr">n</text></g><g><g transform="translate(266 188) rotate(0 100 -72)"><path d="M0 0 C56.74238551408053 -40.85451757013798, 113.48477102816106 -81.70903514027596, 200 -144 M0 0 C57.28540491312742 -41.24549153745175, 114.57080982625484 -82.4909830749035, 200 -144" stroke="#f2aa74" stroke-width="4" fill="none"></path></g><g transform="translate(266 188) rotate(0 100 -72)"><path d="M183.11753461709233 -119.2011620716832 C187.90729141301767 -126.23688818183197, 192.697048208943 -133.27261429198074, 200 -144 M183.11753461709233 -119.2011620716832 C187.95312894405095 -126.30421943217645, 192.78872327100956 -133.4072767926697, 200 -144" stroke="#f2aa74" stroke-width="4" fill="none"></path></g><g transform="translate(266 188) rotate(0 100 -72)"><path d="M171.12689545232843 -135.85482757829973 C179.31853959849008 -138.1657101464536, 187.51018374465175 -140.47659271460748, 200 -144 M171.12689545232843 -135.85482757829973 C179.39693287789055 -138.18782507962143, 187.6669703034527 -140.5208225809431, 200 -144" stroke="#f2aa74" stroke-width="4" fill="none"></path></g></g><g><g transform="translate(264 186) rotate(0 -100 -72)"><path d="M0 0 C-46.43702697008848 -33.43465941846371, -92.87405394017696 -66.86931883692742, -200 -144 M0 0 C-42.60764468461276 -30.677504172921182, -85.21528936922552 -61.355008345842364, -200 -144" stroke="#f2aa74" stroke-width="4" fill="none"></path></g></g><g transform="translate(42 17) rotate(0 27.5 27.5)"><path d="M27.500000000000007 0 C33.09760876768696 -0.3511037030961983, 40.66295706507389 2.646331961868201, 45.17665926637984 6.433777814228105 C49.6903614676858 10.221223666588008, 53.55903998488703 16.92197141653077, 54.582213207835736 22.72467511415942 C55.60538643078444 28.527378811788072, 54.261808481802056 36.14718800709116, 51.31569860407208 41.25000000000001 C48.36958872634211 46.352811992908855, 42.44242936571057 51.32628922634375, 36.905553941455906 53.341547071612496 C31.368678517201246 55.356804916881245, 23.63132148279878 55.356804916881245, 18.094446058544115 53.341547071612496 C12.557570634289451 51.32628922634375, 6.6304112736579075 46.352811992908855, 3.6843013959279354 41.25000000000001 C0.7381915181979628 36.14718800709116, -0.6053864307844268 28.52737881178807, 0.4177867921642786 22.724675114159417 C1.440960015112984 16.921971416530766, 5.309638532314213 10.221223666588012, 9.823340733620167 6.433777814228108 C14.33704293492612 2.646331961868205, 24.55389012227003 0.9806296357046845, 27.500000000000004 0 C30.446109877729977 -0.9806296357046845, 27.500000000000007 0.0916666666666674, 27.500000000000007 0.5500000000000007" stroke="#f2aa74" stroke-width="4.5" fill="none" stroke-dasharray="3 6"></path></g><g><g transform="translate(266 188) rotate(0 33.5 62.5)"><path d="M0 0 C18.541405223123732 34.59217392373831, 37.082810446247464 69.18434784747662, 67 125 M0 0 C25.951531259901824 48.41703593265265, 51.90306251980365 96.8340718653053, 67 125" stroke="#f2aa74" stroke-width="4" fill="none"></path></g><g transform="translate(266 188) rotate(0 33.5 62.5)"><path d="M44.6387536060028 105.00063351735993 C50.82694660130454 110.53520602721647, 57.015139596606275 116.069778537073, 67 125 M44.6387536060028 105.00063351735993 C53.3000757672593 112.74711388232211, 61.961397928515794 120.4935942472843, 67 125" stroke="#f2aa74" stroke-width="4" fill="none"></path></g><g transform="translate(266 188) rotate(0 33.5 62.5)"><path d="M62.72563643528546 95.30606432086444 C63.90851265803662 103.52348662080809, 65.09138888078779 111.74090892075174, 67 125 M62.72563643528546 95.30606432086444 C64.3812525497015 106.8076031269331, 66.03686866411755 118.30914193300177, 67 125" stroke="#f2aa74" stroke-width="4" fill="none"></path></g></g><g transform="translate(23 156.5) rotate(0 62 18)"><text x="0" y="25" font-family="Virgil, Segoe UI Emoji" font-size="28px" fill="#ffffff" text-anchor="start" style="white-space: pre;" direction="ltr">interface</text></g><g><g transform="translate(266.75 298.5) rotate(180 -0.5 -54.5)"><path d="M0 0 C-0.16666666666666666 -18.166666666666668, -0.8333333333333334 -90.83333333333333, -1 -109" stroke="#ffffff" stroke-width="4.5" fill="none" stroke-dasharray="12 8"></path></g></g><g stroke-opacity="0.8" fill-opacity="0.8" transform="translate(333 109.5) rotate(324.0714975771772 62 18)"><text x="0" y="25" font-family="Virgil, Segoe UI Emoji" font-size="28px" fill="#ffffff" text-anchor="start" style="white-space: pre;" direction="ltr">reflected</text></g><g stroke-opacity="0.8" fill-opacity="0.8" transform="translate(277.14387429249746 246.35951138224834) rotate(60.751076502518245 66.5 18)"><text x="0" y="25" font-family="Virgil, Segoe UI Emoji" font-size="28px" fill="#ffffff" text-anchor="start" style="white-space: pre;" direction="ltr">refracted</text></g><g stroke-opacity="0.8" fill-opacity="0.8" transform="translate(117.41993755180374 73.60795420465598) rotate(35.158521186445775 49.5 18)"><text x="0" y="25" font-family="Virgil, Segoe UI Emoji" font-size="28px" fill="#ffffff" text-anchor="start" style="white-space: pre;" direction="ltr">incident</text></g></svg>