<svg version="1.1" xmlns="http://www.w3.org/2000/svg" viewBox="0 0 833.375 392.25" width="833.375" height="392.25">
  <!-- svg-source:excalidraw -->
  
  <defs>
    <style>
      @font-face {
        font-family: "Virgil";
        src: url("https://excalidraw.com/Virgil.woff2");
      }
      @font-face {
        font-family: "Cascadia";
        src: url("https://excalidraw.com/Cascadia.woff2");
      }
    </style>
  </defs>
  <g><g transform="translate(638.5982504546641 257.9290091276821) rotate(0 -13.660198829281171 -87.5960005611181)"><path d="M0.7232504546642302 -0.7773029029369354 C-3.937197789549832 -30.108884698163404, -22.68956606090071 -147.4152524293012, -27.311678123474145 -176.6210102499183 M-0.3561817859765142 1.4290091276820749 C-5.195602232431997 -27.659747063165216, -23.536285037910588 -145.25699167310103, -28.043648113226542 -175.18438558787105" stroke="#1864ab" stroke-width="4" fill="none"></path></g><g transform="translate(638.5982504546641 257.9290091276821) rotate(0 -13.660198829281171 -87.5960005611181)"><path d="M-14.911283378006788 -148.19564516630345 C-18.908444159429195 -156.92271379213486, -23.00426322020502 -166.2691806304201, -27.753311772560725 -176.35888530820606 M-13.094546992780538 -148.51359391000443 C-19.10509747864231 -158.1845037616584, -25.018186354379555 -168.96717748390313, -27.47963616690601 -175.76372474938628" stroke="#1864ab" stroke-width="4" fill="none"></path></g><g transform="translate(638.5982504546641 257.9290091276821) rotate(0 -13.660198829281171 -87.5960005611181)"><path d="M-35.19386892440147 -145.07527244192886 C-31.98948313794548 -155.02998096474457, -28.900177098807973 -165.4818427898624, -27.753311772560725 -176.35888530820606 M-33.37713253917522 -145.39322118562984 C-31.541910459435073 -156.46938723413504, -29.621865092376936 -168.45714885711482, -27.47963616690601 -175.76372474938628" stroke="#1864ab" stroke-width="4" fill="none"></path></g></g><g><g transform="translate(637.875 255.49999999999977) rotate(0 65.24422910873318 -24.01335813888349)"><path d="M-0.8257548987865448 -0.8147193253040313 C20.62043924132983 -8.610715101162594, 107.1622113843759 -39.660931458075844, 129.08344824910165 -47.86956761479378 M0.9415850500110539 1.3719490835722534 C22.72400982487636 -6.6350767264111585, 109.75375349222062 -40.95184368534324, 131.3142131162528 -49.398665361339226" stroke="#087f5b" stroke-width="4" fill="none"></path></g><g transform="translate(637.875 255.49999999999977) rotate(0 65.24422910873318 -24.01335813888349)"><path d="M107.46807586880638 -31.069826060642676 C118.39881826426156 -34.84725334214584, 122.2450696642737 -43.266031744567734, 133.07209025749006 -50.91118069761433 M108.08752985032513 -29.406684169282393 C116.36330059060825 -37.71818375753896, 125.60733007287936 -44.35084509772385, 131.4284450454358 -49.309211768442765" stroke="#087f5b" stroke-width="4" fill="none"></path></g><g transform="translate(637.875 255.49999999999977) rotate(0 65.24422910873318 -24.01335813888349)"><path d="M99.96586768129187 -50.17052957378663 C113.22720446836442 -47.51942934780673, 119.57812021737884 -49.5613051191002, 133.07209025749006 -50.91118069761433 M100.58532166281061 -48.50738768242635 C111.77879362335969 -49.76799023374671, 123.78821306515486 -49.35993870715176, 131.4284450454358 -49.309211768442765" stroke="#087f5b" stroke-width="4" fill="none"></path></g></g><g><g transform="translate(637.875 255.49999999999977) rotate(0 59.9659914674703 42.304354695710344)"><path d="M0.7147434532642365 -1.0187674820423125 C20.224528088172278 12.962010830640795, 98.49160947601001 69.91434981226922, 118.07487433552743 84.05905024409294 M-0.369154963111505 1.0607756445463745 C19.422745316311094 15.235830319589006, 100.12358558196263 71.62296025193297, 120.3011378980521 85.62747687346302" stroke="#d9480f" stroke-width="4" fill="none"></path></g><g transform="translate(637.875 255.49999999999977) rotate(0 59.9659914674703 42.304354695710344)"><path d="M89.60896216597963 76.38270320447404 C102.57003479764701 79.40559318545772, 113.37419237617249 82.48176318343788, 119.4057023561839 86.05843535310589 M91.48578995731283 78.73701864930112 C97.47870307461282 79.05779704971701, 105.13152425657297 80.89643252817301, 120.6904514617566 86.18251045293175" stroke="#d9480f" stroke-width="4" fill="none"></path></g><g transform="translate(637.875 255.49999999999977) rotate(0 59.9659914674703 42.304354695710344)"><path d="M101.34365048651684 59.54770714252954 C109.81508093998507 69.11658666127514, 116.10513223357421 78.66885209990721, 119.4057023561839 86.05843535310589 M103.22047827785003 61.90202258735662 C106.30849466187045 66.33316442236712, 111.1468853056903 72.20948081163911, 120.6904514617566 86.18251045293175" stroke="#d9480f" stroke-width="4" fill="none"></path></g></g><g transform="translate(581.875 12.5) rotate(0 22.5 22.5)"><path d="M15.775426384176608 1.5680873932721902 C20.02046330621261 0.08049732123348718, 26.516149122763494 -0.8469310378213764, 31.1057364773489 1.1732031619856684 C35.6953238319343 3.193337361792713, 41.10362529417966 9.201292814045647, 43.31295051168904 13.68889259211446 C45.52227572919842 18.176492370183272, 45.65776793682652 23.68252585325449, 44.36168778240517 28.09880183039855 C43.06560762798382 32.51507780754261, 39.55641749093789 37.30434659607041, 35.53646958516095 40.18654845497883 C31.516521679384013 43.06875031388726, 25.0687763242333 45.577200338803586, 20.242000347743538 45.39201298384908 C15.415224371253775 45.20682562889457, 9.853628121286537 42.49144434449499, 6.575813726222364 39.075424325251795 C3.297999331158192 35.659404306008604, 1.0610826510713487 29.926244286348144, 0.5751139773585052 24.89589286838992 C0.08914530364566176 19.8655414504317, 0.7418452157883091 13.137523177721356, 3.6600016839453033 8.893315817502458 C6.578158152102297 4.649108457283561, 15.046523579684967 0.8536526948713199, 18.08405278630047 -0.5693512929234608 C21.121581992915978 -1.9923552807182414, 21.733118773268576 -0.25837458793115664, 21.885176923638333 0.3552918907337741 M18.079216952589242 0.19803555734805656 C22.371924059045742 -1.1938034835587834, 26.71174610463341 0.6484033825723663, 30.910265305765773 2.6707288222295773 C35.10878450689813 4.693054261886788, 40.91199617100573 8.11714170284726, 43.270332159383415 12.331988195291324 C45.6286681477611 16.546834687735387, 46.564916839850284 23.33796139377654, 45.06028123603186 27.959807776893953 C43.55564563221344 32.58165416001137, 38.52475360274816 37.39138220661868, 34.2425185364729 40.063066493995805 C29.960283470197634 42.73475078137293, 23.7617585339661 44.42912926088972, 19.366870838380265 43.98991350115671 C14.971983142794432 43.5506977414237, 11.25401973718926 40.591390234717664, 7.873192362957893 37.427771935597754 C4.492364988726525 34.26415363647784, -0.3388313382671825 29.81005993196098, -0.9180934070079445 25.00820370643726 C-1.4973554757487064 20.206347480913543, 1.2193968241614908 12.771191830745735, 4.39761995051332 8.616634582455456 C7.57584307686515 4.462077334165177, 15.962757091809484 1.5697319535751626, 18.151245351103032 0.08086021669559074 C20.33973361039658 -1.4080115201839811, 17.542830356515644 -0.5937319017059994, 17.528549506274608 -0.31659583882197495" stroke="#1864ab" stroke-width="1" fill="none"></path></g><g transform="translate(594.375 10) rotate(0 8.5 23)"><text x="8.5" y="32" font-family="Virgil, Segoe UI Emoji" font-size="36px" fill="#1864ab" text-anchor="middle" style="white-space: pre;" direction="ltr">y</text></g><g transform="translate(778.375 169.25) rotate(0 22.5 22.5)"><path d="M27.0705340238305 -0.10119087731024479 C31.539566318856902 0.6752528537539098, 35.96478157035155 5.178864462495193, 39.093107500521995 9.069606698787338 C42.22143343069244 12.960348935079482, 45.83806681120041 18.516576897131763, 45.840489604853204 23.243262540442625 C45.842912398505995 27.969948183753488, 42.330044676020655 33.96241790546715, 39.107644262438754 37.429720558652505 C35.88524384885685 40.89702321183786, 31.060680629257615 43.18928182950366, 26.506087123361805 44.047078459554754 C21.951493617465996 44.904875089605845, 15.969120568228526 44.96466567045372, 11.780083227063889 42.576500338959036 C7.591045885899253 40.18833500746435, 3.2336977581965005 34.26868645855334, 1.371863076373991 29.71808647058664 C-0.4899716054485188 25.16748648261994, -1.0063564423329392 19.885863188278833, 0.6090751361288298 15.272900411158828 C2.224506714590599 10.65993763403882, 6.41199388019664 4.328346362332676, 11.064452547144604 2.040309807866599 C15.716911214092569 -0.24772674659947702, 25.057591121496056 1.3780391693016139, 28.523827137816617 1.5446810843623702 C31.99006315413718 1.7113229994231265, 31.81066625525929 2.6976847022467, 31.861868645067972 3.040161298231137 M12.760214146352595 1.1407746360286062 C16.92715582435389 -0.7112486522906556, 23.895641248520125 0.923138163169279, 28.391576130617956 2.0911319882041326 C32.887511012715784 3.2591258132389864, 37.05315614380726 4.648405553585437, 39.735823438939576 8.148737586237727 C42.418490734071895 11.649069618890017, 44.763014573100335 18.01794851434257, 44.48757990141188 23.093124184117872 C44.21214522972342 28.168299853893174, 41.42850035990648 34.82885143926656, 38.08321540880884 38.599791604889546 C34.7379304577112 42.370731770512535, 29.221501268896695 45.449043671945255, 24.41587019482603 45.7187651778558 C19.610239120755367 45.98848668376635, 13.15930962658267 42.94708469968575, 9.24942896438486 40.21812064035281 C5.339548302187049 37.48915658101986, 2.166437631597481 33.99850560040354, 0.9565862216391636 29.344980821858123 C-0.2532651883191539 24.69145604331271, -0.12072115325541377 16.559730614378385, 1.9903205046349548 12.296971969080321 C4.101362162525323 8.034213323782257, 11.820034311213561 5.481461141040844, 13.622836168981374 3.7684289500697474 C15.425638026749187 2.0553967590986506, 12.988307702058417 2.1319897249720525, 12.80713165124183 2.01877882325374" stroke="#087f5b" stroke-width="1" fill="none"></path></g><g transform="translate(789.875 166.75) rotate(0 10.5 23)"><text x="10.5" y="32" font-family="Virgil, Segoe UI Emoji" font-size="36px" fill="#087f5b" text-anchor="middle" style="white-space: pre;" direction="ltr">z</text></g><g transform="translate(772.375 337.25) rotate(0 22.5 22.5)"><path d="M12.019056619281914 1.8404216415349879 C15.967643900889499 -0.24276758347676353, 22.76335171939849 0.212793272348466, 27.69222422871593 1.471827558104419 C32.62109673803337 2.730861843860372, 38.63055856063446 5.603350451992426, 41.59229167518655 9.394627356070705 C44.55402478973864 13.185904260148984, 46.15474705315794 19.265300518927063, 45.46262291602848 24.219488982574088 C44.77049877889902 29.173677446221113, 40.77890967193383 35.725370653856636, 37.43954685240977 39.11975813795286 C34.10018403288571 42.51414562204908, 29.97112250979115 44.27578973375556, 25.426445998884127 44.585813887151396 C20.881769487977103 44.89583804054723, 14.290146481356246 43.83386162904466, 10.171487786967635 40.979903058327864 C6.052829092579025 38.125944487611065, 2.13781830226325 32.18872562547418, 0.7144938325524706 27.462062462850607 C-0.7088306371583091 22.735399300227034, -0.7466165604371735 17.093740509383906, 1.6315409687029572 12.619924082586426 C4.009698497843088 8.146107655788946, 12.622382508088155 2.5572475931004695, 14.983439007393255 0.6191639020657291 C17.344495506698355 -1.318919788969011, 15.793917601628076 0.35811609297937375, 15.797879964533555 0.9914219363779857 M14.84475916068828 0.28318299109623624 C19.060533338538512 -1.5001211673595403, 26.260892254384437 -0.1917257477718115, 30.70408740466818 1.5270928428286688 C35.14728255495192 3.245911433429149, 39.194479126072025 6.5175726334531126, 41.50393006239072 10.596094534699118 C43.81338099870942 14.674616435945122, 45.33652492082567 21.111311955630985, 44.56079302258035 25.9982242503047 C43.78506112433503 30.885136544978412, 40.81616300512135 36.70135561344804, 36.84953867291883 39.9175683027414 C32.88291434071631 43.133780992034765, 25.63599869266941 45.37194916246691, 20.76104702936522 45.2955003860649 C15.886095366061028 45.21905160966289, 10.786411363302788 42.68338528105066, 7.599828693093693 39.45887564432934 C4.413246022884598 36.23436600760802, 2.534143888493499 30.684443207889732, 1.6415510081106461 25.948442565736972 C0.7489581277277931 21.212441923584212, -0.22914371628962593 15.10893765498053, 2.244271410796575 11.042871791412782 C4.717686537882775 6.976805927845035, 14.053670387927943 3.004056172194683, 16.482041770627852 1.5520473843304892 C18.91041315332776 0.10003859646629532, 16.735093395416328 2.0573150907278315, 16.814499706996028 2.3308190642276188" stroke="#d9480f" stroke-width="1" fill="none"></path></g><g transform="translate(783.375 334.75) rotate(0 10 23)"><text x="10" y="32" font-family="Virgil, Segoe UI Emoji" font-size="36px" fill="#d9480f" text-anchor="middle" style="white-space: pre;" direction="ltr">x</text></g><g><g transform="translate(66.72325045466414 257.9290091276821) rotate(0 -13.311054434557434 -87.67387140663806)"><path d="M-0.28654710128903393 -0.7151263229548931 C-4.988321796804669 -30.115838896494044, -23.95207381621005 -145.92710896661347, -28.38598581030967 -175.3273614876624 M1.763876941194758 1.5238284121546894 C-2.5285663434956267 -27.67035221561944, -21.191609364757333 -147.25757289250222, -26.02196733565072 -176.87157122543078" stroke="#087f5b" stroke-width="4" fill="none"></path></g><g transform="translate(66.72325045466414 257.9290091276821) rotate(0 -13.311054434557434 -87.67387140663806)"><path d="M-12.656770580804377 -151.74463004705663 C-14.01864482175143 -156.7722821281618, -21.15520003291922 -166.81349425164376, -25.642055871943036 -178.16530659174543 M-12.40949305461946 -151.41116357495244 C-13.787715086094455 -155.08833393291948, -17.092881523668588 -161.16936953123968, -25.767372046643892 -177.3023755767755" stroke="#087f5b" stroke-width="4" fill="none"></path></g><g transform="translate(66.72325045466414 257.9290091276821) rotate(0 -13.311054434557434 -87.67387140663806)"><path d="M-32.923762176252396 -148.5245284871863 C-28.53056757606453 -154.4227652222146, -29.883155843582866 -165.38295739706578, -25.642055871943036 -178.16530659174543 M-32.67648465006748 -148.1910620150821 C-29.89182043913168 -152.47707226378188, -29.04211920359358 -159.21825003526249, -25.767372046643892 -177.3023755767755" stroke="#087f5b" stroke-width="4" fill="none"></path></g></g><g><g transform="translate(66 255.49999999999977) rotate(0 65.19326065853238 -24.1240861217957)"><path d="M-0.7151263229548931 -0.6627353556454182 C20.955662624786296 -8.642772273967664, 109.43039863978822 -39.99392544900378, 131.10164764001965 -48.16676861122251 M1.1102936281543228 1.6037246373016387 C22.625225484647476 -6.683963914938891, 109.55273905672443 -41.45965952150834, 130.73196718740277 -49.85189688089304" stroke="#1864ab" stroke-width="4" fill="none"></path></g><g transform="translate(66 255.49999999999977) rotate(0 65.19326065853238 -24.1240861217957)"><path d="M107.23265463810499 -28.053978633820623 C118.50179391323215 -38.68263647492062, 124.67494569261217 -44.936654695492834, 129.43823182108812 -51.751764255343005 M107.56612111020918 -29.293903692379207 C115.51472151346523 -34.89470251902247, 120.97207819172364 -40.40686168126462, 130.30116283605807 -49.208740641130134" stroke="#1864ab" stroke-width="4" fill="none"></path></g><g transform="translate(66 255.49999999999977) rotate(0 65.19326065853238 -24.1240861217957)"><path d="M99.64080901580267 -47.119231908638895 C113.82328990911235 -50.27210125525361, 122.95530908218521 -49.095573720043184, 129.43823182108812 -51.751764255343005 M99.97427548790687 -48.35915696719748 C109.9631201509201 -48.64342264392816, 117.50898138467099 -48.91076120561642, 130.30116283605807 -49.208740641130134" stroke="#1864ab" stroke-width="4" fill="none"></path></g></g><g><g transform="translate(66 255.49999999999977) rotate(0 59.58524801656603 42.561597333261744)"><path d="M-0.6627353556454182 1.101647640019655 C19.357227726032338 15.106229973584412, 100.00607455099622 69.45798447206616, 119.83323138877749 83.31236767843366 M1.190189853301272 0.6344087056908756 C21.15011226404769 14.845764512578025, 99.38314482131662 70.31700310812332, 119.32263240425847 84.48878596083262" stroke="#d9480f" stroke-width="4" fill="none"></path></g><g transform="translate(66 255.49999999999977) rotate(0 59.58524801656603 42.561597333261744)"><path d="M92.23142991079465 77.92688469876475 C97.18934799647221 77.72693508064575, 106.70274549961009 79.79485740358771, 117.4227650298085 83.99075388641097 M90.99150485223606 77.50438301739223 C98.54147548221627 79.20796524745562, 106.46672808065378 80.69827799553414, 119.96578864402137 84.2836355558876" stroke="#d9480f" stroke-width="4" fill="none"></path></g><g transform="translate(66 255.49999999999977) rotate(0 59.58524801656603 42.561597333261744)"><path d="M104.1096884369991 61.19287810230105 C105.6880446055222 65.54793919045036, 111.92160459655256 72.23647340206742, 117.4227650298085 83.99075388641097 M102.86976337844051 60.77037642092853 C106.99886405356843 66.97897667830054, 111.66131606970416 73.0658998088465, 119.96578864402137 84.2836355558876" stroke="#d9480f" stroke-width="4" fill="none"></path></g></g><g transform="translate(10 12.5) rotate(0 22.5 22.5)"><path d="M15.494417547986831 -0.032721887277695316 C19.862088028553245 -1.6764387638479734, 26.88445790414632 -0.33242790318162974, 31.253074686211313 1.6261897617905774 C35.6216914682763 3.5848074267627847, 39.42050492280421 7.198215250403776, 41.70611824037679 11.718984102555547 C43.991731557949365 16.239752954707317, 45.895729255513565 23.89243498473789, 44.96675459164676 28.7508028747012 C44.03777992777996 33.60917076466451, 40.06871530221151 38.24012675597875, 36.13227025717596 40.869191442335406 C32.19582521214041 43.49825612869206, 26.098250904555094 44.90454752984207, 21.34808432143346 44.52519099284113 C16.59791773831183 44.145834455840195, 11.301663725986865 41.90807671705263, 7.631270758446158 38.593052220329795 C3.960877790905451 35.27802772360696, -0.18596658903725122 29.256259162123232, -0.6742734838107829 24.635044012504117 C-1.1625803785843145 20.013828862885003, 0.8115296253787823 15.049910440553685, 4.701429389804968 10.865761322615107 C8.591329154231154 6.6816122046765285, 18.754687111980683 1.1601005876739918, 22.66512510274633 -0.4698506951273522 C26.575563093511978 -2.0998019779286965, 28.25441249558844 0.624644652129436, 28.16405733439886 1.0860536258070432 M26.07245268911175 1.2295706302968235 C30.85476202367694 1.5209440243932777, 37.37474796453546 4.516467464605542, 40.437920659710585 7.861810320478414 C43.50109335488571 11.207153176351285, 44.36525244898073 16.574610191684194, 44.45148886016252 21.301627765534057 C44.53772527134431 26.02864533938392, 43.85395533497795 32.36840498540159, 40.955339126801306 36.223915763577594 C38.056722918624665 40.0794265417536, 31.707996572489787 43.204410248781336, 27.059791611102675 44.434692434590076 C22.411586649715563 45.664974620398816, 17.480242410769986 46.08027159311653, 13.06610935847863 43.605608878430026 C8.651976306187276 41.13094616374352, 2.39949273271207 34.110334303462395, 0.5749932973545491 29.58671614647107 C-1.2495061380029717 25.063097989479743, 0.40149069287672745 20.79790488457961, 2.1191127463335064 16.46389993648206 C3.8367347997902854 12.129894988384512, 6.809291580793105 6.041389706436268, 10.880725618095223 3.5826864578857744 C14.952159655397342 1.123983209335281, 24.241394447729466 1.9551803923577242, 26.547716970146215 1.711680445179102 C28.854039492562965 1.4681804980004796, 24.853401767731352 2.0529919620765074, 24.718660752595724 2.121686774814041" stroke="#087f5b" stroke-width="1" fill="none"></path></g><g transform="translate(20.5 10) rotate(0 10.5 23)"><text x="10.5" y="32" font-family="Virgil, Segoe UI Emoji" font-size="36px" fill="#087f5b" text-anchor="middle" style="white-space: pre;" direction="ltr">z</text></g><g transform="translate(206.5 169.25) rotate(0 22.5 22.5)"><path d="M24.384774485510135 -0.151724525548957 C28.92161570513293 0.02644219502394307, 34.064146968446785 2.3038577176890023, 37.58751631294322 5.942164473778973 C41.11088565743966 9.580471229868945, 44.938553388626964 16.700139068057332, 45.524990552488745 21.67811601099087 C46.111427716350526 26.656092953924407, 43.95859474873679 32.11524764821261, 41.106139296113895 35.8100261313802 C38.253683843491 39.50480461454779, 33.01506784026853 42.71298423596307, 28.41025783675135 43.84678690999639 C23.80544783323417 44.98058958402971, 18.00896263481062 44.67528605877972, 13.477279275010805 42.61284217558013 C8.94559591521099 40.550398292380535, 3.173394590134154 35.68743313435615, 1.2201576779524608 31.47212361079886 C-0.7330792342292323 27.256814087241576, 0.33812341168728444 21.983061766841043, 1.7578578019206468 17.32098503423642 C3.177592192154009 12.658908301631794, 5.826021974473127 6.397257906365837, 9.738564019352635 3.4996632151711076 C13.651106064232144 0.6020685239763783, 22.36621289831052 0.34133787784523467, 25.233110071197693 -0.06458311293195607 C28.100007244084868 -0.4705041037091468, 26.807312240962915 0.6402675015513004, 26.939947056675678 1.0641372705079633 M29.639691161427315 1.192393795257928 C33.97528324617058 1.8833378881096277, 37.79847543155079 5.378388533845012, 40.46658346372957 9.251590169494833 C43.13469149590835 13.124791805144653, 46.02030484853742 19.570558698107234, 45.648339354499996 24.43160360915685 C45.27637386046257 29.292648520206463, 41.59381360335122 34.793193842075155, 38.234790499504996 38.41785963579251 C34.87576739565877 42.042525429509865, 30.459843301575216 45.99138670395397, 25.494200731422644 46.179598371461 C20.528558161270073 46.367810038968024, 12.399577974457602 42.38537115932815, 8.440935078589572 39.54712964083467 C4.482292182721542 36.708888122341186, 2.742909262382029 33.56488177382356, 1.7423433562144623 29.150149260500115 C0.7417774500468954 24.73541674717667, 0.3964677074178309 17.326496253437995, 2.43753964158417 13.058734560894017 C4.478611575750509 8.790972868350039, 9.801270677494859 5.344692290072584, 13.988774961212497 3.5435791052362546 C18.176279244930136 1.7424659203999255, 25.107796632427934 2.691633248156903, 27.56256534389 2.2520554518760427 C30.017334055352066 1.8124776555951823, 28.63401151156309 0.5711473975588603, 28.717387229984897 0.9061123275510923" stroke="#1864ab" stroke-width="1" fill="none"></path></g><g transform="translate(220 166.75) rotate(0 8.5 23)"><text x="8.5" y="32" font-family="Virgil, Segoe UI Emoji" font-size="36px" fill="#1864ab" text-anchor="middle" style="white-space: pre;" direction="ltr">y</text></g><g transform="translate(200.5 337.25) rotate(0 22.5 22.5)"><path d="M11.265948694406612 1.719480137463247 C15.348347941626095 -0.4271752616892619, 23.171117344406444 0.28490782540838033, 28.07578911512952 1.5241746073888969 C32.980460885852594 2.7634413893694134, 37.835278579028035 5.548612788399215, 40.693979318745065 9.155080829346346 C43.552680058462094 12.761548870293478, 45.40103923395709 18.425769465150058, 45.2279935534317 23.162982853071682 C45.05494787290631 27.900196240993306, 43.108687922050876 34.03174909055617, 39.655705235592734 37.578361156876085 C36.20272254913459 41.124973223196, 29.242433356652175 43.66780320589104, 24.51009743468287 44.442655250991166 C19.777761512713564 45.21750729609129, 15.17848269353572 44.85323502972919, 11.261689703776897 42.22747342747685 C7.344896714018073 39.60171182522451, 2.739353323506796 33.48763924166872, 1.0093394961299325 28.68808563747712 C-0.7206743312469313 23.888532033285525, -1.1539687095858366 17.908097287904198, 0.8816067395157141 13.430151802327288 C2.917182188617265 8.952206316750377, 10.743266847757404 3.797918457169388, 13.222792190739238 1.8204127240156645 C15.702317533721072 -0.1570930091380589, 15.436378765811979 1.182255186312642, 15.758758797406719 1.5651174034049475 M29.36869817067824 0.8075350504047556 C33.71297023319367 1.9522839275731558, 40.032144048135144 6.62704122715808, 42.57460000144749 10.82949894769167 C45.11705595475984 15.03195666822526, 45.32654895378752 21.028768641731926, 44.623433890552334 26.022281373606294 C43.920318827317146 31.015794105480662, 42.16688644764851 37.84658130000362, 38.35590962203635 40.79057533893788 C34.54493279642419 43.734569377872134, 26.60307331882842 43.67123051970819, 21.757572936879402 43.686245607211845 C16.912072554930383 43.7012606947155, 12.796883479151825 43.67973801307723, 9.282907330342223 40.88066586395979 C5.76893118153262 38.081593714842356, 1.5965545230829652 31.53749572311314, 0.6737160440217913 26.891812712507217 C-0.2491224350393827 22.246129701901296, 1.5859361335263276 17.00235040064169, 3.7458764559751785 13.006567800324252 C5.905816778424029 9.010785200006815, 9.208249924066422 4.9305483709546625, 13.633357978714898 2.917117110602593 C18.058466033363374 0.9036858502505236, 27.573848722202026 0.9170661698540984, 30.296524783866026 0.9259802382118352 C33.01920084553002 0.934894306569572, 29.966075481603436 2.806450259731131, 29.969414348698898 2.970601520749014" stroke="#d9480f" stroke-width="1" fill="none"></path></g><g transform="translate(211.5 334.75) rotate(0 10 23)"><text x="10" y="32" font-family="Virgil, Segoe UI Emoji" font-size="36px" fill="#d9480f" text-anchor="middle" style="white-space: pre;" direction="ltr">x</text></g><g><g transform="translate(326.75 188.375) rotate(0 74.00748170912266 -20.26563800349831)"><path d="M2.1298552133142943 -0.15899810567498207 C12.919238426039616 -7.041936641683182, 40.26184594805042 -38.80090832486749, 64.60244096294045 -40.37227790132165 C88.94303597783048 -41.94364747777581, 134.9209169882039 -15.249395741770666, 148.1734253026545 -9.587215564399958 M-0.1584618844091894 -2.7136223159730437 C10.50545740072926 -9.412476064612468, 39.15981957222025 -37.16942935650547, 63.777185665220024 -38.030754164308306 C88.39455175821979 -38.89207897211114, 134.22886545762418 -13.64216168905298, 147.54573467358946 -7.88157116279006" stroke="#ffffff" stroke-width="2" fill="none"></path></g><g transform="translate(326.75 188.375) rotate(0 74.00748170912266 -20.26563800349831)"><path d="M117.45708459701088 -7.043073434443878 C123.12998279493308 -7.260225905810422, 131.63862441984256 -12.204400276837081, 148.40402490630746 -9.35374763265252 M117.03232807378915 -10.465205870629953 C125.9282278729753 -9.530086833889733, 135.6406258312772 -9.961697618815126, 145.56609434992075 -7.099634975492954" stroke="#ffffff" stroke-width="2" fill="none"></path></g><g transform="translate(326.75 188.375) rotate(0 74.00748170912266 -20.26563800349831)"><path d="M126.29411312460466 -25.5640596173752 C129.48056708301849 -20.1790187237632, 135.38034692587385 -19.655439667523474, 148.40402490630746 -9.35374763265252 M125.86935660138293 -28.986192053561275 C132.01467958620535 -22.373626534981515, 138.95012455924467 -16.985191847596724, 145.56609434992075 -7.099634975492954" stroke="#ffffff" stroke-width="2" fill="none"></path></g></g></svg>