<svg version="1.1" xmlns="http://www.w3.org/2000/svg" viewBox="0 0 857.545126940395 494.75" width="857.545126940395" height="494.75">
  <!-- svg-source:excalidraw -->
  
  <defs>
    <style>
      @font-face {
        font-family: "Virgil";
        src: url("https://excalidraw.com/Virgil.woff2");
      }
      @font-face {
        font-family: "Cascadia";
        src: url("https://excalidraw.com/Cascadia.woff2");
      }
    </style>
  </defs>
  <g><g transform="translate(32.72325045466414 386.4290091276821) rotate(0 0.12625681263584454 -86.1920011222362)"><path d="M0.7232504546642302 -0.7773029029369354 C0.6833439528942107 -29.64088488520278, 0.4131426513195037 -145.07525336449808, 0.41157233119010916 -173.81301137215456 M-0.3561817859765142 1.4290091276820749 C-0.5750604899879544 -27.191747250204592, -0.4335763256903737 -142.9169926082979, -0.32039765856228763 -172.3763867101073" stroke="#087f5b" stroke-width="4" fill="none"></path></g><g transform="translate(32.72325045466414 386.4290091276821) rotate(0 0.12625681263584454 -86.1920011222362)"><path d="M8.582822520158185 -143.4772088326859 C6.0938941822714074 -152.9065411555995, 3.496253577815038 -162.92978226827253, -0.030061317896470374 -173.55088643044232 M10.399558905384435 -143.79515757638688 C6.030041755305258 -154.2456156605827, 1.7502484457309162 -165.7661003004709, 0.24361428775824612 -172.95572587162255" stroke="#087f5b" stroke-width="4" fill="none"></path></g><g transform="translate(32.72325045466414 386.4290091276821) rotate(0 0.12625681263584454 -86.1920011222362)"><path d="M-11.938336682094267 -143.52223528767297 C-7.157861936020129 -153.05929976071118, -2.4858624974874592 -163.06659020914825, -0.030061317896470374 -173.55088643044232 M-10.121600296868017 -143.84018403137395 C-6.566028430610178 -154.47577567247575, -2.920550354969417 -165.97887109610332, 0.24361428775824612 -172.95572587162255" stroke="#087f5b" stroke-width="4" fill="none"></path></g></g><g><g transform="translate(32 383.9999999999998) rotate(0 53.901335666859566 -14.013358138883461)"><path d="M-0.8257548987865448 -0.8147193253040313 C16.839474760705304 -5.277381767829259, 88.25738898125327 -22.994264791409172, 106.3976613653545 -27.869567614793777 M0.9415850500110539 1.3719490835722534 C18.94304534425184 -3.301743393077826, 90.848931089098 -24.285177018676574, 108.62842623250566 -29.398665361339226" stroke="#1864ab" stroke-width="4" fill="none"></path></g><g transform="translate(32 383.9999999999998) rotate(0 53.901335666859566 -14.013358138883461)"><path d="M83.04460204840656 -13.23153692511957 C94.53578304095288 -16.275304479941987, 98.96217330290759 -23.97238068485395, 110.38630337374292 -30.911180697614327 M83.6640560299253 -11.568395033759288 C92.59759352062198 -19.080707200179425, 102.48215201612587 -24.916540010603256, 108.74265816168867 -29.309211768442765" stroke="#1864ab" stroke-width="4" fill="none"></path></g><g transform="translate(32 383.9999999999998) rotate(0 53.901335666859566 -14.013358138883461)"><path d="M77.33845633525203 -32.943459801543575 C90.55503356852135 -29.36699924427203, 96.88646023852132 -30.48311298522192, 110.38630337374292 -30.911180697614327 M77.95791031677078 -31.280317910183292 C89.15197613500106 -31.518869525000497, 101.13987776206454 -30.088687817712664, 108.74265816168867 -29.309211768442765" stroke="#1864ab" stroke-width="4" fill="none"></path></g></g><g><g transform="translate(32 383.9999999999998) rotate(0 48.61656041649633 28.304354695710344)"><path d="M0.7147434532642365 -1.0187674820423125 C16.441384404514285 8.295344163974127, 79.57589105772004 46.58101647893588, 95.37601223357947 56.059050244092944 M-0.369154963111505 1.0607756445463745 C15.6396016326531 10.569163652922336, 81.20786716367267 48.28962691859963, 97.60227579610415 57.62747687346302" stroke="#d9480f" stroke-width="4" fill="none"></path></g><g transform="translate(32 383.9999999999998) rotate(0 48.61656041649633 28.304354695710344)"><path d="M66.34391459156981 50.96878131320324 C79.51902974826257 52.99348504957696, 90.54098786224895 55.07484111427864, 96.70684025423594 58.058435353105885 M68.22074238290301 53.32309675803032 C74.36334540281406 53.020127105463935, 82.15195968301606 54.23852138070999, 97.99158935980864 58.182510452931744" stroke="#d9480f" stroke-width="4" fill="none"></path></g><g transform="translate(32 383.9999999999998) rotate(0 48.61656041649633 28.304354695710344)"><path d="M76.54876618364206 33.16482090071017 C85.82414565649472 42.09914390162439, 92.92049591023697 51.02933714030851, 96.70684025423594 58.058435353105885 M78.42559397497526 35.51913634553725 C82.0250071497321 39.549449594423486, 87.36610470231444 45.03791977761387, 97.99158935980864 58.182510452931744" stroke="#d9480f" stroke-width="4" fill="none"></path></g></g><g transform="translate(10 151) rotate(0 22.5 22.5)"><path d="M15.775426384176608 1.5680873932721902 C20.02046330621261 0.08049732123348718, 26.516149122763494 -0.8469310378213764, 31.1057364773489 1.1732031619856684 C35.6953238319343 3.193337361792713, 41.10362529417966 9.201292814045647, 43.31295051168904 13.68889259211446 C45.52227572919842 18.176492370183272, 45.65776793682652 23.68252585325449, 44.36168778240517 28.09880183039855 C43.06560762798382 32.51507780754261, 39.55641749093789 37.30434659607041, 35.53646958516095 40.18654845497883 C31.516521679384013 43.06875031388726, 25.0687763242333 45.577200338803586, 20.242000347743538 45.39201298384908 C15.415224371253775 45.20682562889457, 9.853628121286537 42.49144434449499, 6.575813726222364 39.075424325251795 C3.297999331158192 35.659404306008604, 1.0610826510713487 29.926244286348144, 0.5751139773585052 24.89589286838992 C0.08914530364566176 19.8655414504317, 0.7418452157883091 13.137523177721356, 3.6600016839453033 8.893315817502458 C6.578158152102297 4.649108457283561, 15.046523579684967 0.8536526948713199, 18.08405278630047 -0.5693512929234608 C21.121581992915978 -1.9923552807182414, 21.733118773268576 -0.25837458793115664, 21.885176923638333 0.3552918907337741 M18.079216952589242 0.19803555734805656 C22.371924059045742 -1.1938034835587834, 26.71174610463341 0.6484033825723663, 30.910265305765773 2.6707288222295773 C35.10878450689813 4.693054261886788, 40.91199617100573 8.11714170284726, 43.270332159383415 12.331988195291324 C45.6286681477611 16.546834687735387, 46.564916839850284 23.33796139377654, 45.06028123603186 27.959807776893953 C43.55564563221344 32.58165416001137, 38.52475360274816 37.39138220661868, 34.2425185364729 40.063066493995805 C29.960283470197634 42.73475078137293, 23.7617585339661 44.42912926088972, 19.366870838380265 43.98991350115671 C14.971983142794432 43.5506977414237, 11.25401973718926 40.591390234717664, 7.873192362957893 37.427771935597754 C4.492364988726525 34.26415363647784, -0.3388313382671825 29.81005993196098, -0.9180934070079445 25.00820370643726 C-1.4973554757487064 20.206347480913543, 1.2193968241614908 12.771191830745735, 4.39761995051332 8.616634582455456 C7.57584307686515 4.462077334165177, 15.962757091809484 1.5697319535751626, 18.151245351103032 0.08086021669559074 C20.33973361039658 -1.4080115201839811, 17.542830356515644 -0.5937319017059994, 17.528549506274608 -0.31659583882197495" stroke="#087f5b" stroke-width="1" fill="none"></path></g><g transform="translate(20.5 148.5) rotate(0 10.5 23)"><text x="10.5" y="32" font-family="Virgil, Segoe UI Emoji" font-size="36px" fill="#087f5b" text-anchor="middle" style="white-space: pre;" direction="ltr">z</text></g><g transform="translate(150.5 304.75) rotate(0 22.5 22.5)"><path d="M27.0705340238305 -0.10119087731024479 C31.539566318856902 0.6752528537539098, 35.96478157035155 5.178864462495193, 39.093107500521995 9.069606698787338 C42.22143343069244 12.960348935079482, 45.83806681120041 18.516576897131763, 45.840489604853204 23.243262540442625 C45.842912398505995 27.969948183753488, 42.330044676020655 33.96241790546715, 39.107644262438754 37.429720558652505 C35.88524384885685 40.89702321183786, 31.060680629257615 43.18928182950366, 26.506087123361805 44.047078459554754 C21.951493617465996 44.904875089605845, 15.969120568228526 44.96466567045372, 11.780083227063889 42.576500338959036 C7.591045885899253 40.18833500746435, 3.2336977581965005 34.26868645855334, 1.371863076373991 29.71808647058664 C-0.4899716054485188 25.16748648261994, -1.0063564423329392 19.885863188278833, 0.6090751361288298 15.272900411158828 C2.224506714590599 10.65993763403882, 6.41199388019664 4.328346362332676, 11.064452547144604 2.040309807866599 C15.716911214092569 -0.24772674659947702, 25.057591121496056 1.3780391693016139, 28.523827137816617 1.5446810843623702 C31.99006315413718 1.7113229994231265, 31.81066625525929 2.6976847022467, 31.861868645067972 3.040161298231137 M12.760214146352595 1.1407746360286062 C16.92715582435389 -0.7112486522906556, 23.895641248520125 0.923138163169279, 28.391576130617956 2.0911319882041326 C32.887511012715784 3.2591258132389864, 37.05315614380726 4.648405553585437, 39.735823438939576 8.148737586237727 C42.418490734071895 11.649069618890017, 44.763014573100335 18.01794851434257, 44.48757990141188 23.093124184117872 C44.21214522972342 28.168299853893174, 41.42850035990648 34.82885143926656, 38.08321540880884 38.599791604889546 C34.7379304577112 42.370731770512535, 29.221501268896695 45.449043671945255, 24.41587019482603 45.7187651778558 C19.610239120755367 45.98848668376635, 13.15930962658267 42.94708469968575, 9.24942896438486 40.21812064035281 C5.339548302187049 37.48915658101986, 2.166437631597481 33.99850560040354, 0.9565862216391636 29.344980821858123 C-0.2532651883191539 24.69145604331271, -0.12072115325541377 16.559730614378385, 1.9903205046349548 12.296971969080321 C4.101362162525323 8.034213323782257, 11.820034311213561 5.481461141040844, 13.622836168981374 3.7684289500697474 C15.425638026749187 2.0553967590986506, 12.988307702058417 2.1319897249720525, 12.80713165124183 2.01877882325374" stroke="#1864ab" stroke-width="1" fill="none"></path></g><g transform="translate(164 302.25) rotate(0 8.5 23)"><text x="8.5" y="32" font-family="Virgil, Segoe UI Emoji" font-size="36px" fill="#1864ab" text-anchor="middle" style="white-space: pre;" direction="ltr">y</text></g><g transform="translate(143.5 439.75) rotate(0 22.5 22.5)"><path d="M12.019056619281914 1.8404216415349879 C15.967643900889499 -0.24276758347676353, 22.76335171939849 0.212793272348466, 27.69222422871593 1.471827558104419 C32.62109673803337 2.730861843860372, 38.63055856063446 5.603350451992426, 41.59229167518655 9.394627356070705 C44.55402478973864 13.185904260148984, 46.15474705315794 19.265300518927063, 45.46262291602848 24.219488982574088 C44.77049877889902 29.173677446221113, 40.77890967193383 35.725370653856636, 37.43954685240977 39.11975813795286 C34.10018403288571 42.51414562204908, 29.97112250979115 44.27578973375556, 25.426445998884127 44.585813887151396 C20.881769487977103 44.89583804054723, 14.290146481356246 43.83386162904466, 10.171487786967635 40.979903058327864 C6.052829092579025 38.125944487611065, 2.13781830226325 32.18872562547418, 0.7144938325524706 27.462062462850607 C-0.7088306371583091 22.735399300227034, -0.7466165604371735 17.093740509383906, 1.6315409687029572 12.619924082586426 C4.009698497843088 8.146107655788946, 12.622382508088155 2.5572475931004695, 14.983439007393255 0.6191639020657291 C17.344495506698355 -1.318919788969011, 15.793917601628076 0.35811609297937375, 15.797879964533555 0.9914219363779857 M14.84475916068828 0.28318299109623624 C19.060533338538512 -1.5001211673595403, 26.260892254384437 -0.1917257477718115, 30.70408740466818 1.5270928428286688 C35.14728255495192 3.245911433429149, 39.194479126072025 6.5175726334531126, 41.50393006239072 10.596094534699118 C43.81338099870942 14.674616435945122, 45.33652492082567 21.111311955630985, 44.56079302258035 25.9982242503047 C43.78506112433503 30.885136544978412, 40.81616300512135 36.70135561344804, 36.84953867291883 39.9175683027414 C32.88291434071631 43.133780992034765, 25.63599869266941 45.37194916246691, 20.76104702936522 45.2955003860649 C15.886095366061028 45.21905160966289, 10.786411363302788 42.68338528105066, 7.599828693093693 39.45887564432934 C4.413246022884598 36.23436600760802, 2.534143888493499 30.684443207889732, 1.6415510081106461 25.948442565736972 C0.7489581277277931 21.212441923584212, -0.22914371628962593 15.10893765498053, 2.244271410796575 11.042871791412782 C4.717686537882775 6.976805927845035, 14.053670387927943 3.004056172194683, 16.482041770627852 1.5520473843304892 C18.91041315332776 0.10003859646629532, 16.735093395416328 2.0573150907278315, 16.814499706996028 2.3308190642276188" stroke="#d9480f" stroke-width="1" fill="none"></path></g><g transform="translate(154.5 437.25) rotate(0 10 23)"><text x="10" y="32" font-family="Virgil, Segoe UI Emoji" font-size="36px" fill="#d9480f" text-anchor="middle" style="white-space: pre;" direction="ltr">x</text></g><g transform="translate(345.079873059605 13.191917573786327) rotate(0 22.5 22.5)"><path d="M5.221738247641047 7.189213793719729 C5.221738247641047 7.189213793719729, 5.221738247641047 7.189213793719729, 5.221738247641047 7.189213793719729 M5.221738247641047 7.189213793719729 C5.221738247641047 7.189213793719729, 5.221738247641047 7.189213793719729, 5.221738247641047 7.189213793719729 M4.1844167351237775 15.34301328387334 C3.4489675692790733 14.021380258291705, 8.656772161668535 12.146348973445892, 15.891202817062524 2.012014929120351 M1.4333883445225002 16.45157056961431 C6.77322344941485 11.79362999436521, 11.880274536356467 4.695465995867835, 15.384123541737583 0.7883157189087164 M0.901453482343765 22.603976627006663 C9.101879188792733 17.73039749940647, 13.48401998830457 10.8239480649233, 20.460566693117 0.5349324127975557 M1.290874317645045 22.33711745509459 C8.135235688318568 14.480176901680847, 15.490146929822306 7.3320381162310255, 20.122956953142857 1.7751741210315082 M2.469308155158318 27.556732402567373 C11.604057042484698 20.058521845453903, 18.412179131818778 8.06719490183259, 26.363026592001003 3.696163862828506 M3.04267911663071 26.746413636405574 C10.395423187064331 19.499136712677707, 15.823558909074377 14.600957619161685, 24.724410236864966 2.046085091192616 M5.14819722128342 31.250687671536284 C13.005175903268125 23.114644260315927, 21.39447263962517 11.630828766128648, 28.588312876383057 2.009849689080159 M4.7909991896642286 30.94450338155933 C9.316084643390798 25.80260637350923, 16.10819877796939 20.364865524502598, 30.12761561104118 3.692154371290247 M6.334864927425549 38.687571164671446 C15.986525973935827 23.925270072058748, 28.016508941297396 14.829192608022737, 35.169506600950655 4.331580711865017 M5.08510563892083 37.55695575334516 C15.43653651075687 26.494446866180105, 24.9462143071903 14.452793469415766, 33.81310286082774 5.366641238668153 M8.686055531205765 39.908756640725954 C19.076242088622777 29.213698723407, 30.68983332299426 16.543297426548502, 38.71409854140079 8.228688581718346 M9.732316452490322 37.9696879675474 C16.919000372392833 32.400958014736155, 22.46563426802743 24.638571850417406, 38.02135836739039 6.967748925892851 M13.216273692359028 40.96916407112616 C18.625858251161617 34.30352236948531, 27.318619083639796 26.12746224772372, 39.93504822343046 10.350536199175428 M13.583256895576415 41.61536657762366 C22.3839382786585 30.237018272864645, 32.120944615419965 18.178166675694317, 39.97138413689488 10.321415040530871 M16.66972893658233 42.98690635640734 C20.719117097449686 35.11606416012367, 26.380193062702475 30.05884726297213, 40.49396100970817 11.289388974103208 M16.591303974344854 43.33555419114047 C23.411227040760657 36.035976710704404, 30.766802850305933 26.452675571130563, 43.39137488747848 12.35468282448041 M21.739276626544186 46.022998906436456 C29.443217665651495 35.25221354507922, 35.5850711951591 27.77498720741036, 46.595792954921436 14.478962726814196 M20.7190274069329 45.57291904999603 C25.47653875980499 38.80748438311353, 30.915669264949138 34.18928733438785, 44.80092290429742 16.306749055085227 M25.973240874913117 46.47048838108045 C28.273031019763078 41.779089117309134, 34.2793083940624 37.191435160580184, 46.551732747795725 22.828842848511968 M25.532512536477824 44.07286377108854 C31.944338733316826 38.69472131228871, 36.70791885975042 31.253678010358833, 43.76139998154595 22.67588320558015 M32.36279372719558 41.01508544251555 C37.77868031886549 37.36522518134353, 39.55669800957723 34.8740867433434, 45.28822625485596 28.887060440353782 M33.253550356602986 41.92834356740349 C36.06062773217564 38.70042888705833, 38.00685652352366 36.539612624840274, 44.31563082394537 29.533014955393703 M5.543201261165672 36.302362822050156 C5.543201261165672 36.302362822050156, 5.543201261165672 36.302362822050156, 5.543201261165672 36.302362822050156 M5.543201261165672 36.302362822050156 C5.543201261165672 36.302362822050156, 5.543201261165672 36.302362822050156, 5.543201261165672 36.302362822050156 M19.65657441350101 42.39617661496841 C14.683388509977597 39.06943771715488, 10.93068698271038 36.912511990736164, 1.8044977105882336 27.40340840107166 M17.91829497958003 41.909621815366975 C13.284134481054707 37.35281244863311, 8.471741532017132 33.4047969126372, 3.1812382537599966 30.04616784526371 M24.017222514264354 39.92999292487972 C17.766345311486997 36.45064854648762, 14.685931849070334 33.105376597266634, 1.8651622832937758 23.73322087737672 M24.144894320406088 40.77574719252758 C17.779696820395344 35.951794964473095, 9.666483023953415 29.351010539060187, 0.308993516601495 21.910683874291703 M30.96688119012351 41.66319178062723 C19.5090261725419 33.383173250221546, 11.026192794516955 25.224306055347714, 1.191583574396497 17.82505967728303 M29.85385865222151 40.95226471330271 C18.075827212048647 32.56830426906889, 8.225569609944461 23.650721422312962, 2.745945362952477 18.422955062980513 M33.49485941554322 40.45936747353296 C23.718011249281005 30.320632489152306, 12.21161190336154 20.957529125642914, 2.948741407247266 14.000505197160038 M34.97803942995979 41.04184337604563 C22.12464205725113 30.54352173758871, 10.478838747742355 21.22448053453298, 4.958037971632561 14.754964639730844 M37.30680617431989 37.42096845794735 C27.20656244811002 28.26040469957379, 16.61085109547972 17.80368831921353, 6.930632256310809 10.193464228329745 M37.72717499288609 37.04420946713803 C28.427728154132076 28.90048149230261, 20.54626124726968 21.990901864568805, 5.788279047575224 9.661725352895942 M40.0015158420321 36.230946670144945 C28.912631423128026 26.388992068941718, 17.538274935014197 14.564500455920445, 6.171140506497399 7.106992870095154 M40.452195947047734 35.0102958798857 C28.74184613965351 25.323636995793287, 18.920000496703274 16.523026307242038, 7.755111081159488 4.950602383810064 M40.889413223367356 30.405049180438244 C35.443034560961664 25.199629979994516, 27.59006198229347 18.275094121602898, 9.819038453162852 3.338296529740289 M42.15121020260098 30.6070337666324 C33.956681937717974 22.90695218773624, 25.232359700615266 16.43312990205267, 10.61491134820992 2.918813346788481 M46.88639187301316 29.041054309139746 C35.53672478218212 19.19178389146028, 22.756825599392503 9.997235105263659, 12.730019240549122 1.911316719596634 M45.050841294702074 29.179088654721873 C38.08595278556225 21.540605538738447, 31.971179821261767 16.918303321905356, 13.641524848437225 1.1985150861939289 M45.1246853549887 21.975594539590432 C34.47633026715593 12.94100643280288, 24.692181037600996 4.059222706069459, 18.115244762898172 0.682026201995674 M45.90459964283896 23.21818335952635 C36.737431390401824 14.7710117789292, 25.724912814282703 6.987080865442035, 16.962312206552113 -0.5254011786108581 M43.86554388442701 16.15762875008381 C40.96613888954533 13.392467649195487, 31.84179562777728 8.227639452222789, 22.680474405120265 -2.568393923759581 M45.593059192613424 17.049070216370588 C36.26817445213858 10.550434071076074, 26.31859091540907 0.6237516855169574, 21.3847784129336 -3.10963276629162" stroke="#f2aa74" stroke-width="0.5" fill="none"></path><path d="M19.299240578348968 -0.3303319075788096 C23.89526869148741 -1.2052669196729315, 30.677707638678733 1.2125833864574105, 34.653527454098196 3.84738315610716 C38.62934726951766 6.482182925756909, 41.79657220951709 10.903973045492151, 43.15415947086576 15.478466710319687 C44.51174673221443 20.052960375147222, 44.377295244679615 26.980264145880426, 42.79905102219023 31.294345145072374 C41.22080679970084 35.60842614426432, 37.87647497514504 39.283572793344554, 33.68469413592944 41.36295270547137 C29.492913296713844 43.44233261759819, 22.30329356205674 44.583351981921545, 17.64836598689664 43.770624617833285 C12.993438411736538 42.957897253745024, 8.586646375510433 40.245701115658605, 5.755128684968838 36.4865885209418 C2.9236109944272424 32.727475926225, 0.7190448276112953 26.132335998593426, 0.6592598436470638 21.215949049532465 C0.5994748596828323 16.299562100471505, 1.9209477464756932 10.524735491832592, 5.396418781183449 6.988266826576039 C8.871889815891205 3.451798161319486, 18.06091064513177 1.033802795730342, 21.5120860518936 -0.0028629420068533307 C24.96326145865543 -1.0395286797440486, 25.840184651192455 0.38041357170739803, 26.103471221754425 0.7682724001528669" stroke="#f2aa74" stroke-width="1.5" fill="none" stroke-dasharray="3 6"></path></g><g><g stroke-opacity="0.6" fill-opacity="0.6" transform="translate(399.489619178815 61.325752721359095) rotate(180 152.40092688125094 114.56639608677014)"><path d="M0.5256243579089641 -0.3866193763911724 C51.30905643824644 37.9383010012765, 253.55218071658945 191.29022252602346, 304.2762294045929 229.51941154993136" stroke="#087f5b" stroke-width="4.5" fill="none" stroke-dasharray="12 8"></path></g></g><g><g transform="translate(707.7683773950591 386.6811348392953) rotate(180 0.16761554810221924 -47.647323937611645)"><path d="M-0.3866193763911724 -0.10391777828335758 C-0.3507801763713341 -15.74573587664557, -0.15518336221574774 -77.83528879625561, -0.21507551595567503 -93.32528423226431 M1.6112667216639966 -1.204078557221219 C1.5079002128820886 -17.25466622468238, -1.3002734963316374 -79.5611527043658, -1.2760356254596148 -95.19073009693987" stroke="#1864ab" stroke-width="4" fill="none"></path></g><g transform="translate(707.7683773950591 386.6811348392953) rotate(180 0.16761554810221924 -47.647323937611645)"><path d="M9.500502608903995 -67.61885965215855 C7.475186718511057 -75.91697017109601, 5.0517226022892885 -80.69172345618675, -2.4569355845171845 -94.41265376487739 M8.901627743804207 -67.9074728840112 C6.136845120234472 -72.87071542285491, 4.25064539659217 -79.2133751787176, -2.257661519544188 -95.25426345335312" stroke="#1864ab" stroke-width="4" fill="none"></path></g><g transform="translate(707.7683773950591 386.6811348392953) rotate(180 0.16761554810221924 -47.647323937611645)"><path d="M-11.014518456906389 -67.11496179029022 C-7.622846069215626 -75.48008480651251, -4.627114732436226 -80.38794646098069, -2.4569355845171845 -94.41265376487739 M-11.613393322006177 -67.40357502214287 C-9.743197386079009 -72.5213060285592, -6.990309764530612 -78.97791283749889, -2.257661519544188 -95.25426345335312" stroke="#1864ab" stroke-width="4" fill="none"></path></g></g><g><g transform="translate(710.045126940395 295.05808242621333) rotate(0 39.53870380211163 -19.980176296676575)"><path d="M-0.10391777828335758 -0.21507551595568652 C13.257648319639285 -6.77485179945672, 67.18163218516867 -33.417235260449075, 80.69502094544482 -39.745277077397375 M-1.6176133412215858 -1.3735941071715208 C11.582794150589052 -7.760446023185125, 66.29857261988344 -32.14551114333952, 80.00410436592077 -38.59948728306223" stroke="#d9480f" stroke-width="4" fill="none"></path></g><g transform="translate(710.045126940395 295.05808242621333) rotate(0 39.53870380211163 -19.980176296676575)"><path d="M58.27098899742769 -16.732692685463732 C64.8026323390653 -23.482401799948356, 74.75453361852453 -33.18578256151999, 80.78218069798325 -40.07686229495336 M57.98237576557504 -18.38200744476289 C67.42710264289612 -25.658716028869776, 75.55565061388275 -34.42880032912336, 79.94057100950752 -39.418134706821334" stroke="#d9480f" stroke-width="4" fill="none"></path></g><g transform="translate(710.045126940395 295.05808242621333) rotate(0 39.53870380211163 -19.980176296676575)"><path d="M49.74070002116076 -35.39694119343261 C59.14494102684778 -35.72245671338429, 72.02957297134779 -39.009030952744055, 80.78218069798325 -40.07686229495336 M49.45208678930811 -37.04625595273177 C62.18834450176856 -37.13594632345692, 73.5715393567359 -38.78487231157015, 79.94057100950752 -39.418134706821334" stroke="#d9480f" stroke-width="4" fill="none"></path></g></g><g><g transform="translate(623.61629029768 229.14996384493884) rotate(180 42.25859621512569 33.19028798203726)"><path d="M-0.21507551595568652 0.48976930305361743 C13.846694753765606 11.620302553143658, 69.69049750566255 55.89431350512584, 83.98400224193658 66.67928172225689 M-1.7871288911718877 -0.298705758182332 C12.69517670902378 10.502764820544353, 71.80502596559707 53.88760300423171, 86.30432132142323 64.96156762249392" stroke="#087f5b" stroke-width="4" fill="none"></path></g><g transform="translate(623.61629029768 229.14996384493884) rotate(180 42.25859621512569 33.19028798203726)"><path d="M58.39317536455142 55.07334707951784 C66.54735881840273 60.04304135016836, 71.7738670339285 61.77610886486927, 84.8269463095321 66.59236862592023 M56.74386060525226 57.000600949811336 C66.45292768449485 59.9240684243375, 74.90039164155569 61.96762740802382, 85.48567389766413 64.03177534684163" stroke="#087f5b" stroke-width="4" fill="none"></path></g><g transform="translate(623.61629029768 229.14996384493884) rotate(180 42.25859621512569 33.19028798203726)"><path d="M70.67097287225403 38.63024242298502 C75.52314718425174 47.98109407129369, 77.46188568212382 54.11732441060082, 84.8269463095321 66.59236862592023 M69.02165811295487 40.55749629327852 C74.67780185148573 48.65939459021729, 79.19929493706466 55.960830638399656, 85.48567389766413 64.03177534684163" stroke="#087f5b" stroke-width="4" fill="none"></path></g></g><g transform="translate(592.045126940395 150.05808242621356) rotate(0 22.5 22.5)"><path d="M29.9949286756328 0.41286243168329406 C34.453686639250414 1.7180425874422294, 40.14950692010288 6.789521405037067, 42.48134762610931 10.911335031665708 C44.81318833211574 15.033148658294348, 44.965810475507446 20.293621124301616, 43.98597291167139 25.14374419145514 C43.00613534783533 29.993867258608667, 40.11980240950338 36.59460313875504, 36.602322243092985 40.01207343458685 C33.08484207668259 43.429543730418665, 27.724908740421665 45.63939654856668, 22.88109191320903 45.64856596644603 C18.037275085996395 45.65773538432538, 11.412918726018136 43.32675909331936, 7.539421279817168 40.06708994186295 C3.6659238336162 36.807420790406546, 0.4455328176702832 30.77270211663226, -0.3598927639967755 26.090551057707582 C-1.165318345663834 21.408399998782905, 0.2682727945355823 15.952162920327702, 2.7068677898148152 11.97418358831488 C5.145462785094049 7.9962042563020574, 9.486564611185763 3.7844739235151597, 14.271677207678621 2.22267506563065 C19.05678980417148 0.6608762077461403, 28.28479285886083 2.541124833938536, 31.417543368771963 2.6033904410078215 C34.55029387868309 2.665656048077107, 33.300473202341486 2.3313341648786854, 33.06818026714542 2.596268708046363 M12.764592932476749 4.007665355354504 C16.42782243332363 1.797951785209618, 21.570275453247543 -0.6173208920746328, 26.169284536903294 0.18105607289762204 C30.768293620559046 0.9794330378698769, 37.45811523670674 4.708355038578948, 40.35864743441125 8.797927145188034 C43.25917963211577 12.88749925179712, 44.02724082853984 20.060960479502945, 43.57247772313039 24.718488712552134 C43.11771461772094 29.37601694560132, 40.47976293561105 33.39703180580222, 37.630068801954565 36.743096543483155 C34.78037466829808 40.08916128116409, 30.843824156731678 44.08514367549488, 26.474312921191462 44.79487713863775 C22.104801685651246 45.50461060178063, 15.881902662854287 43.76406653588472, 11.413001388713269 41.00149732234041 C6.94410011457225 38.2389281087961, 1.4661884811492236 32.507531233412614, -0.3390947236546502 28.219461857371897 C-2.144377928458524 23.931392481331176, -1.3362547886073701 19.768061085053453, 0.5813021598900256 15.273081066096093 C2.498859108387421 10.778101047138735, 9.1525493176762 3.210525931617009, 11.166246967329725 1.249581743627747 C13.17994461698325 -0.7113624443615147, 12.11733216405409 2.9053054194535606, 12.663488057811175 3.5074159381605234" stroke="#087f5b" stroke-width="1" fill="none"></path></g><g transform="translate(602.545126940395 147.55808242621356) rotate(0 10.5 23)"><text x="10.5" y="32" font-family="Virgil, Segoe UI Emoji" font-size="36px" fill="#087f5b" text-anchor="middle" style="white-space: pre;" direction="ltr">z</text></g><g transform="translate(685.545126940395 401.8080824262138) rotate(0 22.5 22.5)"><path d="M16.768910449049578 1.1710423419645046 C20.87353233086626 -0.4210612274828929, 26.389907800083027 -0.8166955194846484, 30.550042748799267 1.1546110698995946 C34.710177697515505 3.1259176592838376, 39.45928536426089 8.482802302794653, 41.729720141347016 12.998881878269962 C44.00015491843314 17.514961453745272, 45.28884059165933 23.67993555944314, 44.172651411316 28.25108852275146 C43.05646223097266 32.82224148605978, 38.982940559182694 37.79471380006762, 35.032585059287015 40.42579965811987 C31.08222955939134 43.05688551617212, 25.121325010361847 44.25657799379983, 20.470518411941942 44.03760367106496 C15.819711813522037 43.818629348330084, 10.50375793891109 42.14270458839993, 7.127745468767582 39.11195372171065 C3.751732998624074 36.08120285502137, 0.7820171856445087 30.536700081236802, 0.21444359108089373 25.853098470929268 C-0.3531300034827213 21.169496860621734, 0.0694888781386016 15.386497442977966, 3.7223039013858923 11.01034405986544 C7.375118924633183 6.634190676752916, 18.202479387675286 1.199116254650001, 22.131333730564638 -0.4038218277458796 C26.06018807345399 -2.00675991014176, 27.48795264248353 0.9049445866958035, 27.295429958721996 1.3927155654901568 M11.788944333186633 1.7544575864431096 C15.710978207485043 -0.6868395033398946, 23.708485481525067 -0.7528450259419375, 28.331304733224588 0.7597181254082734 C32.95412398492411 2.272281276758484, 37.004805095132916 7.039346872907572, 39.525859843383756 10.829836494544375 C42.0469145916346 14.620326116181179, 43.47039694931969 18.907962382773388, 43.45763322272961 23.502655855229097 C43.44486949613953 28.097349327684807, 42.448177025346816 34.908215047137574, 39.44927748384328 38.397997329278624 C36.45037794233975 41.887779611419674, 30.670168711134448 44.1932655976084, 25.464235973708394 44.44134954807538 C20.25830323628234 44.68943349854236, 12.518773671834213 42.34203097422054, 8.213681059286959 39.886501032080474 C3.9085884467397047 37.43097108994041, 0.8090220979591571 34.40618977793164, -0.3663197015751294 29.70816989523498 C-1.541661501109416 25.010150012538322, -1.1219101333001071 16.203945331855696, 1.161630262081239 11.698381735900524 C3.4451706574625853 7.192818139945352, 11.11622180733505 4.151062452337458, 13.334922670712949 2.67478831950395 C15.553623534090848 1.1985141866704419, 14.309896538793833 2.422965950529464, 14.473835442348637 2.840736938899475" stroke="#1864ab" stroke-width="1" fill="none"></path></g><g transform="translate(699.045126940395 399.3080824262138) rotate(0 8.5 23)"><text x="8.5" y="32" font-family="Virgil, Segoe UI Emoji" font-size="36px" fill="#1864ab" text-anchor="middle" style="white-space: pre;" direction="ltr">y</text></g><g transform="translate(802.545126940395 216.80808242621356) rotate(0 22.5 22.5)"><path d="M13.605349703163112 0.8702273625179124 C17.497922820977713 -0.9699554225383631, 24.281305530296898 0.11515701918438537, 28.932130516882314 1.8891925798400564 C33.58295550346773 3.663228140495727, 39.04045219263598 7.513730010598565, 41.5102996226756 11.514440726451939 C43.980147052715225 15.515151442305314, 44.58783397010485 21.394295229654734, 43.75121509712004 25.8934568749603 C42.914596224135224 30.392618520265867, 39.95690831280737 35.29588452126423, 36.4905863847667 38.50941059828533 C33.02426445672603 41.72293667530643, 27.62829682652312 44.81454427655603, 22.953283528876007 45.174613337086896 C18.278270231228895 45.534682397617765, 12.182749594859063 43.59088944580585, 8.440506598884033 40.66982496147053 C4.6982636029090035 37.748760477135214, 1.3984962263484522 32.55405434527025, 0.49982555302582554 27.648226431074974 C-0.3988451202968012 22.7423985168797, 0.3162480403012342 15.690272695393322, 3.0484825589482725 11.23485747629888 C5.780717077595311 6.779442257204436, 14.158019198287136 2.6526576088379086, 16.893232664908055 0.9157351165083156 C19.628446131528975 -0.8211873758212773, 19.446457306201264 0.42822641012189183, 19.45976335867379 0.8133225223213216 M33.07436210788242 2.6289294463780024 C37.21880323485163 4.790927480555744, 40.39673328102688 10.998962081791305, 41.957746711629724 15.310513952450746 C43.518760142232566 19.622065823110187, 43.52357309218556 24.121493021267348, 42.440442691499456 28.498240670334653 C41.357312290813354 32.87498831940196, 39.137719416950645 38.93619218755152, 35.45896430751311 41.570999846854576 C31.780209198075564 44.20580750615763, 25.54507725808292 45.15095396996319, 20.36791203487421 44.307086626152994 C15.190746811665498 43.4632192823428, 7.977135624057002 39.78131754557067, 4.3959729682608355 36.50779578399339 C0.8148103124646688 33.2342740224161, -1.0240796273042274 29.52526082070211, -1.119063899902791 24.665956056689303 C-1.2140481725013548 19.8066512926765, 0.6112531338574505 11.286641750617186, 3.826067332669453 7.3519671999165475 C7.040881531481455 3.4172926492159093, 13.080969567158267 1.7896074748010133, 18.169821292969225 1.0579087524854742 C23.258673018780183 0.326210030169935, 31.848824504540097 2.460039905359949, 34.35917768753521 2.961774866023312 C36.86953087053032 3.463509826686675, 33.86943089732247 3.890812440323479, 33.2319403909399 4.068318516465652" stroke="#d9480f" stroke-width="1" fill="none"></path></g><g transform="translate(813.545126940395 214.30808242621356) rotate(0 10 23)"><text x="10" y="32" font-family="Virgil, Segoe UI Emoji" font-size="36px" fill="#d9480f" text-anchor="middle" style="white-space: pre;" direction="ltr">x</text></g><g><g transform="translate(677.795126940395 329.6830824262138) rotate(0 29.299807394854724 -37.6502175135538)"><path d="M1.6308010034263134 0.39523639157414436 C-1.2411898767575622 -12.363301194272935, -0.8812027232721449 -20.785153027065096, 1.5136896781623363 -44.685545425862074 M-0.9297922756522894 -0.002938011661171913 C0.6121392687037588 -9.217379483245313, 1.4806899667903781 -18.478446359969674, 2.7926551792770624 -45.741841116920114 M0.08068053051829338 -45.47011135146022 C15.388344415072353 -52.81702068634331, 34.096330633182085 -62.79369952585549, 59.52940706536174 -74.99154792353511 M1.0289275143295527 -46.63995579816401 C20.337019251864405 -55.17160010531545, 37.684761308338494 -64.16412504490465, 59.08030296303332 -75.69567141868174" stroke="#a61e4d" stroke-width="2" fill="none"></path></g></g><g><g transform="translate(675.795126940395 330.1830824262138) rotate(180 30.00275703240186 -37.78790604136884)"><path d="M0.39523639157414436 -1.5441423244774342 C-0.276540964283049 -17.271948748864236, 3.0633449302986264 -31.68176945935935, 3.314454574137926 -47.963251788169146 M-0.002938011661171913 0.17923910357058048 C1.0146395991370083 -12.845035734511912, 1.625386938340962 -26.204242096208034, 2.2581588830798864 -46.412554850801826 M2.5298886485397816 -47.745046336203814 C17.653259957488626 -50.925550478026274, 30.055994332116097 -60.789812569953504, 60.00845207646489 -75.0098169632256 M1.36004420183599 -45.30633317492902 C13.716306746620685 -50.74868368193507, 25.373114807400853 -58.32004259232431, 59.30432858131826 -75.75505118630826" stroke="#a61e4d" stroke-width="2" fill="none"></path></g></g><g><g transform="translate(583.1530380066167 238.9330824262138) rotate(0 57.544090857097274 -3.0105935776124966)"><path d="M-1.5441423244774342 69.50853140214767 C-1.5160278680695631 51.94099410050541, 0.5429414211152004 31.66558323696031, 1.9248195785607733 -18.75003189524269 M0.17923910357058048 70.8534447078624 C2.323713136229765 51.37012761776217, 3.3203787842751904 32.04717870228801, 3.4755165159280934 -19.058168237336037 M2.1430250305261054 -17.75466007670021 C43.74406849217159 -39.20608919446936, 78.67692894707682 -56.27246001993298, 116.63232403867197 -76.87463186308742 M4.581738191800897 -18.631652181275246 C48.20755381680194 -39.76790676215657, 89.72012120675824 -61.69920289662409, 115.8870898155893 -74.0758142862469" stroke="#a61e4d" stroke-width="2" fill="none"></path></g></g><g><g transform="translate(579.795126940395 240.86949305348298) rotate(180 58.136090932713216 -2.0923100955303084)"><path d="M-1.2941448502242565 69.13661107728566 C2.6746670163085153 36.226920888692895, 4.10464312362706 0.6305157027302641, 3.7610046539034285 -20.260260029934404 M0.05076845549046993 71.44679123284604 C0.8817613393724485 53.07539712208036, 1.870609294097206 33.35722172669677, 3.45286831181008 -18.309629217959998 M4.756376472445909 -16.667207165859697 C25.139587646514226 -29.612586153933172, 49.758489358947216 -40.654643599943824, 114.76750913881015 -73.35466309264302 M3.879384367870871 -17.953087107516883 C26.810396358294813 -31.763291506130564, 49.30715489828065 -43.03713736724325, 117.56632671565067 -75.63141142390668" stroke="#a61e4d" stroke-width="2" fill="none"></path></g></g><g><g transform="translate(737.795126940395 255.6830824262138) rotate(0 -20.996589933522046 -45.745825570076704)"><path d="M-1.6660651750862598 1.3679334111511707 C-12.893960166927428 -28.049170701820405, -27.481136235985907 -58.58901757044718, -42.637294847518206 -92.85958455130458 M0.6441149804741144 0.07422246597707272 C-11.658406557161362 -26.994290144052357, -25.151570739429445 -54.960916175935424, -40.6866640355438 -91.95965973474085" stroke="#a61e4d" stroke-width="2" fill="none"></path></g></g><g><g transform="translate(679.795126940395 284.6830824262138) rotate(0 -46.745825570076704 -31.10661042202264)"><path d="M1.3679334111511707 -0.48631032183766365 C-18.997627989221364 -16.773923772480337, -41.158887467365716 -30.483918509725484, -94.85958455130458 -63.005876023322344 M0.07422246597707272 0.7926551792770624 C-29.340748907085512 -19.84273427145556, -59.60103450829164 -39.14604980869219, -93.95965973474085 -62.73505567573011" stroke="#a61e4d" stroke-width="2" fill="none"></path></g></g><g><g transform="translate(676.795126940395 328.6830824262138) rotate(0 -47.10661042202264 -8.27903429698199)"><path d="M-0.48631032183766365 1.314454574137926 C-24.1744482097216 -3.4772752198390666, -46.201303230505445 -9.209769935626538, -95.00587602332234 -16.64152179285884 M0.7926551792770624 0.25815888307988644 C-29.504354724641892 -5.55099808657542, -57.76076423654334 -11.261761140730233, -94.73505567573011 -17.872523168101907" stroke="#a61e4d" stroke-width="2" fill="none"></path></g></g><g><g transform="translate(733.795126940395 299.6830824262138) rotate(0 -19.27903429698199 -22.655508969910443)"><path d="M1.314454574137926 -1.9632517881691456 C-8.886024638917299 -11.483478716332465, -19.06971538597718 -19.60341324819252, -38.64152179285884 -44.89846308901906 M0.25815888307988644 -0.4125548508018255 C-14.68065158845857 -15.77604592775926, -29.417156692128632 -32.22295498007909, -39.87252316810191 -44.565847447142005" stroke="#a61e4d" stroke-width="2" fill="none"></path></g></g><g><g stroke-opacity="0.9" fill-opacity="0.9" transform="translate(35.3125 383) rotate(0 153.4585775114596 -160.3049443341792)"><path d="M-2.715549912303686 2.490183188766241 C49.09207798019052 -51.00381822362543, 257.14154915983477 -268.98050561522444, 309.6327049352229 -323.1000718571246" stroke="#f2aa74" stroke-width="2.5" fill="none" stroke-dasharray="3 6"></path></g><g stroke-opacity="0.9" fill-opacity="0.9" transform="translate(35.3125 383) rotate(0 153.4585775114596 -160.3049443341792)"><path d="M301.05137239577977 -296.1902923697338 C300.8853189840217 -299.2842238747457, 305.24798504056656 -307.31323096233433, 312.47658204957844 -326.3078847996891" stroke="#f2aa74" stroke-width="2.5" fill="none" stroke-dasharray="3 4"></path></g><g stroke-opacity="0.9" fill-opacity="0.9" transform="translate(35.3125 383) rotate(0 153.4585775114596 -160.3049443341792)"><path d="M286.25674924911436 -310.41137279050326 C289.67114609622985 -309.5681212660297, 297.831241905579 -313.94691344976496, 312.47658204957844 -326.3078847996891" stroke="#f2aa74" stroke-width="2.5" fill="none" stroke-dasharray="3 4"></path></g></g><g><g stroke-opacity="0.9" fill-opacity="0.9" transform="translate(42.8296887420118 376.9177656508982) rotate(0 327.36573450788853 -35.429569711536146)"><path d="M-0.48281125798821467 1.4177656508982182 C108.95987351561584 -10.345527706791955, 545.4856450301904 -60.56208100542425, 655.2142802737652 -72.27690507397054" stroke="#a61e4d" stroke-width="2.5" fill="none" stroke-dasharray="3 6"></path></g><g stroke-opacity="0.9" fill-opacity="0.9" transform="translate(42.8296887420118 376.9177656508982) rotate(0 327.36573450788853 -35.429569711536146)"><path d="M630.3579615211938 -59.86480435004189 C633.1320556959004 -59.26072317721742, 644.6776457943783 -64.54911416314033, 654.3720066435634 -73.66730854585765" stroke="#a61e4d" stroke-width="2.5" fill="none" stroke-dasharray="3 4"></path></g><g stroke-opacity="0.9" fill-opacity="0.9" transform="translate(42.8296887420118 376.9177656508982) rotate(0 327.36573450788853 -35.429569711536146)"><path d="M628.0863139368722 -80.25989247533528 C631.1776877439556 -74.57967276558196, 643.2877961916996 -74.7997593362038, 654.3720066435634 -73.66730854585765" stroke="#a61e4d" stroke-width="2.5" fill="none" stroke-dasharray="3 4"></path></g></g><g stroke-opacity="0.9" fill-opacity="0.9" transform="translate(279.3125 348) rotate(353.246425964469 111.5 13)"><text x="0" y="18" font-family="Virgil, Segoe UI Emoji" font-size="20px" fill="#a61e4d" text-anchor="start" style="white-space: pre;" direction="ltr">camera vector position</text></g><g stroke-opacity="0.9" fill-opacity="0.9" transform="translate(136.43500107617058 180.4499988671888) rotate(313.5311992856142 109.5 13)"><text x="0" y="18" font-family="Virgil, Segoe UI Emoji" font-size="20px" fill="#f2aa74" text-anchor="start" style="white-space: pre;" direction="ltr">target vector position</text></g><g stroke-opacity="0.9" fill-opacity="0.9" transform="translate(406.3125 10) rotate(0 32.5 13)"><text x="0" y="18" font-family="Virgil, Segoe UI Emoji" font-size="20px" fill="#f2aa74" text-anchor="start" style="white-space: pre;" direction="ltr">target</text></g><g stroke-opacity="0.9" fill-opacity="0.9" transform="translate(739.8125 365) rotate(0 10 13)"><text x="0" y="18" font-family="Virgil, Segoe UI Emoji" font-size="20px" fill="#1864ab" text-anchor="start" style="white-space: pre;" direction="ltr">up</text></g><g stroke-opacity="0.9" fill-opacity="0.9" transform="translate(801.3125 277) rotate(0 22.5 13)"><text x="0" y="18" font-family="Virgil, Segoe UI Emoji" font-size="20px" fill="#d9480f" text-anchor="start" style="white-space: pre;" direction="ltr">right</text></g><g stroke-opacity="0.9" fill-opacity="0.9" transform="translate(512.8125 103) rotate(0 40.5 13)"><text x="0" y="18" font-family="Virgil, Segoe UI Emoji" font-size="20px" fill="#087f5b" text-anchor="start" style="white-space: pre;" direction="ltr">direction</text></g></svg>