<svg version="1.1" xmlns="http://www.w3.org/2000/svg" viewBox="0 0 1486.6608482806348 617" width="1486.6608482806348" height="617">
  <!-- svg-source:excalidraw -->
  
  <defs>
    <style>
      @font-face {
        font-family: "Virgil";
        src: url("https://excalidraw.com/Virgil.woff2");
      }
      @font-face {
        font-family: "Cascadia";
        src: url("https://excalidraw.com/Cascadia.woff2");
      }
    </style>
  </defs>
  <g><g stroke-opacity="0.5" fill-opacity="0.5" transform="translate(51.317145202996244 590.7038166123398) rotate(0 283.9598199819477 -263.1536091724903)" fill-rule="evenodd"><path d="M-40.80183097903826 -287.2209592849714 C-40.80183097903826 -287.2209592849714, -40.80183097903826 -287.2209592849714, -40.80183097903826 -287.2209592849714 M-40.80183097903826 -287.2209592849714 C-40.80183097903826 -287.2209592849714, -40.80183097903826 -287.2209592849714, -40.80183097903826 -287.2209592849714 M-38.22875107824112 -265.64110264276576 C-29.662201659408105 -277.0566367700152, -19.51349233719418 -285.9946590622563, -9.013617311264767 -298.64334809071954 M-38.831494063132055 -266.64772631322455 C-26.796901570256615 -278.4116194033164, -16.62169491506446 -291.34857867326014, -8.123776544477238 -299.1396944899076 M-34.62182119303654 -247.08864866975148 C-17.48773706980215 -269.1812390065577, 2.6132963926945862 -288.94895572120816, 22.512369566319023 -312.0151261455541 M-34.69424162620018 -244.8953779119571 C-18.769521938251607 -264.6176455836572, -0.37258660633466434 -285.41772795556636, 22.757407762763535 -311.7763455725437 M-31.537573733919587 -224.3196823531318 C-5.129570087366602 -256.1474186842038, 22.386013372579608 -284.6846827785381, 53.20648564733415 -323.2420273838378 M-32.23807310461375 -224.12480513095144 C-8.205138537345768 -249.35324912300615, 13.386043727572343 -274.9699455697265, 53.33923775292783 -323.16513827124606 M-26.652384571371257 -202.91365171996128 C13.629447777663302 -254.48758927689988, 57.43214157317161 -300.26166274365846, 85.98534117726167 -335.3910881535161 M-29.210165150103748 -203.53996771601211 C3.4380171109615496 -238.6638155151386, 34.086477034846595 -275.0134397851915, 84.76439789024671 -335.5444956527102 M-24.61660419150299 -182.46258103531815 C22.483579139678454 -234.15883134408236, 70.3808350800572 -290.99691212457583, 116.18666605206462 -347.8804632418371 M-25.741642624431485 -182.08561852677747 C18.79775685391282 -232.9209357948968, 61.81139563194928 -284.39543890864985, 116.47541070258015 -346.8324702068558 M-23.65634140454608 -160.64669857563683 C42.618247609188536 -237.80035093534187, 109.42957493334674 -312.9258025777091, 148.49212641791348 -359.080150052743 M-22.567964639050597 -161.51863134307715 C20.35331036706818 -211.2510788231841, 65.16285190712019 -261.96902722653624, 148.77979826221815 -359.7685504229335 M-18.974737052486038 -140.19979102183018 C47.64580699629357 -217.77695699673103, 113.32838822380268 -296.9666925125416, 180.39222312708816 -371.27683458368364 M-19.614649474136336 -140.45289730329011 C34.02647305901558 -200.2286001225205, 86.48266628509036 -261.4839864541929, 181.37473152712192 -370.9489805531881 M-17.770249625931797 -120.72827135931287 C41.40459122715957 -187.01988066850828, 98.63904297784715 -252.71623930418187, 211.63975251905777 -382.4423595356079 M-17.39838184737371 -119.84528938187844 C48.37767905968158 -192.78153568933686, 111.93013099599254 -267.1482703233106, 211.79437659610295 -382.24817968780076 M-13.365917901689665 -99.37044200417144 C66.16297109869129 -191.26074084697808, 146.8957902444845 -284.4550147313643, 242.7884058057002 -394.84402752186674 M-14.076624843260566 -98.77101697317563 C44.9589287565748 -166.91606845805003, 103.71622386336517 -234.55569335892554, 243.84856245410577 -394.4743627351687 M-10.907073821951307 -77.92261729119613 C64.97121949828255 -165.70326842802498, 140.12506949804134 -252.69084322328524, 275.4378391608271 -406.99403689296736 M-11.575268774439468 -77.65054164717392 C83.615300370318 -186.76219953113107, 179.9324121478671 -297.1584035326307, 275.6416820195411 -407.6128951056186 M-9.200329500437443 -56.492833032447535 C74.78689260691384 -153.73071424933684, 158.32179952289843 -250.787287381601, 307.3373155379052 -418.80142965315804 M-8.047917982096951 -56.0464664185462 C81.74058331517723 -161.22682089574977, 172.9333539682703 -265.6352172527499, 306.9608336301288 -418.8752607302296 M-5.276523583136817 -36.1882645318912 C113.9749580796224 -171.72089649623985, 231.8912278480725 -307.955515402711, 337.81453905436234 -430.89493387206795 M-4.45438587566497 -35.578987158338876 C130.2741463884876 -190.45585637556013, 265.2415585418133 -346.4233612307686, 338.4571050378962 -430.39234270914795 M-2.062069779780387 -15.64875745066158 C86.64679614899805 -114.70729196453107, 171.97468743226463 -214.9610190394329, 370.4419646450198 -442.31859314485905 M-1.8386367918519968 -15.114997159323615 C112.2249378296785 -147.72627565548268, 226.9922394504471 -280.2930778723758, 370.1870649226821 -442.5830901090753 M3.314889182506822 3.2568844542082003 C97.02801120973469 -105.07114871686868, 190.85100014446095 -211.97476681599247, 402.47133115364613 -455.4522011481189 M3.24598341768863 3.5067109152849367 C87.93457361133076 -93.05926006759356, 170.50279626646582 -187.56785662254057, 402.2079488797337 -454.77794517501826 M36.08927522238307 -8.63893058030165 C141.07369303005166 -131.8797406431044, 246.669512731469 -255.51594424954683, 433.5069354552411 -467.2813047568475 M35.66232635911517 -9.08750938503302 C164.00345783461648 -156.7264567209274, 292.6390767723867 -304.46255827783, 433.27073347155084 -467.3872594694768 M66.26696502623757 -21.078656640057478 C187.99881023150417 -163.02219553494356, 312.02438322202147 -305.99975180627774, 466.04057442480484 -479.4789508460448 M66.21294840631684 -20.514916833643827 C183.76116014921797 -158.2986482731089, 303.1555034097324 -294.22210885187593, 465.18264526063365 -478.977634554951 M98.15187352705132 -32.944759760504816 C198.9146158159324 -149.5554393702716, 301.06560404591636 -266.4825142235969, 496.3954859083468 -490.85097671048817 M98.56719417977463 -32.20153215349302 C234.30927037236262 -186.6345081391081, 369.06253927535965 -342.3149661385521, 496.7511017804915 -490.517212413718 M130.1672385708338 -45.143077236420915 C272.92011950254135 -208.5825009545096, 417.3292982522036 -374.64864959026653, 528.1505848388481 -503.15484838562304 M129.68248121299806 -44.865497326857856 C275.7817066722105 -212.34072588086144, 420.26229892892866 -378.2838490892176, 528.2079476516057 -502.99451376872355 M161.87985703258508 -56.82165594280577 C284.7822148937428 -197.06960171803678, 404.67048373251725 -335.8881690449367, 559.804109062318 -514.5714031662267 M161.42853606848712 -56.935913916238306 C300.1575692724903 -215.5985600823781, 437.7877171500974 -373.6631818450878, 559.8731004074853 -514.6901806022447 M192.28796675831455 -68.2613331744366 C279.4887703273274 -164.2511357106895, 365.7708481379144 -262.6839630573402, 591.1417964247663 -526.3689783470762 M193.07527627975125 -68.04342390391162 C303.42373600081237 -193.3414923660761, 413.43046578521074 -319.37489157434095, 591.1227275816401 -526.0411048965586 M225.2454826810033 -80.29457496675896 C353.8620381523109 -228.59448024526154, 480.9250736155408 -374.19019379044346, 593.0263465256105 -503.65089927336976 M224.91704646727155 -80.63904801282332 C334.34745068481004 -207.05787947440388, 445.74069641799 -334.74086569724096, 592.3787084609876 -503.3879166843633 M257.1256426466608 -92.57721861455005 C361.59998808375923 -214.34972559659707, 466.7971732335454 -335.3764717402045, 592.9411535154329 -480.22243434990935 M256.1362641645575 -92.46592822525065 C352.88815387410136 -203.36082307091854, 449.0440257556049 -313.5531219595854, 593.6523668836103 -480.441939057961 M288.7173392795624 -104.60048252178707 C393.9558630886932 -225.43053118415241, 498.5325539565316 -345.9502353576176, 595.7776264816143 -458.56057218686084 M288.47077358491293 -104.56745614548316 C394.8256754877535 -226.2335514048526, 499.69559879022535 -348.03279755985625, 595.4990515839385 -457.98762909743226 M320.19226094381895 -115.21284151315068 C408.7302686366747 -219.01502388052634, 498.6645549205304 -323.17301391786555, 597.6801744837269 -435.2206537793725 M319.31217176705246 -116.02601160785923 C379.07850185831165 -182.29090878436148, 438.7378592215235 -250.83131359194329, 597.0814338263104 -434.9634319277268 M351.40083677233224 -127.57420445303198 C417.55525295702967 -204.41011539003662, 484.78293493286753 -281.63382968023296, 598.7864464762195 -411.4204513682183 M351.36999391007095 -127.75139986657972 C446.3082209081651 -236.11530507843514, 539.7525791796212 -343.4110801881209, 597.4561932940243 -412.42795471063283 M383.65171377090843 -139.96730568150826 C458.8022928768936 -226.95386867978604, 535.6939516051118 -313.79987254500276, 599.9215639357964 -390.4985301048808 M382.29321514829593 -140.7130178097927 C436.3917560296072 -205.0065552726426, 492.40409290786687 -269.28096032744526, 599.3846165335389 -389.56372447532505 M414.1692799220687 -151.3277669413369 C479.8064432902128 -227.15150740432503, 543.3508208626791 -300.9929701405414, 599.9439291918172 -365.68450349672906 M413.9071962187188 -152.47633934667343 C470.4900567968586 -216.42756005370592, 527.6089976231528 -280.82884866845905, 600.7151530184851 -367.2395824102939 M444.65524688274326 -163.3403525221765 C491.5842112428687 -216.84517328036637, 539.6646082019313 -273.8308427389043, 600.9415349329139 -344.7164457959965 M445.43260953700604 -164.43547820289248 C505.8690728531852 -235.49605892736008, 568.3448472228297 -305.89867636501634, 602.2497603022772 -344.0599852614846 M478.1097491296715 -175.20340254880952 C525.0891445324893 -235.73614613371117, 574.4578387536833 -291.71368845430817, 603.6229131325555 -322.2426316900461 M476.4275402786917 -175.10684819497632 C523.1792069547637 -228.68127943888913, 569.431689624749 -282.9621930235456, 602.7592768027854 -320.8319060219734 M509.51406242327096 -189.88075311340967 C542.9199514107414 -224.4447481822251, 575.2053507856663 -263.2000533118512, 604.1705020593885 -298.37738331244566 M509.7267391122997 -187.76429700710455 C544.4219382221809 -227.06598411526156, 580.2787311805206 -267.9706932418831, 605.5910792725566 -297.6947264729557 M541.5718564828016 -199.00795342395895 C556.7384021474661 -222.37455340707163, 575.5766997017112 -242.8934229280667, 608.1555604686432 -276.42274894851704 M540.0073453475811 -199.5249616540491 C553.8629271453825 -215.04173074524755, 567.9496957643324 -230.79959619831382, 607.1916958292418 -275.13275749522705 M571.3559915537448 -213.30828982840288 C578.5396693667842 -222.2439477875304, 588.1956604066319 -229.636628219412, 608.6515215188294 -251.30663620553756 M571.0839184487672 -212.54914020250547 C581.8373918049367 -223.97527251427815, 593.364570931257 -237.03560254485907, 607.6731338501006 -253.0577934148147" stroke="#7950f2" stroke-width="2" fill="none"></path><path d="M0.4434099811251165 0.2917940340955007 C-13.073531079589262 -88.27642829569038, -27.200492908039926 -177.72548578942266, -41.13171227804834 -285.86975672365236 M-0.2987395876582108 -0.4980438132886078 C-17.24405382670599 -108.2653048693903, -32.60831657001121 -216.03613398699022, -40.054041359705295 -287.22141368429766 M-41.31714520299633 -286.7530371025275 C187.69561143431753 -372.54464259107715, 417.05571573358736 -459.71414020300995, 590.5365844168047 -525.7529609715423 M-40.36558549845417 -287.6145391479205 C108.00059593149267 -345.1332833499016, 255.34796331177373 -401.1491542177493, 590.4246856786589 -526.4169500088176 M591.3715767726804 -526.5990123790762 C595.9763890648238 -432.9563143156294, 603.5714028411223 -340.70974236713204, 609.2367851668917 -230.4801915873186 M591.278236882019 -526.4620173294533 C596.5427378982777 -457.7935236726153, 600.7040520587325 -390.68671098477245, 608.8959053089643 -230.47644731253231 M608.4265869237905 -230.13954092318863 C464.38818453341946 -176.21771023332968, 320.7436990522305 -121.17234099333245, 0.7623835444450379 -0.5839260935783387 M608.5833922185426 -229.7911579435572 C388.3378424670414 -148.90312349015176, 167.6303105689142 -65.48876258108908, 0.3970756113529206 0.03683561682701111 M0 0 C0 0, 0 0, 0 0 M0 0 C0 0, 0 0, 0 0" stroke="#5f3dc4" stroke-width="4" fill="none"></path></g></g><g><g transform="translate(589.473886844363 586.6790091276821) rotate(0 -13.660198829281171 -87.5960005611181)"><path d="M0.7232504546642302 -0.7773029029369354 C-3.937197789549832 -30.108884698163404, -22.68956606090071 -147.4152524293012, -27.311678123474145 -176.6210102499183 M-0.3561817859765142 1.4290091276820749 C-5.195602232431997 -27.659747063165216, -23.536285037910588 -145.25699167310103, -28.043648113226542 -175.18438558787105" stroke="#1864ab" stroke-width="4" fill="none"></path></g><g transform="translate(589.473886844363 586.6790091276821) rotate(0 -13.660198829281171 -87.5960005611181)"><path d="M-14.911283378006788 -148.19564516630345 C-18.908444159429195 -156.92271379213486, -23.00426322020502 -166.2691806304201, -27.753311772560725 -176.35888530820606 M-13.094546992780538 -148.51359391000443 C-19.10509747864231 -158.1845037616584, -25.018186354379555 -168.96717748390313, -27.47963616690601 -175.76372474938628" stroke="#1864ab" stroke-width="4" fill="none"></path></g><g transform="translate(589.473886844363 586.6790091276821) rotate(0 -13.660198829281171 -87.5960005611181)"><path d="M-35.19386892440147 -145.07527244192886 C-31.98948313794548 -155.02998096474457, -28.900177098807973 -165.4818427898624, -27.753311772560725 -176.35888530820606 M-33.37713253917522 -145.39322118562984 C-31.541910459435073 -156.46938723413504, -29.621865092376936 -168.45714885711482, -27.47963616690601 -175.76372474938628" stroke="#1864ab" stroke-width="4" fill="none"></path></g></g><g><g transform="translate(588.7506363896989 584.2499999999998) rotate(0 65.24422910873318 -24.01335813888346)"><path d="M-0.8257548987865448 -0.8147193253040313 C20.62043924132983 -8.610715101162594, 107.1622113843759 -39.660931458075844, 129.08344824910165 -47.86956761479378 M0.9415850500110539 1.3719490835722534 C22.72400982487636 -6.6350767264111585, 109.75375349222062 -40.95184368534324, 131.3142131162528 -49.398665361339226" stroke="#d9480f" stroke-width="4" fill="none"></path></g><g transform="translate(588.7506363896989 584.2499999999998) rotate(0 65.24422910873318 -24.01335813888346)"><path d="M107.46807586880638 -31.069826060642676 C118.39881826426156 -34.84725334214584, 122.2450696642737 -43.266031744567734, 133.07209025749006 -50.91118069761433 M108.08752985032513 -29.406684169282393 C116.36330059060825 -37.71818375753896, 125.60733007287936 -44.35084509772385, 131.4284450454358 -49.309211768442765" stroke="#d9480f" stroke-width="4" fill="none"></path></g><g transform="translate(588.7506363896989 584.2499999999998) rotate(0 65.24422910873318 -24.01335813888346)"><path d="M99.96586768129187 -50.17052957378663 C113.22720446836442 -47.51942934780673, 119.57812021737884 -49.5613051191002, 133.07209025749006 -50.91118069761433 M100.58532166281061 -48.50738768242635 C111.77879362335969 -49.76799023374671, 123.78821306515486 -49.35993870715176, 131.4284450454358 -49.309211768442765" stroke="#d9480f" stroke-width="4" fill="none"></path></g></g><g><g stroke-opacity="0.6" fill-opacity="0.6" transform="translate(197.4494984916468 194.24999999999977) rotate(180 93.18800611678972 90.5295251220465)"><path d="M0.7147434532642365 -1.0187674820423125 C31.488927162303586 29.298472077647848, 154.81360484666655 151.59665604730446, 185.66126878031528 182.07781772613527" stroke="#f2aa74" stroke-width="4.5" fill="none" stroke-dasharray="3 6"></path></g></g><g transform="translate(537.7506363896989 355.25) rotate(0 22.5 22.5)"><path d="M15.775426384176608 1.5680873932721902 C20.02046330621261 0.08049732123348718, 26.516149122763494 -0.8469310378213764, 31.1057364773489 1.1732031619856684 C35.6953238319343 3.193337361792713, 41.10362529417966 9.201292814045647, 43.31295051168904 13.68889259211446 C45.52227572919842 18.176492370183272, 45.65776793682652 23.68252585325449, 44.36168778240517 28.09880183039855 C43.06560762798382 32.51507780754261, 39.55641749093789 37.30434659607041, 35.53646958516095 40.18654845497883 C31.516521679384013 43.06875031388726, 25.0687763242333 45.577200338803586, 20.242000347743538 45.39201298384908 C15.415224371253775 45.20682562889457, 9.853628121286537 42.49144434449499, 6.575813726222364 39.075424325251795 C3.297999331158192 35.659404306008604, 1.0610826510713487 29.926244286348144, 0.5751139773585052 24.89589286838992 C0.08914530364566176 19.8655414504317, 0.7418452157883091 13.137523177721356, 3.6600016839453033 8.893315817502458 C6.578158152102297 4.649108457283561, 15.046523579684967 0.8536526948713199, 18.08405278630047 -0.5693512929234608 C21.121581992915978 -1.9923552807182414, 21.733118773268576 -0.25837458793115664, 21.885176923638333 0.3552918907337741 M18.079216952589242 0.19803555734805656 C22.371924059045742 -1.1938034835587834, 26.71174610463341 0.6484033825723663, 30.910265305765773 2.6707288222295773 C35.10878450689813 4.693054261886788, 40.91199617100573 8.11714170284726, 43.270332159383415 12.331988195291324 C45.6286681477611 16.546834687735387, 46.564916839850284 23.33796139377654, 45.06028123603186 27.959807776893953 C43.55564563221344 32.58165416001137, 38.52475360274816 37.39138220661868, 34.2425185364729 40.063066493995805 C29.960283470197634 42.73475078137293, 23.7617585339661 44.42912926088972, 19.366870838380265 43.98991350115671 C14.971983142794432 43.5506977414237, 11.25401973718926 40.591390234717664, 7.873192362957893 37.427771935597754 C4.492364988726525 34.26415363647784, -0.3388313382671825 29.81005993196098, -0.9180934070079445 25.00820370643726 C-1.4973554757487064 20.206347480913543, 1.2193968241614908 12.771191830745735, 4.39761995051332 8.616634582455456 C7.57584307686515 4.462077334165177, 15.962757091809484 1.5697319535751626, 18.151245351103032 0.08086021669559074 C20.33973361039658 -1.4080115201839811, 17.542830356515644 -0.5937319017059994, 17.528549506274608 -0.31659583882197495" stroke="#1864ab" stroke-width="1" fill="none"></path></g><g transform="translate(550.2506363896989 352.75) rotate(0 8.5 23)"><text x="8.5" y="32" font-family="Virgil, Segoe UI Emoji" font-size="36px" fill="#1864ab" text-anchor="middle" style="white-space: pre;" direction="ltr">y</text></g><g transform="translate(729.2506363896989 498) rotate(0 22.5 22.5)"><path d="M27.0705340238305 -0.10119087731024479 C31.539566318856902 0.6752528537539098, 35.96478157035155 5.178864462495193, 39.093107500521995 9.069606698787338 C42.22143343069244 12.960348935079482, 45.83806681120041 18.516576897131763, 45.840489604853204 23.243262540442625 C45.842912398505995 27.969948183753488, 42.330044676020655 33.96241790546715, 39.107644262438754 37.429720558652505 C35.88524384885685 40.89702321183786, 31.060680629257615 43.18928182950366, 26.506087123361805 44.047078459554754 C21.951493617465996 44.904875089605845, 15.969120568228526 44.96466567045372, 11.780083227063889 42.576500338959036 C7.591045885899253 40.18833500746435, 3.2336977581965005 34.26868645855334, 1.371863076373991 29.71808647058664 C-0.4899716054485188 25.16748648261994, -1.0063564423329392 19.885863188278833, 0.6090751361288298 15.272900411158828 C2.224506714590599 10.65993763403882, 6.41199388019664 4.328346362332676, 11.064452547144604 2.040309807866599 C15.716911214092569 -0.24772674659947702, 25.057591121496056 1.3780391693016139, 28.523827137816617 1.5446810843623702 C31.99006315413718 1.7113229994231265, 31.81066625525929 2.6976847022467, 31.861868645067972 3.040161298231137 M12.760214146352595 1.1407746360286062 C16.92715582435389 -0.7112486522906556, 23.895641248520125 0.923138163169279, 28.391576130617956 2.0911319882041326 C32.887511012715784 3.2591258132389864, 37.05315614380726 4.648405553585437, 39.735823438939576 8.148737586237727 C42.418490734071895 11.649069618890017, 44.763014573100335 18.01794851434257, 44.48757990141188 23.093124184117872 C44.21214522972342 28.168299853893174, 41.42850035990648 34.82885143926656, 38.08321540880884 38.599791604889546 C34.7379304577112 42.370731770512535, 29.221501268896695 45.449043671945255, 24.41587019482603 45.7187651778558 C19.610239120755367 45.98848668376635, 13.15930962658267 42.94708469968575, 9.24942896438486 40.21812064035281 C5.339548302187049 37.48915658101986, 2.166437631597481 33.99850560040354, 0.9565862216391636 29.344980821858123 C-0.2532651883191539 24.69145604331271, -0.12072115325541377 16.559730614378385, 1.9903205046349548 12.296971969080321 C4.101362162525323 8.034213323782257, 11.820034311213561 5.481461141040844, 13.622836168981374 3.7684289500697474 C15.425638026749187 2.0553967590986506, 12.988307702058417 2.1319897249720525, 12.80713165124183 2.01877882325374" stroke="#d9480f" stroke-width="1" fill="none"></path></g><g transform="translate(741.2506363896989 495.5) rotate(0 10 23)"><text x="10" y="32" font-family="Virgil, Segoe UI Emoji" font-size="36px" fill="#d9480f" text-anchor="middle" style="white-space: pre;" direction="ltr">x</text></g><g transform="translate(112.25063638969885 134) rotate(0 22.5 22.5)"><path d="M12.019056619281914 1.8404216415349879 C15.967643900889499 -0.24276758347676353, 22.76335171939849 0.212793272348466, 27.69222422871593 1.471827558104419 C32.62109673803337 2.730861843860372, 38.63055856063446 5.603350451992426, 41.59229167518655 9.394627356070705 C44.55402478973864 13.185904260148984, 46.15474705315794 19.265300518927063, 45.46262291602848 24.219488982574088 C44.77049877889902 29.173677446221113, 40.77890967193383 35.725370653856636, 37.43954685240977 39.11975813795286 C34.10018403288571 42.51414562204908, 29.97112250979115 44.27578973375556, 25.426445998884127 44.585813887151396 C20.881769487977103 44.89583804054723, 14.290146481356246 43.83386162904466, 10.171487786967635 40.979903058327864 C6.052829092579025 38.125944487611065, 2.13781830226325 32.18872562547418, 0.7144938325524706 27.462062462850607 C-0.7088306371583091 22.735399300227034, -0.7466165604371735 17.093740509383906, 1.6315409687029572 12.619924082586426 C4.009698497843088 8.146107655788946, 12.622382508088155 2.5572475931004695, 14.983439007393255 0.6191639020657291 C17.344495506698355 -1.318919788969011, 15.793917601628076 0.35811609297937375, 15.797879964533555 0.9914219363779857 M14.84475916068828 0.28318299109623624 C19.060533338538512 -1.5001211673595403, 26.260892254384437 -0.1917257477718115, 30.70408740466818 1.5270928428286688 C35.14728255495192 3.245911433429149, 39.194479126072025 6.5175726334531126, 41.50393006239072 10.596094534699118 C43.81338099870942 14.674616435945122, 45.33652492082567 21.111311955630985, 44.56079302258035 25.9982242503047 C43.78506112433503 30.885136544978412, 40.81616300512135 36.70135561344804, 36.84953867291883 39.9175683027414 C32.88291434071631 43.133780992034765, 25.63599869266941 45.37194916246691, 20.76104702936522 45.2955003860649 C15.886095366061028 45.21905160966289, 10.786411363302788 42.68338528105066, 7.599828693093693 39.45887564432934 C4.413246022884598 36.23436600760802, 2.534143888493499 30.684443207889732, 1.6415510081106461 25.948442565736972 C0.7489581277277931 21.212441923584212, -0.22914371628962593 15.10893765498053, 2.244271410796575 11.042871791412782 C4.717686537882775 6.976805927845035, 14.053670387927943 3.004056172194683, 16.482041770627852 1.5520473843304892 C18.91041315332776 0.10003859646629532, 16.735093395416328 2.0573150907278315, 16.814499706996028 2.3308190642276188" stroke="#f2aa74" stroke-width="1" fill="none"></path></g><g transform="translate(122.25063638969885 132.5) rotate(0 11 23)"><text x="11" y="32" font-family="Virgil, Segoe UI Emoji" font-size="36px" fill="#f2aa74" text-anchor="middle" style="white-space: pre;" direction="ltr">w</text></g><g><g transform="translate(385.2753202895364 379.131232678527) rotate(180 99.30491179410825 99.72692260304939)"><path d="M-0.34080861210823055 0.8274849236011506 C32.85500775239272 33.71614207432763, 165.94655777918317 165.27519057622035, 198.95063220032475 198.1884998265562 M1.6811281371954827 0.21631056315265607 C34.766961862443296 33.15298832558253, 165.10605703528182 166.073781713814, 198.17307899104415 199.23753464294612" stroke="#f2aa74" stroke-width="4" fill="none"></path></g></g><g transform="translate(59.750636389698855 499.25) rotate(0 43.5 23)"><text x="0" y="32" font-family="Virgil, Segoe UI Emoji" font-size="36px" fill="#5f3dc4" text-anchor="start" style="white-space: pre;" direction="ltr">w = 1</text></g><g transform="translate(580.7506363896989 573.25) rotate(0 11 11)"><path d="M9.540031745802638 0.19052133480235156 C12.047219628452625 -0.36259197311704916, 16.37480820329035 -0.1843830891263536, 18.247356417835167 1.291256182697083 C20.119904632379985 2.7668954545205198, 20.375933097998328 6.628756704688062, 20.775321033071553 9.04435696574297 C21.174708968144778 11.45995722679788, 21.589605835293515 13.938060578544475, 20.64368402827452 15.78485774902654 C19.697762221255527 17.631654919508605, 17.13274657888322 19.24040445920304, 15.099790190957583 20.12513998863536 C13.066833803031942 21.00987551806768, 10.570231379412109 21.484613853045087, 8.445945700720678 21.093270925620452 C6.321660022029247 20.701927998195817, 3.808016731230887 19.63618373668189, 2.354076118809001 17.77708242408756 C0.9001355063871148 15.917981111493228, -0.35908675962839176 12.310561574912516, -0.2776979738106391 9.938663050054465 C-0.19630918799288644 7.566764525196415, 0.6421827565696838 5.240159943681276, 2.842408833715517 3.5456912749392577 C5.04263491086135 1.8512226061972397, 10.787953634710856 0.30005456441665956, 12.923658489064358 -0.22814896239764337 C15.05936334341786 -0.7563524892119463, 15.810479347795118 0.15165702014051963, 15.656637959836527 0.3764701140534399 M14.684798397763151 -0.12364985114143323 C17.05825984098037 0.17646875480185553, 20.223948424999783 2.758540299014689, 21.47826077369355 4.989587789055884 C22.732573122387315 7.220635279097079, 22.755058101936385 10.685256741331742, 22.210672489925752 13.262635089105736 C21.66628687791512 15.84001343687973, 19.873238476027385 18.799486131696238, 18.211947101629743 20.45385787569985 C16.5506557272321 22.10822961970346, 14.360755461643954 23.317482156370517, 12.242924243539898 23.18886555312741 C10.125093025435842 23.060248949884304, 7.565983421427509 21.440544564272777, 5.504959793005409 19.68215825624122 C3.443936164583309 17.923771948209662, 0.7798368539571935 15.080649963877342, -0.12321752699270405 12.638547704938063 C-1.0262719079426015 10.196445445998783, -1.193567367032853 6.974915681490423, 0.08663350730602382 5.029544702605541 C1.3668343816449007 3.0841737237206592, 5.0137636001440775 1.7523155479306562, 7.5579877190405576 0.9663218316287718 C10.102211837937038 0.18032811532688753, 14.441487849022316 0.2208022359728199, 15.351978220684902 0.3135824047942357 C16.26246859234749 0.40636257361565153, 13.179213597915005 1.1659003733288582, 13.02092994901608 1.5230028445572668" stroke="none" stroke-width="0" fill="#ffffff"></path><path d="M14.198528152154493 0.0876512081276779 C16.454571295118647 0.6540002617805817, 20.077308070741267 2.8479168237106056, 21.351356035441945 4.945308632886714 C22.625404000142623 7.042700442062824, 22.30241541906915 10.163623832335194, 21.84281594035857 12.67200206318433 C21.38321646164799 15.180380294033466, 20.51930006676446 18.289396030190733, 18.59375916317846 19.99557801798153 C16.668218259592464 21.701760005772325, 12.7112115600329 23.141392018514512, 10.289570518842599 22.909093989929104 C7.8679294776522966 22.676795961343696, 5.869903212790443 20.331539403718722, 4.063912916036645 18.60178984646908 C2.257922619282847 16.87204028921944, -0.26034691682956995 14.570100363305054, -0.546371261680191 12.530596646431267 C-0.832395606530812 10.49109292955748, 0.9806295186834479 8.275951292908942, 2.3477668469329185 6.364767545226362 C3.7149041751823892 4.453583797543783, 5.367143352852962 2.0968869166675823, 7.656452707816632 1.0634941603357912 C9.9457620627803 0.030101404003999965, 14.701242982619734 0.0985589544032847, 16.083622976714935 0.1644110072356142 C17.466002970810138 0.23026306006794367, 16.052780531513086 1.2708093454249767, 15.95073267238784 1.4586064773297682 M16.209171432017627 1.348637369360116 C18.37026937538107 1.9178288883430787, 20.081754073289982 3.231349010736088, 21.13611074080625 5.445557109341054 C22.190467408322515 7.6597652079460214, 23.100341974175482 11.928565671227004, 22.535311437115233 14.633885960989915 C21.970280900054984 17.339206250752827, 20.092862905955695 20.680513477224128, 17.745927518444752 21.677478847918525 C15.398992130933808 22.674444218612923, 10.835043647060187 21.006051755613385, 8.453699112049568 20.615678185156295 C6.072354577038949 20.225304614699205, 4.897088361475423 20.73767482591679, 3.457860308381032 19.33523742517599 C2.018632255286641 17.93280002443519, -0.12755300991592966 14.495666509576111, -0.1816692065167782 12.20105378071149 C-0.23578540311762675 9.906441051846869, 1.4970066840873757 7.515005838238557, 3.1331631287759407 5.567561051988263 C4.7693195734645055 3.620116265737969, 7.421779733230602 1.0229944823069093, 9.635269461614612 0.5163850632097251 C11.848759189998622 0.009775644112540949, 15.473883516083927 2.188722311489818, 16.414101499080004 2.527904537405158 C17.354319482076082 2.867086763320498, 15.452662960514571 2.503427970479233, 15.276577359591084 2.5514784187017643" stroke="#ffffff" stroke-width="1" fill="none"></path></g><g><g transform="translate(397.30787723347174 160.02711514234534) rotate(0 -29.150995701551437 -67.1313295692205)"><path d="M0.6965510547161102 -0.7840377986431122 C-19.40758867563083 -47.75618443356705, -41.72000489603663 -94.78273374681139, -58.998542457818985 -132.84732676148406 M-0.09099207818508148 -0.2786060720682144 C-21.631411970338984 -46.227857220499786, -41.67530448119924 -90.82298849726264, -58.510695442557335 -133.98405306637278" stroke="#ffffff" stroke-width="1" fill="none"></path></g></g><g><g transform="translate(583.7506363896989 581.25) rotate(0 -115.5610125360335 -68.15869100018284)"><path d="M-0.8850233105807297 -0.593700706705404 C-66.14796990600462 -40.54015592042299, -134.15142710608933 -80.59102824807813, -230.90080020501856 -136.09446921091507 M0.5646617243943279 0.3512789070446259 C-89.58670539593625 -53.00259812067322, -179.48965778466263 -106.12403132011347, -231.68668679646134 -136.6686609074103" stroke="#ffffff" stroke-width="1" fill="none"></path></g></g><g><g transform="translate(588.7506363896989 580.25) rotate(0 -92.18286962386816 -125.0497983954657)"><path d="M0.8327432215872186 -0.4423036597866617 C-70.52761969202031 -91.26590394601496, -136.9927461073818 -182.67062606898992, -185.19848246932347 -249.65729313114466 M-0.47559755517753965 -0.48276806463824506 C-45.705582563940574 -60.88186526083403, -91.37262816970443 -121.86964351944103, -185.03019015418906 -248.54754798733654" stroke="#ffffff" stroke-width="1" fill="none"></path></g></g><g transform="translate(185.75063638969885 45.25) rotate(0 9.5 9.5)"><path d="M6.099581193299204 -0.23999861790026067 C7.747143453973895 -1.0466104950024002, 10.977878522215219 -0.979796731547539, 12.913321246329179 -0.026594253681148317 C14.84876397044314 0.9266082241852424, 16.905378226306333 3.5827920920962644, 17.71223753798297 5.479216249298084 C18.519096849659604 7.375640406499903, 18.366244423318285 9.3192187569057, 17.75447711638899 11.351950689529765 C17.142709809459696 13.38468262215383, 15.676655368748927 16.49078730387452, 14.041633696407196 17.67560784504247 C12.406612024065465 18.860428386210423, 9.803360172926618 18.688225324723177, 7.944347082338608 18.46087393653748 C6.085333991750598 18.233522548351786, 4.29884165669002 17.67263082680116, 2.8875551528791332 16.311499515928286 C1.4762686490682464 14.950368205055412, -0.49331803429281357 12.20629347627004, -0.5233719405267134 10.294086071300232 C-0.5534258467606133 8.381878666330422, 0.8990309752853369 6.617038295784366, 2.707231715475734 4.838255086109432 C4.515432455666131 3.0594718764344977, 8.813101836545263 0.2698070370550071, 10.325832500615668 -0.3786131867493747 C11.838563164686073 -1.0270334105537566, 11.853663456423694 0.7956681468372008, 11.783615699898169 0.9477337432831412 M11.009482228919977 1.4833997401149777 C13.02056206136167 1.891864119261637, 15.799288918603228 4.0154363372971416, 17.121930546912637 5.445248907492759 C18.444572175222046 6.875061477688376, 18.9685657298607 8.1718568348235, 18.94533199877643 10.062275161288682 C18.922098267692164 11.952693487753864, 18.492104422502695 15.196797816798325, 16.98252816040702 16.787758866283852 C15.472951898311347 18.37871991576938, 11.87210450410284 19.728806688155668, 9.887874426202389 19.608041458201846 C7.903644348301938 19.487276228248025, 6.446717724570309 17.404706149431846, 5.077147693004318 16.06316748656093 C3.707577661438327 14.72162882369001, 2.453355400069168 13.451579936924722, 1.6704542368064423 11.558809480976336 C0.8875530735437164 9.66603902502795, -0.17158891849034974 6.318979971437734, 0.379740713427962 4.70654475087062 C0.9310703453462738 3.0941095303035056, 2.9219994490614387 2.406471499833076, 4.978432028316313 1.8841981575736515 C7.034864607571187 1.361924815314227, 11.489197909977985 1.9824344759411048, 12.718336188957206 1.5729046973140726 C13.947474467936427 1.1633749186870403, 12.28139049704826 -0.505145197898826, 12.353261702191642 -0.5729805141885418" stroke="#ffffff" stroke-width="1" fill="none"></path></g><g transform="translate(327.75063638969885 10.25) rotate(0 7 7)"><path d="M6.115678338207807 0.8849798950501198 C7.6084531470192065 0.2993221283617774, 9.24698456298032 -0.43433044543463195, 10.623157667832348 0.17107295266513667 C11.999330772684377 0.7764763507649053, 13.93616242181646 3.0655907440690306, 14.372716967319985 4.5174002836487315 C14.809271512823509 5.969209823228432, 13.73092163199607 7.458193742312718, 13.242484940853492 8.88193019014334 C12.754048249710914 10.305666637973962, 12.813969733660532 12.334847291605488, 11.44209682046452 13.059818970632467 C10.07022390726851 13.784790649659445, 6.810810768207016 13.530707227983692, 5.011247461677431 13.231760264305215 C3.2116841551478466 12.932813300626739, 1.4533087344235303 12.238157004347144, 0.6447169812870133 11.266137188561606 C-0.16387477184950372 10.294117372776068, 0.08571366563210603 8.908690031974672, 0.15969694285832947 7.399641369591983 C0.23368022008455291 5.8905927072092945, 0.03754959326314866 3.4355367047310295, 1.088616644644354 2.211845214265474 C2.139683696025559 0.9881537237999187, 5.306680956278129 0.3944363217776578, 6.466099251145561 0.05749242679865052 C7.625517546012993 -0.27945146818035677, 7.926927512000857 0.1939997415450915, 8.045126413848948 0.1901818443914305 M7.452858544758864 -0.7370510301009832 C8.545144047691018 -0.26938983511103337, 10.918620158919968 2.79249704337904, 11.999098722368185 4.409607498216226 C13.079577285816402 6.026717953053412, 13.98480615264663 7.834890352813783, 13.935729925448172 8.965611698922133 C13.886653698249713 10.096333045030484, 12.68333535557284 10.133745923418433, 11.704641359177437 11.193935574866329 C10.725947362782033 12.254125226314224, 9.282135480199232 14.898132181970306, 8.063565947075746 15.32674960760951 C6.84499641395226 15.755367033248715, 5.654270606378972 15.02428887505663, 4.39322416043652 13.765640128701554 C3.132177714494068 12.506991382346477, 1.1728758344648225 9.492432162091404, 0.49728727142103235 7.77485712947905 C-0.17830129162275765 6.057282096866694, -0.1096190718246079 4.562610652172634, 0.3396927821737803 3.460189933027421 C0.7890046361721685 2.3577692138822073, 2.0030511050371755 1.79494694687752, 3.1931583954113614 1.1603328146077674 C4.383265685785547 0.5257186823380147, 6.62822069184296 -0.3292065176047041, 7.480336524418897 -0.34749486059109547 C8.332452356994834 -0.36578320357748684, 8.268911605251168 0.7724715441866747, 8.305853390866984 1.0506027566894192" stroke="#ffffff" stroke-width="1" fill="none"></path></g><g transform="translate(38.75063638969891 254.25) rotate(0 11 11)"><path d="M9.561246387160304 0.4115088550361392 C11.73754638348291 0.16400558319255554, 15.164147764172963 1.1743777082598135, 17.044065520602143 2.394416438675899 C18.923983277031322 3.6144551690919844, 20.294787346289887 5.7398455071784715, 20.84075292573538 7.731741237532651 C21.386718505180873 9.72363696788683, 21.206906133176965 12.095012243782575, 20.3198589972751 14.345790820800975 C19.43281186137324 16.596569397819373, 17.469807847111195 19.85602418015289, 15.518470110324202 21.236412699643047 C13.56713237353721 22.616801219133205, 10.809689257441963 23.215465927703303, 8.611832576553143 22.62812193774192 C6.413975895664323 22.040777947780537, 3.793784685033571 19.583111633430025, 2.331330024991283 17.712348759874747 C0.8688753649489958 15.841585886319468, -0.24213883131303415 13.690717430986492, -0.16289538370058132 11.403544696410247 C-0.08365193608812849 9.116371961834002, 1.251350455154709 5.893434558248776, 2.806790710666 3.9893123524172704 C4.362230966177291 2.0851901465857647, 7.718366437830368 0.6142128530169316, 9.169746149367166 -0.02118853857878733 C10.621125860903964 -0.6565899301745063, 11.432375178129195 0.017106618065827334, 11.515068979886788 0.1769040028429565 M16.196126067493367 -0.01727175995383945 C18.266028782103067 1.0159782484419475, 20.513541206431253 4.413186929968312, 21.391110323358653 6.762161403296163 C22.268679440286054 9.111135876624015, 21.932692230726936 11.740141131402616, 21.461540769057763 14.076575080013273 C20.99038930738859 16.41300902862393, 20.180403914608615 19.419041943378826, 18.564201553343615 20.780765094960095 C16.947999192078615 22.142488246541365, 14.366037179558392 22.370930861369583, 11.764326601467767 22.246913989500896 C9.162616023377142 22.12289711763221, 5.07288153105776 21.626831920695345, 2.953938084799864 20.036663863747968 C0.8349946385419673 18.44649580680059, -0.8241548818030605 14.964900835712488, -0.9493340760796141 12.70590564781664 C-1.0745132703561675 10.446910459920794, 0.9239931884002914 8.419349585192274, 2.202862919140543 6.482692736372881 C3.4817326498807946 4.546035887553487, 4.568158726072642 2.273948309646446, 6.723884308361894 1.085964554900281 C8.879609890651146 -0.10201919984588415, 14.027694619533252 -0.5948932699339767, 15.137216412876054 -0.6452097921041098 C16.246738206218858 -0.6955263142742428, 13.25586965769479 0.5362997721013887, 13.381015068418709 0.7840654218794825" stroke="#ffffff" stroke-width="1" fill="none"></path></g><g transform="translate(454.75063638969885 293.25) rotate(0 11 11)"><path d="M15.83032070145893 1.013544248936542 C18.23128562108032 1.869837901451691, 20.323475882836096 4.1962673835994, 21.295643831920422 6.0613732326252165 C22.26781178100475 7.926479081651033, 22.357041705096307 9.911506312377394, 21.663328395964882 12.204179343091443 C20.969615086833457 14.496852373805492, 19.054966971314865 18.250954719155335, 17.13336397713188 19.817411416909508 C15.211760982948892 21.38386811466368, 12.4915977117796 21.65423702973582, 10.133710430866962 21.60291952961648 C7.775823149954325 21.551602029497136, 4.532734108821715 20.979179246311364, 2.986040291656056 19.509506416193453 C1.4393464744903968 18.03983358607554, 1.235035880043807 15.219673792057149, 0.8535475278730082 12.78488254890901 C0.47205917570220945 10.350091305760872, -0.3209961555062115 6.76155884058406, 0.697110178631263 4.90075895730462 C1.7152165127687375 3.0399590740251803, 4.385220180164513 2.148587601681042, 6.9621855326978555 1.6200832492323691 C9.539150885231198 1.0915788967836964, 14.44725398946239 1.5790837016671142, 16.158902293831318 1.7297328426125844 C17.870550598200246 1.8803819835580546, 17.22227560464598 2.3359917361759925, 17.232075358911423 2.523978094905191 M11.922648989085301 1.4923982404795257 C14.127783531157874 1.4477395744354078, 15.064396812039417 2.6857209385474423, 16.91282499025031 4.081354012756835 C18.761253168461202 5.476987086966227, 22.21380687618304 7.84419141680735, 23.01321805835066 9.866196685735883 C23.81262924051828 11.888201954664416, 23.05192752607737 14.283819706574993, 21.70929208325603 16.21338562632803 C20.36665664043469 18.142951546081065, 17.226941645963848 20.613646358394085, 14.957405401422609 21.443592204254102 C12.68786915688137 22.27353805011412, 10.288698745663321 22.070713433368006, 8.092074616008595 21.19306070148813 C5.8954504863538695 20.315407969608252, 2.857677662145111 18.06231204906781, 1.7776606234942562 16.177675812974833 C0.6976435848434015 14.293039576881856, 1.2162232331021 12.211024050168742, 1.611972384103467 9.885243284930265 C2.007721535104834 7.559462519691788, 2.5982107380669897 3.76450452710154, 4.152155529502458 2.2229912215439747 C5.706100320937927 0.6814779159864093, 9.52442264849471 1.1964518298997753, 10.935641132716281 0.6361634515848724 C12.346859616937852 0.07587507326996956, 12.580382596376072 -0.9996543803711843, 12.619466434831883 -1.1387390483454425" stroke="none" stroke-width="0" fill="#7950f2"></path><path d="M8.274517503080597 0.032830235461593915 C10.290432608850509 -0.6873442406076286, 13.290221234006058 -0.03765422358883419, 15.274615725197485 1.1748331143013058 C17.259010216388912 2.387320452191446, 19.00327986527804 5.213008998788148, 20.180884450229154 7.307754262802433 C21.35848903518027 9.402499526816719, 22.839581941283623 11.500560586799445, 22.340243234904186 13.74330469838702 C21.84090452852475 15.986048809974594, 19.441148263814622 19.259743104507407, 17.184852211952528 20.76421893232788 C14.928556160090434 22.26869476014835, 11.09454794130028 23.05023329591377, 8.802466923731618 22.77015966530984 C6.510385906162956 22.49008603470591, 4.839999098102257 20.91116983939198, 3.432366106540556 19.083777148704296 C2.024733114978855 17.256384458016612, 0.4387695715378304 14.227594790277728, 0.356668974361412 11.805803521183735 C0.27456837718499355 9.384012252089743, 1.2332426800900338 6.490567548816137, 2.9397625234820453 4.553029534140343 C4.646282366874057 2.615491519464549, 9.084052705184874 0.7544176138736184, 10.59578803471348 0.18057543312897018 C12.107523364242088 -0.39326674761567804, 12.102010900286977 0.7930956779519436, 12.010174500653687 1.1099764496724536 M13.407114162445113 1.615223013342936 C15.509256992084127 2.2570271787590586, 18.130178879580686 3.8594789545854304, 19.320445671774795 5.556046540736055 C20.510712463968904 7.25261412688668, 20.68993233329645 9.587960799689041, 20.54871491560977 11.794628530246685 C20.407497497923092 14.00129626080433, 19.7386032622736 17.333973434597834, 18.473141165654717 18.796052924081923 C17.207679069035834 20.258132413566013, 15.390198579205531 20.218667126995996, 12.95594233589648 20.567105467151233 C10.52168609258743 20.91554380730647, 5.888319942854303 22.026985566270877, 3.867603705800417 20.88668296501335 C1.846887468746531 19.746380363755822, 1.4943787858489608 15.949677481383405, 0.8316449135731645 13.725289859606068 C0.16891104129736823 11.500902237828731, -0.9432442726246961 9.71788312105863, -0.10879952785436053 7.540357234349326 C0.725645216915975 5.362831347640022, 3.5473883620218736 1.6842988648936414, 5.838313382195178 0.6601345393502385 C8.129238402368482 -0.3640297861931645, 12.157966937085812 1.6000951485437804, 13.636750593185466 1.3953712810889076 C15.11553424928512 1.1906474136340348, 14.589612372544451 -0.4797022401989353, 14.711015318793102 -0.5682086653789984" stroke="#5f3dc4" stroke-width="1" fill="none"></path></g><g transform="translate(384.75063638969885 308.25) rotate(0 11 11)"><path d="M15.341204825229841 1.8028271128063817 C17.58568214852902 2.49230895153463, 20.55049381836995 4.0860263922578985, 21.599942790470323 5.987199009717179 C22.649391762570694 7.88837162717646, 22.23611583240153 10.768634855736172, 21.637898657832075 13.209862817562069 C21.03968148326262 15.651090779387966, 20.037300060161577 19.192017162082962, 18.0106397430536 20.634566780672557 C15.98397942594562 22.077116399262152, 12.046046453779686 22.000210215401534, 9.477936755184208 21.86516052909964 C6.90982705658873 21.730110842797746, 4.069906417030363 21.346835161670807, 2.6019815514807334 19.82426866286119 C1.1340566859311039 18.301702164051573, 0.6570730686538155 15.209460102253958, 0.6703875618864306 12.729761536241938 C0.6837020551190456 10.250062970229918, 1.609739239103405 6.898717754454838, 2.6818685108764235 4.94607726678907 C3.753997782649442 2.993436779123302, 4.837064635911528 1.4463352747707425, 7.103163192524541 1.0139186102473285 C9.369261749137554 0.5815019457239146, 14.483813307899387 2.08749553450389, 16.2784598505545 2.351577279648586 C18.073106393209613 2.6156590247932816, 17.840836530411448 2.6421413762624426, 17.87104244845522 2.598409081115504 M11.896851587886438 -0.9760176194535966 C14.281469186876675 -1.0285603776578862, 18.455867491047734 0.6092541929048703, 19.899139329385815 2.665799879814821 C21.342411167723895 4.722345566724771, 20.695399747695696 8.549434282104732, 20.55648261791493 11.363256502006106 C20.417565488134166 14.17707872190748, 20.305478927660914 17.61330935106968, 19.065636550701214 19.548733199223065 C17.825794173741514 21.48415704737645, 15.201249345795176 22.73231896213981, 13.117428356156726 22.97579959092641 C11.033607366518275 23.21928021971301, 8.54481475705916 22.30866066332985, 6.5627106128705055 21.009616971942656 C4.58060646868185 19.71057328055546, 2.23007604847799 17.577903890277085, 1.2248034910247938 15.181537442603254 C0.21953093357159736 12.785170994929425, -0.05161374711693778 8.89807100731217, 0.5310752681513264 6.631418285899679 C1.1137642834195907 4.364765564487188, 2.6231466229197182 2.446899034198276, 4.720937582634379 1.5816211141283087 C6.8187285423490405 0.7163431940583415, 11.913282928314226 1.4253171580440773, 13.117821026439293 1.4397507654798751 C14.32235912456436 1.454184372915673, 11.867655681677503 1.8147238239909698, 11.94816617138478 1.6682227587430951" stroke="none" stroke-width="0" fill="#7950f2"></path><path d="M8.63266808418443 -0.5480434799830647 C10.828184371531735 -1.309209719501176, 14.906848704415692 -0.4067794223429986, 16.960956951403794 0.7669151051845393 C19.015065198391895 1.9406096327120772, 20.093129345184185 4.160767542118647, 20.95731756611304 6.494123685182163 C21.821505787041897 8.827479828245679, 22.950097927580675 12.40248163518569, 22.146086276976927 14.767051963565635 C21.34207462637318 17.13162229194558, 18.293730657250244 19.569146783713798, 16.133247662490547 20.681545655461825 C13.972764667730852 21.793944527209852, 11.252111202551339 21.69361294107891, 9.183188308418753 21.4414451940538 C7.114265414286168 21.189277447028687, 5.38045146520576 20.948128246886604, 3.7197102976950323 19.16853917331116 C2.0589691301843045 17.388950099735716, -0.7021086628722033 13.18340077739549, -0.7812586966456116 10.763910752601127 C-0.86040873041902 8.344420727806764, 1.4827801241938676 6.335141523193764, 3.244810095054582 4.651599024544973 C5.006840065915297 2.9680565258961824, 8.762598188701027 1.5164082703125037, 9.790921128518676 0.6626557607083843 C10.819244068336324 -0.19109674889573525, 9.649697490485552 -0.626071126967144, 9.414747733960471 -0.47091603307974417 M6.997302446090134 1.886392635606077 C9.100459083220084 0.9163000319610578, 12.162397184461337 -1.1625815878941927, 14.243860012245403 -0.7162717403444674 C16.325322840029468 -0.26996189279474203, 17.96307512066178 2.4871093394812336, 19.486079412794524 4.564251720904429 C21.009083704927267 6.641394102327625, 23.51177476065219 9.533114189974588, 23.381885765041865 11.746582548194706 C23.25199676943154 13.960050906414823, 20.77710897057155 16.098121223890914, 18.706745439132572 17.84506187022513 C16.636381907693593 19.592002516559347, 13.268791607366692 21.897432022611202, 10.959704576407988 22.22822642620001 C8.650617545449284 22.559020829788818, 6.839513475211859 21.113070537292447, 4.852223253380348 19.829828291757973 C2.864933031548837 18.5465860462235, -0.4522977811882658 16.599874217827416, -0.9640367545810804 14.528772952993158 C-1.475775727973895 12.457671688158898, 0.7302712169678867 9.47620155705458, 1.7817894130234606 7.403220702752416 C2.833307609079035 5.330239848450253, 4.309039330575147 3.0856182079442234, 5.345072421752363 2.0908878271801754 C6.381105512929579 1.0961574464161274, 7.456169012672579 1.5774280787365376, 7.997987960086756 1.4348384181681286" stroke="#5f3dc4" stroke-width="1" fill="none"></path></g><g transform="translate(332.75063638969885 426.25) rotate(0 11 11)"><path d="M10.95100216092139 0.8589100124012923 C13.270939892225627 0.6355585518935962, 17.16443686811019 1.2028986877106507, 19.06558852946163 2.5380800077521846 C20.966740190813066 3.8732613277937187, 22.052497826330956 6.5757715990902526, 22.357912129030026 8.869997932650495 C22.663326431729097 11.164224266210738, 22.367824674170706 14.303162331899236, 20.89807434565605 16.303438009113638 C19.428324017141392 18.303713686328038, 15.849851758104226 20.20645464146881, 13.539410157942088 20.871651995936908 C11.22896855777995 21.536849350405006, 9.255919511055305 21.19652584854051, 7.035424744683224 20.294622135922225 C4.814929978311143 19.39271842330394, 1.4148168592982822 17.371793477197304, 0.21644155970960277 15.460229720227204 C-0.9819337398790766 13.548665963257104, -0.9388634732371041 11.104872705104176, -0.15482705284885157 8.825239594101625 C0.6292093675394009 6.545606483099073, 2.7690143099189757 3.3204897465302023, 4.9206600820391175 1.7824310542118962 C7.072305854159259 0.24437236189359024, 11.219613258665268 -0.03730593628262824, 12.755047579871999 -0.4031125598082106 C14.29048190107873 -0.7689191833337929, 14.339676018035613 -0.5166233633994555, 14.133266009279502 -0.41240868694159794 M10.96180177544802 -0.00037642525127701276 C13.26432635405992 -0.022407648645013545, 16.685326397787858 2.328870799590918, 18.517771937485712 4.117771549341397 C20.350217477183566 5.906672299091875, 21.54271996927624 8.744578157346808, 21.956475013635142 10.733028073251596 C22.370230057994043 12.721477989156384, 22.607521787598124 14.306532221313887, 21.00030220363911 16.048471044770128 C19.393082619680094 17.79040986822637, 15.013762572459974 20.357186618443002, 12.313157509881062 21.184661013989043 C9.61255244730215 22.012135409535084, 6.686428861174979 21.82262808688816, 4.796671828165639 21.01331741804637 C2.9069147951562995 20.20400674920458, 1.9233136763856566 18.676649166583232, 0.9746153118250245 16.32879700093832 C0.02591694726439242 13.980944835293409, -1.5302286614218614 9.369909920349276, -0.895518359198153 6.926204424176902 C-0.26080805697444465 4.482498928004528, 2.3702422648890273 2.640356925065592, 4.782877125167275 1.6665640239040798 C7.195511985445522 0.6927711227425677, 12.381994271476886 1.157608812583191, 13.580290802471332 1.0834470172078294 C14.778587333465778 1.009285221832468, 12.12234105373454 1.1015720070239297, 11.972656311133946 1.2215932516519104" stroke="none" stroke-width="0" fill="#7950f2"></path><path d="M16.974134312382404 1.5852056946754214 C19.32541177938498 2.3176821269217727, 21.34035867341273 4.389633729047068, 22.146724468623283 6.534603076860226 C22.953090263833836 8.679572424673385, 22.573854606463648 12.150329975049852, 21.81232908364573 14.455021781554372 C21.05080356082781 16.759713588058894, 19.592080793889004 19.12315563991681, 17.57757133171576 20.36275391588735 C15.563061869542516 21.60235219185789, 12.039574257275822 22.104827431030216, 9.72527231060627 21.892611437377614 C7.410970363936718 21.68039544372501, 5.3204283992756585 20.864858838765347, 3.691759651698444 19.089457953971724 C2.0630909041212293 17.3140570691781, 0.2224865814680304 13.656626552107731, -0.04674017485701576 11.240206128615887 C-0.3159669311820619 8.823785705124042, 0.46676742472203103 6.5783948638303755, 2.0763991137481668 4.5909354130206514 C3.6860308027743027 2.6034759622109274, 6.925014201215722 -0.23790075247530834, 9.611049959299798 -0.684550576242458 C12.297085717383874 -1.1312004000096076, 16.356674406202323 0.8972170773667683, 18.19261366225262 1.9110364704177538 C20.028552918302914 2.924855863468739, 20.6580376368688 4.968525990107979, 20.626685495601578 5.398365782063455 M9.941174505415297 0.9879451192173718 C12.297245141531723 0.6008644603789004, 15.555231226617428 0.8269166867985132, 17.57708218313907 2.01403272674607 C19.59893313966071 3.2011487666936267, 21.47208934902449 5.817861058093163, 22.072280244545144 8.110641358902711 C22.6724711400658 10.40342165971226, 22.26526109680778 13.769763434135008, 21.17822755626299 15.770714531603364 C20.091194015718198 17.77166562907172, 18.040269882341466 19.115531354641305, 15.550079001276398 20.116347943712842 C13.05988812021133 21.11716453278438, 8.797427507585638 22.593019998082834, 6.237082269872577 21.775614066032585 C3.6767370321595148 20.958208133982335, 1.1685281932994225 17.341047177912362, 0.188007574998025 15.211912351411339 C-0.7925130433033724 13.082777524910318, -0.47459059108751145 11.029160127937029, 0.3539585600641928 9.000805107026457 C1.182507711215897 6.972450086115884, 3.22842713332241 4.343456977321334, 5.1593024819082505 3.0417822259479 C7.090177830494091 1.740107474574466, 10.902102934424676 1.5590337809094967, 11.939210651579236 1.1907565987858533 C12.976318368733796 0.8224794166622098, 11.472439339949217 0.8775949253818242, 11.381948784835618 0.8321191332060387" stroke="#5f3dc4" stroke-width="1" fill="none"></path></g><g><g stroke-opacity="0.7" fill-opacity="0.7" transform="translate(457.5897509532078 293.2020484561468) rotate(0 -29.281920684299905 -67.56846328649647)"><path d="M-1.2650472819805145 -1.0973484814167023 C-10.196117700674833 -30.55668421549157, -24.110813622416508 -56.87981129160519, -57.298794086619296 -134.03957809157623" stroke="#ffffff" stroke-width="1.5" fill="none" stroke-dasharray="3 6"></path></g></g><g><g transform="translate(586.8899466006421 585.6942787855863) rotate(0 -58.864784123607194 -133.47560622188433)"><path d="M-0.09780071801276165 0.010162646553768718 C-28.863744279693005 -66.49203094889673, -58.14956874247681 -136.005008758412, -117.63176752920157 -266.9896772640506 M-0.21658771382200498 0.5455937588446163 C-26.542459646024216 -64.23252316263847, -55.62356616393423 -128.0127692830568, -116.99690816959158 -267.49680620261324" stroke="#ffffff" stroke-width="1" fill="none"></path></g></g><g><g transform="translate(293.5414769260548 189.72966957390304) rotate(0 -46.833883598446846 -63.92692610174413)"><path d="M-0.4877798855304718 -1.6228544414043427 C-24.639149768777518 -32.049373403288, -49.44912925912261 -65.43771096699362, -93.17998731136322 -125.08581863939753 M-0.8933502286672592 -0.9088879972696304 C-21.427645451785978 -29.228359577302623, -42.4716702131267 -59.444154070271956, -92.91949672996998 -126.94496420621863" stroke="#ffffff" stroke-width="1" fill="none"></path></g></g><g><g stroke-opacity="0.7" fill-opacity="0.7" transform="translate(385.01774651186537 312.89781852636463) rotate(0 -43.25594633611246 -59.76070193026192)"><path d="M0.9235207736492157 -0.7287351787090302 C-20.57026740828907 -29.332413478257187, -39.84933036870167 -55.71895232206996, -87.43541344587413 -118.7926686818148" stroke="#ffffff" stroke-width="1.5" fill="none" stroke-dasharray="3 6"></path></g></g><g><g stroke-opacity="0.7" fill-opacity="0.7" transform="translate(331.0942257382159 428.62655370507366) rotate(0 -130.92832289601358 -73.9649807309275)"><path d="M-0.5077430595897213 0.790763309083835 C-89.28405025839245 -50.65670370863753, -179.73945911373755 -103.09278415914864, -261.3489027324374 -148.72072477093877" stroke="#ffffff" stroke-width="1.5" fill="none" stroke-dasharray="3 6"></path></g></g><g><g transform="translate(170.78611121209445 165.07194303121764) rotate(180 23.703455521846138 23.51226053943219)"><path d="M0.9434828102588655 0.45873400568962097 C8.750575475756364 8.327035300726426, 39.67342340978005 38.71263881919152, 47.42723848738692 46.41849504586895 M-0.020327443694695857 -0.3460345866624266 C7.6781382210536915 7.698313548028825, 39.19170502434627 39.38445554528563, 47.08251706169903 47.37055566552681" stroke="#f2aa74" stroke-width="4" fill="none"></path></g><g transform="translate(170.78611121209445 165.07194303121764) rotate(180 23.703455521846138 23.51226053943219)"><path d="M20.714612783106855 36.4862777914806 C27.469079552926388 40.80169649728296, 37.38976795168105 43.74911094497236, 45.79329127477467 47.15259503963989 M19.536198512825063 35.25103701911408 C26.2672198908224 37.11605623055585, 32.898625187487546 40.327275207773916, 46.93980576502144 46.553553741608084" stroke="#f2aa74" stroke-width="4" fill="none"></path></g><g transform="translate(170.78611121209445 165.07194303121764) rotate(180 23.703455521846138 23.51226053943219)"><path d="M35.2898221220798 22.040403809233794 C36.8663102450079 31.508034341416916, 41.70428002934226 39.49306511992668, 45.79329127477467 47.15259503963989 M34.111407851798006 20.80516303686727 C37.26050907224598 26.0127435514385, 40.37737387226374 32.707316210878794, 46.93980576502144 46.553553741608084" stroke="#f2aa74" stroke-width="4" fill="none"></path></g></g><g><g transform="translate(1171.9934220322723 583.412509453857) rotate(0 72.12731816096084 -0.31617851909715)"><path d="M0.29641787409782405 -0.41279942393302915 C24.4528160591217 -0.43305222392082204, 121.23419092659758 0.8450073540210725, 145.26173779326209 1.0427660286426546 M-1.0071014713402837 -1.675123066836968 C23.046895556364046 -1.501640838617459, 120.68607771588408 -0.6177869968954474, 144.81717117722795 -0.5323565550986677" stroke="#d9480f" stroke-width="4" fill="none"></path></g><g transform="translate(1171.9934220322723 583.412509453857) rotate(0 72.12731816096084 -0.31617851909715)"><path d="M115.87032277064672 11.137604179595158 C127.43765674056245 6.441531232191187, 136.2284110199244 4.571884166354722, 146.5741441756086 -1.6887517222110182 M117.13816618101946 9.206866281841442 C123.65453614727404 5.896518650130637, 132.8686528950628 4.078310212428404, 145.5356211423473 -0.23409027838148178" stroke="#d9480f" stroke-width="4" fill="none"></path></g><g transform="translate(1171.9934220322723 583.412509453857) rotate(0 72.12731816096084 -0.31617851909715)"><path d="M116.00772815945574 -9.383144397027621 C127.72923765174461 -7.369706940595807, 136.4750678268368 -2.53018301437349, 146.5741441756086 -1.6887517222110182 M117.27557156982847 -11.313882294781337 C123.70060742006335 -8.827439543453037, 132.87591478305657 -4.849677133824469, 145.5356211423473 -0.23409027838148178" stroke="#d9480f" stroke-width="4" fill="none"></path></g></g><g transform="translate(1326.7444571228316 546.361454403715) rotate(0 22.378089633433774 22.378089633433774)"><path d="M32.642099921592006 2.957711058716882 C36.775744698264276 4.479242245158382, 40.21278779004602 8.412916839531162, 42.06383161515567 12.707711576071777 C43.91487544026532 17.00250631261239, 44.787784022312565 24.11892749084616, 43.748362872249885 28.72647947796057 C42.708941722187205 33.33403146507498, 39.85907219235455 37.799925956982975, 35.82730471477957 40.35302349875822 C31.795537237204595 42.90612104053346, 24.378128948445053 44.33258196254747, 19.557758006800018 44.04506472861202 C14.737387065154984 43.757547494676565, 10.030164621805715 41.85744842176508, 6.90507906490936 38.6279200951455 C3.7799935080130047 35.39839176852592, 1.3522901726495933 29.512295871535972, 0.8072446654218837 24.667894768894545 C0.26219915819417405 19.823493666253118, 0.8911962906176591 13.506045092874182, 3.6348060215431026 9.561513479296934 C6.3784157524685465 5.616981865719687, 12.017486468571196 1.8625909660974957, 17.268903050974544 1.000705087431065 C22.52031963337789 0.13881920876463438, 31.72174749549694 3.3714534281361477, 35.143305515963185 4.390198207298351 C38.564863536429435 5.408942986460554, 37.96970447676921 6.773500122480134, 37.79825117377203 7.113173762404285 M16.270595396321436 0.24527311021039822 C20.967193353825564 -1.2034870857209408, 28.538684024451836 0.6422160720847876, 32.834254519662856 2.4917457039703343 C37.12982501487387 4.341275335855881, 40.137837692977676 6.945913977979701, 42.044018367587555 11.342450901523678 C43.95019904219743 15.738987825067657, 45.30297391745003 24.238269152257057, 44.27133856732213 28.8709672452342 C43.23970321719423 33.50366533821134, 40.039429726530344 36.65356989018651, 35.85420626682017 39.13863945938653 C31.668982807109998 41.62370902858655, 23.89732039777647 44.13500331444723, 19.159997809061096 43.78138466043431 C14.422675220345724 43.42776600642139, 10.407107663323337 40.35010439461423, 7.430270734527937 37.01692753530904 C4.453433805732537 33.68375067600385, 1.7879751291656394 28.52073010734586, 1.298976236288695 23.782323504603188 C0.8099773434117505 19.043916901860516, 1.8522208532517204 12.428271268263838, 4.496277377266271 8.586487918853017 C7.140333901280821 4.744704569442195, 15.194237510408612 2.0772193263319734, 17.163315380375998 0.7316234081382547 C19.132393250343384 -0.6139725100554643, 16.097963733368495 0.17986569833179072, 16.31074459707058 0.5129124096907027" stroke="#d9480f" stroke-width="1" fill="none"></path></g><g transform="translate(1338.6794382606633 543.875) rotate(0 9.945817614859493 22.875380514176754)"><text x="9.945817614859465" y="31.750761028353523" font-family="Virgil, Segoe UI Emoji" font-size="35.80494341349405px" fill="#d9480f" text-anchor="middle" style="white-space: pre;" direction="ltr">x</text></g><g><g transform="translate(1167.8896613115455 62.34092048997695) rotate(180 0.20373948728524738 258.41685389750467)"><path d="M0.641989928483963 0.6958378493785857 C0.6868616402149095 86.81087100744811, 1.0849285423755117 429.9488499760909, 0.7888273537158332 515.7610083783011 M-0.4801040884014218 0.015548774963244805 C-0.5696960168238834 86.33620808787278, -0.01910284182993366 430.76990299502415, 0.2549162507894749 516.8181590200461" stroke="#f2aa74" stroke-width="4" fill="none"></path></g><g transform="translate(1167.8896613115455 62.34092048997695) rotate(180 0.20373948728524738 258.41685389750467)"><path d="M-8.908663918626479 489.9649946731108 C-8.267196226008084 496.3740500943134, -5.043573299604737 509.61540344894803, 1.991631358945679 517.7931448281802 M-11.011724089634589 489.1474799406308 C-6.894516262504142 496.46202187593104, -3.521983313386836 503.51817192720586, -0.379380300557304 516.6893289596833" stroke="#f2aa74" stroke-width="4" fill="none"></path></g><g transform="translate(1167.8896613115455 62.34092048997695) rotate(180 0.20373948728524738 258.41685389750467)"><path d="M11.612493873853877 489.9193302234626 C5.208699492633921 496.4538487109938, 1.387413936665606 509.7108786600936, 1.991631358945679 517.7931448281802 M9.509433702845767 489.1018154909826 C7.9424880809775384 496.59986815632675, 5.63071732922442 503.6686671332985, -0.379380300557304 516.6893289596833" stroke="#f2aa74" stroke-width="4" fill="none"></path></g></g><g transform="translate(1113.250636389699 11.5) rotate(0 22.5 22.5)"><path d="M17.081938727984724 0.8510951919892022 C21.5234820666846 -0.6746849654200446, 28.447588486958406 -0.7685712674455925, 32.686333854352675 1.5259385001264256 C36.92507922174695 3.8204482676984437, 40.687283498950734 9.896136398439484, 42.514410932350344 14.61815379742131 C44.341538365749955 19.340171196403137, 44.96896633233064 25.56061841436439, 43.64909845475036 29.858042894017377 C42.32923057717008 34.15546737367036, 38.70979669475498 37.92890996584398, 34.59520366686869 40.40270067533922 C30.480610638982405 42.87649138483446, 23.57113878947083 45.15337695895885, 18.961540287432648 44.700787150988816 C14.351941785394466 44.24819734301878, 10.179271323858966 41.129537846927434, 6.937612654639601 37.687161827519 C3.695953985420236 34.244785808110564, -0.15968559814321576 28.79625981691349, -0.48841172788354115 24.04653103453821 C-0.8171378576238666 19.296802252162927, 1.7496952917255602 13.144165699483777, 4.965255876197649 9.188789133267314 C8.180816460669737 5.23341256705085, 16.006547773445853 1.6066402782356697, 18.80495177894899 0.31427163723942897 C21.603355784452127 -0.9780970037568117, 21.80472049260349 0.964027129058054, 21.755679909216465 1.4345772872898692 M25.599387860786806 0.07766874009522695 C29.808472403152013 0.7835602671863455, 35.20748817888223 4.195954962623745, 38.33935104048395 7.9792083077326375 C41.471213902085665 11.76246165284153, 43.98451741811596 18.07963740009933, 44.390565030397134 22.777188810748587 C44.796612642678305 27.474740221397845, 43.80199718397091 32.34968237306913, 40.77563671417096 36.164516771628186 C37.749276244371 39.97935117018724, 31.392693038843767 44.6841644690066, 26.232402211597407 45.66619520210291 C21.072111384351047 46.64822593519922, 13.732392020415956 44.451548794916214, 9.813891750692799 42.056701170206026 C5.895391480969641 39.66185354549584, 4.234460960722119 35.772803253364, 2.7214005932584655 31.297109453841795 C1.2083402257948117 26.82141565431959, -0.44393253647875763 19.89997305361869, 0.7355295459108753 15.202538373072791 C1.9149916283005082 10.505103692526891, 5.627446017999124 5.351056015193825, 9.798173087596263 3.112501370566399 C13.968900157193403 0.8739467259389735, 22.91272225535555 1.997841322585905, 25.759891963493708 1.7712105053082396 C28.607061671631865 1.5445796880305742, 26.84701644807582 1.8137849658436807, 26.881191336425196 1.7527164669004058" stroke="#f2aa74" stroke-width="1" fill="none"></path></g><g transform="translate(1123.250636389699 10) rotate(0 11 23)"><text x="11" y="32" font-family="Virgil, Segoe UI Emoji" font-size="36px" fill="#f2aa74" text-anchor="middle" style="white-space: pre;" direction="ltr">w</text></g><g><g transform="translate(877.7506363896989 332.25) rotate(0 299.29675716757777 -0.40412353119998556)"><path d="M-0.26111267805099486 0.6299178004264832 C164.4393949404359 -1.9887923522591593, 328.68083273470404 -1.3065013213753702, 598.3966834187507 0.5053065180778503 M-0.3166975557804108 -0.10771507620811463 C153.2492497846484 -2.14359607475996, 306.9442437559366 -1.735000989615917, 598.9102118909359 0.2381873667240143" stroke="#5f3dc4" stroke-width="1" fill="none"></path></g></g><g transform="translate(886.2506363896989 342.25) rotate(0 43.5 23)"><text x="0" y="32" font-family="Virgil, Segoe UI Emoji" font-size="36px" fill="#5f3dc4" text-anchor="start" style="white-space: pre;" direction="ltr">w = 1</text></g><g><g transform="translate(1167.6977339027785 578.6940538674592) rotate(0 -72.30765257729274 -162.37501759887198)"><path d="M-1.246120430504267 -0.5851735584513219 C-43.127443792823854 -97.39634925761692, -86.29531644414686 -194.54408704315125, -144.88955920213596 -325.03316465868573 M0.2742540475505833 0.5075305597102536 C-39.566491183089354 -87.95817424344006, -79.53840606347846 -176.01439047442688, -143.8477725440996 -325.25756575745413" stroke="#ffffff" stroke-width="1" fill="none"></path></g></g><g><g transform="translate(1168.7471701677796 580.0204301083503) rotate(0 13.913200684858452 -224.31018235966064)"><path d="M-0.6394726912321714 0.1625370193044314 C11.284939823360121 -169.25387656184762, 21.49289440783501 -337.12609994057317, 28.465874060949172 -448.67685738638494 M0.46203887801699695 0.07279228114838093 C10.911028968535572 -156.73473271772954, 21.069298895107067 -313.6507645915508, 28.154663385922834 -448.7829017386257" stroke="#ffffff" stroke-width="1" fill="none"></path></g></g><g><g transform="translate(1172.9303190145126 570.4734701546525) rotate(0 64.95535291029944 -195.50911419875013)"><path d="M0.5108307544611252 -0.712596628430068 C46.21142130973424 -137.12394772372593, 93.27433860578569 -275.9591750039853, 129.3096590809279 -390.1769529728926 M0.49928230774788157 -0.3753299926703515 C31.912578851757335 -88.71460908912697, 61.661787706235266 -177.18399660442745, 129.41142351285094 -390.6428984048299" stroke="#ffffff" stroke-width="1" fill="none"></path></g></g><g transform="translate(1156.750636389699 568.25) rotate(0 11 11)"><path d="M14.518538193212898 0.08944972651810623 C16.61431780684029 1.058794282227816, 19.54323149434297 4.48452980378368, 20.83360498424892 6.527974159749307 C22.123978474154875 8.571418515714933, 22.780942990384816 10.333737489063285, 22.26077913264862 12.35011586231187 C21.74061527491242 14.366494235560456, 19.5305165815632 16.97445386949369, 17.712621837831737 18.626244399240814 C15.89472709410027 20.27803492898794, 13.765250529445254 22.04870018405871, 11.353410670259821 22.260859040794614 C8.941570811074389 22.473017897530518, 5.255708289862544 21.450418375508388, 3.241582682719139 19.899197539656235 C1.2274570755757344 18.347976703804083, -0.37859294809402905 15.352916051608783, -0.7313429726006078 12.953534025681698 C-1.0840929971071864 10.554151999754612, -0.16528416446122107 7.437304252363692, 1.1250825356796668 5.5029053840937205 C2.415449235820555 3.5685065158237492, 4.156187842107466 1.8493066699144944, 7.01085722824472 1.34714081606187 C9.865526614381974 0.8449749622092458, 16.203995266150105 1.762958519961522, 18.253098852503193 2.4899102609779753 C20.30220243885628 3.2168620019944285, 19.634822430746276 5.5104268001988475, 19.305478746363242 5.708851262160589 M14.639702613904339 1.5090313512188764 C16.71540928515377 2.3542874608155437, 19.721088564593153 5.453736360936697, 20.742215885150674 7.489671862412479 C21.763343205708196 9.52560736388826, 21.492518677694513 11.587693737955515, 20.766466537249464 13.724644360073569 C20.040414396804415 15.861594982191622, 18.45339773933444 18.948415017614284, 16.385903042480376 20.3113755951208 C14.31840834562631 21.674336172627317, 10.710526654632305 22.410209423096678, 8.36149835612507 21.90240782511266 C6.0124700576178345 21.394606227128644, 3.892812534171189 18.933460689779515, 2.291733251436961 17.2645660072167 C0.6906539687027324 15.595671324653887, -1.1291528979046062 14.019151806844343, -1.2449773402803004 11.889039729735781 C-1.3608017826559946 9.75892765262722, -0.11832403462128926 6.514826243757172, 1.5967865971827955 4.483893544565333 C3.31189722898688 2.4529608453734952, 6.819222265600404 0.47975633868772183, 9.045686450544208 -0.2965564654152484 C11.272150635488012 -1.0728692695182187, 14.005481423748797 -0.35251917158077306, 14.955571706845621 -0.17398328005248764 C15.905661989942445 0.0045526114757977465, 14.601363653832092 0.2110091852140652, 14.746228149125155 0.7746588837544639" stroke="none" stroke-width="0" fill="#ffffff"></path><path d="M6.894964760804888 0.06527193618782867 C9.006931712336439 -0.6585481922868673, 11.77962594165009 -0.06398060709231124, 14.027359440914118 0.9367232619080088 C16.275092940178144 1.9374271309083289, 18.93335880291024 4.101009782908987, 20.38136575638905 6.069495150189749 C21.82937270986786 8.037980517470512, 22.98931478689217 10.698231050812872, 22.715401161786986 12.747635465592584 C22.4414875366818 14.797039880372296, 20.70244338094605 16.732905964269616, 18.737884005757948 18.365921638868016 C16.773324630569846 19.998937313466417, 13.510521899290943 22.426870740587574, 10.928044910658368 22.545729513182984 C8.345567922025793 22.664588285778393, 4.883987990389657 20.66583908235879, 3.2430220739625026 19.079074274440483 C1.6020561575353482 17.492309466522176, 1.418141857653706 15.09162314999655, 1.0822494120954413 13.02514066567314 C0.7463569665371768 10.95865818134973, 0.017750644470774235 8.829249795754167, 1.2276674006129156 6.680179368500018 C2.437584156755057 4.5311089412458685, 6.594808270687384 1.1686036328587115, 8.341749948948289 0.13071810214824175 C10.088691627209194 -0.907167428562228, 11.446741691278252 0.21609177153055784, 11.709317470178345 0.45286618423719993 M15.370384924900744 0.8312051559948976 C17.5064092246235 1.4881223234263192, 18.933120842211764 4.3810454245128, 20.251291992037963 6.389492977292826 C21.569463141864162 8.397940530072852, 23.627892427564735 10.524004127484734, 23.279411823857934 12.881890472675048 C22.930931220151134 15.239776817865362, 20.41513663099386 19.202351604183608, 18.16040836979716 20.53681104843471 C15.90568010860046 21.871270492685813, 11.95203983538263 21.2387676998472, 9.751042256677735 20.888647138181657 C7.55004467797284 20.538526576516112, 6.594599174399701 19.847273779612536, 4.9544228975677935 18.43608767844145 C3.3142466207358865 17.024901577270363, 0.7010318849360099 14.746899828090639, -0.09001540431370536 12.42153053115513 C-0.8810626935634206 10.09616123421962, -1.2815319304291888 6.643441287158573, 0.2081391620695019 4.483871896828393 C1.6978102545681926 2.3243025064982126, 6.331206811109579 0.20481958875662987, 8.848011150678438 -0.5358858108259508 C11.364815490247297 -1.2765912104085313, 14.142140123760923 -0.08076159363997999, 15.308965199482651 0.03963949933290856 C16.475790275204382 0.1600405923057971, 16.169689254601373 -0.2860975158880977, 15.84896160500881 0.18652074701138055" stroke="#ffffff" stroke-width="1" fill="none"></path></g><g transform="translate(1106.250636389699 562) rotate(0 22.5 22.5)"><path d="M13.403104125847909 1.8390096213241094 C17.709609251195175 -0.29332732688438545, 24.96701759440454 -0.6139061500100038, 29.518997640094398 0.6516176713080846 C34.07097768578426 1.917141492626173, 38.300337887983375 5.381904493671324, 40.714984399987074 9.43215254923264 C43.12963091199077 13.482400604793956, 44.47291436438633 19.904848514155674, 44.006876712116615 24.95310600467598 C43.5408390598469 30.001363495196287, 41.29998698932223 36.41919925426221, 37.918758486368816 39.72169749235447 C34.5375299834154 43.024195730446735, 28.643737793869978 44.698750504570214, 23.719505694396158 44.76809543322953 C18.79527359492234 44.83744036188885, 12.338352196820182 42.98448244882102, 8.373365889525903 40.13776706431039 C4.408379582231625 37.29105167979976, 0.8574024642999589 32.44732219358187, -0.0704121493695169 27.68780312616574 C-0.9982267630389927 22.928284058749615, 0.041755276756582305 16.160594649109235, 2.8064782075090484 11.580652659813632 C5.5712011382615145 7.0007106705180275, 14.110141317530696 2.15328081659187, 16.51792543514528 0.20815119039211538 C18.925709552759862 -1.7369784358076392, 17.32784102606753 -0.42786751421191305, 17.253182913196554 -0.09012509738489527 M30.660180566651913 2.6430111193990626 C35.19906895758453 3.839012001167, 40.030084524176175 6.00927162527576, 42.562407659558666 9.908020984279041 C45.09473079494116 13.806770343282322, 46.62006363168239 21.042397930050903, 45.85411937894685 26.035507273418744 C45.088175126211304 31.028616616786586, 41.603071680217035 36.78370421736886, 37.96674214314541 39.86667704448608 C34.330412606073786 42.949649871603306, 28.942177708752364 44.31753797170932, 24.036142156517094 44.53334423612209 C19.130106604281824 44.74915050053486, 12.476664374105084 44.276855400203154, 8.530528829733797 41.1615146309627 C4.584393285362509 38.046173861722245, 1.2922838791339064 30.98616079841566, 0.359328890289369 25.84129962067935 C-0.5736260985551684 20.69643844294304, 0.548488058716992 14.310518424243227, 2.932798896666572 10.29234756454483 C5.317109734616152 6.274176704846432, 10.364184706130875 3.398263680613539, 14.66519391798685 1.732274462488963 C18.966203129842825 0.0662852443643871, 26.392224814140533 0.5260680793481208, 28.738854167802423 0.2964122557973745 C31.08548352146431 0.06675643224662822, 28.484443854317217 -0.037386249631165824, 28.744970039958186 0.3543395211844853" stroke="#1864ab" stroke-width="1" fill="none"></path></g><g transform="translate(1118.750636389699 559.5) rotate(0 8.5 23)"><text x="8.5" y="32" font-family="Virgil, Segoe UI Emoji" font-size="36px" fill="#1864ab" text-anchor="middle" style="white-space: pre;" direction="ltr">y</text></g><g transform="translate(1296.750636389699 170.25) rotate(0 7 7)"><path d="M5.616425972369993 0.9050902625442596 C6.817771937596007 0.32036884054313775, 7.941349649457321 -0.4284973788328867, 9.314785294277508 0.016725525064172686 C10.688220939097695 0.46194842896123206, 12.98816584193716 1.9512453163980223, 13.857039841291115 3.5764276859266158 C14.72591384064507 5.201610055455209, 15.188803255620316 8.34894993714713, 14.528029290401236 9.767819742235734 C13.867255325182155 11.186689547324336, 11.258368496901378 11.400374778777914, 9.892396049976632 12.089646516458231 C8.526423603051887 12.778918254138548, 7.663882428650101 14.125006083981493, 6.332194608852759 13.90345016831763 C5.000506789055416 13.681894252653766, 2.9901306852239546 11.724250635440677, 1.9022691311925781 10.760311022475056 C0.8144075771612018 9.796371409509435, -0.20531518641588806 9.520068666474247, -0.1949747153354986 8.119812490523906 C-0.18463424425510913 6.719556314573564, 0.9381079009238744 3.8497793596160728, 1.9643119576749148 2.358773966773011 C2.990516014425955 0.8677685739299499, 5.184079814715048 -0.4397402874617393, 5.9622496251707435 -0.826219866534462 C6.740419435626439 -1.2126994456071847, 6.613075787290964 -0.3671050938366404, 6.6333308204090855 0.03989649233667514 M6.903203851975612 0.25130753682013385 C8.163041869285065 -0.11591042346085462, 10.255303443619274 -1.0238491217897256, 11.490063468737022 -0.012777271524451628 C12.72482349385477 0.9982945787408224, 14.029845800996158 4.830399970328584, 14.311764002682096 6.317738638411778 C14.593682204368035 7.805077306494972, 13.988518547631731 7.748128793767091, 13.18157267885265 8.911254736974712 C12.374626810073568 10.074380680182333, 10.952585789271193 12.671936021358647, 9.470088790007603 13.296494297657503 C7.987591790744012 13.92105257395636, 5.864268084312819 13.15028916317118, 4.286590683271105 12.658604394767853 C2.708913282229391 12.166919626364525, 0.4739770416722123 11.50009712685582, 0.004024383757320393 10.346385687237536 C-0.4659282741575715 9.192674247619252, 1.0726216769648895 6.894042728791341, 1.4668747357817535 5.736335757058143 C1.8611277945986175 4.578628785324945, 1.7451766933543653 4.214833525027122, 2.369542736658505 3.400143856838345 C2.9939087799626445 2.585454188649568, 4.3843766136181115 1.5281009767413125, 5.213070995606592 0.8481977479254805 C6.041765377595072 0.16829451910964843, 7.392885414410915 -0.8323193780392123, 7.341709028589388 -0.6792755160566477" stroke="#ffffff" stroke-width="1" fill="none"></path></g><g transform="translate(1189.750636389699 125.25) rotate(0 7 7)"><path d="M9.471388640910183 0.6357548069427645 C10.714644533497047 1.1164691357838639, 12.04363947299154 1.9493871045887237, 12.611852430708579 3.211594970891949 C13.180065388425618 4.473802837195175, 12.975008604962841 6.71881948019868, 12.880666387212415 8.209002004762116 C12.786324169461988 9.699184529325551, 13.067496143891827 11.053008077273969, 12.045799124206013 12.152690118272563 C11.0241021045202 13.252372159271157, 8.521217596569773 14.742260223837322, 6.75048426909753 14.807094250753687 C4.979750941625287 14.871928277670053, 2.4199659138841816 13.823963917968316, 1.4213991593725552 12.541694279770752 C0.42283240486092877 11.259424641573188, 0.9488179530592294 8.581364635720352, 0.7590837420277712 7.113476421568302 C0.5693495309963129 5.645588207416252, -0.48682870359166197 4.815606392930338, 0.2829938931838054 3.734364994858453 C1.0528164899592727 2.6531235967865685, 3.7894722553792386 1.0973665014191485, 5.378019322680576 0.6260280331369934 C6.966566389981913 0.15468956485483826, 8.668045111858898 0.6566817569211015, 9.814276296991826 0.9063341851655222 C10.960507482124754 1.155986613409943, 12.036009837392426 2.0304396505868323, 12.255406433478141 2.1239426026035177 M4.486262215740729 -0.08587124784545175 C5.789656734225586 -0.8263843365449527, 8.550896322939671 -1.8787149723725083, 9.892238718738717 -1.076186965837091 C11.233581114537763 -0.27365895930167383, 11.675743155898687 3.4038146910485754, 12.534316590535008 4.729296791367052 C13.39289002517133 6.054778891685528, 15.233640353388957 5.549449833732602, 15.043679326556646 6.8767056360737655 C14.853718299724335 8.203961438414929, 12.924040501431367 11.411997313228813, 11.394550429541141 12.692831605414034 C9.865060357650915 13.973665897599254, 7.549399510925709 14.827574576519948, 5.866738895215283 14.561711389185088 C4.184078279504857 14.295848201850228, 2.465894065179402 11.89413553610679, 1.2985867352785858 11.097652481404875 C0.1312794053777695 10.30116942670296, -1.057608593334385 10.817758029906035, -1.1371050841896153 9.782813060973604 C-1.2166015750448456 8.747868092041173, -0.15540559751564464 6.546683335478358, 0.8216077901472048 4.887982667810293 C1.798621177810054 3.229282000142229, 3.932157642495719 0.7020479748515326, 4.724975241787481 -0.16939094503478191 C5.517792841079244 -1.0408298649210965, 5.738858810709937 -0.3808045316019671, 5.578513385897779 -0.34065085150759344" stroke="#ffffff" stroke-width="1" fill="none"></path></g><g transform="translate(1014.7506363896989 243.25) rotate(0 7 7)"><path d="M7.9204983679740195 0.9375755019902403 C9.241013179502595 1.3866825600963066, 12.15731286478995 2.2924288248917213, 13.026428817807137 3.3928562288724025 C13.895544770824323 4.493283632853084, 13.155527227663203 6.025408632878903, 13.135194086077131 7.540139925874329 C13.11486094449106 9.054871218869755, 13.692267954613524 11.434309064842461, 12.904429968290708 12.481243986844959 C12.116591981967893 13.528178908847456, 10.19439567181071 13.71562914582192, 8.408166168140237 13.821749457889315 C6.621936664469765 13.92786976995671, 3.622561059362198 13.952717504298679, 2.187052946267876 13.117965859249328 C0.7515448331735541 12.283214214199976, 0.11144576561971603 10.256325172759038, -0.20488251042569328 8.813239587593205 C-0.5212107864711026 7.370154002427373, -0.26725733305573407 5.86932168015731, 0.2890832899954203 4.4594523482543345 C0.8454239130465747 3.0495830163513586, 1.457568856705565 0.9021659656792741, 3.133161227881233 0.3540235961753533 C4.808753599056901 -0.19411877332856753, 9.3450893953128 1.130144230044051, 10.342637517049429 1.1705981312308094 C11.340185638786059 1.2110520324175678, 9.263098606983489 0.7602510991153527, 9.118449958301012 0.5967470032959037 M7.027575278606185 1.487295192726381 C8.668556639866276 2.0999077938717807, 11.194259889999689 2.957493872341111, 12.408371913552177 3.7814026763014574 C13.622483937104665 4.605311480261804, 14.144521951747928 5.293312644560888, 14.312247419921116 6.43074801648846 C14.479972888094304 7.568183388416032, 14.597960874873438 9.538662359914774, 13.414724722591304 10.606014907866893 C12.23148857030917 11.673367455819012, 9.048109857787406 12.230525532481803, 7.212830506228309 12.834863304201168 C5.377551154669214 13.439201075920533, 3.6524683834404827 14.99434395248802, 2.40304861323673 14.232041538183088 C1.1536288430329769 13.469739123878156, 0.17712416502643674 10.001733152316042, -0.28368811499420854 8.26104881837158 C-0.7445003950148539 6.520364484427115, -0.8251123270684313 5.244936106091404, -0.36182506688714167 3.787935534516306 C0.10146219329414802 2.3309349629412077, 0.8984770102281261 0.11657400503667559, 2.4960354460935297 -0.4809546110790075 C4.093593881958933 -1.0784832271946905, 8.030261295691698 -0.006136431386323388, 9.22352554830528 0.2027638378222072 C10.416789800918863 0.41166410703073775, 9.827580496837776 0.8545143778941057, 9.655620961775028 0.772447004172176" stroke="#ffffff" stroke-width="1" fill="none"></path></g><g transform="translate(1049.750636389699 322.25) rotate(0 7 7)"><path d="M9.785566358333673 1.128293737137895 C11.260056376173665 1.3288260050221228, 11.811102780230557 2.0832236127159067, 12.464177396151879 3.211426266847403 C13.1172520120732 4.3396289209789, 13.698251629535076 6.524975129814198, 13.704014053861599 7.8975096619268745 C13.709776478188122 9.270044194039551, 13.406260182476434 10.493348112164023, 12.498751942111017 11.446633459523465 C11.5912437017456 12.399918806882907, 9.697802928482593 13.339228633750459, 8.258964611669104 13.61722174608353 C6.820126294855613 13.895214858416601, 5.205731929398672 13.962353636052102, 3.865722041230076 13.114592133521898 C2.5257121530614803 12.266830630991693, 0.7422687198686889 9.954918417840576, 0.21890528265752973 8.5306527309023 C-0.30445815455362946 7.106387043964025, 0.0617709408970426 6.043434420904422, 0.7255414179631208 4.568998011892246 C1.389311895029199 3.09456160288007, 2.647759572560701 0.41508862111183464, 4.201528145053999 -0.31596572317075644 C5.755296717547297 -1.0470200674533476, 8.825141058896893 -0.16232568744635012, 10.04815285292291 0.18267194619669969 C11.271164646948925 0.5276695798397495, 11.625654657438831 1.5809813029141784, 11.539598909210099 1.7540200786875424 M8.231131348485308 0.02245621626054639 C9.462038824297817 0.18929529295302464, 9.124990538464406 1.7064134629797745, 10.266737327962838 2.4921384013756542 C11.40848411746127 3.277863339771534, 14.415721974073492 3.221318514721231, 15.081612085475903 4.736805846635826 C15.747502196878315 6.2522931785504205, 15.158980354495606 10.29432885966057, 14.262077996377311 11.585062392863222 C13.365175638259016 12.875795926065873, 11.222126089279266 11.951773657783743, 9.700197936766136 12.481207045851733 C8.178269784253006 13.010640433919722, 6.737729431652034 15.082833660808694, 5.130509081298529 14.761662721271152 C3.5232887309450236 14.440491781733611, 0.6695237551570886 12.015115955014323, 0.05687583464510482 10.554181408626487 C-0.555772085866879 9.09324686223865, 1.0077261468263086 7.457384147139324, 1.4546215582266262 5.996055442944132 C1.9015169696269438 4.53472673874894, 1.587221532800142 2.7192633974113707, 2.738248303047011 1.7862091834553375 C3.88927507329388 0.8531549694993045, 7.706622402966595 0.7282907473450724, 8.36078217970784 0.3977301592079341 C9.014941956449086 0.0671695710707958, 6.699361932961121 -0.34260433002153545, 6.663206963494486 -0.1971543453674922" stroke="none" stroke-width="0" fill="#7950f2"></path><path d="M5.263598842232752 -0.10556317170447471 C6.557311233707938 -0.6666728134222022, 9.553558578100594 -0.504696784934798, 11.014959561259824 0.16665193575996273 C12.476360544419054 0.8380006564547234, 13.774129642226974 2.4900500882831436, 14.032004741188132 3.9225291524640893 C14.28987984014929 5.355008216645035, 13.034072050324196 7.220682133940564, 12.562210155026765 8.761526320845636 C12.090348259729334 10.302370507750709, 12.235326380710159 12.285028585296349, 11.200833369403544 13.167594273894524 C10.166340358096928 14.0501599624927, 8.048029462470485 14.24191546317498, 6.35525208718707 14.056920452434689 C4.662474711903655 13.871925441694398, 2.210112172659258 13.374348334320183, 1.0441691177030528 12.057624209452772 C-0.12177393725315255 10.74090008458536, -0.6459280611943741 7.89207304022701, -0.6404062425501618 6.156575703230216 C-0.6348844239059495 4.421078366233423, -0.21546600385784753 2.7397965201145698, 1.0773000295683266 1.6446401874720102 C2.3700660629945007 0.5494838548294507, 6.312005880483166 -0.07472996346597932, 7.116189958006883 -0.4143622926251407 C7.9203740355306005 -0.7539946217843021, 6.107061470946054 -0.46325101481359, 5.902404494710632 -0.3931537874829578 M5.282329262232073 1.2298870243196713 C6.371325366784225 0.3241647662221342, 7.314005658107499 -0.9301309991542891, 8.68364715540527 -0.8986002546569862 C10.05328865270304 -0.8670695101596834, 12.46015347197194 -0.03602053817691253, 13.500178246018695 1.4190714913034883 C14.54020302006545 2.874163520783889, 15.14510375397469 6.248448525573865, 14.923795799685799 7.831951922225419 C14.702487845396908 9.415455318876973, 13.570984159503668 9.816864030324247, 12.172330520285346 10.920091871212811 C10.773676881067024 12.023319712101376, 8.280003542549322 14.172940692535697, 6.53187396437587 14.451318967556801 C4.783744386202418 14.729697242577906, 2.6867307821461752 13.730325358523393, 1.6835530512446377 12.590361521339442 C0.6803753203431002 11.450397684155492, 0.48650887889484845 9.226846011085911, 0.5128075789666449 7.611535944453097 C0.5391062790384412 5.996225877820282, 1.3337917189873183 3.942395038638664, 1.841345251675416 2.898501121542554 C2.348898784363514 1.8546072044464434, 3.0749428588518017 1.6284876342927996, 3.558128775095231 1.348172441876435 C4.041314691338661 1.0678572494600702, 4.634703924315343 1.1274868798047113, 4.740460749135993 1.2166099670443655" stroke="#5f3dc4" stroke-width="1" fill="none"></path></g><g transform="translate(1179.750636389699 323.25) rotate(0 7 7)"><path d="M6.245822402264097 -0.36582210814317495 C7.463073398573544 -0.46246798970274633, 9.709519391294315 0.6451624757824107, 10.948286534655622 1.6137265061289199 C12.18705367801693 2.582290536475429, 13.39060680003391 3.92475123274368, 13.67842526243194 5.44556207393588 C13.96624372482997 6.966372915128081, 13.446025536000777 9.434349259988078, 12.675197309043806 10.738591553282124 C11.904369082086836 12.042833846576169, 10.317418873866757 12.807962539939762, 9.05345590069012 13.271015833700154 C7.789492927513482 13.734069127460547, 6.615663645132221 13.929409650199677, 5.091419469983981 13.516911315844482 C3.5671752948357405 13.104412981489286, 0.6040830198671983 12.258387355930074, -0.09200915019932143 10.796025827568982 C-0.7881013202658411 9.333664299207891, 0.31057239512963974 6.190624544196859, 0.9148664495848626 4.742742145677929 C1.5191605040400855 3.2948597471589993, 2.2984139880407293 3.017060666543004, 3.533755176532016 2.108731436455403 C4.7690963650233025 1.200402206367802, 7.381622506555627 -0.5557208503054231, 8.326913580532581 -0.7072332348476777 C9.272204654509537 -0.8587456193899324, 9.364678921725034 0.9279583731891392, 9.205501620393743 1.1996571292018752 M10.239234633976384 1.8036306067254984 C11.564224503266265 2.221482847685076, 13.207528414703292 2.1687424817085086, 13.737926689448427 3.495281421940602 C14.268324964193562 4.821820362172695, 13.780612018459271 8.324870718111704, 13.42162428244719 9.762864248118056 C13.06263654643511 11.200857778124409, 12.848416297712788 11.24561412915118, 11.584000273375944 12.12324260197871 C10.3195842490391 13.00087107480624, 7.307396944654862 15.303254872479837, 5.835128136426128 15.028635085083234 C4.362859328197395 14.754015297686632, 3.538258296688746 11.475922942216085, 2.750387424003544 10.475523877599091 C1.9625165513183425 9.475124812982097, 1.2015831665038081 10.086135987685912, 1.1079029003149188 9.02624069738127 C1.0142226341260294 7.966345407076629, 1.4427155343991829 5.811585206529701, 2.1883058268702085 4.116152135771238 C2.933896119341234 2.4207190650127757, 4.49491810630402 -0.41990174864232943, 5.5814446551410715 -1.1463577271695042 C6.667971203978123 -1.8728137056966792, 8.05777069500028 -0.7081256580631254, 8.70746511989252 -0.24258373539181033 C9.35715954478476 0.22295818727950473, 9.143058661801998 1.5642490637948474, 9.479611204494518 1.646893808858386" stroke="none" stroke-width="0" fill="#7950f2"></path><path d="M4.107189221550163 1.1725972242710636 C5.4564392480686115 0.6401874228514165, 7.703767543802217 -0.540631308726158, 9.120725774802887 -0.20628112012943234 C10.537684005803557 0.12806906846729332, 11.940135370839343 1.8966711150531967, 12.608938607554187 3.1786983558514175 C13.27774184426903 4.460725596649638, 13.24120482445159 5.926691870513745, 13.133545195091953 7.485882324659892 C13.025885565732317 9.04507277880604, 12.86412615631695 11.391770589593209, 11.962980831396365 12.533841080728301 C11.06183550647578 13.675911571863393, 9.326054428843388 14.509666896615817, 7.726673245568452 14.338305271470446 C6.127292062293514 14.166943646325075, 3.5472453855010024 12.717889794025155, 2.3666937317467394 11.505671329856078 C1.1861420779924763 10.293452865687001, 0.761128622972651 8.385418684610247, 0.6433633230428732 7.064994486455985 C0.5255980231130954 5.7445702883017224, 0.7561156863170927 4.85120364908499, 1.6601019321680726 3.583126140930501 C2.5640881780190523 2.315048632776012, 5.2769426992258905 -0.024871507794122283, 6.067280798148753 -0.5434705624709508 C6.857618897071615 -1.0620696171477793, 6.556599621107399 0.27832133696159145, 6.402130525705243 0.4715318128695296 M6.272697648947133 -0.33093144119682805 C8.028457037855137 -0.38800834799827716, 11.190649075154633 1.6693112375204058, 12.535202100813574 2.7746804182833644 C13.879755126472515 3.8800495990463233, 14.211623405081207 4.700095939627388, 14.340015802900776 6.301283643380923 C14.468408200720345 7.902471347134459, 14.126944269391043 11.00849748558698, 13.305556487730989 12.381806640804578 C12.484168706070935 13.755115796022176, 11.131385267311545 14.194585783746506, 9.41168911294045 14.541138574686507 C7.691992958569356 14.887691365626507, 4.204777724203098 14.994736920133267, 2.9873795615044236 14.46112338644458 C1.7699813988057487 13.927509852755893, 2.639080126090282 12.823381207553696, 2.1073001367484014 11.33945737255439 C1.575520147406521 9.855533537555084, -0.2743446587308143 7.164826568809047, -0.2033003745468589 5.55758037644874 C-0.13225609036290348 3.950334184088434, 1.1000154278488836 2.748796516829592, 2.533565841852134 1.6959802183925499 C3.9671162558553847 0.6431639199555077, 7.395677899261789 -0.4139369912242536, 8.398002109472644 -0.7593174141735126 C9.400326319683499 -1.1046978371227716, 8.473032641756411 -0.7214297318756568, 8.547511103117266 -0.3763023193030044" stroke="#5f3dc4" stroke-width="1" fill="none"></path></g><g transform="translate(1248.750636389699 325.25) rotate(0 7 7)"><path d="M10.72528600165018 0.8878855947923485 C12.157355217516084 1.391789772194132, 12.704666416398352 2.7797818764196167, 13.343147063428145 4.1256003325708654 C13.981627710457937 5.471418788722114, 14.989026433577136 7.577049332795409, 14.556169883828936 8.962796331699838 C14.123313334080736 10.348543330604269, 11.98196877795791 11.540407517018329, 10.746007764938945 12.440082325997444 C9.51004675191998 13.33975713497656, 8.643713385064126 14.490888161048387, 7.140403805715143 14.360845185574533 C5.637094226366158 14.230802210100679, 2.792704170085173 12.688109216772345, 1.726150288845039 11.65982447315432 C0.6595964076049052 10.631539729536295, 0.9926470115175219 9.500944188231085, 0.7410805182743401 8.19113672386638 C0.48951402503115826 6.881329259501676, -0.6630278783543856 5.018676980336768, 0.2167513293859482 3.800979686966096 C1.0965305371262821 2.5832823935954234, 4.154298611723951 1.3027747015942843, 6.019755764716343 0.8849529636423465 C7.885212917708734 0.4671312256904088, 10.681699310638697 1.303171773898675, 11.409494247340298 1.2940492592544697 C12.137289184041899 1.2849267446102643, 10.672735826205741 0.8210494909937999, 10.386525384925946 0.830217875777115 M10.205022713550688 1.2879422582697906 C11.440207413558593 1.9234847178366832, 12.468163591613358 2.8348651091282218, 12.966532622765602 3.9986687171747883 C13.464901653917845 5.162472325221355, 13.291401304965543 7.16337436661137, 13.195236900464147 8.270763906549192 C13.099072495962751 9.378153446487014, 13.354337752032427 9.626931287468398, 12.389546195757223 10.643005956801717 C11.42475463948202 11.659080626135037, 8.764139365470061 13.958330554498026, 7.40648756281293 14.367211922549108 C6.048835760155799 14.77609329060019, 5.256786871853497 13.815498781222214, 4.243635379814438 13.096294165108205 C3.230483887775379 12.377089548994196, 2.0750451299860075 11.655238828768436, 1.3275786105785752 10.051984225865048 C0.5801120911711428 8.448729622961661, -0.8504858472005953 4.900515490536627, -0.24116373663015622 3.47676654768788 C0.36815837394028283 2.0530176048391335, 3.582934419742858 1.939985492062324, 4.983511274001209 1.50949056877257 C6.3840881282595605 1.0789956454828158, 7.4440226655462025 1.2634546225429664, 8.16229738891995 0.8937970079493551 C8.880572112293697 0.5241393933557439, 9.356178541197112 -0.5112232093178241, 9.293159614243692 -0.7084551187890975" stroke="none" stroke-width="0" fill="#7950f2"></path><path d="M8.29996314119019 -0.7995054246582827 C10.016600298544653 -0.771622712021851, 12.234412889560922 0.23648843655939888, 13.145195446037514 1.5941152901833844 C14.055978002514106 2.95174214380737, 13.801976622525476 5.663401506250908, 13.764658480049738 7.34625569708563 C13.727340337573999 9.029109887920352, 13.837081257643224 10.542625895081335, 12.921286591183078 11.691240435191716 C12.005491924722932 12.839854975302098, 9.671945982418803 13.943379771626818, 8.269890481288861 14.23794293774792 C6.86783498015892 14.532506103869023, 5.724221602260659 14.377846795571847, 4.508953584403427 13.458619431918333 C3.293685566546195 12.539392068264819, 1.5423196298978108 10.02818566875439, 0.9782823741454703 8.722578755826842 C0.41424511839312983 7.416971842899293, 0.5677866149711418 6.963599064135157, 1.1247300498893846 5.6249779543530405 C1.6816734848076274 4.286356844570924, 3.060508184022739 1.6466747446948364, 4.3199429836549275 0.6908520971341439 C5.579377783287116 -0.2649705504265487, 7.896259903539378 -0.1511718768377356, 8.681338847682518 -0.10995793101111495 C9.466417791825657 -0.06874398518449429, 9.17612758894111 0.6673165668400618, 9.030416648513766 0.9381357720938679 M5.732922849585236 -0.27381947217863445 C6.90861172263906 -0.5768840186271751, 9.220945442757243 1.1784537762561365, 10.560952553640313 1.746350006470756 C11.900959664523382 2.3142462366853755, 13.360551312465065 2.0409662552940073, 13.772965514883655 3.133557909109083 C14.185379717302245 4.226149562924158, 13.61617868812809 6.71186772728606, 13.035437768151859 8.30189992936121 C12.454696848175628 9.891932131436361, 11.62761766398738 11.811050244854197, 10.288519995026268 12.673751121559988 C8.949422326065157 13.536451998265779, 6.424040104998544 13.7059397929571, 5.000851754385193 13.478105189595958 C3.577663403771843 13.250270586234816, 2.6765598737134164 12.211257968397955, 1.7493898913461674 11.30674350139314 C0.8222199089789183 10.402229034388323, -0.5433231834462701 9.74683351397295, -0.5621681398183016 8.051018387567066 C-0.5810130961903331 6.355203261161181, 0.4645645882169489 2.262644158112086, 1.636320153113978 1.1318527429578342 C2.8080757180110067 0.0010613278035824791, 5.987666495638666 1.195149130214913, 6.468365249563872 1.266269896641555 C6.949064003489078 1.337390663068197, 4.468508982671156 1.5517196909846185, 4.520512676665215 1.5585773415176858" stroke="#5f3dc4" stroke-width="1" fill="none"></path></g></svg>