<svg version="1.1" xmlns="http://www.w3.org/2000/svg" viewBox="0 0 773.75 392.25" width="773.75" height="392.25">
  <!-- svg-source:excalidraw -->
  
  <defs>
    <style>
      @font-face {
        font-family: "Virgil";
        src: url("https://excalidraw.com/Virgil.woff2");
      }
      @font-face {
        font-family: "Cascadia";
        src: url("https://excalidraw.com/Cascadia.woff2");
      }
    </style>
  </defs>
  <g><g transform="translate(66.72325045466425 257.9290091276821) rotate(0 -13.660198829281171 -87.5960005611181)"><path d="M0.7232504546642302 -0.7773029029369354 C-3.937197789549832 -30.108884698163404, -22.68956606090071 -147.4152524293012, -27.311678123474145 -176.6210102499183 M-0.3561817859765142 1.4290091276820749 C-5.195602232431997 -27.659747063165216, -23.536285037910588 -145.25699167310103, -28.043648113226542 -175.18438558787105" stroke="#1864ab" stroke-width="4" fill="none"></path></g><g transform="translate(66.72325045466425 257.9290091276821) rotate(0 -13.660198829281171 -87.5960005611181)"><path d="M-14.911283378006788 -148.19564516630345 C-18.908444159429195 -156.92271379213486, -23.00426322020502 -166.2691806304201, -27.753311772560725 -176.35888530820606 M-13.094546992780538 -148.51359391000443 C-19.10509747864231 -158.1845037616584, -25.018186354379555 -168.96717748390313, -27.47963616690601 -175.76372474938628" stroke="#1864ab" stroke-width="4" fill="none"></path></g><g transform="translate(66.72325045466425 257.9290091276821) rotate(0 -13.660198829281171 -87.5960005611181)"><path d="M-35.19386892440147 -145.07527244192886 C-31.98948313794548 -155.02998096474457, -28.900177098807973 -165.4818427898624, -27.753311772560725 -176.35888530820606 M-33.37713253917522 -145.39322118562984 C-31.541910459435073 -156.46938723413504, -29.621865092376936 -168.45714885711482, -27.47963616690601 -175.76372474938628" stroke="#1864ab" stroke-width="4" fill="none"></path></g></g><g><g transform="translate(66 255.49999999999977) rotate(0 65.24422910873318 -24.01335813888349)"><path d="M-0.8257548987865448 -0.8147193253040313 C20.62043924132983 -8.610715101162594, 107.1622113843759 -39.660931458075844, 129.08344824910165 -47.86956761479378 M0.9415850500110539 1.3719490835722534 C22.72400982487636 -6.6350767264111585, 109.75375349222062 -40.95184368534324, 131.3142131162528 -49.398665361339226" stroke="#087f5b" stroke-width="4" fill="none"></path></g><g transform="translate(66 255.49999999999977) rotate(0 65.24422910873318 -24.01335813888349)"><path d="M107.46807586880638 -31.069826060642676 C118.39881826426156 -34.84725334214584, 122.2450696642737 -43.266031744567734, 133.07209025749006 -50.91118069761433 M108.08752985032513 -29.406684169282393 C116.36330059060825 -37.71818375753896, 125.60733007287936 -44.35084509772385, 131.4284450454358 -49.309211768442765" stroke="#087f5b" stroke-width="4" fill="none"></path></g><g transform="translate(66 255.49999999999977) rotate(0 65.24422910873318 -24.01335813888349)"><path d="M99.96586768129187 -50.17052957378663 C113.22720446836442 -47.51942934780673, 119.57812021737884 -49.5613051191002, 133.07209025749006 -50.91118069761433 M100.58532166281061 -48.50738768242635 C111.77879362335969 -49.76799023374671, 123.78821306515486 -49.35993870715176, 131.4284450454358 -49.309211768442765" stroke="#087f5b" stroke-width="4" fill="none"></path></g></g><g><g transform="translate(66 255.49999999999977) rotate(0 59.965991467470246 42.304354695710344)"><path d="M0.7147434532642365 -1.0187674820423125 C20.224528088172278 12.962010830640795, 98.49160947601001 69.91434981226922, 118.07487433552743 84.05905024409294 M-0.369154963111505 1.0607756445463745 C19.422745316311094 15.235830319589006, 100.12358558196263 71.62296025193297, 120.3011378980521 85.62747687346302" stroke="#d9480f" stroke-width="4" fill="none"></path></g><g transform="translate(66 255.49999999999977) rotate(0 59.965991467470246 42.304354695710344)"><path d="M89.60896216597963 76.38270320447404 C102.57003479764701 79.40559318545772, 113.37419237617249 82.48176318343788, 119.4057023561839 86.05843535310589 M91.48578995731283 78.73701864930112 C97.47870307461282 79.05779704971701, 105.13152425657297 80.89643252817301, 120.6904514617566 86.18251045293175" stroke="#d9480f" stroke-width="4" fill="none"></path></g><g transform="translate(66 255.49999999999977) rotate(0 59.965991467470246 42.304354695710344)"><path d="M101.34365048651684 59.54770714252954 C109.81508093998507 69.11658666127514, 116.10513223357421 78.66885209990721, 119.4057023561839 86.05843535310589 M103.22047827785003 61.90202258735662 C106.30849466187045 66.33316442236712, 111.1468853056903 72.20948081163911, 120.6904514617566 86.18251045293175" stroke="#d9480f" stroke-width="4" fill="none"></path></g></g><g transform="translate(10 12.5) rotate(0 22.5 22.5)"><path d="M15.775426384176608 1.5680873932721902 C20.02046330621261 0.08049732123348718, 26.516149122763494 -0.8469310378213764, 31.1057364773489 1.1732031619856684 C35.6953238319343 3.193337361792713, 41.10362529417966 9.201292814045647, 43.31295051168904 13.68889259211446 C45.52227572919842 18.176492370183272, 45.65776793682652 23.68252585325449, 44.36168778240517 28.09880183039855 C43.06560762798382 32.51507780754261, 39.55641749093789 37.30434659607041, 35.53646958516095 40.18654845497883 C31.516521679384013 43.06875031388726, 25.0687763242333 45.577200338803586, 20.242000347743538 45.39201298384908 C15.415224371253775 45.20682562889457, 9.853628121286537 42.49144434449499, 6.575813726222364 39.075424325251795 C3.297999331158192 35.659404306008604, 1.0610826510713487 29.926244286348144, 0.5751139773585052 24.89589286838992 C0.08914530364566176 19.8655414504317, 0.7418452157883091 13.137523177721356, 3.6600016839453033 8.893315817502458 C6.578158152102297 4.649108457283561, 15.046523579684967 0.8536526948713199, 18.08405278630047 -0.5693512929234608 C21.121581992915978 -1.9923552807182414, 21.733118773268576 -0.25837458793115664, 21.885176923638333 0.3552918907337741 M18.079216952589242 0.19803555734805656 C22.371924059045742 -1.1938034835587834, 26.71174610463341 0.6484033825723663, 30.910265305765773 2.6707288222295773 C35.10878450689813 4.693054261886788, 40.91199617100573 8.11714170284726, 43.270332159383415 12.331988195291324 C45.6286681477611 16.546834687735387, 46.564916839850284 23.33796139377654, 45.06028123603186 27.959807776893953 C43.55564563221344 32.58165416001137, 38.52475360274816 37.39138220661868, 34.2425185364729 40.063066493995805 C29.960283470197634 42.73475078137293, 23.7617585339661 44.42912926088972, 19.366870838380265 43.98991350115671 C14.971983142794432 43.5506977414237, 11.25401973718926 40.591390234717664, 7.873192362957893 37.427771935597754 C4.492364988726525 34.26415363647784, -0.3388313382671825 29.81005993196098, -0.9180934070079445 25.00820370643726 C-1.4973554757487064 20.206347480913543, 1.2193968241614908 12.771191830745735, 4.39761995051332 8.616634582455456 C7.57584307686515 4.462077334165177, 15.962757091809484 1.5697319535751626, 18.151245351103032 0.08086021669559074 C20.33973361039658 -1.4080115201839811, 17.542830356515644 -0.5937319017059994, 17.528549506274608 -0.31659583882197495" stroke="#1864ab" stroke-width="1" fill="none"></path></g><g transform="translate(22.5 10) rotate(0 8.5 23)"><text x="8.5" y="32" font-family="Virgil, Segoe UI Emoji" font-size="36px" fill="#1864ab" text-anchor="middle" style="white-space: pre;" direction="ltr">y</text></g><g transform="translate(206.5 169.25) rotate(0 22.5 22.5)"><path d="M27.0705340238305 -0.10119087731024479 C31.539566318856902 0.6752528537539098, 35.96478157035155 5.178864462495193, 39.093107500521995 9.069606698787338 C42.22143343069244 12.960348935079482, 45.83806681120041 18.516576897131763, 45.840489604853204 23.243262540442625 C45.842912398505995 27.969948183753488, 42.330044676020655 33.96241790546715, 39.107644262438754 37.429720558652505 C35.88524384885685 40.89702321183786, 31.060680629257615 43.18928182950366, 26.506087123361805 44.047078459554754 C21.951493617465996 44.904875089605845, 15.969120568228526 44.96466567045372, 11.780083227063889 42.576500338959036 C7.591045885899253 40.18833500746435, 3.2336977581965005 34.26868645855334, 1.371863076373991 29.71808647058664 C-0.4899716054485188 25.16748648261994, -1.0063564423329392 19.885863188278833, 0.6090751361288298 15.272900411158828 C2.224506714590599 10.65993763403882, 6.41199388019664 4.328346362332676, 11.064452547144604 2.040309807866599 C15.716911214092569 -0.24772674659947702, 25.057591121496056 1.3780391693016139, 28.523827137816617 1.5446810843623702 C31.99006315413718 1.7113229994231265, 31.81066625525929 2.6976847022467, 31.861868645067972 3.040161298231137 M12.760214146352595 1.1407746360286062 C16.92715582435389 -0.7112486522906556, 23.895641248520125 0.923138163169279, 28.391576130617956 2.0911319882041326 C32.887511012715784 3.2591258132389864, 37.05315614380726 4.648405553585437, 39.735823438939576 8.148737586237727 C42.418490734071895 11.649069618890017, 44.763014573100335 18.01794851434257, 44.48757990141188 23.093124184117872 C44.21214522972342 28.168299853893174, 41.42850035990648 34.82885143926656, 38.08321540880884 38.599791604889546 C34.7379304577112 42.370731770512535, 29.221501268896695 45.449043671945255, 24.41587019482603 45.7187651778558 C19.610239120755367 45.98848668376635, 13.15930962658267 42.94708469968575, 9.24942896438486 40.21812064035281 C5.339548302187049 37.48915658101986, 2.166437631597481 33.99850560040354, 0.9565862216391636 29.344980821858123 C-0.2532651883191539 24.69145604331271, -0.12072115325541377 16.559730614378385, 1.9903205046349548 12.296971969080321 C4.101362162525323 8.034213323782257, 11.820034311213561 5.481461141040844, 13.622836168981374 3.7684289500697474 C15.425638026749187 2.0553967590986506, 12.988307702058417 2.1319897249720525, 12.80713165124183 2.01877882325374" stroke="#087f5b" stroke-width="1" fill="none"></path></g><g transform="translate(218 166.75) rotate(0 10.5 23)"><text x="10.5" y="32" font-family="Virgil, Segoe UI Emoji" font-size="36px" fill="#087f5b" text-anchor="middle" style="white-space: pre;" direction="ltr">z</text></g><g transform="translate(200.5 337.25) rotate(0 22.5 22.5)"><path d="M12.019056619281914 1.8404216415349879 C15.967643900889499 -0.24276758347676353, 22.76335171939849 0.212793272348466, 27.69222422871593 1.471827558104419 C32.62109673803337 2.730861843860372, 38.63055856063446 5.603350451992426, 41.59229167518655 9.394627356070705 C44.55402478973864 13.185904260148984, 46.15474705315794 19.265300518927063, 45.46262291602848 24.219488982574088 C44.77049877889902 29.173677446221113, 40.77890967193383 35.725370653856636, 37.43954685240977 39.11975813795286 C34.10018403288571 42.51414562204908, 29.97112250979115 44.27578973375556, 25.426445998884127 44.585813887151396 C20.881769487977103 44.89583804054723, 14.290146481356246 43.83386162904466, 10.171487786967635 40.979903058327864 C6.052829092579025 38.125944487611065, 2.13781830226325 32.18872562547418, 0.7144938325524706 27.462062462850607 C-0.7088306371583091 22.735399300227034, -0.7466165604371735 17.093740509383906, 1.6315409687029572 12.619924082586426 C4.009698497843088 8.146107655788946, 12.622382508088155 2.5572475931004695, 14.983439007393255 0.6191639020657291 C17.344495506698355 -1.318919788969011, 15.793917601628076 0.35811609297937375, 15.797879964533555 0.9914219363779857 M14.84475916068828 0.28318299109623624 C19.060533338538512 -1.5001211673595403, 26.260892254384437 -0.1917257477718115, 30.70408740466818 1.5270928428286688 C35.14728255495192 3.245911433429149, 39.194479126072025 6.5175726334531126, 41.50393006239072 10.596094534699118 C43.81338099870942 14.674616435945122, 45.33652492082567 21.111311955630985, 44.56079302258035 25.9982242503047 C43.78506112433503 30.885136544978412, 40.81616300512135 36.70135561344804, 36.84953867291883 39.9175683027414 C32.88291434071631 43.133780992034765, 25.63599869266941 45.37194916246691, 20.76104702936522 45.2955003860649 C15.886095366061028 45.21905160966289, 10.786411363302788 42.68338528105066, 7.599828693093693 39.45887564432934 C4.413246022884598 36.23436600760802, 2.534143888493499 30.684443207889732, 1.6415510081106461 25.948442565736972 C0.7489581277277931 21.212441923584212, -0.22914371628962593 15.10893765498053, 2.244271410796575 11.042871791412782 C4.717686537882775 6.976805927845035, 14.053670387927943 3.004056172194683, 16.482041770627852 1.5520473843304892 C18.91041315332776 0.10003859646629532, 16.735093395416328 2.0573150907278315, 16.814499706996028 2.3308190642276188" stroke="#d9480f" stroke-width="1" fill="none"></path></g><g transform="translate(211.5 334.75) rotate(0 10 23)"><text x="10" y="32" font-family="Virgil, Segoe UI Emoji" font-size="36px" fill="#d9480f" text-anchor="middle" style="white-space: pre;" direction="ltr">x</text></g><g><g transform="translate(584.9732504546641 257.9290091276821) rotate(0 -13.674734106170945 -88.5131949929893)"><path d="M0.46447264552116385 -0.24092804789543154 C-4.085385999083522 -29.30194709898127, -22.473160764575024 -145.71519349222845, -27.161050415039085 -175.27089638120492 M-0.7508179449196906 -1.4130192183796317 C-5.421589251970876 -30.699167224412466, -23.206266961013917 -147.54440179406507, -27.813940857863077 -176.78546193808313" stroke="#1864ab" stroke-width="4" fill="none"></path></g><g transform="translate(584.9732504546641 257.9290091276821) rotate(0 -13.674734106170945 -88.5131949929893)"><path d="M-13.7678622631542 -149.5565216241196 C-15.738447743357682 -158.52712030747372, -24.07942018380709 -167.38979117023914, -28.415443544602045 -175.92165351480241 M-13.494661587309054 -149.88669790306838 C-18.11171727850584 -158.82584992539668, -22.125160454249333 -168.87683332165082, -27.611832578992495 -176.81673257619138" stroke="#1864ab" stroke-width="4" fill="none"></path></g><g transform="translate(584.9732504546641 257.9290091276821) rotate(0 -13.674734106170945 -88.5131949929893)"><path d="M-34.04809792144614 -146.4209125875872 C-29.677576513478115 -156.44677678469242, -31.701084089501773 -166.28621637197557, -28.415443544602045 -175.92165351480241 M-33.774897245601 -146.75108886653598 C-31.36965497544734 -156.60336590942018, -28.39006710548904 -167.73557004241113, -27.611832578992495 -176.81673257619138" stroke="#1864ab" stroke-width="4" fill="none"></path></g></g><g><g transform="translate(451.25000000000045 304.4999999999998) rotate(180 64.66577937204858 -24.188707381486893)"><path d="M-0.24092804789543154 0.5622000396251678 C21.76955442229907 -7.671814535061518, 109.64231411417325 -40.62206140955289, 131.15811274647712 -48.93961480259895 M-1.8265540023799987 -0.18824888491071756 C20.20641047585445 -8.25325336310702, 108.6559101551616 -39.36756686134574, 130.81807647475043 -47.37048732274212" stroke="#087f5b" stroke-width="4" fill="none"></path></g><g transform="translate(451.25000000000045 304.4999999999998) rotate(180 64.66577937204858 -24.188707381486893)"><path d="M108.63806510103086 -26.31953106718796 C112.91981338284866 -34.40808639681691, 117.43941949043197 -37.39391512581031, 131.68188489803114 -46.47408713930287 M108.30788882208208 -28.258692203934366 C113.49038536611559 -31.21218567464159, 117.2828139677356 -35.92104167020625, 130.78680583664217 -46.83545944624581" stroke="#087f5b" stroke-width="4" fill="none"></path></g><g transform="translate(451.25000000000045 304.4999999999998) rotate(180 64.66577937204858 -24.188707381486893)"><path d="M101.75582540614757 -45.65226959973974 C107.65816440572108 -49.38484527138942, 113.7235318292986 -48.028512047193864, 131.68188489803114 -46.47408713930287 M101.42564912719878 -47.591430736486146 C107.87020593573774 -46.540734409740615, 113.08493704875438 -47.254233692073434, 130.78680583664217 -46.83545944624581" stroke="#087f5b" stroke-width="4" fill="none"></path></g></g><g><g transform="translate(584.25 255.49999999999977) rotate(0 59.229300764244954 42.25504272839984)"><path d="M0.5622000396251678 1.158112746477127 C20.328185464938482 15.007244712114334, 99.37793859044712 69.10703280568123, 119.06038519740105 82.85386374592781 M-0.6017836689110845 0.7205179930385204 C18.970822815879558 14.694811988836156, 98.42523748147921 69.7818018168863, 118.14404196240939 83.7895674637612" stroke="#d9480f" stroke-width="4" fill="none"></path></g><g transform="translate(584.25 255.49999999999977) rotate(0 59.229300764244954 42.25504272839984)"><path d="M91.09998119480201 76.11249041577125 C97.05770403649217 77.93859738251648, 108.18018187136478 82.00863352834074, 119.04044214584864 81.92282226002776 M89.1608200580556 76.86525852998042 C96.40992617311333 77.39308760832373, 101.94332193592614 79.18205120942756, 118.6790698389057 84.12019381738268" stroke="#d9480f" stroke-width="4" fill="none"></path></g><g transform="translate(584.25 255.49999999999977) rotate(0 59.229300764244954 42.25504272839984)"><path d="M102.87808911245355 59.307842955440705 C104.81275624263458 66.88096618834773, 111.94591762356626 76.64283816085033, 119.04044214584864 81.92282226002776 M100.93892797570714 60.06061106964988 C105.60927940940297 64.308428824669, 108.58548859555532 69.7459087419348, 118.6790698389057 84.12019381738268" stroke="#d9480f" stroke-width="4" fill="none"></path></g></g><g transform="translate(528.25 12.5) rotate(0 22.5 22.5)"><path d="M12.59066415747449 2.9654887105752863 C16.41819593885338 0.5173890905696705, 21.878686974086506 -1.3649374093366153, 26.489417203421894 -0.2837306961307817 C31.100147432757282 0.7974760170750519, 37.17541798510794 5.3406090059703315, 40.25504553348682 9.452728989810288 C43.3346730818657 13.564848973650243, 45.00777496923276 19.696259402923097, 44.96718249369516 24.388989206908953 C44.92659001815756 29.08171901089481, 43.24182018972182 34.210064648953804, 40.011490680261204 37.609107813725416 C36.78116117080059 41.00815097849703, 30.437101848472352 44.08847305820379, 25.585205436931457 44.783248195538626 C20.73330902539056 45.47802333287346, 15.049338270834365 44.457646459920454, 10.900112211015824 41.77775863773446 C6.750886151197281 39.09787081554846, 2.269559305900751 33.38676542064301, 0.6898490780202025 28.703921262422643 C-0.8898611498603461 24.021077104202277, -1.2772822636424692 18.295879707360037, 1.421850843732532 13.68069368841226 C4.120983951107533 9.065507669464486, 13.71135899814908 3.2060973140246096, 16.88464772227021 1.0128051487359961 C20.057936446391338 -1.1804870165526173, 20.5480673739865 0.11877033758192351, 20.4615831884593 0.5209406966805794 M26.973482269657133 -0.78617969795296 C31.34686874123233 -0.5210466006530714, 35.64696976485131 4.037601107062195, 38.73481615471525 8.053176213142104 C41.82266254457918 12.068751319222013, 45.17747401137647 18.500722179623565, 45.50056060884074 23.307270938526493 C45.82364720630502 28.11381969742942, 43.90327766832338 33.14661145027625, 40.6733357395009 36.89246876655966 C37.443393810678415 40.63832608284307, 30.934443229754322 44.85929865636178, 26.120909035905836 45.78241483622696 C21.30737484205735 46.705531016092145, 15.88585876696195 44.9407372514639, 11.792130576409972 42.43116584575076 C7.698402385857994 39.92159444003762, 3.083475995076898 35.18576044538809, 1.5585398925939664 30.724986401948122 C0.03360379011103465 26.26421235850815, 0.8712226438101787 20.278002206306876, 2.642513961512382 15.666521585110932 C4.413805279214585 11.055040963914987, 8.129648099716675 5.4385051664357515, 12.186287798807186 3.056102674772454 C16.242927497897696 0.6737001831091565, 24.5258365518202 1.5059759964180983, 26.98235215605544 1.3721066351311464 C29.438867760290684 1.2382372738441945, 26.885263359422915 2.2846337806723302, 26.925381424218642 2.252886507050743" stroke="#1864ab" stroke-width="1" fill="none"></path></g><g transform="translate(540.75 10) rotate(0 8.5 23)"><text x="8.5" y="32" font-family="Virgil, Segoe UI Emoji" font-size="36px" fill="#1864ab" text-anchor="middle" style="white-space: pre;" direction="ltr">y</text></g><g transform="translate(387.75 289.25) rotate(0 22.5 22.5)"><path d="M18.195911955762224 -0.5749492495707429 C22.587678988702034 -1.5186439297481238, 29.8193914766587 1.1077034515102988, 34.0890436024011 3.8986802211485276 C38.358695728143495 6.689656990786757, 42.09359098237956 11.725302928524622, 43.81382471021661 16.17091136825863 C45.534058438053655 20.61651980799264, 46.13305779946065 26.23075637630145, 44.4104459694234 30.572330859552572 C42.68783413938615 34.913905342803695, 37.780918844679626 39.834420008205, 33.47815372999309 42.220358267765356 C29.175388615306556 44.60629652732571, 23.409481063550096 45.919367333203, 18.593855281304194 44.88796041691468 C13.778229499058291 43.85655350062636, 7.7342241697756045 39.88030477538002, 4.584399036517677 36.03191677003545 C1.43457390325975 32.183528764690884, -0.576373567866624 26.508903372348687, -0.30509551824336967 21.79763238484729 C-0.03381746862011542 17.086361397345893, 2.7375830352276975 11.38669921223106, 6.212067334257203 7.764290845027073 C9.686551633286708 4.141882477823087, 17.927101529282865 1.2173004429976142, 20.54181027593366 0.0631821816233682 C23.156519022584455 -1.0909360797508778, 21.7753236902325 0.440672287509526, 21.900319814161964 0.8395812767815976 M31.974575302003963 2.659211162529534 C36.13701799023734 4.860200818749236, 41.64961031539897 10.390010293405137, 43.78908957109134 14.829854926507172 C45.92856882678371 19.269699559609208, 46.41424239413719 24.665778607662286, 44.811450836158194 29.29827896114174 C43.2086592781792 33.93077931462119, 38.30932807588668 39.9766207983695, 34.17234022321738 42.6248570473839 C30.03535237054808 45.273093296398294, 24.67387315119226 45.94087361276774, 19.989523720142373 45.18769645522812 C15.305174289092484 44.4345192976885, 9.172610319123088 41.600736107256466, 6.0662436369180455 38.105794102146206 C2.9598769547130037 34.610852097035945, 1.4123032842610985 29.10617876203854, 1.351323626912123 24.21804442456657 C1.2903439695631473 19.329910087094603, 2.8694974114638683 12.549080691350333, 5.700365692824192 8.776988077314403 C8.531233974184516 5.004895463278473, 13.684234329727069 2.376137327291355, 18.336533315074067 1.5854887403509927 C22.988832300421066 0.7948401534106306, 31.002538235412253 4.032923853328318, 33.61415960490618 4.0330965556722305 C36.2257809744001 4.033269258016143, 34.25648610617135 1.3425230996454456, 34.00626153203761 1.5865249544144682" stroke="#087f5b" stroke-width="1" fill="none"></path></g><g transform="translate(399.25 286.75) rotate(0 10.5 23)"><text x="10.5" y="32" font-family="Virgil, Segoe UI Emoji" font-size="36px" fill="#087f5b" text-anchor="middle" style="white-space: pre;" direction="ltr">z</text></g><g transform="translate(718.75 337.25) rotate(0 22.5 22.5)"><path d="M27.371806472301135 1.16944758693543 C32.05505199611463 2.18752140312393, 37.32911062673694 6.043479443833922, 40.422439454815404 9.76244107628609 C43.515768282893866 13.481402708738257, 46.13545983505627 18.815678129869237, 45.93177944077189 23.483217381648434 C45.728099046487515 28.15075663342763, 42.54907933236263 34.155684520952086, 39.20035708910913 37.767676586961265 C35.851634845855635 41.379668652970444, 30.712324718932575 44.634118051729914, 25.839445981250897 45.15516977770352 C20.96656724356922 45.67622150367713, 14.15466928443746 43.589924122442724, 9.963084663019067 40.89398694280288 C5.771500041600675 38.19804976316304, 1.9574753816251054 33.47761922762983, 0.6899382527405464 28.979546699864482 C-0.5775988761440125 24.48147417209913, 0.4747752153278171 18.322392406415915, 2.357861889711714 13.90555177621077 C4.240948564095611 9.488711146005622, 7.309220566343635 4.45468513238391, 11.988458299043927 2.4785029186335983 C16.66769603174422 0.5023207048832867, 26.708283490869718 1.8224453327570174, 30.433288285913466 2.0484584937088997 C34.158293080957215 2.274471654660782, 34.228769236217616 3.4748876745169017, 34.33848706930641 3.8345818843448924 M14.895007408751221 2.4490224630413913 C19.358884195028732 0.5168108067387616, 26.226767478397772 -0.3538818658033167, 30.635545461795036 1.2412530440996505 C35.0443234451923 2.8363879540026176, 38.92715284698849 7.834190177252526, 41.3476753091348 12.019831922459195 C43.76819777128111 16.205473667665864, 45.80791053237926 21.715473354945463, 45.15868023467287 26.355103515339664 C44.50944993696648 30.994733675733865, 40.9340093410754 36.627700228697805, 37.45229352289646 39.8576128848244 C33.97057770471752 43.08752554095099, 28.939552355976332 45.7124460194585, 24.268385325599223 45.734579452099204 C19.597218295222113 45.75671288473991, 13.282290760990549 42.96439407689937, 9.425291340633814 39.99041348066865 C5.56829192027708 37.01643288443793, 2.110310223514174 32.36883367931561, 1.1263888034588163 27.890695874714883 C0.14246738340345855 23.41255807011416, 1.0900243208727463 17.7442089664555, 3.5217628203016673 13.1215866530643 C5.953501319730588 8.498964339673101, 13.834314292152044 1.8604279596327773, 15.716819800032344 0.15496199436768876 C17.599325307912643 -1.5505039708973998, 14.971813994541295 2.277903820258963, 14.816795867583462 2.888790861473769" stroke="#d9480f" stroke-width="1" fill="none"></path></g><g transform="translate(729.75 334.75) rotate(0 10 23)"><text x="10" y="32" font-family="Virgil, Segoe UI Emoji" font-size="36px" fill="#d9480f" text-anchor="middle" style="white-space: pre;" direction="ltr">x</text></g></svg>